<svg width="161" height="30" viewBox="0 0 161 30" fill="none" xmlns="http://www.w3.org/2000/svg">
<path d="M157.354 11.7276C157.833 11.7276 158.038 12.3371 157.655 12.6264L151.498 17.284C150.994 17.6648 150.783 18.3202 150.969 18.9233L153.307 26.4843C153.451 26.9498 152.912 27.3252 152.525 27.0289L146.579 22.4736C146.041 22.0612 145.293 22.0612 144.754 22.4736L138.796 27.0378C138.41 27.3337 137.872 26.9597 138.014 26.4945L140.319 18.9669C140.503 18.3679 140.294 17.718 139.797 17.337L133.646 12.6245C133.266 12.3339 133.472 11.7276 133.95 11.7276H141.458C142.116 11.7276 142.697 11.2991 142.891 10.6706L145.189 3.23795C145.334 2.7682 145.999 2.76819 146.144 3.23795L148.442 10.6706C148.637 11.2991 149.218 11.7276 149.875 11.7276H157.354Z" fill="white" stroke="#E38837"/>
<path d="M124.354 11.7276C124.833 11.7276 125.038 12.3371 124.655 12.6264L118.498 17.284C117.994 17.6648 117.783 18.3202 117.969 18.9233L120.307 26.4843C120.451 26.9498 119.912 27.3252 119.525 27.0289L113.579 22.4736C113.041 22.0612 112.293 22.0612 111.754 22.4736L105.796 27.0378C105.41 27.3337 104.872 26.9597 105.014 26.4945L107.319 18.9669C107.503 18.3679 107.294 17.718 106.797 17.337L100.646 12.6245C100.266 12.3339 100.472 11.7276 100.95 11.7276H108.458C109.116 11.7276 109.697 11.2991 109.891 10.6706L112.189 3.23795C112.334 2.7682 112.999 2.76819 113.144 3.23795L115.442 10.6706C115.637 11.2991 116.218 11.7276 116.875 11.7276H124.354Z" fill="white" stroke="#E38837"/>
<path d="M91.511 11.7276C91.9866 11.7276 92.1936 12.329 91.8187 12.6217L85.8384 17.2911C85.3512 17.6715 85.1472 18.3117 85.3246 18.9038L87.5809 26.4377C87.7212 26.906 87.1753 27.2765 86.7918 26.9733L81.1388 22.5029C80.5934 22.0717 79.8232 22.0717 79.2779 22.5029L73.6134 26.9824C73.2305 27.2852 72.6851 26.916 72.8239 26.448L75.0487 18.9474C75.2231 18.3595 75.022 17.7247 74.541 17.3443L68.5666 12.6198C68.1948 12.3257 68.4027 11.7276 68.8767 11.7276H76.1013C76.764 11.7276 77.3481 11.2928 77.5382 10.6579L79.7294 3.342C79.8717 2.8666 80.5449 2.86661 80.6873 3.342L82.8784 10.6579C83.0685 11.2928 83.6527 11.7276 84.3154 11.7276H91.511Z" fill="white" stroke="#E38837"/>
<path d="M59.9569 13.0251C60.7217 12.4466 60.3126 11.2276 59.3536 11.2276H51.8753C51.4368 11.2276 51.0495 10.9419 50.9199 10.523L48.6221 3.09027C48.3316 2.15076 47.0017 2.15075 46.7113 3.09027L44.4134 10.523C44.2839 10.9419 43.8965 11.2276 43.458 11.2276H35.9497C34.9939 11.2276 34.5828 12.4401 35.3416 13.0214L41.493 17.7339C41.8246 17.9879 41.9634 18.4212 41.8411 18.8205L39.5362 26.3481C39.2514 27.2785 40.3282 28.0264 41.1006 27.4347L47.0585 22.8705C47.4174 22.5956 47.916 22.5956 48.2748 22.8705L54.2211 27.4258C54.9946 28.0184 56.0724 27.2675 55.7846 26.3366L53.4471 18.7757C53.3228 18.3736 53.4636 17.9366 53.7992 17.6827L59.9569 13.0251Z" fill="#FFAD33"/>
<path d="M26.9569 13.0251C27.7217 12.4466 27.3126 11.2276 26.3536 11.2276H18.8753C18.4368 11.2276 18.0495 10.9419 17.9199 10.523L15.6221 3.09027C15.3316 2.15076 14.0017 2.15075 13.7113 3.09027L11.4134 10.523C11.2839 10.9419 10.8965 11.2276 10.458 11.2276H2.94972C1.99387 11.2276 1.5828 12.4401 2.34158 13.0214L8.49304 17.7339C8.82458 17.9879 8.96336 18.4212 8.84108 18.8205L6.53624 26.3481C6.25138 27.2785 7.32818 28.0264 8.10056 27.4347L14.0585 22.8705C14.4174 22.5956 14.916 22.5956 15.2748 22.8705L21.2211 27.4258C21.9946 28.0184 23.0724 27.2675 22.7846 26.3366L20.4471 18.7757C20.3228 18.3736 20.4636 17.9366 20.7992 17.6827L26.9569 13.0251Z" fill="#FFAD33"/>
</svg>
