<svg width="161" height="30" viewBox="0 0 161 30" fill="none" xmlns="http://www.w3.org/2000/svg">
<path d="M157.354 11.7276C157.833 11.7276 158.038 12.3371 157.655 12.6264L151.498 17.284C150.994 17.6648 150.783 18.3202 150.969 18.9233L153.307 26.4843C153.451 26.9498 152.912 27.3252 152.525 27.0289L146.579 22.4736C146.041 22.0612 145.293 22.0612 144.754 22.4736L138.796 27.0378C138.41 27.3337 137.872 26.9597 138.014 26.4945L140.319 18.9669C140.503 18.3679 140.294 17.718 139.797 17.337L133.646 12.6245C133.266 12.3339 133.472 11.7276 133.95 11.7276H141.458C142.116 11.7276 142.697 11.2991 142.891 10.6706L145.189 3.23795C145.334 2.7682 145.999 2.76819 146.144 3.23795L148.442 10.6706C148.637 11.2991 149.218 11.7276 149.875 11.7276H157.354Z" fill="white" stroke="#E38837"/>
<path d="M124.354 11.7276C124.833 11.7276 125.038 12.3371 124.655 12.6264L118.498 17.284C117.994 17.6648 117.783 18.3202 117.969 18.9233L120.307 26.4843C120.451 26.9498 119.912 27.3252 119.525 27.0289L113.579 22.4736C113.041 22.0612 112.293 22.0612 111.754 22.4736L105.796 27.0378C105.41 27.3337 104.872 26.9597 105.014 26.4945L107.319 18.9669C107.503 18.3679 107.294 17.718 106.797 17.337L100.646 12.6245C100.266 12.3339 100.472 11.7276 100.95 11.7276H108.458C109.116 11.7276 109.697 11.2991 109.891 10.6706L112.189 3.23795C112.334 2.7682 112.999 2.76819 113.144 3.23795L115.442 10.6706C115.637 11.2991 116.218 11.7276 116.875 11.7276H124.354Z" fill="white" stroke="#E38837"/>
<path d="M92.1264 13.0158C92.8762 12.4304 92.4622 11.2276 91.511 11.2276H84.3154C83.8736 11.2276 83.4841 10.9377 83.3574 10.5145L81.1663 3.19855C80.8815 2.24775 79.5351 2.24776 79.2504 3.19855L77.0593 10.5145C76.9325 10.9377 76.5431 11.2276 76.1013 11.2276H68.8767C67.9286 11.2276 67.5128 12.4239 68.2565 13.012L74.2309 17.7365C74.5516 17.9901 74.6856 18.4133 74.5693 18.8052L72.3445 26.3058C72.0669 27.2418 73.1577 27.9802 73.9235 27.3745L79.5881 22.8951C79.9516 22.6076 80.4651 22.6076 80.8286 22.8951L86.4817 27.3655C87.2486 27.972 88.3404 27.2308 88.0599 26.2942L85.8035 18.7603C85.6853 18.3656 85.8213 17.9388 86.1461 17.6852L92.1264 13.0158Z" fill="#FFAD33"/>
<path d="M59.9569 13.0251C60.7217 12.4466 60.3126 11.2276 59.3536 11.2276H51.8753C51.4368 11.2276 51.0495 10.9419 50.9199 10.523L48.6221 3.09027C48.3316 2.15076 47.0017 2.15075 46.7113 3.09027L44.4134 10.523C44.2839 10.9419 43.8965 11.2276 43.458 11.2276H35.9497C34.9939 11.2276 34.5828 12.4401 35.3416 13.0214L41.493 17.7339C41.8246 17.9879 41.9634 18.4212 41.8411 18.8205L39.5362 26.3481C39.2514 27.2785 40.3282 28.0264 41.1006 27.4347L47.0585 22.8705C47.4174 22.5956 47.916 22.5956 48.2748 22.8705L54.2211 27.4258C54.9946 28.0184 56.0724 27.2675 55.7846 26.3366L53.4471 18.7757C53.3228 18.3736 53.4636 17.9366 53.7992 17.6827L59.9569 13.0251Z" fill="#FFAD33"/>
<path d="M26.9569 13.0251C27.7217 12.4466 27.3126 11.2276 26.3536 11.2276H18.8753C18.4368 11.2276 18.0495 10.9419 17.9199 10.523L15.6221 3.09027C15.3316 2.15076 14.0017 2.15075 13.7113 3.09027L11.4134 10.523C11.2839 10.9419 10.8965 11.2276 10.458 11.2276H2.94972C1.99387 11.2276 1.5828 12.4401 2.34158 13.0214L8.49304 17.7339C8.82458 17.9879 8.96336 18.4212 8.84108 18.8205L6.53624 26.3481C6.25138 27.2785 7.32818 28.0264 8.10056 27.4347L14.0585 22.8705C14.4174 22.5956 14.916 22.5956 15.2748 22.8705L21.2211 27.4258C21.9946 28.0184 23.0724 27.2675 22.7846 26.3366L20.4471 18.7757C20.3228 18.3736 20.4636 17.9366 20.7992 17.6827L26.9569 13.0251Z" fill="#FFAD33"/>
</svg>
