<svg width="46" height="46" viewBox="0 0 46 46" fill="none" xmlns="http://www.w3.org/2000/svg">
<path d="M43.634 35.5536C40.9564 35.5536 38.7858 33.383 38.7858 30.7054C38.7858 30.2768 38.6155 29.8657 38.3124 29.5626C38.0094 29.2596 37.5983 29.0893 37.1697 29.0893C36.7411 29.0893 36.33 29.2596 36.027 29.5626C35.7239 29.8657 35.5536 30.2768 35.5536 30.7054C35.5536 33.383 33.383 35.5536 30.7054 35.5536C30.2768 35.5536 29.8658 35.7238 29.5627 36.0269C29.2596 36.33 29.0894 36.741 29.0894 37.1697C29.0894 37.5983 29.2596 38.0093 29.5627 38.3124C29.8658 38.6155 30.2768 38.7857 30.7054 38.7857C33.383 38.7857 35.5536 40.9563 35.5536 43.6339C35.5536 44.0625 35.7239 44.4736 36.027 44.7767C36.33 45.0797 36.7411 45.25 37.1697 45.25C37.5983 45.25 38.0094 45.0797 38.3124 44.7767C38.6155 44.4736 38.7858 44.0625 38.7858 43.6339C38.7858 40.9563 40.9564 38.7857 43.634 38.7857C44.0626 38.7857 44.4737 38.6155 44.7767 38.3124C45.0798 38.0093 45.2501 37.5983 45.2501 37.1697C45.2501 36.741 45.0798 36.33 44.7767 36.0269C44.4737 35.7238 44.0626 35.5536 43.634 35.5536Z" fill="#D9D9D9"/>
<path d="M24.2411 35.5536H4.84821C4.41961 35.5536 4.00855 35.3833 3.70548 35.0802C3.40241 34.7772 3.23214 34.3661 3.23214 33.9375V32.4253C3.23214 30.7136 3.91215 29.0719 5.12257 27.8614L5.98754 26.9965C8.03459 24.9494 11.3546 24.953 13.3972 27.0046C13.5475 27.156 13.7262 27.2763 13.9231 27.3583C14.1201 27.4403 14.3313 27.4826 14.5446 27.4826C14.758 27.4826 14.9692 27.4403 15.1661 27.3583C15.3631 27.2763 15.5418 27.156 15.6921 27.0046L19.2856 23.4043C22.0207 20.6639 26.4609 20.6644 29.1955 23.4053L31.174 25.3885C31.4783 25.6928 31.8911 25.8638 32.3214 25.8638C32.7518 25.8638 33.1645 25.6928 33.4688 25.3885C33.7731 25.0842 33.9441 24.6714 33.9441 24.2411C33.9441 23.8107 33.7731 23.398 33.4688 23.0937L25.3885 15.0133C25.2382 14.8618 25.0595 14.7416 24.8626 14.6596C24.6656 14.5775 24.4544 14.5353 24.2411 14.5353C24.0277 14.5353 23.8165 14.5775 23.6196 14.6596C23.4226 14.7416 23.2439 14.8618 23.0937 15.0133L18.25 19.8661C16.2055 21.9145 12.8859 21.9125 10.8438 19.8615C10.6936 19.71 10.5149 19.5898 10.3179 19.5078C10.121 19.4257 9.90977 19.3835 9.69643 19.3835C9.48309 19.3835 9.27186 19.4257 9.07492 19.5078C8.87799 19.5898 8.69925 19.71 8.54902 19.8615C6.58956 21.8269 3.23214 20.4392 3.23214 17.6639V4.84821C3.23214 4.41961 3.40241 4.00855 3.70548 3.70548C4.00855 3.40241 4.41961 3.23214 4.84821 3.23214H33.9375C34.3661 3.23214 34.7772 3.40241 35.0802 3.70548C35.3833 4.00855 35.5536 4.41961 35.5536 4.84821V24.2411C35.5536 24.6697 35.7238 25.0807 36.0269 25.3838C36.33 25.6869 36.741 25.8571 37.1696 25.8571C37.5983 25.8571 38.0093 25.6869 38.3124 25.3838C38.6154 25.0807 38.7857 24.6697 38.7857 24.2411V4.84821C38.7857 3.56239 38.2749 2.32923 37.3657 1.42001C36.4565 0.510793 35.2233 0 33.9375 0H4.84821C3.56239 0 2.32923 0.510793 1.42001 1.42001C0.510793 2.32923 0 3.56239 0 4.84821V33.9375C0 35.2233 0.510793 36.4565 1.42001 37.3657C2.32923 38.2749 3.56239 38.7857 4.84821 38.7857H24.2411C24.6697 38.7857 25.0807 38.6154 25.3838 38.3124C25.6869 38.0093 25.8571 37.5983 25.8571 37.1696C25.8571 36.741 25.6869 36.33 25.3838 36.0269C25.0807 35.7238 24.6697 35.5536 24.2411 35.5536Z" fill="#D9D9D9"/>
<path d="M9.69629 11.3125C9.69629 12.2714 9.98063 13.2087 10.5134 14.006C11.0461 14.8033 11.8033 15.4247 12.6892 15.7917C13.5751 16.1586 14.5499 16.2546 15.4903 16.0676C16.4308 15.8805 17.2947 15.4187 17.9727 14.7407C18.6507 14.0627 19.1125 13.1988 19.2996 12.2583C19.4866 11.3179 19.3906 10.3431 19.0237 9.45718C18.6567 8.57128 18.0353 7.81409 17.238 7.28137C16.4407 6.74864 15.5034 6.46429 14.5445 6.46429C13.2587 6.46429 12.0255 6.97509 11.1163 7.8843C10.2071 8.79352 9.69629 10.0267 9.69629 11.3125ZM16.1606 11.3125C16.1606 11.6321 16.0658 11.9446 15.8882 12.2104C15.7106 12.4761 15.4582 12.6832 15.1629 12.8056C14.8676 12.9279 14.5427 12.9599 14.2292 12.8975C13.9157 12.8352 13.6278 12.6813 13.4018 12.4552C13.1758 12.2292 13.0218 11.9413 12.9595 11.6278C12.8971 11.3143 12.9291 10.9894 13.0514 10.6941C13.1738 10.3988 13.3809 10.1464 13.6467 9.96879C13.9124 9.79122 14.2249 9.69644 14.5445 9.69644C14.9731 9.69644 15.3842 9.8667 15.6872 10.1698C15.9903 10.4728 16.1606 10.8839 16.1606 11.3125Z" fill="#D9D9D9"/>
</svg>
