<svg width="109" height="157" viewBox="0 0 109 157" fill="none" xmlns="http://www.w3.org/2000/svg">
<path opacity="0.4" d="M92.0059 54.4207L102.606 54.1656L105.713 47.1585L60.223 48.2532L57.116 55.2604L76.1293 54.8028C81.7154 55.6189 87.5455 58.0349 89.3105 62.5184L60.5872 63.2096L57.4764 70.2383L89.0413 69.4786C88.5973 70.4482 87.9699 71.3226 87.1935 72.0537C82.133 76.8855 71.4745 77.202 62.8865 77.2631L63.0003 81.9918L93.111 110.838L102.911 110.602L74.781 83.6437C80.3596 83.0813 87.3807 81.4308 91.9563 77.0902C94.1974 75.0092 95.7461 72.2907 96.3933 69.3017L102.966 69.1435L106.073 62.1321L96.4703 62.3632C95.8348 59.3194 94.2758 56.5458 92.0059 54.4207Z" fill="#A0A0A0"/>
<path opacity="0.78" d="M40.6936 93.5591L52.3893 93.2776L55.817 85.5434L5.64108 86.751L2.21334 94.4852L23.1824 93.9805C29.357 94.8767 35.7752 97.5312 37.7272 102.49L6.05963 103.252L2.63173 110.982L37.4447 110.144C36.9556 111.214 36.2633 112.179 35.4063 112.985C29.822 118.292 18.0901 118.664 8.59449 118.73L8.72003 123.946L41.9338 155.766L52.7436 155.506L21.6909 125.771C27.8458 125.135 35.5911 123.33 40.6356 118.545C43.108 116.248 44.8171 113.248 45.5327 109.949L52.8077 109.774L56.2356 102.044L45.6441 102.299C44.9324 98.9459 43.2036 95.8938 40.6936 93.5591Z" fill="#A0A0A0"/>
<path opacity="0.43" d="M37.1648 7.18896L45.6508 6.98474L48.1402 1.35839L11.7225 2.23482L9.2374 7.86107L24.4549 7.49484C28.9324 8.14926 33.5948 10.0838 35.0084 13.6637L12.0109 14.2171L9.52577 19.8434L34.7742 19.2357C34.419 20.0118 33.9167 20.7117 33.2952 21.2967C29.243 25.1494 20.7286 25.4185 13.836 25.4688L13.927 29.2518L38.0331 52.3461L45.8773 52.1574L23.3576 30.5749C27.8253 30.112 33.4459 28.8035 37.1047 25.3327C38.8989 23.6652 40.1391 21.4879 40.6584 19.0941L45.922 18.9675L48.4114 13.3411L40.7085 13.5265C40.2048 11.1007 38.9678 8.88824 37.1648 7.18896Z" fill="#A0A0A0"/>
</svg>
