<svg width="161" height="30" viewBox="0 0 161 30" fill="none" xmlns="http://www.w3.org/2000/svg">
<path d="M157.957 13.0251C158.722 12.4466 158.313 11.2276 157.354 11.2276H149.875C149.437 11.2276 149.049 10.9419 148.92 10.523L146.622 3.09027C146.332 2.15076 145.002 2.15075 144.711 3.09027L142.413 10.523C142.284 10.9419 141.897 11.2276 141.458 11.2276H133.95C132.994 11.2276 132.583 12.4401 133.342 13.0214L139.493 17.7339C139.825 17.9879 139.963 18.4212 139.841 18.8205L137.536 26.3481C137.251 27.2785 138.328 28.0264 139.101 27.4347L145.059 22.8705C145.417 22.5956 145.916 22.5956 146.275 22.8705L152.221 27.4258C152.995 28.0184 154.072 27.2675 153.785 26.3366L151.447 18.7757C151.323 18.3736 151.464 17.9366 151.799 17.6827L157.957 13.0251Z" fill="#FFAD33"/>
<path d="M124.957 13.0251C125.722 12.4466 125.313 11.2276 124.354 11.2276H116.875C116.437 11.2276 116.049 10.9419 115.92 10.523L113.622 3.09027C113.332 2.15076 112.002 2.15075 111.711 3.09027L109.413 10.523C109.284 10.9419 108.897 11.2276 108.458 11.2276H100.95C99.9939 11.2276 99.5828 12.4401 100.342 13.0214L106.493 17.7339C106.825 17.9879 106.963 18.4212 106.841 18.8205L104.536 26.3481C104.251 27.2785 105.328 28.0264 106.101 27.4347L112.059 22.8705C112.417 22.5956 112.916 22.5956 113.275 22.8705L119.221 27.4258C119.995 28.0184 121.072 27.2675 120.785 26.3366L118.447 18.7757C118.323 18.3736 118.464 17.9366 118.799 17.6827L124.957 13.0251Z" fill="#FFAD33"/>
<path d="M92.1264 13.0158C92.8762 12.4304 92.4622 11.2276 91.511 11.2276H84.3154C83.8736 11.2276 83.4841 10.9377 83.3574 10.5145L81.1663 3.19855C80.8815 2.24775 79.5351 2.24776 79.2504 3.19855L77.0593 10.5145C76.9325 10.9377 76.5431 11.2276 76.1013 11.2276H68.8767C67.9286 11.2276 67.5128 12.4239 68.2565 13.012L74.2309 17.7365C74.5516 17.9901 74.6856 18.4133 74.5693 18.8052L72.3445 26.3058C72.0669 27.2418 73.1577 27.9802 73.9235 27.3745L79.5881 22.8951C79.9516 22.6076 80.4651 22.6076 80.8286 22.8951L86.4817 27.3655C87.2486 27.972 88.3404 27.2308 88.0599 26.2942L85.8035 18.7603C85.6853 18.3656 85.8213 17.9388 86.1461 17.6852L92.1264 13.0158Z" fill="#FFAD33"/>
<path d="M59.9569 13.0251C60.7217 12.4466 60.3126 11.2276 59.3536 11.2276H51.8753C51.4368 11.2276 51.0495 10.9419 50.9199 10.523L48.6221 3.09027C48.3316 2.15076 47.0017 2.15075 46.7113 3.09027L44.4134 10.523C44.2839 10.9419 43.8965 11.2276 43.458 11.2276H35.9497C34.9939 11.2276 34.5828 12.4401 35.3416 13.0214L41.493 17.7339C41.8246 17.9879 41.9634 18.4212 41.8411 18.8205L39.5362 26.3481C39.2514 27.2785 40.3282 28.0264 41.1006 27.4347L47.0585 22.8705C47.4174 22.5956 47.916 22.5956 48.2748 22.8705L54.2211 27.4258C54.9946 28.0184 56.0724 27.2675 55.7846 26.3366L53.4471 18.7757C53.3228 18.3736 53.4636 17.9366 53.7992 17.6827L59.9569 13.0251Z" fill="#FFAD33"/>
<path d="M26.9569 13.0251C27.7217 12.4466 27.3126 11.2276 26.3536 11.2276H18.8753C18.4368 11.2276 18.0495 10.9419 17.9199 10.523L15.6221 3.09027C15.3316 2.15076 14.0017 2.15075 13.7113 3.09027L11.4134 10.523C11.2839 10.9419 10.8965 11.2276 10.458 11.2276H2.94972C1.99387 11.2276 1.5828 12.4401 2.34158 13.0214L8.49304 17.7339C8.82458 17.9879 8.96336 18.4212 8.84108 18.8205L6.53624 26.3481C6.25138 27.2785 7.32818 28.0264 8.10056 27.4347L14.0585 22.8705C14.4174 22.5956 14.916 22.5956 15.2748 22.8705L21.2211 27.4258C21.9946 28.0184 23.0724 27.2675 22.7846 26.3366L20.4471 18.7757C20.3228 18.3736 20.4636 17.9366 20.7992 17.6827L26.9569 13.0251Z" fill="#FFAD33"/>
</svg>
