<svg width="43" height="43" viewBox="0 0 43 43" fill="none" xmlns="http://www.w3.org/2000/svg">
<g clip-path="url(#clip0_1032_3837)">
<path d="M39.5846 18.3871C39.4134 18.3593 39.2401 18.3465 39.0667 18.3488H9.54238L10.1862 18.0493C10.8154 17.7515 11.3879 17.3461 11.878 16.8516L20.1573 8.57222C21.2477 7.53131 21.431 5.85682 20.5915 4.60472C19.6145 3.27045 17.7409 2.98075 16.4065 3.95775C16.2987 4.03673 16.1963 4.12281 16.1 4.21545L1.12827 19.1872C-0.0417702 20.3559 -0.0427995 22.2518 1.12593 23.4218C1.12668 23.4226 1.12752 23.4234 1.12827 23.4242L16.1 38.3959C17.271 39.5636 19.1669 39.561 20.3347 38.39C20.4265 38.2978 20.5124 38.1998 20.5915 38.0965C21.431 36.8444 21.2477 35.1699 20.1573 34.129L11.8929 25.8346C11.4536 25.3948 10.9485 25.0261 10.3958 24.7417L9.49746 24.3375H38.9019C40.4316 24.3943 41.7736 23.3257 42.061 21.8222C42.3257 20.1898 41.217 18.6519 39.5846 18.3871Z" fill="#1C1C1B"/>
</g>
<defs>
<clipPath id="clip0_1032_3837">
<rect width="41.85" height="41.85" fill="white" transform="translate(0.250061 0.39978)"/>
</clipPath>
</defs>
</svg>
