<svg width="45" height="36" viewBox="0 0 45 36" fill="none" xmlns="http://www.w3.org/2000/svg">
<path d="M11.6152 14.7574C11.8642 14.8795 12.1131 14.8193 12.3538 14.8193C22.1474 14.8193 31.9409 14.8193 41.7344 14.8193C43.4392 14.8193 44.636 15.8362 44.9513 17.5238C45.2833 19.2582 43.8707 21.0578 42.1112 21.1565C41.8224 21.1732 41.5319 21.1649 41.2414 21.1649H11.2616C11.9671 21.8339 12.5696 22.4042 13.1788 22.9746C15.8347 25.4583 18.5088 27.9202 21.1464 30.4324C22.8213 32.0413 22.4046 34.7174 20.3795 35.6774C19.1346 36.2711 17.815 36.0437 16.7144 35.0084C14.1925 32.6568 11.6744 30.3008 9.16015 27.9403C6.58063 25.5285 4.00444 23.1117 1.41164 20.715C-0.502247 18.9454 -0.460753 16.9602 1.47969 15.214C5.52326 11.5713 9.53528 7.89505 13.5622 4.23389C14.7928 3.11887 16.0234 2.00386 17.2539 0.888838C18.6383 -0.36054 20.6252 -0.281931 21.8104 1.05609C23.0271 2.43425 22.8644 4.40115 21.4485 5.68899C18.3378 8.50553 15.2327 11.3276 12.1331 14.1553C11.9471 14.3326 11.6915 14.4647 11.6152 14.7574Z" fill="#1C1C1B"/>
</svg>
