<svg width="172" height="159" viewBox="0 0 172 159" fill="none" xmlns="http://www.w3.org/2000/svg">
<path d="M31.2653 134.064H31.2664C31.3289 134.067 31.241 134.077 31.2653 134.064Z" fill="black"/>
<path d="M18.4756 135.411L16.1105 135.432L16.4197 132.919C20.2263 101.985 24.0323 71.0509 27.838 40.1167L28.0367 38.5006L29.638 38.2053L30.1129 38.1158L31.7931 37.8038L33.5507 41.5177C35.4572 45.5465 37.3646 49.5754 39.2729 53.6044C39.4136 53.9023 39.5502 54.2001 39.6866 54.498C40.0196 55.2251 40.3341 55.9119 40.6911 56.5491C41.019 57.1347 41.2794 57.3108 41.3311 57.3259C41.4833 57.3088 41.6297 57.2577 41.7596 57.1764C42.2267 56.9301 42.4015 56.8379 41.9718 55.9277C38.563 48.7125 35.1549 41.4965 31.7475 34.2794C31.4855 33.7233 31.2441 33.1819 30.9645 32.555C30.8293 32.2519 30.6863 31.9314 30.5304 31.5853L29.5627 29.4391L55.9523 19.3705C55.9523 19.3705 67.3475 42.1159 71.7379 50.8808L72.6127 52.6271L70.9916 53.7166C69.8105 54.5104 68.6374 55.3001 67.4721 56.0859C65.1059 57.6801 62.6592 59.3286 60.2545 60.9313C59.4634 61.4583 58.6735 61.9865 57.8847 62.516C55.1207 64.3678 52.2627 66.2826 49.3761 68.0813C49.2968 68.1307 49.2032 68.1854 49.0978 68.2462C48.7471 68.4487 48.3497 68.6782 48.0506 69.0868C47.4937 69.8476 47.5119 70.8461 47.5918 72.5455C47.6111 72.9565 47.6311 73.3813 47.6397 73.8292C47.6441 74.0033 47.633 74.0879 46.6914 81.2605C45.7467 88.4572 39.6008 102.6 28.4243 123.296C26.3461 127.145 24.2213 131.048 22.109 134.897L21.0094 136.9L18.4756 135.411Z" fill="white"/>
<path d="M69.7563 51.8746C66.1281 54.3131 62.5856 56.7122 59.0263 59.0846C55.4332 61.4781 51.8683 63.9152 48.205 66.1977C47.8107 66.4434 46.9428 66.8464 46.2624 67.776C44.986 69.5198 45.3792 71.5449 45.4237 73.8801C45.4237 73.8801 45.4238 73.8858 44.4937 80.9716C43.1507 91.2025 30.2949 115.167 26.4742 122.242C24.8313 125.284 22.6929 129.225 20.1661 133.829C19.8031 133.615 19.4402 133.402 19.0772 133.189C18.9255 133.189 18.7752 133.189 18.6248 133.19C22.4314 102.256 26.2375 71.3218 30.0431 40.3876C30.2033 40.3581 30.362 40.3272 30.5207 40.2977C32.7695 45.0496 35.0193 49.8019 37.27 54.5547C37.7574 55.5857 38.2012 56.6406 38.7574 57.6337C39.662 59.249 40.9697 60.103 42.7972 59.1395C44.5656 58.2068 44.7988 56.7122 43.9813 54.9803C40.5722 47.7647 37.1641 40.5487 33.757 33.3321C33.3791 32.5301 33.0266 31.7168 32.556 30.6731C39.9809 27.84 47.2457 25.0687 54.87 22.1597C59.8087 32.0174 64.7094 41.7992 69.7563 51.8746Z" fill="white"/>
<path d="M16.0619 150.564C26.4139 124.972 36.5372 99.9424 46.7698 74.6408L48.0265 71.5336L97.9721 121.478L94.9198 122.755C94.2978 123.015 93.691 123.271 93.0943 123.522C91.751 124.088 90.4824 124.623 89.1876 125.148C86.9197 126.068 84.6502 126.985 82.3792 127.899C79.1197 129.213 75.7492 130.572 72.4432 131.924C71.4968 132.312 71.1769 132.663 71.139 132.756C71.1557 132.901 71.2009 133.042 71.2719 133.17C71.4363 133.515 71.5571 133.605 71.5678 133.613H71.568C71.5998 133.618 71.632 133.62 71.6642 133.62C71.8606 133.62 72.2483 133.557 72.9796 133.259C75.9791 132.038 79.0304 130.805 81.9813 129.613C86.7464 127.689 91.6737 125.698 96.5012 123.707C97.392 123.321 98.3509 123.115 99.3219 123.103C100.406 123.117 101.474 123.378 102.441 123.868C108.574 126.822 114.838 129.772 120.896 132.624C123.347 133.779 125.798 134.934 128.248 136.091C128.722 136.315 129.155 136.553 129.754 136.882C130.074 137.058 130.449 137.264 130.912 137.513L137.062 140.818L130.133 141.67C98.5343 145.56 67.6043 149.366 36.6728 153.173L34.7916 153.405L34.2687 151.583L34.1396 151.127L33.5884 149.208L51.4023 141.986C52.0326 141.731 52.6637 141.476 53.2954 141.223C54.7474 140.64 56.2487 140.037 57.7039 139.42C58.6937 139.002 58.9137 138.652 58.9355 138.614C58.9724 138.549 58.9025 138.338 58.8553 138.224C58.6779 137.793 58.5899 137.793 58.3972 137.793C58.2285 137.793 57.8513 137.831 57.2194 138.085C48.9601 141.407 40.5686 144.798 32.4534 148.078C28.7845 149.561 25.1154 151.043 21.446 152.525C20.9976 152.707 20.554 152.868 19.9923 153.073C19.6772 153.187 19.3185 153.318 18.8921 153.476L14.1748 155.229L16.0619 150.564Z" fill="white"/>
<path d="M129.862 139.468C98.2636 143.357 67.3336 147.164 36.4022 150.97C36.3587 150.819 36.3166 150.666 36.273 150.514C41.5938 148.356 46.915 146.199 52.2366 144.043C54.3492 143.186 56.4716 142.353 58.5701 141.464C60.8597 140.495 61.6238 139.115 60.9074 137.378C60.177 135.605 58.6783 135.106 56.3916 136.026C44.4592 140.825 32.5339 145.638 20.6156 150.467C19.9624 150.732 19.2952 150.959 18.1196 151.396C28.4717 125.804 38.5949 100.774 48.8276 75.4727C63.9934 90.6385 78.9218 105.566 94.0638 120.707C92.0594 121.546 90.2137 122.337 88.354 123.091C82.7719 125.357 77.1787 127.59 71.6037 129.87C69.1751 130.864 68.3965 132.282 69.2678 134.122C70.289 136.268 71.9661 136.069 73.8174 135.314C81.6581 132.122 89.5226 128.986 97.3478 125.759C98.8142 125.153 100.022 125.167 101.48 125.868C110.06 130.001 118.69 134.028 127.3 138.097C127.948 138.403 128.566 138.771 129.862 139.468Z" fill="white"/>
<path d="M49.1044 70.0962L54.6641 66.3844C58.3188 63.9441 61.8982 61.5541 65.4785 59.1659C65.9201 58.871 66.3655 58.5949 66.7961 58.328C67.6438 57.8026 68.4444 57.3064 69.1058 56.7383C69.9031 56.0537 71.151 55.1439 72.7795 55.1439C74.6103 55.1439 75.9644 56.2804 76.9395 57.2706C85.7382 66.2012 94.763 75.2108 103.491 83.9238C106.425 86.853 109.358 89.7833 112.291 92.7145C112.378 92.8022 112.496 92.9067 112.621 93.0174C113.052 93.3984 113.641 93.9202 114.031 94.6851C114.449 95.4993 114.924 97.2433 114.038 98.587C110.358 104.148 106.57 109.761 102.906 115.189L101.118 117.84C100.819 118.271 100.39 118.595 99.8941 118.764C99.8756 118.771 99.8519 118.779 99.8225 118.792L98.4267 119.418L49.1044 70.0962Z" fill="white"/>
<path d="M112.184 97.3654C107.924 103.804 103.595 110.198 99.2768 116.599C99.2375 116.657 99.1321 116.669 98.913 116.768L52.5854 70.44C57.4033 67.2234 62.0555 64.1164 66.709 61.0121C67.9943 60.1539 69.3863 59.4221 70.5507 58.422C72.3795 56.8516 73.6184 57.0623 75.3574 58.8279C87.072 70.7181 98.9172 82.4791 110.72 94.2837C111.181 94.7444 111.771 95.1405 112.053 95.6939C112.295 96.1645 112.434 96.9862 112.184 97.3654Z" fill="white"/>
<path d="M102.98 122.546L100.666 121.451L104.912 115.032C107.275 111.46 109.583 107.971 111.895 104.484C112.675 103.308 113.458 102.134 114.244 100.963C114.909 99.969 115.573 98.9748 116.235 97.9798C117.209 96.5137 117.312 96.0888 117.312 95.9742C117.29 95.8703 117.108 95.4813 115.895 94.2668C112.709 91.0801 109.522 87.8939 106.335 84.7083C96.4343 74.8102 86.1961 64.575 76.1562 54.4763C74.8647 53.156 73.7828 51.6458 72.9481 49.9983C70.0107 44.2507 67.0915 38.3815 64.2683 32.7055C63.5479 31.2571 62.8272 29.8089 62.1061 28.3608C61.887 27.9203 61.7238 27.5019 61.5172 26.9722C61.4116 26.7013 61.2909 26.3916 61.1405 26.0235L58.9074 20.5581L64.1876 23.1994C66.204 24.208 68.184 25.2157 70.0989 26.1901C74.4833 28.4212 78.6246 30.5287 82.8661 32.4878C87.8013 34.7674 92.2486 37.9712 96.462 42.2823C103.655 49.6419 111.067 57.0374 118.235 64.1895C122.522 68.467 126.955 72.8902 131.297 77.2618C132.588 78.5791 133.672 80.0845 134.512 81.7267C137.35 87.2497 140.172 92.8909 142.901 98.3462C143.734 100.011 144.567 101.676 145.401 103.341C145.601 103.738 145.77 104.123 146.004 104.656C146.129 104.94 146.276 105.274 146.459 105.684L148.991 111.326L139.656 106.702C137.234 105.503 134.973 104.383 132.713 103.263C132.451 103.133 132.191 102.999 131.932 102.866C131.605 102.699 131.297 102.541 130.988 102.391C130.201 102.009 129.733 101.952 129.525 101.952C129.461 101.949 129.398 101.957 129.337 101.976C129.278 102.044 129.232 102.123 129.203 102.208C128.994 102.72 128.888 102.977 130.232 103.641C134.747 105.872 139.18 108.086 142.922 109.958C144.093 110.544 145.257 111.143 146.49 111.777C147.107 112.094 147.746 112.422 148.415 112.765L150.186 113.67L140.133 140.129C140.133 140.129 109.806 125.777 102.98 122.546Z" fill="white"/>
<path d="M147.405 114.741C144.588 122.157 141.799 129.495 138.911 137.095C127.221 131.563 115.701 126.113 103.929 120.54C107.3 115.446 110.518 110.576 113.745 105.71C115.184 103.539 116.641 101.378 118.084 99.2082C120.139 96.1125 120.068 95.3034 117.464 92.6978C104.213 79.4423 90.9681 66.1802 77.73 52.9116C76.6001 51.7539 75.6537 50.4305 74.9235 48.987C71.256 41.8107 67.6869 34.5853 64.0924 27.3711C63.8185 26.8205 63.6218 26.2292 63.1948 25.1841C69.746 28.4611 75.7621 31.651 81.9355 34.5024C86.8924 36.792 91.0557 39.9257 94.8749 43.8334C106.38 55.6056 118.122 67.1461 129.722 78.8256C130.853 79.9816 131.803 81.3019 132.539 82.7417C136.222 89.9096 139.805 97.1308 143.418 104.335C143.69 104.879 143.919 105.443 144.435 106.592C140.49 104.639 137.094 102.957 133.699 101.274C133.116 100.985 132.541 100.678 131.956 100.394C129.635 99.2687 127.884 99.572 127.149 101.367C126.28 103.492 127.438 104.735 129.249 105.63C133.481 107.722 137.708 109.826 141.929 111.943C143.67 112.815 145.397 113.714 147.405 114.741Z" fill="white"/>
<path d="M18.0538 36.7716C17.9482 36.783 17.8434 36.8008 17.7399 36.8249C17.0194 36.9936 16.4735 37.5103 16.0705 38.1041C15.6637 38.7425 15.3324 39.4259 15.0833 40.1407C15.1537 39.3572 15.2403 38.5545 15.0535 37.7832C14.8921 37.114 14.4647 36.4577 13.8227 36.1671C13.7005 36.114 13.5726 36.0749 13.4415 36.0506C14.1569 35.9009 14.8346 35.6295 15.3688 35.1175C15.6791 34.8042 15.9122 34.4231 16.0497 34.0042C16.0968 34.2375 16.1623 34.4667 16.2457 34.6896C16.4865 35.3831 16.9222 35.9925 17.5005 36.4447C17.674 36.5712 17.8593 36.6807 18.0538 36.7716Z" fill="#FFFF00"/>
<path d="M15.0834 40.1405C15.3325 39.4257 15.6638 38.7423 16.0706 38.104C16.4736 37.5102 17.0195 36.9934 17.74 36.8247C17.8435 36.8006 17.9483 36.7828 18.0539 36.7714C17.8594 36.6805 17.6741 36.571 17.5006 36.4445C16.9223 35.9923 16.4866 35.383 16.2458 34.6895C16.1624 34.4665 16.0969 34.2373 16.0498 34.004C15.9123 34.4229 15.6792 34.804 15.3689 35.1173C14.8347 35.6293 14.157 35.9007 13.4416 36.0504C13.5727 36.0747 13.7006 36.1138 13.8228 36.167C14.4648 36.4575 14.8922 37.1138 15.0536 37.783C15.2404 38.5544 15.1538 39.357 15.0834 40.1405ZM14.4856 38.065C14.3518 37.387 13.9251 36.7112 13.1918 36.6137C12.5422 36.5249 11.825 36.7006 11.3267 36.162C11.2872 36.121 11.2603 36.0696 11.2493 36.0138C11.2382 35.958 11.2435 35.9002 11.2645 35.8473C11.2854 35.7944 11.3212 35.7486 11.3674 35.7155C11.4137 35.6824 11.4685 35.6633 11.5253 35.6605C12.7051 35.6251 14.1627 35.572 15.0672 34.7033C15.6067 34.1855 15.7975 33.4974 15.9449 32.7936C15.9667 31.6664 16.2801 30.5304 16.5903 29.4572C16.7073 29.0587 17.3352 29.2161 17.22 29.6171C16.7818 31.1308 16.2996 32.7729 16.8059 34.3321C16.9975 34.9801 17.3916 35.5498 17.9305 35.9576C18.6087 36.435 19.4707 36.533 20.2736 36.6327C20.6118 36.6748 20.572 37.1793 20.2835 37.265C19.5737 37.4768 18.8508 37.3264 18.1289 37.4205C17.4137 37.5135 16.9097 37.9998 16.5421 38.5904C15.6617 40.002 15.156 41.7234 14.8154 43.3396C14.7404 43.6923 14.1475 43.6322 14.1805 43.2685C14.2603 42.3556 14.3401 41.4427 14.42 40.5297C14.4892 39.7265 14.6418 38.8643 14.4856 38.065Z" fill="#2C2423"/>
<path d="M16.203 17.9814C15.9597 18.0212 15.719 18.0758 15.4824 18.1451C13.8343 18.6277 12.6351 19.895 11.7769 21.3223C10.8768 22.8159 10.2788 24.5059 9.74902 26.1677C9.81242 24.3433 9.91064 22.472 9.37926 20.7083C8.91995 19.1782 7.84557 17.7118 6.32085 17.1205C6.03087 17.0129 5.72958 16.9386 5.42281 16.8991C7.06145 16.4608 8.59721 15.7455 9.76998 14.4907C10.4813 13.7224 10.9161 12.8006 11.2058 11.8239C11.3446 12.3586 11.5257 12.8814 11.7473 13.3874C12.4252 14.9445 13.4557 16.3462 14.879 17.2945C15.2973 17.5654 15.7407 17.7954 16.203 17.9814Z" fill="#FFFF00"/>
<path d="M9.74832 26.1676C10.2781 24.5059 10.8761 22.8158 11.7762 21.3223C12.6344 19.895 13.8336 18.6276 15.4816 18.145C15.7183 18.0758 15.959 18.0211 16.2023 17.9813C15.74 17.7954 15.2966 17.5654 14.8783 17.2945C13.455 16.3462 12.4245 14.9445 11.7466 13.3874C11.525 12.8814 11.3439 12.3586 11.2051 11.8239C10.9154 12.8006 10.4806 13.7224 9.76929 14.4907C8.59652 15.7455 7.06075 16.4608 5.42211 16.8991C5.72889 16.9386 6.03017 17.0128 6.32015 17.1204C7.84488 17.7118 8.91926 19.1782 9.37857 20.7083C9.90994 22.472 9.81172 24.3432 9.74832 26.1676ZM8.09824 21.4343C7.70164 19.8803 6.62686 18.3685 4.91496 18.2362C3.39833 18.1133 1.75871 18.6119 0.535164 17.4273C0.123153 17.0235 0.327983 16.2896 0.931572 16.24C3.6611 16.0072 7.03194 15.6984 9.01713 13.5698C10.2014 12.301 10.5558 10.682 10.8076 9.03247C10.7142 6.41758 11.2956 3.74505 11.8774 1.21842C12.0978 0.279977 13.573 0.564541 13.3571 1.50853C12.535 5.07219 11.6268 8.93903 12.9991 12.4876C13.5532 13.9267 14.4882 15.2785 15.8125 16.1111C17.445 17.1308 19.4551 17.248 21.3284 17.3766C22.1175 17.4311 22.0896 18.6052 21.4321 18.8407C19.8142 19.4219 18.12 19.1655 16.459 19.4758C14.8135 19.7827 13.7076 20.9739 12.931 22.3895C11.0708 25.7729 10.1188 29.8265 9.53544 33.6154C9.40676 34.4425 8.02493 34.3784 8.05502 33.5315C8.12356 31.4058 8.19211 29.2801 8.26066 27.1543C8.31847 25.2841 8.56224 23.2666 8.09824 21.4343Z" fill="#2C2423"/>
<path d="M149.863 96.0676C149.968 96.079 150.073 96.0968 150.177 96.1209C150.897 96.2896 151.443 96.8064 151.846 97.4002C152.253 98.0385 152.584 98.7219 152.833 99.4367C152.763 98.6532 152.676 97.8506 152.863 97.0792C153.024 96.41 153.452 95.7537 154.094 95.4632C154.216 95.41 154.344 95.3709 154.475 95.3466C153.76 95.1969 153.082 94.9255 152.548 94.4135C152.237 94.1002 152.004 93.7191 151.867 93.3002C151.82 93.5335 151.754 93.7627 151.671 93.9857C151.43 94.6792 150.994 95.2885 150.416 95.7408C150.243 95.8672 150.057 95.9767 149.863 96.0676Z" fill="#FFFF00"/>
<path d="M152.863 97.079C153.024 96.4099 153.452 95.7536 154.094 95.463C154.216 95.4099 154.344 95.3708 154.475 95.3465C153.759 95.1968 153.082 94.9254 152.548 94.4134C152.237 94.1001 152.004 93.719 151.867 93.3C151.82 93.5334 151.754 93.7626 151.671 93.9855C151.43 94.679 150.994 95.2884 150.416 95.7406C150.242 95.8671 150.057 95.9766 149.862 96.0675C149.968 96.0789 150.073 96.0967 150.176 96.1208C150.897 96.2895 151.443 96.8062 151.846 97.4001C152.253 98.0384 152.584 98.7218 152.833 99.4366C152.763 98.6531 152.676 97.8504 152.863 97.079ZM153.496 99.8258C153.576 100.739 153.656 101.652 153.736 102.565C153.769 102.928 153.176 102.988 153.101 102.636C152.76 101.019 152.255 99.298 151.374 97.8865C151.007 97.2958 150.503 96.8096 149.788 96.7166C149.066 96.6224 148.343 96.7728 147.633 96.5611C147.344 96.4753 147.305 95.9709 147.643 95.9288C148.446 95.8291 149.308 95.7311 149.986 95.2536C150.525 94.8459 150.919 94.2762 151.11 93.6281C151.617 92.0689 151.135 90.4268 150.696 88.9131C150.581 88.5121 151.209 88.3548 151.326 88.7533C151.636 89.8265 151.95 90.9625 151.972 92.0897C152.119 92.7934 152.31 93.4815 152.849 93.9994C153.754 94.8681 155.211 94.9211 156.391 94.9566C156.448 94.9594 156.503 94.9785 156.549 95.0116C156.595 95.0447 156.631 95.0904 156.652 95.1433C156.673 95.1962 156.678 95.2541 156.667 95.3099C156.656 95.3657 156.629 95.4171 156.59 95.4581C156.091 95.9967 155.374 95.821 154.725 95.9098C153.991 96.0073 153.565 96.6831 153.431 97.3611C153.275 98.1604 153.427 99.0226 153.496 99.8258Z" fill="#2C2423"/>
<path d="M164.955 85.528C165.06 85.5394 165.165 85.5572 165.269 85.5813C165.989 85.75 166.535 86.2668 166.938 86.8606C167.345 87.4989 167.676 88.1823 167.925 88.8971C167.855 88.1136 167.768 87.311 167.955 86.5396C168.116 85.8704 168.544 85.2141 169.186 84.9236C169.308 84.8704 169.436 84.8313 169.567 84.807C168.852 84.6573 168.174 84.3859 167.64 83.8739C167.329 83.5606 167.096 83.1795 166.959 82.7606C166.912 82.9939 166.846 83.2231 166.763 83.4461C166.522 84.1396 166.086 84.7489 165.508 85.2012C165.334 85.3276 165.149 85.4371 164.955 85.528Z" fill="#FFFF00"/>
<path d="M167.955 86.5398C168.117 85.8706 168.544 85.2144 169.186 84.9238C169.308 84.8707 169.436 84.8316 169.567 84.8073C168.852 84.6576 168.174 84.3862 167.64 83.8741C167.33 83.5609 167.096 83.1797 166.959 82.7608C166.912 82.9941 166.846 83.2233 166.763 83.4463C166.522 84.1398 166.086 84.7492 165.508 85.2014C165.335 85.3279 165.149 85.4373 164.955 85.5283C165.06 85.5397 165.165 85.5575 165.269 85.5816C165.989 85.7502 166.535 86.267 166.938 86.8608C167.345 87.4992 167.676 88.1826 167.925 88.8974C167.855 88.1139 167.768 87.3112 167.955 86.5398ZM168.589 89.2866C168.669 90.1995 168.748 91.1124 168.828 92.0253C168.861 92.389 168.268 92.4492 168.193 92.0965C167.853 90.4802 167.347 88.7588 166.467 87.3472C166.099 86.7566 165.595 86.2703 164.88 86.1773C164.158 86.0832 163.435 86.2336 162.725 86.0218C162.437 85.9361 162.397 85.4317 162.735 85.3895C163.538 85.2898 164.4 85.1918 165.078 84.7144C165.617 84.3066 166.011 83.737 166.203 83.0889C166.709 81.5297 166.227 79.8876 165.789 78.3739C165.674 77.9729 166.301 77.8156 166.418 78.2141C166.729 79.2873 167.042 80.4233 167.064 81.5504C167.211 82.2542 167.402 82.9423 167.942 83.4601C168.846 84.3289 170.304 84.3819 171.483 84.4174C171.54 84.4201 171.595 84.4392 171.641 84.4724C171.688 84.5055 171.723 84.5512 171.744 84.6041C171.765 84.657 171.771 84.7148 171.759 84.7706C171.748 84.8264 171.722 84.8779 171.682 84.9188C171.184 85.4574 170.467 85.2818 169.817 85.3706C169.084 85.4681 168.657 86.1439 168.523 86.8218C168.367 87.6211 168.52 88.4834 168.589 89.2866Z" fill="#2C2423"/>
<path d="M151.716 77.2775C151.96 77.3173 152.2 77.372 152.437 77.4412C154.085 77.9238 155.284 79.1912 156.142 80.6185C157.042 82.112 157.64 83.8021 158.17 85.4638C158.107 83.6394 158.009 81.7681 158.54 80.0045C158.999 78.4744 160.074 77.008 161.598 76.4166C161.888 76.309 162.19 76.2347 162.496 76.1952C160.858 75.7569 159.322 75.0417 158.149 73.7869C157.438 73.0185 157.003 72.0968 156.713 71.1201C156.575 71.6547 156.394 72.1776 156.172 72.6836C155.494 74.2407 154.464 75.6424 153.04 76.5907C152.622 76.8615 152.179 77.0916 151.716 77.2775Z" fill="#FFFF00"/>
<path d="M158.54 80.004C158.999 78.4739 160.073 77.0075 161.598 76.4161C161.888 76.3085 162.189 76.2343 162.496 76.1948C160.857 75.7565 159.322 75.0412 158.149 73.7864C157.438 73.0181 157.003 72.0963 156.713 71.1196C156.574 71.6543 156.393 72.1771 156.172 72.6831C155.494 74.2402 154.463 75.6419 153.04 76.5902C152.622 76.8611 152.178 77.0911 151.716 77.277C151.959 77.3168 152.2 77.3715 152.436 77.4407C154.085 77.9233 155.284 79.1907 156.142 80.618C157.042 82.1115 157.64 83.8016 158.17 85.4633C158.106 83.6389 158.008 81.7677 158.54 80.004ZM159.657 86.45C159.726 88.5757 159.795 90.7014 159.863 92.8272C159.893 93.6742 158.511 93.7382 158.383 92.9111C157.799 89.1222 156.847 85.0687 154.987 81.6852C154.211 80.2697 153.105 79.0785 151.459 78.7715C149.798 78.4612 148.104 78.7176 146.486 78.1364C145.828 77.9009 145.801 76.7268 146.59 76.6724C148.463 76.5437 150.473 76.4265 152.106 75.4068C153.43 74.5742 154.365 73.2224 154.919 71.7834C156.291 68.2347 155.383 64.3679 154.561 60.8042C154.345 59.8603 155.82 59.5757 156.041 60.5141C156.623 63.0408 157.204 65.7133 157.111 68.3282C157.362 69.9777 157.717 71.5967 158.901 72.8655C160.886 74.9941 164.257 75.3029 166.987 75.5357C167.59 75.5854 167.795 76.3192 167.383 76.723C166.159 77.9076 164.52 77.409 163.003 77.5319C161.291 77.6643 160.216 79.176 159.82 80.73C159.356 82.5623 159.6 84.5798 159.657 86.45Z" fill="#2C2423"/>
<path d="M61.1683 41.8328C71.3346 50.4732 80.2146 60.465 88.9699 70.4957C93.3331 75.4947 97.6766 80.5124 102.162 85.4031C106.569 90.2092 111.181 94.8024 115.825 99.3777C120.98 104.456 126.101 109.601 130.534 115.335L129.568 114.084C131.458 116.527 133.191 119.089 134.756 121.753L143.213 113.295C141.242 112.213 139.359 110.977 137.581 109.6L138.832 110.567C133.572 106.487 129.17 101.468 124.601 96.6613C119.644 91.4469 114.363 86.555 108.879 81.9003C97.3786 72.1391 85.1014 63.3301 72.9522 54.4063L51.6112 38.731C50.4459 37.875 48.1852 37.6752 46.8482 38.1078C45.5736 38.4944 44.4512 39.2687 43.6373 40.323C42.7255 41.5066 42.2722 42.9799 42.361 44.4714C42.4498 45.9629 43.0748 47.3721 44.1206 48.4391C52.9679 57.4458 61.7792 66.4893 70.4171 75.6977C79.0489 84.8994 87.5086 94.2664 95.6432 103.912C100.231 109.352 104.705 114.885 109.064 120.512L108.097 119.261C111.504 123.675 114.823 128.153 118.055 132.697L126.513 124.239C122.482 121.502 118.539 118.642 114.684 115.659L115.935 116.625C105.154 108.287 95.0551 99.1024 85.411 89.4797C75.7894 79.8794 66.6104 69.8481 57.5597 59.7116C55.0958 56.9521 52.7157 54.0894 50.1198 51.4522C47.1007 48.385 43.4926 45.7091 39.2656 44.6197C38.2116 44.3376 37.1021 44.336 36.0472 44.6148C34.9923 44.8936 34.0286 45.4433 33.2516 46.2093C32.4783 46.9815 31.9237 47.9451 31.6445 49.0016C31.3652 50.0582 31.3712 51.1699 31.6619 52.2234C32.2532 53.6259 32.8076 54.9653 33.672 56.217C34.5219 57.4456 35.4509 58.6175 36.4532 59.7253C37.8383 61.2575 39.3386 62.6902 40.814 64.1345C43.7783 67.0365 46.7922 69.8872 49.8078 72.7358C55.8096 78.4052 61.8281 84.0689 67.4696 90.102C70.6049 93.4549 73.6173 96.9235 76.4284 100.554L75.4618 99.3027C77.5413 101.999 79.5091 104.781 81.3164 107.667C83.0891 110.498 84.8376 113.446 86.158 116.52L85.5349 115.044C85.8591 115.816 86.0838 116.626 86.2034 117.454L85.9826 115.811C86.0365 116.259 86.04 116.711 85.9931 117.16L86.2139 115.517C86.1695 115.824 86.0881 116.126 85.9715 116.414L86.5946 114.937C86.5095 115.118 86.408 115.289 86.2913 115.451L87.2578 114.2C87.1291 114.356 86.9849 114.499 86.8273 114.626L88.0783 113.659C87.8816 113.797 87.6706 113.912 87.449 114.004L88.9256 113.381C88.7063 113.452 88.4811 113.502 88.2526 113.533L89.8959 113.312C89.584 113.329 89.2711 113.318 88.9614 113.277L90.6047 113.497C89.2074 113.253 87.8601 112.645 86.5574 112.102L88.034 112.725C82.5832 110.42 77.5755 107.233 72.9 103.626L74.151 104.592C69.2086 100.76 64.6373 96.4836 60.1469 92.1381C55.0691 87.2242 50.0932 82.2062 45.1552 77.1523C42.3694 74.301 39.5916 71.4421 36.8218 68.5754C35.7295 67.4481 34.0102 66.765 32.4509 66.765C30.9349 66.765 29.1239 67.4384 28.0801 68.5754C26.9988 69.7534 26.1959 71.3 26.2697 72.9462C26.3459 74.649 26.9573 76.0274 28.0801 77.3171C38.3412 89.1032 48.6048 100.893 58.4445 113.036C61.2386 116.484 63.9944 119.962 66.7121 123.471L65.7455 122.22C67.6993 124.749 69.6289 127.296 71.5342 129.862L81.2424 122.371C69.1616 111.917 57.5755 100.926 46.4841 89.3974C43.3376 86.1252 40.2342 82.8122 37.1741 79.4585L28.4325 88.2001C40.4359 98.8559 52.1641 109.877 62.745 121.967C65.7304 125.378 68.6135 128.875 71.3944 132.457L70.4278 131.206C71.2494 132.27 72.061 133.341 72.8625 134.42L79.8431 125.34C78.8339 124.978 77.8353 124.588 76.8474 124.172L78.324 124.795C67.6349 120.254 58.5688 112.842 48.6401 106.956C45.8431 105.279 42.9483 103.771 39.9714 102.44C38.4676 101.776 36.8656 101.28 35.2083 101.816C33.9338 102.203 32.8114 102.977 31.9975 104.032C30.1417 106.434 30.2779 109.963 32.4808 112.148C39.85 119.457 46.7321 127.241 53.0827 135.451L52.1162 134.2C54.4548 137.229 56.72 140.314 58.9119 143.452L67.3691 134.995C63.5902 132.893 60.0399 130.421 56.6195 127.78L57.8706 128.747C51.122 123.519 44.8221 117.745 38.0375 112.559C36.1916 111.148 34.3049 109.791 32.365 108.512C31.1227 107.693 29.01 107.433 27.6019 107.889C26.3273 108.275 25.205 109.049 24.3911 110.104C23.4788 111.287 23.0253 112.761 23.1141 114.252C23.2029 115.744 23.8281 117.153 24.8743 118.22C28.4964 121.891 31.8947 125.775 35.051 129.853L34.0845 128.602C36.1488 131.28 38.1062 134.036 39.9566 136.868L45.2939 127.567L42.9951 127.551C41.3596 127.57 39.7943 128.218 38.6243 129.361C37.5522 130.433 36.7449 132.192 36.8139 133.732C36.9647 137.1 39.5295 139.889 42.9951 139.913L45.2939 139.929C49.813 139.961 53.2216 134.594 50.6313 130.628C45.6784 123.029 39.9783 115.944 33.616 109.478L26.1253 119.186C28.2301 120.574 30.2697 122.055 32.2667 123.593L31.0157 122.627C38.9177 128.736 46.1758 135.644 54.3576 141.398C56.5384 142.94 58.7988 144.366 61.1295 145.67C63.4462 146.959 66.7513 146.739 68.6201 144.703C69.3411 143.92 69.8835 142.989 70.2098 141.976C70.6532 140.605 70.4257 138.414 69.5866 137.213C62.9629 127.704 55.6807 118.672 47.7936 110.183C45.6488 107.88 43.4584 105.621 41.2224 103.406L33.7318 113.114C45.1764 118.165 54.7769 126.39 65.7031 132.363C69.1887 134.274 72.8174 135.912 76.5566 137.261L78.1998 137.482L79.8431 137.261C81.126 136.892 82.2534 136.114 83.0539 135.046C83.7203 134.202 84.1413 133.19 84.2707 132.122C84.4386 130.873 84.322 129.237 83.5372 128.181C78.1617 120.952 72.3924 114.024 66.2555 107.429C60.3879 101.115 54.2308 95.0755 47.9215 89.205C44.3808 85.9105 40.7983 82.6617 37.1741 79.4585C35.9433 78.3658 34.4863 77.648 32.8033 77.648C31.2872 77.648 29.4763 78.3214 28.4325 79.4585C26.0824 82.0185 26.1007 85.646 28.4325 88.2001C39.2042 99.999 50.4994 111.289 62.318 122.07C65.6727 125.129 69.0669 128.143 72.5007 131.113C73.6992 132.15 75.2179 132.998 76.8716 132.924C78.2294 132.891 79.5414 132.426 80.6169 131.596C81.6383 130.807 82.5372 129.68 82.832 128.386C83.178 126.867 83.18 124.931 82.2089 123.622C76.5269 115.964 70.6251 108.468 64.5778 101.095C58.8057 94.0577 52.9022 87.1295 46.9524 80.2421C43.5855 76.3445 40.2086 72.4557 36.8218 68.5754L28.0801 77.3171C36.6354 86.1468 45.1816 94.9985 54.0996 103.465C62.2049 111.16 70.996 118.753 81.36 123.215C82.9936 123.918 84.6663 124.688 86.3784 125.199C88.9884 125.977 91.9032 125.845 94.2534 124.38C98.1515 121.949 99.0277 117.205 97.8944 113.026C97.1541 110.297 95.6029 107.659 94.2266 105.198C92.9836 102.976 91.6409 100.81 90.217 98.6993C84.1822 89.7542 76.8787 81.7559 69.2087 74.1992C61.7752 66.8756 53.9752 59.9272 46.6411 52.5023C45.705 51.5732 44.8218 50.5922 43.9956 49.564L44.9621 50.8151C44.2022 49.8475 43.5602 48.7929 43.0497 47.6736L43.6728 49.1502L43.5829 48.9369L35.9792 56.5406C36.6149 56.705 37.2379 56.9151 37.8433 57.1694L36.3667 56.5462C37.5626 57.0815 38.6912 57.7561 39.7289 58.556L38.4779 57.5895C41.1645 59.6704 43.3511 62.3085 45.5975 64.8368C48.0452 67.5918 50.5015 70.3392 52.9662 73.0792C57.8493 78.4987 62.7994 83.8571 67.8164 89.1542C77.9103 99.7434 88.4164 109.966 99.6676 119.328C106.288 124.836 113.147 130.076 120.273 134.914L121.75 135.537C122.547 135.794 123.398 135.832 124.214 135.648C125.511 135.473 126.852 134.941 127.764 133.948C128.485 133.164 129.027 132.234 129.353 131.22C129.793 129.861 129.575 127.647 128.73 126.457C119.886 114.002 110.348 102.04 100.378 90.4711C90.6807 79.2184 80.5702 68.3287 70.2881 57.6101C64.5214 51.5986 58.7128 45.6277 52.8622 39.6975L45.3716 49.4057C57.0704 57.9986 68.8045 66.5457 80.4588 75.1989C83.5412 77.4874 86.6043 79.8014 89.6483 82.1409L88.3973 81.1743C95.2028 86.4332 101.864 91.8903 108.15 97.7645C111.224 100.637 114.187 103.618 117.069 106.682C119.778 109.564 122.455 112.481 125.33 115.202C128.851 118.533 132.705 121.647 136.974 123.97C139.305 125.239 142.583 125.052 144.464 123.004C146.329 120.973 146.857 117.959 145.431 115.513C138.048 102.852 126.866 93.2308 116.752 82.859C106.567 72.4138 97.3964 61.0462 87.5281 50.3109C81.9677 44.2619 76.1745 38.4155 69.9099 33.0912C68.6387 32.0107 67.2582 31.2807 65.5391 31.2807C64.0231 31.2807 62.2121 31.9541 61.1683 33.0912C60.0869 34.2692 59.2841 35.8157 59.3579 37.462C59.4278 39.0231 59.9312 40.7813 61.1683 41.8328Z" fill="#FF0000"/>
<path d="M114.28 55.6973C120.994 62.4116 127.725 69.1093 134.403 75.8592C135.368 76.8181 136.179 77.9194 136.81 79.1245C142.075 89.5239 147.247 99.9709 152.518 110.368C153.428 112.163 153.51 113.767 152.775 115.647C149.553 123.882 146.402 132.146 143.322 140.436C142.549 142.529 141.305 143.446 139.113 143.713C97.9047 148.741 56.6996 153.799 15.4982 158.887C11.9421 159.324 10.7683 158.113 11.2114 154.508C16.2755 113.303 21.3356 72.0982 26.3918 30.8929C26.6463 28.8092 27.4958 27.568 29.5027 26.8233C38.0196 23.6627 46.4738 20.3318 55.0118 17.231C56.2028 16.7985 57.9377 16.8802 59.0744 17.4343C69.9851 22.7533 80.8278 28.2122 91.6671 33.6762C92.5751 34.1339 93.3953 34.842 94.1244 35.5665C100.859 42.2601 107.578 48.9704 114.28 55.6973ZM19.2357 150.779C20.3965 150.348 21.0553 150.122 21.7003 149.862C33.4757 145.108 45.2513 140.355 57.0271 135.602C59.2859 134.694 60.7646 135.186 61.4865 136.936C62.1943 138.652 61.4399 140.014 59.1785 140.972C57.1062 141.85 55.0107 142.673 52.9249 143.518C47.6703 145.648 42.4156 147.778 37.1607 149.908C37.2035 150.058 37.2463 150.209 37.2891 150.359C67.8319 146.6 98.3747 142.841 129.577 139.001C128.296 138.313 127.686 137.95 127.046 137.647C118.545 133.628 110.022 129.652 101.55 125.572C100.111 124.879 98.9171 124.866 97.4695 125.463C89.742 128.651 81.9764 131.747 74.2343 134.899C72.4064 135.644 70.75 135.842 69.7424 133.722C68.8808 131.909 69.6507 130.504 72.0484 129.524C77.5535 127.272 83.0773 125.066 88.5887 122.83C90.4254 122.085 92.2476 121.304 94.2269 120.476L49.5587 75.8081C39.4531 100.793 29.4571 125.507 19.2357 150.779ZM63.7447 26.1498C64.1654 27.1828 64.3599 27.7658 64.6313 28.3105C68.1799 35.4333 71.704 42.5688 75.3262 49.6541C76.0469 51.0798 76.9812 52.3871 78.0968 53.5305C91.1464 66.6552 104.225 79.7509 117.333 92.8178C119.905 95.3908 119.975 96.1897 117.944 99.2456C116.52 101.389 115.082 103.522 113.66 105.666C110.475 110.471 107.296 115.28 103.968 120.311C115.593 125.812 126.967 131.195 138.511 136.659C141.363 129.153 144.116 121.907 146.899 114.583C144.916 113.569 143.21 112.681 141.491 111.821C137.321 109.735 133.148 107.657 128.97 105.587C127.183 104.704 126.038 103.477 126.897 101.377C127.622 99.6055 129.351 99.3062 131.642 100.417C132.221 100.697 132.789 101.001 133.365 101.286C136.717 102.948 140.07 104.608 143.965 106.537C143.456 105.403 143.231 104.845 142.962 104.309C139.394 97.194 135.856 90.0643 132.218 82.9858C131.492 81.5638 130.554 80.26 129.438 79.119C117.982 67.5865 106.388 56.1906 95.0275 44.5663C91.2563 40.7076 87.1448 37.6131 82.2496 35.3521C76.154 32.5367 70.2132 29.3862 63.7447 26.1498ZM19.7346 132.802C19.8833 132.801 20.032 132.801 20.1806 132.8C20.4083 132.297 20.6542 131.801 20.8611 131.29C28.9108 111.386 36.9458 91.4761 44.9662 71.5604C45.8171 69.4365 47.0041 67.8578 48.9442 66.6492C52.5606 64.3963 56.0817 61.9895 59.6285 59.6258C63.1437 57.2831 66.6418 54.9147 70.2245 52.5058C65.2406 42.5576 60.4012 32.8977 55.5246 23.1637C47.9963 26.0361 40.8227 28.7732 33.4909 31.5706C33.9561 32.602 34.3041 33.405 34.6773 34.196C38.0399 41.3229 41.405 48.4485 44.7725 55.573C45.5805 57.2837 45.3495 58.7597 43.603 59.6801C41.7988 60.631 40.5073 59.7886 39.6143 58.193C39.0657 57.2126 38.6272 56.1703 38.1454 55.153C35.9228 50.4606 33.7014 45.7678 31.4812 41.0744L31.0101 41.1639C27.2516 71.7098 23.4931 102.256 19.7346 132.802ZM53.2714 70.8387L99.0176 116.585C99.2341 116.488 99.3382 116.475 99.3764 116.419C103.641 110.098 107.915 103.784 112.122 97.4259C112.369 97.052 112.231 96.2405 111.993 95.7755C111.714 95.2296 111.132 94.8376 110.677 94.3828C99.022 82.7272 87.3246 71.1137 75.7576 59.3718C74.0406 57.6289 72.817 57.4201 71.0104 58.9715C69.8614 59.9582 68.4868 60.6816 67.2172 61.5287C62.6218 64.5946 58.028 67.663 53.2714 70.8387Z" fill="black"/>
</svg>
