<svg width="178" height="225" viewBox="0 0 178 225" fill="none" xmlns="http://www.w3.org/2000/svg">
<path opacity="0.62" d="M144.927 124.919H163.638L169.422 112.683H89.1416L83.3652 124.919H116.903C126.739 126.592 136.902 131.096 139.827 139.084H89.1416L83.3652 151.313H139.063C138.237 153.004 137.093 154.521 135.695 155.78C126.564 164.052 107.788 164.19 92.5973 163.935V172.272L144.483 224.434H161.783L113.309 175.692C123.174 174.913 135.629 172.323 143.864 164.866C147.905 161.289 150.751 156.558 152.02 151.313H163.623L169.407 139.084H152.478C151.477 133.698 148.84 128.752 144.927 124.919Z" fill="#A0A0A0"/>
<path opacity="0.23" d="M166.7 22.0356H174.884L177.416 16.6885H142.292L139.768 22.0356H154.441C158.748 22.7631 163.171 24.7419 164.474 28.2339H142.292L139.768 33.5593H164.132C163.776 34.2965 163.282 34.9584 162.677 35.509C158.683 39.1465 150.469 39.1902 143.82 39.0738V42.7113L166.503 65.5694H174.069L152.87 44.2536C157.184 43.9044 162.633 42.7986 166.241 39.5102C168.007 37.9472 169.251 35.8804 169.806 33.5884H174.899L177.43 28.2339H170.01C169.571 25.8762 168.415 23.7114 166.7 22.0356Z" fill="#A0A0A0"/>
<path opacity="0.24" d="M51.158 10.185H66.7048L71.5063 0H4.80153L0 10.185H27.8706C36.0478 11.5819 44.4941 15.3212 46.924 21.956H4.80153L0 32.1411H46.2837C45.598 33.5468 44.6469 34.8067 43.4829 35.8514C35.895 42.7263 20.2973 42.8426 7.67515 42.6317V49.5648L50.787 92.9022H65.1625L24.8806 52.4021C33.0796 51.7473 43.4247 49.5648 50.285 43.381C53.6462 40.405 56.0129 36.469 57.0653 32.1047H66.7048L71.5063 21.9197H57.4291C56.5914 17.4576 54.4022 13.361 51.158 10.185Z" fill="#A0A0A0"/>
</svg>
