<svg width="167" height="239" viewBox="0 0 167 239" fill="none" xmlns="http://www.w3.org/2000/svg">
<path opacity="0.63" d="M151.987 3.44692H157.257L158.887 0H136.266L134.637 3.44692H144.09C146.862 3.91501 149.725 5.18552 150.552 7.43481H136.266L134.637 10.8817H150.339C150.106 11.3574 149.784 11.7844 149.391 12.1401C146.819 14.4684 141.524 14.511 137.232 14.438V16.7846L151.822 31.478H156.686L143.026 17.7511C145.81 17.5262 149.318 16.8028 151.64 14.7116C152.777 13.7026 153.579 12.3707 153.938 10.8939H157.209L158.838 7.44698H154.06C153.797 5.93182 153.073 4.53474 151.987 3.44692Z" fill="#A0A0A0"/>
<path opacity="0.75" d="M66.0441 131.505H86.1054L92.3062 118.38H6.2008L0 131.505H35.9827C46.5361 133.329 57.4421 138.137 60.579 146.703H6.2008L0 159.822H59.7583C58.8628 161.639 57.6242 163.265 56.1108 164.612C46.3172 173.482 26.1769 173.633 9.90908 173.354V182.302L65.57 238.231H84.1175L32.1224 185.95C42.7062 185.105 56.0682 182.302 64.9499 174.333C69.2825 170.495 72.3355 165.422 73.6978 159.797H86.148L92.3487 146.678H74.1659C73.0848 140.905 70.2485 135.606 66.0441 131.505Z" fill="#A0A0A0"/>
<path opacity="0.84" d="M46.3852 62.8288H53.6073L55.8384 58.1113H24.8346L22.6035 62.8288H35.5522C39.3456 63.4732 43.2666 65.2179 44.3973 68.3H24.8346L22.6035 73.0236H44.0995C43.7793 73.6746 43.3378 74.2585 42.7985 74.7439C39.2787 77.9355 32.0323 77.9902 26.172 77.893V81.1089L46.1907 101.237H52.8778L34.1722 82.428C37.9778 82.1241 42.7863 81.1271 45.9718 78.2516C47.53 76.8718 48.6271 75.0469 49.1148 73.0236H53.5951L55.8262 68.3H49.285C48.9064 66.2207 47.8934 64.3095 46.3852 62.8288Z" fill="#A0A0A0"/>
<path opacity="0.26" d="M156.09 109.656H164.175L166.667 104.373H132.016L129.518 109.656H144.004C148.26 110.379 152.643 112.325 153.907 115.771H132.022L129.524 121.054H153.579C153.223 121.786 152.727 122.44 152.12 122.981C148.181 126.556 140.071 126.629 133.518 126.507V130.094L155.919 152.587H163.385L142.436 131.583C146.691 131.243 152.077 130.131 155.64 126.909C157.385 125.364 158.614 123.32 159.16 121.054H164.175L166.667 115.771H159.372C158.936 113.443 157.789 111.307 156.09 109.656Z" fill="#A0A0A0"/>
</svg>
