<svg width="248" height="235" viewBox="0 0 248 235" fill="none" xmlns="http://www.w3.org/2000/svg">
<path fill-rule="evenodd" clip-rule="evenodd" d="M124.221 19.2242C124.013 19.5267 123.78 19.8106 123.523 20.073C121.257 22.5576 119.014 25.0585 116.673 27.5153C115.024 29.2762 113.292 30.9601 111.597 32.6882C109.714 34.6208 107.934 36.6781 105.929 38.4894C104.152 40.1233 102.513 41.9011 101.03 43.8048L100.728 44.1198C97.9878 46.8573 95.2607 49.6128 92.5089 52.3422C90.8928 53.9353 89.1911 55.4416 87.6344 57.0854C85.9188 58.9287 84.225 60.9002 82.5195 62.8027C82.3785 62.97 82.2209 63.1225 82.0491 63.2579C80.3081 64.8287 78.7497 66.5905 77.403 68.51C76.658 69.4988 75.8439 70.4384 75.0413 71.3861C74.2386 72.3339 73.5618 73.0068 72.8624 73.8457C70.9803 76.0825 69.1692 78.3782 67.241 80.5822C65.9828 82.0131 64.7922 83.4832 63.6511 85.0058C62.7569 86.2646 61.7645 87.4507 60.6831 88.5529C58.7859 90.4782 57.038 92.5451 55.4547 94.7357C54.0483 96.6077 52.5612 98.4223 51.0229 100.175C48.4247 103.152 45.7523 106.05 43.1064 108.985L33.7169 119.394C32.1457 121.132 30.4558 122.768 29.0246 124.613C27.408 126.692 25.5521 128.574 23.4952 130.219C21.5717 131.793 19.6762 133.413 17.8021 135.04C16.7938 135.911 16.764 136.393 17.5072 137.484C17.7579 137.844 18.0268 138.191 18.3128 138.524C20.0768 140.669 21.8705 142.808 23.6264 144.965C25.0301 146.841 26.7162 148.488 28.6244 149.847C28.9144 150.071 29.1842 150.321 29.4307 150.592C31.7767 152.899 34.1227 155.205 36.4687 157.511C36.627 157.667 36.8115 157.798 36.96 157.955C38.7923 159.845 40.6394 161.702 42.4471 163.627C43.3097 164.714 44.323 165.672 45.4563 166.473C46.0474 166.903 46.5825 167.405 47.049 167.967C47.9066 168.836 48.7316 169.812 49.6024 170.698C51.6408 172.786 53.8284 174.738 55.6768 177.02C56.1105 177.514 56.6071 177.948 57.1538 178.311C60.213 180.554 63.0016 183.143 65.4635 186.029C68.6728 190.118 72.1901 193.956 75.9845 197.509C78.957 200.199 81.7706 203.089 84.8398 205.692C86.7703 207.142 88.5455 208.788 90.1372 210.604C90.4907 210.969 90.9056 211.27 91.3631 211.491C92.503 212.231 93.7545 212.911 94.9158 213.657C96.3951 214.603 97.8433 215.604 99.3127 216.552C99.4539 216.698 99.6239 216.813 99.812 216.89C100 216.967 100.202 217.004 100.405 216.999C100.608 216.994 100.808 216.947 100.992 216.861C101.176 216.775 101.34 216.652 101.474 216.499C101.837 216.245 102.161 215.946 102.499 215.665L107.755 211.253C109.467 212.803 111.066 214.474 112.539 216.252C112.7 216.49 112.815 216.757 112.875 217.037C113.377 218.555 114.675 219.389 115.714 220.612C117.587 219.532 119.225 218.088 120.531 216.366C123.086 212.445 126.123 208.862 129.573 205.701L129.875 205.386C134.048 200.874 138.2 196.355 142.396 191.858C144.985 188.873 147.798 186.089 150.81 183.532C152.095 182.445 153.317 181.286 154.471 180.06C157.221 177.321 159.912 174.531 162.7 171.836C165.312 169.302 168.064 166.867 170.745 164.383C172.996 162.287 175.357 160.303 177.453 158.071C179.549 155.838 181.872 153.811 184.197 151.793C185.823 150.435 187.38 148.996 188.861 147.481C190.426 145.826 192.045 144.252 193.76 142.764C194.293 142.266 194.796 141.737 195.266 141.179C196.173 140.036 197.159 138.956 198.217 137.95C200.811 135.806 203.285 133.521 205.625 131.102C208.595 128.171 211.716 125.396 214.975 122.789C215.893 122.182 216.617 121.323 217.06 120.315C217.338 119.802 217.737 119.365 218.223 119.042C219.888 117.614 221.575 116.201 223.251 114.78C225.915 112.553 228.501 110.339 231.101 108.091C232.188 107.146 232.265 106.524 231.376 105.468C229.533 103.3 227.651 101.155 225.729 99.0332C224.913 98.1974 224.054 97.4054 223.155 96.6606C221.225 95.1063 219.377 93.4532 217.617 91.708C217.45 91.566 217.269 91.4405 217.077 91.3332C214.977 89.8681 213.03 88.1936 211.268 86.3354C210.907 85.9688 210.512 85.6386 210.086 85.3493C207.701 83.6651 205.28 82.017 202.911 80.3097C200.546 78.7182 198.29 76.9699 196.159 75.0764C193.459 72.4922 190.728 69.9738 187.996 67.4456C187.357 66.8442 186.674 66.2907 186.005 65.7552C184.317 64.3581 182.368 63.33 181.037 61.5274C180.907 61.3518 180.744 61.2037 180.557 61.0916C178.645 59.8645 176.733 58.6983 174.863 57.4234C173.857 56.8368 172.906 56.1596 172.024 55.4002C171.084 54.4784 170.051 53.6578 168.94 52.952C167.107 51.8809 165.48 50.4913 164.135 48.8487C163.694 48.3596 163.22 47.9013 162.716 47.4771C161.492 46.2446 160.157 45.0716 159.04 43.75C156.824 41.2152 154.705 38.5931 152.543 36.0187C151.604 34.8984 150.538 33.8915 149.366 33.0183C147.484 31.6136 146.181 29.6136 144.733 27.7801C144.625 27.5892 144.543 27.385 144.488 27.1726C143.958 25.9035 143.476 24.6161 142.832 23.3966C142.519 22.8272 142.28 22.2202 142.12 21.5904C142.023 21.1918 141.831 20.8228 141.56 20.5154C141.288 20.2079 140.946 19.9714 140.562 19.8263L138.892 20.9214C136.335 19.6514 133.949 18.0629 131.79 16.1939C130.984 15.4484 130.213 14.4331 128.845 14.4423C127.052 15.7717 125.49 17.3873 124.221 19.2242ZM139.511 23.7274C139.826 23.9681 139.989 24.0317 140.038 24.145C140.669 25.5289 141.27 26.9179 141.899 28.292C142.071 28.693 142.292 29.0711 142.557 29.4177C143.829 30.9361 145.1 32.4447 146.368 33.9433C146.677 34.3562 147.057 34.7107 147.49 34.9904C148.785 35.824 149.91 36.8961 150.805 38.1497C152.876 40.6077 154.906 43.1233 157.029 45.5317C158.275 46.8924 159.622 48.1344 160.911 49.3963C161.632 50.1157 162.399 50.8071 163.049 51.5893C163.852 52.5391 164.792 53.364 165.838 54.0368C167.602 55.0778 169.23 56.3347 170.683 57.7783C171.375 58.4245 172.151 58.975 172.99 59.4151C174.843 60.5914 176.701 61.7365 178.554 62.9128C178.812 63.0518 179.041 63.2405 179.226 63.468C180.547 65.2723 182.513 66.3381 184.183 67.7484C184.574 68.0776 185.017 68.3574 185.362 68.7147C188.639 72.0632 192.37 74.9188 195.653 78.2459C195.959 78.5538 196.288 78.837 196.639 79.0928C200.49 81.8604 204.34 84.6246 208.191 87.3855C208.78 87.8128 209.305 88.3323 209.842 88.8091C211.037 89.8739 212.241 90.9882 213.426 91.9939C215.064 93.0973 216.564 94.3918 217.895 95.85C218.138 96.1239 218.418 96.3631 218.726 96.5609C220.991 98.2904 223.121 100.19 225.097 102.244C226.391 103.429 227.559 104.743 228.583 106.166C228.316 106.809 227.844 107.345 227.24 107.692C223.692 110.689 220.03 113.674 216.442 116.677C215.448 117.516 214.336 118.252 213.896 119.605C213.687 119.976 213.393 120.294 213.039 120.532C211.649 121.721 210.206 122.839 208.855 124.082C206.599 126.149 204.4 128.308 202.17 130.411C201.052 131.473 199.984 132.588 198.775 133.534C196.675 135.123 194.794 136.984 193.183 139.068C192.584 139.811 191.902 140.481 191.149 141.067C189.528 142.433 188.036 143.946 186.693 145.587C186.267 146.092 185.801 146.562 185.298 146.991C184.364 147.819 183.401 148.601 182.44 149.393C180.197 151.159 178.102 153.105 176.177 155.214C174.751 156.783 173.231 158.264 171.625 159.649C169.142 161.927 166.742 164.282 164.305 166.593C163.429 167.411 162.549 168.2 161.751 169.055C159.756 170.987 157.738 172.902 155.793 174.885C152.986 177.766 150.129 180.594 147.139 183.293C144.86 185.344 142.804 187.63 140.713 189.892C136.115 194.771 131.795 199.796 127.211 204.632C124.119 207.848 121.348 211.359 118.939 215.115C118.383 216.123 117.566 216.963 116.573 217.545C116.321 217.342 116.084 217.121 115.862 216.885C113.506 214.181 111.17 211.474 108.814 208.771C108.055 207.885 107.081 207.229 106.891 205.933C106.83 205.568 106.217 205.124 105.782 205.015C105.153 204.821 104.597 204.442 104.187 203.927C101.926 201.542 99.6877 199.113 97.3739 196.777C93.9721 193.252 90.3604 189.937 86.5585 186.848C81.9654 183.216 77.4593 179.498 73.1528 175.523C71.4926 173.989 69.6275 172.683 67.8296 171.295C64.1876 168.485 60.5096 165.701 56.9021 162.855C53.1083 159.868 49.6356 156.502 46.063 153.265C42.0717 149.652 38.8477 145.361 35.2255 141.473C35.0374 141.262 34.9017 141.001 34.6607 140.656C34.8814 140.304 35.1474 139.983 35.4517 139.7C37.9934 137.833 40.148 135.49 41.796 132.8C42.0464 132.234 42.4074 131.724 42.8578 131.299C43.3082 130.874 43.8388 130.543 44.4187 130.326C45.4343 129.139 46.7397 128.106 47.4305 126.62C48.4454 124.761 49.7113 123.051 51.1926 121.538C52.0321 120.625 52.698 119.567 53.1574 118.415C53.6447 117.111 54.343 115.896 55.2243 114.818C58.195 111.108 61.1559 107.4 64.0903 103.656C65.7657 101.576 67.2254 99.4208 68.863 97.3574C72.9063 92.2584 76.9478 87.1495 81.0799 82.0962C83.2157 79.5019 85.5624 77.0746 87.8151 74.5721C88.3951 73.9258 88.9948 73.2763 89.5072 72.5908C91.4525 70.0694 94.0064 68.2054 96.3871 66.1579C97.2793 65.4383 98.0877 64.7634 98.9074 64.0358C99.3179 63.7312 99.6438 63.3267 99.854 62.8607C100.211 61.9751 100.829 61.2191 101.626 60.6934L109.043 54.4939C110.002 53.7078 110.853 52.7992 111.576 51.7916C112.244 50.923 113.008 50.1331 113.854 49.4369C115.175 48.3826 116.351 47.1597 117.354 45.7994C117.914 45.1257 118.531 44.5017 119.198 43.9343C120.001 43.1903 120.746 42.3855 121.426 41.5272C122.104 40.5715 122.921 39.7219 123.848 39.006C125.298 37.8934 126.561 36.5558 127.588 35.0438C128.627 33.6232 129.751 32.267 130.955 30.9826C131.564 30.2384 132.394 29.7068 133.324 29.4644C133.756 29.3696 134.16 29.1753 134.504 28.8968C134.847 28.6183 135.121 28.2634 135.304 27.8603C136.227 26.0096 137.945 25.0179 139.516 23.6962L139.511 23.7274ZM95.4614 198.715C94.4454 198.635 93.4689 198.286 92.6322 197.704L93.1056 196.609C94.1094 197.02 94.9413 197.763 95.4614 198.715ZM130.761 19.2697C131.145 19.5985 131.558 19.8916 131.995 20.1454C132.321 20.304 132.636 20.4843 132.939 20.685C133.379 21.0667 133.757 21.4996 134.157 21.8879C133.447 24.4531 131.447 25.7564 129.425 26.8708C125.714 28.911 122.767 31.8661 119.705 34.6786C119.549 34.8327 119.425 35.0157 119.34 35.2174C119.324 35.2842 119.322 35.3536 119.333 35.4214C119.345 35.4891 119.37 35.5539 119.407 35.6117C119.475 35.7118 119.687 35.8278 119.753 35.7964C120.396 35.4858 121.013 35.1232 121.597 34.7122C122.883 33.7432 124.118 32.7119 125.364 31.6888C125.758 31.3785 126.138 31.0501 126.804 30.4908C126.706 31.1059 126.774 31.5101 126.617 31.5977C125.704 32.5448 124.887 33.5805 124.18 34.6895C123.817 35.1441 123.342 35.4972 122.802 35.7146C121.063 36.4802 119.415 37.4405 117.892 38.5773C117.071 39.1733 116.186 39.6988 115.316 40.2523C114.356 40.789 113.552 41.5652 112.981 42.5052C112.869 42.6864 113.004 42.9983 113.036 43.429L116.686 41.3889C116.603 41.7377 116.612 41.9087 116.533 41.9829C113.824 44.5428 111.212 47.1977 107.81 48.9114C105.521 50.0611 103.348 51.4241 101.158 52.7396C99.8819 53.4328 98.7357 54.3412 97.7694 55.4248C97.9651 55.9799 98.3003 55.923 98.6531 55.7312L104.419 52.5914C104.668 52.4476 104.938 52.3612 105.496 52.1244C105.374 52.4521 105.22 52.767 105.037 53.0645C103.607 54.7984 101.603 55.7779 99.7352 56.9066C97.0507 58.5392 94.2935 60.0421 91.5958 61.6566C90.6654 62.2296 89.7773 62.8686 88.9384 63.5686C88.6973 63.7617 88.6229 64.1598 88.3861 64.6767C89.9676 64.6718 90.9295 63.6463 92.1185 63.2415C93.3075 62.8367 94.552 62.2804 95.9197 61.7337C95.6355 62.4367 95.1843 63.0599 94.6052 63.5494C94.1628 64.0366 93.688 64.4934 93.1841 64.9167C90.9508 66.8175 88.7121 68.7057 86.4678 70.5813C85.2528 71.6093 83.8449 72.457 83.3225 74.1586C83.2036 74.5338 82.754 74.813 82.4672 75.095C81.6342 75.8045 80.8013 76.514 79.9452 77.2071C78.7203 78.2451 77.6055 79.4066 76.6187 80.6731C75.2358 82.6509 73.5411 84.3912 71.6007 85.8262C70.9341 86.2836 70.3199 86.8131 69.7693 87.4052C69.4043 87.7356 69.1034 88.1306 68.8818 88.5702C68.2056 90.103 67.327 91.5384 66.2696 92.8379C64.8893 94.6243 63.5913 96.4778 62.3395 98.3641C60.8505 100.646 59.4502 102.912 57.981 105.19C57.4673 105.988 56.8267 106.695 56.2536 107.441C56.052 107.654 55.8742 107.889 55.7231 108.14C53.0093 113.602 49.3039 118.42 45.7318 123.307C43.9212 125.785 42.0662 128.241 40.2326 130.703C39.9541 131.042 39.7034 131.404 39.483 131.783C38.1245 134.219 36.2393 136.32 33.9651 137.934C33.3849 138.383 32.8299 138.863 32.3025 139.373C32.1526 139.48 32.0265 139.618 31.9321 139.776C31.8377 139.934 31.777 140.111 31.7538 140.294C31.7306 140.476 31.7454 140.662 31.7973 140.839C31.8492 141.016 31.937 141.18 32.0553 141.322C32.2108 141.573 32.387 141.811 32.582 142.034C35.3145 145.282 38.011 148.557 40.8026 151.795C41.908 153.048 43.2248 154.112 44.4401 155.295C49.106 159.934 54.085 164.246 59.3419 168.202C62.654 170.683 65.9714 173.253 69.2459 175.811C70.1111 176.486 70.8141 177.34 71.6564 178.059C74.1439 180.223 76.6362 182.356 79.1401 184.497C81.8664 186.813 84.5338 189.2 87.0472 191.755C88.1258 192.85 89.3239 193.813 90.4696 194.826C90.8999 195.209 91.3646 195.556 92.0486 196.119C91.7031 196.297 91.3672 196.493 91.0427 196.706C90.4703 197.158 90.4214 197.826 91.0388 198.117C92.5372 198.877 94.078 199.528 95.6205 200.189C96.0814 200.394 96.6224 200.414 97.0833 200.62C97.5443 200.826 98.173 201.064 98.3155 201.425C98.7942 202.571 99.9349 203.016 100.641 203.89C101.079 204.435 101.399 205.07 101.94 205.922C103.726 206.288 104.656 208.179 106.116 209.432C104.454 211.319 102.545 212.974 100.44 214.352C99.994 214.186 99.5605 213.989 99.1429 213.761C96.8781 212.37 94.7085 210.943 92.4995 209.523C92.1169 209.301 91.7737 209.016 91.4842 208.681C89.7409 206.361 87.2555 204.866 85.1813 202.926C82.7725 200.687 80.3587 198.419 78.0057 196.151C76.9422 195.145 75.8705 194.151 74.8414 193.108C73.6161 191.866 72.3891 190.614 71.2145 189.312C70.0399 188.01 68.7992 186.558 67.6801 185.105C65.0308 181.788 61.9479 178.842 58.5139 176.346C57.833 175.797 57.1953 175.196 56.6062 174.55C55.1632 173.101 53.7366 171.629 52.3199 170.156C51.4078 169.205 50.5137 168.241 49.6459 167.252C48.6529 166.08 47.5213 165.032 46.2759 164.133C45.5985 163.58 44.9691 162.971 44.3945 162.312C42.8457 160.658 41.3755 158.93 39.7661 157.337C36.8126 154.4 33.782 151.547 30.7761 148.66C30.6809 148.549 30.5784 148.444 30.4693 148.347C27.4924 146.347 25.504 143.419 23.1893 140.779C22.2324 139.684 21.2857 138.57 20.3495 137.437C20.1124 137.128 19.892 136.807 19.689 136.474C20.0971 136.07 20.4181 135.691 20.7903 135.374C22.7498 133.713 24.7109 132.061 26.6869 130.437C27.9012 129.385 29.0143 128.221 30.0118 126.961C31.5006 125.157 33.0388 123.404 34.5968 121.648C38.0817 117.801 41.5913 113.979 45.0761 110.131C47.9204 106.99 50.7745 103.848 53.6087 100.648C55.0028 99.0625 56.3112 97.3898 57.585 95.6925C59.0094 93.746 60.5753 91.9069 62.2698 90.1903C63.5069 88.9543 64.6368 87.6155 65.6473 86.1882C67.0157 84.272 68.6018 82.5623 70.1384 80.8001C71.8372 78.8582 73.3697 76.8329 74.9995 74.9028C75.368 74.4446 75.7612 74.0127 76.1429 73.5725C77.5222 71.9588 78.9031 70.3549 80.2609 68.7347C80.7237 68.0746 81.2304 67.4463 81.7774 66.8541C83.7517 65.0068 85.572 63.0014 87.2202 60.8581C89.0048 58.821 90.9181 56.9003 92.9482 55.1077L100.675 47.6282C102.419 45.9525 104.165 44.2867 105.904 42.5814C108.852 39.6361 111.8 36.6907 114.713 33.711C117.481 30.8978 120.247 28.0747 122.946 25.2123C124.543 23.5108 126.012 21.6485 127.544 19.9176C127.688 19.7511 127.798 19.56 127.93 19.3853C128.979 17.9189 129.344 17.9178 130.754 19.2303L130.761 19.2697Z" fill="#DADAD9"/>
<path fill-rule="evenodd" clip-rule="evenodd" d="M105.539 186.15C101.309 183.944 97.6018 180.855 94.669 177.092C94.2761 176.57 93.8274 176.079 93.3968 175.573C91.9833 173.61 90.2457 171.902 88.2585 170.523C87.9151 170.264 87.5921 169.98 87.2925 169.672C86.5193 169.002 85.7299 168.355 84.9255 167.681C84.1211 167.006 83.1814 166.131 82.3716 165.305C81.7581 164.679 81.2576 163.942 80.6622 163.303C79.7531 162.302 78.7554 161.385 77.6814 160.563C77.3722 161.072 77.6624 161.347 77.8639 161.638C80.4627 165.771 84.1091 168.965 87.5686 172.313C87.6194 172.367 87.6751 172.415 87.7351 172.458C89.0033 173.327 90.1206 174.398 91.0428 175.628C92.1469 176.993 93.2509 178.357 94.4255 179.659C95.531 180.923 96.7129 182.118 97.9646 183.237C100.126 184.996 102.429 186.572 104.851 187.95C106.555 188.941 108.18 190.062 109.711 191.304C111.159 192.539 112.977 193.569 113.27 195.771C113.295 195.919 113.922 196.147 114.193 196.071C114.425 196.034 114.643 195.936 114.824 195.787C115.005 195.637 115.142 195.442 115.222 195.221C115.302 195 115.32 194.762 115.276 194.531C115.232 194.3 115.127 194.086 114.972 193.91C114.198 192.949 113.365 192.037 112.479 191.178C110.391 189.211 108.059 187.521 105.539 186.15Z" fill="#DADAD9"/>
<path fill-rule="evenodd" clip-rule="evenodd" d="M111.305 176.68C107.267 174.142 103.818 170.772 101.187 166.795C100.78 166.187 100.288 165.642 99.7251 165.177C98.0803 163.853 96.4076 162.545 94.6727 161.349C92.9126 160.17 91.3463 158.725 90.03 157.066C89.4933 156.274 88.7515 155.642 87.8838 155.239C86.1544 154.43 84.653 153.203 83.5145 151.67C80.6486 148.353 77.7024 145.101 74.7429 141.83C74.4691 141.532 74.1231 141.286 73.8164 140.973L73.4506 141.269C73.5919 141.57 73.7532 141.861 73.9334 142.14L82.6576 153.135C83.7662 154.505 85.1597 155.619 86.7416 156.397C87.4718 156.721 88.1238 157.198 88.653 157.796C90.2787 159.868 92.231 161.66 94.4333 163.103C94.8583 163.396 95.2572 163.714 95.6658 164.03C96.4222 164.602 97.1786 165.173 97.9268 165.756C98.6489 166.267 99.334 166.829 99.9771 167.436C101.204 168.688 102.333 170.079 103.537 171.315C104.419 172.287 105.364 173.2 106.365 174.05C108.237 175.578 110.175 177.014 112.096 178.473C114.018 179.932 116.087 181.426 118.05 182.949C119.269 183.789 120.141 185.043 120.506 186.478C120.602 186.829 120.793 187.147 121.057 187.398C121.143 187.455 121.242 187.488 121.345 187.496C121.447 187.503 121.55 187.484 121.643 187.441C121.722 187.376 121.787 187.297 121.834 187.207C121.881 187.117 121.91 187.018 121.919 186.917C121.902 186.705 121.846 186.498 121.754 186.306C121.03 184.217 119.626 182.431 117.768 181.232C115.661 179.632 113.53 178.077 111.305 176.68Z" fill="#DADAD9"/>
<path fill-rule="evenodd" clip-rule="evenodd" d="M131.473 71.8939C130.582 70.828 129.701 69.7605 128.792 68.7079C128.523 68.3756 128.204 68.0875 127.846 67.8543C127.641 67.7267 127.158 67.6871 127.048 67.8173C126.941 67.9485 126.862 68.1004 126.817 68.2635C126.771 68.4266 126.76 68.5974 126.783 68.7651C126.928 69.1791 127.158 69.5581 127.459 69.8776C129.271 72.0651 131.094 74.2607 132.97 76.4069C133.56 77.0521 134.229 77.6201 134.961 78.0974C136.281 78.9991 137.691 79.774 139.012 80.6856C139.82 81.1747 140.539 81.7966 141.14 82.5252C142.91 85.0038 145.588 86.4965 147.672 88.6174C148.448 89.4893 149.352 90.2387 150.352 90.84C151.868 91.6985 153.195 92.8528 154.256 94.2342C154.402 94.4003 154.567 94.5493 154.747 94.6782C156.217 95.7472 157.695 96.8046 159.166 97.8835C159.572 98.1798 159.93 98.5552 160.35 98.8794C160.589 99.1543 160.868 99.3908 161.179 99.5804C161.305 99.6229 161.439 99.6377 161.571 99.624C161.704 99.6102 161.832 99.5682 161.946 99.5008C162.065 99.4807 162.106 99.0679 162.028 98.9087C161.522 97.8346 160.736 96.9169 159.752 96.2525C157.626 94.7269 155.355 93.3579 153.817 91.1745C153.583 90.8145 153.261 90.5202 152.881 90.3192C151.019 89.3879 149.761 87.7149 148.048 86.5859C147.329 86.1195 146.889 85.2003 146.151 84.7982C144.788 83.9384 143.61 82.8139 142.689 81.4913C141.858 80.4723 140.85 79.6126 139.712 78.954C134.809 76.0034 134.825 75.9803 131.473 71.8939Z" fill="#DADAD9"/>
<path fill-rule="evenodd" clip-rule="evenodd" d="M151.713 79.39C152.534 79.6867 153.391 79.8961 154.234 80.1384C155.217 80.4279 156.118 80.9456 156.864 81.6493C158.806 83.3481 160.782 85.1323 162.815 86.8259C163.418 87.3536 164.107 87.7751 164.852 88.0723C165.6 88.3668 166.256 88.8537 166.755 89.4835C167.546 90.4346 168.356 91.3823 169.192 92.3053C169.746 92.9827 170.365 93.6045 171.039 94.1622C172.775 95.5013 174.337 97.0522 175.688 98.779C177.117 100.565 178.602 102.26 180.062 103.99C181.135 105.371 182.368 106.619 183.737 107.707C184.643 108.327 185.377 109.166 185.871 110.146C186.366 111.127 186.605 112.216 186.565 113.313C186.529 113.528 186.525 113.747 186.554 113.964C186.599 114.23 186.785 114.604 186.966 114.655C187.304 114.731 187.658 114.671 187.952 114.487C188.181 114.307 188.352 114.063 188.444 113.785C188.536 113.508 188.544 113.211 188.468 112.929C188.311 111.546 187.859 110.212 187.144 109.018C186.428 107.824 185.466 106.797 184.32 106.006C183.263 105.228 182.3 104.329 181.451 103.328C179.475 101.067 177.626 98.7237 175.666 96.4396C175.054 95.6172 174.348 94.869 173.563 94.2103C171.441 92.5319 169.566 90.5624 167.995 88.3602C167.317 87.5006 166.42 86.84 165.398 86.448C163.164 85.5538 161.181 84.129 159.621 82.2967C158.643 80.7791 157.854 79.6554 156.513 79.2847C154.971 78.8669 153.359 78.6336 151.8 78.3507C151.701 78.3672 151.607 78.4048 151.523 78.4609C151.44 78.5171 151.37 78.5904 151.318 78.6761C151.389 78.9783 151.518 79.3215 151.713 79.39Z" fill="#DADAD9"/>
<path fill-rule="evenodd" clip-rule="evenodd" d="M100.882 103.614C103.335 106.969 106.334 109.889 109.754 112.25C110.474 112.727 111.172 113.257 111.91 113.72C112.155 113.884 112.446 113.963 112.74 113.946C113.033 113.93 113.314 113.817 113.538 113.626C114.458 112.904 115.206 111.987 115.729 110.941C115.473 110.569 115.262 110.28 115.078 110.038C113.511 107.677 111.139 106.193 108.951 104.536C107.942 103.822 107.029 102.982 106.234 102.036C105.78 101.436 105.31 100.877 104.823 100.358C104.015 99.4812 103.501 99.3858 102.594 100.077C102.072 100.473 101.572 100.896 101.096 101.346C100.253 102.179 100.192 102.717 100.882 103.614ZM104.029 102.491C105.376 104.453 107.319 105.736 109.076 107.243C109.456 107.584 109.871 107.884 110.313 108.139C111.718 109.063 112.877 110.314 113.691 111.784L112.955 112.346C111.106 110.956 109.284 109.663 107.552 108.243C106.699 107.456 105.91 106.603 105.191 105.692C104.473 104.87 103.782 104.024 103.128 103.162C103.067 103.042 103.032 102.911 103.027 102.777C103.022 102.643 103.046 102.509 103.098 102.386C103.229 102.14 103.791 102.167 104.035 102.531L104.029 102.491Z" fill="#DADAD9"/>
<path fill-rule="evenodd" clip-rule="evenodd" d="M121.055 107.419C121.603 106.743 122.113 106.037 122.582 105.303C122.718 104.985 122.797 104.646 122.817 104.3C122.24 104.185 121.693 103.956 121.206 103.626C120.72 103.296 120.304 102.871 119.985 102.377C119.215 101.317 118.31 100.363 117.292 99.5379C115.948 98.5585 114.747 97.3969 113.723 96.0867C113.264 95.5205 112.773 94.9808 112.252 94.4703C112.075 94.2771 111.833 94.1556 111.572 94.1289C111.312 94.1021 111.05 94.1719 110.838 94.3251C110.03 94.9458 109.255 95.6089 108.518 96.3116C108.318 96.4827 108.194 96.7254 108.172 96.9873C108.15 97.2492 108.232 97.5092 108.4 97.7111C109.691 99.3379 110.828 101.194 112.666 102.342C113.653 102.965 114.525 103.753 115.243 104.674C116.155 105.807 117.103 106.904 118.028 107.994C118.689 107.882 119.123 107.331 119.746 107.834C120.369 108.337 120.727 107.82 121.055 107.419ZM116.321 103.02C115.609 102.091 114.739 101.295 113.751 100.667C112.594 99.8846 111.619 98.8641 110.889 97.6738C110.646 97.3194 110.777 97.0132 111.09 96.7065C111.815 96.7963 112.085 97.3692 112.44 97.7857C113.387 99.1003 114.611 100.191 116.025 100.98C116.346 101.155 116.623 101.399 116.837 101.695C117.736 102.749 118.619 103.826 119.51 104.892C119.904 105.363 119.874 105.845 119.214 106.433C118.197 105.287 117.249 104.181 116.321 103.02Z" fill="#DADAD9"/>
<path fill-rule="evenodd" clip-rule="evenodd" d="M114.352 92.5723C116.397 94.9334 118.077 97.6605 120.913 99.248C121.104 99.3576 121.229 99.5594 121.411 99.6706C122.081 100.094 122.753 100.528 123.446 100.907C123.949 101.177 124.489 101.369 125.211 101.683C125.696 101.012 126.158 100.447 126.54 99.8339C126.709 99.5877 126.776 99.2854 126.726 98.991C126.676 98.6966 126.513 98.4332 126.273 98.2565C124.975 97.2846 123.846 96.1056 122.931 94.7668C121.504 93.1124 120.145 91.3855 118.743 89.6965C118.479 89.3477 118.193 89.0169 117.885 88.7062C117.687 88.4836 117.413 88.3432 117.117 88.3127C116.821 88.2823 116.524 88.3641 116.285 88.5419C115.69 88.9644 115.125 89.4263 114.592 89.9248C113.52 90.9589 113.43 91.5017 114.352 92.5723ZM117.161 91.1926C119.195 93.3728 121.133 95.5895 123.277 98.3595C120.807 96.9804 118.687 95.0493 117.085 92.7168C116.818 92.3796 116.598 92.0075 116.431 91.6107C116.411 91.4924 116.617 91.2748 116.714 91.1265C116.852 91.1639 117.037 91.1223 117.112 91.2009L117.161 91.1926Z" fill="#DADAD9"/>
<path fill-rule="evenodd" clip-rule="evenodd" d="M129.625 84.9069C130.604 86.093 131.614 87.2435 132.656 88.3581C133.045 88.7882 133.497 89.156 133.997 89.4489C135.012 90.025 136.056 90.5486 137.124 91.0174C138.128 91.4495 139.033 92.0829 139.783 92.8784C141.024 94.2095 142.765 94.9077 144.15 96.0723C144.582 96.3255 145.051 96.5094 145.541 96.6171L145.867 96.3284C145.756 96.0937 145.704 95.788 145.53 95.6554C144.435 94.8269 143.302 94.0052 142.188 93.18C141.801 92.963 141.457 92.6778 141.173 92.3382C140.153 90.718 138.58 89.5221 136.746 88.9718C136.337 88.8284 135.997 88.5007 135.627 88.3506C134.815 88.0232 134.116 87.4646 133.619 86.744C130.395 82.8693 127.146 79.0291 123.91 75.207C123.127 74.3803 122.231 73.6686 121.248 73.0928C121.141 73.3545 121.018 73.5275 121.059 73.5915C121.609 74.6947 122.243 75.7536 122.956 76.7586C125.124 79.545 127.383 82.2144 129.625 84.9069Z" fill="#DADAD9"/>
<path fill-rule="evenodd" clip-rule="evenodd" d="M142.139 50.0079C142.984 50.5849 143.746 51.2744 144.404 52.0575C144.718 52.4615 145.103 52.8051 145.54 53.0717C147.085 54.0376 148.564 55.1045 149.967 56.2654C152.118 57.8781 154.388 59.3589 156.057 61.5402C156.279 61.8371 156.747 61.9606 157.397 62.3268C157.273 61.8158 157.097 61.3189 156.872 60.8439C155.985 59.5033 154.851 58.3431 153.532 57.4249C152.467 56.6522 151.403 55.8795 150.365 55.0821C148.535 53.8795 146.949 52.3422 145.69 50.5509C145.099 49.5275 144.152 48.7569 143.03 48.3858C142.499 48.1484 141.989 47.865 141.507 47.539C141.273 47.4164 141.004 47.2084 140.74 47.5068C141.018 48.9609 141.157 49.3024 142.139 50.0079Z" fill="#DADAD9"/>
<path fill-rule="evenodd" clip-rule="evenodd" d="M84.4619 119.863C84.5395 119.943 84.6328 120.005 84.7358 120.047C84.8389 120.088 84.9494 120.108 85.0604 120.104C85.1715 120.101 85.2805 120.074 85.3807 120.026C85.4809 119.978 85.5699 119.91 85.6421 119.825C85.758 119.698 85.846 119.549 85.9004 119.386C85.9548 119.223 85.9745 119.05 85.9582 118.879C85.836 118.463 85.6219 118.08 85.3316 117.758C84.7589 117.013 84.1319 116.309 83.4835 115.536C83.796 115.047 84.0824 114.643 84.2751 114.225C84.3219 114.146 84.3509 114.058 84.36 113.967C84.3692 113.875 84.3583 113.783 84.3281 113.697C84.298 113.61 84.2493 113.531 84.1854 113.465C84.1215 113.399 84.0439 113.348 83.9582 113.315C83.7053 113.24 83.433 113.268 83.2006 113.393C82.9895 113.545 82.8051 113.73 82.6549 113.942C81.9733 113.632 81.5283 113.282 81.7102 112.561C81.8027 112.285 81.8256 111.99 81.7768 111.703C81.728 111.416 81.6091 111.145 81.4306 110.915C80.9726 110.348 80.4783 109.812 79.9509 109.31C79.2915 108.712 78.7826 108.94 78.1846 110.137C78.6117 110.471 79.0129 110.837 79.3848 111.232C79.6192 111.494 79.7491 111.833 79.7494 112.184C79.7203 112.579 79.7777 112.976 79.9177 113.346C80.0577 113.716 80.2769 114.052 80.56 114.329C80.9594 114.829 81.1095 115.534 81.4827 116.059C82.4945 117.358 83.4503 118.625 84.4619 119.863Z" fill="#DADAD9"/>
<path fill-rule="evenodd" clip-rule="evenodd" d="M68.8086 132.513C68.4105 131.901 67.9582 131.329 67.4878 130.709L67.5566 130.636C66.9349 130.022 66.3279 129.374 65.6932 128.802C65.515 128.614 65.2776 128.493 65.0207 128.459C64.7638 128.425 64.503 128.481 64.2821 128.616C64.0582 128.809 63.9126 129.077 63.8726 129.369C63.8326 129.662 63.9011 129.959 64.0651 130.205C64.2871 130.58 64.5378 130.938 64.8148 131.274C65.3066 131.901 65.9033 132.428 65.6909 133.387C65.6826 133.48 65.6962 133.573 65.7306 133.659C65.765 133.745 65.8193 133.822 65.889 133.884C65.9587 133.945 66.0419 133.989 66.1318 134.012C66.2217 134.035 66.3158 134.037 66.4064 134.017C67.1603 133.797 67.6564 134.21 68.2279 134.529C68.8598 134.898 69.5124 135.231 70.1824 135.526C70.4473 135.564 70.7173 135.549 70.9764 135.482C70.9345 135.235 70.9382 134.839 70.7817 134.754C69.9513 134.179 69.2739 133.41 68.8086 132.513Z" fill="#DADAD9"/>
<path fill-rule="evenodd" clip-rule="evenodd" d="M69.1793 153.031C67.8496 152.583 66.7057 151.707 65.9263 150.54C65.3577 149.687 64.7283 148.875 64.043 148.111C63.5691 147.565 63.0001 147.108 62.3636 146.764C61.4399 146.325 60.4854 145.955 59.5078 145.656C59.3564 145.601 58.9952 145.743 58.9708 145.839C58.9464 145.934 58.8907 146.502 59.0423 146.618C59.5324 147.056 60.0862 147.416 60.6847 147.688C61.6944 148.127 62.5909 148.789 63.3063 149.626C64.1343 150.5 65.0216 151.424 65.8005 152.367C66.719 153.32 67.9265 153.942 69.2353 154.137C69.4771 154.187 69.7578 154.048 70.0142 154.005L70.0605 153.561C69.7819 153.36 69.4871 153.183 69.1793 153.031Z" fill="#DADAD9"/>
<path fill-rule="evenodd" clip-rule="evenodd" d="M177.552 116.264C177.433 115.919 177.238 115.605 176.981 115.346C176.091 114.29 175.199 113.215 174.257 112.208C173.292 111.199 172.609 109.954 172.275 108.599C172.214 108.314 172.139 108.032 172.05 107.755C171.884 107.195 171.573 106.688 171.149 106.286C170.724 105.885 170.201 105.602 169.633 105.467C169.438 105.466 169.244 105.499 169.061 105.564C169.093 105.752 169.128 105.959 169.225 105.993C169.747 106.25 170.198 106.632 170.537 107.106C170.875 107.579 171.092 108.129 171.167 108.706C171.552 110.426 172.385 112.013 173.581 113.307C174.419 114.179 175.136 115.234 175.928 116.195C176.149 116.481 176.41 116.734 176.705 116.945C176.795 116.993 176.897 117.017 177 117.014C177.102 117.01 177.202 116.981 177.29 116.927C177.449 116.788 177.637 116.462 177.552 116.264Z" fill="#DADAD9"/>
<path fill-rule="evenodd" clip-rule="evenodd" d="M140.606 65.2403C140.466 65.4749 140.415 65.7515 140.461 66.0206C140.506 66.2897 140.646 66.5338 140.856 66.7092C141.92 68.0195 143.001 69.3067 144.055 70.6186C144.993 71.6493 145.678 72.8836 146.057 74.2242C146.164 74.6483 146.384 75.0353 146.694 75.3435C146.955 75.5725 147.295 75.6896 147.642 75.6693C148.056 75.599 148.138 75.1894 148.122 74.7965C148.107 74.2072 147.962 73.6286 147.697 73.1019C147.433 72.5752 147.055 72.1136 146.591 71.75C144.905 70.232 143.354 68.5713 141.954 66.7864C141.592 66.2696 141.142 65.8288 140.606 65.2403Z" fill="#DADAD9"/>
<path fill-rule="evenodd" clip-rule="evenodd" d="M169.64 118.937L166.856 117.239L166.101 116.85C166.152 117.27 166.302 117.672 166.538 118.023C166.773 118.374 167.089 118.665 167.458 118.871C168.116 119.338 168.848 119.65 169.517 120.124C171.011 121.159 172.274 122.324 171.86 124.423C171.862 124.562 171.893 124.699 171.951 124.825C172.009 124.951 172.093 125.064 172.198 125.156C172.389 125.327 172.706 125.344 172.996 125.437C173.415 124.477 173.469 123.397 173.148 122.4C172.828 121.403 172.154 120.558 171.254 120.022C170.762 119.629 170.197 119.289 169.64 118.937Z" fill="#DADAD9"/>
<path fill-rule="evenodd" clip-rule="evenodd" d="M151.094 102.257C152.652 102.943 153.906 104.172 154.623 105.715C154.82 106.098 154.849 106.569 155.063 106.929C155.334 107.288 155.648 107.613 155.998 107.896C156.542 106.921 156.702 106.072 156.049 105.331C154.785 103.862 153.503 102.284 151.618 101.519C150.515 101.115 149.537 100.427 148.784 99.5254C148.669 99.3827 148.438 99.3407 148.06 99.1413C148.07 99.4492 148.122 99.7542 148.214 100.048C148.887 101.098 149.906 101.879 151.094 102.257Z" fill="#DADAD9"/>
<path fill-rule="evenodd" clip-rule="evenodd" d="M136.735 62.2151C136.808 62.1592 136.867 62.0878 136.909 62.0062C136.951 61.9245 136.974 61.8346 136.977 61.7429C136.98 61.6512 136.962 61.56 136.926 61.4759C136.889 61.3918 136.834 61.3169 136.765 61.2566C135.841 60.592 134.859 60.0081 133.877 59.4242C133.754 59.3539 133.493 59.4895 133.266 59.528C133.306 59.7647 133.177 60.0807 133.273 60.1659C134.14 60.9112 135.035 61.6417 135.959 62.3063C136.118 62.462 136.546 62.3587 136.735 62.2151Z" fill="#DADAD9"/>
<path fill-rule="evenodd" clip-rule="evenodd" d="M163.478 112.589C163.441 112.372 163.401 112.136 163.324 112.037C162.32 111.323 161.139 110.899 159.91 110.812C160.554 111.737 161.379 112.175 163.478 112.589Z" fill="#DADAD9"/>
<path fill-rule="evenodd" clip-rule="evenodd" d="M167.251 73.8807C167.379 73.9815 167.528 74.0533 167.686 74.0911C167.845 74.1289 168.01 74.1319 168.17 74.0999C168.565 74.0329 168.646 73.38 168.387 73.0487C168.128 72.7174 167.383 72.4484 167.114 72.7781C166.987 72.9428 166.93 73.151 166.956 73.3575C166.981 73.5639 167.087 73.752 167.251 73.8807Z" fill="#DADAD9"/>
<path fill-rule="evenodd" clip-rule="evenodd" d="M77.6257 107.747C77.2354 107.54 76.9304 107.774 76.6616 108.043C76.5198 108.262 76.4202 108.506 76.3679 108.762C76.3679 108.762 76.439 108.882 76.4786 108.936C76.5182 108.99 76.6103 108.995 76.6596 108.987C76.9077 108.955 77.1417 108.853 77.3338 108.693C77.5258 108.533 77.668 108.321 77.7435 108.082C77.7517 108.021 77.7454 107.959 77.7249 107.901C77.7044 107.842 77.6704 107.79 77.6257 107.747Z" fill="#DADAD9"/>
</svg>
