<svg width="372" height="342" viewBox="0 0 372 342" fill="none" xmlns="http://www.w3.org/2000/svg">
<path d="M237.64 51.6506L239.485 34.9521L246.522 35.7295C248.303 35.9263 249.831 36.4492 251.106 37.2983C252.396 38.1491 253.346 39.244 253.954 40.5829C254.579 41.9236 254.8 43.4209 254.617 45.0748C254.434 46.7288 253.892 48.1417 252.99 49.3138C252.104 50.4876 250.938 51.3488 249.493 51.8975C248.064 52.4479 246.459 52.6247 244.678 52.4279L237.64 51.6506ZM240.255 49.8387L244.764 50.3368C246.147 50.4896 247.369 50.3589 248.429 49.9448C249.505 49.5324 250.373 48.8879 251.033 48.011C251.695 47.1183 252.095 46.0518 252.232 44.8113C252.37 43.5549 252.213 42.4269 251.76 41.4271C251.307 40.4273 250.601 39.6088 249.641 38.9716C248.697 38.3361 247.533 37.9419 246.15 37.7891L241.641 37.291L240.255 49.8387ZM262.629 54.5558C261.277 54.4065 260.115 53.9964 259.143 53.3256C258.186 52.6565 257.475 51.8054 257.01 50.772C256.561 49.7404 256.405 48.5965 256.544 47.3401C256.683 46.0837 257.076 45.0004 257.724 44.09C258.388 43.1814 259.227 42.5094 260.241 42.0741C261.272 41.6247 262.392 41.4667 263.601 41.6002C264.826 41.7355 265.877 42.1253 266.756 42.7697C267.634 43.414 268.281 44.2582 268.697 45.3022C269.131 46.332 269.276 47.499 269.132 48.803C269.121 48.8984 269.101 49.0089 269.071 49.1344C269.057 49.2616 269.036 49.38 269.007 49.4895L258.249 48.3011L258.431 46.6551L267.997 47.7118L267.003 48.1815C267.108 47.3722 267.021 46.6302 266.742 45.9554C266.462 45.2806 266.032 44.734 265.45 44.3157C264.886 43.8831 264.199 43.6221 263.388 43.5325C262.592 43.4446 261.865 43.5493 261.204 43.8466C260.545 44.128 260.005 44.5753 259.583 45.1887C259.163 45.7862 258.907 46.4984 258.815 47.3254L258.773 47.7071C258.68 48.5499 258.788 49.3264 259.095 50.0365C259.421 50.7325 259.913 51.302 260.573 51.7451C261.232 52.1881 262.015 52.4597 262.922 52.5599C263.669 52.6425 264.359 52.5899 264.991 52.4022C265.64 52.2163 266.223 51.8943 266.74 51.4363L267.841 53.055C267.195 53.6597 266.423 54.0896 265.525 54.3446C264.644 54.6013 263.678 54.6717 262.629 54.5558ZM275.231 55.948C274.182 55.832 273.196 55.5782 272.273 55.1865C271.366 54.7966 270.665 54.3651 270.17 53.8919L271.325 52.1843C271.825 52.6098 272.459 52.9937 273.226 53.336C273.993 53.6783 274.79 53.8951 275.617 53.9864C276.683 54.1041 277.463 54.0374 277.957 53.7862C278.468 53.5367 278.753 53.1416 278.812 52.6009C278.856 52.2033 278.747 51.8774 278.486 51.6231C278.224 51.3689 277.861 51.1597 277.396 50.9957C276.947 50.8334 276.441 50.6809 275.877 50.5382C275.315 50.3795 274.755 50.2049 274.197 50.0145C273.64 49.8081 273.136 49.5593 272.685 49.268C272.236 48.9609 271.892 48.5768 271.654 48.1158C271.417 47.6389 271.338 47.0346 271.419 46.3031C271.504 45.5397 271.792 44.8955 272.285 44.3704C272.777 43.8453 273.43 43.4748 274.243 43.2587C275.073 43.0284 276.029 42.9731 277.11 43.0925C277.937 43.1839 278.761 43.3795 279.581 43.6793C280.418 43.965 281.087 44.3206 281.588 44.7461L280.409 46.4511C279.879 46.0061 279.312 45.6779 278.707 45.4662C278.103 45.2546 277.49 45.1145 276.87 45.046C275.868 44.9353 275.102 45.0197 274.573 45.2992C274.044 45.5628 273.752 45.9491 273.696 46.458C273.649 46.8874 273.755 47.2372 274.015 47.5073C274.292 47.7634 274.655 47.9805 275.102 48.1586C275.565 48.3386 276.077 48.5079 276.639 48.6665C277.203 48.8093 277.763 48.9838 278.32 49.1902C278.878 49.3807 279.375 49.6207 279.81 49.9102C280.261 50.2014 280.605 50.5776 280.844 51.0386C281.099 51.5013 281.187 52.0905 281.108 52.8062C281.023 53.5695 280.728 54.2049 280.221 54.7124C279.714 55.2198 279.038 55.5877 278.192 55.8162C277.347 56.0288 276.36 56.0727 275.231 55.948ZM283.572 56.7244L284.969 44.0813L287.259 44.3343L285.862 56.9774L283.572 56.7244ZM286.382 41.7746C285.937 41.7254 285.579 41.541 285.309 41.2214C285.054 40.9035 284.949 40.5378 284.995 40.1243C285.043 39.6949 285.225 39.3529 285.543 39.0983C285.877 38.8454 286.266 38.7436 286.712 38.7928C287.157 38.8419 287.507 39.0255 287.762 39.3434C288.034 39.6471 288.147 40.0057 288.102 40.4192C288.054 40.8486 287.871 41.1985 287.551 41.4691C287.233 41.7237 286.844 41.8256 286.382 41.7746ZM295.242 62.8427C294.081 62.7145 292.97 62.4228 291.91 61.9676C290.863 61.5301 290.032 60.9714 289.415 60.2915L290.707 58.6475C291.239 59.2214 291.919 59.6989 292.746 60.08C293.571 60.477 294.453 60.7274 295.392 60.831C296.887 60.9962 298.022 60.7675 298.8 60.1451C299.577 59.5226 300.044 58.4958 300.202 57.0645L300.497 54.3927L301.013 51.9143L301.173 49.3725L301.555 45.9135L303.726 46.1533L302.519 57.0789C302.273 59.3053 301.535 60.8819 300.306 61.8085C299.077 62.7352 297.389 63.0799 295.242 62.8427ZM295.541 57.5153C294.316 57.3801 293.247 57.0044 292.333 56.3883C291.437 55.7581 290.753 54.9502 290.283 53.9646C289.828 52.9807 289.667 51.8844 289.801 50.6758C289.936 49.4512 290.332 48.4165 290.989 47.5715C291.663 46.7123 292.506 46.081 293.516 45.6775C294.542 45.2757 295.668 45.1425 296.892 45.2778C297.974 45.3972 298.935 45.7288 299.777 46.2725C300.62 46.8002 301.254 47.5464 301.678 48.5108C302.119 49.477 302.263 50.6519 302.11 52.0355C301.959 53.4032 301.563 54.5104 300.922 55.3572C300.297 56.2057 299.514 56.8113 298.572 57.1742C297.633 57.5211 296.622 57.6348 295.541 57.5153ZM296.024 55.5405C296.867 55.6336 297.634 55.5413 298.325 55.2634C299.015 54.9856 299.578 54.5567 300.012 53.9769C300.462 53.3988 300.732 52.7043 300.822 51.8932C300.911 51.0821 300.8 50.3454 300.486 49.683C300.189 49.0224 299.733 48.4891 299.118 48.0831C298.504 47.6612 297.776 47.4037 296.933 47.3106C296.091 47.2175 295.316 47.309 294.609 47.585C293.92 47.847 293.351 48.267 292.901 48.8451C292.466 49.4249 292.204 50.1203 292.115 50.9314C292.025 51.7425 292.129 52.4783 292.426 53.1389C292.739 53.8013 293.203 54.3435 293.816 54.7654C294.445 55.189 295.181 55.4474 296.024 55.5405ZM314.865 47.2632C315.899 47.3774 316.784 47.6763 317.519 48.16C318.27 48.6454 318.824 49.3182 319.179 50.1785C319.535 51.0387 319.644 52.0891 319.507 53.3295L318.704 60.6053L316.414 60.3523L317.188 53.339C317.324 52.1144 317.123 51.1586 316.587 50.4717C316.068 49.7864 315.267 49.3841 314.186 49.2646C313.374 49.175 312.649 49.2559 312.01 49.5072C311.37 49.7585 310.849 50.1758 310.447 50.7592C310.06 51.3443 309.816 52.098 309.714 53.0204L308.995 59.5328L306.705 59.2798L308.101 46.6367L310.296 46.8791L309.919 50.2904L309.661 49.3444C310.166 48.5631 310.874 47.9893 311.783 47.6229C312.693 47.2566 313.72 47.1367 314.865 47.2632ZM328.556 61.8385C327.204 61.6891 326.042 61.2791 325.07 60.6083C324.113 59.9392 323.403 59.088 322.937 58.0547C322.488 57.0231 322.332 55.8791 322.471 54.6228C322.61 53.3664 323.003 52.2831 323.651 51.3727C324.315 50.4641 325.154 49.7921 326.168 49.3568C327.199 48.9074 328.319 48.7494 329.528 48.8829C330.753 49.0182 331.804 49.408 332.683 50.0524C333.561 50.6967 334.209 51.5409 334.624 52.5849C335.058 53.6147 335.203 54.7816 335.059 56.0857C335.048 56.1811 335.028 56.2916 334.998 56.417C334.984 56.5443 334.963 56.6627 334.935 56.7722L324.176 55.5838L324.358 53.9378L333.924 54.9945L332.93 55.4642C333.036 54.6549 332.949 53.9129 332.669 53.2381C332.389 52.5633 331.959 52.0167 331.377 51.5983C330.813 51.1658 330.126 50.9047 329.315 50.8152C328.52 50.7273 327.792 50.832 327.131 51.1293C326.472 51.4106 325.932 51.858 325.51 52.4714C325.09 53.0689 324.834 53.7811 324.743 54.6081L324.7 54.9898C324.607 55.8326 324.715 56.6091 325.023 57.3192C325.348 58.0152 325.841 58.5847 326.5 59.0278C327.159 59.4708 327.942 59.7424 328.849 59.8426C329.596 59.9251 330.286 59.8726 330.918 59.6849C331.567 59.4989 332.15 59.177 332.667 58.719L333.768 60.3377C333.122 60.9424 332.35 61.3722 331.452 61.6272C330.571 61.884 329.605 61.9544 328.556 61.8385ZM337.548 62.687L338.945 50.0439L341.14 50.2863L340.76 53.7214L340.64 52.8389C341.087 52.0029 341.749 51.3999 342.627 51.0301C343.505 50.6603 344.548 50.5421 345.757 50.6756L345.512 52.8941C345.418 52.8677 345.323 52.8492 345.228 52.8386C345.149 52.8299 345.069 52.8211 344.989 52.8123C343.765 52.677 342.754 52.9356 341.958 53.5881C341.161 54.2406 340.687 55.2587 340.534 56.6422L339.838 62.9399L337.548 62.687Z" fill="#DADAD9"/>
<path d="M191.913 113.222C184.173 112.479 176.742 110.249 169.192 108.413C164.062 107.142 157.986 106.725 153.456 103.685C148.326 100.229 147.439 93.6433 147.27 87.8381C147.052 84.3219 147.281 80.792 147.952 77.3351C148.817 73.6186 150.722 70.2737 152.43 66.9289C158.088 55.8313 166.004 43.3809 180.128 43.983C186.812 44.2729 192.551 49.1861 196.692 54.1886C200.635 58.916 202.218 64.4908 202.27 70.6157C202.336 78.792 202.805 88.1205 199.008 95.613C197.396 98.7944 194.823 101.344 193.145 104.481C191.987 106.651 190.843 110.918 188.285 111.728C185.933 112.471 186.937 116.247 189.311 115.496C191.686 114.746 193.167 112.761 194.398 110.606C196.194 107.446 197.681 104.406 199.822 101.441C204.952 94.3569 205.956 85.8906 206.081 77.3129C206.184 70.0359 206.352 62.8481 202.775 56.2921C199.281 50.0415 193.991 45.0191 187.611 41.8943C173.824 35.5464 159.613 46.2129 152.811 57.8457C149.066 64.253 144.573 71.8049 143.73 79.3198C142.939 86.3812 142.807 95.0333 146.288 101.448C149.366 107.127 155.296 109.32 161.211 110.62C171.406 112.85 181.454 116.106 191.877 117.124C194.339 117.362 194.317 113.46 191.877 113.222H191.913Z" fill="#DADAD9"/>
<path d="M150.994 37.5578C156.674 43.1788 162.061 49.1452 168.432 54.0536C171.337 56.3421 174.474 58.3316 177.796 59.9906C179.799 60.9605 181.915 61.6879 183.911 62.6578C185.299 63.3338 186.305 64.1274 187.865 64.0613C197.965 63.444 191.017 49.4024 188.391 45.2509C186.41 42.1281 183.889 38.1089 180.257 36.5952C175.447 34.5599 173.339 39.0053 174.097 43.076C175.05 48.2194 179.251 52.5693 183.303 55.6407C186.65 58.1683 191.82 61.1368 196.059 58.9913C203.27 55.3762 201.394 40.7761 194.101 38.2705C193.765 38.1831 193.412 38.1836 193.077 38.2718C192.742 38.3601 192.436 38.5331 192.191 38.7735C191.945 39.0138 191.769 39.3131 191.678 39.6414C191.588 39.9697 191.588 40.3153 191.677 40.6438C195.729 51.1585 206.264 62.1876 217.939 64.245C220.415 64.6858 221.481 60.9678 218.982 60.527C208.732 58.712 199.09 48.9322 195.496 39.6152L193.08 41.9885C195.947 42.9805 196.577 47.7712 196.502 50.2842C196.397 54.1932 194.506 56.8163 190.341 55.2953C185.839 53.6494 181.405 49.52 179.086 45.4052C178.163 43.752 176.438 38.8583 179.994 40.9965C181.135 41.6725 182.11 43.2009 182.891 44.2149C185.271 47.2304 187.155 50.5923 188.473 54.1785C188.893 55.4056 189.554 57.1617 189.223 58.4916C188.586 61.1809 186.507 59.6232 184.676 58.8002C178.246 55.9126 172.588 52.8118 167.276 48.1386C162.526 43.9504 158.234 39.3213 153.77 34.8538C151.992 33.0903 149.2 35.8163 150.986 37.5872L150.994 37.5578Z" fill="#DADAD9"/>
<path d="M122.75 174.527C125.539 168.413 127.568 162.077 131.471 156.538C135.739 150.515 140.384 144.767 145.378 139.33C149.938 134.307 154.372 128.886 160.267 125.353C166.612 121.554 173.894 120.189 181.205 119.894C184.326 119.762 187.528 119.599 190.649 119.695C194.958 119.835 197.577 122.41 200.38 125.389C202.903 127.998 204.874 131.089 206.176 134.476C207.478 137.864 208.084 141.478 207.957 145.105C207.817 152.791 205.331 160.196 202.852 167.387C200.528 174.065 197.301 180.393 193.261 186.196C189.572 191.617 185.47 196.773 181.832 202.238C177.878 208.183 174.322 214.113 169.578 219.498C164.834 224.882 159.713 229.772 154.623 234.758C152.299 237.038 149.908 239.272 147.71 241.677C145.408 244.2 143.74 247.039 141.807 249.835C139.92 252.55 137.71 255.027 135.226 257.211C132.481 259.6 129.095 260.478 125.775 261.776C122.285 263.133 119.135 264.387 115.321 264.586C111.506 264.786 107.891 264.424 104.187 264.402C97.8645 264.402 91.0916 264.402 85.204 261.784C79.3164 259.165 74.2921 253.264 70.3745 248.249C65.6969 242.267 61.9268 235.636 58.2009 229.072C54.3128 222.183 50.1222 215.522 46.0348 208.751C42.0581 202.15 37.4617 196.08 33.4924 189.471C29.4419 182.707 24.3512 176.644 20.9869 169.467V171.422C23.3626 166.812 28.7706 164.717 33.4039 163.095C38.4651 161.325 43.6665 159.99 48.7573 158.315C54.5247 156.312 60.0742 153.73 65.3206 150.607C68.0947 149.029 70.8737 147.463 73.6576 145.909C76.0112 144.611 78.4828 142.634 80.9322 141.602C86.6132 139.204 87.9338 148.645 90.007 152.223C93.3344 157.954 96.4701 163.899 100.026 169.49C103.287 174.608 106.246 179.867 109.234 185.156C111.794 189.677 116.685 196.072 116.044 201.42C115.748 203.891 119.622 203.868 119.917 201.42C120.441 196.994 117.984 193.114 115.948 189.427C113.476 184.935 110.99 180.45 108.533 175.951C105.803 170.95 102.321 166.362 99.6794 161.31C97.289 156.67 94.028 152.319 91.9769 147.532C90.5603 144.22 89.4685 139.89 86.2517 137.803C82.8357 135.59 79.6116 137.884 76.6604 139.743C71.791 142.826 66.5453 145.422 61.5358 148.277C56.7764 151.036 51.7357 153.278 46.4996 154.967C38.3839 157.548 28.9845 159.171 22.0198 164.386C19.6662 166.156 16.5897 168.885 17.8587 171.983C19.7917 176.725 23.1412 180.989 26.0186 185.185C28.9698 189.537 31.3233 194.361 34.4441 198.602C37.565 202.843 40.3686 206.848 43.0689 211.274C48.6318 220.346 53.8554 229.588 59.3002 238.719C64.3689 247.194 70.2122 255.308 77.8999 261.584C84.8351 267.264 93.5042 268.223 102.203 268.267C107.367 268.304 112.65 268.894 117.785 268.267C122.691 267.64 127.612 265.405 132.179 263.554C141.394 259.829 144.847 250.277 151.266 243.58C158.644 235.902 166.656 228.932 173.554 220.833C180.194 213.088 185.056 204.119 191.055 195.91C196.957 187.848 202.623 179.794 205.951 170.294C209.499 160.189 213.144 149.442 211.373 138.577C210.589 133.818 208.609 129.337 205.619 125.552C203.162 122.387 199.93 118.589 196.227 116.9C192.265 115.085 187.262 115.852 183.035 115.956C178.259 115.989 173.502 116.563 168.855 117.667C158.902 120.189 151.775 126.466 145.053 133.894C138.089 141.616 130.615 149.383 125.554 158.559C123.089 163.021 121.525 167.919 119.408 172.573C118.382 174.822 121.717 176.792 122.757 174.527H122.75Z" fill="#DADAD9"/>
<path d="M118.134 169.974C117.546 173.409 115.491 175.987 113.726 178.828C111.867 181.834 110.654 185.186 109.187 188.418C108.148 190.672 111.431 192.701 112.477 190.409C114.111 186.809 115.491 183.194 117.633 179.887C119.434 177.099 121.264 174.401 121.809 171.034C122.23 168.554 118.555 167.487 118.134 169.989V169.974Z" fill="#DADAD9"/>
<path d="M68.5809 144.826C65.0335 140.059 62.2764 134.732 60.4194 129.056C58.399 123.257 55.553 117.828 53.4094 112.067C51.9611 108.211 50.5779 103.661 47.0294 101.275C43.872 99.1628 39.737 98.7491 36.0727 98.6088C29.012 98.3503 21.8571 99.2145 15.3541 102.095C9.56066 104.651 2.40581 109.644 4.75213 117.067C4.84068 117.39 5.0091 117.684 5.24121 117.92C5.47332 118.157 5.7613 118.329 6.07739 118.419C10.0386 119.158 13.9419 120.17 17.9901 120.266C20.445 120.317 20.4305 116.491 17.9901 116.388C12.4067 116.152 4.00625 114.696 1.05886 121.16C-0.201199 123.929 0.508472 127.674 2.26097 130.068C4.67972 133.384 8.60475 132.749 12.1822 132.594C12.6661 132.563 13.1203 132.346 13.4524 131.985C13.7845 131.625 13.9694 131.149 13.9694 130.655C13.9694 130.16 13.7845 129.684 13.4524 129.324C13.1203 128.964 12.6661 128.746 12.1822 128.716C8.09059 128.413 3.49206 130.348 3.0648 135.009C2.6665 139.153 5.33147 143.038 9.45202 143.348C11.429 143.496 13.4639 142.861 15.4192 143.245C17.8886 143.732 19.0835 145.882 20.0901 148.053C21.8716 151.931 22.7986 156.504 26.0646 159.443C26.3029 159.676 26.5959 159.843 26.9155 159.927C27.2351 160.012 27.5706 160.011 27.8898 159.925C28.209 159.839 28.5012 159.67 28.7382 159.436C28.9753 159.202 29.1494 158.909 29.2437 158.587L29.5913 157.53C30.3589 155.159 26.6946 154.14 25.9197 156.496C25.8111 156.851 25.6953 157.235 25.5794 157.552L28.7585 156.703C24.1021 152.515 24.7393 144.574 19.4456 140.807C17.0196 139.086 14.3764 139.278 11.5594 139.434C9.55343 139.544 8.0906 139.648 7.21434 137.439C5.7153 133.606 9.19132 132.372 12.1677 132.594V128.716C9.42305 128.834 6.26567 129.765 4.76663 126.699C3.44139 123.981 4.6073 121.529 7.2433 120.502C10.5383 119.246 14.5647 120.125 17.9756 120.266V116.388C14.2678 116.307 10.7338 115.383 7.07675 114.682L8.40196 116.033C6.22943 109.275 16.4548 105.441 21.2416 104.016C27.3434 102.254 33.7458 101.856 40.0122 102.849C44.1689 103.587 46.4573 105.294 48.246 109.253C50.2882 113.781 51.9321 118.523 53.9525 123.073C55.973 127.623 57.32 132.416 59.3476 136.952C61.1055 140.731 63.2931 144.286 65.8652 147.544C67.3642 149.516 70.0365 146.753 68.5519 144.803L68.5809 144.826Z" fill="#DADAD9"/>
<path d="M22.8154 97.4858C23.2094 98.789 23.9567 99.9629 24.9774 100.882C25.256 101.143 25.606 101.32 25.9848 101.389C26.3636 101.459 26.7548 101.419 27.1111 101.275C27.4673 101.131 27.7731 100.888 27.9914 100.576C28.2096 100.264 28.3309 99.8972 28.3405 99.5191C28.2579 96.4617 29.6692 89.883 26.3361 87.8497C25.2026 87.1572 23.8063 87.3487 22.5827 87.3487C19.7451 87.3487 16.93 87.0466 14.5278 85.4333C9.82843 82.2654 9.19035 76.3423 7.54633 71.4359C6.58374 68.5746 6.19371 65.5578 6.39775 62.5512C6.52537 59.6044 5.06153 57.3501 4.62613 54.5064C4.1607 51.4491 4.54355 48.2371 4.62613 45.165C4.73873 42.5497 4.88137 41.8941 7.68145 41.7099C10.3681 41.4971 13.0383 41.1181 15.6763 40.5754C19.3848 39.8387 22.9055 40.0597 26.6515 40.1996C29.4215 40.3028 32.1015 39.5661 34.8115 39.625C38.8127 39.7134 39.6234 43.0949 40.2165 46.2554C41.1931 51.1191 41.8375 56.0414 42.1457 60.9894C42.431 67.3472 41.9731 74.8247 37.1987 79.6354C33.22 83.6431 27.5373 85.6395 23.3109 89.4262C21.4341 91.1133 24.2342 93.8464 26.1034 92.1594C30.57 88.1517 36.6131 86.1331 40.6744 81.654C44.7356 77.1748 45.8166 71.2517 46.0868 65.5202C46.3721 59.6265 45.216 53.9392 44.4503 48.1487C43.8648 43.7285 42.9039 37.658 37.8518 36.0667C34.849 35.1238 31.621 36.3614 28.5582 36.3835C24.6921 36.4204 20.9086 35.8899 17.0501 36.4277C13.4543 36.9287 9.94105 37.5254 6.33773 37.9011C4.64116 38.0853 2.99714 38.5126 1.91614 39.8976C0.835143 41.2826 0.782599 43.0507 0.700022 44.7083C0.527363 48.1708 0.167031 51.8249 0.700022 55.2726C0.947751 56.805 1.63836 58.1015 2.08127 59.5602C2.70434 61.6156 2.16386 63.4279 2.19389 65.5054C2.23893 68.9385 3.69529 72.0695 4.64867 75.311C6.32271 80.932 7.9367 86.4278 13.6119 89.382C16.2379 90.6573 19.1438 91.2772 22.0722 91.1869C23.9489 91.1869 24.1441 90.7302 24.3243 92.6603C24.557 94.9073 24.3243 97.2058 24.3243 99.4675L27.6874 98.0972L26.5388 96.4102C25.7431 94.0601 21.9371 95.0694 22.7403 97.4342L22.8154 97.4858Z" fill="#DADAD9"/>
<path d="M3.55123 40.2136C-1.35754 41.6987 -0.167499 47.2571 4.8454 47.185C8.48984 47.1877 12.1266 47.5086 15.7116 48.1438C17.9838 48.4453 20.2758 48.585 22.569 48.5619C29.4785 48.6412 41.9066 48.1438 40.2704 38.5122C39.8539 36.1116 36.0905 37.1281 36.4996 39.5143C37.459 45.0366 27.4258 44.7771 23.8558 44.7843C20.8678 44.8492 17.8801 44.6464 14.9307 44.1787C13.168 43.8615 11.435 43.4578 9.65747 43.2703C8.60469 43.1671 7.54478 43.1502 6.48907 43.2199C5.82062 43.342 5.17415 43.5582 4.57017 43.8615C6.95762 43.1406 5.93871 39.4855 3.52894 40.2136H3.55123Z" fill="#DADAD9"/>
<path d="M43.2804 60.2702C38.8957 59.3447 35.2852 58.5965 30.763 58.5811C26.2864 58.4693 21.8203 59.0937 17.5221 60.4322C14.353 61.4657 1.79945 64.9906 5.32312 71.2303C6.8498 73.9376 10.8365 74.2307 13.4558 74.2692C17.3928 74.331 21.3301 74.1611 25.2496 73.7602C32.0509 73.0583 39.5035 71.0298 44.1197 65.2759C45.7043 63.3091 43.0271 60.4322 41.4353 62.4144C37.984 66.7105 32.7528 68.5076 27.6879 69.3561C25.4043 69.7093 23.1001 69.8897 20.7926 69.896C17.6885 69.9577 14.4471 70.5362 11.3864 70.0194C5.87302 69.0861 12.2185 66.78 14.2806 65.9238C17.1012 64.7029 20.0225 63.7656 23.0066 63.124C26.2264 62.4838 29.4534 62.6072 32.7094 62.615C36.1534 62.615 38.997 63.448 42.3253 64.1575C44.713 64.6666 45.7332 60.7639 43.331 60.2548L43.2804 60.2702Z" fill="#DADAD9"/>
<path d="M6.52709 147.134C8.27431 147.032 9.98965 146.6 11.5907 145.859C13.457 145.153 15.2075 145.51 17.1534 145.54C19.5984 145.586 19.6056 141.602 17.1534 141.557C15.3522 141.557 13.5944 141.208 11.8077 141.625C10.021 142.042 8.45123 143.143 6.54153 143.143C4.09654 143.143 4.08931 147.134 6.54153 147.126L6.52709 147.134Z" fill="#DADAD9"/>
<path d="M157.224 112.492C157.141 112.492 157.291 113.433 157.224 114.034C157.078 115.371 156.735 116.684 156.205 117.936C155.796 119 154.2 123.102 152.53 123.086C149.706 123.086 149.706 127.104 152.53 127.134C159.271 127.196 166.188 110.333 158.377 108.629C155.629 108.02 154.459 111.921 157.208 112.53L157.224 112.492Z" fill="#DADAD9"/>
<path d="M157.975 93.6187C165.374 93.7084 185.976 97.4622 186.123 86.0285C186.123 83.6962 182.298 83.6962 182.262 86.0285C182.173 93.3358 162.726 90.0582 157.99 90.003C155.503 90.003 155.503 93.598 157.99 93.6256L157.975 93.6187Z" fill="#DADAD9"/>
<path d="M203.778 75.3403C205.627 75.3403 207.548 75.5688 209.375 75.1781C210.751 74.8833 212.608 73.6083 214.027 73.9694C217.667 74.8907 218.315 80.2489 217.769 83.256C217.113 86.8159 215.81 89.6535 211.989 90.1915C208.779 90.6411 205.474 90.081 202.249 90.022C199.796 89.9778 199.788 93.8472 202.249 93.8915C206.675 93.9725 211.778 95.1002 215.949 93.0881C219.8 91.2381 221.234 86.639 221.707 82.6443C221.996 80.6509 221.788 78.6158 221.101 76.7247C220.415 74.8336 219.271 73.1465 217.776 71.8173C217.092 71.1821 216.287 70.6945 215.411 70.3841C214.535 70.0736 213.606 69.9469 212.68 70.0115C211.755 70.2096 210.854 70.5112 209.994 70.9107C207.81 71.6477 206.012 71.5003 203.778 71.4709C201.317 71.4709 201.317 75.3108 203.778 75.3403Z" fill="#DADAD9"/>
<path d="M158.98 76.9332V78.0116C158.98 80.6529 163.266 80.6607 163.266 78.0116V60.5464C163.266 57.9129 158.98 57.9051 158.98 60.5464V78.0116C158.98 80.6529 163.266 80.6607 163.266 78.0116V76.9332C163.266 74.2998 158.98 74.292 158.98 76.9332Z" fill="#DADAD9"/>
<path d="M174.692 70.9366V69.3063C174.704 69.0281 174.676 68.7493 174.61 68.4872C174.544 68.225 174.441 67.985 174.307 67.7819C174.174 67.5788 174.012 67.417 173.833 67.3064C173.654 67.1957 173.461 67.1387 173.266 67.1387C173.071 67.1387 172.878 67.1957 172.699 67.3064C172.52 67.417 172.359 67.5788 172.226 67.7819C172.092 67.985 171.989 68.225 171.923 68.4872C171.857 68.7493 171.829 69.0281 171.841 69.3063V70.9366C171.863 71.4554 172.023 71.9424 172.288 72.2984C172.553 72.6544 172.903 72.8526 173.266 72.8526C173.63 72.8526 173.98 72.6544 174.245 72.2984C174.51 71.9424 174.67 71.4554 174.692 70.9366Z" fill="#DADAD9"/>
<path d="M209.499 137.642C219.498 148.979 226.448 162.522 233.258 175.933C240.589 190.405 249.702 203.963 256.879 218.487C264.056 233.011 269.474 248.539 275.624 263.572C281.005 276.731 284.422 290.127 287.897 303.921C289.091 309.061 290.624 314.115 292.486 319.05C293.952 322.628 295.711 326.884 299.516 328.403C301.818 329.325 302.823 325.578 300.543 324.671C297.302 323.38 295.719 316.955 294.751 314.041C293.373 309.896 292.325 305.654 291.24 301.42C289.605 295.084 288.116 288.703 286.423 282.389C284.348 274.651 281.291 267.268 278.242 259.876C272.45 245.861 267.406 231.403 260.786 217.72C253.807 203.307 244.768 189.992 237.474 175.733C230.179 161.475 222.9 147.017 212.226 134.898C210.576 133.031 207.827 135.783 209.499 137.642Z" fill="#DADAD9"/>
<path d="M149.529 243.253C151.122 244.81 151.144 247.563 151.35 249.665C151.577 252 152.04 254.297 152.238 256.631C152.752 262.467 152.018 268.311 151.93 274.147C151.834 280.132 152.723 286.118 153.23 292.104C153.479 295.044 153.428 298.022 153.825 300.955C154.265 304.3 155.095 307.539 155.124 310.936C155.124 313.465 159.009 313.473 158.98 310.936C158.98 307.614 158.245 304.487 157.731 301.209C157.217 297.753 157.283 294.184 156.997 290.735C156.351 283.829 155.646 277.132 155.961 270.181C156.321 263.914 156.131 257.627 155.396 251.394C154.933 247.653 155.154 243.343 152.297 240.545C150.505 238.787 147.774 241.562 149.565 243.321L149.529 243.253Z" fill="#DADAD9"/>
<path d="M93.5768 268.54C92.1893 275.996 84.1816 279.988 78.8161 284.493C76.1296 286.764 74.0705 289.54 71.6793 292.089C68.7788 295.194 65.5757 295.868 61.5681 296.725C54.8668 298.19 47.7742 300.805 43.0286 305.888C37.9214 311.367 33.6998 318.509 34.9102 326.199C35.0007 326.521 35.1732 326.814 35.411 327.05C35.6489 327.286 35.9442 327.457 36.2682 327.547C46.1653 330.975 51.1544 318.509 55.1989 312.041C56.1952 310.459 54.173 308.32 52.5493 309.411C47.6783 312.686 43.1541 316.216 40.8219 321.746C39.4934 324.888 37.3458 330.594 40.6817 333.253C44.3719 336.183 49.1396 332.191 52.0179 330.067C54.4313 328.28 57.354 327.437 59.7452 325.672C62.3579 323.716 63.9446 320.721 65.6938 318.054C66.9042 316.209 64.2177 314.194 62.6457 315.725C58.4905 319.878 47.5085 330.279 53.4054 336.644C56.9849 340.512 61.5239 338.183 64.3875 334.857C66.3285 332.587 67.9227 330.074 70.1072 327.994C72.6535 325.57 75.7016 323.848 78.7792 322.134L76.4322 319.117C73.2513 322.046 70.063 324.757 67.7972 328.463C66.0923 331.261 64.107 334.498 64.9262 337.89C66.9558 345.947 75.0447 338.014 77.9009 335.253C81.5588 331.631 85.6951 328.519 90.1966 326.002C95.23 323.27 100.529 322.398 105.902 320.581C115.888 317.212 125.512 311.287 133.446 304.409C137.756 300.68 141.667 296.513 145.904 292.689C149.35 289.591 153.004 286.288 154.576 281.834C155.402 279.49 151.624 278.487 150.841 280.809C149.21 285.438 144.435 288.793 140.907 291.971C137.106 295.399 133.689 299.223 129.733 302.497C120.572 310.093 109.838 315.595 98.2929 318.611C88.8017 321.116 80.7719 326.866 73.9377 333.7C73.052 334.579 70.7198 337.545 69.3618 337.421C67.347 337.245 69.3618 333.524 69.8416 332.66C72.1442 328.214 75.517 325.137 79.1777 321.783C80.8235 320.274 78.7201 317.725 76.8308 318.765C73.1406 320.779 69.5758 322.925 66.6385 325.936C64.8081 327.804 60.3356 336 57.044 334.579C51.5087 332.169 63.3394 320.398 65.3764 318.369L62.3505 316.099C61.1475 317.93 60.0847 320.003 58.5348 321.578C56.7857 323.357 54.6084 323.995 52.4755 325.152C50.1433 326.427 47.0509 330.279 44.298 330.279C41.1466 330.323 44.025 323.856 44.8147 322.222C46.9033 317.996 50.719 315.271 54.5125 312.7L51.8629 310.071C48.8665 314.868 44.7187 326.375 37.3015 323.804L38.6595 325.152C37.4122 317.146 44.4457 308.012 51.2061 304.416C54.5285 302.706 58.058 301.426 61.7084 300.607C65 299.831 68.2548 299.531 71.1552 297.619C73.6941 295.941 75.4802 293.495 77.4581 291.246C79.9189 288.585 82.6382 286.171 85.5765 284.039C90.5509 280.245 96.0861 276.026 97.2965 269.536C97.7467 267.119 94.0123 266.079 93.5547 268.511L93.5768 268.54Z" fill="#DADAD9"/>
<path d="M129.101 311.918C138.862 311.874 148.586 311.12 158.302 312.391C167.871 313.639 177.477 314.702 187.038 316.039C196.378 317.346 205.599 319.421 214.961 320.551C219.398 321.09 223.738 320.986 228.153 321.289C232.856 321.585 237.478 322.633 242.203 322.951C261.06 324.243 279.916 325.75 298.729 327.323C316.202 328.799 333.728 330.616 351.231 331.318C358.722 331.613 368.757 331.68 371.138 322.855C372.506 317.767 371.522 312.139 370.864 307.029C369.637 297.488 368.695 287.917 368.039 278.317C366.62 258.57 366.198 238.772 366.065 218.981C365.991 208.856 365.924 198.732 366.065 188.614C366.256 184.387 366.177 180.152 365.828 175.935C365.288 171.135 364.164 166.512 364.209 161.653C364.298 151.262 362.604 141.093 362.597 130.674C362.597 119.399 362.597 108.125 362.597 96.8512C362.597 85.9119 362.597 74.9702 362.597 64.026C362.597 59.6394 362.73 55.3267 363.033 50.9475C363.314 46.812 363.477 42.6249 362.294 38.615C362.169 38.2125 361.922 37.8588 361.587 37.6033C361.251 37.3478 360.844 37.2032 360.423 37.1897C340.457 34.8266 320.602 31.6585 300.829 28.04C281.602 24.5322 261.991 24.4214 242.846 20.7364C233.477 18.9346 224.204 16.6305 214.746 15.2569C205.133 13.8612 195.446 12.7757 185.826 11.2027C166.777 8.07895 147.75 5.58289 128.502 4.06162C117.683 3.20499 106.835 2.33359 95.9649 1.75758C90.4484 1.46219 84.9319 1.41049 79.4081 1.4031C73.8842 1.39572 68.7892 0.398778 63.3911 0C63.0519 0.000596039 62.7187 0.0894528 62.4243 0.257795C62.13 0.426138 61.8846 0.66817 61.7125 0.960034C59.1613 4.85181 59.3092 9.2162 59.494 13.6914C59.7233 19.7026 59.5902 25.7433 59.5828 31.7619C59.5828 44.4489 59.5828 57.136 59.5828 69.823C59.5828 82.2811 59.6567 94.717 59.9451 107.168C60.0708 112.765 58.8951 117.809 58.163 123.289C57.8933 125.223 57.8709 127.183 58.0964 129.123C58.2959 130.251 58.2541 131.409 57.9737 132.52C57.6933 133.631 57.1807 134.67 56.4696 135.57C55.0646 137.637 58.4218 139.58 59.8194 137.527C62.1783 134.056 62.1266 131.766 61.8234 127.816C61.4389 122.705 63.4798 117.669 63.783 112.573C64.1231 106.666 63.4798 100.758 63.465 94.85C63.465 88.4695 63.465 82.0817 63.465 75.6939C63.465 62.9773 63.465 50.2607 63.465 37.5442C63.465 31.2597 63.465 24.9901 63.465 18.6835C63.465 13.5954 62.1414 7.38478 65.0845 2.89484L63.4132 3.85485C67.9166 4.18717 72.2278 5.25796 76.7681 5.26534C81.7744 5.26534 86.7732 5.26534 91.7721 5.42042C101.385 5.77489 110.998 6.63153 120.612 7.3257C140.703 8.80266 160.639 10.9442 180.509 14.2231C189.848 15.7591 199.195 17.2878 208.609 18.3512C218.414 19.4515 227.998 21.6521 237.648 23.6313C256.556 27.5083 275.879 27.5304 294.854 30.861C316.639 34.6863 338.394 38.4451 360.371 41.0446L358.493 39.6193C360.652 46.7604 358.685 55.2381 358.685 62.6007C358.685 72.0532 358.685 81.5032 358.685 90.9508C358.685 100.507 358.685 110.065 358.685 119.626C358.685 128.702 358.227 137.911 359.424 146.95C360.548 155.523 359.994 164.067 361.428 172.604C363.026 182.101 362.094 191.997 362.101 201.604C362.101 220.435 362.234 239.267 363.011 258.098C363.41 267.698 363.987 277.35 364.823 286.95C365.562 295.686 366.967 304.371 367.684 313.107C367.98 316.674 368.564 321.821 365.939 324.745C363.314 327.67 358.323 327.5 354.795 327.507C338.423 327.507 321.852 325.351 305.546 323.999C287.599 322.522 269.66 320.972 251.705 319.701C242.011 319.022 232.39 317.582 222.696 317.309C211.988 316.999 201.503 314.281 190.943 312.723C180.383 311.165 169.69 310.035 159.072 308.632C149.089 307.302 139.106 308.011 129.101 308.056C126.609 308.056 126.601 311.94 129.101 311.933V311.918Z" fill="#DADAD9"/>
<path d="M49.1665 226.154C49.1665 239.22 49.2298 252.255 49.5254 265.32C49.6802 272.08 49.3988 278.556 47.6887 285.108C47.0624 287.507 46.2812 289.913 46.1968 292.416C46.1546 294.771 47.1398 297.712 45.2749 299.547C43.5367 301.255 46.1546 304.004 47.8928 302.303C51.4114 298.841 49.4621 293.152 50.574 288.71C52.1855 282.248 53.2481 276.239 53.2692 269.51C53.3255 255.07 52.8611 240.609 52.8611 226.154C52.8611 223.644 49.1665 223.644 49.1665 226.154Z" fill="#DADAD9"/>
<path d="M65.1221 42.596C68.9767 42.7264 72.663 43.8074 76.481 44.2368C80.4058 44.5685 84.3119 45.1111 88.1837 45.8622C96.0099 47.6102 104.026 48.0703 111.962 49.09C119.898 50.1097 127.673 51.6814 135.484 53.4218C142.645 55.0165 149.886 53.9201 157.127 53.8511C159.599 53.8511 159.599 49.7953 157.127 49.826C149.491 49.9027 142.162 50.8764 134.636 49.0593C127.147 47.3252 119.579 45.9869 111.962 45.0495C103.69 44.0298 95.4247 43.2631 87.2255 41.4997C83.8756 40.7713 80.5111 40.641 77.1247 40.273C73.0872 39.8359 69.2034 38.7396 65.1221 38.5709C62.6572 38.4789 62.6572 42.504 65.1221 42.596Z" fill="#DADAD9"/>
<path d="M203.708 63.9177C217.628 63.9177 231.311 64.6603 244.942 67.6676C258.307 70.6378 271.776 73.1327 285.267 75.4124C291.683 76.4965 298.129 76.4445 304.583 77.046C311.169 77.6623 317.704 78.6573 324.305 79.1697C330.544 79.6523 336.732 80.781 342.971 81.1226C344.878 81.2265 354.406 81.724 355.153 83.9368L356.513 81.5384L355.116 81.8874C352.691 82.4888 353.719 86.2461 356.144 85.6447L357.541 85.2957C358.035 85.1568 358.455 84.828 358.709 84.3805C358.964 83.933 359.033 83.4028 358.901 82.9047C357.711 79.3776 353.327 78.7687 350.156 78.1895C344.981 77.239 339.725 76.9866 334.47 76.2514C320.195 74.254 305.692 73.6377 291.351 72.3308C283.729 71.6328 276.093 69.8878 268.568 68.4918C261.249 67.133 253.946 65.6776 246.679 64.0365C232.464 60.8733 218.241 60.0119 203.708 59.9971C201.209 59.9971 201.209 63.888 203.708 63.8954V63.9177Z" fill="#DADAD9"/>
<path d="M85.9629 17.3695C81.0022 17.3695 77.3461 18.8897 77.5661 24.5223C77.7557 29.638 81.8062 33.8491 87.1538 32.6481C91.0678 31.7739 95.801 27.1676 96.112 23.0476C96.4761 18.1828 90.0438 15.2487 85.9629 15.7732C83.4598 16.0925 83.4295 20.0908 85.9629 19.7639C87.8213 19.5283 92.0311 20.3796 92.1146 22.8044C92.1753 24.8948 88.7847 27.7605 87.0931 28.4978C84.2487 29.7368 81.8669 27.7757 81.5559 24.9252C81.1691 21.3906 83.073 21.3754 85.9629 21.3906C88.5268 21.3906 88.5343 17.4075 85.9629 17.3999V17.3695Z" fill="#DADAD9"/>
<path d="M113.006 18.6964C108.947 18.0106 105.166 20.1747 103.751 24.5104C102.488 28.366 103.751 32.6712 107.182 34.5457C111.025 36.6488 117.072 36.0316 119.395 31.6578C122.548 25.7295 117.805 20.6243 113.006 18.704C110.795 17.8049 109.84 21.6682 112.037 22.5597C114.701 23.6341 118.949 27.3297 115.524 30.5377C113.766 32.1988 110.056 32.1226 108.214 30.6139C104.769 27.7945 108.263 21.9272 112.009 22.5597C114.31 22.9483 115.308 19.0927 112.978 18.704L113.006 18.6964Z" fill="#DADAD9"/>
<path d="M134.978 21.5881C130.605 20.6544 127.27 23.9261 126.375 28.0859C125.436 32.4962 127.127 36.8002 131.635 38.1135C136.143 39.4267 141.695 37.9617 143.025 32.9593C144.43 27.7139 139.426 23.9868 135.512 21.7854C133.258 20.5557 131.289 23.9944 133.521 25.2317C135.602 26.3855 139.276 28.3136 139.366 31.1071C139.479 34.3863 135.609 34.9025 133.212 34.3939C130.816 33.8853 129.824 32.0559 130.155 29.6041C130.418 27.6684 131.657 24.9281 133.994 25.4291C136.466 25.9604 137.525 22.1194 135.038 21.5881H134.978Z" fill="#DADAD9"/>
<path d="M73.5811 294.208L72.6954 293.856L70.0009 296.538C74.5794 299.916 78.5573 304.193 83.5636 306.979C87.8569 309.369 92.7055 310.477 97.359 311.938C102.245 313.436 106.771 315.091 111.935 315.361C114.727 315.503 118.037 315.945 120.799 315.496C122.976 315.144 124.86 313.638 127.097 313.848C129.618 314.08 129.603 310.103 127.097 309.915C125.025 309.721 123.726 310.44 121.843 311.121C119.291 312.043 116.589 311.541 113.917 311.474C108.325 311.331 103.679 309.781 98.4099 308.14C93.6963 306.642 88.7801 305.586 84.5244 302.972C80.021 300.185 76.2681 296.283 71.9974 293.144C70.4437 292.006 68.1395 294.283 69.3028 295.833C69.7633 296.548 70.3983 297.134 71.148 297.536C71.8977 297.938 72.7375 298.144 73.5886 298.133C76.118 298.253 76.118 294.32 73.5886 294.201L73.5811 294.208Z" fill="#DADAD9"/>
<path d="M361.627 135.196C360.898 131.364 359.048 127.799 357.984 124.1C357.075 120.843 355.837 117.69 354.29 114.691C351.187 108.825 348.192 102.856 342.772 98.8316C342.407 98.6145 341.981 98.5265 341.562 98.5813C341.143 98.6362 340.753 98.8309 340.455 99.1348C337.788 102.175 334.422 104.905 332.521 108.566C330.619 112.228 330.226 116.318 328.652 120.024C325.097 128.39 320.74 136.409 317.265 144.805C315.538 148.984 315.866 153.681 313.665 157.631C311.513 161.294 309.673 165.138 308.165 169.119C305.09 177.633 302.897 186.436 300.238 195.09C298.826 199.856 297.147 204.536 295.211 209.108C293.47 213.102 290.839 216.823 290.009 221.165C289.28 225.019 288.508 228.939 287.918 232.816C287.437 236.019 287.24 239.606 288.442 242.676C290.475 247.854 295.816 250.073 300.828 251.138C303.509 251.73 306.227 252.055 308.93 252.507C313.512 253.246 317.971 254.681 322.583 255.295C329.869 256.264 337.417 255.569 344.746 255.295C347.783 255.152 350.825 255.172 353.86 255.355C355.175 255.402 356.481 255.587 357.758 255.909C358.698 256.176 359.434 256.375 359.412 256.693C359.208 259.179 363.055 259.171 363.237 256.693C363.849 249.097 345.679 251.36 341.657 251.515C333.854 251.863 325.854 252.211 318.197 250.487C311.8 249.052 304.93 248.549 298.693 246.515C296.143 245.687 293.513 244.348 292.246 241.818C290.344 238.031 291.699 233.215 292.552 229.339C293.521 224.945 293.688 220.884 295.728 216.764C297.736 212.811 299.521 208.746 301.076 204.588C304.187 196.096 306.38 187.308 309.017 178.698C310.27 174.578 311.618 170.487 313.214 166.493C314.809 162.499 317.971 159.096 318.904 154.717C319.37 152.498 319.399 150.279 320.062 148.111C320.946 145.589 322.023 143.14 323.282 140.788C325.57 136.106 327.654 131.371 329.84 126.63C331.715 122.546 333.293 118.328 334.561 114.01C336.076 108.832 339.734 105.748 343.165 101.835L340.848 102.138C345.883 105.837 348.637 112.065 351.471 117.509C352.993 120.468 353.817 123.553 354.764 126.696C355.711 129.84 357.35 132.873 357.969 136.187C358.421 138.643 362.108 137.6 361.656 135.159L361.627 135.196Z" fill="#DADAD9"/>
<path d="M313.002 209.58C311.153 211.213 308.404 211.582 307.008 213.754C305.612 215.925 305.978 218.925 307.22 220.986C309.932 225.477 317.504 226.836 322.014 224.731C327.225 222.301 329.52 214.736 325.478 210.186C321.605 205.835 314.822 207.379 309.757 207.467C307.294 207.512 307.286 211.39 309.757 211.345C312.973 211.286 316.335 210.607 319.536 211.272C320.595 211.471 321.565 212.004 322.307 212.793C323.049 213.582 323.525 214.588 323.669 215.667C323.812 216.746 323.615 217.843 323.105 218.802C322.595 219.761 321.799 220.533 320.83 221.008C318.089 222.53 312.293 221.909 310.531 219.028C308.229 215.253 313.601 214.182 315.714 212.328C317.577 210.681 314.858 207.947 313.002 209.58Z" fill="#DADAD9"/>
<path d="M346.967 160.67C343.774 164.992 340.254 170.307 342.577 176.052C344.468 180.707 349.807 180.774 353.588 178.624C357.788 176.237 360.181 170.67 358.34 165.904C356.06 159.973 350.458 160.033 345.317 160.099C342.924 160.099 342.917 164.021 345.317 163.991C348.199 163.954 351.776 163.287 353.935 165.785C356.336 168.557 355.182 172.775 352.462 174.777C350.104 176.511 346.309 177.052 345.707 173.376C345.07 169.454 347.463 166.311 349.602 163.42C351.018 161.463 348.433 158.691 346.967 160.67Z" fill="#DADAD9"/>
<path d="M348.969 254.705V300.973C348.969 303.459 353.254 303.459 353.254 300.973V254.705C353.254 252.219 348.969 252.219 348.969 254.705Z" fill="#DADAD9"/>
<path d="M321.758 139.106C319.461 130.451 309.002 134.848 306.776 141.212C305.706 144.286 305.799 148.26 308.039 150.735C309.199 151.977 310.744 152.713 312.377 152.803C313.283 152.88 314.324 152.933 315.024 152.219C315.865 151.358 316.379 149.744 317.071 148.714C318.498 146.608 315.238 144.594 313.839 146.684C313.178 147.656 312.591 148.685 312.084 149.759L313.704 148.76C309.773 148.998 309.038 144.917 310.665 141.688C311.885 139.267 317.085 136.116 318.134 140.151C318.798 142.649 322.415 141.588 321.744 139.083L321.758 139.106Z" fill="#DADAD9"/>
<path d="M335.835 79.0441C335.835 80.9816 336.074 82.9191 336.17 84.8566C336.252 86.5227 336.744 89.3045 335.992 90.8877C334.65 93.6921 327.341 90.6012 324.517 91.1967C320.94 91.9506 319.078 94.8682 321.477 98.0571C323.876 101.246 328.287 100.409 330.977 102.92L331.372 99.8137C326.603 102.965 320.456 107.729 322.036 114.251C322.155 114.666 322.404 115.032 322.745 115.294C323.085 115.556 323.5 115.7 323.928 115.706C324.755 115.72 325.576 115.559 326.337 115.232C327.099 114.904 327.783 114.418 328.347 113.806C329.554 112.554 330.306 109.953 332.072 109.441C334.487 108.725 333.458 104.917 331.029 105.619C328.049 106.493 326.618 111.725 323.943 111.748L325.828 113.203C324.77 108.868 330.299 105.234 333.361 103.229C333.616 103.073 333.833 102.862 333.996 102.609C334.159 102.357 334.263 102.071 334.301 101.772C334.339 101.474 334.31 101.17 334.215 100.884C334.121 100.599 333.964 100.338 333.756 100.123C331.178 97.7179 324.889 97.9591 324.07 94.2349C323.906 94.8832 323.735 95.5241 323.571 96.1649C327.244 92.0788 334.859 99.1126 338.764 94.1294C341.692 90.3976 339.807 83.4016 339.725 79.0516C339.672 76.5035 335.761 76.4959 335.813 79.0516L335.835 79.0441Z" fill="#DADAD9"/>
<path d="M335.069 85.582C337.154 88.19 337.215 92.1199 340.081 94.1563C342.734 96.0641 347.276 94.1563 349.27 96.2999L348.959 94.0277C347.784 95.9712 345.972 97.6004 346.351 100.03C346.61 101.281 347.142 102.468 347.913 103.517C348.671 104.631 351.036 106.118 350.558 107.611L353.485 106.489C352.491 105.891 351.621 105.128 350.915 104.238C349.323 102.352 346.525 105.017 348.102 106.889C349.047 108.015 350.188 108.981 351.476 109.747C351.74 109.888 352.035 109.971 352.339 109.989C352.642 110.007 352.945 109.96 353.227 109.853C353.508 109.745 353.76 109.578 353.963 109.366C354.167 109.153 354.317 108.9 354.402 108.626C355.077 106.482 354.501 104.96 353.007 103.331C352.098 102.345 350.468 101.187 350.361 99.7582C350.255 98.3292 351.726 97.0359 352.393 95.9283C352.605 95.5677 352.689 95.1529 352.633 94.7443C352.577 94.3356 352.384 93.9544 352.082 93.6561C350.164 91.5483 347.897 91.6412 345.168 91.6269C342.636 91.6269 341.711 90.3836 340.854 88.2043C340.323 86.5814 339.533 85.0442 338.511 83.6456C336.995 81.7449 333.53 83.6098 335.069 85.5391V85.582Z" fill="#DADAD9"/>
<path d="M317.997 152.446C322.08 152.186 325.314 155.307 329.323 155.663C333.205 156.004 336.931 154.144 339.971 151.919C346.945 146.804 350.284 138.627 356.878 133.223C358.823 131.629 356.044 128.886 354.114 130.465C348.227 135.291 345.172 142.534 339.36 147.457C336.156 150.192 332.11 152.698 327.773 151.349C324.375 150.296 321.707 148.324 317.997 148.554C315.493 148.709 315.478 152.602 317.997 152.446Z" fill="#DADAD9"/>
<path d="M310.427 174.42L309.42 173.377L306.686 176.101C309.141 178.495 310.81 181.6 313.118 184.178C315.632 186.96 318.322 189.574 320.858 192.342C325.012 196.879 330.414 199.31 336.016 201.571C341.36 203.722 347.123 207.804 353.122 207.034C356.738 206.564 361.759 205.007 363.185 201.307C363.318 200.814 363.252 200.289 363 199.845C362.748 199.401 362.331 199.074 361.84 198.935L360.45 198.59C358.032 197.995 357.01 201.711 359.421 202.305L360.818 202.65L359.465 200.279C358.848 201.879 355.055 202.746 353.585 203.047C350.968 203.59 348.615 202.981 346.234 201.887C341.669 199.78 336.942 198.017 332.399 195.881C327.371 193.509 324.24 190.132 320.432 186.211C318.432 184.163 316.337 182.18 314.551 179.963C312.765 177.746 311.449 175.374 309.405 173.407C307.619 171.674 304.943 174.346 306.671 176.131L307.685 177.173C309.413 178.965 312.14 176.233 310.413 174.449L310.427 174.42Z" fill="#DADAD9"/>
<path d="M338.22 253.255C338.22 259.576 337.666 265.883 337.553 272.204C337.439 278.525 338.364 284.556 339.167 290.826C339.682 294.924 338.409 301.66 341.274 305.045C343.662 307.85 348.042 307.022 351.332 306.971C353.894 306.927 353.901 303.113 351.332 303.156C349.636 303.298 347.932 303.334 346.231 303.265C343.336 302.931 343.752 300.228 343.654 297.983C343.449 293.086 342.585 288.392 341.986 283.546C340.728 273.497 342.138 263.325 342.199 253.255C342.199 250.799 338.235 250.799 338.22 253.255Z" fill="#DADAD9"/>
<path d="M327.955 305.493C334.839 305.405 341.135 305.317 347.932 306.55C349.881 306.937 351.869 307.08 353.852 306.976C354.577 306.925 359.373 306.161 359.547 307.16C359.982 309.597 363.649 308.562 363.221 306.132C362.402 301.521 355.823 303.136 352.714 303.195C348.939 303.283 345.215 301.881 341.447 301.573C336.962 301.198 332.447 301.573 327.955 301.624C325.506 301.624 325.498 305.508 327.955 305.478V305.493Z" fill="#DADAD9"/>
<path d="M325.656 307.501C325.531 313.284 322.409 321.988 328.058 326.591C330.092 328.252 333.196 325.629 331.163 323.968C326.911 320.489 329.949 311.948 330.05 307.487C330.108 305.097 325.715 305.097 325.656 307.487V307.501Z" fill="#DADAD9"/>
</svg>
