<svg width="212" height="230" viewBox="0 0 212 230" fill="none" xmlns="http://www.w3.org/2000/svg">
<path d="M114.346 166.615C119.156 153.74 129.584 150.611 139.865 142.662C149.692 135.056 155.817 123.176 158.501 111.281C164.332 85.4192 145.869 63.2874 122.2 55.8321C99.799 48.7751 72.901 58.9481 63.6352 81.0974C58.7102 92.8708 57.9537 104.957 60.8352 117.345C64.1924 131.768 74.4183 139.568 70.6299 155.522C60.081 160.484 59.1934 175.472 58.9115 186.226C58.667 195.374 73.0098 204.805 80.4717 207.26C89.9371 210.351 107.548 207.509 111.725 197.149C114.219 190.906 122.515 172.715 114.346 166.615ZM95.6805 142.554C96.7786 138.584 101.085 130.734 98.8952 126.807C94.9548 119.743 88.8184 110.212 96.4585 103.024C101.52 98.2603 106.733 104.267 108.432 108.786C108.359 108.842 108.276 108.895 108.204 108.947C104.788 111.523 98.5865 120.168 105.289 122.604C112.26 125.161 112.054 113.21 111.325 109.814C111.322 109.797 111.317 109.781 111.31 109.766C113.705 108.215 116.468 107.328 119.318 107.195C127.74 106.998 125.714 117.896 122.095 121.766C119.455 124.449 116.144 126.374 112.507 127.342C105.945 129.054 104.433 133.041 102.081 139.123C98.7978 147.789 95.9695 156.62 93.6076 165.581C92.1805 165.219 90.7432 164.826 89.3395 164.398C91.5681 157.142 93.6541 149.844 95.6734 142.528L95.6805 142.554ZM109.152 111.299C109.896 114.781 110.129 119.923 106.254 120.256C102.268 120.602 107.842 112.375 109.072 111.363C109.092 111.329 109.116 111.299 109.145 111.273L109.152 111.299ZM87.9622 170.131C92.8747 171.637 104.842 175.318 110.795 171.889C111.371 172.64 111.616 173.792 111.604 175.207C104.246 178.622 73.4324 170.832 69.3073 165.061C69.984 163.904 70.8504 162.869 71.8703 161.998C75.2863 166.47 83.6532 168.788 87.9551 170.105L87.9622 170.131ZM88.96 176.784C93.149 177.838 104.235 180.88 111.153 179.202C110.988 180.036 110.792 180.88 110.572 181.741C105.391 187.144 65.8432 176.942 66.8017 170.854C67.0579 170.019 67.3395 169.214 67.6463 168.438C72.8022 173.289 84.7639 175.703 88.944 176.755L88.96 176.784ZM108.175 189.286C102.265 193.598 69.6234 185.52 65.2361 179.555C65.3154 178.273 65.4611 176.996 65.6727 175.729C70.8782 180.574 82.7414 182.98 86.8954 184.005C91.0494 185.031 102.251 188.124 109.164 186.411C108.814 187.423 108.47 188.398 108.155 189.271L108.175 189.286ZM66.8892 189.593C66.0191 187.967 65.4931 186.18 65.344 184.343C71.1016 188.277 81.0985 190.326 84.8474 191.27C88.8895 192.283 99.4791 195.193 106.422 193.835C105.811 195.181 104.947 196.396 103.876 197.413C96.0433 199.009 75.7185 194.298 66.8796 189.542L66.8892 189.593ZM120.525 61.8173C150.498 69.215 160.63 101.528 145.834 126.634C135.522 144.133 114.605 145.964 107.96 166.336C106.861 167.867 101.793 167.472 96.0254 166.181C97.831 159.561 99.8342 153.002 102.035 146.504C103.125 143.308 104.299 140.14 105.555 137.001C107.333 132.551 109.251 130.762 113.871 129.553C121.743 127.497 129.911 119.819 127.398 111.202C125.009 103.009 116.523 104.112 110.573 107.431C108.029 100.936 101.458 96.2943 94.7545 101.266C87.4457 106.676 90.4164 119.224 94.9151 125.22C98.5472 130.066 94.045 139.232 92.6114 144.434C90.8381 150.884 88.9619 157.301 86.9825 163.686C80.9981 161.703 76.1713 159.404 76.396 158.088C81.6898 138.034 67.2703 126.06 65.3024 106.981C62.0007 74.976 90.9397 54.4959 120.515 61.7664L120.525 61.8173ZM72.6882 195.804C76.7848 197.116 80.7332 197.968 82.7988 198.487C85.4926 199.165 91.0154 200.656 96.459 201.205C91.7334 202.38 86.3648 202.159 82.1724 201.354C78.8307 200.67 75.5531 198.354 72.6786 195.753L72.6882 195.804Z" fill="#DADAD9"/>
<path d="M122.112 67.07C111.674 59.7773 97.5675 63.2242 87.4041 69.1665C76.0735 75.7973 68.0055 87.4578 69.1404 100.812C69.1793 101.251 69.8401 101.415 69.953 100.932C72.4808 89.9981 78.9606 80.3841 88.147 73.9379C98.304 66.8826 109.702 66.419 121.402 68.6387C121.603 68.6966 121.818 68.6803 122.007 68.5926C122.197 68.505 122.349 68.3519 122.435 68.1615C122.522 67.971 122.536 67.7559 122.477 67.5554C122.417 67.355 122.288 67.1827 122.112 67.07Z" fill="#DADAD9"/>
<path d="M128.075 71.1787C128.268 71.1782 128.457 71.1276 128.625 71.0319C128.792 70.9361 128.932 70.7986 129.031 70.6327C129.129 70.4667 129.183 70.278 129.187 70.0851C129.19 69.8921 129.144 69.7016 129.052 69.5319C128.176 68.1285 126.331 67.9174 124.947 68.7417C124.891 68.7763 124.85 68.8307 124.832 68.8942C124.813 68.9576 124.82 69.0255 124.85 69.0845C125.454 70.2614 126.724 71.2426 128.075 71.1787Z" fill="#DADAD9"/>
<path d="M132.705 133.415C142.123 129.421 149.569 116.646 148.09 106.451C148.045 106.12 147.562 106.161 147.478 106.44C144.293 116.88 139.146 124.352 132.02 132.489C131.923 132.588 131.864 132.718 131.855 132.857C131.845 132.995 131.885 133.132 131.968 133.244C132.05 133.355 132.17 133.434 132.305 133.465C132.44 133.496 132.582 133.478 132.705 133.415Z" fill="#DADAD9"/>
<path d="M105.22 45.9811C104.81 41.7806 104.238 37.731 102.593 33.8149C102.241 32.9694 100.767 33.1473 100.604 34.0439C99.9518 37.9771 99.8856 41.9851 100.407 45.9377C100.784 48.9458 105.524 49.0935 105.22 45.9811Z" fill="#DADAD9"/>
<path d="M165.926 98.1357C170.122 97.725 174.168 97.1511 178.087 95.5121C178.929 95.1547 178.751 93.6802 177.858 93.5228C173.924 92.8704 169.915 92.8056 165.963 93.3306C162.956 93.7037 162.809 98.4391 165.926 98.1357Z" fill="#DADAD9"/>
<path d="M53.0618 106.682C48.8658 107.093 44.815 107.67 40.9 109.31C40.0546 109.662 40.2369 111.137 41.129 111.299C45.062 111.953 49.0704 112.02 53.0229 111.496C56.0297 111.123 56.1774 106.383 53.0618 106.682Z" fill="#DADAD9"/>
<path d="M146.35 59.5097C149.038 56.2416 151.507 52.9688 153.122 49.0255C153.472 48.1629 152.298 47.2667 151.549 47.7854C148.16 50.2429 145.154 53.1897 142.63 56.5296C140.96 58.6676 144.63 61.6002 146.35 59.5097Z" fill="#DADAD9"/>
<path d="M155.376 135.551C153.239 133.876 150.307 137.546 152.396 139.27C155.66 141.957 158.934 144.421 162.873 146.035C163.735 146.386 164.636 145.213 164.117 144.464C161.66 141.078 158.714 138.074 155.376 135.551Z" fill="#DADAD9"/>
<path d="M63.6106 69.2669C65.7461 70.9459 68.6786 67.2756 66.5894 65.552C63.327 62.8604 60.0485 60.395 56.1084 58.7858C55.2458 58.435 54.3496 59.6094 54.8683 60.358C57.3265 63.743 60.2726 66.7452 63.6106 69.2669Z" fill="#DADAD9"/>
<path d="M127.342 47.9951C129.669 40.0878 131.778 32.1669 132.977 23.997C133.133 22.9206 131.545 21.9214 131.012 23.1409C127.716 30.7905 124.946 38.6563 122.721 46.6832C121.885 49.645 126.475 50.948 127.342 47.9951Z" fill="#DADAD9"/>
<path d="M188.78 123.933C181.13 120.638 173.264 117.867 165.238 115.639C162.256 114.792 160.956 119.387 163.927 120.26C171.834 122.586 179.755 124.695 187.925 125.894C189.001 126.05 189.998 124.471 188.78 123.933Z" fill="#DADAD9"/>
<path d="M55.0591 84.5575C47.1518 82.2309 39.2309 80.1218 31.061 78.9233C29.9846 78.7669 28.9854 80.3546 30.2106 80.8852C37.8591 84.1799 45.7228 86.9507 53.7472 89.1786C56.735 90.0075 58.0298 85.4297 55.0591 84.5575Z" fill="#DADAD9"/>
<path d="M159.813 76.7671C163.853 75.5855 167.868 72.5929 171.404 70.3882C174.94 68.1834 178.455 65.8858 181.785 63.3916C182.638 62.7582 181.754 61.1795 180.768 61.5682C176.89 63.0941 173.001 64.7127 169.249 66.558C165.497 68.4034 160.809 70.0742 157.64 72.8835C155.951 74.4247 157.631 77.4032 159.813 76.7671Z" fill="#DADAD9"/>
<path d="M59.1737 128.05C55.134 129.231 51.1235 132.225 47.584 134.424C44.0444 136.623 40.533 138.926 37.2063 141.426C36.353 142.06 37.2374 143.638 38.2233 143.25C42.1009 141.724 45.9904 140.105 49.7422 138.26C53.4941 136.415 58.1825 134.744 61.3473 131.933C63.0356 130.392 61.3593 127.4 59.1737 128.05Z" fill="#DADAD9"/>
<path d="M145.338 162.185C143.467 158.421 141.82 153.749 139.012 150.575C137.492 148.864 134.507 150.552 135.148 152.731C136.334 156.772 139.324 160.781 141.523 164.32C143.722 167.86 146.03 171.373 148.525 174.698C149.159 175.551 150.737 174.667 150.349 173.681C148.809 169.8 147.191 165.91 145.338 162.185Z" fill="#DADAD9"/>
<path d="M73.6501 42.6323C75.5221 46.3917 77.1663 51.0726 79.9768 54.2374C81.4984 55.9442 84.4756 54.2686 83.8394 52.0867C82.6623 48.0484 79.6608 44.0308 77.4649 40.497C75.2691 36.9632 72.9626 33.4461 70.4684 30.1161C69.8338 29.2673 68.2562 30.1472 68.6438 31.1375C70.1842 35.0145 71.7971 38.9072 73.6501 42.6323Z" fill="#DADAD9"/>
</svg>
