<svg width="218" height="219" viewBox="0 0 218 219" fill="none" xmlns="http://www.w3.org/2000/svg">
<path d="M24.6963 168.659H24.6974C24.7617 168.662 24.6712 168.672 24.6963 168.659Z" fill="black"/>
<path d="M115.579 46.6765C124.92 43.8969 133.885 43.7484 139.395 54.2216C146.148 67.0559 153.482 80.1986 159.82 93.4771C166.081 106.593 176.042 123.276 175.927 133.69C175.807 144.538 162.449 153.529 152.96 158.065C136.607 165.883 119.646 175.966 102.321 181.242C85.6458 186.32 79.7173 176.957 70.8352 164.961C64.9927 157.071 60.539 148.136 56.1913 139.37C49.4811 125.84 43.0709 112.042 39.326 97.411C38.6651 94.8292 38.0878 92.1145 38.706 89.5207C40.9075 80.2839 53.2781 75.7638 60.6588 71.8176C77.0636 63.0464 93.7598 54.5427 111.245 48.1196C112.691 47.5956 114.139 47.1048 115.579 46.6765Z" fill="#E6E6E6"/>
<path d="M103.089 178.633C98.5332 180.055 93.7741 180.999 89.258 179.607C87.3521 179.021 85.2962 177.849 83.7757 176.608C81.8545 175.038 80.1727 173.195 78.5989 171.283C74.5601 166.393 70.8811 161.216 67.5906 155.795C63.6705 149.297 60.3276 142.463 56.9808 135.657C53.5582 128.694 50.2456 121.665 47.3886 114.447C45.9781 110.884 44.674 107.275 43.5179 103.621C42.9294 101.763 42.3815 99.8927 41.874 98.0115C41.3804 96.1758 40.8261 94.2984 40.7065 92.3924C40.4047 87.5555 43.6755 83.9012 47.4038 81.1848C46.3692 85.8869 47.7683 91.2288 49.4027 95.6557C52.459 103.93 56.0298 112.05 59.7979 120.021C63.587 128.033 67.6817 135.891 72.082 143.594C76.3988 151.151 80.9244 158.667 85.9302 165.791C90.0173 171.604 95.6421 177.986 103.089 178.633Z" fill="#999999"/>
<path d="M138.368 77.9102C138.132 79.5978 136.98 80.6495 135.588 81.4562C133.694 82.5554 131.789 83.6387 129.874 84.7062C119.878 90.3044 109.765 95.6905 99.5354 100.865C94.6909 103.317 89.8198 105.724 84.8823 107.985C81.5697 109.504 78.2096 111.068 74.7129 112.127C74.208 112.279 73.6992 112.403 73.1848 112.517C73.1264 112.527 73.0692 112.543 73.0139 112.564H73.012C72.9672 112.56 72.9222 112.559 72.8773 112.56C72.7482 112.56 72.5716 112.57 72.4729 112.562C69.261 112.3 66.7172 109.466 65.0884 106.949C63.1465 103.951 61.5557 100.455 60.6673 96.9959C60.2155 95.2343 59.8111 92.924 60.6141 91.1985C61.1779 89.9873 62.389 89.1786 63.4787 88.4857C65.1169 87.4417 66.8292 86.5172 68.4826 85.494C68.7403 85.3443 68.9301 85.1008 69.0123 84.8144C85.429 76.4314 102.052 68.4705 118.881 60.9316C120.92 60.0204 123.01 58.8416 125.178 58.2815C127.346 57.7234 128.728 59.075 129.96 60.6734C132.58 64.0752 134.766 67.8472 136.53 71.7577C137.335 73.5441 138.647 75.8923 138.368 77.9102Z" fill="#00FF00"/>
<path d="M94.0157 185.794C89.3196 185.794 84.9301 184.382 81.3218 181.713C76.8256 178.386 73.4985 173.877 70.281 169.517L70.0477 169.2C65.5072 163.061 61.4534 156.576 57.9233 149.805C54.1814 142.64 50.6267 135.39 47.3577 128.256C43.4331 119.692 40.5786 112.474 38.3743 105.542L38.1652 104.886C36.9808 101.171 35.7562 97.33 35.3607 93.395C35.0175 89.981 35.9588 86.4471 38.0112 83.4444C41.3659 78.5363 46.664 75.3775 51.8898 72.6951C56.24 70.4621 60.6531 68.1721 64.9209 65.9575C66.4829 65.147 68.0452 64.3367 69.6079 63.5266C77.9083 59.2256 84.9285 55.8014 91.7007 52.7505C99.4034 49.2804 106.957 45.9727 114.685 43.6442L114.753 43.6242C117.917 42.6925 120.728 42.1497 123.342 41.9664C123.86 41.9301 124.382 41.9117 124.895 41.9117C130.761 41.9117 135.886 44.2261 139.326 48.4286C141.297 50.8366 142.718 53.6095 144.092 56.2913C144.462 57.0127 144.845 57.7587 145.228 58.4779C146.122 60.154 147.018 61.8293 147.915 63.5037C148.988 65.5089 150.06 67.5149 151.13 69.5215C154.644 76.1187 158.753 83.9442 162.594 91.9647C164.059 95.025 165.626 98.1062 167.141 101.086C168.714 104.18 170.34 107.379 171.863 110.573C174.879 116.899 177.468 122.637 178.601 128.797C179.215 132.144 179.221 134.905 178.617 137.486C177.977 140.223 176.634 142.954 174.626 145.604C171.207 150.115 166.405 154.148 159.947 157.932C157.635 159.287 155.213 160.467 152.871 161.609C152.418 161.83 151.966 162.051 151.513 162.273C147.894 164.05 144.322 165.878 140.867 167.646L140.387 167.891C133.464 171.434 126.304 175.097 119.046 178.281C114.914 180.094 111.223 181.566 107.762 182.781C104.59 183.894 100.881 185.122 97.0007 185.607C96.0105 185.73 95.0136 185.793 94.0157 185.794ZM116.441 49.7182C112.828 50.8057 109.333 52.1723 105.773 53.5943C90.9528 59.5142 76.6473 66.8705 63.3957 73.9382C61.7957 74.7916 60.1477 75.6083 58.554 76.3981C55.4339 77.9443 52.2076 79.5432 49.2711 81.4579C43.8787 84.9741 41.3791 88.6325 41.6293 92.6421C41.7293 94.2443 42.1772 95.8937 42.6105 97.4888L42.759 98.038C43.2475 99.8544 43.7957 101.725 44.3886 103.599C45.4901 107.08 46.7476 110.597 48.2332 114.35C51.2529 121.979 54.7581 129.311 57.7887 135.476L57.9933 135.892C61.2098 142.437 64.5361 149.204 68.3515 155.528C71.6125 160.903 75.2596 166.035 79.2639 170.882C81.0927 173.104 82.6869 174.745 84.2809 176.047C85.7643 177.259 87.7174 178.329 89.3781 178.841C90.8074 179.273 92.2941 179.486 93.7874 179.472C97.6901 179.472 101.672 178.207 105.416 176.911C116.429 173.1 127.007 167.669 137.237 162.417C140.476 160.754 143.825 159.035 147.14 157.391L148.288 156.823C153.441 154.275 158.309 151.868 162.772 148.478C168.046 144.472 171.169 140.577 172.322 136.57C172.975 134.304 172.757 131.901 172.46 130.284C172.037 127.978 171.306 125.486 170.16 122.443C167.997 116.695 165.145 111.089 162.388 105.669L161.821 104.554C160.229 101.421 158.656 98.2175 157.135 95.1194C155.53 91.8496 153.87 88.4686 152.188 85.1722C149.023 78.9676 145.678 72.7185 142.444 66.6752L140.919 63.8249C140.367 62.7923 139.827 61.7247 139.305 60.6922C138.124 58.3574 136.903 55.9431 135.469 53.7896C134.083 51.7089 132.287 50.1284 130.274 49.2189C128.799 48.5523 127.079 48.2282 125.016 48.2282C124.682 48.2282 124.335 48.237 123.983 48.2542C121.244 48.3883 118.514 49.1069 116.441 49.7182Z" fill="black"/>
<path d="M116.116 48.6265C118.69 47.8672 121.287 47.2459 123.927 47.1166C126.316 46.9997 128.662 47.2404 130.744 48.181C133.094 49.2432 134.993 51.0197 136.417 53.1584C138.53 56.333 140.127 59.9267 141.923 63.288C145.721 70.3904 149.543 77.4804 153.203 84.6547C156.482 91.0823 159.568 97.6051 162.836 104.038C165.832 109.934 168.894 115.844 171.226 122.042C172.209 124.653 173.075 127.33 173.58 130.078C173.977 132.235 174.056 134.663 173.417 136.885C171.933 142.042 167.636 146.213 163.461 149.385C158.57 153.101 153.12 155.698 147.646 158.412C133.859 165.247 120.377 172.939 105.788 177.988C100.381 179.859 94.5314 181.62 89.0427 179.929C87.1377 179.342 85.0814 178.171 83.5603 176.929C81.6393 175.36 79.9576 173.517 78.3845 171.605C74.3454 166.715 70.6664 161.539 67.3762 156.116C63.4555 149.618 60.112 142.785 56.7665 135.978C53.3436 129.015 50.0309 121.987 47.1741 114.769C45.7633 111.205 44.4591 107.597 43.3026 103.942C42.7148 102.085 42.167 100.215 41.6591 98.3338C41.1652 96.4972 40.6116 94.6196 40.4925 92.713C40.1517 87.2527 44.3613 83.2997 48.6489 80.5039C53.1496 77.5691 58.129 75.4565 62.8597 72.9333C76.7212 65.5402 90.7488 58.3692 105.351 52.5367C108.894 51.1212 112.46 49.7269 116.116 48.6265C118.602 47.8782 117.543 43.9737 115.041 44.7267C107.214 47.0827 99.6116 50.4358 92.1685 53.789C84.7156 57.1466 77.389 60.7776 70.132 64.538C64.2249 67.5988 58.328 70.6706 52.4099 73.7084C47.3856 76.2874 42.2042 79.3283 38.9515 84.0871C37.1113 86.7796 36.1662 90.0197 36.4939 93.2811C36.9006 97.3268 38.2324 101.338 39.4597 105.197C41.9149 112.918 45.0202 120.421 48.3932 127.782C51.7153 135.032 55.2285 142.197 58.9328 149.277C62.4383 155.995 66.4609 162.43 70.9642 168.524C74.2314 172.95 77.5342 177.494 81.9992 180.797C86.306 183.984 91.5791 185.135 96.8597 184.476C100.486 184.024 103.948 182.912 107.385 181.706C111.18 180.374 114.907 178.854 118.589 177.238C125.981 173.996 133.165 170.307 140.348 166.632C143.893 164.818 147.437 163.006 151.011 161.251C153.829 159.867 156.66 158.538 159.371 156.949C164.759 153.792 169.922 149.925 173.719 144.916C175.445 142.639 176.854 140.025 177.508 137.227C178.147 134.494 177.984 131.742 177.48 129.003C176.33 122.743 173.556 116.769 170.835 111.063C167.852 104.808 164.559 98.7065 161.566 92.4566C157.945 84.8931 154.066 77.4579 150.125 70.0569C148.163 66.373 146.196 62.6919 144.223 59.0138C142.436 55.663 140.864 52.1057 138.444 49.1501C134.742 44.6274 129.156 42.7006 123.422 43.1027C120.574 43.3023 117.774 43.9206 115.041 44.7267C112.55 45.4614 113.611 49.3656 116.116 48.6265Z" fill="black"/>
<path d="M72.6079 115.909C68.803 115.909 65.6572 112.991 64.4814 111.737C61.7947 108.87 60.119 105.343 58.8341 102.271C57.6401 99.4154 55.1556 93.4743 57.6184 89.0122C58.5013 87.4125 59.9625 86.3096 61.2754 85.4419C62.3234 84.7492 63.4145 84.1156 64.4698 83.503C64.8352 83.2909 65.2 83.0779 65.5642 82.8642C65.7825 82.4114 66.1455 82.0443 66.5958 81.8211C68.8645 80.661 71.1173 79.5185 73.2915 78.4251C82.0763 74.0078 91.0449 69.6509 99.9481 65.4755C104.462 63.3587 109.05 61.2453 113.587 59.1941C115.861 58.1657 118.167 57.133 120.439 56.1247C120.637 56.0365 120.838 55.9457 121.039 55.8544C122.613 55.1416 124.396 54.3339 126.307 54.3339C126.799 54.3332 127.289 54.3887 127.769 54.4995C130.03 55.0262 131.555 56.6901 132.865 58.4096C134.264 60.2482 135.551 62.1684 136.721 64.1599C137.865 66.104 138.897 68.1119 139.812 70.1736C139.911 70.3972 140.013 70.6233 140.116 70.8518C140.966 72.7364 141.93 74.8724 141.965 77.1027C142.002 79.4108 140.854 81.7792 138.97 83.2836C138.19 83.9067 137.326 84.3815 136.491 84.8407C136.242 84.9777 135.994 85.1139 135.751 85.253C133.758 86.3942 131.603 87.6067 129.162 88.9597C117.515 95.4167 106.742 101.081 96.2279 106.278C91.7281 108.502 86.8837 110.849 81.948 112.946C80.3404 113.629 78.4663 114.411 76.5698 115.049L76.5448 115.057C75.4095 115.439 74.1226 115.872 72.7935 115.907C72.7315 115.908 72.6698 115.909 72.6079 115.909ZM69.8897 85.4175C69.6922 85.7536 69.4143 86.0353 69.0809 86.2374C68.3205 86.7084 67.541 87.1628 66.7872 87.6022C65.8928 88.1236 64.968 88.6627 64.0897 89.2221C63.0373 89.8924 62.0584 90.5675 61.6456 91.4548C60.8941 93.0696 61.5539 95.6428 61.7707 96.4884C62.5973 99.7116 64.1146 103.127 66.0433 106.105C67.4672 108.304 69.7545 110.973 72.5652 111.201L72.5804 111.201C72.6214 111.201 72.6668 111.2 72.7116 111.199C72.766 111.198 72.8197 111.196 72.8679 111.196C72.8899 111.191 72.913 111.186 72.9375 111.18C73.338 111.091 73.864 110.969 74.3824 110.812C77.6683 109.816 80.8985 108.335 84.0223 106.903L84.408 106.726C88.661 104.777 93.1679 102.587 99.0213 99.6245C109.247 94.449 119.44 89.02 129.317 83.488C131.496 82.2675 133.307 81.2373 135.017 80.2461C136.404 79.4423 137.089 78.6042 137.238 77.5285C137.431 76.1368 136.567 74.2993 135.872 72.823C135.738 72.5388 135.609 72.2638 135.491 72.0007C133.684 67.993 131.519 64.3405 129.057 61.1445C128.097 59.8982 127.234 59.0683 126.142 59.0683C125.912 59.0703 125.684 59.1013 125.462 59.1605C123.982 59.5415 122.479 60.2627 121.024 60.96C120.475 61.2236 119.906 61.4962 119.346 61.747C102.792 69.1597 86.1543 77.1227 69.8897 85.4175Z" fill="black"/>
<path d="M68.339 84.9306C84.9749 76.4242 101.822 68.3499 118.881 60.7076C120.919 59.7949 123.009 58.6163 125.178 58.0576C127.344 57.4994 128.727 58.85 129.96 60.4496C132.579 63.85 134.766 67.6235 136.529 71.5327C137.335 73.3197 138.646 75.6671 138.366 77.6851C138.132 79.3733 136.979 80.4255 135.588 81.2317C133.692 82.3307 131.788 83.4141 129.874 84.4819C119.878 90.0804 109.765 95.4667 99.5357 100.641C94.6906 103.093 89.8196 105.499 84.8825 107.762C81.5692 109.28 78.2082 110.843 74.7127 111.902C74.2073 112.056 73.6991 112.178 73.1842 112.292C72.7373 112.392 73.3211 112.334 72.8774 112.335C72.7485 112.336 72.5711 112.345 72.473 112.337C69.2613 112.076 66.7167 109.241 65.0872 106.724C63.1466 103.728 61.5542 100.23 60.6674 96.7714C60.2158 95.0104 59.8103 92.6991 60.6129 90.9743C61.1765 89.7633 62.3894 88.9548 63.4778 88.2615C65.1168 87.2177 66.8293 86.2925 68.4812 85.2692C69.8063 84.4485 68.5892 82.3485 67.2566 83.1739C65.4876 84.2696 63.6396 85.2446 61.9034 86.3922C60.6376 87.2288 59.3625 88.2093 58.6156 89.5627C56.5631 93.2815 58.3906 98.258 59.8849 101.831C61.2502 105.096 62.8705 108.353 65.3123 110.958C67.1506 112.919 69.9486 114.841 72.7638 114.768C73.9305 114.738 75.1118 114.338 76.2064 113.97C78.0034 113.365 79.7586 112.638 81.5026 111.897C86.3174 109.852 91.0345 107.574 95.7233 105.257C106.825 99.7698 117.779 93.968 128.61 87.9636C130.809 86.7443 133.001 85.5113 135.185 84.2646C136.214 83.6755 137.331 83.1349 138.259 82.3936C139.815 81.1515 140.858 79.1278 140.827 77.121C140.791 74.8746 139.664 72.6507 138.771 70.6354C137.874 68.6133 136.862 66.6441 135.74 64.7377C134.593 62.785 133.331 60.9024 131.96 59.1001C130.806 57.5866 129.445 56.0595 127.51 55.6089C125.191 55.0687 122.956 56.2535 120.901 57.1658C118.616 58.18 116.334 59.2021 114.056 60.2321C109.5 62.2921 104.959 64.3837 100.432 66.5068C91.497 70.697 82.6209 75.009 73.8032 79.4428C71.5697 80.5659 69.34 81.6968 67.1143 82.8353C65.7236 83.5465 66.9499 85.6408 68.339 84.9306Z" fill="black"/>
<path d="M106.039 164.723C105.278 164.725 104.518 164.673 103.765 164.567C96.7831 163.568 93.3318 157.107 90.5585 151.915C90.4067 151.631 90.2559 151.35 90.1061 151.071L89.7657 150.439C88.8458 148.732 87.8945 146.967 86.9739 145.219C84.7711 141.039 82.8129 136.825 81.353 133.621C81.1638 133.205 80.97 132.792 80.7763 132.378C80.2045 131.157 79.6132 129.894 79.1349 128.581C78.4733 126.765 77.9479 124.831 78.578 122.992C79.0673 121.564 80.1612 120.408 81.9225 119.458C82.8414 118.963 83.7885 118.505 84.7045 118.062C85.3584 117.746 86.0347 117.419 86.6846 117.086C91.0485 114.848 94.9254 112.913 98.5367 111.17C107.346 106.919 115.321 103.125 122.915 99.5706C124.778 98.6991 126.627 97.6982 128.415 96.7304C130.143 95.7945 131.931 94.8269 133.753 93.9624C135.97 92.9102 138.606 91.8346 141.344 91.8346C142.344 91.8299 143.338 91.9871 144.287 92.3002C147.542 93.3886 149.607 96.1062 150.877 98.0555C152.694 100.844 154.235 103.854 155.725 106.766C156.025 107.35 156.324 107.933 156.623 108.514C157.384 109.985 158.133 111.488 158.857 112.941C159.918 115.069 161.014 117.27 162.159 119.39C164.039 122.872 165.723 126.318 165.683 130.204C165.615 136.948 160.585 142.737 150.734 147.411C147.969 148.723 145.117 149.954 142.358 151.145C141.118 151.681 139.836 152.235 138.582 152.787L126.04 158.31C125.118 158.716 124.178 159.144 123.269 159.557C120.476 160.829 117.588 162.143 114.607 163.115C111.243 164.212 108.521 164.723 106.039 164.723ZM141.172 96.574C140.518 96.5798 139.868 96.6729 139.239 96.8508C136.666 97.5555 134.231 98.9371 131.876 100.273C131.122 100.701 130.341 101.144 129.564 101.561C127.039 102.914 124.397 104.122 121.842 105.291C120.715 105.807 119.55 106.34 118.417 106.875C110.969 110.395 103.267 114.035 95.7405 117.745C94.2467 118.481 92.7378 119.264 91.2785 120.021C89.3221 121.035 87.299 122.085 85.2643 123.048C85.1401 123.107 85.0093 123.166 84.8741 123.228C84.1699 123.548 83.2935 123.947 83.0538 124.444C82.7456 125.082 83.3587 126.571 83.6881 127.371C83.7419 127.501 83.7932 127.626 83.8401 127.743C85.2163 131.184 86.9071 134.661 88.5209 137.928C90.2224 141.372 92.0804 144.82 93.8772 148.154L94.2077 148.767C94.382 149.091 94.5556 149.416 94.7286 149.74C95.2623 150.74 95.8143 151.774 96.3833 152.767C97.6471 154.972 99.1863 157.442 101.466 158.843C102.742 159.626 104.231 160.008 106.018 160.008C107.114 159.996 108.207 159.878 109.281 159.656C112.703 158.989 115.918 157.644 118.917 156.323L142.157 146.089C142.762 145.822 143.369 145.558 143.978 145.295C146.889 144.034 149.899 142.728 152.615 141.062C156.207 138.857 158.504 136.71 159.843 134.303C161.259 131.756 161.284 128.777 159.916 125.448C159.088 123.434 158.014 121.439 156.975 119.509C156.354 118.355 155.712 117.162 155.123 115.967C153.407 112.487 151.551 108.902 149.606 105.311C149.407 104.943 149.21 104.571 149.01 104.196C147.861 102.029 146.672 99.7889 144.988 98.1506C143.913 97.1044 142.629 96.574 141.172 96.574Z" fill="black"/>
<path d="M93.2045 149.307C91.2631 145.703 89.3128 142.103 87.4997 138.433C85.8416 135.076 84.1737 131.644 82.7827 128.167C82.3271 127.028 81.4398 125.167 82.0282 123.949C82.5084 122.954 83.8458 122.459 84.777 122.019C88.309 120.347 91.7321 118.451 95.237 116.723C102.76 113.016 110.347 109.429 117.93 105.845C121.627 104.098 125.422 102.488 129.026 100.557C132.244 98.8326 135.383 96.7264 138.938 95.7525C141.481 95.0561 143.869 95.4729 145.782 97.3345C147.896 99.3903 149.222 102.21 150.608 104.769C152.52 108.299 154.365 111.864 156.145 115.463C157.714 118.646 159.62 121.734 160.969 125.016C162.308 128.271 162.596 131.696 160.838 134.857C159.124 137.937 156.166 140.22 153.211 142.033C149.862 144.088 146.201 145.553 142.616 147.132C138.742 148.837 134.869 150.543 130.996 152.249C127.123 153.955 123.249 155.66 119.376 157.366C116.165 158.78 112.961 160.1 109.499 160.775C106.572 161.345 103.492 161.425 100.87 159.813C98.4204 158.308 96.7938 155.774 95.3951 153.334C94.6351 152.008 93.9281 150.652 93.2045 149.307C92.4648 147.931 90.3691 149.155 91.1093 150.531C94.0063 155.919 97.1648 162.472 103.926 163.439C107.373 163.932 110.987 163.098 114.254 162.033C118.14 160.765 121.845 158.913 125.581 157.268C129.761 155.427 133.942 153.586 138.123 151.745C142.163 149.966 146.258 148.274 150.246 146.382C156.662 143.338 164.464 138.139 164.544 130.192C164.582 126.502 162.866 123.098 161.157 119.932C159.22 116.345 157.484 112.658 155.612 109.037C153.811 105.556 152.065 101.966 149.923 98.6776C148.44 96.4019 146.576 94.2668 143.926 93.3807C140.659 92.288 137.193 93.5911 134.241 94.9917C130.562 96.7377 127.092 98.8736 123.398 100.603C115.251 104.415 107.129 108.28 99.0317 112.197C95.0611 114.113 91.1186 116.08 87.2043 118.1C85.6354 118.904 84.014 119.625 82.463 120.461C81.2548 121.113 80.1151 122.02 79.6555 123.361C79.1194 124.926 79.6624 126.702 80.2051 128.191C80.824 129.89 81.6411 131.506 82.3895 133.149C84.1651 137.046 85.9841 140.898 87.9815 144.689C89.0113 146.643 90.0615 148.587 91.1093 150.531C91.8503 151.907 93.946 150.683 93.2045 149.307Z" fill="black"/>
<path d="M114.296 161.592C113.898 161.593 113.507 161.488 113.163 161.289C112.819 161.09 112.534 160.803 112.338 160.457C110.568 157.499 108.801 154.459 107.083 151.421C101.71 141.918 95.564 130.593 90.7271 118.652C90.5859 118.329 90.5276 117.976 90.5572 117.625C90.5868 117.274 90.7035 116.935 90.8968 116.641C91.3157 116.019 92.0834 115.633 92.9005 115.633C93.3895 115.625 93.8693 115.766 94.2761 116.037C94.683 116.309 94.9977 116.697 95.1783 117.152C96.2135 119.708 97.4326 122.472 98.9052 125.602C103.692 135.778 109.411 146.396 116.388 158.063C116.603 158.403 116.722 158.796 116.731 159.198C116.74 159.6 116.639 159.998 116.44 160.347C116.222 160.723 115.909 161.036 115.533 161.254C115.157 161.472 114.731 161.589 114.296 161.592H114.296Z" fill="black"/>
<path d="M91.7828 118.224C96.3456 129.489 102.099 140.292 108.075 150.861C109.785 153.885 111.532 156.889 113.315 159.872C114.116 161.211 116.215 159.992 115.41 158.648C109.087 148.073 103.121 137.239 97.8746 126.087C96.5551 123.282 95.2864 120.453 94.1226 117.579C93.5439 116.151 91.1958 116.775 91.7828 118.224Z" fill="black"/>
<path d="M152.476 143.941C152.079 143.942 151.688 143.838 151.345 143.639C151.001 143.44 150.715 143.154 150.518 142.81C142.244 129.059 134.22 114.907 126.669 100.745C126.472 100.393 126.372 99.9953 126.38 99.592C126.387 99.1888 126.501 98.7946 126.71 98.4497C126.93 98.0864 127.239 97.7849 127.608 97.5736C127.977 97.3622 128.393 97.2479 128.818 97.2413C129.224 97.2429 129.621 97.3565 129.966 97.5696C130.311 97.7826 130.591 98.0869 130.774 98.4488C138.309 112.578 146.313 126.696 154.565 140.411C154.781 140.75 154.901 141.142 154.911 141.544C154.921 141.947 154.821 142.344 154.622 142.694C154.404 143.071 154.091 143.384 153.715 143.603C153.338 143.821 152.911 143.938 152.476 143.941L152.476 143.941Z" fill="black"/>
<path d="M127.674 100.209C135.25 114.417 143.19 128.421 151.494 142.223C152.298 143.559 154.397 142.341 153.589 140.998C145.288 127.201 137.348 113.197 129.769 98.9845C129.034 97.6061 126.939 98.8304 127.674 100.209Z" fill="black"/>
<path d="M132.789 154.447C132.381 154.446 131.981 154.329 131.635 154.111C131.29 153.892 131.013 153.581 130.837 153.212C128.96 149.528 127.023 145.793 125.15 142.181C119.629 131.535 113.921 120.528 109.003 109.344C108.836 108.976 108.766 108.572 108.799 108.169C108.831 107.767 108.965 107.379 109.188 107.043C109.41 106.696 109.714 106.409 110.073 106.208C110.432 106.007 110.835 105.897 111.246 105.889C112.097 105.889 112.821 106.38 113.183 107.202C118.071 118.317 123.761 129.29 129.264 139.901C131.141 143.519 133.081 147.26 134.962 150.954C135.151 151.31 135.243 151.71 135.23 152.113C135.216 152.517 135.097 152.909 134.885 153.252C134.663 153.611 134.355 153.908 133.989 154.117C133.623 154.326 133.211 154.439 132.79 154.447L132.789 154.447Z" fill="black"/>
<path d="M110.045 108.885C116.616 123.827 124.45 138.16 131.852 152.695C132.56 154.087 134.655 152.86 133.947 151.47C126.545 136.935 118.711 122.602 112.141 107.661C111.513 106.234 109.422 107.468 110.045 108.885Z" fill="black"/>
<path d="M136.067 113.655C135.661 113.658 135.262 113.554 134.909 113.352C134.557 113.151 134.264 112.86 134.06 112.509C133.897 112.218 133.795 111.897 133.76 111.565C133.726 111.233 133.76 110.898 133.86 110.58C133.945 110.29 134.09 110.021 134.285 109.79C134.481 109.56 134.723 109.373 134.996 109.243C139.446 107.157 143.867 104.869 148.136 102.442C148.49 102.236 148.891 102.126 149.3 102.124C150.355 102.124 151.29 102.875 151.575 103.951C151.712 104.438 151.679 104.958 151.481 105.425C151.283 105.891 150.933 106.276 150.487 106.517C146.164 108.975 141.689 111.291 137.187 113.401C136.837 113.566 136.455 113.653 136.067 113.655Z" fill="black"/>
<path d="M136.704 112.37C141.199 110.263 145.606 107.983 149.924 105.527C151.281 104.755 150.06 102.658 148.699 103.432C144.384 105.886 139.977 108.167 135.479 110.274C134.886 110.552 134.734 111.405 135.044 111.934C135.399 112.542 136.108 112.649 136.704 112.37Z" fill="black"/>
<path d="M86.5696 139.302C85.4589 139.302 84.4653 138.492 84.2069 137.375C83.9695 136.349 84.4397 135.381 85.405 134.909L134.556 110.87C134.886 110.706 135.249 110.62 135.617 110.619C136.728 110.619 137.722 111.429 137.98 112.545C138.217 113.571 137.747 114.54 136.782 115.011L87.6306 139.05C87.301 139.215 86.938 139.301 86.5698 139.302H86.5696Z" fill="black"/>
<path d="M87.1301 138.027C99.8998 131.782 112.67 125.536 125.439 119.291C129.053 117.523 132.667 115.756 136.281 113.988C137.684 113.302 136.456 111.209 135.057 111.893C122.287 118.138 109.517 124.384 96.7476 130.629C93.1335 132.397 89.5194 134.164 85.9054 135.932C84.5027 136.618 85.7313 138.711 87.1301 138.027Z" fill="black"/>
<path d="M94.7503 155.895C93.6582 155.895 92.674 155.096 92.4101 153.994C92.1641 152.967 92.6237 151.989 93.5812 151.502C97.3385 149.591 101.091 147.711 104.734 145.915C117.701 139.52 131.043 133.298 144.391 127.423C144.701 127.284 145.037 127.212 145.377 127.211C146.518 127.211 147.559 128.068 147.798 129.204C148.014 130.228 147.517 131.169 146.533 131.603C142.705 133.288 138.882 134.998 135.172 136.686C122.046 142.657 108.812 149.03 95.8385 155.628C95.5023 155.802 95.1294 155.894 94.7506 155.895H94.7503Z" fill="black"/>
<path d="M95.3223 154.612C108.31 148.008 121.436 141.686 134.701 135.649C138.481 133.929 142.273 132.233 146.074 130.56C147.501 129.932 146.267 127.841 144.85 128.465C131.514 134.335 118.31 140.492 105.238 146.936C101.513 148.773 97.7995 150.633 94.0976 152.517C92.7053 153.225 93.9319 155.319 95.3223 154.612Z" fill="black"/>
<path d="M142.099 125.061C141.012 125.061 140.03 124.265 139.764 123.167C139.516 122.14 139.973 121.159 140.928 120.668L155.022 113.423C155.36 113.246 155.736 113.152 156.118 113.151C157.205 113.151 158.187 113.947 158.452 115.045C158.701 116.072 158.244 117.053 157.288 117.544L143.194 124.789C142.856 124.967 142.48 125.06 142.099 125.061Z" fill="black"/>
<path d="M142.673 123.777C147.371 121.362 152.07 118.947 156.768 116.532C158.157 115.817 156.931 113.723 155.543 114.436C150.845 116.851 146.147 119.266 141.449 121.681C140.059 122.395 141.285 124.49 142.673 123.777Z" fill="black"/>
<path d="M104.119 180.149C95.2186 180.149 88.8215 172.511 84.784 166.767C80.4501 160.6 76.1614 153.727 70.8784 144.48C66.4857 136.792 62.339 128.835 58.5535 120.829C54.1874 111.595 50.8722 103.824 48.1202 96.3727C44.5493 86.7044 44.9347 79.7296 49.2985 75.0498C49.5054 74.8197 49.7579 74.6351 50.04 74.5078C50.3221 74.3805 50.6275 74.3132 50.937 74.3101C51.8581 74.3101 52.7372 74.9084 53.1245 75.7988C53.3079 76.2158 53.3636 76.6777 53.2846 77.1263C53.2055 77.5749 52.9952 77.99 52.6803 78.3191C50.6659 80.4795 49.9722 83.6608 50.6187 87.7745C51.2143 91.566 52.6823 95.252 54.1018 98.8167L54.2585 99.2101C60.5133 114.9 67.9254 130.103 76.4335 144.694C80.4243 151.54 84.7231 158.773 89.5342 165.335C92.715 169.673 97.6994 175.441 104.233 175.441C104.439 175.441 104.647 175.435 104.854 175.424C104.902 175.421 104.949 175.42 104.996 175.42C106.251 175.42 107.187 176.353 107.222 177.638C107.259 178.984 106.294 180.053 104.978 180.125C104.693 180.141 104.404 180.149 104.119 180.149Z" fill="black"/>
<path d="M50.1315 75.8267C44.9756 81.356 46.8373 89.6117 49.1887 95.9782C52.2445 104.252 55.8143 112.371 59.5832 120.342C63.3718 128.354 67.4665 136.212 71.8673 143.915C76.1847 151.472 80.7091 158.988 85.7159 166.112C90.167 172.445 96.4432 179.452 104.916 178.988C106.469 178.903 106.479 176.476 104.916 176.561C97.8457 176.948 92.4679 171.263 88.6157 166.009C83.7885 159.425 79.5574 152.315 75.4496 145.267C66.9098 130.629 59.4728 115.375 53.2002 99.6314C51.6905 95.8374 50.1309 92.009 49.4935 87.9515C48.9214 84.3105 49.2255 80.3542 51.8473 77.5425C52.9114 76.4013 51.1992 74.6816 50.1315 75.8267Z" fill="black"/>
<path d="M60.042 103.048C59.7881 103.051 59.5374 102.992 59.3117 102.875C59.086 102.759 58.8922 102.589 58.7472 102.381C58.6118 102.181 58.5282 101.951 58.5038 101.711C58.4794 101.47 58.515 101.228 58.6075 101.005C61.1084 94.6757 64.1461 88.5722 67.6874 82.7609C67.8221 82.5361 68.0126 82.3499 68.2406 82.2206C68.4685 82.0913 68.7261 82.0233 68.9882 82.0232C69.2683 82.0252 69.5431 82.1005 69.785 82.2417C70.027 82.3829 70.2277 82.5851 70.3672 82.828C70.499 83.0624 70.5652 83.328 70.5588 83.5968C70.5524 83.8657 70.4735 84.1278 70.3305 84.3556C66.8896 89.9936 63.9373 95.9157 61.506 102.057C61.3905 102.351 61.1889 102.603 60.9276 102.779C60.6663 102.956 60.3577 103.05 60.0422 103.048H60.042Z" fill="black"/>
<path d="M60.4467 101.638C62.9007 95.4356 65.8821 89.455 69.3582 83.7621C69.63 83.3166 68.9308 82.9097 68.6598 83.3539C65.151 89.1088 62.1423 95.154 59.6667 101.423C59.4754 101.907 60.2573 102.117 60.4467 101.638Z" fill="black"/>
<path d="M64.0465 105.86C63.7934 105.862 63.5435 105.803 63.3184 105.688C63.0933 105.572 62.8997 105.403 62.7544 105.196C62.6185 104.997 62.534 104.768 62.5082 104.528C62.4825 104.289 62.5164 104.046 62.6068 103.823C63.3176 101.984 64.0485 100.162 64.7795 98.4079C67.3757 92.1766 70.2908 85.9902 73.4438 80.0205C73.5678 79.7764 73.7572 79.5715 73.9908 79.4286C74.2244 79.2857 74.4931 79.2105 74.7669 79.2112C75.0394 79.2129 75.3068 79.2845 75.5436 79.4192C75.7803 79.554 75.9785 79.7473 76.1191 79.9806C76.2562 80.2077 76.3318 80.4665 76.3384 80.7317C76.3449 80.9968 76.2822 81.2591 76.1565 81.4926C75.2616 83.1869 74.3905 84.8876 73.5674 86.5474C70.624 92.483 67.9136 98.644 65.5116 104.859C65.3981 105.155 65.1971 105.41 64.9354 105.588C64.6737 105.767 64.3636 105.862 64.0467 105.86H64.0465Z" fill="black"/>
<path d="M64.4492 104.449C66.8667 98.1935 69.566 92.0578 72.5471 86.0416C73.3924 84.3368 74.2599 82.6432 75.1494 80.9609C75.3923 80.5009 74.6944 80.0917 74.451 80.5526C71.3014 86.516 68.428 92.6138 65.8309 98.8462C65.0867 100.632 64.3661 102.428 63.6693 104.234C63.4815 104.72 64.2632 104.93 64.4492 104.449Z" fill="black"/>
<path d="M67.6375 109.686C67.3745 109.683 67.1165 109.615 66.8862 109.488C66.6559 109.361 66.4604 109.179 66.3169 108.959C66.174 108.741 66.0878 108.491 66.0661 108.231C66.0444 107.971 66.088 107.71 66.1928 107.472L78.7025 78.8319C78.8129 78.5671 78.9991 78.3408 79.2378 78.1816C79.4764 78.0225 79.7569 77.9374 80.0438 77.9373C80.3067 77.9409 80.5647 78.0091 80.795 78.136C81.0253 78.2629 81.2208 78.4445 81.3643 78.6649C81.5072 78.8827 81.5935 79.1329 81.6152 79.3925C81.6369 79.6522 81.5934 79.9132 81.4886 80.1518L68.9788 108.792C68.8685 109.056 68.6823 109.283 68.4436 109.442C68.2049 109.601 67.9244 109.686 67.6375 109.686Z" fill="black"/>
<path d="M67.9349 108.336C71.1902 100.883 74.4454 93.4308 77.7006 85.9784C78.6152 83.8842 79.5299 81.7902 80.4447 79.6961C80.651 79.2237 79.9543 78.8115 79.7462 79.2879C76.491 86.7403 73.2358 94.1928 69.9805 101.645C69.0659 103.739 68.1512 105.833 67.2365 107.928C67.0302 108.4 67.7268 108.812 67.9349 108.336Z" fill="black"/>
<path d="M125.728 85.7651C125.478 85.7612 125.233 85.7027 125.008 85.5937C124.784 85.4847 124.586 85.3279 124.428 85.1343C124.269 84.9376 124.152 84.7107 124.084 84.4672C124.015 84.2237 123.997 83.9689 124.03 83.7181C124.965 76.3796 126.382 69.1106 128.272 61.9582C128.473 61.199 129.105 60.6889 129.845 60.6889C130.11 60.6905 130.37 60.7551 130.604 60.8774C130.839 60.9997 131.041 61.1762 131.194 61.3922C131.346 61.6093 131.448 61.8574 131.493 62.1187C131.538 62.38 131.525 62.648 131.454 62.9036C129.595 69.9399 128.201 77.0909 127.281 84.3102C127.172 85.1667 126.533 85.7651 125.728 85.7651H125.728Z" fill="black"/>
<path d="M129.446 62.3092C127.57 69.4033 126.164 76.6134 125.238 83.8926C125.164 84.4714 125.998 84.722 126.073 84.1372C126.999 76.858 128.405 69.6478 130.281 62.5538C130.432 61.983 129.597 61.7394 129.446 62.3092Z" fill="black"/>
<path d="M130.707 83.0791C130.493 83.0811 130.281 83.0376 130.085 82.9515C129.889 82.8654 129.714 82.7388 129.571 82.5799C129.432 82.4224 129.33 82.2369 129.269 82.0361C129.209 81.8353 129.193 81.6239 129.221 81.4162C129.833 76.4262 130.829 71.4907 132.199 66.6536C132.288 66.3324 132.48 66.0494 132.745 65.8483C133.011 65.6471 133.335 65.5391 133.669 65.5409C133.912 65.5403 134.153 65.5959 134.371 65.7033C134.59 65.8108 134.781 65.9672 134.93 66.1605C135.071 66.3481 135.166 66.5662 135.208 66.7972C135.25 67.0282 135.237 67.2658 135.17 67.491C133.847 72.1444 132.884 76.8928 132.291 81.6941C132.245 82.08 132.058 82.4352 131.765 82.691C131.473 82.9468 131.096 83.0851 130.707 83.0791H130.707Z" fill="black"/>
<path d="M133.295 66.9648C131.939 71.7451 130.955 76.6231 130.352 81.5552C130.288 82.0706 131.098 82.066 131.161 81.5552C131.76 76.6955 132.734 71.8894 134.075 67.1798C134.217 66.6783 133.437 66.4642 133.295 66.9648Z" fill="black"/>
<path d="M135.039 82.4874C134.802 82.4866 134.569 82.4337 134.355 82.3324C134.141 82.2311 133.952 82.0839 133.802 81.9012C133.657 81.7229 133.555 81.5145 133.501 81.2913C133.447 81.0681 133.444 80.8357 133.492 80.6111L135.49 70.9658C135.557 70.6269 135.739 70.3219 136.006 70.1031C136.274 69.8843 136.609 69.7654 136.954 69.7668C137.19 69.7676 137.424 69.8205 137.638 69.9218C137.851 70.0231 138.04 70.1703 138.191 70.353C138.335 70.5312 138.438 70.7396 138.492 70.9628C138.545 71.1861 138.548 71.4184 138.5 71.643L136.503 81.2884C136.436 81.6272 136.253 81.9322 135.986 82.151C135.719 82.3698 135.384 82.4888 135.039 82.4874Z" fill="black"/>
<path d="M136.605 71.1966C135.939 74.4117 135.273 77.6268 134.607 80.8421C134.502 81.3501 135.282 81.5673 135.387 81.0571C136.053 77.8419 136.719 74.6267 137.385 71.4115C137.49 70.9036 136.711 70.6863 136.605 71.1966Z" fill="black"/>
<path d="M85.7233 180.097C85.4859 180.096 85.2515 180.043 85.0372 179.941C84.8228 179.839 84.6338 179.691 84.4837 179.507C84.3395 179.327 84.2375 179.117 84.1853 178.893C84.1331 178.669 84.1321 178.436 84.1822 178.211L86.4313 167.839C86.4981 167.501 86.6813 167.197 86.9489 166.98C87.2165 166.763 87.5517 166.646 87.8963 166.651C88.1337 166.651 88.3681 166.704 88.5824 166.807C88.7968 166.909 88.9859 167.057 89.136 167.241C89.2802 167.42 89.3822 167.63 89.4344 167.854C89.4866 168.078 89.4877 168.311 89.4376 168.536L87.1885 178.909C87.1216 179.247 86.9385 179.551 86.6709 179.768C86.4032 179.985 86.068 180.101 85.7235 180.097H85.7233Z" fill="black"/>
<path d="M87.5445 168.08C86.7948 171.537 86.0451 174.995 85.2954 178.452C85.1853 178.96 85.9649 179.177 86.0753 178.667C86.825 175.21 87.5747 171.752 88.3244 168.295C88.4344 167.788 87.6549 167.571 87.5445 168.08Z" fill="black"/>
<path d="M90.1646 181.011C89.9568 181.012 89.751 180.971 89.5594 180.891C89.3677 180.811 89.1942 180.693 89.0492 180.544C88.9088 180.396 88.8001 180.222 88.7296 180.031C88.6591 179.84 88.6284 179.636 88.6394 179.433C88.7528 176.725 89.3175 174.055 90.3103 171.533C90.4163 171.269 90.5914 171.039 90.8172 170.866C91.0429 170.694 91.311 170.585 91.5932 170.552C91.8754 170.518 92.1614 170.562 92.4211 170.677C92.6808 170.793 92.9046 170.976 93.069 171.208C93.2044 171.407 93.2881 171.638 93.3126 171.878C93.3371 172.118 93.3016 172.361 93.2093 172.584C92.3311 174.801 91.8291 177.149 91.7242 179.531C91.7104 179.933 91.5391 180.314 91.2473 180.59C90.9556 180.867 90.5667 181.018 90.1646 181.011Z" fill="black"/>
<path d="M91.3699 171.951C90.4245 174.356 89.8863 176.901 89.7774 179.483C89.7549 180.003 90.5638 180.002 90.5863 179.483C90.6972 176.974 91.2257 174.501 92.1499 172.166C92.3409 171.682 91.559 171.472 91.3699 171.951Z" fill="black"/>
<path d="M93.9839 183.824C93.7732 183.825 93.5646 183.783 93.3709 183.7C93.1773 183.617 93.0029 183.495 92.8585 183.342C92.7191 183.19 92.613 183.01 92.5471 182.814C92.4813 182.619 92.4571 182.411 92.4762 182.206C92.6613 179.891 93.0328 177.594 93.5871 175.338C93.6639 175.007 93.8512 174.713 94.118 174.503C94.3848 174.293 94.7153 174.18 95.0548 174.183C95.295 174.183 95.5321 174.238 95.7484 174.342C95.9647 174.446 96.1546 174.598 96.304 174.787C96.4469 174.97 96.5459 175.183 96.5936 175.411C96.6412 175.638 96.6362 175.873 96.5788 176.098C96.0693 178.164 95.7271 180.267 95.5557 182.388C95.5247 182.782 95.3451 183.15 95.0533 183.416C94.7615 183.683 94.3793 183.829 93.9841 183.824H93.9839Z" fill="black"/>
<path d="M94.693 175.61C94.1528 177.806 93.7912 180.042 93.6115 182.296C93.57 182.815 94.379 182.813 94.4203 182.296C94.5961 180.114 94.9481 177.95 95.4729 175.825C95.5975 175.32 94.8177 175.104 94.693 175.61Z" fill="black"/>
<path d="M96.1519 182.965C96.0165 182.965 95.8816 182.947 95.751 182.912C95.3717 182.806 95.0469 182.559 94.8428 182.223C94.6387 181.886 94.5705 181.484 94.6522 181.099L95.448 176.993C95.4929 176.788 95.579 176.595 95.701 176.424C95.8229 176.253 95.9783 176.109 96.1576 176.001C96.337 175.892 96.5365 175.82 96.7442 175.791C96.9519 175.762 97.1634 175.775 97.3659 175.83C97.7452 175.935 98.0699 176.182 98.274 176.518C98.4781 176.855 98.5462 177.257 98.4644 177.642L97.6685 181.748C97.5959 182.095 97.405 182.406 97.1284 182.628C96.8518 182.85 96.5066 182.969 96.1519 182.965Z" fill="black"/>
<path d="M96.5664 177.21C96.301 178.579 96.0358 179.947 95.7705 181.316C95.7447 181.419 95.7597 181.528 95.8123 181.621C95.8649 181.714 95.951 181.782 96.0529 181.813C96.1563 181.841 96.2664 181.827 96.3594 181.774C96.4525 181.721 96.5211 181.634 96.5504 181.531C96.8157 180.162 97.081 178.794 97.3464 177.425C97.3721 177.322 97.3571 177.212 97.3045 177.12C97.2519 177.027 97.1658 176.958 97.0638 176.928C96.9605 176.9 96.8504 176.914 96.7573 176.967C96.6643 177.02 96.5957 177.107 96.5664 177.21Z" fill="black"/>
<path d="M98.3656 182.369C98.122 182.37 97.8815 182.314 97.6628 182.207C97.4442 182.1 97.2533 181.943 97.1049 181.75C96.9637 181.562 96.8684 181.344 96.8265 181.113C96.7846 180.883 96.7973 180.645 96.8636 180.42C97.0884 179.625 97.1867 178.799 97.1547 177.974C97.1481 177.77 97.1826 177.567 97.2559 177.377C97.3293 177.186 97.4402 177.013 97.5819 176.866C97.7919 176.645 98.0626 176.492 98.3598 176.425C98.657 176.358 98.9674 176.38 99.2518 176.49C99.5361 176.599 99.7817 176.79 99.9576 177.039C100.133 177.288 100.232 177.583 100.24 177.888C100.283 179.025 100.146 180.161 99.8351 181.256C99.7467 181.577 99.5549 181.861 99.2892 182.062C99.0236 182.263 98.6989 182.371 98.3656 182.369Z" fill="black"/>
<path d="M98.2928 177.931C98.3297 178.876 98.2172 179.821 97.9594 180.731C97.8172 181.232 98.5974 181.446 98.7393 180.946C99.0171 179.966 99.1393 178.949 99.1016 177.931C99.1017 177.878 99.0913 177.825 99.071 177.776C99.0507 177.727 99.0209 177.682 98.9834 177.645C98.9458 177.607 98.9012 177.577 98.8521 177.557C98.803 177.536 98.7503 177.526 98.6972 177.526C98.644 177.526 98.5914 177.536 98.5422 177.557C98.4931 177.577 98.4485 177.607 98.411 177.645C98.3734 177.682 98.3436 177.727 98.3234 177.776C98.3031 177.825 98.2927 177.878 98.2928 177.931Z" fill="black"/>
<path d="M101.519 181.786C101.396 181.786 101.273 181.772 101.153 181.745C100.765 181.652 100.428 181.412 100.213 181.076C99.9982 180.74 99.9221 180.334 100.001 179.943L100.197 178.804C100.266 178.454 100.454 178.14 100.729 177.914C101.003 177.687 101.348 177.563 101.704 177.563C101.828 177.563 101.951 177.577 102.072 177.605C102.459 177.698 102.796 177.938 103.01 178.274C103.225 178.61 103.301 179.016 103.222 179.407L103.025 180.546C102.956 180.895 102.769 181.209 102.494 181.435C102.219 181.661 101.875 181.785 101.519 181.786Z" fill="black"/>
<path d="M101.32 178.997C101.254 179.377 101.189 179.757 101.123 180.137C101.098 180.242 101.112 180.353 101.164 180.448C101.191 180.494 101.226 180.534 101.268 180.566C101.311 180.598 101.359 180.622 101.41 180.635C101.462 180.649 101.515 180.652 101.568 180.645C101.621 180.638 101.671 180.62 101.717 180.593C101.763 180.567 101.802 180.533 101.834 180.491C101.866 180.45 101.89 180.402 101.903 180.352C101.969 179.972 102.034 179.592 102.1 179.212C102.125 179.107 102.111 178.996 102.059 178.901C102.032 178.855 101.996 178.815 101.954 178.783C101.912 178.75 101.864 178.727 101.812 178.714C101.761 178.7 101.707 178.697 101.655 178.704C101.602 178.711 101.551 178.729 101.506 178.756C101.46 178.782 101.42 178.816 101.388 178.858C101.356 178.899 101.333 178.947 101.32 178.997Z" fill="black"/>
<path d="M176.447 97.5217C176.449 97.5217 176.451 97.5236 176.453 97.5236C176.472 97.5467 176.493 97.5679 176.516 97.587C176.491 97.5678 176.467 97.5459 176.447 97.5217Z" fill="black"/>
<path d="M89.8947 96.5068C89.6176 96.761 89.2977 96.9643 88.9498 97.1073C88.6369 97.2368 88.2885 97.2519 87.9656 97.15C87.725 97.0956 87.4922 97.011 87.2726 96.8984C87.0383 96.7903 86.8355 96.6242 86.6835 96.4156C86.577 96.3139 86.481 96.2017 86.397 96.0807C86.3291 95.9679 86.2782 95.8456 86.246 95.7178C86.2036 95.5667 86.1375 95.3342 86.0476 95.0204C85.9417 94.5953 85.8664 94.2579 85.8216 94.0083C85.7775 93.7038 85.7846 93.3941 85.8425 93.092C85.8161 92.8263 85.8018 92.5513 85.7995 92.267C85.7911 92.0793 85.8006 91.8912 85.828 91.7054C85.8441 91.6046 85.8681 91.4532 85.9002 91.2511C85.931 91.0549 85.9738 90.8607 86.0283 90.6697C86.0656 90.4787 86.1137 90.2158 86.1726 89.8809C86.2098 89.8225 86.2445 89.7655 86.2764 89.7098C86.314 89.6363 86.3383 89.5567 86.3484 89.4748C86.4091 89.2793 86.4881 89.09 86.5841 88.9092C86.7038 88.6703 86.8489 88.4154 87.0192 88.1448C87.1789 87.8886 87.3563 87.6438 87.55 87.4122C87.6983 87.2275 87.8714 87.0641 88.0644 86.9267C88.3462 86.6403 88.5083 86.5661 88.5507 86.7041C88.8853 86.816 89.1004 86.8615 89.196 86.8404C89.2241 86.8366 89.2528 86.8393 89.2797 86.8483C89.3067 86.8573 89.3312 86.8723 89.3514 86.8923C89.406 86.9368 89.4631 86.9781 89.5226 87.016C89.5862 87.0906 89.6007 87.226 89.5659 87.4223C89.5276 87.6317 89.47 87.837 89.3939 88.0358C89.3394 88.1582 89.2638 88.27 89.1704 88.3662C89.1461 88.3856 89.1171 88.3983 89.0864 88.4032C89.0557 88.408 89.0242 88.4049 88.9951 88.394C88.9844 88.3463 88.9181 88.3329 88.796 88.3538C88.7216 88.3645 88.6113 88.4428 88.465 88.5885C88.3033 88.7547 88.1613 88.939 88.0421 89.1379C87.9065 89.358 87.8004 89.595 87.7266 89.8428C87.6761 89.9674 87.6333 90.0951 87.5986 90.2251C87.5729 90.3107 87.5568 90.3989 87.5505 90.488C87.4608 90.7734 87.386 91.0632 87.3265 91.3564C87.3902 91.4043 87.4753 91.3818 87.5816 91.289C87.6878 91.1962 87.7356 91.1258 87.7252 91.0778C87.7041 91.0355 87.7959 90.9201 88.0006 90.7316C88.2032 90.5449 88.4235 90.3783 88.6584 90.2343C88.7621 90.1273 88.8954 90.0539 89.0412 90.0235C89.2217 89.9732 89.3705 89.9322 89.4875 89.9005C89.663 89.8418 89.845 89.8046 90.0294 89.7895C90.194 89.8064 90.3537 89.8553 90.4995 89.9334C90.7859 90.0141 91.0484 90.1635 91.264 90.3686C91.4683 90.5745 91.6328 90.8164 91.7492 91.0822C91.8263 91.2313 91.885 91.3892 91.9241 91.5525C91.9548 91.7222 91.9464 91.8966 91.8996 92.0626C91.8834 92.2433 91.8579 92.4717 91.8232 92.7477C91.7883 93.024 91.7468 93.2803 91.6988 93.5166C91.6691 93.6979 91.6125 93.8737 91.5309 94.0383C91.4863 94.1017 91.4463 94.1682 91.4112 94.2374C91.4322 94.3065 91.3936 94.4353 91.2952 94.6238C91.1966 94.8121 91.0662 95.0298 90.904 95.2768C90.7444 95.5201 90.5726 95.7553 90.3893 95.9814C90.2403 96.1708 90.0748 96.3466 89.8947 96.5068ZM88.3258 95.756C88.5064 95.6927 88.6406 95.6424 88.7283 95.605C88.816 95.5682 88.9529 95.4435 89.1391 95.231C89.2135 95.1675 89.2773 95.1091 89.3305 95.0559C89.3659 95.0138 89.4132 94.9833 89.4661 94.9684C89.6416 94.6553 89.788 94.4031 89.9051 94.2118C90.251 93.6546 90.4548 93.1315 90.5164 92.6427C90.578 92.1541 90.5186 91.7955 90.3384 91.5668C90.3111 91.4889 90.2629 91.4199 90.1991 91.3674C90.1929 91.3389 90.1794 91.3124 90.1599 91.2907C90.1404 91.2689 90.1155 91.2526 90.0878 91.2433C90.0601 91.2341 90.0304 91.2322 90.0018 91.2378C89.9731 91.2434 89.9464 91.2564 89.9242 91.2755C89.8318 91.2923 89.7411 91.3175 89.6533 91.3509C89.5399 91.3692 89.4298 91.404 89.3264 91.4541C89.1821 91.5339 89.0447 91.6258 88.9158 91.7287C88.7376 91.8641 88.4624 92.0909 88.0902 92.409C88.0164 92.4615 87.9505 92.5245 87.8949 92.5961C87.8341 92.6728 87.766 92.7435 87.6915 92.807C87.6717 92.8777 87.6362 92.9431 87.5876 92.9981C87.5237 93.0832 87.4705 93.1496 87.4281 93.1972C87.327 93.2609 87.2791 93.391 87.2842 93.5874C87.3182 93.9512 87.3845 94.3113 87.4822 94.6633C87.5933 95.0197 87.6674 95.2549 87.7046 95.3689C87.7324 95.4702 87.7942 95.5588 87.8796 95.62C87.9032 95.6587 87.9344 95.6921 87.9714 95.7182C88.0084 95.7443 88.0504 95.7625 88.0947 95.7717C88.1721 95.7766 88.2497 95.7713 88.3258 95.756Z" fill="black"/>
<path d="M98.1053 93.5673C98.0121 93.585 97.9168 93.5889 97.8224 93.5789C97.6946 93.5712 97.5679 93.5511 97.444 93.5187C97.3216 93.4867 97.2554 93.46 97.2448 93.4389C97.2287 93.3804 97.1944 93.3645 97.1413 93.3909C97.0528 93.3079 96.9823 93.2075 96.9344 93.0959C96.9185 93.064 96.8841 92.9816 96.8311 92.8487C96.778 92.716 96.733 92.6124 96.696 92.5379C96.5884 92.2358 96.5009 91.9269 96.4341 91.6132C96.3441 91.22 96.2609 90.8003 96.1844 90.3539C96.1079 89.9078 96.0459 89.504 95.9985 89.1425C95.9564 88.6857 95.9062 88.4187 95.8479 88.3415C95.7897 88.2646 95.6382 88.3003 95.3936 88.4487C95.1094 88.6607 94.7591 88.7648 94.4052 88.7424C94.0483 88.7205 93.7046 88.5986 93.4136 88.3907C93.1218 88.1945 92.8936 87.9173 92.7571 87.5932C92.6902 87.4378 92.6513 87.2719 92.642 87.103C92.6359 86.8703 92.6428 86.6376 92.6627 86.4057C92.726 85.9475 92.8387 85.4974 92.9988 85.0635C93.1559 84.6263 93.3566 84.206 93.5978 83.8091C93.7857 83.4808 94.0317 83.1895 94.3239 82.9493C94.5073 82.816 94.7052 82.7039 94.9139 82.6152C95.0994 82.5246 95.2987 82.4656 95.5037 82.4405C95.7562 82.4367 96.0066 82.4886 96.2367 82.5927C96.5247 82.7053 96.7997 82.8485 97.057 83.0199C97.3064 83.1877 97.447 83.3432 97.4788 83.4866C97.5666 83.7871 97.6145 84.098 97.6212 84.411C97.6159 84.6377 97.5808 84.8627 97.5169 85.0802C97.421 85.3141 97.3568 85.6846 97.3244 86.1917C97.2914 86.7542 97.2869 87.3181 97.3107 87.881C97.3337 88.5 97.3822 89.0964 97.4562 89.67C97.5152 90.1308 97.6242 90.5838 97.7814 91.021C97.9242 91.4012 98.0356 91.578 98.1155 91.5513C98.1949 91.52 98.2779 91.4987 98.3626 91.4878C98.4473 91.4769 98.5302 91.4556 98.6097 91.4243C98.6616 91.4499 98.7036 91.492 98.7291 91.544C98.7631 91.6385 98.7792 91.7385 98.7765 91.8389C98.7748 91.978 98.7532 92.1161 98.7123 92.2491C98.6609 92.4422 98.5955 92.6312 98.5165 92.8147C98.4339 93.0084 98.3553 93.177 98.2808 93.3205C98.243 93.4157 98.1828 93.5003 98.1053 93.5673ZM94.375 87.2443C94.4855 87.2899 94.6057 87.3073 94.7247 87.2949C94.8436 87.2825 94.9576 87.2408 95.0564 87.1733C95.296 86.9981 95.4802 86.7576 95.587 86.4806C95.7438 86.105 95.841 85.7072 95.8751 85.3017C95.9212 85.1452 95.9443 84.9828 95.9435 84.8196C95.9319 84.7375 95.9416 84.6539 95.9715 84.5766C96.023 84.4155 96.0606 84.2503 96.0837 84.0827C96.0916 84.0332 96.0805 83.9826 96.0524 83.9411C96.0243 83.8995 95.9814 83.8703 95.9325 83.8593C95.8854 83.8235 95.831 83.7985 95.7732 83.786C95.7154 83.7736 95.6555 83.774 95.5979 83.7873C95.5075 83.8194 95.3586 83.9468 95.1512 84.1693C95.0197 84.2597 94.9128 84.3815 94.8402 84.5236C94.7868 84.6431 94.6856 84.8329 94.5367 85.093C94.5221 85.1471 94.4897 85.1948 94.4449 85.2284C94.405 85.2551 94.3603 85.274 94.3133 85.2839C94.2961 85.2962 94.2841 85.3144 94.2796 85.3351C94.2752 85.3557 94.2787 85.3773 94.2894 85.3955C94.3901 85.4647 94.3873 85.6188 94.2809 85.8576C94.1528 86.2933 94.0953 86.6173 94.1085 86.8296C94.1046 86.9178 94.1281 87.005 94.1759 87.0793C94.2236 87.1535 94.2932 87.2112 94.375 87.2443Z" fill="black"/>
<path d="M101.95 89.7788C101.805 89.9345 101.633 90.0637 101.444 90.1606C101.254 90.2333 101.048 90.2496 100.85 90.2078C100.531 90.1015 100.352 89.922 100.313 89.6695C100.273 89.4172 100.354 89.1078 100.557 88.7413C100.705 88.5078 100.829 88.3632 100.928 88.3075C101.09 88.2372 101.265 88.2007 101.442 88.2004C101.914 88.2435 102.197 88.4111 102.29 88.7034C102.382 88.9957 102.269 89.3542 101.95 89.7788Z" fill="black"/>
<path d="M108.311 87.8811C108.268 87.9024 108.127 87.8797 107.889 87.8129C107.649 87.7465 107.456 87.5643 107.307 87.2665C107.145 86.9058 107.027 86.5272 106.954 86.1386C106.872 85.7214 106.807 85.3455 106.76 85.0109C106.728 84.7876 106.705 84.6003 106.689 84.449C106.684 84.3557 106.668 84.2634 106.641 84.1741C106.631 84.1794 106.58 84.2179 106.49 84.2893C106.399 84.3613 106.288 84.4502 106.155 84.5559C105.809 84.8403 105.438 85.092 105.047 85.3079C104.775 85.443 104.465 85.3988 104.114 85.1753C103.964 85.1155 103.82 85.0406 103.684 84.9516C103.493 84.8342 103.325 84.6813 103.191 84.501C103.125 84.4205 103.08 84.3242 103.062 84.2216C103.044 84.119 103.053 84.0134 103.088 83.9152C103.065 83.6821 103.055 83.448 103.057 83.2139C103.062 83.0653 103.065 82.9577 103.065 82.8912C103.066 82.8291 103.052 82.7677 103.025 82.7118C103.025 82.6854 103.025 82.6457 103.025 82.5924C103.026 82.5362 103.031 82.4802 103.042 82.425C103.058 82.2179 103.09 81.943 103.138 81.6004C103.186 81.2579 103.244 80.9073 103.311 80.5487C103.377 80.1904 103.439 79.8677 103.495 79.5807C103.527 79.383 103.577 79.1884 103.643 78.9992C103.691 78.9356 103.781 78.8308 103.914 78.6848C104.002 78.5771 104.107 78.4843 104.225 78.4103C104.28 78.3905 104.338 78.3842 104.396 78.3919C104.454 78.3996 104.508 78.4211 104.556 78.4545C104.687 78.5235 104.811 78.605 104.926 78.6978C105.003 78.7525 105.071 78.82 105.125 78.8974C105.125 78.9505 105.123 79.0116 105.117 79.0806C105.106 79.1655 105.087 79.2811 105.061 79.4271C105.034 79.5732 104.989 79.7684 104.925 80.0127C104.857 80.3045 104.805 80.5997 104.768 80.897C104.718 81.2741 104.677 81.6659 104.648 82.0721C104.618 82.4786 104.6 82.8358 104.595 83.1439C104.589 83.4521 104.607 83.6486 104.65 83.7336C104.66 83.7574 104.675 83.7783 104.696 83.7944C104.716 83.8105 104.74 83.8211 104.765 83.8255C104.848 83.8251 104.93 83.8017 105 83.7579C105.128 83.6679 105.242 83.5843 105.343 83.5072C105.444 83.4304 105.537 83.3575 105.622 83.2884C105.716 83.2196 105.805 83.1452 105.89 83.0656C105.961 82.9968 106.029 82.9332 106.093 82.8746C106.162 82.8003 106.225 82.7326 106.28 82.6715C106.334 82.6138 106.379 82.5479 106.412 82.4764C106.488 82.2955 106.513 82.0971 106.485 81.9028C106.458 81.6904 106.437 81.3955 106.422 81.0182C106.401 80.7634 106.392 80.5257 106.395 80.305C106.397 80.0847 106.399 79.8815 106.399 79.6955C106.406 79.2226 106.451 78.751 106.532 78.2852C106.599 77.9668 106.643 77.8022 106.664 77.7913C106.76 77.7768 106.858 77.7824 106.951 77.8076C107.109 77.8342 107.266 77.8689 107.421 77.9117C107.525 77.9381 107.627 77.9701 107.728 78.0076C107.81 78.0397 107.857 78.0664 107.867 78.0876C107.933 78.2233 107.969 78.3712 107.974 78.5218C107.981 78.7146 107.974 78.9077 107.954 79.0995C107.932 79.3227 107.919 79.6015 107.913 79.9361C107.907 80.3242 107.911 80.7041 107.924 81.0757C107.936 81.4476 107.952 81.8115 107.97 82.1675C107.989 82.5236 108.014 82.8662 108.045 83.1954C108.076 83.5251 108.105 83.8359 108.132 84.1278C108.21 84.8718 108.282 85.4137 108.345 85.7536C108.376 85.9855 108.439 86.2121 108.531 86.4271C108.581 86.5217 108.647 86.6068 108.726 86.6783C108.796 86.819 108.819 86.9779 108.794 87.1326C108.77 87.2948 108.712 87.4498 108.622 87.5866C108.546 87.7107 108.439 87.8124 108.311 87.8811Z" fill="black"/>
<path d="M112.632 85.3282C112.529 85.3176 112.428 85.2948 112.33 85.2601C112.173 85.2116 112.02 85.1515 111.872 85.0803C111.756 85.0292 111.646 84.9677 111.541 84.8966C111.483 84.8594 111.438 84.7624 111.406 84.6056C111.374 84.4492 111.38 84.36 111.422 84.3387C111.465 84.3442 111.489 84.2858 111.494 84.1635C111.5 84.0414 111.501 83.9112 111.499 83.773C111.502 83.6928 111.496 83.6125 111.479 83.534C111.474 83.5083 111.475 83.4818 111.481 83.4564C111.487 83.431 111.499 83.4072 111.515 83.3867C111.549 83.337 111.58 83.2851 111.607 83.2313C111.621 83.105 111.649 82.9808 111.691 82.8608C111.736 82.7257 111.769 82.6126 111.791 82.5223C111.851 82.2818 111.926 82.045 112.015 81.8134C112.132 81.4896 112.241 81.163 112.342 80.8336C112.444 80.4779 112.533 80.1646 112.611 79.8936C112.688 79.623 112.713 79.4478 112.687 79.3678C112.714 79.2787 112.751 79.1932 112.799 79.1129C112.85 79.0272 112.895 78.9381 112.934 78.8461C112.987 78.727 113.03 78.6192 113.062 78.5236C113.041 78.4008 113.042 78.2752 113.067 78.153C113.092 77.9947 113.131 77.8389 113.183 77.687C113.204 77.5072 113.214 77.3262 113.211 77.1451C113.212 77.0065 113.203 76.868 113.184 76.7308C113.157 76.598 113.111 76.5316 113.044 76.5314C112.875 76.5436 112.706 76.5647 112.538 76.5947C112.267 76.6258 112.01 76.7333 111.797 76.9046C111.6 77.0692 111.382 77.377 111.142 77.8282C111.017 77.9267 110.903 78.0373 110.8 78.1585C110.727 78.2548 110.631 78.3303 110.52 78.3774C110.444 78.3702 110.37 78.3456 110.305 78.3054C110.216 78.2579 110.123 78.2179 110.026 78.1856L109.525 77.5794L109.884 77.0619C110.15 76.6109 110.465 76.1904 110.822 75.8078C111.149 75.4656 111.485 75.2681 111.831 75.2153C111.991 75.1436 112.16 75.0929 112.333 75.0644C112.412 75.0117 112.559 74.9919 112.771 75.0051C113 75.0217 113.227 75.062 113.448 75.1253C113.722 75.2057 113.973 75.3468 114.184 75.5382C114.395 75.7295 114.56 75.9662 114.666 76.2303C114.809 76.6699 114.844 77.1372 114.768 77.593C114.747 77.6835 114.696 77.8747 114.616 78.1666C114.536 78.4589 114.444 78.7868 114.34 79.1504C114.236 79.5144 114.139 79.8383 114.049 80.1223C113.958 80.4065 113.899 80.5883 113.873 80.6679C113.775 80.8194 113.699 80.9844 113.649 81.1578C113.558 81.4154 113.467 81.6969 113.373 82.0021C113.28 82.3075 113.205 82.5704 113.149 82.7907C113.093 83.0112 113.076 83.1161 113.097 83.1054C113.107 83.1533 113.162 83.1228 113.26 83.014C113.359 82.9052 113.448 82.8111 113.528 82.7314C113.684 82.5784 113.847 82.4337 114.018 82.2977C114.212 82.1412 114.413 81.9914 114.62 81.848C114.828 81.7049 115.011 81.587 115.171 81.4941C115.33 81.4015 115.434 81.3631 115.481 81.3789C115.529 81.4216 115.561 81.4188 115.577 81.3709C115.561 81.2862 115.686 81.1974 115.952 81.1045C116.195 81.0176 116.446 80.9525 116.701 80.9101C116.813 80.8843 116.93 80.8804 117.044 80.8985C117.139 80.9173 117.198 80.9479 117.219 80.9903C117.314 81.0563 117.415 81.1125 117.522 81.158C117.76 81.2115 117.837 81.359 117.752 81.6004C117.667 81.8421 117.393 82.0318 116.931 82.1693C116.7 82.2802 116.478 82.4106 116.269 82.5591C116.195 82.6304 116.109 82.6871 116.014 82.7261C115.876 82.795 115.745 82.8666 115.623 82.9409C115.421 83.0151 115.232 83.1197 115.061 83.251C114.853 83.4147 114.655 83.59 114.467 83.7762C114.387 83.8558 114.262 83.9779 114.092 84.1424C113.922 84.3069 113.736 84.4794 113.534 84.6598C113.331 84.8402 113.145 84.9927 112.975 85.1173C112.871 85.2031 112.756 85.2741 112.632 85.3282Z" fill="black"/>
<path d="M121.936 80.788C121.793 80.8453 121.643 80.8865 121.49 80.911C121.257 80.9575 121.021 80.9917 120.785 81.0137C120.579 81.0392 120.371 81.0322 120.167 80.9931C119.692 80.8849 119.248 80.666 118.873 80.3543C118.533 80.0656 118.244 79.7219 118.017 79.3374C117.804 78.9787 117.631 78.5978 117.501 78.2015C117.274 77.4231 117.179 76.6122 117.22 75.8025C117.266 74.6054 117.617 73.4399 118.24 72.4171C118.431 72.1098 118.671 71.8355 118.95 71.6051C119.096 71.4854 119.255 71.3826 119.425 71.2988C119.64 71.185 119.785 71.1094 119.859 71.0722C120.104 70.9569 120.367 70.8832 120.636 70.8538C120.914 70.8151 121.194 70.8087 121.473 70.8349C121.725 70.8618 121.878 70.9284 121.931 71.0346C121.968 71.1093 122 71.1866 122.026 71.2658C122.053 71.3456 122.013 71.3854 121.907 71.3852L121.747 71.4647L122.145 71.8636C122.25 71.9478 122.345 72.0442 122.428 72.1506C122.522 72.2638 122.603 72.3868 122.671 72.5176C122.745 72.6771 122.81 72.8408 122.865 73.0078C122.942 73.2284 123.015 73.4675 123.083 73.7251C123.152 73.983 123.213 74.2248 123.266 74.4505C123.31 74.6191 123.339 74.791 123.353 74.9645C123.352 75.0365 123.364 75.1082 123.389 75.1758C123.412 75.2371 123.435 75.2888 123.456 75.3312C123.456 75.4376 123.461 75.6209 123.472 75.881C123.482 76.1415 123.487 76.3248 123.487 76.4308C123.466 76.4948 123.45 76.5491 123.439 76.5942C123.428 76.6394 123.455 76.6726 123.518 76.6938C123.541 76.7768 123.551 76.8629 123.546 76.9489C123.549 77.0805 123.545 77.2121 123.534 77.3433C123.523 77.4681 123.502 77.5385 123.47 77.5544C123.422 77.5917 123.406 77.6261 123.422 77.6579C123.443 77.7006 123.427 77.848 123.374 78.1001C123.314 78.3737 123.24 78.6437 123.15 78.9087C123.065 79.1369 122.962 79.358 122.842 79.5698C122.699 79.8382 122.539 80.0974 122.363 80.3461C122.196 80.5825 122.053 80.7298 121.936 80.788ZM121.141 79.273C121.255 79.2168 121.359 79.1415 121.448 79.0503C121.533 78.965 121.597 78.8614 121.636 78.7476C121.772 78.502 121.872 78.2377 121.931 77.9631C122.002 77.651 122.026 77.3302 122.004 77.011C122.041 76.7993 122.051 76.5837 122.033 76.3695C122.014 76.1597 121.974 75.805 121.91 75.3055C121.936 75.1321 121.923 74.9552 121.871 74.7876C121.829 74.6315 121.774 74.4794 121.704 74.3333C121.646 74.2164 121.569 74.0556 121.474 73.851C121.389 73.678 121.327 73.4943 121.291 73.3049C121.215 73.1402 121.129 72.9804 121.033 72.8265C120.968 72.7651 120.89 72.7187 120.806 72.6908C120.735 72.6794 120.662 72.6753 120.591 72.6786C120.507 72.6808 120.426 72.7011 120.351 72.7381C120.253 72.7929 120.163 72.8612 120.084 72.941C119.991 73.0269 119.909 73.1246 119.841 73.2316C119.814 73.2713 119.779 73.3044 119.737 73.3285C119.696 73.3526 119.65 73.3671 119.602 73.3708C119.495 73.3841 119.429 73.3642 119.403 73.3108C119.328 73.1621 119.261 73.2059 119.199 73.4421C119.138 73.6786 119.062 73.9986 118.971 74.402C118.88 74.67 118.814 74.9461 118.775 75.2265C118.74 75.4897 118.733 75.6425 118.755 75.6847C118.779 75.7427 118.79 75.8053 118.786 75.868C118.787 75.9585 118.792 76.0489 118.802 76.1389C118.784 76.2923 118.782 76.4471 118.793 76.6012C118.804 76.8084 118.816 77.0116 118.829 77.2107C118.835 77.3592 118.853 77.507 118.88 77.653C118.901 77.6956 118.958 77.8099 119.051 77.9958C119.144 78.182 119.23 78.3547 119.309 78.5141C119.373 78.6482 119.445 78.7786 119.524 78.9047C119.567 78.9731 119.62 79.0338 119.683 79.0842C119.736 79.1243 119.816 79.1842 119.922 79.2637C120.026 79.3296 120.137 79.3844 120.253 79.4274C120.393 79.4836 120.49 79.5249 120.543 79.5514C120.713 79.5994 120.81 79.6008 120.834 79.5557C120.923 79.448 121.027 79.3529 121.141 79.273Z" fill="black"/>
</svg>
