<svg width="201" height="162" viewBox="0 0 201 162" fill="none" xmlns="http://www.w3.org/2000/svg">
<path d="M177.697 60.6187C177.509 54.0225 177.798 47.4263 176.939 40.9084C176.267 35.8169 165.999 32.7332 162.6 30.8574C155.923 27.18 149.109 23.8201 141.893 21.5155C134.993 19.314 127.28 20.4684 120.181 20.7281C115.434 8.29834 105.452 0.700326 91.0859 0.114912C82.9671 -0.214899 73.6683 0.0200921 65.8777 2.78226C59.7398 4.95901 57.1143 16.4488 55.0983 23.045L49.4214 23.2676C47.1162 18.9554 42.9318 15.5665 38.5638 15.1831C33.0314 14.6967 29.5776 19.112 27.7647 24.121C19.9168 24.4261 12.065 24.7257 4.20932 25.0197C3.52131 25.0304 2.86431 25.3235 2.37776 25.8369C1.89122 26.3503 1.61341 27.0436 1.60332 27.7695C1.08238 60.8908 0.549741 94.0093 0.00536241 127.125C-0.197803 139.176 5.38533 141.142 14.4848 147.845C23.1193 154.198 29.3588 161.285 39.9859 160.968C68.8979 160.11 97.845 158.375 126.722 156.61C126.844 156.599 126.966 156.578 127.085 156.548C131.584 158.775 136.351 160.343 141.252 161.207C170.437 166.426 194.47 145.285 199.365 115.474C203.065 92.8907 194.294 71.8735 177.697 60.6187ZM157.048 52.6414H156.99H156.962L156.677 52.6208C156.575 52.5921 156.472 52.57 156.368 52.5548C154.993 52.4023 153.633 52.3157 152.266 52.2662C124.917 49.9823 95.7664 46.5523 80.8651 77.002C80.3259 78.1028 79.8454 79.2324 79.3882 80.3826C64.3774 80.4486 49.3706 80.7949 34.3598 80.8608C34.3963 69.7407 34.4249 58.6206 34.4457 47.5005C80.029 46.3956 125.597 44.2683 171.192 43.4933C171.25 43.4933 171.297 43.4933 171.356 43.4727C173.004 47.183 172.735 53.165 172.563 57.5638C167.666 55.0797 162.431 53.4188 157.048 52.6414ZM112.223 145.335C107.007 143.273 102.158 140.944 97.8645 137.832C101.209 138.376 104.534 139.048 107.831 139.777C109.172 141.735 110.639 143.591 112.223 145.335ZM94.5592 135.144C92.4995 133.304 90.6389 131.23 89.0112 128.96C93.7973 129.586 98.5717 130.584 103.272 131.635C104.13 133.534 105.095 135.376 106.163 137.151C102.322 136.331 98.4428 135.634 94.5592 135.144ZM29.1713 45.8473C29.1874 45.9036 29.2069 45.9586 29.2299 46.0122C29.2299 57.2807 29.1999 68.5575 29.14 79.8425C25.7722 77.975 22.4981 75.8518 19.2123 73.8647C15.149 71.3911 9.937 68.7279 6.53789 65.9204C6.42539 65.8324 6.30652 65.7538 6.18236 65.6854C6.35948 54.9089 6.53398 44.135 6.70589 33.364C14.1683 37.5732 21.6893 41.6711 29.1713 45.8473ZM6.07687 72.2033C6.36989 72.4012 6.67074 72.5826 6.96768 72.7763C6.9332 72.8742 6.91342 72.9771 6.90906 73.0814C6.90906 74.1286 6.95205 75.1757 6.98721 76.2229C6.65902 75.9879 6.35036 75.7364 6.02607 75.4932C6.0417 74.3965 6.06124 73.2999 6.07687 72.2033ZM9.10481 77.6823C9.10481 76.4867 9.04621 75.2912 9.01886 74.0956C9.67915 74.5079 10.3433 74.8913 11.0075 75.2829V78.9562C10.3668 78.5398 9.73775 78.111 9.10481 77.6823ZM13.09 79.826V76.5279C13.9378 77.0268 14.7895 77.5215 15.6178 78.0286L15.8601 78.177C15.8991 79.4633 15.9616 80.7495 16.0163 82.0358C15.0083 81.4421 14.0081 80.8443 13.0157 80.2301C13.0641 80.1014 13.0892 79.9644 13.09 79.826ZM18.1496 83.2643C18.1496 82.0275 18.0636 80.7495 17.9972 79.4962L19.9273 80.6877C20.0477 81.8452 19.983 83.0158 19.7358 84.1507C19.2084 83.858 18.6809 83.5612 18.1496 83.2643ZM22.0566 82.0275C22.838 82.4975 23.6194 82.9469 24.3735 83.4004C24.3735 84.4997 24.3526 85.5895 24.3109 86.6696C23.4149 86.1914 22.5202 85.7091 21.6268 85.2226C21.9301 84.1824 22.0803 83.0993 22.0722 82.011L22.0566 82.0275ZM26.4481 84.5795C27.3311 85.0659 28.2141 85.5524 29.1088 86.0018C29.1088 87.0695 29.1088 88.1373 29.1088 89.2092L26.3738 87.7539C26.4285 86.6779 26.4559 85.6225 26.4637 84.563L26.4481 84.5795ZM34.3168 86.3893L38.4895 86.3563C38.4895 87.3663 38.4895 88.3764 38.4895 89.3823C38.4948 89.4922 38.5158 89.6007 38.552 89.7039H34.3168C34.3286 88.5743 34.3285 87.4735 34.3325 86.3728L34.3168 86.3893ZM40.5681 86.3398C41.873 86.3398 43.1819 86.3398 44.4751 86.3068C44.5376 87.4488 44.522 88.599 44.5102 89.7451L40.4977 89.7204C40.5348 89.6115 40.5571 89.4977 40.5642 89.3823C40.5876 88.3475 40.5954 87.3334 40.5602 86.3233L40.5681 86.3398ZM46.5458 86.278L51.035 86.2203V89.7451H46.6122C46.62 88.5743 46.6083 87.4199 46.5497 86.2615L46.5458 86.278ZM53.1174 86.1955L55.95 86.1543C56.1408 87.3528 56.2284 88.5671 56.2118 89.7822H53.1174V86.1955ZM58.302 89.7451C58.3148 88.5274 58.239 87.3104 58.0754 86.1048L61.9277 86.0553C61.9485 87.2767 61.8675 88.4976 61.6855 89.7039C60.5603 89.7451 59.4311 89.7451 58.302 89.7451ZM64.0024 86.0347L66.6513 86.0018C66.7607 87.2097 66.8272 88.4217 66.8389 89.6379C65.8113 89.6627 64.7877 89.675 63.764 89.6915C63.9271 88.4803 64.0068 87.2581 64.0024 86.0347ZM68.9174 89.572C68.9174 88.364 68.8315 87.1685 68.726 85.9729L71.8516 85.9523C72.0521 87.0223 72.0851 88.1197 71.9493 89.2009C71.9393 89.2913 71.9393 89.3826 71.9493 89.473C70.9373 89.5101 69.9215 89.539 68.9096 89.572H68.9174ZM73.9457 85.9317L77.5363 85.9069C77.2368 87.0063 76.9763 88.1167 76.7549 89.238L74.02 89.3782C74.1335 88.2304 74.1059 87.072 73.9379 85.9317H73.9457ZM80.7283 102.773C86.5654 103.375 92.4064 104.603 98.1302 105.893C98.0911 107.924 98.1484 109.954 98.3021 111.978C92.6721 110.721 86.9483 109.559 81.2167 108.969C80.9246 106.917 80.7588 104.847 80.7205 102.773H80.7283ZM98.5873 99.153C98.4037 100.67 98.2865 102.175 98.1966 103.667C92.4455 102.377 86.585 101.194 80.7244 100.571C80.7758 98.4798 80.9507 96.3938 81.248 94.3253C87.1398 94.9025 93.0394 96.1393 98.8296 97.438C98.7436 97.9904 98.6498 98.5758 98.5795 99.153H98.5873ZM83.4593 118.117C82.6598 115.872 82.0327 113.563 81.584 111.212C87.2648 111.826 92.9456 113.017 98.517 114.271C98.7669 116.503 99.1427 118.718 99.6422 120.904C94.2989 119.656 88.8935 118.724 83.4515 118.113L83.4593 118.117ZM99.1968 95.2818C93.4066 93.9832 87.5109 92.767 81.6152 92.1692C82.0202 89.9817 82.5578 87.8239 83.2249 85.709C89.1089 86.3068 95.0007 87.5477 100.771 88.8423C100.124 90.9524 99.5951 93.1013 99.189 95.2777L99.1968 95.2818ZM79.9665 123.584C80.2595 124.252 80.5799 124.858 80.8885 125.488C75.2819 130.188 67.7844 126.911 66.9639 119.164C66.3153 113.005 71.0194 110.177 76.0633 109.629C76.7219 114.452 78.0338 119.15 79.9587 123.58L79.9665 123.584ZM87.4719 126.61C86.276 124.639 85.2309 122.571 84.3462 120.426C89.6887 121.1 94.9949 122.064 100.244 123.312C100.798 125.316 101.459 127.286 102.225 129.211C97.3491 128.082 92.4226 127.212 87.464 126.606L87.4719 126.61ZM101.451 86.7521C95.6805 85.4576 89.8043 84.229 83.9204 83.5859C84.5149 81.9172 85.1918 80.2824 85.9481 78.6882C91.8086 79.1788 97.7161 80.3826 103.502 81.673C102.733 83.3258 102.046 85.0198 101.443 86.748L101.451 86.7521ZM104.495 79.6488C98.7319 78.3625 92.8674 77.1752 87.003 76.6063C87.0733 76.4743 87.1319 76.3383 87.2023 76.194C88.2759 74.2156 89.5016 72.3335 90.8671 70.5666C96.669 71.0737 102.483 72.2651 108.191 73.5349C106.823 75.4779 105.585 77.5195 104.487 79.6447L104.495 79.6488ZM109.605 71.6055C103.987 70.344 98.2748 69.1649 92.5354 68.5465C93.9634 66.9434 95.5289 65.4833 97.2121 64.1848C102.744 64.6383 108.292 65.7349 113.75 66.9387C112.278 68.402 110.894 69.9607 109.605 71.6055ZM115.684 65.0959C110.508 63.9415 105.253 62.8738 99.9821 62.2636C102.184 60.8945 104.513 59.7672 106.933 58.8996C111.751 59.5097 116.57 60.1061 121.389 60.6888C119.389 62.0167 117.483 63.495 115.684 65.1124V65.0959ZM124.358 58.8542C120.33 58.376 116.31 57.8689 112.285 57.3618C118.04 56.0756 124.174 55.7787 130.383 55.9642C128.318 56.7964 126.305 57.7672 124.358 58.8707V58.8542ZM88.683 5.58153C104.612 5.44136 115.028 14.272 117.501 30.8698C107.296 31.2078 97.1027 31.8633 86.9053 32.3498C83.1155 32.5312 79.3179 32.6961 75.5203 32.6631C75.3484 24.0674 74.2466 14.5689 69.6051 7.37487C69.6715 7.37487 69.7301 7.31716 69.7965 7.30067C75.8524 5.66398 82.4669 5.64337 88.683 5.58153ZM65.448 10.6359C69.2769 16.5807 70.1364 24.7106 70.2966 31.8674C66.8467 30.4575 63.053 27.4109 59.8258 25.3908C61.1776 21.1403 62.5646 14.6431 65.448 10.6359ZM37.9152 20.6869C42.1895 20.2746 45.7605 26.3679 46.0418 30.2514C46.3231 34.1349 31.3866 34.6667 31.4139 30.9687C31.7929 27.0151 33.3596 21.128 37.9152 20.6869ZM26.2879 30.2844C26.2337 30.508 26.2061 30.7379 26.2059 30.9687C26.1774 31.2626 26.1959 31.5594 26.2606 31.8468C27.4327 42.174 50.6716 41.2093 51.2225 30.7502C51.2522 30.0619 51.2248 29.3722 51.1405 28.6889L54.5083 28.557C54.6801 28.7022 54.8676 28.8254 55.067 28.9239C64.6353 33.5289 69.5582 38.3565 80.0368 38.105C93.516 37.7834 106.968 36.6085 120.443 36.2539C120.785 36.2476 121.122 36.1706 121.436 36.0272C121.96 35.905 122.419 35.5751 122.72 35.1056C123.02 34.636 123.138 34.0628 123.049 33.5041C122.828 31.0407 122.437 28.5976 121.877 26.1947C133.704 25.935 142.686 26.8461 153.958 32.4199C157.556 34.1967 161.08 36.1591 164.589 38.138C120.869 38.9996 77.169 40.9867 33.4534 42.0339C33.3632 41.9636 33.2693 41.8989 33.1721 41.8401C26.202 37.9318 19.1888 34.1019 12.2148 30.206L26.3817 29.666C26.3309 29.8803 26.3113 30.0823 26.2879 30.2844ZM5.97137 78.1564C13.1876 83.3509 21.326 87.5354 29.097 91.6415C29.0267 111.653 28.9746 131.664 28.9408 151.675L24.1508 148.216C24.1899 148.068 24.2186 147.916 24.2367 147.763C24.6274 143.199 25.5221 138.038 24.014 133.593C22.7364 129.817 19.0325 128.04 15.8405 126.404C9.02276 122.903 7.80769 129.512 7.52638 135.387C6.01436 133.325 5.11965 130.807 5.18217 127.142C5.45826 110.81 5.72524 94.482 5.9831 78.1564H5.97137ZM12.6133 139.996C12.6641 137.959 12.586 135.919 12.6524 133.878C12.6758 133.325 12.7227 132.769 12.7969 132.229C12.8985 131.495 13.2111 131.227 13.0197 131.07C14.1449 131.433 15.2974 132.307 16.2586 132.876C18.0831 133.969 19.2318 134.781 19.517 137.127C19.8179 139.6 19.603 142.21 19.3412 144.758C18.595 144.213 17.8448 143.682 17.0986 143.137C15.5201 141.958 13.9925 140.961 12.6094 139.975L12.6133 139.996ZM34.1566 154.998C34.1723 133.959 34.2283 112.924 34.3246 91.893C48.2922 91.9301 62.3536 92.2393 76.3017 91.4807C75.5992 95.6686 75.3475 99.9268 75.5515 104.174C66.7373 105.221 60.4274 111.443 62.0489 121.489C62.8303 126.247 66.5224 130.86 70.7772 132.542C75.3953 134.373 79.732 133.144 83.4867 130.271C90.91 142 101.537 147.202 113.961 151.848C93.4939 153.039 73.0185 154.09 52.5353 155.002C47.2569 155.229 39.5092 156.969 34.1527 154.978L34.1566 154.998ZM144.159 156.12C117.2 153.411 101.072 128.238 103.573 100.955C106.108 73.2546 128.003 56.6816 152.911 57.8029C154.141 57.9142 155.352 58.0173 156.552 58.1121C214.055 67.6189 202.159 161.949 144.159 156.12Z" fill="#DADAD9"/>
<path d="M156.678 69.0375C156.579 69.0315 156.48 69.0315 156.381 69.0375C156.252 69.0031 156.122 68.9755 155.99 68.9551C130.813 66.4073 116.674 86.5464 116.139 106.826C116.061 106.979 116.019 107.15 116.017 107.324C116.006 108.054 116.047 108.783 116.139 109.505C116.701 126.082 126.484 142.074 146.945 145.129C191.974 151.791 201.749 76.1408 156.678 69.0375ZM144.687 91.2338C141.249 90.5453 137.76 88.2037 136.756 84.518C134.994 78.062 142.179 76.013 146.914 76.9901C150.935 78.499 153.908 81.8919 153.048 87.2431C152.392 91.3616 147.836 91.8646 144.687 91.2338ZM123.265 120.756C129.985 125.336 139.706 125.427 144.898 117.944C149.731 110.989 145.773 100.477 150.907 93.8434C154.361 89.3786 160.007 94.5443 162.003 97.6734C163.269 99.6522 163.867 102.039 164.136 104.422C164.218 120.162 154.388 136.166 136.353 136.047C136.303 136.047 136.26 136.047 136.213 136.047C130.255 132.675 125.851 127.262 123.265 120.756ZM147.524 139.629C172.704 130.304 177.217 89.1642 154.408 74.3599C154.83 74.3846 155.252 74.3928 155.674 74.4341C194.607 80.9684 185.957 143.793 147.524 139.629Z" fill="#DADAD9"/>
<path d="M63.3975 51.0749C58.1386 51.2687 52.8798 51.5078 47.6209 51.751C43.2334 51.953 41.7604 54.3771 41.6393 58.7059C41.4869 63.2944 40.0765 70.9378 42.5262 75.0563C44.6321 78.6059 51.5123 77.1176 54.6848 77.064C59.6741 77.0063 64.9916 77.4763 69.9222 76.7053C74.3528 76.0292 74.6106 72.3395 74.7005 68.3488C74.7826 63.4841 75.396 57.8979 73.5284 53.3382C72.0555 49.7557 66.1168 50.9925 63.3975 51.0749ZM69.5315 66.6791C69.5003 70.0679 69.3244 71.3253 65.9449 71.4036C62.7684 71.482 59.5921 71.5108 56.4156 71.5479C55.6342 71.5479 46.8708 71.9107 46.8474 71.4284C46.6481 67.1944 46.7067 62.9357 46.8474 58.7059C46.9177 56.422 49.4807 57.1599 51.2623 57.0816C54.3046 56.9414 57.3455 56.8109 60.3852 56.69C63.0706 56.58 65.756 56.4838 68.4415 56.4014C70.1019 56.3519 69.5393 65.6443 69.5315 66.6791Z" fill="#DADAD9"/>
<path d="M12.4682 60.6559C14.3592 63.0429 18.0045 62.4245 19.8916 60.4085C21.2004 58.9944 21.2825 57.2258 20.673 55.6551C20.5518 54.6438 20.1551 53.6915 19.5309 52.9135C18.9067 52.1356 18.0819 51.5656 17.1567 51.2727C16.6982 51.1223 16.2152 51.0732 15.7379 51.1285C15.2606 51.1838 14.7993 51.3424 14.3827 51.5943C13.9247 51.6328 13.4822 51.787 13.0926 52.0439C12.7029 52.3007 12.3776 52.6528 12.144 53.0702C11.9268 53.2658 11.7408 53.4968 11.5931 53.7546C10.3428 55.9932 10.964 58.7553 12.4682 60.6559Z" fill="#DADAD9"/>
<path d="M77.0405 149.325C65.253 147.8 51.1994 148.088 39.8144 151.741C39.4588 151.856 39.5057 152.487 39.9042 152.45C52.2231 151.238 64.7216 151.943 77.0209 150.269C77.1328 150.261 77.2377 150.209 77.3151 150.123C77.3925 150.038 77.4368 149.925 77.4392 149.806C77.4417 149.688 77.4021 149.573 77.3284 149.484C77.2546 149.395 77.1519 149.338 77.0405 149.325Z" fill="#DADAD9"/>
<path d="M80.4692 148.579C80.324 148.625 80.1967 148.718 80.1062 148.847C80.0157 148.975 79.9668 149.13 79.9668 149.29C79.9668 149.45 80.0157 149.605 80.1062 149.734C80.1967 149.862 80.324 149.956 80.4692 150.001C81.1529 150.207 83.0322 150.607 83.0322 149.288C83.0322 147.969 81.1529 148.373 80.4692 148.579Z" fill="#DADAD9"/>
<path d="M151.716 148.534C145.765 147.916 140.502 147.046 135.048 144.333C131.098 142.363 127.898 139.304 124.269 136.826C124.187 136.768 124.112 136.875 124.148 136.954C128.078 146.11 142.968 152.496 151.802 149.19C151.875 149.168 151.939 149.119 151.981 149.051C152.023 148.984 152.04 148.902 152.03 148.822C152.019 148.742 151.982 148.669 151.924 148.616C151.866 148.563 151.792 148.534 151.716 148.534Z" fill="#DADAD9"/>
<path d="M157.438 147.12C156.461 146.901 154.91 147.437 154.164 148.146C154.12 148.193 154.092 148.254 154.084 148.32C154.076 148.386 154.089 148.452 154.121 148.509C154.871 149.915 157.196 149.7 157.954 148.451C158.019 148.331 158.057 148.196 158.065 148.058C158.073 147.92 158.052 147.782 158.002 147.653C157.953 147.525 157.876 147.411 157.778 147.318C157.681 147.226 157.564 147.158 157.438 147.12Z" fill="#DADAD9"/>
<path d="M145.607 65.5538C155.871 64.317 164.865 66.4937 173.371 72.5622C173.726 72.8178 174.152 72.3273 173.937 71.9645C168.655 62.2062 154.402 62.804 145.525 64.923C145.197 65.0096 145.267 65.595 145.607 65.5538Z" fill="#DADAD9"/>
<path d="M86.2132 8.85862C90.9837 9.57596 95.8128 9.29562 100.208 11.6331C104.744 14.0449 108.46 18.8395 111.605 22.9168C111.867 23.2549 112.297 22.822 112.14 22.4757C109.663 16.9142 106.698 12.2804 101.529 9.25027C96.8716 6.52521 91.2025 7.54762 86.2132 8.29794C86.1561 8.31604 86.106 8.35309 86.0704 8.40358C86.0349 8.45408 86.0156 8.51534 86.0156 8.57828C86.0156 8.64121 86.0349 8.70247 86.0704 8.75297C86.106 8.80347 86.1561 8.84052 86.2132 8.85862Z" fill="#DADAD9"/>
<path d="M112.903 25.8445C113.442 26.8092 114.884 25.9229 114.325 24.9664C114.192 24.6744 113.989 24.4248 113.735 24.243C113.481 24.0612 113.186 23.9538 112.879 23.9316C112.799 23.9319 112.719 23.9517 112.647 23.9896C112.574 24.0275 112.511 24.0824 112.462 24.1501C112.413 24.2178 112.379 24.2966 112.364 24.3802C112.348 24.4638 112.351 24.5501 112.372 24.6325C112.509 25.0544 112.687 25.4605 112.903 25.8445Z" fill="#DADAD9"/>
<path d="M95.5057 55.3539C89.1646 56.8546 83.1829 62.5356 81.5381 69.2348C81.5243 69.2964 81.5316 69.3611 81.5587 69.4176C81.5858 69.474 81.6309 69.5185 81.6861 69.5432C81.7413 69.5679 81.803 69.5712 81.8603 69.5525C81.9176 69.5338 81.9668 69.4943 81.9991 69.441C83.7416 66.9385 85.3513 64.4031 87.4689 62.2181C89.9147 59.6909 92.9935 58.0955 95.7987 56.0795C95.8628 56.0227 95.9079 55.9456 95.9274 55.8597C95.9469 55.7738 95.9397 55.6835 95.9068 55.6022C95.874 55.5209 95.8173 55.4529 95.7451 55.4082C95.6728 55.3635 95.5889 55.3445 95.5057 55.3539Z" fill="#DADAD9"/>
<path d="M98.6535 53.5279C98.3869 53.6084 98.1397 53.7478 97.9282 53.9369C97.7167 54.1259 97.5457 54.3604 97.4266 54.6245C97.378 54.7149 97.3557 54.8184 97.3625 54.9221C97.3694 55.0257 97.4051 55.1249 97.4652 55.2073C97.5253 55.2896 97.607 55.3514 97.7003 55.3849C97.7935 55.4183 97.894 55.422 97.9893 55.3955C98.4112 55.2306 98.8254 55.2182 99.2473 55.0162C100.052 54.6287 99.4739 53.2723 98.6535 53.5279Z" fill="#DADAD9"/>
</svg>
