<svg width="33" height="30" viewBox="0 0 33 30" fill="none" xmlns="http://www.w3.org/2000/svg">
<path fill-rule="evenodd" clip-rule="evenodd" d="M9.40206 18.9626C9.40206 19.5112 9.82353 19.9558 10.3434 19.9558H27.3508C27.7711 19.9558 28.1405 19.6619 28.2559 19.2355L32.0214 5.33108C32.1026 5.03142 32.0457 4.70896 31.8678 4.46015C31.6899 4.21135 31.4116 4.06506 31.1163 4.06506H6.57796C6.05806 4.06506 5.6366 4.50972 5.6366 5.05824C5.6366 5.60675 6.05806 6.05141 6.57796 6.05141H29.8683L26.6407 17.9695H10.3434C9.82353 17.9695 9.40206 18.4141 9.40206 18.9626Z" fill="#444444"/>
<path fill-rule="evenodd" clip-rule="evenodd" d="M11.2729 26.6078C11.2729 28.2405 12.5348 29.5642 14.0912 29.5642C15.6476 29.5642 16.9094 28.2405 16.9094 26.6078C16.9094 24.975 15.6476 23.6514 14.0912 23.6514C12.5348 23.6514 11.2729 24.975 11.2729 26.6078ZM14.0912 27.5933C13.5724 27.5933 13.1518 27.152 13.1518 26.6078C13.1518 26.0636 13.5724 25.6223 14.0912 25.6223C14.61 25.6223 15.0306 26.0636 15.0306 26.6078C15.0306 27.152 14.61 27.5933 14.0912 27.5933Z" fill="#444444"/>
<path fill-rule="evenodd" clip-rule="evenodd" d="M20.7845 26.6078C20.7845 28.2405 22.0464 29.5642 23.6028 29.5642C25.1592 29.5642 26.421 28.2405 26.421 26.6078C26.421 24.975 25.1592 23.6514 23.6028 23.6514C22.0464 23.6514 20.7845 24.975 20.7845 26.6078ZM23.6028 27.5933C23.084 27.5933 22.6634 27.152 22.6634 26.6078C22.6634 26.0636 23.084 25.6223 23.6028 25.6223C24.1216 25.6223 24.5422 26.0636 24.5422 26.6078C24.5422 27.152 24.1216 27.5933 23.6028 27.5933Z" fill="#444444"/>
<path fill-rule="evenodd" clip-rule="evenodd" d="M9.10499 19.373C8.17756 21.3386 9.52642 23.6514 11.6004 23.6514H27.2523C27.766 23.6514 28.1823 23.2102 28.1823 22.6659C28.1823 22.1217 27.766 21.6805 27.2523 21.6805H11.6004C10.9091 21.6805 10.4594 20.9097 10.7686 20.2543C10.7686 20.2543 10.7686 20.2543 10.7686 20.2543L11.2827 19.1649C11.5124 18.6781 11.3262 18.0862 10.8668 17.8428C10.4074 17.5994 9.8488 17.7967 9.6191 18.2835L9.10499 19.373Z" fill="#444444"/>
<path fill-rule="evenodd" clip-rule="evenodd" d="M10.5952 19.9172C11.0913 19.7658 11.3785 19.2135 11.2368 18.6837L10.4068 18.9369C11.2368 18.6837 11.2368 18.6836 11.2368 18.6835L11.2366 18.6831L10.7098 16.7138C10.3837 15.4946 9.93229 13.8072 9.43118 11.9339C8.42896 8.18734 7.22791 3.69736 6.43256 0.723701C6.31799 0.295332 5.95141 -9.53674e-06 5.53429 -9.53674e-06H0.934204C0.418258 -9.53674e-06 0 0.446711 0 0.997768C0 1.54883 0.418258 1.99555 0.934204 1.99555H4.82959C5.61784 4.94262 6.71074 9.02828 7.63466 12.4821C8.13577 14.3554 8.58718 16.0429 8.9133 17.262L9.44023 19.2318C9.44026 19.2318 9.44027 19.2319 10.2703 18.9786L9.44027 19.2319C9.58201 19.7617 10.0991 20.0686 10.5952 19.9172Z" fill="#444444"/>
</svg>
