<svg width="322" height="284" viewBox="0 0 322 284" fill="none" xmlns="http://www.w3.org/2000/svg">
<path d="M251.857 69.6048C228.739 61.7892 203.089 63.7259 180.175 72.4269C148.18 37.6654 91.6542 45.1502 55.2365 69.1128C36.4535 81.459 22.1096 100.64 19.3463 123.265C15.7804 152.35 32.9718 178.798 59.3316 189.828C61.899 202.865 64.4008 215.923 67.0065 228.948C67.5594 231.73 71.8173 232.535 73.4771 230.374C82.3478 218.917 90.5509 206.966 99.4933 195.564C99.5377 195.499 99.5787 195.432 99.6163 195.362C111.181 194.443 122.578 192.032 133.524 188.189C161.362 223.913 221.427 213.661 255.991 193.631C256.067 193.661 256.134 193.701 256.221 193.727C270.088 197.93 283.663 203.001 297.504 207.291C300.122 208.108 303.146 205.004 301.986 202.414C296.642 190.253 291.195 178.125 285.82 166.017C308.202 130.529 291.933 83.1579 251.857 69.6048ZM97.2982 187.846C96.5951 187.867 95.9137 188.095 95.3394 188.501C94.7651 188.907 94.3233 189.473 94.0693 190.129C93.9808 190.21 93.8976 190.297 93.82 190.388C86.5553 199.647 79.7732 209.271 72.7294 218.677C70.6538 208.152 68.6165 197.615 66.5354 187.091C66.6105 186.633 66.5769 186.165 66.4373 185.722C66.2977 185.28 66.0561 184.877 65.7318 184.545C65.4815 184.189 65.1544 183.894 64.7747 183.681C64.395 183.469 63.9723 183.344 63.538 183.317C36.6932 172.409 21.9799 145.649 28.119 117.125C32.3213 97.6101 47.8057 82.6144 64.1399 72.486C95.3594 53.1321 145.02 47.3803 172.729 75.5415C164.616 79.2326 156.936 83.8089 149.829 89.1872C120.586 111.391 110.143 148.673 128.874 181.294C128.915 181.425 129.024 181.523 129.091 181.64C118.805 185.069 108.119 187.155 97.2982 187.846ZM135.275 177.064C116.001 147.89 130.765 113.176 156.021 94.0059C179.431 76.2318 211.79 68.4995 240.568 74.3357C281.357 82.5944 301.504 127.562 278.648 163.018C278.298 163.287 278.015 163.634 277.82 164.03C277.626 164.427 277.526 164.863 277.527 165.304C277.452 165.762 277.486 166.231 277.626 166.673C277.765 167.115 278.007 167.519 278.331 167.85C282.673 177.66 287.049 187.459 291.397 197.268C280.212 193.573 269.146 189.624 257.883 186.213C257.762 186.18 257.639 186.154 257.515 186.136C256.931 185.751 256.246 185.545 255.546 185.544C254.846 185.542 254.161 185.745 253.575 186.128C218.877 207.127 161.215 216.331 135.282 177.086L135.275 177.064Z" fill="#DADAD9"/>
<path d="M185.888 143.077C184.403 137.723 178.849 135.063 173.698 136.52C168.68 137.923 166.42 142.953 167.241 147.728C167.259 148.115 167.331 148.497 167.455 148.864C167.562 149.237 167.722 149.592 167.932 149.918C170.004 154.345 174.481 156.418 179.371 155.2C184.786 153.834 187.299 148.158 185.888 143.077ZM178.608 146.717C178.491 146.966 178.324 147.189 178.117 147.371C177.911 147.553 177.669 147.691 177.407 147.776C176.514 148.112 176.542 148.049 175.609 147.802C175.871 147.87 175.481 147.704 175.292 147.541C174.923 147.23 174.937 147.123 174.741 146.559C174.612 146.121 174.555 145.665 174.574 145.209C174.572 145.299 174.653 144.985 174.762 144.758C174.969 144.325 174.82 144.595 175.377 144.052C174.917 144.504 175.936 143.918 175.847 143.903C176.866 143.546 177.871 143.656 178.403 144.903C178.696 145.457 178.779 146.098 178.635 146.708L178.608 146.717Z" fill="#DADAD9"/>
<path d="M197.54 138.164C197.593 138.939 197.83 139.689 198.232 140.354C200.309 144.78 204.786 146.853 209.676 145.635C215.09 144.287 217.604 138.611 216.193 133.529C214.708 128.176 209.159 125.514 204.008 126.971C198.98 128.36 196.72 133.39 197.54 138.164ZM208.688 135.332C208.981 135.892 209.059 136.54 208.907 137.153C208.79 137.403 208.623 137.625 208.417 137.807C208.21 137.99 207.968 138.127 207.707 138.213C206.813 138.549 206.847 138.484 205.908 138.238C206.171 138.306 205.787 138.138 205.591 137.977C205.222 137.666 205.242 137.558 205.04 136.995C204.911 136.557 204.855 136.101 204.873 135.645C204.899 135.727 204.959 135.419 205.068 135.192C205.274 134.76 205.125 135.03 205.682 134.487C205.222 134.939 206.209 134.363 206.147 134.34C207.172 133.962 208.176 134.073 208.71 135.325L208.688 135.332Z" fill="#DADAD9"/>
<path d="M239.958 136.059C245.378 134.71 247.886 129.036 246.48 123.952C244.99 118.601 239.442 115.939 234.29 117.396C229.272 118.799 227.013 123.829 227.833 128.603C227.846 128.991 227.918 129.374 228.048 129.74C228.152 130.113 228.311 130.468 228.519 130.795C230.591 135.205 235.068 137.277 239.958 136.059ZM235.182 126.079C235.208 126.161 235.262 125.855 235.371 125.628C235.578 125.196 235.428 125.466 235.985 124.923C235.526 125.375 236.545 124.788 236.451 124.776C237.47 124.418 238.48 124.527 239.012 125.774C239.304 126.335 239.38 126.983 239.226 127.597C239.109 127.845 238.943 128.068 238.738 128.25C238.532 128.432 238.291 128.569 238.03 128.654C237.131 128.992 237.165 128.927 236.232 128.68C236.5 128.746 236.11 128.58 235.915 128.419C235.551 128.106 235.566 127.999 235.364 127.437C235.229 126.997 235.168 126.539 235.182 126.079Z" fill="#DADAD9"/>
<path d="M71.6017 120.982C66.5839 122.385 64.3242 127.415 65.1429 132.184C65.156 132.571 65.2283 132.954 65.3571 133.32C65.4588 133.694 65.618 134.05 65.8287 134.375C67.9076 138.807 72.385 140.879 77.2691 139.663C82.6892 138.314 85.2025 132.638 83.7896 127.551C82.3013 122.186 76.7565 119.535 71.6017 120.982ZM76.5336 131.171C76.4165 131.421 76.2494 131.643 76.0429 131.825C75.8363 132.008 75.5946 132.146 75.3327 132.231C74.4393 132.567 74.4676 132.504 73.5346 132.256C73.7968 132.324 73.4072 132.158 73.2173 131.995C72.8483 131.684 72.8682 131.576 72.6649 131.008C72.5362 130.572 72.4802 130.117 72.4994 129.663C72.5253 129.745 72.5847 129.437 72.6882 129.212C72.9004 128.778 72.7508 129.048 73.3079 128.505C72.8485 128.957 73.8346 128.381 73.7732 128.358C74.7922 128 75.7964 128.111 76.3284 129.358C76.6142 129.917 76.6871 130.562 76.5336 131.171Z" fill="#DADAD9"/>
<path d="M114.084 117.971C112.595 112.625 107.045 109.958 101.896 111.42C96.8778 112.824 94.6182 117.854 95.437 122.622C95.4501 123.01 95.5223 123.393 95.6512 123.759C95.7556 124.132 95.9145 124.487 96.1227 124.814C98.2016 129.245 102.679 131.318 107.569 130.1C112.983 128.734 115.49 123.055 114.084 117.971ZM106.806 121.617C106.69 121.866 106.523 122.088 106.318 122.27C106.112 122.452 105.871 122.59 105.61 122.675C104.711 123.012 104.745 122.948 103.812 122.7C104.08 122.766 103.69 122.6 103.495 122.439C103.131 122.126 103.146 122.02 102.942 121.452C102.814 121.016 102.758 120.561 102.777 120.107C102.803 120.189 102.862 119.881 102.971 119.654C103.178 119.222 103.028 119.492 103.585 118.949C103.126 119.401 104.145 118.814 104.051 118.802C105.07 118.444 106.079 118.553 106.612 119.8C106.901 120.357 106.977 121 106.828 121.61L106.806 121.617Z" fill="#DADAD9"/>
<path d="M239.739 83.5324C240.748 83.5631 240.685 82.2166 239.89 81.9315C207.789 70.2022 167.919 88.8545 146.127 112.44C145.83 112.756 146.285 113.323 146.633 113.033C172.848 91.3268 206.336 82.6719 239.739 83.5324Z" fill="#DADAD9"/>
<path d="M245.251 84.213C245.455 84.4763 245.728 84.6796 246.038 84.8012C246.741 85.0792 247.481 85.2514 248.235 85.3121C249.698 85.5789 251.729 86.2742 253.035 85.2601C253.186 85.157 253.301 85.009 253.363 84.8369C253.425 84.6649 253.432 84.4776 253.382 84.3016C252.875 82.4449 250.63 82.2383 249.022 82.0654C248.091 81.988 247.154 82.0563 246.244 82.2678C245.904 82.3635 245.595 82.5441 245.344 82.7926L245.175 83.0387C245.11 83.3663 245.064 83.411 245.039 83.16C244.962 83.2107 244.901 83.2803 244.859 83.362C244.818 83.4438 244.799 83.5349 244.803 83.6263C244.808 83.7178 244.836 83.8065 244.885 83.8837C244.935 83.9609 245.003 84.024 245.084 84.0668C245.102 83.8383 245.152 83.8827 245.251 84.213Z" fill="#DADAD9"/>
<path d="M242.909 181.884C228.258 186.014 214.446 192.938 199.526 196.178C199.098 196.271 199.229 196.952 199.654 196.926C214.734 196.044 231.374 192.664 243.456 183.102C243.588 183.012 243.685 182.879 243.729 182.726C243.773 182.572 243.761 182.408 243.696 182.262C243.63 182.117 243.515 181.999 243.371 181.929C243.227 181.86 243.064 181.844 242.909 181.884Z" fill="#DADAD9"/>
<path d="M129.752 65.8973C130.634 65.7334 130.479 64.3854 129.685 64.2147C112.638 60.6002 93.468 66.7046 78.0379 73.6698C64.6328 79.7068 51.286 88.9043 43.626 101.756C43.3703 102.186 43.9765 102.542 44.3048 102.228C55.1903 91.744 67.8218 83.2404 81.6309 77.0994C97.1993 70.2291 113.326 68.9805 129.752 65.8973Z" fill="#DADAD9"/>
<path d="M113.353 177.998C110.425 178.656 107.651 179.869 105.179 181.571C105.119 181.612 105.074 181.671 105.05 181.74C105.026 181.809 105.025 181.884 105.047 181.953C105.069 182.023 105.112 182.083 105.171 182.126C105.23 182.168 105.302 182.191 105.374 182.19C107.98 181.967 110.566 181.554 113.112 180.952C115.743 180.362 118.587 180.235 120.679 178.395C121.083 178.033 120.747 177.446 120.334 177.3C117.998 176.556 115.658 177.403 113.353 177.998Z" fill="#DADAD9"/>
<path d="M167.175 251.237C167.417 251.285 167.668 251.262 167.897 251.17C168.126 251.078 168.323 250.921 168.464 250.719C168.606 250.516 168.685 250.277 168.692 250.03C168.699 249.784 168.635 249.54 168.506 249.33C167.443 247.432 164.011 246.534 161.988 247.124C161.89 247.156 161.8 247.21 161.726 247.282C161.652 247.353 161.596 247.441 161.562 247.538C161.527 247.635 161.515 247.739 161.527 247.841C161.539 247.944 161.574 248.042 161.63 248.128C162.796 249.513 165.391 251.059 167.175 251.237Z" fill="#DADAD9"/>
</svg>
