<svg width="61" height="61" viewBox="0 0 61 61" fill="none" xmlns="http://www.w3.org/2000/svg">
<path d="M44.7935 19.6662C44.7935 22.2931 44.0182 24.8611 42.5656 27.0452C41.113 29.2294 39.0484 30.9318 36.6328 31.9371C34.2173 32.9423 31.5592 33.2054 28.9949 32.6929C26.4305 32.1804 24.075 30.9154 22.2262 29.0579C20.3774 27.2004 19.1183 24.8338 18.6083 22.2574C18.0982 19.681 18.36 17.0104 19.3605 14.5835C20.3611 12.1566 22.0555 10.0822 24.2295 8.62279C26.4034 7.16337 28.9593 6.3844 31.5739 6.3844C35.08 6.3844 38.4424 7.78373 40.9216 10.2746C43.4008 12.7654 44.7935 16.1437 44.7935 19.6662Z" fill="#FFAD33"/>
<path d="M41.4947 19.6662C41.4947 21.6392 40.9124 23.5679 39.8214 25.2084C38.7303 26.8489 37.1797 28.1275 35.3654 28.8825C33.5511 29.6376 31.5547 29.8351 29.6287 29.4502C27.7027 29.0653 25.9335 28.1152 24.545 26.7201C23.1564 25.325 22.2107 23.5475 21.8276 21.6124C21.4445 19.6773 21.6411 17.6715 22.3926 15.8487C23.1441 14.0259 24.4167 12.4679 26.0495 11.3718C27.6824 10.2757 29.602 9.69061 31.5658 9.69061C34.1991 9.69061 36.7245 10.7416 38.5866 12.6124C40.4486 14.4832 41.4947 17.0205 41.4947 19.6662Z" fill="#FCE25C"/>
<path d="M31.5739 9.69874C30.9163 9.702 30.2607 9.77019 29.6165 9.90233C31.8566 10.3641 33.8695 11.5887 35.3149 13.3692C36.7603 15.1496 37.5497 17.3768 37.5497 19.6744C37.5497 21.972 36.7603 24.1991 35.3149 25.9796C33.8695 27.76 31.8566 28.9846 29.6165 29.4464C30.9782 29.7271 32.3833 29.7174 33.741 29.4179C35.0988 29.1184 36.3788 28.5358 37.4982 27.7078C38.6176 26.8798 39.5515 25.8249 40.2395 24.6113C40.9274 23.3978 41.3541 22.0526 41.4918 20.6629C41.6296 19.2731 41.4753 17.8698 41.0391 16.5438C40.6029 15.2178 39.8944 13.9985 38.9595 12.965C38.0246 11.9315 36.8841 11.1067 35.6118 10.544C34.3396 9.98139 32.9639 9.69341 31.5739 9.69874Z" fill="#FFAD33"/>
<path d="M51.9039 37.8667L44.8483 41.409C42.9894 42.34 40.9526 42.8574 38.8767 42.9257L38.9679 41.5007C38.8846 40.6584 38.5225 39.8687 37.9394 39.2578C37.3564 38.6469 36.5862 38.2502 35.7522 38.1313L27.8637 37.2193C26.0401 36.9607 25.1363 36.3479 23.5497 35.4155C21.3851 34.1409 18.922 33.4678 16.4131 33.4652H10.7252V45.6334L22.4778 50.9083C23.3539 51.2365 24.2929 51.3598 25.2235 51.2686L41.0631 49.7194C42.0498 49.623 42.9987 49.2884 43.829 48.7442L54.7711 41.5739C55.2604 41.1919 55.5786 40.6303 55.6558 40.0125C55.7329 39.3948 55.5626 38.7716 55.1824 38.2799C54.8022 37.7883 54.2432 37.4686 53.6283 37.3911C53.0135 37.3136 52.3932 37.4847 51.9039 37.8667Z" fill="#FFECE3"/>
<path d="M55.1378 38.4998C54.903 38.1528 54.5799 37.8753 54.2022 37.6962C53.8244 37.5172 53.4058 37.4432 52.9899 37.4819C52.9369 38.075 52.6608 38.6254 52.2179 39.021L41.2758 46.1892C40.4456 46.734 39.4968 47.0692 38.5099 47.1664L19.5619 49.6013L22.4717 50.9083C23.3477 51.2366 24.2867 51.3598 25.2173 51.2686L41.057 49.7194C42.0437 49.623 42.9926 49.2884 43.8229 48.7442L54.7649 41.574C55.1895 41.1956 55.4624 40.6749 55.5325 40.1091C55.6026 39.5433 55.4652 38.9712 55.1459 38.4998" fill="#FFDDCE"/>
<path d="M12.2288 50.3423H8.96034C8.60097 50.3418 8.25648 50.1981 8.00238 49.9428C7.74827 49.6875 7.60527 49.3414 7.60474 48.9804V32.319C7.60474 31.9578 7.74756 31.6114 8.00178 31.3559C8.25601 31.1005 8.60081 30.957 8.96034 30.957H12.2288C12.5871 30.9586 12.9301 31.1029 13.1827 31.3582C13.4353 31.6135 13.5768 31.959 13.5763 32.319V48.9804C13.5763 49.3412 13.4337 49.6873 13.1799 49.9427C12.9262 50.1981 12.5819 50.3418 12.2227 50.3423" fill="#1967D2"/>
<path d="M31.5739 33.6749C28.8162 33.6749 26.1205 32.8533 23.8276 31.314C21.5346 29.7747 19.7475 27.5869 18.6922 25.0271C17.6369 22.4674 17.3608 19.6507 17.8988 16.9333C18.4368 14.2159 19.7647 11.7198 21.7147 9.76064C23.6647 7.80149 26.1491 6.4673 28.8537 5.92677C31.5584 5.38624 34.3619 5.66366 36.9097 6.72394C39.4574 7.78422 41.635 9.57975 43.1671 11.8835C44.6992 14.1872 45.5169 16.8956 45.5169 19.6662C45.5132 23.3804 44.043 26.9414 41.429 29.5677C38.8149 32.194 35.2707 33.6711 31.5739 33.6749ZM31.5739 7.11119C29.1024 7.11119 26.6864 7.84753 24.6314 9.2271C22.5764 10.6067 20.9747 12.5675 20.0289 14.8616C19.0831 17.1558 18.8356 19.6802 19.3178 22.1156C19.7999 24.5511 20.9901 26.7881 22.7377 28.544C24.4853 30.2999 26.712 31.4956 29.136 31.9801C31.56 32.4645 34.0726 32.2159 36.356 31.2656C38.6394 30.3153 40.591 28.7061 41.9641 26.6415C43.3372 24.5768 44.0701 22.1494 44.0701 19.6662C44.0664 16.3376 42.7486 13.1464 40.4059 10.7926C38.0632 8.43894 34.887 7.11496 31.5739 7.11119Z" fill="#1C1C1B"/>
<path d="M31.574 30.3626C28.7516 30.3593 26.0457 29.2313 24.0502 27.226C22.0547 25.2207 20.9324 22.5019 20.9298 19.6662C20.9212 17.3253 21.6843 15.0475 23.0999 13.1882C23.1575 13.1123 23.2295 13.0485 23.3116 13.0005C23.3938 12.9525 23.4845 12.9212 23.5787 12.9084C23.6729 12.8957 23.7686 12.9017 23.8605 12.9261C23.9524 12.9505 24.0385 12.9929 24.1141 13.0508C24.1897 13.1086 24.2532 13.1809 24.3009 13.2634C24.3487 13.346 24.3798 13.4372 24.3925 13.5318C24.4052 13.6264 24.3993 13.7226 24.375 13.8149C24.3506 13.9072 24.3085 13.9938 24.2509 14.0697C23.026 15.6752 22.3655 17.6434 22.3725 19.6662C22.3726 21.3874 22.8511 23.0744 23.7541 24.5371C24.657 25.9998 25.9486 27.1801 27.4832 27.9451C29.0178 28.7101 30.7345 29.0293 32.44 28.8669C34.1455 28.7045 35.7719 28.0669 37.1362 27.0258C37.2114 26.9643 37.2982 26.9186 37.3913 26.8915C37.4845 26.8644 37.5821 26.8563 37.6785 26.8679C37.7748 26.8794 37.8678 26.9103 37.952 26.9587C38.0362 27.0071 38.1098 27.072 38.1685 27.1496C38.2272 27.2272 38.2698 27.3158 38.2938 27.4102C38.3177 27.5047 38.3225 27.603 38.3078 27.6993C38.2932 27.7956 38.2594 27.888 38.2085 27.971C38.1576 28.0539 38.0906 28.1258 38.0115 28.1822C36.1635 29.602 33.9004 30.3686 31.574 30.3626Z" fill="#1C1C1B"/>
<path d="M39.894 25.8247C39.7638 25.8243 39.636 25.7888 39.5242 25.7218C39.4124 25.6548 39.3205 25.5588 39.2584 25.4439C39.1962 25.3289 39.166 25.1993 39.1708 25.0686C39.1757 24.9378 39.2155 24.8108 39.2861 24.7009C40.4313 22.927 40.9367 20.8123 40.7177 18.7094C40.4988 16.6065 39.5689 14.6426 38.083 13.1452C36.5972 11.6479 34.6453 10.7076 32.5529 10.4813C30.4605 10.255 28.3542 10.7562 26.5852 11.9015C26.5053 11.9534 26.4161 11.989 26.3226 12.0062C26.2291 12.0234 26.1331 12.022 26.0402 12.0019C25.9472 11.9819 25.8591 11.9436 25.7809 11.8894C25.7026 11.8351 25.6358 11.7659 25.5842 11.6857C25.5325 11.6055 25.4972 11.5159 25.48 11.4219C25.4629 11.328 25.4643 11.2316 25.4843 11.1382C25.5042 11.0448 25.5423 10.9563 25.5963 10.8777C25.6502 10.799 25.7191 10.7319 25.799 10.68C27.8462 9.3519 30.2849 8.7696 32.7079 9.03037C35.131 9.29114 37.3916 10.3792 39.1124 12.1128C40.8332 13.8465 41.9099 16.1207 42.1628 18.5559C42.4157 20.991 41.8294 23.4397 40.5019 25.4928C40.4359 25.5945 40.3458 25.6781 40.2397 25.736C40.1336 25.7939 40.0147 25.8244 39.894 25.8247Z" fill="#1C1C1B"/>
<path d="M12.2287 51.0691H8.96029C8.41048 51.0664 7.88407 50.8452 7.49605 50.4539C7.10803 50.0625 6.88993 49.5328 6.8894 48.9803V32.319C6.88994 31.7652 7.10915 31.2342 7.49892 30.8426C7.88869 30.451 8.41718 30.2308 8.9684 30.2302H12.2287C12.7796 30.2313 13.3076 30.4518 13.6969 30.8433C14.0862 31.2349 14.3052 31.7655 14.3057 32.319V41.6839C14.3057 41.8766 14.2295 42.0615 14.0938 42.1978C13.9582 42.3341 13.7742 42.4107 13.5823 42.4107C13.3904 42.4107 13.2064 42.3341 13.0708 42.1978C12.9351 42.0615 12.8589 41.8766 12.8589 41.6839V32.319C12.8589 32.1509 12.7926 31.9896 12.6745 31.8706C12.5563 31.7515 12.396 31.6844 12.2287 31.6838H8.96029C8.79262 31.6838 8.63182 31.7507 8.51325 31.8699C8.39469 31.989 8.32808 32.1505 8.32808 32.319V48.9803C8.32808 49.1488 8.39469 49.3104 8.51325 49.4295C8.63182 49.5486 8.79262 49.6155 8.96029 49.6155H12.2287C12.396 49.615 12.5563 49.5478 12.6745 49.4288C12.7926 49.3097 12.8589 49.1485 12.8589 48.9803V45.0817C12.8589 44.9863 12.8776 44.8918 12.914 44.8036C12.9503 44.7154 13.0036 44.6353 13.0708 44.5678C13.138 44.5003 13.2177 44.4468 13.3055 44.4102C13.3932 44.3737 13.4873 44.3549 13.5823 44.3549C13.6773 44.3549 13.7714 44.3737 13.8591 44.4102C13.9469 44.4468 14.0266 44.5003 14.0938 44.5678C14.161 44.6353 14.2143 44.7154 14.2506 44.8036C14.287 44.8918 14.3057 44.9863 14.3057 45.0817V48.9803C14.3052 49.5338 14.0862 50.0645 13.6969 50.456C13.3076 50.8476 12.7796 51.068 12.2287 51.0691Z" fill="#1C1C1B"/>
<path d="M24.6277 52.0239C23.8051 52.0244 22.9892 51.8768 22.2184 51.5883L22.1758 51.572L13.2884 47.5817C13.1141 47.5026 12.9781 47.3573 12.9102 47.1777C12.8422 46.9981 12.8478 46.7987 12.9258 46.6232C13.0037 46.4477 13.1477 46.3104 13.3261 46.2413C13.5046 46.1721 13.7031 46.1768 13.8781 46.2544L22.7452 50.2344C23.5124 50.5171 24.3329 50.6236 25.1464 50.5459L40.9881 48.9966C41.8553 48.9083 42.689 48.6131 43.4197 48.1355L54.305 40.9978C54.5911 40.7179 54.7635 40.3411 54.7888 39.9407C54.814 39.5402 54.6903 39.1446 54.4417 38.8306C54.193 38.5166 53.8371 38.3066 53.4431 38.2413C53.049 38.1761 52.6449 38.2602 52.3091 38.4774C52.2827 38.4937 52.2564 38.51 52.228 38.5243L45.1704 42.0585C43.2213 43.039 41.0837 43.5828 38.905 43.6525C38.8043 43.6559 38.704 43.638 38.6106 43.6001C38.5171 43.5622 38.4326 43.5051 38.3624 43.4324C38.2921 43.3598 38.2378 43.2732 38.2029 43.1782C38.1679 43.0833 38.1531 42.982 38.1594 42.881L38.2465 41.5068C38.1673 40.8394 37.8712 40.217 37.4041 39.7359C36.937 39.2548 36.325 38.942 35.6629 38.8459L27.7847 37.9339H27.7603C25.9508 37.6753 24.9478 37.0829 23.5618 36.2624L23.1849 36.0344C21.1288 34.8322 18.7919 34.1999 16.413 34.2022H13.5762C13.3843 34.2022 13.2003 34.1256 13.0647 33.9893C12.929 33.853 12.8528 33.6681 12.8528 33.4754C12.8528 33.2826 12.929 33.0977 13.0647 32.9614C13.2003 32.8251 13.3843 32.7486 13.5762 32.7486H16.413C19.0474 32.7486 21.6346 33.4511 23.9103 34.7844L24.2953 35.0124C25.6266 35.8003 26.4331 36.2767 27.9427 36.4945L35.821 37.4066H35.8392C36.8342 37.5459 37.7535 38.0177 38.449 38.746C39.1445 39.4743 39.5757 40.4167 39.673 41.4213C39.676 41.4606 39.676 41.5 39.673 41.5393L39.6345 42.1501C41.328 41.9955 42.9775 41.5232 44.4977 40.7576L51.5168 37.2417C52.1638 36.8183 52.9463 36.6566 53.7071 36.789C54.4679 36.9214 55.1508 37.3381 55.6184 37.9553C56.0861 38.5726 56.304 39.3448 56.2284 40.1169C56.1527 40.8889 55.7892 41.6037 55.2107 42.1175C55.1847 42.1421 55.1561 42.1639 55.1256 42.1827L44.1836 49.3529C43.2675 49.9541 42.2222 50.3275 41.134 50.4421L25.2923 51.9914C25.0715 52.0136 24.8496 52.0245 24.6277 52.0239Z" fill="#1C1C1B"/>
<path d="M28.0035 44.3305C27.8117 44.3362 27.6254 44.265 27.4858 44.1327C27.3461 44.0004 27.2645 43.8178 27.2589 43.6251C27.2532 43.4323 27.324 43.2452 27.4557 43.1049C27.5874 42.9646 27.7691 42.8826 27.961 42.8769L38.8321 42.201C39.0237 42.1891 39.2121 42.2542 39.356 42.3819C39.4998 42.5096 39.5873 42.6895 39.5991 42.882C39.6109 43.0745 39.5461 43.2638 39.419 43.4083C39.2919 43.5528 39.1129 43.6407 38.9213 43.6526L28.0501 44.3285L28.0035 44.3305Z" fill="#1C1C1B"/>
<path d="M35.9486 14.5848H32.7775C33.0783 14.8244 33.3284 15.1219 33.5132 15.46C33.698 15.7981 33.8137 16.1698 33.8534 16.5534H35.9486V17.5184H33.8737C33.6812 19.4871 32.125 20.7432 29.6651 20.8206C31.1645 22.3841 32.7977 24.3528 34.4107 26.3397H32.5667C31.0673 24.5258 29.6651 22.8462 27.8596 20.9162V19.7192H28.9153C30.9903 19.7192 32.1047 18.8499 32.2405 17.5184H27.8596V16.5534H32.1817C31.9122 15.4337 30.895 14.8739 29.2233 14.8739H27.8596V13.6198H35.9486V14.5848Z" fill="#1C1C1B"/>
</svg>
