<svg width="125" height="136" viewBox="0 0 125 136" fill="none" xmlns="http://www.w3.org/2000/svg">
<path d="M5.75346 77.4906C7.2151 77.6636 7.82037 78.5229 8.0085 79.955C9.15877 88.7113 10.524 97.4284 13.5532 105.78C16.4142 113.669 20.5254 120.703 27.5122 125.694C31.7905 128.75 36.5358 130.71 41.7514 131.492C43.2219 131.871 44.6549 132.491 46.2345 132.05C54.0102 129.882 60.7938 126.078 66.1705 119.96C71.409 114 74.5587 106.949 76.8119 99.4408C79.4085 90.7884 80.7307 81.8798 82.0566 72.9755C83.0012 66.6319 83.8672 60.2769 85.1353 53.9855C85.5682 51.8377 84.2557 50.5231 82.1505 50.9745C81.176 51.1834 80.2226 51.4908 79.2596 51.7535C72.5267 53.1598 65.8018 54.5704 58.9522 55.3676C47.1686 56.7392 35.4593 56.3505 23.7801 54.3738C18.6156 53.4998 13.4981 52.4104 8.42758 51.1058C5.62513 50.3888 4.41732 51.5361 4.80405 54.4085C5.47134 59.3648 6.08463 64.3284 6.75855 69.2837C6.95995 70.7646 6.59384 71.8412 5.06189 72.3076C3.56765 72.2088 2.94029 71.353 2.76666 69.9153C2.13223 64.6619 1.40628 59.4196 0.775233 54.1659C0.201971 49.3932 4.073 45.9494 8.72139 47.1062C18.6655 49.5809 28.6881 51.5592 38.9538 52.0468C41.01 52.1445 43.0714 52.1285 45.1288 52.2057C46.0384 52.2399 46.4055 52.0927 46.063 51.0319C43.1212 41.9224 40.4595 32.7144 37.232 23.7086C35.4321 18.6863 38.886 13.6955 44.5543 14.3201C52.4467 15.1899 60.4138 15.0514 68.3452 14.3473C69.9035 14.209 71.4805 13.9798 72.0687 16.0018C71.92 17.5735 71.0149 18.1269 69.4827 18.2703C60.8432 19.0787 52.2068 18.8983 43.5659 18.3634C41.3711 18.2275 40.1567 19.6261 40.8692 21.6741C44.1718 31.167 46.8493 40.8574 49.9781 50.4053C50.4413 51.8187 51.0939 52.1056 52.4879 52.0066C62.2614 51.3125 71.8251 49.4456 81.3085 47.0741C84.756 46.212 88.0692 48.1126 89.0215 51.4668C89.2247 52.1826 89.2501 52.9489 89.3605 53.7134C89.5427 53.698 89.724 53.6731 89.9037 53.6388C96.2117 52.0859 101.898 49.2256 107.177 45.4824C109.556 43.7953 112.005 44.4366 113.328 47.0625C113.665 47.7317 113.792 48.5066 114.016 49.233C114.677 54.2545 113.781 59.0325 111.765 63.6356C111.489 63.8323 111.398 64.1184 111.378 64.4386L111.407 64.38C111.097 64.5348 111.014 64.8118 111.006 65.1291L111.04 65.0892C110.919 65.208 110.77 65.3089 110.681 65.448C105.008 74.2777 96.8648 78.5693 86.4315 78.5727C85.396 78.573 85.1534 78.9968 85.0123 79.8513C84.4768 83.0953 83.9448 86.3413 83.3089 89.5663C83.1247 90.5 83.5143 90.7055 84.2341 90.814C86.6748 91.182 89.1159 91.5451 91.5972 91.3062C93.1819 91.5983 94.7594 91.6877 96.2503 90.9325C101.77 88.1369 106.655 84.5372 110.508 79.6343C116.981 71.3981 119.338 61.7235 120.232 51.5685C121.204 40.521 120.409 29.4722 120.107 18.4245C120.004 14.6632 119.998 10.8993 119.933 7.13677C119.896 4.97555 118.362 3.99068 116.379 4.8626C115.527 5.23716 114.71 5.69031 113.877 6.10776C113.332 6.31461 112.777 6.49969 112.243 6.73153C101.808 11.2591 91.104 14.922 79.8734 16.9392C78.3588 17.2113 77.2136 17.0417 76.4811 15.5866C76.5238 14.05 77.3133 13.2931 78.8364 13.0336C91.3344 10.9042 103.164 6.67601 114.554 1.23745C119.355 -1.05487 124.11 2.85431 123.984 7.31103C123.637 19.4942 124.905 31.6646 124.631 43.859C124.429 52.8418 123.531 61.704 120.34 70.2013C116.137 81.3927 108.461 89.3619 97.8115 94.5927C96.5941 95.1992 95.2499 95.5073 93.8899 95.4914C90.4167 95.4486 86.9327 95.4276 83.5205 94.6923C82.5299 94.4788 82.2041 94.6797 81.9713 95.6549C80.988 99.7743 79.7519 103.821 78.1601 107.751C72.6902 121.258 63.4317 130.746 49.3568 135.334C46.0583 136.41 43.0213 135.957 39.8363 135.283C24.8408 132.109 15.6394 122.55 10.3468 108.65C6.86646 99.5093 5.31588 89.9382 4.01411 80.3094C3.81509 78.8374 4.35557 77.9255 5.75346 77.4906Z" fill="#060606"/>
</svg>
