<svg width="14" height="22" viewBox="0 0 14 22" fill="none" xmlns="http://www.w3.org/2000/svg">
<path d="M8.42705 16.0894L8.41171 16.077H5.02299L5.00764 16.0887C2.3468 16.3692 0.392639 17.2899 0.392639 18.3817C0.392639 19.6975 3.22157 20.7629 6.7126 20.7629C10.2036 20.7629 13.0355 19.6975 13.0355 18.3817C13.0355 17.2899 11.0857 16.3736 8.42705 16.0894Z" fill="#85E374"/>
<path d="M6.76306 1.23726C7.59314 1.24351 8.41387 1.41399 9.17836 1.73896C9.94285 2.06394 10.6361 2.53705 11.2186 3.13126C11.8011 3.72548 12.2613 4.42916 12.5731 5.20212C12.8848 5.97508 13.042 6.80217 13.0355 7.63616C13.0136 10.6062 11.2553 12.3551 8.41175 16.0799C7.88265 16.773 7.31555 17.5344 6.71556 18.3847C6.11704 17.5337 5.5514 16.7694 5.02303 16.0799C2.1466 12.3037 0.372948 10.5819 0.39268 7.53924C0.398894 6.70513 0.568622 5.88042 0.892167 5.11223C1.21571 4.34405 1.68673 3.64744 2.27832 3.0622C2.86991 2.47697 3.57047 2.01458 4.33998 1.70145C5.10949 1.38832 5.93286 1.23059 6.76306 1.23726ZM9.0892 7.60458C9.09265 7.13366 8.95704 6.67228 8.69951 6.27879C8.44198 5.88529 8.0741 5.57736 7.64238 5.39393C7.21067 5.21051 6.73451 5.15981 6.27412 5.24827C5.81373 5.33673 5.38978 5.56036 5.05589 5.8909C4.72201 6.22143 4.49317 6.64401 4.39832 7.10521C4.30347 7.5664 4.34687 8.0455 4.52303 8.48191C4.6992 8.91833 5.00021 9.29246 5.388 9.557C5.77579 9.82154 6.23295 9.9646 6.70167 9.9681C7.01291 9.97042 7.32155 9.91113 7.60997 9.79361C7.8984 9.67608 8.16096 9.50263 8.38266 9.28316C8.60437 9.06368 8.78087 8.80248 8.9021 8.51447C9.02333 8.22646 9.0869 7.91728 9.0892 7.60458Z" fill="#1967D2"/>
<path d="M6.75061 3.22116C6.82883 3.22174 6.90547 3.199 6.97082 3.1558C7.03617 3.1126 7.0873 3.0509 7.11774 2.9785C7.14817 2.9061 7.15655 2.82625 7.1418 2.74907C7.12706 2.67188 7.08985 2.60083 7.0349 2.5449C6.97994 2.48896 6.90971 2.45067 6.83308 2.43485C6.75646 2.41904 6.67688 2.42642 6.60443 2.45606C6.53198 2.48569 6.46991 2.53626 6.42607 2.60135C6.38224 2.66645 6.35861 2.74314 6.35817 2.82174C6.35769 2.87389 6.36747 2.92563 6.38696 2.97397C6.40645 3.02232 6.43526 3.06631 6.47173 3.10343C6.5082 3.14055 6.55161 3.17006 6.59947 3.19027C6.64733 3.21047 6.6987 3.22097 6.75061 3.22116Z" fill="#1C1C1B"/>
<path d="M6.73602 4.80861C6.0026 4.80316 5.29707 5.09065 4.77463 5.60783C4.25219 6.12502 3.95564 6.82954 3.95021 7.56641C3.94478 8.30328 4.23093 9.01213 4.74569 9.53703C5.26046 10.0619 5.96168 10.3599 6.69509 10.3653H6.71629C7.4497 10.368 8.15412 10.0778 8.67457 9.55857C9.19503 9.03939 9.48888 8.33375 9.4915 7.59688C9.49412 6.86001 9.20528 6.15228 8.68852 5.62938C8.17177 5.10648 7.46943 4.81124 6.73602 4.80861ZM6.71556 9.57162H6.70094C6.17705 9.56967 5.67538 9.35871 5.3063 8.98513C4.93722 8.61156 4.73096 8.10599 4.7329 7.57963C4.73483 7.05327 4.94481 6.54924 5.31663 6.17842C5.68845 5.8076 6.19166 5.60037 6.71556 5.60232H6.73017C7.25407 5.60427 7.75574 5.81523 8.12482 6.1888C8.4939 6.56237 8.70015 7.06795 8.69822 7.59431C8.69628 8.12067 8.4863 8.6247 8.11448 8.99552C7.74266 9.36634 7.23945 9.57356 6.71556 9.57162Z" fill="#1C1C1B"/>
<path d="M8.43877 2.7285C8.34129 2.69834 8.23598 2.7072 8.14485 2.75323C8.05372 2.79926 7.98382 2.87889 7.94976 2.97548C7.9157 3.07208 7.92011 3.17816 7.96208 3.27157C8.00404 3.36497 8.08032 3.43846 8.17495 3.47669C9.02511 3.78019 9.76002 4.34231 10.2775 5.08487C10.795 5.82743 11.0693 6.71354 11.0623 7.62C11.062 7.67206 11.0718 7.7237 11.0913 7.77195C11.1107 7.8202 11.1395 7.86413 11.1759 7.90122C11.2122 7.93831 11.2555 7.96784 11.3033 7.98812C11.351 8.0084 11.4022 8.01904 11.4541 8.01942C11.5583 8.01962 11.6585 7.97834 11.7325 7.90459C11.8066 7.83085 11.8486 7.73064 11.8494 7.62587C11.8577 6.55474 11.5337 5.50761 10.9225 4.62996C10.3113 3.7523 9.44318 3.0877 8.43877 2.7285Z" fill="#1C1C1B"/>
<path d="M13.4309 7.63615C13.4442 5.84676 12.7496 4.12531 11.4997 2.85052C10.2497 1.57573 8.54699 0.852006 6.76597 0.838569C4.98496 0.825133 3.27158 1.52308 2.00275 2.77887C0.733931 4.03466 0.0136009 5.74543 0.000227252 7.53483C-0.0224275 10.5885 1.65037 12.358 4.29587 15.7781C1.66499 16.1731 0.000227252 17.1658 0.000227252 18.3803C0.000227252 19.1938 0.748566 19.9222 2.10785 20.4361C3.34437 20.9016 4.98136 21.1586 6.71555 21.1586C8.44974 21.1586 10.0867 20.9016 11.3196 20.4361C12.6789 19.9222 13.4272 19.1938 13.4272 18.3803C13.4272 17.1666 11.7654 16.1776 9.13523 15.7789C11.7668 12.3823 13.4089 10.6106 13.4309 7.63615ZM12.6409 18.3817C12.6409 19.3186 10.1065 20.3642 6.71555 20.3642C3.32464 20.3642 0.790222 19.3164 0.790222 18.3817C0.790222 17.6871 2.30517 16.8097 4.85201 16.5058C5.41545 17.2481 5.90874 17.9221 6.39253 18.6108C6.42906 18.6626 6.47735 18.7049 6.53341 18.7341C6.58946 18.7633 6.65166 18.7787 6.71482 18.779C6.77795 18.779 6.84016 18.7638 6.89624 18.7347C6.95232 18.7055 7.00062 18.6633 7.0371 18.6116C7.5165 17.9317 8.02368 17.2407 8.58201 16.5065C11.1274 16.8141 12.6409 17.6879 12.6409 18.3817ZM8.09822 15.8354C7.60274 16.4845 7.14818 17.0983 6.71628 17.6989C6.28657 17.0983 5.83932 16.4955 5.33653 15.8354C2.43891 12.0416 0.769029 10.4336 0.790222 7.54217C0.802045 5.96328 1.43766 4.45378 2.55723 3.34573C3.67681 2.23769 5.18863 1.62187 6.76013 1.63375C8.33162 1.64563 9.83405 2.28423 10.9369 3.40907C12.0398 4.53392 12.6527 6.05286 12.6409 7.63175C12.6197 10.4549 10.8782 12.1943 8.09822 15.8354Z" fill="#1C1C1B"/>
</svg>
