<svg width="44" height="20" viewBox="0 0 44 20" fill="none" xmlns="http://www.w3.org/2000/svg">
<path d="M42.4586 19.8939C42.8328 19.762 43.1665 19.538 43.4276 19.2433C43.6888 18.9485 43.8688 18.5929 43.9504 18.2104C44.0321 17.8278 44.0126 17.4311 43.894 17.058C43.7753 16.685 43.5614 16.348 43.2726 16.0793C43.1155 15.9327 42.9343 15.8132 42.7367 15.7259C33.6425 10.4575 24.4477 5.35916 15.1523 0.430874C14.929 0.315029 14.6887 0.234045 14.4401 0.190805C14.0559 -0.00382012 13.6121 -0.0515632 13.1942 0.0568294C12.7764 0.165222 12.4143 0.422038 12.1778 0.777647C8.25366 5.75261 4.19044 10.6209 0.422301 15.7059C0.19406 15.9747 0.0511809 16.3035 0.0113848 16.6515C-0.0284113 16.9995 0.0366379 17.3513 0.19846 17.6632C0.256119 18.7269 0.975142 19.7505 2.37251 19.7539C15.427 19.7806 28.4883 19.9539 41.5327 19.984C41.7739 20.0147 42.0189 20.0012 42.2551 19.9439L42.401 19.9106L42.4586 19.8939ZM14.4434 5.1124C20.7746 8.49129 27.0537 11.9502 33.2808 15.4892C24.2996 15.4358 15.3185 15.3824 6.33736 15.3291C8.97269 11.888 11.7301 8.51352 14.4434 5.1124Z" fill="#DADAD9" fill-opacity="0.74"/>
</svg>
