<svg width="228" height="141" viewBox="0 0 228 141" fill="none" xmlns="http://www.w3.org/2000/svg">
<path d="M40.9052 138.697C28.801 115.18 15.8301 92.0419 3.28631 69.6645L2.77185 68.7473L3.75639 68.395C5.16801 67.9043 6.5006 67.3883 7.79159 66.8892C8.46689 66.6277 9.11863 66.3747 9.77175 66.13C9.05494 65.1323 8.46255 64.0494 8.00791 62.9059L7.86231 62.5424L8.03564 62.1914C8.65409 60.9331 9.43063 59.4734 10.5122 58.257C11.1875 57.4964 12.222 56.5681 13.5823 56.02C13.323 55.4901 13.0803 54.9378 12.8418 54.3967C12.656 53.9773 12.4633 53.5383 12.265 53.1146L11.9183 52.375L12.6283 51.9751C22.8272 46.2287 34.6056 45.4542 44.7823 45.4542C45.9929 45.4542 47.2783 45.4653 48.6983 45.4905H48.7343H48.7718C63.2965 46.9818 77.2501 51.9842 89.4483 60.0732C90.656 53.6571 92.4989 47.8366 94.9339 42.7543C98.3619 35.3593 102.581 28.3639 107.515 21.8925L107.535 21.8674L107.557 21.8422C115.353 13.0115 125.141 5.99975 135.863 1.56901L136.571 1.27679L136.95 1.94791C138.762 5.16366 140.598 7.88026 142.545 10.2264C144.585 9.05988 146.889 8.44259 149.234 8.43393C149.999 8.43374 150.762 8.50158 151.514 8.63666L151.861 8.69958L152.067 8.9876C160.444 20.7111 168.542 30.9805 176.815 40.3803L176.836 40.404C183.993 49.1355 191.845 57.3328 200.842 65.4631L202.216 66.7047L200.393 66.9843C199.107 67.1772 197.841 67.4861 196.61 67.9071C203.169 73.1697 208.998 79.8822 213.527 87.4057L214.455 88.9436L212.681 88.7325C208.965 88.2893 204.705 87.8181 200.457 87.7272C203.721 91.252 207.71 94.2244 211.583 97.1102C215.926 100.346 220.416 103.691 224.038 107.876L225.213 109.235L221.958 109.404C197.657 110.662 172.533 111.971 149.233 120.045C145.006 124.85 140.392 129.487 134.615 129.487C134.347 129.487 134.074 129.477 133.806 129.456C130.517 129.206 127.722 127.438 125.018 125.728C124.186 125.203 123.334 124.662 122.49 124.19C117.369 121.286 111.234 119.875 103.732 119.875C100.404 119.875 96.8087 120.155 92.7582 120.725C74.8212 123.291 57.593 129.523 42.1296 139.041L41.3323 139.533L40.9052 138.697Z" fill="white"/>
<path d="M223.386 108.456C198.409 109.757 172.683 110.951 148.736 119.296C144.514 124.11 139.752 129.032 133.875 128.586C129.817 128.278 126.469 125.436 122.921 123.424C113.907 118.309 102.89 118.406 92.6414 119.856C74.5816 122.421 57.2361 128.696 41.6786 138.293C29.5661 114.759 16.8032 91.9918 4.04028 69.2244C6.60839 68.3323 8.88114 67.3718 11.1996 66.5385C10.1959 65.3588 9.3907 64.0212 8.81597 62.5789C9.46631 61.2521 10.1832 59.942 11.1608 58.8417C12.1384 57.7413 13.4072 56.8521 14.8438 56.5557C14.1976 55.4218 13.6693 54.0614 13.0522 52.7443C23.8072 46.6848 36.5105 46.1591 48.6896 46.3702C63.4645 47.8886 77.829 53.14 90.0747 61.5555C91.1563 55.2638 92.9354 48.9624 95.7239 43.1432C99.1225 35.7976 103.311 28.8505 108.214 22.4269C115.912 13.6909 125.479 6.83439 136.192 2.37598C138.017 5.6113 140.02 8.6327 142.364 11.3605C145.024 9.61921 148.237 8.95365 151.361 9.49676C159.326 20.647 167.447 31.0674 176.166 40.9635C183.604 50.0375 191.681 58.3607 200.263 66.1163C198.406 66.3904 196.592 66.9074 194.866 67.6542C201.938 73.0581 208.068 80.0265 212.788 87.8617C208.172 87.3122 203.342 86.8005 198.518 86.8382C205.461 95.2062 216.144 100.076 223.386 108.456Z" fill="white"/>
<path d="M145.154 121.62C144.815 121.91 144.494 122.221 144.193 122.551C144.256 122.323 144.378 122.116 144.547 121.953C144.716 121.789 144.926 121.674 145.154 121.62Z" fill="#ED1C24"/>
<path d="M223.817 107.536C220.777 104.51 217.353 101.816 214.043 99.2128C209.157 95.3679 204.102 91.3832 200.372 86.3666L200.095 86.0017L199.644 86.0157C184.145 86.4673 170.057 93.2259 160.802 98.2761C154.432 101.799 149.518 107.575 144.763 113.158C142.397 115.935 139.954 118.807 137.365 121.358C136.85 121.864 134.515 121.957 132.814 122.021C132.305 122.042 131.779 122.061 131.266 122.089C131.076 122.099 130.875 122.11 130.677 122.11C130.358 122.121 130.039 122.078 129.733 121.985C129.335 121.845 128.949 121.551 128.543 121.238L128.462 121.178C120.176 114.822 109.196 111.321 94.8885 110.478C92.8334 110.356 90.9323 110.296 89.0811 110.296C87.4948 110.296 85.9389 110.342 84.458 110.436C71.6396 111.209 58.1196 115.566 43.1464 123.749C37.9145 113.263 32.5273 102.581 27.3148 92.2375C22.7638 83.2082 18.0588 73.8741 12.2598 65.3496L11.9547 64.8994L11.4208 64.9749C8.15522 65.4433 5.23074 67.2749 3.59447 69.8684L3.31714 70.3089L3.56813 70.7647C14.2177 90.1011 25.6688 109.962 36.7414 129.167C38.2667 131.823 40.0014 134.82 39.9889 138.012V139.41L41.4616 138.695C53.3786 132.91 65.7019 126.928 78.4856 123.395C86.8638 121.081 95.1436 119.91 103.095 119.91C108.033 119.897 112.96 120.376 117.805 121.339L118.205 121.522C120.662 122.64 123.206 123.794 125.258 125.539C125.438 125.692 125.616 125.85 125.796 126.011C126.446 126.59 127.119 127.19 127.96 127.604C129.174 128.202 130.504 128.29 131.527 128.303H131.704C134.376 128.297 137.02 127.754 139.481 126.706C141.941 125.657 144.17 124.124 146.036 122.196L146.633 121.58C149.024 119.903 152.098 119.046 155.07 118.31C177.398 112.783 200.248 109.675 223.231 109.039L225.271 108.983L223.817 107.536ZM154.86 117.463C151.416 118.319 147.811 119.331 145.154 121.627C145.237 121.605 145.322 121.594 145.408 121.594C143.598 123.453 141.438 124.927 139.055 125.931C136.671 126.934 134.113 127.445 131.53 127.435C130.438 127.425 129.319 127.311 128.34 126.828C127.385 126.357 126.629 125.569 125.817 124.88C123.529 122.935 120.661 121.692 118.071 120.509C104.924 117.838 91.1889 118.988 78.254 122.562C65.3192 126.136 53.1262 132.069 40.8667 138.021C40.8778 134.684 39.1639 131.618 37.4999 128.733C26.2374 109.196 14.9735 89.6607 4.33773 70.3466C5.88941 67.8789 8.69047 66.257 11.5484 65.8488C17.3045 74.3104 21.9331 83.4892 26.5438 92.6373C31.999 103.459 37.4541 114.279 42.7789 124.956C55.7054 117.8 69.7953 112.204 84.5176 111.314C87.9581 111.124 91.4068 111.139 94.8455 111.36C106.567 112.051 118.599 114.716 127.944 121.884C128.417 122.247 128.894 122.626 129.458 122.821C130.052 123.026 130.695 123.009 131.32 122.973C134.041 122.821 137.053 122.906 137.976 121.994C145.785 114.297 151.857 104.238 161.222 99.0534C173.058 92.5982 185.93 87.309 199.673 86.9007C205.999 95.4294 215.689 100.689 223.201 108.171C200.158 108.803 177.248 111.916 154.86 117.456V117.463Z" fill="#ED1C24"/>
<path d="M154.861 117.456C151.416 118.312 147.811 119.324 145.154 121.62C144.926 121.674 144.716 121.789 144.547 121.952C144.378 122.116 144.256 122.323 144.193 122.551C144.494 122.221 144.815 121.91 145.154 121.62C145.237 121.598 145.322 121.587 145.408 121.588C143.599 123.446 141.439 124.921 139.055 125.924C136.672 126.927 134.113 127.438 131.53 127.428C130.439 127.418 129.32 127.305 128.341 126.821C127.385 126.35 126.63 125.563 125.817 124.873C123.529 122.928 120.661 121.685 118.071 120.503C104.924 117.831 91.1892 118.981 78.2544 122.555C65.3196 126.129 53.1266 132.063 40.8671 138.014C40.8782 134.677 39.1643 131.611 37.5003 128.727C26.2378 109.189 14.9739 89.6538 4.33813 70.3398C5.88981 67.872 8.69088 66.2502 11.5488 65.8419C17.3049 74.3035 21.9336 83.4824 26.5442 92.6305C31.9994 103.452 37.4545 114.272 42.7793 124.949C55.7058 117.793 69.7957 112.198 84.518 111.307C87.9585 111.117 91.4072 111.132 94.8459 111.353C106.567 112.044 118.599 114.709 127.944 121.877C128.417 122.241 128.894 122.619 129.458 122.814C130.052 123.019 130.695 123.003 131.321 122.966C134.041 122.814 137.053 122.899 137.977 121.987C145.785 114.291 151.857 104.231 161.223 99.0466C173.058 92.5913 185.93 87.3021 199.674 86.8939C206 95.4226 215.69 100.682 223.201 108.164C200.158 108.798 177.248 111.913 154.861 117.456Z" fill="#ED1C24"/>
<path d="M145.154 121.62C144.815 121.91 144.494 122.221 144.193 122.551C144.256 122.323 144.378 122.116 144.547 121.953C144.716 121.789 144.926 121.674 145.154 121.62Z" fill="#ED1C24"/>
<path d="M41.3756 140.176C40.872 140.177 40.3775 140.041 39.9446 139.781C39.5118 139.522 39.1566 139.149 38.917 138.702L16.5404 97.1871C11.7397 88.2837 6.77544 79.0782 0.911227 70.7397C0.487041 70.1298 0.319364 69.3756 0.444801 68.6415C0.570239 67.9075 0.978604 67.2533 1.58074 66.8218C2.18288 66.3902 2.92988 66.2164 3.65867 66.3383C4.38746 66.4602 5.03883 66.8678 5.47059 67.4722C11.5276 76.0834 16.5722 85.4398 21.4505 94.4886L42.3892 133.315C57.264 123.794 73.3119 117.766 90.1155 115.394C93.9451 114.837 97.8084 114.549 101.678 114.531C111.814 114.531 120.316 116.777 126.948 121.205C128.903 122.534 131.209 123.24 133.567 123.23C135.447 123.241 137.301 122.784 138.964 121.899C140.262 121.2 141.478 120.222 142.764 119.187C143.573 118.537 144.41 117.864 145.313 117.23C150.814 113.344 157.452 111.735 163.241 110.53C179.435 107.164 196.637 105.277 215.749 104.775C209.283 99.9149 204.775 95.9525 198.807 90.5543C198.255 90.0537 197.923 89.3526 197.884 88.6053C197.845 87.858 198.102 87.1257 198.599 86.5695C199.095 86.0133 199.79 85.6787 200.532 85.6394C201.273 85.6001 201.999 85.8592 202.551 86.3598C210.455 93.5127 217.111 99.0243 225.838 105.155C226.326 105.498 226.692 105.988 226.885 106.555C227.077 107.122 227.086 107.735 226.909 108.307C226.733 108.879 226.38 109.38 225.903 109.737C225.425 110.093 224.848 110.287 224.253 110.291C202.106 110.401 182.515 112.289 164.38 116.059C159.138 117.15 153.158 118.587 148.53 121.855C147.763 122.396 147.005 123.012 146.258 123.607C144.826 124.756 143.354 125.937 141.616 126.878C139.138 128.197 136.376 128.88 133.574 128.866C130.056 128.866 126.592 127.808 123.823 125.887C118.153 122.102 110.705 120.178 101.7 120.178C98.0849 120.197 94.4756 120.467 90.8976 120.986C73.9609 123.38 57.8242 129.674 42.937 139.698C42.4755 140.011 41.9317 140.177 41.3756 140.176Z" fill="black"/>
<path d="M42.5981 139.86C42.2514 139.859 41.9113 139.765 41.6134 139.586C41.3155 139.407 41.0708 139.151 40.905 138.844L18.5284 97.3353C13.7152 88.4082 8.73573 79.1762 2.84516 70.7998C2.69702 70.5918 2.59112 70.3563 2.53356 70.1069C2.47599 69.8574 2.46788 69.599 2.50971 69.3463C2.55154 69.0937 2.64248 68.852 2.77729 68.6349C2.91211 68.4178 3.08814 68.2298 3.29527 68.0816C3.50241 67.9333 3.73656 67.8278 3.98426 67.7712C4.23197 67.7145 4.48834 67.7077 4.73865 67.7513C4.98895 67.7948 5.22825 67.8878 5.44278 68.0249C5.65732 68.1621 5.84286 68.3406 5.98874 68.5502C12.0138 77.1167 17.0474 86.4465 21.9146 95.48L43.2929 135.133C58.2841 125.386 74.4776 119.232 91.4574 116.834C106.648 114.686 118.836 116.596 127.688 122.508C131.441 125.11 136.616 125.399 140.597 123.244C141.963 122.505 143.208 121.505 144.528 120.448C145.328 119.804 146.157 119.138 147.034 118.519C152.399 114.731 158.934 113.147 164.644 111.961C181.463 108.466 199.475 106.56 219.541 106.166C212.371 100.882 205.423 95.2074 198.834 89.2484C198.645 89.0781 198.491 88.8718 198.381 88.6415C198.271 88.4112 198.208 88.1613 198.194 87.9061C198.179 87.6509 198.215 87.3955 198.299 87.1543C198.383 86.9131 198.513 86.6909 198.682 86.5004C198.851 86.3099 199.056 86.1548 199.284 86.044C199.512 85.9332 199.76 85.8689 200.013 85.8547C200.266 85.8405 200.52 85.8767 200.759 85.9612C200.998 86.0457 201.219 86.1769 201.408 86.3473C209.379 93.5531 217.779 100.262 226.56 106.436C226.896 106.672 227.149 107.01 227.281 107.4C227.414 107.791 227.42 108.214 227.298 108.608C227.176 109.002 226.933 109.347 226.604 109.592C226.275 109.838 225.877 109.971 225.468 109.973C203.264 110.084 183.622 111.977 165.425 115.762C160.097 116.869 154.015 118.333 149.252 121.695C148.474 122.246 147.727 122.846 146.937 123.481C145.54 124.599 144.098 125.76 142.426 126.666C137.205 129.487 130.419 129.108 125.539 125.725C117.514 120.377 106.22 118.673 91.9995 120.683C74.9311 123.093 58.6724 129.435 43.6756 139.532C43.3569 139.747 42.9817 139.861 42.5981 139.86Z" fill="black"/>
<path d="M3.65479 72.8061C3.11722 72.806 2.59107 72.6497 2.13932 72.3559C1.68757 72.0621 1.32936 71.6433 1.10756 71.1495C0.885764 70.6558 0.809784 70.1081 0.888712 69.5719C0.96764 69.0358 1.19813 68.5339 1.5526 68.1265C2.35964 67.1967 2.86994 66.7688 4.11655 66.2236C5.70844 65.5245 7.35164 64.8939 8.99901 64.3375C9.34736 64.2199 9.71528 64.1726 10.0818 64.1984C10.4482 64.2241 10.8061 64.3224 11.1349 64.4876C11.4637 64.6528 11.757 64.8817 11.9981 65.1612C12.2391 65.4407 12.4232 65.7654 12.5399 66.1166C12.6565 66.4679 12.7034 66.8388 12.6778 67.2083C12.6523 67.5778 12.5548 67.9387 12.3909 68.2702C12.2271 68.6017 12.0001 68.8974 11.7229 69.1405C11.4457 69.3836 11.1237 69.5692 10.7753 69.6868C9.28189 70.1915 7.78983 70.7676 6.33799 71.4009C6.02322 71.5407 6.02322 71.5407 5.75698 71.8455C5.49447 72.1472 5.17118 72.3889 4.80867 72.5545C4.44616 72.7201 4.05278 72.8059 3.65479 72.8061Z" fill="black"/>
<path d="M3.65478 71.9297C3.28455 71.9293 2.92227 71.8214 2.61125 71.6189C2.30023 71.4164 2.05363 71.1278 1.90094 70.7878C1.74824 70.4477 1.69592 70.0705 1.75021 69.7012C1.8045 69.332 1.96312 68.9863 2.2071 68.7055C2.94342 67.8569 3.3511 67.5143 4.4632 67.0278C6.03707 66.3399 7.65254 65.7149 9.27494 65.1682C9.51611 65.0825 9.77178 65.046 10.0271 65.0609C10.2824 65.0758 10.5322 65.1418 10.7619 65.255C10.9917 65.3682 11.1968 65.5263 11.3653 65.7202C11.5339 65.9142 11.6624 66.1399 11.7436 66.3844C11.8247 66.6289 11.8568 66.8873 11.8379 67.1444C11.8191 67.4016 11.7497 67.6523 11.6337 67.8822C11.5178 68.112 11.3577 68.3162 11.1627 68.483C10.9677 68.6498 10.7417 68.7759 10.498 68.8537C8.98374 69.3655 7.46811 69.9513 5.99409 70.5944C5.50182 70.8098 5.50182 70.8098 5.10523 71.2642C4.92479 71.4733 4.70193 71.6409 4.45169 71.7558C4.20146 71.8706 3.9297 71.9299 3.65478 71.9297Z" fill="black"/>
<path d="M134.083 123.398C133.897 123.399 133.712 123.36 133.541 123.285C133.37 123.21 133.217 123.1 133.09 122.962C132.953 123.11 132.785 123.226 132.599 123.301C132.412 123.375 132.211 123.407 132.01 123.394C131.81 123.38 131.615 123.322 131.439 123.223C131.264 123.124 131.113 122.987 130.996 122.822C126.409 116.35 118.753 112.057 107.596 109.692C98.2336 107.71 89.2424 106.704 80.8739 106.704C66.1849 106.704 53.0019 109.78 41.7075 115.861C41.5118 115.967 41.2931 116.022 41.071 116.022C40.9164 116.022 40.763 115.995 40.6176 115.942C40.4419 115.88 40.2811 115.781 40.1452 115.652C40.0094 115.524 39.9016 115.368 39.8286 115.195C32.6498 98.3589 24.7458 81.4035 17.1191 65.006L16.9805 64.7194C15.2573 61.0161 13.5323 57.305 11.8054 53.5859C11.6576 53.2678 11.6375 52.9045 11.7491 52.5718C11.8607 52.2391 12.0955 51.9627 12.4045 51.8005C21.0559 47.2467 31.3144 44.8419 42.0791 44.8419C45.4732 44.8442 48.8632 45.0801 52.2254 45.5479C64.9078 47.3096 77.4544 52.0074 89.535 59.5113C91.8674 46.7601 97.3475 34.5599 105.429 24.152C113.796 13.3765 124.295 5.37208 135.789 1.00565C136.09 0.89078 136.422 0.88839 136.725 0.998911C137.028 1.10943 137.282 1.32557 137.44 1.60826C149.105 22.3093 185.126 54.6219 185.488 54.9463C185.664 55.1034 185.797 55.3042 185.872 55.5288C185.948 55.7533 185.964 55.9939 185.919 56.2267C185.874 56.4595 185.77 56.6764 185.616 56.8559C185.462 57.0355 185.265 57.1715 185.043 57.2505C173.022 61.547 163.376 66.6181 155.553 72.7504C146.16 80.12 139.329 89.18 135.797 98.9503C132.871 107.05 132.708 115.063 135.337 121.514C135.421 121.72 135.454 121.945 135.432 122.168C135.41 122.39 135.334 122.604 135.21 122.79C135.087 122.976 134.92 123.128 134.724 123.233C134.529 123.339 134.31 123.394 134.089 123.394L134.083 123.398ZM80.8711 103.977C89.4283 103.977 98.6066 105.001 108.151 107.023C118.941 109.308 126.698 113.365 131.776 119.398C130.052 112.967 130.551 105.499 133.254 98.0177C136.959 87.7637 144.095 78.2828 153.892 70.5986C161.478 64.6481 170.688 59.693 182.01 55.458C174.154 48.2673 146.495 22.3316 135.679 3.97253C113.455 12.9291 95.8929 36.13 91.8605 61.9608C91.8259 62.185 91.7363 62.3969 91.5998 62.5773C91.4634 62.7577 91.2844 62.9009 91.0791 62.9938C90.8739 63.0867 90.6488 63.1264 90.4244 63.1094C90.2001 63.0924 89.9835 63.0191 89.7943 62.8962C77.5196 54.9701 64.7539 50.0416 51.8524 48.2478C48.6137 47.7978 45.3484 47.5708 42.0791 47.5683C32.2338 47.5683 22.8308 49.6655 14.8131 53.6278C16.3588 56.9592 17.9049 60.2844 19.4515 63.6036L19.6013 63.9238C27.0269 79.8781 34.7007 96.3609 41.7352 112.772C53.135 106.935 66.2959 103.977 80.8711 103.977Z" fill="black"/>
<path d="M134.082 122.518C133.987 122.518 133.893 122.489 133.813 122.435C133.734 122.381 133.672 122.305 133.636 122.216C130.833 115.338 130.987 106.851 134.071 98.317C137.72 88.2196 144.758 78.8744 154.425 71.2922C162.236 65.1655 171.807 60.0888 183.664 55.7839C178.879 51.4496 147.195 22.3317 136.049 2.88207C113.202 11.7491 95.1239 35.3793 91 61.8253C90.9876 61.9052 90.9556 61.9806 90.907 62.0449C90.8583 62.1091 90.7945 62.1601 90.7214 62.1931C90.6482 62.2262 90.568 62.2403 90.4881 62.2342C90.4082 62.2281 90.331 62.2019 90.2637 62.1581C77.8807 54.162 64.9972 49.1902 51.9708 47.3796C38.2706 45.4767 24.6868 47.5502 13.6669 53.2253C15.3661 56.8884 17.0647 60.5427 18.7629 64.1882C26.3341 80.4529 34.1619 97.2656 41.306 113.983C59.4311 104.406 81.8563 102.351 107.971 107.882C119.6 110.344 127.62 114.873 132.489 121.749C132.531 121.8 132.562 121.86 132.58 121.924C132.598 121.988 132.603 122.055 132.594 122.121C132.585 122.187 132.563 122.251 132.529 122.308C132.494 122.365 132.449 122.414 132.395 122.452C132.341 122.491 132.28 122.518 132.215 122.531C132.151 122.545 132.084 122.545 132.019 122.531C131.954 122.518 131.893 122.491 131.839 122.453C131.785 122.414 131.74 122.365 131.706 122.308C126.991 115.647 119.155 111.237 107.774 108.828C81.6636 103.3 59.298 105.403 41.2963 115.082C41.2375 115.114 41.1728 115.133 41.1063 115.138C41.0399 115.143 40.9731 115.134 40.9103 115.111C40.8475 115.089 40.7899 115.054 40.7413 115.008C40.6927 114.962 40.6541 114.906 40.6279 114.845C33.4325 97.9829 25.5313 81.0093 17.8866 64.5964C16.1255 60.8112 14.3626 57.0161 12.5978 53.2113C12.5452 53.098 12.538 52.9685 12.5778 52.8499C12.6176 52.7314 12.7013 52.6329 12.8114 52.5751C24.078 46.6456 38.0307 44.4575 52.1026 46.4135C65.0513 48.2129 77.853 53.1008 90.1652 60.9417C94.5817 34.3083 112.961 10.6082 136.092 1.82367C136.199 1.78282 136.317 1.78191 136.425 1.82112C136.533 1.86033 136.624 1.93708 136.681 2.03759C148.401 22.8435 184.543 55.2778 184.905 55.6021C184.968 55.6581 185.016 55.7298 185.043 55.81C185.07 55.8902 185.075 55.9762 185.059 56.0593C185.043 56.1425 185.006 56.2199 184.951 56.2839C184.896 56.348 184.825 56.3963 184.746 56.4243C172.634 60.7515 162.91 65.866 155.013 72.0584C145.493 79.5287 138.563 88.7243 134.977 98.6512C131.976 106.958 131.817 115.196 134.529 121.848C134.577 121.967 134.576 122.101 134.527 122.22C134.478 122.339 134.384 122.433 134.265 122.483C134.207 122.506 134.145 122.518 134.082 122.518Z" fill="black"/>
<path d="M135.992 123.446H135.926C135.57 123.428 135.235 123.269 134.994 123.004C134.754 122.739 134.626 122.389 134.64 122.03C134.649 121.846 135.561 103.641 150.726 88.3482C158.395 80.615 168.266 74.5372 180.052 70.2771C185.876 68.1798 191.861 66.6572 197.542 65.3542C180.468 48.9455 164.788 30.5961 150.921 10.7872C150.493 10.7438 150.06 10.7214 149.63 10.7214C147.361 10.7198 145.132 11.3227 143.168 12.4691C142.858 12.6499 142.489 12.6991 142.142 12.6061C141.796 12.513 141.5 12.2853 141.32 11.9728C141.231 11.8179 141.173 11.6469 141.149 11.4695C141.126 11.292 141.137 11.1117 141.183 10.9387C141.229 10.7657 141.308 10.6036 141.416 10.4614C141.524 10.3193 141.658 10.2 141.812 10.1104C144.188 8.7231 146.886 7.9929 149.632 7.99365C150.384 7.9937 151.135 8.04931 151.879 8.16003C152.06 8.18699 152.234 8.2504 152.39 8.34648C152.546 8.44257 152.681 8.56936 152.788 8.71929C167.131 29.2819 183.433 48.259 201.243 65.1277C201.422 65.2975 201.552 65.5132 201.619 65.7517C201.685 65.9902 201.686 66.2425 201.621 66.4815C201.556 66.7205 201.428 66.9372 201.25 67.1083C201.073 67.2794 200.852 67.3985 200.612 67.4528C194.601 68.7964 187.633 70.4323 180.966 72.8413C169.552 76.9644 160.027 82.8282 152.639 90.272C138.261 104.771 137.351 121.964 137.343 122.136C137.33 122.488 137.182 122.821 136.93 123.066C136.678 123.31 136.342 123.446 135.992 123.446Z" fill="black"/>
<path d="M135.992 122.569H135.972C135.845 122.564 135.724 122.508 135.637 122.413C135.55 122.319 135.504 122.193 135.509 122.064C135.518 121.885 136.398 104.037 151.342 88.9687C158.919 81.3306 168.676 75.32 180.346 71.1045C186.784 68.778 193.466 67.1701 199.325 65.8503C181.734 49.1032 165.617 30.3051 151.407 9.962C148.403 9.56726 145.354 10.182 142.731 11.7111C142.676 11.7431 142.616 11.764 142.553 11.7725C142.491 11.7811 142.427 11.7771 142.366 11.7608C142.305 11.7445 142.248 11.7162 142.197 11.6776C142.147 11.6389 142.105 11.5907 142.073 11.5356C142.041 11.4805 142.021 11.4197 142.012 11.3565C142.004 11.2934 142.008 11.2292 142.024 11.1676C142.04 11.106 142.068 11.0482 142.106 10.9975C142.145 10.9468 142.192 10.9042 142.247 10.8722C145.119 9.19626 148.469 8.54696 151.753 9.02944C151.817 9.03922 151.879 9.0621 151.935 9.09671C151.99 9.13132 152.038 9.17692 152.076 9.23077C166.462 29.8395 182.797 48.8628 200.647 65.7706C200.71 65.831 200.757 65.9079 200.781 65.993C200.804 66.078 200.805 66.168 200.781 66.2532C200.758 66.3384 200.712 66.4156 200.649 66.4764C200.585 66.5372 200.506 66.5793 200.421 66.5983C194.386 67.9489 187.386 69.5931 180.672 72.0175C169.137 76.184 159.499 82.1192 152.024 89.6538C137.358 104.443 136.48 121.927 136.473 122.102C136.468 122.227 136.415 122.346 136.325 122.433C136.236 122.52 136.116 122.568 135.992 122.569Z" fill="black"/>
<path d="M138.313 123.398C138.012 123.397 137.719 123.295 137.481 123.107C137.199 122.884 137.017 122.558 136.974 122.199C136.931 121.841 137.03 121.479 137.251 121.195C137.343 121.077 146.509 109.249 151.118 105.108C157.06 99.7639 164.858 94.9333 173.077 91.5065C182.332 87.6462 191.945 85.6049 200.877 85.6049C204.072 85.6001 207.262 85.8681 210.412 86.406C205.995 79.616 200.46 73.6379 194.044 68.7306C193.819 68.5574 193.654 68.3177 193.572 68.0452C193.49 67.7727 193.494 67.4811 193.585 67.2114C193.676 66.9416 193.848 66.7072 194.077 66.5411C194.307 66.375 194.582 66.2855 194.864 66.2852C195.16 66.2848 195.448 66.3831 195.683 66.5648C203.309 72.4371 209.422 79.3425 214.386 87.6769C214.522 87.9059 214.589 88.1702 214.578 88.437C214.566 88.7038 214.478 88.9614 214.322 89.1778C214.167 89.3942 213.952 89.5598 213.704 89.6542C213.457 89.7485 213.187 89.7674 212.929 89.7084C208.966 88.7808 204.911 88.3187 200.844 88.3312C180.905 88.3312 162.559 98.4664 152.907 107.145C148.559 111.06 139.456 122.761 139.371 122.878C139.246 123.04 139.085 123.171 138.902 123.261C138.719 123.351 138.517 123.398 138.313 123.398Z" fill="black"/>
<path d="M138.313 122.517C138.205 122.518 138.101 122.482 138.016 122.414C137.966 122.375 137.924 122.326 137.893 122.27C137.862 122.215 137.842 122.154 137.834 122.09C137.826 122.027 137.831 121.963 137.848 121.901C137.865 121.84 137.894 121.782 137.933 121.732C138.309 121.247 147.199 109.798 151.692 105.758C165.245 93.5729 189.825 82.8547 212.229 87.6476C207.593 80.0671 201.607 73.4166 194.572 68.0315C194.474 67.9517 194.412 67.8369 194.397 67.7115C194.383 67.5861 194.417 67.4599 194.493 67.3595C194.569 67.2591 194.681 67.1924 194.805 67.1736C194.928 67.1547 195.055 67.1851 195.157 67.2584C202.588 72.9505 208.863 80.0319 213.64 88.116C213.688 88.198 213.711 88.2925 213.707 88.3879C213.703 88.4832 213.67 88.5751 213.615 88.6521C213.559 88.7292 213.482 88.788 213.393 88.8212C213.304 88.8544 213.208 88.8605 213.115 88.8388C190.748 83.5174 165.924 94.2511 152.327 106.478C147.898 110.46 138.778 122.207 138.685 122.325C138.641 122.383 138.585 122.431 138.521 122.464C138.457 122.498 138.385 122.516 138.313 122.517Z" fill="black"/>
<path d="M133.313 123.423C133.075 123.423 132.841 123.359 132.635 123.238C132.429 123.117 132.258 122.944 132.14 122.735C127.413 114.409 121.641 106.534 116.054 98.9152L89.2127 62.2711C89.0637 62.0684 88.9735 61.8279 88.9521 61.5765C88.9307 61.3251 88.979 61.0727 89.0916 60.8474C89.2042 60.622 89.3767 60.4327 89.5898 60.3004C89.8029 60.1682 90.0482 60.0982 90.2985 60.0983C90.5106 60.0996 90.7195 60.1509 90.9084 60.248C91.0974 60.3451 91.2613 60.4853 91.387 60.6576L118.236 97.3031C123.863 104.983 129.681 112.925 134.486 121.389C134.574 121.544 134.631 121.716 134.654 121.894C134.676 122.071 134.664 122.252 134.617 122.424C134.571 122.597 134.491 122.759 134.382 122.901C134.274 123.042 134.138 123.161 133.984 123.25C133.779 123.366 133.548 123.425 133.313 123.423Z" fill="black"/>
<path d="M133.313 122.546C133.228 122.545 133.145 122.522 133.072 122.479C132.999 122.437 132.939 122.375 132.897 122.301C128.145 113.932 122.358 106.033 116.761 98.3925L89.9184 61.7498C89.8496 61.6457 89.8233 61.5189 89.8449 61.3957C89.8664 61.2725 89.9342 61.1624 90.0341 61.0883C90.134 61.0142 90.2584 60.9817 90.3815 60.9976C90.5045 61.0135 90.6168 61.0766 90.6949 61.1738L117.535 97.8123C123.148 105.473 128.952 113.393 133.731 121.813C133.773 121.887 133.795 121.97 133.795 122.055C133.794 122.14 133.772 122.223 133.73 122.297C133.688 122.37 133.628 122.431 133.555 122.474C133.482 122.517 133.4 122.539 133.315 122.54L133.313 122.546Z" fill="black"/>
<path d="M125.127 90.5556C124.98 90.5556 124.834 90.532 124.695 90.4857C124.355 90.3692 124.075 90.1213 123.916 89.7965C123.757 89.4718 123.732 89.0966 123.847 88.7534C129.606 71.6568 143.034 57.611 159.761 51.1795C160.097 51.0508 160.469 51.0617 160.796 51.2097C161.123 51.3577 161.379 51.6308 161.507 51.9688C161.634 52.3067 161.623 52.682 161.477 53.012C161.33 53.342 161.059 53.5997 160.724 53.7283C144.734 59.8732 131.903 73.294 126.4 89.6314C126.309 89.8998 126.138 90.1331 125.91 90.2987C125.681 90.4643 125.408 90.5541 125.127 90.5556Z" fill="black"/>
<path d="M125.127 89.6791C125.074 89.679 125.021 89.6705 124.971 89.6539C124.85 89.6122 124.751 89.5239 124.694 89.4083C124.638 89.2927 124.629 89.1593 124.67 89.0373C130.346 72.184 143.583 58.3381 160.085 52.0003C160.204 51.9545 160.336 51.9584 160.453 52.0111C160.569 52.0638 160.66 52.161 160.706 52.2813C160.751 52.4017 160.747 52.5353 160.695 52.6527C160.643 52.7702 160.546 52.8619 160.427 52.9077C144.203 59.1449 131.168 72.7614 125.59 89.3491C125.557 89.4462 125.494 89.5304 125.411 89.5897C125.328 89.6489 125.228 89.6802 125.127 89.6791Z" fill="#FFFF00"/>
<path d="M118.332 80.6441C118.107 80.645 117.886 80.5897 117.688 80.4831C117.491 80.3764 117.322 80.2218 117.198 80.0332C117.074 79.8445 116.999 79.6278 116.979 79.4025C116.959 79.1772 116.995 78.9504 117.084 78.7426C117.478 77.8161 117.865 76.9003 118.244 75.9952C122.456 65.9858 126.091 57.3411 135.198 50.7516C135.489 50.5389 135.852 50.4516 136.207 50.5089C136.562 50.5662 136.88 50.7634 137.091 51.0571C137.302 51.3508 137.389 51.7169 137.332 52.0749C137.275 52.433 137.079 52.7536 136.788 52.9663C128.298 59.1097 124.798 67.4273 120.746 77.0592L120.729 77.0983C120.352 77.995 119.968 78.902 119.578 79.8192C119.474 80.065 119.3 80.2743 119.078 80.421C118.856 80.5677 118.597 80.6453 118.332 80.6441Z" fill="black"/>
<path d="M118.332 79.7663C118.266 79.7662 118.202 79.7529 118.142 79.7271C118.083 79.7021 118.031 79.6658 117.986 79.6202C117.942 79.5745 117.907 79.5205 117.884 79.4613C117.86 79.402 117.849 79.3387 117.85 79.2749C117.851 79.2111 117.864 79.1481 117.889 79.0895C118.284 78.1574 118.671 77.2398 119.051 76.3366C123.211 66.4503 126.804 57.9104 135.711 51.4649C135.815 51.3937 135.942 51.3663 136.066 51.3885C136.19 51.4107 136.3 51.4807 136.374 51.5836C136.447 51.6866 136.478 51.8143 136.459 51.9397C136.44 52.065 136.374 52.1781 136.274 52.2548C127.586 58.5465 124.042 66.9634 119.939 76.7225C119.556 77.6299 119.171 78.5485 118.774 79.4782C118.736 79.5645 118.674 79.6377 118.596 79.6889C118.517 79.7401 118.425 79.767 118.332 79.7663Z" fill="#FFFF00"/>
<path d="M143.149 47.5067C142.866 47.5072 142.591 47.4186 142.361 47.2534C142.131 47.0882 141.958 46.8546 141.867 46.5854C141.775 46.3161 141.769 46.0247 141.85 45.7519C141.93 45.4792 142.094 45.2387 142.317 45.0641C144.994 42.9669 147.69 41.6988 149.855 40.6725L150.006 40.6012C150.33 40.4472 150.702 40.4294 151.04 40.5518C151.377 40.6743 151.653 40.9269 151.806 41.2542C151.959 41.5814 151.976 41.9565 151.855 42.2968C151.733 42.6371 151.483 42.9149 151.158 43.069L151.004 43.1417C148.955 44.112 146.41 45.3172 143.971 47.2215C143.735 47.4049 143.446 47.5051 143.149 47.5067Z" fill="black"/>
<path d="M143.149 46.6286C143.048 46.629 142.95 46.5976 142.868 46.5388C142.786 46.4799 142.724 46.3967 142.692 46.3007C142.659 46.2047 142.657 46.1008 142.686 46.0036C142.715 45.9064 142.774 45.8209 142.853 45.759C145.455 43.7289 148.102 42.4747 150.229 41.4667L150.38 41.3954C150.496 41.3397 150.629 41.3327 150.75 41.3758C150.87 41.419 150.969 41.5087 151.024 41.6254C151.079 41.742 151.086 41.8759 151.044 41.9977C151.001 42.1195 150.912 42.2192 150.796 42.2748L150.645 42.3461C148.565 43.3332 145.965 44.5622 143.448 46.528C143.362 46.5942 143.257 46.6297 143.149 46.6286Z" fill="#FFFF00"/>
<path d="M109.437 71.7716C109.276 71.7713 109.117 71.7424 108.967 71.6863C108.63 71.5605 108.358 71.3053 108.208 70.9768C108.059 70.6483 108.045 70.2733 108.169 69.9344C115.255 50.6623 125.74 38.9808 142.165 32.0529C142.331 31.9838 142.508 31.9481 142.688 31.9481C143 31.9479 143.303 32.0567 143.544 32.2561C143.786 32.4554 143.952 32.733 144.014 33.0417C144.075 33.3504 144.029 33.6711 143.883 33.9494C143.737 34.2277 143.5 34.4463 143.212 34.5682C127.533 41.187 117.514 52.3792 110.704 70.8824C110.608 71.1431 110.435 71.3679 110.208 71.5268C109.982 71.6857 109.713 71.7711 109.437 71.7716Z" fill="black"/>
<path d="M109.436 70.8933C109.358 70.8932 109.281 70.8742 109.213 70.8379C109.144 70.8016 109.085 70.7491 109.04 70.6849C108.996 70.6207 108.968 70.5466 108.958 70.469C108.948 70.3914 108.957 70.3125 108.983 70.239C115.979 51.2144 126.317 39.688 142.501 32.8623C142.618 32.817 142.748 32.8196 142.863 32.8694C142.979 32.9192 143.07 33.0124 143.118 33.1292C143.167 33.246 143.168 33.3771 143.122 33.4949C143.076 33.6126 142.987 33.7077 142.872 33.7599C126.955 40.471 116.782 51.8268 109.888 70.5774C109.853 70.6703 109.792 70.7504 109.711 70.8069C109.63 70.8634 109.534 70.8936 109.436 70.8933Z" fill="#FFFF00"/>
<path d="M101.612 64.7206C101.403 64.7202 101.196 64.6707 101.009 64.5759C100.822 64.4811 100.659 64.3438 100.534 64.1747C100.408 64.0055 100.323 63.8093 100.286 63.6015C100.249 63.3936 100.26 63.1799 100.319 62.9771C100.636 61.8754 100.934 60.7695 101.224 59.6999L101.235 59.6579C102.795 53.8808 104.268 48.4294 108.425 43.6673C108.662 43.3958 108.996 43.2305 109.354 43.2075C109.712 43.1846 110.065 43.306 110.334 43.5449C110.603 43.7839 110.767 44.121 110.79 44.4819C110.813 44.8428 110.692 45.1981 110.455 45.4695C106.711 49.7576 105.325 54.9126 103.845 60.3724C103.523 61.565 103.231 62.6388 102.916 63.7377C102.833 64.0215 102.661 64.2705 102.426 64.4477C102.191 64.6249 101.906 64.7206 101.612 64.7206Z" fill="black"/>
<path d="M101.611 63.8441C101.565 63.8441 101.518 63.8375 101.473 63.8245C101.351 63.787 101.249 63.7028 101.189 63.59C101.128 63.4773 101.114 63.345 101.15 63.2219C101.474 62.1034 101.774 60.9849 102.07 59.8888C103.596 54.2165 105.049 48.8573 109.074 44.2476C109.161 44.1583 109.278 44.1057 109.402 44.1009C109.525 44.0961 109.646 44.1393 109.739 44.2217C109.832 44.3041 109.89 44.4193 109.901 44.5436C109.912 44.6678 109.875 44.7916 109.798 44.8894C105.916 49.3313 104.503 54.5828 103.004 60.1446C102.706 61.2464 102.403 62.3635 102.079 63.4932C102.049 63.595 101.988 63.6844 101.904 63.7478C101.819 63.8111 101.717 63.845 101.611 63.8441Z" fill="#FFFF00"/>
<path d="M114.174 40.3484C113.864 40.348 113.563 40.2404 113.322 40.0436C113.043 39.8149 112.866 39.4841 112.829 39.1239C112.793 38.7636 112.9 38.4035 113.126 38.1225C115.41 35.2885 118.257 31.7582 121.811 29.6721C122.121 29.4906 122.49 29.4408 122.837 29.5336C123.183 29.6264 123.479 29.8543 123.659 30.1671C123.839 30.4798 123.889 30.8519 123.797 31.2014C123.705 31.551 123.479 31.8493 123.168 32.0308C120.041 33.8638 117.369 37.1802 115.223 39.8437C115.097 40.0015 114.937 40.1288 114.755 40.2162C114.574 40.3035 114.375 40.3487 114.174 40.3484Z" fill="black"/>
<path d="M114.174 39.4756C114.083 39.4761 113.993 39.4503 113.916 39.4013C113.839 39.3523 113.777 39.2822 113.737 39.1991C113.698 39.1159 113.683 39.0232 113.694 38.9318C113.705 38.8404 113.742 38.7541 113.8 38.6829C116.041 35.9019 118.831 32.4401 122.247 30.4338C122.358 30.3691 122.489 30.3512 122.612 30.3841C122.736 30.417 122.841 30.498 122.905 30.6092C122.969 30.7205 122.987 30.8529 122.955 30.9773C122.922 31.1017 122.842 31.208 122.731 31.2727C119.467 33.1867 116.739 36.5731 114.55 39.2939C114.505 39.3506 114.448 39.3964 114.383 39.4279C114.318 39.4594 114.246 39.4757 114.174 39.4756Z" fill="#FFFF00"/>
<path d="M126.837 29.2259C126.567 29.2255 126.303 29.1434 126.08 28.9904C125.856 28.8373 125.683 28.6202 125.583 28.3671C125.483 28.114 125.461 27.8365 125.519 27.5704C125.577 27.3043 125.712 27.0618 125.908 26.8742C127.589 25.2677 130.836 22.9593 133.154 22.017C133.319 21.9444 133.498 21.9062 133.679 21.9044C133.859 21.9026 134.038 21.9373 134.206 22.0066C134.373 22.0758 134.524 22.1781 134.652 22.3075C134.779 22.4369 134.879 22.5907 134.947 22.7598C135.014 22.9289 135.047 23.1099 135.044 23.292C135.04 23.4742 135.001 23.6539 134.928 23.8204C134.854 23.987 134.749 24.137 134.617 24.2617C134.485 24.3863 134.33 24.4831 134.16 24.5462C132.287 25.3054 129.24 27.446 127.768 28.8526C127.517 29.0927 127.183 29.2264 126.837 29.2259Z" fill="black"/>
<path d="M126.837 28.3493C126.741 28.3494 126.646 28.3203 126.566 28.2657C126.487 28.2111 126.425 28.1335 126.389 28.043C126.354 27.9526 126.346 27.8534 126.367 27.7584C126.388 27.6634 126.437 27.577 126.507 27.5104C128.135 25.9543 131.324 23.7018 133.477 22.8308C133.594 22.7886 133.723 22.7937 133.837 22.8453C133.95 22.8968 134.04 22.9906 134.086 23.1071C134.133 23.2237 134.133 23.3538 134.087 23.4704C134.04 23.587 133.951 23.681 133.837 23.7326C131.817 24.5505 128.706 26.7512 127.169 28.2165C127.079 28.3019 126.96 28.3495 126.837 28.3493Z" fill="#FFFF00"/>
<path d="M131.197 124.275C128.32 124.295 125.457 123.851 122.719 122.959C122.547 122.906 122.387 122.818 122.249 122.702C122.111 122.585 121.998 122.442 121.916 122.28C121.833 122.119 121.784 121.943 121.77 121.762C121.756 121.581 121.778 121.399 121.835 121.227C121.892 121.054 121.982 120.895 122.1 120.759C122.219 120.622 122.363 120.511 122.525 120.431C122.687 120.352 122.863 120.306 123.043 120.296C123.222 120.285 123.402 120.312 123.572 120.373C126.036 121.171 128.61 121.568 131.199 121.547C133.44 121.534 135.675 121.296 137.87 120.835C142.905 119.804 147.768 117.782 151.931 115.968C152.099 115.894 152.282 115.856 152.466 115.857C152.777 115.857 153.078 115.965 153.319 116.163C153.56 116.361 153.726 116.637 153.789 116.944C153.852 117.251 153.808 117.571 153.664 117.849C153.521 118.127 153.287 118.347 153.001 118.471C148.715 120.339 143.698 122.424 138.408 123.505C136.036 124.003 133.62 124.261 131.197 124.275Z" fill="black"/>
<path d="M131.197 123.399C128.412 123.421 125.642 122.992 122.992 122.128C122.87 122.087 122.77 122 122.713 121.885C122.655 121.77 122.645 121.636 122.685 121.514C122.705 121.453 122.736 121.397 122.777 121.348C122.818 121.3 122.869 121.26 122.926 121.231C122.982 121.203 123.044 121.186 123.107 121.181C123.171 121.177 123.234 121.186 123.294 121.206C127.619 122.648 132.585 122.814 138.041 121.697C143.159 120.648 148.071 118.607 152.274 116.776C152.391 116.725 152.524 116.723 152.643 116.77C152.761 116.818 152.856 116.911 152.907 117.029C152.958 117.148 152.959 117.281 152.912 117.401C152.865 117.521 152.773 117.617 152.655 117.668C148.408 119.519 143.441 121.582 138.234 122.649C135.919 123.136 133.561 123.387 131.197 123.399Z" fill="black"/>
<path d="M43.3427 126.54C43.1024 126.54 42.8665 126.476 42.6594 126.353C42.4523 126.23 42.2818 126.053 42.1655 125.841C38.0595 118.571 34.2906 110.931 30.6464 103.549C23.9405 89.963 17.0127 75.9297 7.71372 63.5617C7.56095 63.3613 7.46697 63.1216 7.44246 62.87C7.41795 62.6185 7.46389 62.365 7.57506 62.1384C8.97535 59.2541 11.2392 56.8864 14.0466 55.3699C14.3631 55.1997 14.7337 55.1633 15.0768 55.2685C15.4199 55.3738 15.7075 55.6122 15.8763 55.9313C16.0451 56.2504 16.0813 56.624 15.9769 56.97C15.8725 57.316 15.6361 57.606 15.3196 57.7762C13.2593 58.8911 11.5497 60.5654 10.3844 62.6096C19.5767 75.007 26.4296 88.8948 33.0592 102.317C36.4857 109.259 40.0175 116.415 43.8239 123.257C50.7919 118.965 58.3011 115.639 66.1493 113.367C74.1786 111.024 82.4941 109.83 90.8527 109.817C95.6054 109.817 100.349 110.227 105.033 111.043C115.294 112.834 123.567 116.403 129.599 121.651C129.737 121.767 129.851 121.909 129.933 122.07C130.016 122.231 130.066 122.406 130.081 122.587C130.096 122.767 130.075 122.949 130.019 123.121C129.963 123.293 129.874 123.452 129.756 123.589C129.639 123.726 129.496 123.838 129.335 123.919C129.174 124 128.999 124.047 128.819 124.058C128.64 124.07 128.46 124.045 128.291 123.986C128.121 123.927 127.965 123.834 127.831 123.713C122.176 118.796 114.351 115.434 104.572 113.729C100.04 112.944 95.4499 112.551 90.8513 112.554C74.5857 112.554 57.9707 117.448 44.068 126.329C43.8511 126.467 43.5995 126.541 43.3427 126.54Z" fill="black"/>
<path d="M43.3437 125.663C43.3045 125.663 43.2655 125.658 43.2273 125.649C43.1638 125.634 43.1043 125.605 43.0523 125.565C43.0003 125.525 42.957 125.475 42.925 125.417C38.826 118.155 35.0612 110.528 31.4156 103.152C24.6972 89.5449 17.7514 75.4684 8.39696 63.0388C8.34308 62.9673 8.30999 62.8821 8.30142 62.7927C8.29285 62.7033 8.30913 62.6133 8.34843 62.5327C9.66806 59.813 11.8025 57.5807 14.4498 56.1515C14.5625 56.0909 14.6945 56.0779 14.8167 56.1154C14.9389 56.1529 15.0414 56.2378 15.1015 56.3515C15.1616 56.4651 15.1745 56.5982 15.1373 56.7214C15.1001 56.8447 15.0159 56.948 14.9032 57.0086C12.527 58.2951 10.5924 60.2764 9.35376 62.6921C18.6666 75.1356 25.5875 89.1591 32.2809 102.72C35.8419 109.934 39.5221 117.389 43.5129 124.495C61.9071 112.89 84.2463 108.305 104.883 111.911C114.994 113.676 123.117 117.177 129.029 122.319C129.077 122.361 129.116 122.411 129.144 122.468C129.173 122.525 129.19 122.587 129.195 122.651C129.199 122.714 129.191 122.778 129.172 122.839C129.152 122.899 129.121 122.955 129.079 123.003C129.038 123.052 128.988 123.091 128.931 123.12C128.875 123.149 128.813 123.166 128.75 123.171C128.687 123.175 128.624 123.168 128.564 123.148C128.504 123.128 128.448 123.096 128.401 123.054C122.622 118.029 114.656 114.603 104.719 112.869C84.1492 109.28 61.871 113.916 43.6003 125.592C43.5229 125.639 43.4341 125.664 43.3437 125.663Z" fill="black"/>
<path d="M47.9398 98.3783C47.6398 98.3784 47.3483 98.278 47.1111 98.0928C46.8739 97.9075 46.7046 97.648 46.6298 97.355C46.5549 97.0621 46.5789 96.7524 46.6978 96.4747C46.8167 96.1969 47.0239 95.967 47.2867 95.8211C54.9425 91.5609 64.2775 89.3085 74.2823 89.3085C74.776 89.3085 75.2794 89.3085 75.7758 89.3252C84.4716 89.5238 93.8274 91.3554 104.377 94.9179C104.717 95.0324 104.998 95.2786 105.159 95.6021C105.319 95.9257 105.345 96.3002 105.231 96.6432C105.118 96.9862 104.874 97.2696 104.553 97.4311C104.232 97.5926 103.86 97.619 103.52 97.5044C93.2284 94.023 84.1346 92.2376 75.7148 92.0516C75.2183 92.0405 74.7178 92.0335 74.2255 92.0335C64.7143 92.0335 55.8508 94.1698 48.5929 98.2091C48.3927 98.3196 48.1681 98.3778 47.9398 98.3783Z" fill="black"/>
<path d="M47.9401 97.5004C47.8333 97.5006 47.7294 97.465 47.6449 97.3991C47.5603 97.3332 47.5 97.2408 47.4733 97.1365C47.4466 97.0322 47.4551 96.9218 47.4974 96.8229C47.5398 96.724 47.6136 96.6422 47.7072 96.5902C55.6445 92.1735 65.3414 89.9728 75.7567 90.2035C84.354 90.3992 93.6336 92.2154 104.1 95.7555C104.215 95.8012 104.308 95.8897 104.361 96.0027C104.413 96.1158 104.42 96.2447 104.381 96.3629C104.341 96.4811 104.259 96.5796 104.149 96.638C104.04 96.6965 103.913 96.7104 103.794 96.6769C93.42 93.1675 84.2417 91.3639 75.7345 91.1738C65.4732 90.9389 55.9578 93.1074 48.1731 97.4403C48.1017 97.4797 48.0216 97.5004 47.9401 97.5004Z" fill="#FFFF00"/>
<path d="M93.4119 84.4921C93.2431 84.4919 93.0757 84.4601 92.9183 84.3984C87.8257 82.3961 82.4492 81.2252 76.991 80.9296C76.6375 80.9136 76.3042 80.7583 76.0629 80.4973C75.8216 80.2363 75.6914 79.8903 75.7003 79.5335C75.7092 79.1768 75.8564 78.8378 76.1105 78.5893C76.3645 78.3408 76.7051 78.2027 77.059 78.2046H77.1352C82.8812 78.5169 88.5413 79.7497 93.9028 81.8566C94.197 81.9717 94.4421 82.1869 94.5954 82.465C94.7488 82.7431 94.8009 83.0665 94.7426 83.3792C94.6843 83.692 94.5194 83.9743 94.2764 84.1773C94.0333 84.3803 93.7275 84.4911 93.4119 84.4907V84.4921Z" fill="black"/>
<path d="M93.4116 83.6138C93.3519 83.6141 93.2927 83.6032 93.2369 83.5816C88.0568 81.5459 82.5881 80.3556 77.0365 80.0555C76.9734 80.0521 76.9117 80.0362 76.8548 80.0087C76.7978 79.9812 76.7468 79.9426 76.7047 79.8952C76.6626 79.8478 76.6302 79.7925 76.6093 79.7324C76.5884 79.6724 76.5795 79.6087 76.583 79.5452C76.5833 79.4805 76.597 79.4166 76.6232 79.3575C76.6494 79.2985 76.6875 79.2456 76.7352 79.2023C76.7828 79.159 76.8389 79.1262 76.8999 79.106C76.9609 79.0858 77.0253 79.0788 77.0892 79.0852C82.7439 79.3919 88.3142 80.6049 93.5905 82.6784C93.6958 82.7191 93.7836 82.7958 93.8385 82.8951C93.8934 82.9944 93.912 83.11 93.8911 83.2217C93.8701 83.3334 93.8109 83.4341 93.7238 83.5063C93.6366 83.5785 93.5272 83.6175 93.4144 83.6166L93.4116 83.6138Z" fill="#FFFF00"/>
<path d="M43.2881 86.9918C43.0037 86.9903 42.727 86.8985 42.4974 86.7294C42.2678 86.5603 42.0969 86.3224 42.009 86.0497C41.9212 85.777 41.9208 85.4833 42.0081 85.2104C42.0953 84.9375 42.2657 84.6993 42.4949 84.5296C49.2896 79.5606 58.1129 78.4505 65.845 77.8017C65.891 77.796 65.9373 77.7932 65.9837 77.7933C66.3212 77.8002 66.6444 77.9324 66.8913 78.1646C67.1382 78.3968 67.2915 78.7126 67.3218 79.0517C67.3364 79.2301 67.316 79.4096 67.2617 79.5801C67.2075 79.7505 67.1204 79.9085 67.0055 80.045C66.8906 80.1815 66.7502 80.2938 66.5922 80.3755C66.4342 80.4572 66.2618 80.5067 66.0849 80.5211C58.7148 81.1405 50.3254 82.1821 44.084 86.7415C43.8522 86.9088 43.5731 86.9965 43.2881 86.9918Z" fill="black"/>
<path d="M43.2884 86.1138C43.1868 86.1131 43.088 86.0801 43.0062 86.0193C42.9244 85.9586 42.8637 85.8733 42.8329 85.7757C42.8021 85.678 42.8028 85.5731 42.8348 85.4758C42.8668 85.3786 42.9285 85.2941 43.0111 85.2344C49.6366 80.3954 58.3199 79.3076 65.9383 78.6631C66.0649 78.6551 66.1896 78.6968 66.2865 78.7794C66.3834 78.862 66.4449 78.9791 66.4583 79.1063C66.4636 79.1699 66.4564 79.234 66.4371 79.2948C66.4178 79.3557 66.3867 79.412 66.3458 79.4608C66.3048 79.5095 66.2547 79.5495 66.1983 79.5787C66.142 79.6078 66.0804 79.6255 66.0173 79.6306C58.5293 80.2597 50.0013 81.3237 43.5755 86.0159C43.4931 86.0795 43.3922 86.1139 43.2884 86.1138Z" fill="#FFFF00"/>
<path d="M36.2338 74.8724C35.9315 74.8721 35.6379 74.7697 35.4001 74.5814C35.1622 74.3932 34.9939 74.13 34.9218 73.8339C34.8498 73.5378 34.8783 73.2259 35.0028 72.948C35.1272 72.6702 35.3405 72.4424 35.6084 72.3012C43.5818 68.0941 53.5685 65.776 63.7245 65.776C73.2037 65.776 81.8898 67.7809 87.5474 71.2777C87.8431 71.471 88.0523 71.7731 88.1303 72.1196C88.2084 72.4661 88.1492 72.8296 87.9653 73.1327C87.7815 73.4359 87.4875 73.6546 87.146 73.7425C86.8046 73.8303 86.4426 73.7802 86.1372 73.6028C80.8679 70.3507 72.7087 68.4856 63.7425 68.4856C54.0248 68.4856 44.4776 70.6989 36.8606 74.7172C36.6673 74.8195 36.4521 74.8727 36.2338 74.8724Z" fill="black"/>
<path d="M36.2338 73.9962C36.126 73.9959 36.0215 73.9592 35.9368 73.892C35.8521 73.8249 35.7922 73.7311 35.7665 73.6256C35.7408 73.5201 35.7509 73.4089 35.7951 73.3099C35.8393 73.2108 35.9151 73.1295 36.0105 73.079C53.0374 64.0959 76.1725 65.2815 87.0939 72.0262C87.1968 72.0963 87.2689 72.2038 87.2952 72.3261C87.3215 72.4485 87.3 72.5764 87.2351 72.6832C87.1703 72.79 87.0671 72.8675 86.9471 72.8995C86.827 72.9316 86.6993 72.9157 86.5906 72.8553C75.8938 66.249 53.1982 65.1095 36.457 73.9402C36.3882 73.9769 36.3116 73.996 36.2338 73.9962Z" fill="#FFFF00"/>
<path d="M81.9948 64.2564C81.7962 64.272 81.5967 64.2424 81.411 64.1697L80.6359 63.8719C76.6686 62.3437 73.2436 61.0239 69.0655 60.2269C68.7436 60.1652 68.4548 59.9876 68.253 59.7273C68.0512 59.4669 67.95 59.1415 67.9683 58.8116C67.9866 58.4816 68.1232 58.1696 68.3525 57.9336C68.5819 57.6976 68.8885 57.5536 69.2153 57.5285C69.3335 57.5189 69.4525 57.5255 69.5689 57.5481C73.9827 58.387 77.5117 59.7502 81.5996 61.3231L82.3776 61.6237C82.5434 61.6874 82.6952 61.7834 82.8242 61.9064C82.9532 62.0293 83.057 62.1766 83.1295 62.3399C83.202 62.5033 83.2418 62.6795 83.2468 62.8584C83.2517 63.0373 83.2216 63.2154 83.1582 63.3825C83.0663 63.6243 82.9081 63.8348 82.7022 63.9895C82.4962 64.1442 82.2509 64.2368 81.9948 64.2564Z" fill="black"/>
<path d="M81.931 63.3814C81.8602 63.3871 81.7891 63.3766 81.723 63.3506L80.945 63.0514C76.939 61.5134 73.4765 60.1768 69.2263 59.3645C69.1642 59.3525 69.1051 59.3284 69.0522 59.2934C68.9994 59.2584 68.9539 59.2133 68.9184 59.1606C68.8466 59.0541 68.8197 58.9233 68.8436 58.7968C68.8675 58.6704 68.9402 58.5587 69.0458 58.4863C69.1514 58.4139 69.2812 58.3868 69.4066 58.4109C73.7399 59.2372 77.2385 60.5837 81.2889 62.144L82.0669 62.4432C82.1698 62.4823 82.2563 62.5558 82.3121 62.6514C82.3678 62.747 82.3893 62.859 82.3731 62.9687C82.3569 63.0784 82.3039 63.1792 82.223 63.2543C82.142 63.3294 82.038 63.3742 81.9282 63.3814H81.931Z" fill="#FFFF00"/>
<path d="M29.8025 63.4176C29.4973 63.4179 29.2011 63.314 28.9618 63.1229C28.7226 62.9319 28.5545 62.6648 28.485 62.3652C28.4154 62.0656 28.4484 61.7511 28.5786 61.4728C28.7088 61.1945 28.9285 60.9688 29.2021 60.8324C37.7343 56.5667 47.348 55.978 56.4612 55.978C58.1931 55.978 59.9098 55.999 61.5697 56.02H61.603C61.9615 56.0224 62.3045 56.1683 62.5563 56.4257C62.8082 56.683 62.9483 57.0307 62.9459 57.3923C62.9436 57.7538 62.7988 58.0996 62.5436 58.3535C62.2883 58.6075 61.9435 58.7488 61.5849 58.7464H61.5447C59.896 58.7254 58.1918 58.7044 56.4778 58.7044C47.6836 58.7044 38.4373 59.2637 30.4085 63.2708C30.2208 63.3672 30.0132 63.4175 29.8025 63.4176Z" fill="black"/>
<path d="M29.8028 62.5353C29.6945 62.5347 29.5895 62.4972 29.5047 62.4291C29.42 62.3609 29.3606 62.2659 29.3359 62.1595C29.3112 62.0531 29.3228 61.9414 29.3688 61.8425C29.4148 61.7435 29.4924 61.663 29.5893 61.614C39.5927 56.6156 51.2795 56.768 61.5922 56.898C61.7209 56.8989 61.844 56.9514 61.9344 57.0438C62.0247 57.1362 62.075 57.2611 62.0741 57.3909C62.0731 57.5206 62.0211 57.6447 61.9295 57.7359C61.8378 57.827 61.714 57.8776 61.5853 57.8767C51.3877 57.7481 39.8146 57.5971 30.0219 62.4906C29.9535 62.5231 29.8784 62.5385 29.8028 62.5353Z" fill="#FFFF00"/>
<path d="M83.8573 36.8849C83.5329 36.8834 83.2197 36.7649 82.9745 36.5508C82.7293 36.3366 82.5683 36.041 82.5205 35.7174C81.6558 29.5791 82.6156 23.32 85.2786 17.7316C85.356 17.5705 85.4641 17.4263 85.5968 17.3074C85.7294 17.1884 85.884 17.0969 86.0517 17.0381C86.2195 16.9794 86.397 16.9545 86.5742 16.965C86.7515 16.9754 86.925 17.0209 87.0848 17.099C87.2446 17.177 87.3875 17.286 87.5055 17.4198C87.6236 17.5535 87.7143 17.7094 87.7726 17.8785C87.8308 18.0476 87.8555 18.2266 87.8451 18.4053C87.8348 18.584 87.7896 18.7589 87.7122 18.9201C85.2856 24.0183 84.4126 29.7275 85.2037 35.326C85.2525 35.6826 85.1597 36.0442 84.9455 36.3322C84.7313 36.6202 84.4129 36.8113 84.0597 36.8639C83.9929 36.8764 83.9252 36.8834 83.8573 36.8849Z" fill="black"/>
<path d="M83.8573 36.014C83.7411 36.0137 83.629 35.9711 83.5416 35.894C83.4542 35.8169 83.3974 35.7106 83.3816 35.5946C82.541 29.6299 83.4738 23.5477 86.0621 18.1177C86.1226 18.0109 86.2209 17.9313 86.3373 17.8947C86.4538 17.8581 86.5796 17.8673 86.6895 17.9204C86.7995 17.9735 86.8854 18.0667 86.9301 18.1811C86.9747 18.2955 86.9747 18.4227 86.9301 18.5371C84.4238 23.7932 83.5209 29.6809 84.3357 35.4548C84.3539 35.5823 84.3212 35.7119 84.2448 35.8152C84.1684 35.9185 84.0544 35.9869 83.928 36.0056C83.9046 36.0098 83.881 36.0126 83.8573 36.014Z" fill="#FFFF00"/>
<path d="M77.3475 34.9428C77.0559 34.9413 76.7725 34.8454 76.539 34.6692C76.3056 34.493 76.1345 34.2458 76.051 33.9641C75.004 30.3806 73.7976 26.786 72.465 23.2906C72.3371 22.9531 72.347 22.5783 72.4925 22.2481C72.638 21.9179 72.9074 21.6593 73.2416 21.5289C73.3971 21.4695 73.562 21.4387 73.7283 21.4381C74.0023 21.4367 74.27 21.52 74.4957 21.6767C74.7213 21.8335 74.8938 22.0561 74.9902 22.3147C76.3477 25.8786 77.5777 29.5375 78.6454 33.1895C78.746 33.5364 78.7062 33.9094 78.5347 34.2267C78.3632 34.5441 78.0739 34.7799 77.7302 34.8827C77.6062 34.9215 77.4773 34.9418 77.3475 34.9428Z" fill="black"/>
<path d="M77.3471 34.0648C77.2433 34.0646 77.1422 34.0306 77.059 33.9679C76.9758 33.9052 76.9149 33.817 76.8854 33.7166C75.8315 30.1108 74.6168 26.498 73.28 22.9802C73.2415 22.8616 73.2497 22.7326 73.3029 22.6199C73.3561 22.5071 73.4502 22.4193 73.5658 22.3746C73.6814 22.3299 73.8096 22.3317 73.9239 22.3796C74.0382 22.4275 74.1299 22.5179 74.18 22.6321C75.5278 26.1736 76.7509 29.8116 77.8131 33.4426C77.8309 33.5037 77.8367 33.5678 77.83 33.6312C77.8232 33.6946 77.8042 33.756 77.774 33.812C77.7437 33.8679 77.7028 33.9173 77.6536 33.9574C77.6044 33.9974 77.5478 34.0272 77.4872 34.0452C77.4417 34.0588 77.3945 34.0654 77.3471 34.0648Z" fill="#FFFF00"/>
<path d="M67.8104 37.2569C67.5031 37.2564 67.2049 37.151 66.9646 36.9577C63.0764 33.8123 58.2701 32.0436 53.2865 31.9244C52.9354 31.9105 52.6035 31.7594 52.361 31.5031C52.1186 31.2467 51.9846 30.9053 51.9875 30.5511C51.9904 30.1968 52.1299 29.8577 52.3765 29.6054C52.6231 29.3531 52.9574 29.2075 53.3087 29.1994H53.3461C58.9249 29.3315 64.3055 31.311 68.6577 34.8325C68.8759 35.0094 69.0343 35.2501 69.111 35.5215C69.1877 35.793 69.179 36.0817 69.086 36.348C68.993 36.6142 68.8204 36.8447 68.5919 37.0078C68.3634 37.1709 68.0904 37.2584 67.8104 37.2583V37.2569Z" fill="black"/>
<path d="M67.8089 36.379C67.6992 36.3789 67.5926 36.3415 67.5066 36.2727C63.4715 33.0068 58.4828 31.1703 53.3099 31.0464C53.1822 31.0435 53.0608 30.9896 52.9724 30.8965C52.8841 30.8035 52.8359 30.6789 52.8385 30.5501C52.839 30.486 52.8522 30.4227 52.8774 30.3639C52.9026 30.3051 52.9392 30.2519 52.9851 30.2076C53.031 30.1633 53.0852 30.1287 53.1446 30.1059C53.204 30.0831 53.2673 30.0725 53.3308 30.0747C58.7181 30.2023 63.9141 32.114 68.1168 35.5149C68.1948 35.5778 68.2514 35.6636 68.2789 35.7604C68.3063 35.8572 68.3033 35.9602 68.27 36.0552C68.2368 36.1502 68.1751 36.2323 68.0935 36.2903C68.0119 36.3484 67.9144 36.3793 67.8145 36.379H67.8089Z" fill="#FFFF00"/>
</svg>
