<svg width="234" height="99" viewBox="0 0 234 99" fill="none" xmlns="http://www.w3.org/2000/svg">
<path d="M167.998 83.5582C168.08 84.9131 166.486 85.5588 165.276 85.2179C163.676 84.7701 162.781 82.8533 162.324 81.4117C161.099 77.5505 161.566 73.4539 163.142 69.8051C163.941 71.9237 164.765 74.0308 165.615 76.1262C165.655 77.0097 165.777 77.8875 165.98 78.748C166.184 79.5766 166.467 80.3835 166.825 81.1574C167.126 81.8306 167.948 82.8172 167.998 83.5582Z" fill="#ED1C24"/>
<path d="M228.52 45.2976C228.533 45.4175 228.561 45.5273 228.584 45.6428C228.415 45.7252 228.245 45.8089 228.086 45.8956C223.25 48.591 223.576 55.6922 223.346 61.2434C223.109 66.9709 222.954 73.279 219.832 77.8407C216.583 82.5816 210.986 84.12 206.036 85.1528C202.336 85.9276 198.591 86.4584 194.823 86.7417C187.763 88.1747 179.405 88.8984 174.479 82.9369C169.454 76.8353 166.611 67.9849 164.522 60.4648C162.818 54.3271 157.375 52.5302 151.371 54.109C149.57 54.5828 147.888 55.4091 146.213 56.2281C145.51 56.569 144.792 56.9243 144.208 57.44C141.791 59.5461 141.764 63.624 140.781 66.4797C139.259 70.9095 137.602 75.2883 135.81 79.616C134.593 82.5556 133.241 85.7624 130.76 87.8497C128.201 90.0164 124.677 90.4902 121.477 90.9236C113.987 91.9218 106.418 92.1874 98.8762 91.7166C92.9408 91.3569 86.1673 90.587 81.6029 86.3257C77.2162 82.2248 76.0042 75.9946 74.7936 70.351C73.6231 64.8763 72.8423 57.7954 66.7708 55.7774C65.6247 55.3946 64.2437 55.2791 63.6849 54.044C63.2423 53.0719 63.4299 51.8094 63.7953 50.8459C64.897 47.98 68.2049 47.1046 70.9283 46.6713C78.0987 45.5345 85.5842 45.4464 92.8276 45C104.494 44.2778 116.243 43.635 127.9 44.8657C138.086 45.9433 153.01 51.3529 162.886 46.5528C175.946 40.197 190.482 39.0833 204.653 38.1935C210.814 37.8064 217.129 37.0379 223.321 37.3456C224.495 37.4019 225.811 37.5536 226.995 38.0289C227.677 40.4115 228.186 42.8408 228.52 45.2976ZM218.114 66.7917C218.831 62.2199 222.374 50.089 218.023 46.7305C216.126 45.2643 213.69 45.0751 211.401 44.9653C199.237 44.376 187.273 44.9653 175.484 48.1071C173.335 48.6849 170.986 49.1356 168.948 50.0702C164.767 51.9957 167.637 58.2071 168.816 61.5612C171.631 69.5464 176.561 80.2039 184.862 82.3331C189.386 83.4887 194.628 82.2219 199.088 81.4346C203.547 80.6474 208.767 80.019 212.797 77.6789C216.708 75.3966 217.424 71.274 218.114 66.7917ZM137.828 63.8002C138.769 60.3334 141.319 53.8577 136.179 52.3886C133.675 51.6664 130.868 51.467 128.282 51.1261C114.075 49.2483 100.009 49.9272 85.8564 51.8022C83.1874 52.1532 80.3637 52.5995 78.3351 54.2578C73.6833 58.054 79.4139 69.7472 80.835 74.2222C82.2333 78.6034 83.5986 82.635 88.4753 84.4883C93.4895 86.3864 99.6756 86.4557 104.999 86.7634C110.323 87.0711 116.615 87.7861 121.761 86.1553C131.194 83.1623 135.576 72.0396 137.828 63.8002Z" fill="#ED1C24"/>
<path d="M60.4076 51.0657C60.4076 51.1437 60.4076 51.2231 60.3976 51.2968C60.4119 52.724 60.4076 54.1526 60.3976 55.5768C52.2144 59.0745 44.1596 62.8542 36.2333 66.9162C29.4885 70.3945 21.8067 73.7053 20.7609 82.2279C20.5445 83.9522 20.6362 85.7017 21.0316 87.3934C21.2354 88.2222 21.5185 89.0291 21.8769 89.8028C22.1777 90.476 23.0001 91.4611 23.0459 92.2036C23.129 93.5585 21.5345 94.2028 20.3239 93.8619C18.7251 93.4155 17.8297 91.4987 17.3727 90.0571C15.1191 82.9472 18.579 75.0343 24.1863 70.6256C24.3614 70.4887 24.5166 70.3277 24.6476 70.1475L60.4076 51.0657Z" fill="#ED1C24"/>
<path d="M232.819 40.7287C233.084 42.7149 233.372 44.6953 233.666 46.6772C233.064 47.9049 232.1 48.9143 230.905 49.5662C229.457 50.3867 228.451 50.8893 227.963 52.8293C227.518 54.58 227.487 56.5373 227.39 58.3719C227.041 64.8721 227.216 71.784 224.668 77.627C222.04 83.6492 217.004 86.7505 211.589 88.4608C205.045 90.5394 198.043 91.331 191.207 91.5029C185.522 91.6474 177.167 92.5141 172.371 88.8349C171.919 88.484 171.503 88.0887 171.128 87.6548C169.584 89.3362 167.117 90.1436 164.899 89.8114C158.561 88.8667 156.806 80.7847 157.19 75.4357C157.488 71.3639 158.82 67.4379 161.058 64.0357C160.534 62.5349 160.013 61.0283 159.514 59.5159C155.246 57.0603 150.421 58.1624 147.377 62.0683C147.253 62.2311 147.108 62.3768 146.947 62.5017C144.512 70.4363 141.838 78.6151 137.972 85.8766C136.109 89.3593 133.48 92.2165 129.797 93.713C125.857 95.3121 121.416 95.6255 117.221 96.0242C109.229 96.7811 100.939 96.9371 92.9739 95.7627C86.3838 94.7848 80.0057 92.3898 75.9556 86.7722C72.0316 81.3307 71.1033 74.452 69.6363 68.0616C69.2208 66.2559 68.8641 64.3203 68.0604 62.6432C67.1736 60.7899 65.9214 60.4216 64.0977 59.8048C63.7324 59.684 63.3754 59.5393 63.0289 59.3715C62.8907 59.4673 62.7434 59.5491 62.5891 59.6156C53.638 63.4117 44.8512 67.5772 36.2286 72.1119C33.2029 73.7009 29.4694 75.1945 27.2675 77.9448C25.2618 80.451 24.6887 84.0767 25.7317 87.1044C26.7045 89.9472 28.7402 92.3046 26.9194 95.3482C25.5354 97.6695 22.5641 98.8496 19.9696 98.4582C13.6316 97.5135 11.8767 89.4315 12.2606 84.0825C12.7176 77.705 15.7419 71.6367 20.6817 67.6152C20.8739 67.141 21.2338 66.7555 21.6917 66.5333L63.516 44.1955C63.8589 44.0058 64.2438 43.9064 64.6349 43.9066C66.2516 43.0624 67.9934 42.4882 69.7924 42.2064C77.7994 40.9252 86.1488 40.7908 94.236 40.3069C109.531 39.6078 124.877 38.8379 139.947 42.0952C141.136 42.348 142.324 42.6066 143.529 42.8175C150.36 43.9962 157.302 43.6148 163.768 41.0061C163.995 40.9098 164.237 40.8522 164.484 40.8356C176.64 35.7582 189.827 34.5607 202.805 33.7171C209.682 33.2708 216.725 32.446 223.645 32.7955C226.811 32.9573 230.156 34.3065 232.253 36.9514C232.418 38.2153 232.61 39.4735 232.819 40.7287ZM228.584 45.64C228.561 45.5245 228.533 45.4147 228.52 45.2948C228.185 42.8404 227.676 40.4136 226.994 38.0333C225.809 37.5581 224.494 37.4064 223.319 37.35C217.128 37.0424 210.812 37.8108 204.652 38.198C190.481 39.0878 175.945 40.2029 162.885 46.5573C153.009 51.3574 138.085 45.9477 127.899 44.8701C116.241 43.6394 104.492 44.2807 92.8263 45.0044C85.5829 45.4508 78.0974 45.5389 70.9271 46.6757C68.2051 47.1091 64.8957 47.9845 63.794 50.8503C63.4286 51.8138 63.241 53.0763 63.6837 54.0485C64.2424 55.2878 65.6177 55.4034 66.7695 55.7819C72.8468 57.8042 73.6276 64.8822 74.7923 70.3554C76.0029 75.9991 77.2149 82.2292 81.6016 86.3301C86.166 90.5914 92.9395 91.3613 98.8749 91.721C106.416 92.1918 113.985 91.9262 121.476 90.928C124.675 90.4946 128.2 90.0151 130.758 87.8541C133.24 85.7625 134.592 82.5557 135.808 79.6204C137.604 75.2985 139.261 70.9198 140.78 66.4842C141.762 63.6284 141.782 59.5506 144.206 57.4445C144.797 56.9288 145.514 56.5778 146.212 56.2325C147.884 55.4121 149.566 54.5873 151.37 54.1135C157.374 52.5245 162.816 54.3244 164.521 60.4693C166.61 67.9893 169.452 76.8398 174.478 82.9413C179.396 88.9028 187.754 88.1791 194.821 86.7462C198.589 86.4628 202.335 85.9321 206.035 85.1572C210.984 84.1244 216.582 82.586 219.831 77.8451C222.953 73.2834 223.107 66.9753 223.345 61.2479C223.574 55.6966 223.249 48.5955 228.084 45.9C228.245 45.809 228.415 45.7253 228.584 45.64ZM165.276 85.2193C166.482 85.5602 168.077 84.9145 167.998 83.5596C167.952 82.8186 167.13 81.8262 166.828 81.1588C166.47 80.3849 166.187 79.578 165.982 78.7494C165.78 77.8889 165.658 77.0111 165.617 76.1277C164.768 74.0312 163.944 71.9242 163.144 69.8065C161.568 73.4553 161.101 77.5519 162.326 81.4131C162.779 82.8532 163.674 84.7701 165.276 85.2193ZM60.4072 51.2967C60.4072 51.223 60.4072 51.1436 60.4172 51.0656L24.6587 70.1416C24.5277 70.3219 24.3724 70.4828 24.1973 70.6198C18.59 75.0212 15.1302 82.9413 17.3837 90.0512C17.8407 91.4957 18.7361 93.4097 20.335 93.856C21.5427 94.1969 23.1372 93.5527 23.057 92.1977C23.0111 91.4552 22.1888 90.4643 21.8879 89.7969C21.5296 89.0233 21.2465 88.2163 21.0427 87.3875C20.6473 85.6958 20.5556 83.9463 20.7719 82.222C21.8192 73.7081 29.501 70.3944 36.2444 66.9103C44.1544 62.8281 52.2092 59.0484 60.4086 55.571C60.4072 54.1525 60.4172 52.7181 60.4072 51.2967Z" fill="#2C2423"/>
<path d="M178.103 78.2509C178.863 76.4467 179.63 74.6396 180.386 72.8369C183.654 64.7838 186.766 56.6585 190.09 48.6242C190.432 47.7257 190.78 46.8287 191.118 45.9287C191.196 45.7236 191.27 45.5156 191.347 45.3105C185.993 45.804 180.687 46.7393 175.484 48.107C173.335 48.6848 170.987 49.1355 168.948 50.0701C164.768 51.9956 167.637 58.207 168.816 61.5611C170.762 67.082 173.72 73.8769 178.103 78.2509Z" fill="#2C2423"/>
<path d="M218.024 46.7307C216.127 45.2645 213.691 45.0753 211.402 44.9655C210.795 44.9351 210.189 44.9178 209.581 44.8947C206.795 49.9981 204.058 55.1232 200.398 59.6965C200.025 60.1631 199.321 59.5607 199.598 59.0739C202.257 54.414 204.869 49.6847 207.191 44.8167C203.815 44.7358 200.458 44.7531 197.107 44.9077C196.686 45.9896 196.27 47.0744 195.845 48.1549C194.12 52.526 192.353 56.8802 190.544 61.2175C187.763 67.907 184.91 74.572 181.934 81.1777C182.856 81.6812 183.835 82.0693 184.849 82.3333C189.374 83.4888 194.616 82.222 199.076 81.4348C203.535 80.6475 208.754 80.0192 212.784 77.6791C216.701 75.4025 217.409 71.2742 218.104 66.7919C218.827 62.22 222.375 50.0891 218.024 46.7307Z" fill="#2C2423"/>
<path d="M87.8541 84.2237C89.7156 80.1955 91.621 76.1889 93.5703 72.204C94.705 69.6415 95.8482 67.0862 97.0244 64.5482C99.2293 59.79 101.466 54.9119 103.953 50.1653C97.9241 50.4238 91.8985 51.0031 85.857 51.8033C83.188 52.1544 80.3643 52.6007 78.3357 54.259C73.6839 58.0551 79.4145 69.7484 80.8356 74.2234C82.1709 78.4096 83.486 82.2722 87.8541 84.2237Z" fill="#2C2423"/>
<path d="M136.18 52.3886C133.675 51.6664 130.869 51.467 128.283 51.1261C126.41 50.8777 124.539 50.6798 122.671 50.5195C122.326 51.0973 121.983 51.6751 121.641 52.2529C118.805 57.076 115.863 61.8357 113.008 66.6473C112.611 67.3147 111.618 66.7224 111.978 66.0406C114.742 60.7826 117.565 55.5998 120.21 50.3244C117.285 50.1318 114.363 50.0288 111.445 50.0153C105.077 61.7764 98.9296 73.6589 93.1919 85.7407C97.0829 86.4427 101.253 86.5438 105 86.7605C110.319 87.0783 116.615 87.7832 121.762 86.1524C131.198 83.1579 135.581 72.0353 137.833 63.7973C138.773 60.3406 141.32 53.8577 136.18 52.3886Z" fill="#2C2423"/>
<path d="M35.0228 36.7115C34.774 36.7791 34.5295 36.8621 34.2907 36.9599C32.6289 37.6389 31.5157 39.0935 30.7736 40.681C29.9943 42.3407 29.5501 44.1752 29.1734 45.9722C29.0473 44.0539 28.9542 42.0821 28.2164 40.291C27.5788 38.7352 26.3095 37.3124 24.662 36.8545C24.3496 36.7725 24.0291 36.7265 23.7064 36.7173C25.3625 36.0846 26.884 35.1731 27.9714 33.7344C28.6304 32.8547 28.9857 31.8421 29.1834 30.7876C29.3838 31.3359 29.6271 31.8672 29.9112 32.3765C30.7779 33.9366 31.9957 35.2959 33.5744 36.1322C34.0377 36.3717 34.5227 36.5656 35.0228 36.7115Z" fill="#FFFF00"/>
<path d="M29.1757 45.9722C29.5525 44.1752 29.9966 42.3407 30.776 40.681C31.5181 39.0921 32.6384 37.6389 34.2931 36.96C34.5318 36.8621 34.7763 36.7791 35.0252 36.7115C34.5251 36.5661 34.0401 36.3726 33.5768 36.1337C32.0009 35.2901 30.7803 33.9309 29.9135 32.378C29.6295 31.8687 29.3861 31.3373 29.1857 30.7891C28.988 31.8435 28.6327 32.8561 27.9737 33.7358C26.8863 35.1803 25.3649 36.086 23.7088 36.7187C24.0314 36.7279 24.352 36.774 24.6643 36.856C26.3119 37.3139 27.5812 38.7338 28.2187 40.2924C28.9536 42.0822 29.0468 44.051 29.1757 45.9722ZM26.9651 41.1866C26.3921 39.5976 25.1142 38.13 23.322 38.1719C21.7317 38.2037 20.0813 38.8942 18.6845 37.7877C18.2146 37.4078 18.3507 36.6176 18.971 36.5006C21.7833 35.969 25.2546 35.2887 27.0941 32.8489C28.1915 31.3943 28.3906 29.6609 28.4794 27.9058C28.1084 25.1757 28.4322 22.3127 28.766 19.6043C28.8963 18.5932 30.4593 18.7376 30.3347 19.7488C29.8533 23.5695 29.3147 27.7181 31.1126 31.2917C31.839 32.7362 32.9536 34.058 34.4163 34.7903C36.22 35.6874 38.3216 35.5964 40.2815 35.5342C41.1067 35.5068 41.2012 36.7404 40.5422 37.0568C38.9219 37.8368 37.134 37.7472 35.4406 38.2485C33.7472 38.7497 32.7387 40.109 32.0797 41.6734C30.5038 45.4161 29.9307 49.7626 29.7273 53.7956C29.6814 54.6753 28.2388 54.7548 28.18 53.8635C28.0301 51.6284 27.8787 49.3937 27.7259 47.1596C27.5998 45.198 27.6356 43.0572 26.9623 41.1866H26.9651Z" fill="#2C2423"/>
<path d="M22.0743 23.5203C21.7573 23.6059 21.4459 23.711 21.1417 23.8352C19.0243 24.7019 17.6059 26.5552 16.6604 28.576C15.669 30.6908 15.1017 33.0265 14.6232 35.3161C14.4627 32.872 14.3438 30.3614 13.404 28.0791C12.5917 26.0987 10.9685 24.2859 8.87689 23.7008C8.47836 23.5963 8.06935 23.5376 7.65771 23.526C9.76942 22.7215 11.7063 21.5601 13.0917 19.727C13.9312 18.6046 14.3811 17.3161 14.6361 15.9713C14.8931 16.667 15.204 17.3413 15.5659 17.9878C16.6719 19.9755 18.2234 21.7074 20.2334 22.7807C20.822 23.0864 21.4385 23.334 22.0743 23.5203Z" fill="#FFFF00"/>
<path d="M14.6233 35.3159C15.1018 33.0264 15.6692 30.6935 16.6606 28.5759C17.6061 26.5536 19.0244 24.7017 21.1418 23.835C21.446 23.7109 21.7575 23.6057 22.0745 23.5201C21.4372 23.3342 20.8192 23.0865 20.2292 22.7805C18.2236 21.7073 16.6677 19.9753 15.5617 17.9877C15.2014 17.3419 14.892 16.6687 14.6362 15.9741C14.3827 17.316 13.9314 18.6045 13.0919 19.7298C11.7065 21.5628 9.76957 22.7242 7.65787 23.5288C8.06951 23.5404 8.47851 23.599 8.87704 23.7036C10.9744 24.2814 12.5919 26.1015 13.4042 28.0819C14.344 30.3613 14.4629 32.8718 14.6233 35.3159ZM11.8068 29.2201C11.0747 27.1978 9.44866 25.32 7.16504 25.3792C5.14073 25.4196 3.03762 26.3066 1.25828 24.8895C0.666605 24.4056 0.832791 23.3945 1.62504 23.25C5.20663 22.5711 9.62918 21.7058 11.973 18.5973C13.3712 16.744 13.6248 14.5353 13.738 12.2993C13.2652 8.8209 13.6778 5.17642 14.1105 1.72551C14.2766 0.442797 16.268 0.623358 16.1076 1.9133C15.4958 6.77982 14.8096 12.0638 17.1004 16.6169C18.0259 18.4629 19.4442 20.1414 21.308 21.0746C23.6002 22.2157 26.2821 22.1016 28.7792 22.0207C29.8322 21.9875 29.9511 23.5591 29.113 23.9607C27.0486 24.9545 24.7707 24.8404 22.6132 25.4789C20.4556 26.1173 19.1748 27.8493 18.3324 29.8427C16.3267 34.6096 15.6018 40.1492 15.3354 45.2844C15.2752 46.4068 13.4371 46.5065 13.3641 45.3725C13.173 42.5259 12.982 39.6793 12.791 36.8326C12.6119 34.3293 12.6649 31.6036 11.8068 29.2201Z" fill="#2C2423"/>
</svg>
