<svg width="10" height="10" viewBox="0 0 10 10" fill="none" xmlns="http://www.w3.org/2000/svg">
<path d="M10 1.60845C9.9163 1.77867 9.77516 1.83422 9.59786 1.83269C9.0843 1.82964 8.57024 1.83269 8.05667 1.82964C7.96109 1.82964 7.91652 1.85308 7.88631 1.95501C7.71149 2.54824 7.14345 2.99061 6.5551 2.99979C5.89048 3.01049 5.32393 2.61602 5.11444 1.9968C5.05848 1.83167 5.05848 1.83168 4.88613 1.83168H0.437872C0.379484 1.83406 0.32102 1.82978 0.263546 1.81893C0.184878 1.8039 0.114452 1.7593 0.0659595 1.69381C0.0174667 1.62832 -0.0056283 1.5466 0.00116459 1.46456C0.00795747 1.38252 0.0441531 1.30601 0.102714 1.2499C0.161275 1.19379 0.238018 1.1621 0.318023 1.16098C0.466596 1.15843 0.615168 1.16098 0.766712 1.16098C2.15339 1.16098 3.54155 1.16098 4.9312 1.16098C5.03025 1.16098 5.06838 1.13244 5.10008 1.03509C5.27044 0.515764 5.61661 0.180925 6.13068 0.0321081C6.16485 0.0224248 6.19902 0.0107026 6.2327 0H6.75963C6.77143 0.00541971 6.78349 0.0101832 6.79579 0.0142701C7.35788 0.15952 7.7308 0.513215 7.90265 1.08453C7.92296 1.15231 7.96158 1.15945 8.01854 1.15945C8.55092 1.15945 9.08281 1.16302 9.6152 1.15639C9.79547 1.15384 9.92175 1.21959 9.9995 1.38573L10 1.60845ZM7.30589 1.49378C7.30667 1.38311 7.28612 1.27338 7.24542 1.17094C7.20472 1.06851 7.14468 0.975394 7.06877 0.896996C6.99287 0.818599 6.90261 0.756474 6.80321 0.714218C6.70382 0.671962 6.59727 0.650413 6.48973 0.65082C6.27429 0.654888 6.06882 0.744908 5.91665 0.901889C5.76447 1.05887 5.67749 1.27054 5.67406 1.49225C5.67432 1.60299 5.69589 1.71259 5.73754 1.81471C5.77918 1.91682 5.84007 2.00943 5.9167 2.0872C5.99332 2.16496 6.08415 2.22633 6.18395 2.26776C6.28375 2.30919 6.39054 2.32986 6.49815 2.32858C6.60466 2.32982 6.71033 2.3091 6.80894 2.26766C6.90755 2.22623 6.9971 2.1649 7.07233 2.08729C7.14756 2.00969 7.20693 1.91738 7.24696 1.8158C7.28698 1.71422 7.30685 1.60542 7.30539 1.49582L7.30589 1.49378Z" fill="#333333"/>
<path d="M10 8.6059C9.92376 8.76729 9.80196 8.83631 9.62423 8.83428C9.10092 8.82819 8.57761 8.83428 8.05381 8.83022C7.96271 8.83022 7.92162 8.85407 7.89043 8.94897C7.69933 9.52651 7.30722 9.89089 6.72153 9.98123C5.93434 10.102 5.3135 9.62598 5.1016 8.95405C5.07041 8.85255 5.02734 8.82971 4.93179 8.83022C3.40989 8.83326 1.88816 8.83428 0.366587 8.83326C0.316472 8.83712 0.266128 8.83007 0.218859 8.81258C0.17159 8.79508 0.128463 8.76754 0.0923086 8.73176C0.0527345 8.6907 0.0244369 8.63966 0.0102772 8.58379C-0.00388248 8.52793 -0.00340266 8.46922 0.011668 8.4136C0.0267386 8.35799 0.0558659 8.30744 0.0961054 8.26706C0.136345 8.22669 0.186271 8.19792 0.240835 8.18366C0.304371 8.16939 0.369414 8.16342 0.434413 8.1659C1.93024 8.1659 3.4259 8.1659 4.92139 8.1659C5.02487 8.1659 5.07289 8.13748 5.10655 8.0309C5.30905 7.39044 5.87691 6.99053 6.55221 7.00017C7.15077 7.00931 7.71765 7.45692 7.8939 8.06846C7.89623 8.08372 7.90152 8.09835 7.90943 8.11149C7.91735 8.12463 7.92774 8.13603 7.94 8.145C7.95226 8.15398 7.96615 8.16036 7.98084 8.16378C7.99554 8.16719 8.01075 8.16757 8.02559 8.16488C8.5489 8.16488 9.07221 8.16488 9.59601 8.16488C9.77374 8.16488 9.91435 8.21919 9.99802 8.38869L10 8.6059ZM7.30672 8.5044C7.30917 8.39506 7.29021 8.28632 7.25095 8.18462C7.2117 8.08291 7.15294 7.99031 7.07817 7.91229C7.00339 7.83427 6.91411 7.77241 6.81561 7.73037C6.71711 7.68833 6.61138 7.66696 6.50468 7.66753C6.39628 7.66551 6.28857 7.68569 6.18788 7.72689C6.08718 7.7681 5.99553 7.8295 5.91829 7.90749C5.84105 7.98549 5.77978 8.0785 5.73807 8.18109C5.69637 8.28368 5.67506 8.39377 5.67541 8.50491C5.67967 8.72404 5.76619 8.93304 5.91696 9.08844C6.06773 9.24384 6.27114 9.33367 6.48488 9.33924C6.59238 9.34052 6.69905 9.3199 6.79872 9.27858C6.89838 9.23726 6.98904 9.17607 7.06545 9.09854C7.14186 9.02102 7.20249 8.92872 7.24382 8.82699C7.28516 8.72526 7.30637 8.61612 7.30623 8.50592L7.30672 8.5044Z" fill="#333333"/>
<path d="M10 4.60083C9.93217 4.7646 9.81284 4.8293 9.63855 4.82879C8.11699 4.82525 6.59543 4.82879 5.07337 4.82525C4.98276 4.82525 4.93919 4.84648 4.90997 4.94403C4.81888 5.24992 4.63377 5.51776 4.38201 5.70793C4.13025 5.8981 3.82522 6.00051 3.51203 6C3.19884 5.99949 2.89413 5.89609 2.64297 5.7051C2.3918 5.51411 2.20753 5.24567 2.11739 4.93948C2.08966 4.84699 2.05005 4.82424 1.96142 4.82475C1.41182 4.82879 0.862215 4.82778 0.313106 4.82475C0.239116 4.82553 0.167322 4.79909 0.11086 4.75027C0.0543974 4.70145 0.0170409 4.63351 0.00562454 4.55888C-0.00880893 4.48135 0.00475425 4.4011 0.0438048 4.33299C0.0828554 4.26488 0.144751 4.21351 0.218039 4.18838C0.261852 4.17609 0.307392 4.17147 0.352717 4.17474C0.89737 4.17474 1.43856 4.17474 1.98172 4.17474C1.99641 4.17732 2.01146 4.17687 2.02597 4.17342C2.04049 4.16996 2.05418 4.16356 2.06623 4.15461C2.07828 4.14565 2.08845 4.13432 2.09613 4.12128C2.10381 4.10824 2.10885 4.09376 2.11095 4.0787C2.19766 3.77055 2.37941 3.49917 2.62922 3.30486C2.87903 3.11055 3.18357 3.00367 3.49761 3.00009C3.81166 2.99652 4.11846 3.09644 4.37245 3.28501C4.62644 3.47359 4.81408 3.74076 4.9075 4.04686C4.93919 4.15199 4.98375 4.17575 5.08327 4.17524C6.60186 4.17221 8.11996 4.17524 9.63855 4.1712C9.81333 4.1712 9.93217 4.2364 10 4.39916V4.60083ZM2.70314 4.49974C2.70177 4.60857 2.72153 4.7166 2.76129 4.81759C2.80104 4.91858 2.86001 5.01052 2.93477 5.08811C3.00954 5.16571 3.09863 5.22741 3.19688 5.26965C3.29514 5.3119 3.40063 5.33385 3.50725 5.33424C3.61571 5.33781 3.72379 5.31921 3.82511 5.27955C3.92644 5.23988 4.01898 5.17994 4.0973 5.10325C4.17562 5.02656 4.23814 4.93467 4.28118 4.83297C4.32422 4.73128 4.34692 4.62182 4.34794 4.51104C4.34897 4.40026 4.32829 4.29039 4.28714 4.18788C4.24598 4.08537 4.18517 3.9923 4.10828 3.91411C4.03139 3.83593 3.93998 3.77422 3.8394 3.73261C3.73882 3.691 3.63111 3.67033 3.52259 3.67181C3.41527 3.66986 3.30864 3.68982 3.20897 3.73053C3.10931 3.77123 3.01862 3.83186 2.94223 3.90885C2.86585 3.98584 2.8053 4.07764 2.76416 4.17885C2.72301 4.28006 2.7021 4.38864 2.70265 4.49822L2.70314 4.49974Z" fill="#333333"/>
</svg>
