<svg width="57" height="57" viewBox="0 0 57 57" fill="none" xmlns="http://www.w3.org/2000/svg">
<path d="M38.9045 18.4813H7.69117C7.57673 18.4805 7.46326 18.5025 7.35728 18.5459C7.25131 18.5893 7.15491 18.6534 7.07363 18.7343C6.99235 18.8153 6.92779 18.9116 6.88365 19.0177C6.8395 19.1238 6.81665 19.2376 6.81641 19.3526V37.6455H9.42556C9.88555 37.6455 10.3267 37.8291 10.652 38.1559C10.9772 38.4827 11.1599 38.9259 11.1599 39.3881C11.1599 39.8502 10.9772 40.2934 10.652 40.6202C10.3267 40.947 9.88555 41.1306 9.42556 41.1306H6.81641V43.7425C6.81691 43.9735 6.90843 44.1948 7.07095 44.3581C7.23348 44.5214 7.45376 44.6133 7.6836 44.6138H39.7717V19.3526C39.7717 19.1215 39.6803 18.8999 39.5177 18.7365C39.355 18.5731 39.1345 18.4813 38.9045 18.4813Z" fill="#ED4444"/>
<path d="M50.176 32.4198H39.7716V44.6138H53.6429V35.903C53.6429 34.9792 53.2777 34.0932 52.6275 33.44C51.9773 32.7867 51.0955 32.4198 50.176 32.4198Z" fill="#FFAD33"/>
<path d="M39.7716 35.0317H49.163C49.3908 35.0317 49.6163 35.0768 49.8268 35.1644C50.0372 35.2519 50.2284 35.3803 50.3894 35.5421C50.5505 35.7039 50.6783 35.896 50.7654 36.1074C50.8526 36.3188 50.8974 36.5454 50.8974 36.7743V44.6138H39.7716V35.0317Z" fill="#FFAD33"/>
<path d="M46.7073 21.9664H39.7716V25.4496H49.3088V24.5802C49.3088 24.2369 49.2416 23.897 49.1108 23.5799C48.9801 23.2628 48.7884 22.9747 48.5469 22.7319C48.3053 22.4892 48.0185 22.2967 47.7028 22.1653C47.3872 22.034 47.0489 21.9664 46.7073 21.9664Z" fill="#FFAD33"/>
<path d="M50.176 32.4198L48.4416 25.4496H39.7716V32.4198H50.176Z" fill="#B4E6FF"/>
<path d="M50.176 35.903H53.6429V39.3881H51.9085C51.4489 39.3875 51.0082 39.2037 50.6833 38.877C50.3585 38.5503 50.176 38.1073 50.176 37.6455V35.903Z" fill="#F1F4FB"/>
<path d="M45.8401 38.5168C44.6025 38.5182 43.3878 38.8526 42.3223 39.4852C41.2568 40.1178 40.3793 41.0255 39.7811 42.1141V44.6138H52.7265C52.5156 42.9289 51.6993 41.3793 50.4312 40.2566C49.1631 39.1338 47.5304 38.5151 45.8401 38.5168Z" fill="#FFAD33"/>
<path opacity="0.39" d="M50.8975 40.7235V44.6138H52.7171C52.5343 43.1566 51.8974 41.7949 50.8975 40.7235Z" fill="#EB5822"/>
<path d="M45.8401 49.8415C48.2348 49.8415 50.1761 47.8911 50.1761 45.4851C50.1761 43.0791 48.2348 41.1287 45.8401 41.1287C43.4454 41.1287 41.5042 43.0791 41.5042 45.4851C41.5042 47.8911 43.4454 49.8415 45.8401 49.8415Z" fill="#5B5D6E"/>
<path d="M43.2385 28.0634H49.0911L48.4416 25.4496H39.7716V32.4198H42.3713V28.9347C42.3713 28.7036 42.4627 28.482 42.6253 28.3186C42.7879 28.1552 43.0085 28.0634 43.2385 28.0634Z" fill="#9BD6FF"/>
<path opacity="0.39" d="M17.2303 38.5168C16.1912 38.5165 15.1653 38.7513 14.2288 39.2038C13.2923 39.6563 12.4693 40.3148 11.8208 41.1306H6.81641V43.7425C6.81691 43.9735 6.90843 44.1948 7.07095 44.3581C7.23348 44.5213 7.45376 44.6133 7.6836 44.6138H39.7717V41.1306H22.638C21.9899 40.3148 21.1672 39.6561 20.2311 39.2036C19.2949 38.7511 18.2692 38.5163 17.2303 38.5168Z" fill="#EB5822"/>
<path d="M17.2284 49.8415C19.6231 49.8415 21.5644 47.8911 21.5644 45.4851C21.5644 43.0791 19.6231 41.1287 17.2284 41.1287C14.8337 41.1287 12.8925 43.0791 12.8925 45.4851C12.8925 47.8911 14.8337 49.8415 17.2284 49.8415Z" fill="#5B5D6E"/>
<path d="M50.8217 31.6512L49.4774 26.2486C49.6596 26.2097 49.823 26.1092 49.9402 25.9637C50.0574 25.8182 50.1213 25.6367 50.1212 25.4496V24.5802C50.1212 23.672 49.7621 22.8011 49.1229 22.1589C48.4838 21.5167 47.6169 21.156 46.713 21.156H40.5839V19.3583C40.5834 18.9109 40.4063 18.482 40.0915 18.1657C39.7766 17.8493 39.3497 17.6714 38.9044 17.6709H27.5192L34.4378 14.8897C34.6387 14.8092 34.7995 14.6518 34.8849 14.4522C34.9703 14.2526 34.9733 14.0271 34.8932 13.8253C34.8131 13.6235 34.6565 13.4619 34.4578 13.3761C34.2592 13.2903 34.0347 13.2873 33.8338 13.3678L28.1687 15.6506C29.8955 14.5377 31.6034 13.3126 32.2528 12.4566C32.8624 11.6546 33.13 10.6422 32.9967 9.642C32.8634 8.64182 32.34 7.73583 31.5418 7.12333C30.7436 6.51082 29.7359 6.24198 28.7404 6.37595C27.745 6.50991 26.8432 7.0357 26.2336 7.83766C25.3077 9.05706 24.0883 12.4794 23.2987 14.8935C22.5073 12.4813 21.2879 9.05706 20.362 7.83766C19.742 7.06815 18.8479 6.57178 17.8694 6.45394C16.891 6.3361 15.9054 6.60607 15.122 7.20654C14.3385 7.80701 13.8188 8.69067 13.6733 9.66986C13.5279 10.6491 13.768 11.6467 14.3428 12.4508C14.9922 13.3164 16.7001 14.532 18.4269 15.6449L12.7618 13.3621C12.5609 13.2816 12.3364 13.2846 12.1378 13.3704C11.9391 13.4562 11.7825 13.6178 11.7024 13.8196C11.6223 14.0214 11.6253 14.2469 11.7107 14.4465C11.7961 14.6461 11.9569 14.8035 12.1578 14.8839L19.0783 17.6652H7.69115C7.24588 17.6657 6.81899 17.8436 6.50414 18.16C6.18928 18.4763 6.01218 18.9052 6.01168 19.3526V34.1623C6.02176 34.3722 6.11184 34.5701 6.26325 34.7151C6.41465 34.86 6.61577 34.9409 6.82491 34.9409C7.03404 34.9409 7.23516 34.86 7.38657 34.7151C7.53797 34.5701 7.62806 34.3722 7.63814 34.1623V19.3526C7.63814 19.3384 7.64372 19.3249 7.65367 19.3149C7.66361 19.3049 7.67709 19.2993 7.69115 19.2993H38.9044C38.9115 19.299 38.9185 19.3002 38.925 19.3028C38.9316 19.3054 38.9375 19.3093 38.9425 19.3143C38.9475 19.3193 38.9514 19.3253 38.954 19.3319C38.9565 19.3384 38.9577 19.3455 38.9575 19.3526V34.1623C38.9675 34.3722 39.0576 34.5701 39.209 34.7151C39.3604 34.86 39.5616 34.9409 39.7707 34.9409C39.9798 34.9409 40.181 34.86 40.3324 34.7151C40.4838 34.5701 40.5738 34.3722 40.5839 34.1623V33.2359H50.1761C50.7377 33.236 51.2847 33.4153 51.7384 33.748C52.192 34.0807 52.5287 34.5495 52.7 35.0869H50.1761C49.9606 35.0869 49.754 35.1728 49.6017 35.3259C49.4494 35.4789 49.3638 35.6865 49.3638 35.903V37.6455C49.3648 38.3238 49.6334 38.974 50.1108 39.4536C50.5882 39.9333 51.2353 40.2032 51.9105 40.2042H52.8269V43.7977H50.7043C50.3557 42.7802 49.6996 41.8974 48.8276 41.2725C47.9556 40.6475 46.9112 40.3116 45.8401 40.3116C44.769 40.3116 43.7246 40.6475 42.8526 41.2725C41.9806 41.8974 41.3246 42.7802 40.9759 43.7977H40.5839V37.6455C40.5738 37.4356 40.4838 37.2377 40.3324 37.0928C40.181 36.9478 39.9798 36.8669 39.7707 36.8669C39.5616 36.8669 39.3604 36.9478 39.209 37.0928C39.0576 37.2377 38.9675 37.4356 38.9575 37.6455V43.7977H22.0945C21.7453 42.7804 21.089 41.8979 20.2169 41.2732C19.3447 40.6486 18.3004 40.3128 17.2293 40.3128C16.1583 40.3128 15.1139 40.6486 14.2418 41.2732C13.3697 41.8979 12.7133 42.7804 12.3642 43.7977H7.69115C7.67692 43.7972 7.66344 43.7912 7.65355 43.7809C7.64365 43.7706 7.63813 43.7568 7.63814 43.7425V41.9467H11.1599C11.3688 41.9366 11.5658 41.8461 11.7101 41.694C11.8544 41.5418 11.9349 41.3398 11.9349 41.1297C11.9349 40.9195 11.8544 40.7175 11.7101 40.5654C11.5658 40.4132 11.3688 40.3227 11.1599 40.3126H3.35708C3.14818 40.3227 2.95118 40.4132 2.80691 40.5654C2.66263 40.7175 2.58215 40.9195 2.58215 41.1297C2.58215 41.3398 2.66263 41.5418 2.80691 41.694C2.95118 41.8461 3.14818 41.9366 3.35708 41.9467H6.00789V43.7425C6.00789 44.1902 6.18477 44.6196 6.49968 44.9364C6.81459 45.2531 7.24177 45.4313 7.68737 45.4318H12.082V45.4851C12.0689 46.1726 12.1923 46.8558 12.4451 47.4948C12.6979 48.1337 13.075 48.7157 13.5542 49.2065C14.0335 49.6974 14.6054 50.0873 15.2364 50.3535C15.8674 50.6197 16.545 50.7568 17.2293 50.7568C17.9137 50.7568 18.5912 50.6197 19.2223 50.3535C19.8533 50.0873 20.4252 49.6974 20.9044 49.2065C21.3837 48.7157 21.7608 48.1337 22.0135 47.4948C22.2663 46.8558 22.3898 46.1726 22.3766 45.4851C22.3766 45.468 22.3766 45.4489 22.3766 45.4318H40.6956C40.6956 45.4489 40.6956 45.468 40.6956 45.4851C40.6956 46.8569 41.238 48.1726 42.2035 49.1426C43.169 50.1126 44.4785 50.6576 45.8439 50.6576C47.2093 50.6576 48.5188 50.1126 49.4843 49.1426C50.4497 48.1726 50.9921 46.8569 50.9921 45.4851C50.9921 45.468 50.9921 45.4489 50.9921 45.4318H53.643C53.8586 45.4313 54.0652 45.3449 54.2174 45.1916C54.3697 45.0382 54.4552 44.8304 54.4552 44.6138V35.903C54.4537 34.8754 54.0867 33.8822 53.4204 33.1026C52.7542 32.3229 51.8325 31.8082 50.8217 31.6512ZM27.5325 8.82307C27.886 8.38376 28.3961 8.10024 28.9544 8.03276C29.5127 7.96527 30.0751 8.11914 30.5223 8.46166C30.9695 8.80419 31.2661 9.30838 31.3492 9.86713C31.4322 10.4259 31.2952 10.9952 30.9672 11.454C30.6737 11.8307 29.727 12.7457 26.5214 14.7546C25.8738 15.1579 25.2433 15.5384 24.6942 15.8618C25.5084 13.3507 26.7391 9.86366 27.5249 8.82878L27.5325 8.82307ZM15.636 11.4597C15.308 11.0009 15.171 10.4316 15.254 9.87284C15.3371 9.31409 15.6337 8.8099 16.0809 8.46737C16.5281 8.12485 17.0905 7.97098 17.6488 8.03847C18.2071 8.10595 18.7172 8.38947 19.0707 8.82878C19.8565 9.86366 21.0872 13.3507 21.9109 15.8675C21.3618 15.5441 20.7312 15.1636 20.0837 14.7603C16.8686 12.7457 15.9162 11.8307 15.636 11.4597ZM40.5839 26.2676H47.8074L49.1328 31.5942H40.5839V26.2676ZM46.7073 22.7825C47.1815 22.783 47.6362 22.9726 47.9713 23.3097C48.3064 23.6468 48.4947 24.1038 48.4947 24.5802V24.6335H40.5839V22.7825H46.7073ZM17.2303 49.0234C16.5338 49.0231 15.8531 48.8152 15.2742 48.4262C14.6953 48.0372 14.2442 47.4844 13.9779 46.8378C13.7117 46.1913 13.6422 45.4799 13.7783 44.7936C13.9144 44.1074 14.25 43.4771 14.7426 42.9824C15.2352 42.4878 15.8627 42.1509 16.5458 42.0146C17.2289 41.8782 17.9369 41.9484 18.5803 42.2162C19.2238 42.4841 19.7737 42.9376 20.1606 43.5195C20.5475 44.1013 20.754 44.7853 20.754 45.4851C20.753 46.4235 20.3813 47.3232 19.7207 47.9866C19.06 48.6501 18.1643 49.0229 17.2303 49.0234ZM45.842 49.0234C45.1455 49.0234 44.4646 48.8159 43.8854 48.4271C43.3062 48.0383 42.8548 47.4857 42.5883 46.8392C42.3217 46.1926 42.252 45.4812 42.3879 44.7948C42.5238 44.1084 42.8592 43.4779 43.3517 42.9831C43.8442 42.4882 44.4718 42.1512 45.1549 42.0147C45.8381 41.8782 46.5462 41.9483 47.1897 42.2161C47.8333 42.4839 48.3833 42.9374 48.7703 43.5193C49.1572 44.1012 49.3638 44.7853 49.3638 45.4851C49.3628 46.4235 48.9912 47.3232 48.3305 47.9866C47.6698 48.6501 46.7742 49.0229 45.8401 49.0234H45.842ZM51.901 38.572C51.6568 38.5715 51.4227 38.4736 51.2502 38.2999C51.0777 38.1263 50.9808 37.8909 50.9808 37.6455V36.7153H52.8269V38.5682L51.901 38.572Z" fill="#1C1C1B"/>
<path d="M17.2303 43.7977C16.8981 43.7977 16.5734 43.8967 16.2972 44.0821C16.021 44.2675 15.8057 44.531 15.6786 44.8393C15.5515 45.1477 15.5182 45.487 15.5831 45.8143C15.6479 46.1416 15.8078 46.4423 16.0427 46.6782C16.2776 46.9142 16.5768 47.0749 16.9026 47.14C17.2284 47.2051 17.5661 47.1717 17.873 47.044C18.1799 46.9163 18.4422 46.7 18.6267 46.4225C18.8112 46.1451 18.9097 45.8188 18.9097 45.4851C18.9092 45.0377 18.7321 44.6088 18.4173 44.2925C18.1024 43.9761 17.6755 43.7982 17.2303 43.7977Z" fill="#1C1C1B"/>
<path d="M45.8401 43.7977C45.5081 43.7988 45.184 43.8988 44.9085 44.0848C44.6331 44.2709 44.4187 44.5349 44.2925 44.8433C44.1662 45.1517 44.1338 45.4908 44.1992 45.8178C44.2647 46.1447 44.4251 46.4448 44.6602 46.6802C44.8953 46.9157 45.1945 47.0758 45.5202 47.1404C45.8458 47.2051 46.1832 47.1713 46.4898 47.0435C46.7963 46.9156 47.0583 46.6993 47.2426 46.4219C47.4269 46.1446 47.5252 45.8186 47.5252 45.4851C47.525 45.2631 47.4812 45.0433 47.3963 44.8383C47.3115 44.6333 47.1873 44.4472 47.0307 44.2905C46.8742 44.1338 46.6885 44.0096 46.4842 43.925C46.2799 43.8405 46.061 43.7972 45.8401 43.7977Z" fill="#1C1C1B"/>
<path d="M23.3518 41.1306C23.3518 41.238 23.3729 41.3442 23.4138 41.4434C23.4548 41.5425 23.5148 41.6326 23.5904 41.7084C23.666 41.7842 23.7558 41.8443 23.8546 41.8852C23.9533 41.9261 24.0592 41.947 24.166 41.9467H36.3029C36.5118 41.9366 36.7088 41.8461 36.8531 41.694C36.9974 41.5419 37.0778 41.3398 37.0778 41.1297C37.0778 40.9196 36.9974 40.7175 36.8531 40.5654C36.7088 40.4133 36.5118 40.3228 36.3029 40.3126H24.1641C23.9485 40.3131 23.7419 40.3995 23.5896 40.5529C23.4373 40.7062 23.3518 40.914 23.3518 41.1306Z" fill="#1C1C1B"/>
<path d="M5.09146 38.4616H15.5054C15.7208 38.4616 15.9274 38.3756 16.0797 38.2226C16.2321 38.0695 16.3176 37.862 16.3176 37.6455C16.3176 37.4291 16.2321 37.2215 16.0797 37.0684C15.9274 36.9154 15.7208 36.8294 15.5054 36.8294H5.09146C4.98479 36.8294 4.87916 36.8505 4.78061 36.8915C4.68206 36.9325 4.59251 36.9927 4.51709 37.0684C4.44166 37.1442 4.38183 37.2342 4.34101 37.3332C4.30018 37.4322 4.27917 37.5383 4.27917 37.6455C4.27917 37.7527 4.30018 37.8588 4.34101 37.9578C4.38183 38.0568 4.44166 38.1468 4.51709 38.2226C4.59251 38.2984 4.68206 38.3585 4.78061 38.3995C4.87916 38.4405 4.98479 38.4616 5.09146 38.4616Z" fill="#1C1C1B"/>
<path d="M15.4959 26.2676C15.7048 26.2575 15.9018 26.167 16.0461 26.0148C16.1903 25.8627 16.2708 25.6607 16.2708 25.4505C16.2708 25.2404 16.1903 25.0384 16.0461 24.8862C15.9018 24.7341 15.7048 24.6436 15.4959 24.6335H12.0271C11.8117 24.6335 11.6051 24.7195 11.4528 24.8725C11.3004 25.0256 11.2148 25.2331 11.2148 25.4496V32.4198C11.2148 32.6362 11.3004 32.8438 11.4528 32.9969C11.6051 33.1499 11.8117 33.2359 12.0271 33.2359C12.2426 33.2359 12.4492 33.1499 12.6015 32.9969C12.7538 32.8438 12.8394 32.6362 12.8394 32.4198V29.7565H14.6287C14.8441 29.7565 15.0507 29.6705 15.2031 29.5175C15.3554 29.3644 15.441 29.1568 15.441 28.9404C15.441 28.724 15.3554 28.5164 15.2031 28.3633C15.0507 28.2103 14.8441 28.1243 14.6287 28.1243H12.8394V26.2733L15.4959 26.2676Z" fill="#1C1C1B"/>
<path d="M23.2439 27.6278C23.2429 26.8333 22.928 26.0717 22.3685 25.5103C21.809 24.9488 21.0506 24.6335 20.2598 24.6335H18.0956C17.8802 24.6335 17.6736 24.7195 17.5212 24.8725C17.3689 25.0256 17.2833 25.2331 17.2833 25.4496V32.4198C17.2833 32.6362 17.3689 32.8438 17.5212 32.9969C17.6736 33.1499 17.8802 33.2359 18.0956 33.2359C18.311 33.2359 18.5176 33.1499 18.67 32.9969C18.8223 32.8438 18.9079 32.6362 18.9079 32.4198V30.6278H20.2598L21.7518 32.8783C21.8731 33.0579 22.0604 33.1817 22.2726 33.2226C22.4848 33.2634 22.7044 33.2179 22.8832 33.0961C23.0619 32.9742 23.1852 32.786 23.2259 32.5729C23.2665 32.3597 23.2212 32.139 23.1 31.9594L21.8844 30.1294C22.2997 29.8584 22.6414 29.4878 22.8787 29.0511C23.116 28.6144 23.2415 28.1253 23.2439 27.6278ZM18.9079 26.2676H20.2598C20.6103 26.2808 20.9422 26.4299 21.1855 26.6838C21.4289 26.9376 21.5649 27.2763 21.5649 27.6287C21.5649 27.9812 21.4289 28.3199 21.1855 28.5737C20.9422 28.8275 20.6103 28.9767 20.2598 28.9899H18.9079V26.2676Z" fill="#1C1C1B"/>
<path d="M28.5001 26.2676C28.7089 26.2575 28.906 26.167 29.0502 26.0148C29.1945 25.8627 29.275 25.6607 29.275 25.4505C29.275 25.2404 29.1945 25.0384 29.0502 24.8862C28.906 24.7341 28.7089 24.6436 28.5001 24.6335H25.0313C24.8158 24.6335 24.6092 24.7195 24.4569 24.8725C24.3046 25.0256 24.219 25.2331 24.219 25.4496V32.4198C24.219 32.6362 24.3046 32.8438 24.4569 32.9969C24.6092 33.1499 24.8158 33.2359 25.0313 33.2359H28.5001C28.7089 33.2258 28.906 33.1353 29.0502 32.9831C29.1945 32.831 29.275 32.629 29.275 32.4188C29.275 32.2087 29.1945 32.0066 29.0502 31.8545C28.906 31.7024 28.7089 31.6119 28.5001 31.6018H25.8492V29.7489H27.6366C27.8521 29.7489 28.0587 29.6629 28.211 29.5099C28.3633 29.3568 28.4489 29.1492 28.4489 28.9328C28.4489 28.7163 28.3633 28.5088 28.211 28.3557C28.0587 28.2027 27.8521 28.1167 27.6366 28.1167H25.8455V26.2638L28.5001 26.2676Z" fill="#1C1C1B"/>
<path d="M34.5685 26.2676C34.6786 26.2729 34.7887 26.2558 34.892 26.2171C34.9952 26.1785 35.0896 26.1191 35.1694 26.0427C35.2492 25.9663 35.3128 25.8745 35.3562 25.7727C35.3996 25.6709 35.422 25.5613 35.422 25.4505C35.422 25.3398 35.3996 25.2302 35.3562 25.1284C35.3128 25.0266 35.2492 24.9347 35.1694 24.8583C35.0896 24.782 34.9952 24.7226 34.892 24.684C34.7887 24.6453 34.6786 24.6282 34.5685 24.6335H31.1017C30.886 24.6335 30.6792 24.7194 30.5266 24.8724C30.374 25.0254 30.288 25.233 30.2875 25.4496V32.4198C30.288 32.6364 30.374 32.844 30.5266 32.997C30.6792 33.15 30.886 33.2359 31.1017 33.2359H34.5685C34.6786 33.2412 34.7887 33.2241 34.892 33.1854C34.9952 33.1468 35.0896 33.0874 35.1694 33.011C35.2492 32.9346 35.3128 32.8428 35.3562 32.741C35.3996 32.6392 35.422 32.5296 35.422 32.4188C35.422 32.3081 35.3996 32.1985 35.3562 32.0967C35.3128 31.9949 35.2492 31.903 35.1694 31.8266C35.0896 31.7502 34.9952 31.6909 34.892 31.6523C34.7887 31.6136 34.6786 31.5964 34.5685 31.6018H31.9177V29.7508H32.8398C33.0553 29.7508 33.2619 29.6648 33.4142 29.5118C33.5665 29.3587 33.6521 29.1511 33.6521 28.9347C33.6521 28.7182 33.5665 28.5107 33.4142 28.3576C33.2619 28.2046 33.0553 28.1186 32.8398 28.1186H31.9177V26.2676H34.5685Z" fill="#1C1C1B"/>
</svg>
