<svg width="114" height="152" viewBox="0 0 114 152" fill="none" xmlns="http://www.w3.org/2000/svg">
<path d="M0.726807 102.787C2.31974 82.1217 2.66484 61.3706 7.99584 41.2566C9.93364 33.9076 12.6391 26.7866 16.0667 20.013C21.7216 8.89867 31.7836 3.37896 43.6775 1.64971C56.9944 -0.288344 70.2581 1.22676 83.1609 4.79235C95.9043 8.30975 102.021 16.4581 103.529 29.714C105.483 46.9048 103.529 63.8815 100.641 80.7297C98.2034 94.81 95.1344 108.799 91.7202 122.649C90.3547 127.879 88.0825 132.823 85.0086 137.254C80.6653 143.599 73.1679 143.679 67.8209 138.207C66.6727 137.075 65.6079 135.86 64.6351 134.572C59.1342 127.018 51.4669 124.679 42.6102 125.144C39.4243 125.31 36.2066 125.508 33.0048 125.68C28.0667 125.963 24.2278 128.078 21.7959 132.532C21.5979 132.949 21.369 133.35 21.111 133.732C18.2225 137.581 14.8136 140.788 9.61003 139.744C4.57106 138.737 2.55335 134.524 2.17636 130.027C1.35866 120.995 1.17283 111.883 0.726807 102.787ZM5.03833 113.2C5.03833 117.012 4.76218 120.851 5.12855 124.625C5.39842 127.593 6.13506 130.499 7.31086 133.234C8.72857 136.446 11.2082 137.126 14.0808 135.215C15.9609 133.932 17.5631 132.279 18.7906 130.353C22.6136 124.314 27.9605 121.183 35.0066 120.92C37.7517 120.818 40.5022 120.829 43.2527 120.786C53.7713 120.615 62.5484 124.079 68.6917 133.1C69.3167 133.928 70.0113 134.7 70.7678 135.407C74.3307 139.08 78.7325 139.043 81.4405 134.685C83.6971 131.017 85.6883 126.922 86.644 122.751C89.9361 108.371 93.1379 93.9427 95.5751 79.3859C98.0335 64.7113 99.7113 49.8976 99.1273 34.9232C98.5326 19.6918 92.6228 11.158 79.7148 7.89218C68.7608 5.11359 57.5997 3.83938 46.3324 5.16176C35.8615 6.39311 27.0897 10.8635 21.1216 20.0398C15.4879 28.7021 12.7428 38.4352 10.656 48.4146C6.20114 69.792 5.95161 91.5335 5.03833 113.2Z" fill="black"/>
<path d="M113.135 38.8209C111.627 25.5651 105.489 17.406 92.7613 13.8993C79.8639 10.3284 66.6001 8.81862 53.2832 10.7567C41.4 12.4859 31.3433 18.0003 25.6725 29.12C22.2471 35.8927 19.5418 43.0117 17.6016 50.3582C12.2918 70.4776 11.9361 91.2286 10.3379 111.894C10.7786 120.995 10.9697 130.097 11.7715 139.161C12.1644 143.658 14.1874 147.876 19.2052 148.883C24.414 149.927 27.8229 146.742 30.7114 142.865C30.9686 142.483 31.1975 142.082 31.3964 141.666C33.8283 137.212 37.6619 135.103 42.6053 134.819C45.7912 134.637 49.0036 134.439 52.2053 134.283C61.0673 133.823 68.7346 136.157 74.2355 143.711C75.2083 145.001 76.2731 146.218 77.4214 147.352C82.7683 152.813 90.2657 152.738 94.6091 146.394C97.6958 141.954 99.9738 136.996 101.337 131.751C104.751 117.88 107.814 103.912 110.241 89.8153C113.151 72.9885 115.089 56.0118 113.135 38.8209ZM105.197 88.5143C102.76 103.06 99.5525 117.483 96.2657 131.88C95.31 136.055 93.3188 140.151 91.0569 143.818C88.402 148.176 83.9524 148.214 80.3842 144.541C79.6293 143.832 78.9365 143.058 78.3135 142.228C72.1701 133.197 63.393 129.738 52.8744 129.915C50.1239 129.958 47.3735 129.947 44.6283 130.049C37.5823 130.306 32.2354 133.443 28.407 139.482C27.1825 141.409 25.5797 143.064 23.6973 144.343C20.83 146.254 18.3503 145.585 16.9273 142.362C15.756 139.626 15.0195 136.721 14.745 133.753C14.3839 129.974 14.66 126.14 14.66 122.328C15.568 100.662 15.8229 78.9204 20.2777 57.5483C22.3592 47.5636 25.1096 37.8305 30.738 29.1735C36.7061 19.9919 45.4832 15.5215 55.9541 14.2955C67.2214 12.9678 78.3825 14.2473 89.3365 17.0205C102.245 20.2917 108.154 28.8255 108.749 44.0569C109.354 59.0259 107.655 73.8397 105.197 88.5143Z" fill="black"/>
<mask id="mask0_1032_4346" style="mask-type:luminance" maskUnits="userSpaceOnUse" x="14" y="13" width="95" height="135">
<path d="M14.6596 122.307C14.6596 126.119 14.3834 129.952 14.7445 133.732C15.019 136.699 15.7555 139.604 16.9268 142.341C18.3499 145.553 20.8295 146.233 23.6968 144.322C25.5792 143.042 27.182 141.388 28.4065 139.46C32.2349 133.421 37.5818 130.284 44.6278 130.027C47.373 129.925 50.1234 129.936 52.8739 129.893C63.3925 129.722 72.1696 133.181 78.313 142.207C78.9361 143.036 79.6288 143.81 80.3837 144.52C83.9519 148.192 88.3484 148.155 91.0564 143.797C93.3184 140.13 95.3042 136.034 96.2653 131.858C99.552 117.478 102.759 103.055 105.196 88.4929C107.655 73.8183 109.333 59.0045 108.749 44.0301C108.154 28.7988 102.244 20.2649 89.3361 16.9938C78.382 14.2206 67.2209 12.941 55.9536 14.2687C45.4827 15.4947 36.7056 19.9651 30.7375 29.1468C25.1091 37.8038 22.3587 47.5368 20.2773 57.5216C15.8224 78.899 15.5675 100.641 14.6596 122.307Z" fill="white"/>
</mask>
<g mask="url(#mask0_1032_4346)">
<path d="M103.487 -56.2451L220.604 61.8368" stroke="black" stroke-width="2.781" stroke-miterlimit="10"/>
<path d="M96.9026 -51.6625L214.015 66.4194" stroke="black" stroke-width="2.781" stroke-miterlimit="10"/>
<path d="M90.3188 -47.0797L207.431 71.0022" stroke="black" stroke-width="2.781" stroke-miterlimit="10"/>
<path d="M83.7295 -42.5023L200.847 75.585" stroke="black" stroke-width="2.781" stroke-miterlimit="10"/>
<path d="M77.1453 -37.9193L194.257 80.1681" stroke="black" stroke-width="2.781" stroke-miterlimit="10"/>
<path d="M70.561 -33.3364L187.673 84.7509" stroke="black" stroke-width="2.781" stroke-miterlimit="10"/>
<path d="M63.9719 -28.7539L181.089 89.328" stroke="black" stroke-width="2.781" stroke-miterlimit="10"/>
<path d="M57.3875 -24.171L174.505 93.9109" stroke="black" stroke-width="2.781" stroke-miterlimit="10"/>
<path d="M50.7981 -19.5882L167.915 98.4937" stroke="black" stroke-width="2.781" stroke-miterlimit="10"/>
<path d="M44.2139 -15.0059L161.331 103.076" stroke="black" stroke-width="2.781" stroke-miterlimit="10"/>
<path d="M37.6296 -10.428L154.742 107.659" stroke="black" stroke-width="2.781" stroke-miterlimit="10"/>
<path d="M31.0459 -5.8454L148.158 112.242" stroke="black" stroke-width="2.781" stroke-miterlimit="10"/>
<path d="M24.4561 -1.26257L141.574 116.825" stroke="black" stroke-width="2.781" stroke-miterlimit="10"/>
<path d="M17.8723 3.32025L134.984 121.402" stroke="black" stroke-width="2.781" stroke-miterlimit="10"/>
<path d="M11.2881 7.89789L128.4 125.985" stroke="black" stroke-width="2.781" stroke-miterlimit="10"/>
<path d="M4.69873 12.4857L121.816 130.568" stroke="black" stroke-width="2.781" stroke-miterlimit="10"/>
<path d="M-1.8855 17.0632L115.232 135.151" stroke="black" stroke-width="2.781" stroke-miterlimit="10"/>
<path d="M-8.47485 21.6461L108.643 139.728" stroke="black" stroke-width="2.781" stroke-miterlimit="10"/>
<path d="M-15.0591 26.2289L102.058 144.311" stroke="black" stroke-width="2.781" stroke-miterlimit="10"/>
<path d="M-21.6428 30.8116L95.4693 148.899" stroke="black" stroke-width="2.781" stroke-miterlimit="10"/>
<path d="M-28.2271 35.3894L88.885 153.477" stroke="black" stroke-width="2.781" stroke-miterlimit="10"/>
<path d="M-34.8164 39.9722L82.2957 158.059" stroke="black" stroke-width="2.781" stroke-miterlimit="10"/>
<path d="M-41.4006 44.5548L75.7115 162.642" stroke="black" stroke-width="2.781" stroke-miterlimit="10"/>
<path d="M-47.9897 49.1376L69.1277 167.225" stroke="black" stroke-width="2.781" stroke-miterlimit="10"/>
<path d="M-54.5742 53.7205L62.5432 171.802" stroke="black" stroke-width="2.781" stroke-miterlimit="10"/>
<path d="M-61.1584 58.3033L55.9536 176.385" stroke="black" stroke-width="2.781" stroke-miterlimit="10"/>
<path d="M-67.7478 62.8859L49.3696 180.968" stroke="black" stroke-width="2.781" stroke-miterlimit="10"/>
</g>
<path d="M5.03849 113.2C5.95177 91.5337 6.2013 69.7922 10.6562 48.4201C12.7429 38.4407 15.4881 28.7076 21.1217 20.0453C27.0899 10.869 35.8617 6.39863 46.3325 5.16727C57.5998 3.8449 68.7609 5.11907 79.715 7.89766C92.623 11.1634 98.5327 19.6759 99.1274 34.9287C99.7115 49.9191 98.0337 64.7169 95.5752 79.3914C93.1381 93.9375 89.9362 108.366 86.6442 122.757C85.6884 126.927 83.6973 131.023 81.4407 134.69C78.7539 139.048 74.3308 139.086 70.768 135.413C70.0115 134.705 69.3169 133.933 68.6919 133.105C62.5485 124.074 53.7715 120.61 43.2528 120.792C40.5024 120.835 37.7519 120.824 35.0068 120.926C27.9607 121.188 22.6137 124.32 18.7907 130.359C17.5633 132.284 15.961 133.938 14.081 135.22C11.2084 137.131 8.72872 136.462 7.31102 133.239C6.13522 130.505 5.39857 127.599 5.12871 124.63C4.75172 120.851 5.03849 117.012 5.03849 113.2ZM57.6051 73.4327L61.6936 74.1234C64.8795 74.1234 68.1025 74.2197 71.3043 74.1234C79.0618 73.845 83.8566 70.1348 86.1079 62.6021C88.2318 55.5191 88.1841 48.3023 87.2177 41.0266C86.2194 33.5314 82.0512 28.7451 74.9468 26.9141C64.6458 24.2694 54.1166 24.0499 43.6192 25.3723C35.5855 26.3841 30.69 31.5987 28.5448 39.1474C27.1696 43.9658 26.5005 49.0572 25.9483 54.0736C25.274 60.1929 25.8262 63.3035 27.9076 65.8518C29.989 68.4002 32.6864 68.8553 39.6528 70.1348L57.6051 73.4327ZM24.9288 85.1735C24.0899 85.1735 23.4102 85.1735 22.7306 85.1735C18.4828 85.0289 17.2244 86.0086 16.3005 90.1042C15.2385 94.7834 16.0562 96.8178 19.9642 98.3811C21.7483 99.0932 21.881 100.078 21.812 101.818C21.743 103.558 22.0457 106.278 23.028 106.744C25.6407 107.937 28.4801 108.542 31.3483 108.516C33.9554 108.484 35.1076 105.994 35.3466 103.585C35.6174 100.812 36.8758 99.9284 39.5944 99.9123C41.1183 99.9123 43.2051 99.2538 44.0652 98.1348C47.8299 93.2094 45.8281 88.6641 39.8174 87.8129C39.4001 87.7225 38.9914 87.5953 38.5962 87.4327C38.6439 79.0863 38.644 79.0756 34.9749 78.5884C27.6634 77.5926 26.835 78.1119 24.9288 85.1735ZM71.1557 101.963C66.8229 101.904 64.253 103.901 64.253 107.391C64.253 110.068 66.6423 112.258 69.7326 112.328C73.3008 112.413 76.4919 109.603 76.476 106.39C76.4707 103.478 74.6866 101.995 71.1609 101.947L71.1557 101.963ZM87.6159 98.5257C87.8071 95.8488 85.8159 93.4557 83.2778 93.3486C79.184 93.1719 75.9663 95.4152 75.6424 98.6595C75.361 101.502 77.453 103.767 80.6123 104.013C84.2229 104.324 87.3875 101.829 87.6265 98.5096L87.6159 98.5257ZM54.0317 97.5834C53.8777 100.389 55.6246 102.295 58.5981 102.536C62.3149 102.841 65.7715 100.089 65.8618 96.7643C65.9308 94.0499 64.0246 92.0744 61.1467 91.8817C57.9343 91.6515 54.2068 94.6389 54.0422 97.5674L54.0317 97.5834ZM71.9362 92.9953C75.3822 93.0542 78.1805 90.6664 78.3079 87.5826C78.4353 84.4989 75.8229 82.1807 72.0849 82.1861C68.9362 82.1861 66.2069 84.6381 66.0582 87.6094C65.8936 90.4629 68.5963 92.931 71.9468 92.9792L71.9362 92.9953Z" fill="#FF0000"/>
<path d="M24.929 85.1735C26.8299 78.128 27.6582 77.6087 34.9432 78.5831C38.6122 79.0703 38.6123 79.081 38.5645 87.4275C38.9597 87.59 39.3683 87.7172 39.7857 87.8076C45.8123 88.6588 47.814 93.2041 44.0335 98.1296C43.1733 99.2485 41.0866 99.9016 39.5627 99.907C36.86 99.907 35.6016 100.806 35.3149 103.58C35.076 105.989 33.9237 108.478 31.3166 108.51C28.4484 108.537 25.609 107.932 22.9962 106.738C22.0139 106.273 21.7112 103.526 21.7803 101.813C21.8493 100.1 21.7166 99.0879 19.9325 98.3758C16.0245 96.8126 15.2174 94.7781 16.2687 90.099C17.1926 86.0034 18.467 85.0236 22.6989 85.1682C23.4157 85.1735 24.0953 85.1735 24.929 85.1735ZM37.7414 96.9143C38.0863 96.8932 38.432 96.8932 38.7768 96.9143C41.9627 97.4496 42.7592 95.5223 42.9397 92.9097C43.1468 89.9758 40.8742 90.6986 39.3609 90.5433C35.3521 90.1364 34.9697 89.5636 35.6069 85.5215C35.8034 84.2634 35.7131 82.1701 34.9698 81.6882C34.3629 81.3311 33.6797 81.1265 32.9779 81.0915C32.2762 81.0565 31.5763 81.1923 30.9375 81.4873C30.2987 81.7823 29.7396 82.228 29.3075 82.7866C28.8754 83.3452 28.5829 84.0005 28.4547 84.697C27.9768 88.0271 26.4953 89.3762 23.2458 88.7177C21.1219 88.2948 20.0599 89.0978 19.6882 91.2875C19.3537 93.3166 19.2635 94.9709 21.8121 95.4634C25.29 96.1326 26.2564 98.2955 25.2741 101.588C24.4299 104.393 25.8741 105.255 28.3963 105.555C31.6777 105.941 32.2299 103.772 32.5962 101.379C33.1007 98.1617 34.4547 96.1273 37.7467 96.8982L37.7414 96.9143Z" fill="black"/>
<path d="M71.1606 101.947C74.6863 101.995 76.4704 103.478 76.4704 106.375C76.4704 109.587 73.2846 112.397 69.727 112.312C66.6368 112.242 64.2315 110.074 64.2474 107.376C64.2846 103.912 66.8279 101.888 71.1606 101.947ZM73.5023 106.926L73.4067 105.898C72.4775 105.491 71.4474 104.619 70.6403 104.795C69.6474 105.009 68.835 106.096 67.943 106.803C68.7076 107.456 69.5359 108.703 70.2156 108.628C71.3625 108.505 72.4138 107.536 73.5023 106.926Z" fill="black"/>
<path d="M87.6267 98.5095C87.3878 101.829 84.2232 104.324 80.6232 104.019C77.4373 103.751 75.3718 101.486 75.6533 98.6648C75.9772 95.4204 79.1949 93.1772 83.2887 93.3539C85.8268 93.4395 87.8179 95.8166 87.6267 98.5095ZM81.786 101.475C82.848 100.1 84.0958 99.152 84.0055 98.3435C83.9152 97.5351 82.4126 96.3573 81.6055 96.3948C80.7984 96.4323 79.6887 97.7653 79.5135 98.6808C79.3913 99.2965 80.6816 100.164 81.7807 101.475H81.786Z" fill="black"/>
<path d="M54.0418 97.5674C54.2064 94.6389 57.9339 91.6783 61.1569 91.8657C64.0348 92.0584 65.9357 94.0339 65.872 96.7483C65.7817 100.073 62.3251 102.825 58.6083 102.52C55.6401 102.305 53.8879 100.373 54.0418 97.5674ZM59.5216 100.1L62.5853 97.0535C61.8579 96.5181 60.9552 95.3617 60.4614 95.5223C59.3145 95.881 58.3375 96.8821 57.3339 97.621L59.5216 100.1Z" fill="black"/>
<path d="M71.9467 92.9795C68.5962 92.9313 65.8936 90.4633 66.0422 87.5937C66.1909 84.6223 68.9201 82.1703 72.0688 82.1703C75.7856 82.1703 78.4033 84.4136 78.2918 87.5669C78.1803 90.7203 75.3715 93.0384 71.9467 92.9795ZM76.2741 87.5615C74.182 86.282 72.9131 84.8847 71.883 85.0453C70.8529 85.2059 70.0298 86.903 69.1112 87.931C70.0192 88.643 70.9538 89.9707 71.8139 89.9225C73.0193 89.8529 74.1608 88.7501 76.2741 87.5615Z" fill="black"/>
<path d="M52.4227 70.408C47.7461 69.6025 43.1519 68.3696 38.6969 66.7246C33.6686 64.9579 32.3252 64.0103 31.3694 62.6451C29.8402 60.4554 29.5057 57.452 30.1535 53.4956C30.9768 47.9437 32.2592 42.471 33.9872 37.1346C35.6438 32.2734 39.8651 30.0034 44.8669 29.3342C54.1922 28.0993 63.6665 28.7011 72.7643 31.1063C78.7219 32.6428 82.6086 36.1174 82.7838 42.5525C82.9378 48.1633 83.1024 53.8757 82.2529 59.3954C82.0157 60.9149 81.5764 62.3951 80.9467 63.7962C80.2458 65.4023 79.5184 67.0619 77.8883 68.4807C75.9396 70.1832 73.7254 70.6489 71.6227 71.0879C70.5728 71.3067 69.5077 71.4427 68.4369 71.4948C67.9059 71.4948 67.1254 71.5216 66.1962 71.5269C61.5822 71.5384 56.9753 71.1641 52.4227 70.408ZM76.6033 46.8516C79.6139 43.7036 78.2759 38.1571 74.8192 37.3166C73.2581 36.9365 72.1112 37.4504 72.8387 39.2279C73.8581 41.7227 75.2121 44.0783 76.6033 46.8569V46.8516Z" fill="white"/>
<path d="M37.7466 96.8981C34.4545 96.1271 33.1005 98.1615 32.6067 101.368C32.2403 103.762 31.6882 105.93 28.4067 105.544C25.8846 105.245 24.4404 104.383 25.2846 101.577C26.2669 98.2847 25.2846 96.1218 21.8226 95.4526C19.2686 94.96 19.3589 93.3111 19.6987 91.2766C20.0545 89.087 21.1483 88.2839 23.2562 88.7069C26.5058 89.3654 27.9873 88.0162 28.4651 84.6862C28.5933 83.9896 28.8858 83.3344 29.3179 82.7757C29.7501 82.2171 30.3092 81.7714 30.948 81.4764C31.5868 81.1814 32.2866 81.0457 32.9884 81.0806C33.6902 81.1156 34.3734 81.3203 34.9802 81.6774C35.7236 82.1592 35.8138 84.2525 35.6174 85.5107C34.9802 89.5527 35.3625 90.1256 39.3714 90.5325C40.8846 90.6877 43.1572 89.965 42.9501 92.8988C42.7696 95.5114 41.9785 97.4656 38.7873 96.9034C38.4408 96.8803 38.0933 96.8785 37.7466 96.8981Z" fill="white"/>
<path d="M73.5019 106.926C72.44 107.536 71.3781 108.505 70.2152 108.628C69.5303 108.703 68.7072 107.456 67.9426 106.802C68.8347 106.096 69.647 105.009 70.64 104.795C71.447 104.618 72.4772 105.491 73.4064 105.898L73.5019 106.926Z" fill="white"/>
<path d="M81.7804 101.476C80.676 100.185 79.3911 99.2966 79.5079 98.6809C79.6831 97.7654 80.8194 96.4323 81.5999 96.3948C82.3805 96.3574 83.9203 97.562 83.9999 98.3436C84.0796 99.1252 82.8052 100.1 81.7804 101.476Z" fill="white"/>
<path d="M59.5215 100.1L57.3232 97.621C58.3533 96.8822 59.3038 95.881 60.4507 95.5223C60.9551 95.3617 61.8578 96.502 62.5746 97.0535L59.5215 100.1Z" fill="white"/>
<path d="M76.2739 87.5614C74.15 88.75 73.0191 89.8528 71.8138 89.9224C70.9536 89.9706 70.0191 88.6429 69.1111 87.9308C70.0297 86.9029 70.8368 85.2058 71.8828 85.0452C72.9289 84.8846 74.1819 86.2819 76.2739 87.5614Z" fill="white"/>
<path d="M76.6034 46.8571C75.2123 44.0785 73.8583 41.7229 72.8388 39.2334C72.1114 37.4559 73.2583 36.942 74.8194 37.3221C78.276 38.1626 79.6194 43.7091 76.6034 46.8571Z" fill="black"/>
<path d="M51.7377 73.1277C42.2439 71.9499 38.2881 70.7827 36.0421 70.0225C31.6828 68.5609 29.4739 67.7847 27.9394 65.8573C25.8155 63.1804 25.327 60.0217 25.9801 54.0791C26.511 49.0627 27.2013 43.982 28.5765 39.1529C30.7005 31.6041 35.6173 26.3896 43.651 25.3777C54.1431 24.0554 64.6723 24.2749 74.9786 26.9196C82.083 28.7506 86.2512 33.5315 87.2494 41.032C88.2158 48.3078 88.2583 55.5246 86.1397 62.6076C83.8884 70.1403 79.0936 73.8504 71.3361 74.1288C68.1502 74.2412 64.9272 74.1288 61.7254 74.1288C57.6263 73.8183 54.2174 73.4382 51.7377 73.1277ZM54.0793 69.8726C61.6458 70.9434 64.667 71.0825 68.2033 70.6007C69.6838 70.3986 71.1504 70.1035 72.5945 69.7174C74.5128 69.125 76.3597 68.3188 78.1007 67.3135C82.3007 64.7277 83.0547 53.3189 82.7839 42.5525C82.391 26.7911 55.9272 28.4508 44.8669 29.3341C32.5536 30.1426 32.1235 44.0355 30.1535 53.4955C29.5057 57.4519 29.8403 60.4554 31.3695 62.6451C32.4049 64.1281 33.9447 65.1881 38.697 66.7246C41.389 67.5866 44.9466 68.577 54.0793 69.8726Z" fill="black"/>
</svg>
