<svg width="356" height="448" viewBox="0 0 356 448" fill="none" xmlns="http://www.w3.org/2000/svg">
<path d="M146.258 202.058C151.504 202.12 156.819 202.736 162.025 201.778C167.604 200.749 172.872 198.021 178.427 196.65C182.789 195.567 188.5 195.458 192.04 192.333C194.256 190.369 196.922 187.439 197.968 184.625C204.274 167.637 197.681 147.219 183.595 136.247C179.783 133.285 175.328 132.553 170.618 132.561C166.186 132.561 161.661 132.475 157.284 133.223C148.676 134.688 144.159 140.728 139.812 147.827C137.364 151.825 138.131 156.049 137.286 160.467C136.197 165.647 135.677 170.931 135.737 176.225C135.884 181.617 137.24 186.083 138.991 191.109C140.006 193.712 140.681 196.436 140.998 199.214C141.064 199.854 141.032 200.5 140.905 201.131C140.905 201.131 141.889 200.172 141.269 200.624C140.649 201.076 139.828 201.326 139.177 201.801C134.846 204.918 131.871 209.804 128.175 213.607C124.344 217.53 120.809 221.734 117.599 226.185C110.845 235.386 104.69 245.018 99.1746 255.019C93.4567 265.641 89.0404 277.143 84.6939 288.389C82.5012 294.046 80.0451 299.626 77.9765 305.338C76.086 310.653 75.0246 316.194 73.9708 321.703C71.8247 332.956 66.7034 344.786 67.9895 356.413C68.2529 358.751 68.958 360.98 69.3454 363.294C69.849 366.279 69.3454 369.303 69.6475 372.303C69.9875 376.261 71.4988 380.026 73.9863 383.112C79.3246 389.572 88.4516 391.497 96.3776 391.575C102.305 391.637 108.131 393.032 114.081 393.18C120.613 393.352 127.168 393.227 133.707 393.227C144.995 393.227 157.098 392.05 168.193 394.599C179.768 397.256 187.903 406.382 194.845 415.554C195.945 417.003 197.402 418.367 198.223 419.988C199.223 421.975 199.114 424.352 200.098 426.363C201.322 428.849 204.437 431.475 207.404 430.664C213.394 429.028 211.883 417.931 210.635 413.738C209.543 410.036 207.536 406.841 204.259 404.784C203.948 404.599 203.593 404.499 203.232 404.496C202.87 404.493 202.514 404.585 202.199 404.765C201.885 404.945 201.623 405.204 201.441 405.518C201.258 405.832 201.161 406.189 201.16 406.553C200.904 411.104 202.709 417.557 205.808 421.017C208.179 423.674 214.168 426.534 217.492 424.235C221.141 421.71 220.305 415.375 219.646 411.657C218.987 407.94 219.042 402.236 215.772 399.968C214.362 398.986 212.89 400.35 212.712 401.737C211.937 407.738 218.492 418.032 225.023 418.18C233.36 418.383 229.804 404.807 229.463 400.132L225.465 400.677C226.487 406.008 229.881 410.738 235.948 408.47C240.953 406.584 242.68 399.648 242.51 394.84C242.247 387.367 236.397 381.257 233.391 374.75C230.15 367.612 224.791 361.658 218.05 357.707C210.906 353.343 202.469 350.116 194.512 347.63C185.989 344.965 177.312 344.264 168.611 342.651C164.326 341.871 160.088 340.78 155.757 340.313C152.054 339.892 146.398 341.529 143.12 339.627C138.472 336.923 142.671 331.359 144.453 328.257C146.5 324.644 148.312 320.901 149.877 317.051C157.454 298.621 159.368 278.515 161.281 258.853C161.537 256.235 157.462 256.25 157.214 258.853C155.664 274.938 154.076 291.194 149.28 306.694C146.858 314.311 143.594 321.63 139.549 328.514C137.054 332.863 135.357 338.38 139.704 342.191C141.695 343.937 144.244 344.451 146.816 344.443C151.163 344.443 154.967 344.202 159.313 344.981C167.162 346.399 175.135 347.405 182.937 349.01C190.882 350.716 198.64 353.212 206.095 356.46C213.626 359.632 221.513 363.598 226.456 370.425C228.843 373.714 230.051 377.711 232.058 381.226C234.15 384.904 237.148 388.505 238.125 392.713C238.832 395.981 238.351 399.395 236.769 402.337C235.769 404.098 233.98 405.556 231.857 404.597C230.005 403.763 229.734 401.425 229.385 399.578C228.951 397.334 225.217 397.825 225.387 400.124C225.565 402.594 228.045 413.458 225.015 414.081C222.954 414.51 220.088 410.309 219.22 408.977C217.88 406.896 216.454 404.301 216.772 401.729L213.672 403.498C215.098 404.48 215.075 409.546 215.377 411.166C215.795 413.395 217.113 418.242 215.54 420.214C213.711 422.513 209.016 418.78 207.955 416.918C206.142 413.77 205.205 410.19 205.243 406.553L202.182 408.322C205.987 410.66 207.335 415.538 207.552 419.801C207.668 422.201 207.04 430.111 203.786 424.742C202.818 423.183 202.911 420.845 202.237 419.139C201.614 417.717 200.775 416.403 199.75 415.242C196.898 411.681 194.21 408.08 191.041 404.784C184.796 398.308 178.753 392.986 169.827 390.803C160.786 388.598 151.232 389.151 142.044 389.151C131.119 389.151 119.978 389.79 109.084 388.863C104.319 388.458 99.7867 387.601 94.9598 387.507C90.1951 387.478 85.5101 386.274 81.3158 384C78.2194 382.273 75.8416 379.486 74.6139 376.145C72.9326 371.469 74.1955 366.567 73.2193 361.798C72.1578 356.561 71.569 352.08 72.4445 346.734C73.32 341.388 74.9006 336.3 76.1712 331.102C78.5886 321.166 79.805 311.284 83.7564 301.769C88.0254 291.498 91.8297 281.032 96.2459 270.815C100.306 261.432 105.159 252.417 110.75 243.867C116.437 235.116 121.891 226.099 129.097 218.486C132.312 215.096 135.295 211.511 138.441 208.074C139.792 206.675 141.291 205.429 142.911 204.357C143.686 203.796 144.298 203.578 144.724 202.596C145.925 199.744 144.631 196.206 143.911 193.439C142.477 187.984 140.169 183.308 139.874 177.51C139.577 172.989 139.837 168.447 140.649 163.99C141.137 161.954 141.5 159.89 141.734 157.81C141.927 155.176 141.687 152.776 143.004 150.367C144.732 147.211 147.196 143.299 149.884 140.868C152.875 138.156 156.733 137.229 160.654 136.886C165.357 136.473 171.082 136.005 175.7 136.987C180.868 138.078 183.758 142.115 187.097 145.824C190.35 149.525 192.825 153.848 194.374 158.536C195.922 163.223 196.512 168.177 196.108 173.1C195.666 177.775 195.062 182.716 191.932 186.277C190.739 187.633 189.724 189.231 188.112 190.104C185.695 191.421 182.092 191.545 179.442 192.2C174.127 193.509 169.192 195.372 164.016 197.055C158.268 198.925 152.162 198.053 146.243 197.982C143.624 197.982 143.616 202.043 146.243 202.074L146.258 202.058Z" fill="#DADAD9"/>
<path d="M193.279 191.118C203.784 191.118 214.288 191.243 224.792 191.306C229.148 191.219 233.49 190.788 237.779 190.018C243.288 189.177 248.906 189.35 254.446 188.738C258.725 188.266 263.371 188.518 267.557 187.575C269.16 187.214 270.622 186.491 272.225 186.169C274.56 185.721 276.684 185.651 278.777 184.37C280.333 183.443 281.36 182.053 282.667 180.836C284.325 179.265 286.332 178.786 288.114 177.434C291.017 175.243 292.783 171.151 294.3 167.969C298.061 159.843 301.35 151.503 304.151 142.991C305.559 138.734 306.485 134.398 307.559 130.054C308.788 125.129 309.115 120.448 309.831 115.476C310.415 111.423 310.446 106.836 311.776 102.963C313.224 98.7686 316.211 95.1947 319.557 92.3748C322.678 89.6944 326.304 87.6797 330.217 86.4523C332.326 85.816 337.664 84.2608 339.695 85.816C343.087 88.4003 329.074 97.7239 328.653 100.999C328.404 102.947 330.988 103.482 332.139 102.46C335.602 99.4206 339.78 93.5059 344.791 93.5059C350.495 93.4509 348.814 100.018 346.386 102.932C343.959 105.846 331.276 111.98 332.38 104.503C332.715 102.272 329.968 100.819 328.646 102.932C324.88 108.893 323.775 121.634 331.33 125.302C335.742 127.439 341.445 125.192 345.04 122.396C347.344 120.608 349.179 118.276 350.382 115.606C351.586 112.935 352.121 110.007 351.942 107.079C351.794 104.448 347.88 104.401 347.857 107.079C347.857 110.299 348.736 113.363 349.693 116.371C350.65 119.38 352.206 123.134 350.993 126.253C349.514 130.031 343.99 131.861 340.34 132.536C338.271 132.929 335.89 133.078 334.582 131.13C333.47 129.449 333.026 126.48 334.668 125.09L331.252 124.179C332.03 126.598 331.384 129.175 331.898 131.672C331.987 132.018 332.166 132.334 332.416 132.587C332.666 132.84 332.979 133.02 333.322 133.11L334.676 133.393C337.244 133.927 338.341 129.952 335.757 129.418L334.411 129.135L335.835 130.573C335.314 128.028 335.999 125.593 335.189 123.079C335.087 122.738 334.9 122.428 334.646 122.18C334.392 121.932 334.079 121.754 333.738 121.662C333.396 121.571 333.037 121.57 332.694 121.658C332.352 121.747 332.037 121.922 331.781 122.168C328.257 125.161 329.175 131.413 332.054 134.579C335.812 138.702 342.605 136.566 346.939 134.704C351.708 132.654 355.552 129.206 355.498 123.621C355.404 117.895 351.911 112.813 351.973 107.079H347.888C348.046 109.314 347.664 111.555 346.773 113.607C345.882 115.66 344.511 117.463 342.776 118.861C340.278 120.911 335.143 123.448 332.201 120.856C328.241 117.361 329.743 108.807 332.201 104.911L328.467 103.34C326.374 117.204 345.071 111.69 350.036 104.84C353.187 100.489 354.533 92.8382 348.627 90.1598C340.916 86.6644 334.333 95.0926 329.237 99.5306L332.723 100.992C332.482 102.877 332.061 102.225 333.112 101.431C333.636 100.994 334.134 100.527 334.606 100.033C336.162 98.5565 337.718 97.0484 339.142 95.4382C341.321 93.0189 344.589 89.5078 344.262 85.9417C343.85 81.2288 338.115 81.1346 334.614 81.4488C327.222 82.1086 320.265 85.8004 314.966 90.9845C312.441 93.4006 310.362 96.252 308.827 99.4049C306.758 103.819 306.843 108.477 306.096 113.214C305.411 117.565 305.318 121.917 304.307 126.229C302.999 131.727 301.793 137.226 299.988 142.567C296.876 151.781 293.436 161.709 288.573 170.153C287.562 172.146 286.024 173.818 284.13 174.984C282.397 175.891 280.792 177.029 279.361 178.369C277.547 180.411 275.056 181.713 272.358 182.03C270.311 182.391 268.467 183.216 266.444 183.601C263.526 184.182 260.313 183.978 257.332 184.292C254.352 184.606 251.505 184.983 248.579 185.179C245.225 185.407 241.887 185.321 238.541 185.768C235.849 186.13 233.188 186.695 230.488 186.962C224.714 187.536 218.816 186.962 213.058 186.962H193.279C190.649 186.962 190.649 191.086 193.279 191.086V191.118Z" fill="#DADAD9"/>
<path d="M346.871 132.992C346.871 140.329 347.182 147.729 346.529 155.051C345.876 162.373 344.063 169.494 342.352 176.7C339.334 189.373 338.175 202.045 331.151 213.388C325.148 223.031 316.488 230.759 306.198 235.656C294.71 241.122 282.747 240.921 270.364 242.205C261.948 243.078 253.5 242.846 245.045 242.862C238.224 242.862 231.122 241.486 224.441 243.303C224.013 243.426 223.637 243.683 223.366 244.035C223.096 244.387 222.947 244.816 222.939 245.259C222.939 247.517 224.371 248.599 226.572 248.545C229.193 248.475 229.209 244.416 226.572 244.486C226.727 244.741 226.875 244.996 227.023 245.259C226.525 245.908 226.027 246.566 225.522 247.215C232.165 245.413 239.678 246.929 246.484 246.913C254.216 246.913 261.948 247.13 269.64 246.341C282.265 245.058 294.484 245.205 306.315 240.04C316.552 235.528 325.407 228.406 331.983 219.396C339.808 208.733 342.484 196.726 344.958 183.999C346.513 175.935 348.925 168.071 350.045 159.914C351.266 150.984 350.939 141.999 350.939 133.015C350.939 130.401 346.856 130.394 346.856 133.015L346.871 132.992Z" fill="#DADAD9"/>
<path d="M224.067 245.606L222.703 245.886C222.358 245.977 222.044 246.157 221.792 246.407C221.54 246.657 221.359 246.969 221.268 247.311C219.236 255.685 222.475 263.749 223.707 271.983C225.192 281.465 225.279 291.111 223.965 300.617C222.562 309.957 218.178 318.425 216.123 327.555C214.994 332.513 214.554 337.727 212.39 342.382C210.947 345.495 209.096 348.499 209.418 352.033C209.661 354.632 213.778 354.656 213.535 352.033C213.198 348.289 215.927 345.028 217.158 341.634C218.844 336.965 219.213 331.976 220.436 327.212C222.742 318.168 226.898 309.685 228.145 300.361C229.189 292.057 229.234 283.66 228.279 275.346C227.33 266.621 223.142 257.133 225.259 248.4L223.793 249.801L225.157 249.521C227.753 248.992 226.655 245.054 224.067 245.583V245.606Z" fill="#DADAD9"/>
<path d="M293.245 79.8359C279.616 80.6618 266.19 83.1005 252.771 85.5626C239.352 88.0247 225.652 90.0427 212.062 92.123C184.158 96.3927 156.876 103.685 129.423 110.106C101.97 116.526 74.035 121.154 46.4498 127.247C39.8415 128.704 33.2643 130.301 26.6871 131.883C20.8961 133.277 14.7548 134.002 9.06498 135.677C0.323961 138.233 3.88108 154.072 3.92 160.563C4.10681 188.97 3.30509 217.44 2.05971 245.785C0.814329 274.372 -0.5011 302.834 0.191643 331.491C0.868819 359.353 4.58161 387.698 2.05193 415.536C1.42146 422.424 0.705364 429.164 0.557475 436.082C0.50299 438.724 -0.283162 443.757 2.23095 445.635C4.97857 447.684 10.7073 447.427 13.9064 447.302C19.5106 447.084 25.0526 445.9 30.4933 444.606C56.947 438.221 83.7217 433.251 110.704 429.717C123.983 428.026 137.168 426.109 150.4 424.052C156.9 423.047 163.975 423.273 170.311 421.544C173.261 420.765 175.946 419.666 178.997 419.206C180.867 418.93 182.717 418.54 184.539 418.038C187.653 417.142 191.264 415.879 192.416 412.529C193.272 410.036 189.303 408.968 188.478 411.446C187.419 414.516 179.246 415.007 176.616 415.427C173.985 415.848 171.743 416.986 169.229 417.609C165.999 418.45 162.543 418.482 159.235 418.84C146.469 420.204 133.868 422.821 121.095 424.372C95.3466 427.488 69.9252 432.218 44.4883 437.243C33.6613 439.378 22.6941 443.477 11.548 443.258C9.92118 443.219 6.57422 443.399 5.14204 442.432C4.66723 442.105 5.14203 442.76 4.76063 441.653C4.33253 440.274 4.62053 438.202 4.64388 436.815C4.75285 430.402 5.23544 424.154 5.9204 417.78C8.73029 391.804 5.3522 365.243 4.51156 339.235C2.79138 285.802 7.50048 232.493 7.9675 179.075C8.02198 172.46 8.13095 165.83 8.0142 159.23C7.91301 153.667 6.6365 147.387 8.33333 141.957C9.02607 139.728 10.2948 139.619 12.373 139.261C15.3464 138.739 18.2964 138.092 21.2464 137.422C27.5511 135.989 33.8169 134.384 40.1139 132.927C66.1424 126.888 92.4978 122.447 118.604 116.791C144.5 111.173 170.069 103.958 196.114 99.0028C208.918 96.5719 221.854 94.9123 234.728 92.8943C247.602 90.8764 260.227 88.2195 273.039 86.2249C279.749 85.1809 286.482 84.4017 293.277 83.9888C295.892 83.8329 295.907 79.7425 293.277 79.8983L293.245 79.8359Z" fill="#DADAD9"/>
<path d="M332.819 87.8827C327.63 86.4143 331.836 70.8791 331.077 66.7674C330.409 63.1425 326.785 60.7697 324.759 57.8559C320.921 52.3143 319.071 45.1496 316.952 38.7346C315.238 33.385 314.358 27.8003 314.342 22.1793C314.288 17.5419 314.15 10.5859 317.413 6.79877C320.675 3.0116 326.862 4.1091 331.169 4.27914C337.31 4.52646 343.351 4.20958 349.277 6.04906L347.872 4.63467C349.254 10.5937 348.195 17.1941 347.988 23.2691C347.765 29.6841 345.792 35.5658 344.195 41.7102C342.599 47.8547 341.539 52.8863 337.287 57.6936C335.856 59.2896 334.676 61.0957 333.786 63.0498C332.735 65.3684 332.251 68.3054 329.948 69.7043L332.904 70.9178C332.804 70.5623 332.696 70.2067 332.596 69.8512C331.829 67.3548 327.991 68.4136 328.705 70.9255C328.812 71.2811 328.919 71.6366 329.019 71.9998C329.102 72.3074 329.255 72.5912 329.466 72.8288C329.678 73.0663 329.941 73.2509 330.235 73.368C330.53 73.4851 330.847 73.5314 331.162 73.5032C331.478 73.475 331.782 73.373 332.051 73.2055C334.661 71.6211 335.606 69.3411 336.703 66.5973C338.338 62.4855 341.309 60.0432 343.612 56.3874C345.608 53.1645 346.506 49.4314 347.381 45.7679C348.402 41.5325 349.776 37.3821 350.743 33.1234C351.579 29.0105 352.003 24.8238 352.01 20.6258C352.133 15.9034 352.839 11.1656 352.263 6.44323C351.78 2.49376 350.667 1.98365 346.844 1.23394C342.735 0.549784 338.572 0.244521 334.408 0.321939C328.758 0.267836 322.042 -1.03834 316.906 2.03003C311.594 5.21434 310.765 12.58 310.427 18.2066C309.962 25.5251 310.868 32.8664 313.099 39.8476C315.716 47.7852 317.919 56.0165 323.208 62.6169C325.35 65.2989 327.3 66.2495 327.254 69.8435C327.254 72.935 326.755 76.0266 326.594 79.1182C326.363 83.7555 326.363 90.271 331.775 91.8013C334.278 92.5123 335.345 88.5938 332.85 87.8905L332.819 87.8827Z" fill="#DADAD9"/>
<path d="M316.08 28.0283L314.992 27.6186C315.294 28.7691 315.604 29.9195 315.906 31.07C318.749 28.3199 325.268 28.3987 328.905 28.2647C333.908 28.0835 340.15 27.989 344.716 30.3608C351.236 33.7491 339.157 38.4376 336.354 39.0286C332.76 39.7226 329.058 39.6582 325.491 38.8395C322.211 38.1618 317.335 37.1847 315.659 33.9382C314.444 31.5743 310.839 33.6546 312.062 36.0264C315.064 41.8654 324.434 43.3153 330.327 43.6462C336.95 44.0087 346.686 41.7314 350.029 35.3645C355.683 24.6164 334.448 23.9229 328.882 24.1278C323.982 24.3091 316.708 24.4982 312.936 28.1466C312.685 28.4059 312.506 28.7247 312.415 29.0725C312.325 29.4203 312.326 29.7853 312.418 30.1326C312.511 30.4799 312.691 30.7978 312.943 31.0558C313.195 31.3138 313.51 31.5032 313.857 31.6058L314.945 32.0156C317.454 32.9611 318.542 28.9661 316.056 28.0283H316.08Z" fill="#DADAD9"/>
<path d="M328.545 94.0468C328.545 94.1828 328.545 94.3108 328.545 94.4468C328.545 94.2388 328.545 94.2948 328.545 94.4468L328.447 94.8148C328.34 95.1828 328.512 94.7268 328.398 94.9188L328.201 95.2388C328.029 95.5028 328.398 95.0388 328.201 95.2388C327.984 95.4606 327.751 95.6665 327.504 95.8548C327.101 96.2505 326.875 96.7854 326.875 97.3429C326.875 97.9004 327.101 98.4353 327.504 98.8309C327.916 99.2084 328.46 99.4185 329.025 99.4185C329.59 99.4185 330.134 99.2084 330.546 98.8309C331.288 98.2499 331.885 97.5126 332.293 96.6743C332.7 95.836 332.908 94.9186 332.9 93.9908C332.896 93.4354 332.668 92.9039 332.267 92.5104C331.865 92.1169 331.321 91.893 330.751 91.8867C330.183 91.897 329.64 92.122 329.238 92.5143C328.836 92.9067 328.605 93.436 328.594 93.9908L328.545 94.0468Z" fill="#DADAD9"/>
<path d="M316.842 135.301C323.021 135.496 329.106 136.75 335.278 136.976C341.449 137.203 347.43 136.976 353.483 136.976C356.168 136.976 356.176 132.728 353.483 132.728C347.43 132.728 341.33 132.93 335.278 132.728C329.225 132.526 323.021 131.247 316.842 131.053C314.157 130.972 314.157 135.22 316.842 135.301Z" fill="#DADAD9"/>
<path d="M297.321 85.4978C299.683 85.4978 300.696 85.6324 301.599 87.8008C302.502 89.9692 302.637 92.5492 302.755 94.7967C302.966 99.1652 302.561 103.542 302.333 107.902C302.097 112.556 302.173 117.225 302.173 121.878C302.173 126.825 301.329 131.138 300.485 135.973C300.046 138.593 304.316 139.716 304.763 137.081C305.21 134.446 306.071 131.937 306.451 129.31C306.695 126.316 306.754 123.311 306.628 120.311C306.628 113.854 306.898 107.459 307.168 101.017C307.379 96.0313 307.59 90.2462 305.48 85.5532C303.936 82.166 301.118 81.3272 297.38 81.343C294.536 81.343 294.528 85.5136 297.38 85.4978H297.321Z" fill="#DADAD9"/>
<path d="M291.099 247.51C291.051 274.264 288.594 300.917 287.769 327.64C287.373 340.81 287.88 353.95 286.517 367.081C286.097 371.165 286.969 377.267 284.789 380.883C282.926 384 276.861 383.572 273.69 384.219C267.222 385.512 260.721 387.453 254.3 389.027C251.692 389.666 249.115 391.303 246.571 391.817C244.454 392.238 242.298 390.718 239.999 390.921C237.351 391.155 237.327 395.246 239.999 395.012C242.004 394.833 243.312 395.971 245.207 396.15C247.546 396.36 249.646 394.755 251.739 394.022C258.081 391.786 265.057 390.796 271.558 388.996C275.759 387.827 280.349 387.842 284.408 386.268C288.316 384.71 289.284 381.475 289.823 377.625C291.503 365.686 291.733 353.412 291.749 341.379C291.749 326.767 292.542 312.186 293.335 297.597C294.262 280.912 295.213 264.226 295.245 247.51C295.245 244.876 291.083 244.876 291.083 247.51H291.099Z" fill="#DADAD9"/>
<path d="M4.99875 179.255C15.759 178.485 26.419 176.688 36.8306 173.889C48.0616 170.996 58.8214 167.061 70.3666 165.335C82.1475 163.585 94.0932 162.807 105.921 161.275C111.292 160.643 116.623 159.714 121.888 158.491C126.114 157.456 130.692 154.268 135.114 154.781C137.745 155.084 137.722 150.994 135.114 150.698C131.022 150.224 127.417 152.526 123.679 153.77C118.503 155.489 112.888 156.243 107.508 156.982C95.609 158.623 83.6161 159.432 71.7254 161.049C60.4629 162.605 50.0094 166.073 39.1082 169.036C27.9557 172.077 16.5597 174.48 4.99875 175.157C2.35984 175.32 2.34413 179.403 4.99875 179.24V179.255Z" fill="#DADAD9"/>
<path d="M187.23 141.542C196.823 142.137 206.538 137.758 215.667 135.219C225.978 132.349 236.188 129.331 246.714 127.342C257.048 125.392 267.412 123.682 277.731 121.631C282.001 120.892 286.215 119.858 290.343 118.536C294.699 117.035 299.162 115.216 303.843 115.595C306.445 115.796 306.43 111.726 303.843 111.533C295.587 110.867 287.454 115.665 279.445 117.182C269.148 119.147 258.827 121.058 248.483 122.916C237.925 124.819 227.715 127.651 217.397 130.538C212.578 131.884 207.735 133.146 202.955 134.624C197.757 136.241 192.752 137.835 187.23 137.494C184.628 137.332 184.635 141.364 187.23 141.557V141.542Z" fill="#DADAD9"/>
<path d="M25.2562 147.695C23.2248 147.695 20.6718 147.515 19.2096 149.13C17.7473 150.744 18.0398 153.358 18.2532 155.266C18.9171 161.102 23.5173 162.536 29.0106 162.679C34.504 162.822 39.7048 160.786 39.1199 154.71C38.4955 148.191 33.0812 146.05 26.916 146.118C24.2445 146.155 24.2366 150.098 26.916 150.061C30.2832 150.061 33.8242 150.301 34.8201 153.921C35.982 158.188 32.6702 158.834 29.0264 158.736C26.4023 158.668 23.375 158.736 22.5609 155.882C22.4107 155.334 21.8337 152.299 22.3791 151.751C23.337 151.622 24.3062 151.584 25.272 151.638C27.9436 151.638 27.9436 147.703 25.272 147.695H25.2562Z" fill="#DADAD9"/>
<path d="M82.3836 134.139C77.324 133.512 72.1016 136.904 72.3108 142.239C72.4657 146.87 77.3007 151.305 82.1434 150.55C90.1397 149.265 91.9451 135.831 82.4146 135.741C79.7957 135.741 79.7957 139.685 82.4146 139.707C86.7924 139.753 84.7779 145.827 81.7405 146.598C79.3385 147.21 76.6421 144.634 76.3942 142.435C76.0222 139.05 79.571 137.773 82.4146 138.121C85.0026 138.446 84.9793 134.479 82.4146 134.154L82.3836 134.139Z" fill="#DADAD9"/>
<path d="M53.991 140.394C45.6943 141.037 44.0446 152.112 51.271 155.764C55.2383 157.765 61.1932 156.368 62.8188 152.001C63.2337 150.818 63.3618 149.555 63.1927 148.315C63.0236 147.074 62.562 145.889 61.845 144.856C60.2356 142.474 57.3869 141.418 55.4797 139.299C53.5725 137.179 50.6514 140.251 52.4942 142.244C54.4899 144.443 59.2458 146.047 59.0527 149.5C58.8917 152.303 55.182 153.129 53.0173 151.882C49.9835 150.175 50.0076 144.793 53.991 144.483C56.6868 144.277 56.7029 140.109 53.991 140.315V140.394Z" fill="#DADAD9"/>
<path d="M142.101 161.169C149.912 160.925 156.698 158.01 163.746 154.953C166.757 153.634 169.657 152.315 172.208 150.214C175.466 147.512 177.524 143.894 180.233 140.695C181.966 138.673 179.026 135.727 177.286 137.765C174.989 140.451 173.193 143.579 170.651 146.043C168.369 148.099 165.731 149.727 162.864 150.846C156.126 153.816 149.586 156.793 142.101 157.03C139.423 157.117 139.415 161.264 142.101 161.177V161.169Z" fill="#DADAD9"/>
<path d="M140.974 145.139C137.379 148.104 134.212 151.543 131.564 155.358C128.491 159.531 124.813 162.605 120.743 165.795C116.948 168.775 113.647 172.236 109.985 175.372C106.135 178.67 102.058 181.643 98.7956 185.545C90.3897 195.609 78.4082 215.669 94.9847 224.255L95.4787 220.539C92.0364 221.383 88.2883 221.646 85.7947 224.41C83.0581 227.507 81.9995 232.818 81.5212 236.735C81.0272 240.862 81.4428 244.957 84.3362 248.17C86.0299 250.067 88.2569 251.414 90.0917 253.14C92.3971 255.293 94.3417 257.786 96.5843 260C98.4662 261.85 101.375 258.978 99.5013 257.128C96.7098 254.379 94.3104 251.259 91.2601 248.774C87.7158 245.886 85.238 243.579 85.4654 238.709C85.6222 235.326 86.4691 230.967 88.2412 228.041C90.0133 225.114 93.6125 225.145 96.5686 224.417C96.9536 224.305 97.2973 224.084 97.5579 223.782C97.8186 223.481 97.9851 223.111 98.0374 222.718C98.0896 222.324 98.0254 221.925 97.8524 221.567C97.6794 221.209 97.4051 220.908 97.0627 220.701C80.792 212.27 99.5013 189.269 108.142 182.138C114.572 176.835 120.61 171.175 127.079 165.926C133.548 160.677 137.273 153.105 143.899 147.957C145.977 146.331 143.044 143.474 140.982 145.085L140.974 145.139Z" fill="#DADAD9"/>
<path d="M221.526 247.488C217.27 245.846 214.691 241.152 212.789 237.32C210.251 232.29 209.791 226.83 208.913 221.378C208.107 216.192 206.39 211.272 206.181 205.993C206.052 202.997 205.512 198.867 207.075 196.168C208.123 194.369 210.009 193.305 210.96 191.412C212.144 189.066 208.494 186.962 207.301 189.34C206.108 191.717 203.577 193.094 202.634 195.871C201.691 198.648 201.828 201.776 201.909 204.632C202.046 211.218 204.061 217.358 205.036 223.834C206.535 233.714 209.549 247.214 220.397 251.407C222.928 252.385 224.032 248.411 221.526 247.449V247.488Z" fill="#DADAD9"/>
<path d="M140.535 208.926C145.027 209.225 147.354 216.835 149.201 220.112C152.719 226.367 156.105 232.652 158.092 239.581C159.414 244.175 163.016 259.487 156.213 261.171C153.685 261.815 154.752 265.688 157.288 265.045C167.276 262.519 164.045 245.905 162.12 238.9C159.878 230.792 155.649 223.733 151.753 216.353C149.271 211.652 146.697 205.313 140.535 204.868C137.93 204.7 137.937 208.697 140.535 208.888V208.926Z" fill="#DADAD9"/>
<path d="M171.751 157.775C172.229 160.845 173.439 163.637 174.307 166.604C175.326 170.065 175.055 173.668 175.016 177.239C175.016 179.928 179.171 179.928 179.195 177.239C179.235 173.668 179.466 170.041 178.63 166.533C177.834 163.184 176.313 160.098 175.788 156.661C175.374 154.021 171.345 155.142 171.751 157.775Z" fill="#DADAD9"/>
<path d="M162.759 185.658C165.556 196.446 187.395 190.366 185.114 179.306C184.55 176.58 180.521 177.736 181.093 180.462C182.221 185.914 168.115 189.656 166.788 184.501C166.089 181.817 162.068 182.957 162.767 185.658H162.759Z" fill="#DADAD9"/>
<path d="M158.92 168.711C161.928 168.711 161.937 165.698 158.92 165.698C155.903 165.698 155.911 168.711 158.92 168.711Z" fill="#DADAD9"/>
<path d="M185.282 161.179C187.285 161.179 187.29 156.66 185.282 156.66C183.274 156.66 183.268 161.179 185.282 161.179Z" fill="#DADAD9"/>
<path d="M68.8464 360.017C63.2404 360.509 59.6184 365.104 56.5808 369.43C52.7358 375.018 48.6985 380.76 45.9224 386.987C38.7937 402.95 40.97 420.922 41.0238 437.902C41.0238 440.503 45.0765 440.503 45.0611 437.902C45.0149 422.646 42.9463 406.344 48.3293 391.72C50.4826 385.863 53.9508 380.86 57.3267 375.672C59.9106 371.685 63.4788 364.542 68.8618 364.073C71.4303 363.85 71.4534 359.809 68.8618 360.032L68.8464 360.017Z" fill="#DADAD9"/>
<path d="M312.836 9.93794C320.307 13.5215 327.372 15.7758 335.79 14.8585C342.154 14.1667 346.857 11.3916 349.315 5.46043C350.309 3.01957 346.268 1.96238 345.289 4.37992C340.595 15.9002 323.012 10.2722 314.984 6.41657C312.598 5.26609 310.457 8.78747 312.876 9.93794H312.836Z" fill="#DADAD9"/>
<path d="M247.138 1.65908C236.748 1.77687 229.97 9.14275 225.877 17.875C223.536 22.8772 221.689 28.1229 219.571 33.2193C218.068 36.8473 217.277 40.9778 222.137 41.8102C224.958 42.2971 227.556 42.0222 230.337 42.8468C232.224 43.4122 234.182 44.0875 236.148 43.3807C239.114 42.3206 239.425 39.3444 239.505 36.6431C239.657 31.8765 241.527 28.649 244.884 25.1859C248.417 21.5344 253.229 17.7337 258.472 17.0662C260.119 16.862 261.429 14.891 259.959 13.5481C256.562 10.4699 252.565 9.03281 250.871 4.54889C249.888 1.92607 248.617 -0.162764 245.452 0.00999617C242.766 0.151346 242.75 4.28189 245.452 4.13269C246.691 4.06987 248.169 9.18986 249.033 10.2186C251.231 12.8178 254.492 14.1999 256.985 16.5008L258.472 12.9827C250 14.0586 242.079 20.5842 237.691 27.5732C235.701 30.7143 235.533 33.4706 235.293 37.0671C235.053 40.6637 233.231 39.3287 230.306 38.4885C227.38 37.6482 224.223 38.2843 221.282 37.3891L222.744 38.834C221.945 36.1091 224.431 32.7324 225.422 30.196C227.02 26.1597 228.403 22.0684 230.377 18.1891C233.774 11.5221 239.058 5.92312 247.162 5.83674C249.864 5.83674 249.872 1.68263 247.162 1.71404L247.138 1.65908Z" fill="#DADAD9"/>
<path d="M298.241 420.141C300.959 418.296 303.551 416.281 306.001 414.108C308.033 412.255 310.088 408.557 312.607 407.462L309.782 406.743C313.603 413.082 319.911 417.339 326.305 420.975C329.642 422.91 333.172 424.506 336.842 425.737C339.063 426.559 341.348 427.202 343.676 427.659C346.273 428.073 348.885 427.981 351.443 428.616L350.949 424.941C348.407 426.756 345.457 427.919 342.954 429.795C340.906 431.326 339.533 434.152 337.289 435.331C333.029 437.551 326.305 431.686 322.524 429.971C317.212 427.583 311.273 424.819 307.193 420.608C304.345 417.66 301.882 414.169 297.198 414.759C294.609 415.088 294.577 419.115 297.198 418.778C300.289 418.388 301.842 420.784 303.686 422.79C305.509 424.708 307.576 426.391 309.837 427.797C314.921 431.12 320.656 433.156 325.882 436.219C329.561 438.378 334.135 441.142 338.521 439.189C341.008 438.079 342.381 435.744 344.28 433.96C346.798 431.594 350.219 430.377 353.028 428.371C354.377 427.414 354.393 425.163 352.542 424.704C348.579 423.724 344.539 423.885 340.608 422.667C336.705 421.52 332.941 419.965 329.381 418.028C323.261 414.605 317 410.747 313.344 404.675C313.058 404.227 312.607 403.902 312.083 403.769C311.559 403.635 311.002 403.702 310.528 403.956C308.017 405.043 306.683 407.654 304.847 409.537C302.188 412.17 299.286 414.559 296.178 416.673C294.044 418.204 296.099 421.657 298.257 420.141H298.241Z" fill="#DADAD9"/>
</svg>
