<svg width="77" height="77" viewBox="0 0 77 77" fill="none" xmlns="http://www.w3.org/2000/svg">
<path d="M47.5389 13.3379C53.0354 18.8347 58.4596 24.2593 63.9272 29.7272C63.7364 29.9293 63.4959 30.1972 63.2418 30.4514C49.677 44.0186 36.104 57.5776 22.5231 71.1285C21.862 71.7612 21.0511 72.2156 20.1664 72.4491C14.3792 73.9501 8.57003 75.3662 2.76656 76.804C1.01449 77.2381 0.0284859 76.2696 0.457271 74.5377C1.94235 68.5392 3.43602 62.5429 4.93829 56.5487C5.06589 56.0373 5.32276 55.5672 5.68427 55.1836C19.5383 41.2944 33.4038 27.4166 47.2807 13.5502C47.3626 13.4745 47.4488 13.4036 47.5389 13.3379Z" fill="black"/>
<path d="M52.5195 8.38141C54.4065 6.4801 56.2984 4.46789 58.3047 2.57712C59.8275 1.17961 61.8148 0.39707 63.8816 0.381108C65.9484 0.365147 67.9475 1.1169 69.4917 2.49072C71.3522 4.19584 73.145 5.9873 74.8446 7.8527C76.1833 9.29801 76.943 11.1856 76.9788 13.1554C77.0146 15.1252 76.324 17.0392 75.0387 18.5322C73.0804 20.7337 70.8244 22.6702 68.7712 24.6569L52.5195 8.38141Z" fill="black"/>
</svg>
