<svg width="150" height="301" viewBox="0 0 150 301" fill="none" xmlns="http://www.w3.org/2000/svg">
<g style="mix-blend-mode:luminosity">
<path d="M159.292 0L150.27 150.27L141.248 0H159.292Z" fill="#1A9AE2"/>
<path d="M120.094 2.78369L150.271 150.27L102.664 7.45391L120.094 2.78369Z" fill="#1A9AE2"/>
<path d="M82.9495 15.6206L150.271 150.27L67.3242 24.6424L82.9495 15.6206Z" fill="#1A9AE2"/>
<path d="M50.3922 37.6338L150.269 150.27L37.6328 50.3908L50.3922 37.6338Z" fill="#1A9AE2"/>
<path d="M24.6429 67.3213L150.271 150.27L15.6211 82.9489L24.6429 67.3213Z" fill="#1A9AE2"/>
<path d="M7.4554 102.664L150.269 150.27L2.78516 120.091L7.4554 102.664Z" fill="#1A9AE2"/>
<path d="M0 141.249L150.27 150.27L0 159.292V141.249Z" fill="#1A9AE2"/>
<path d="M2.78516 180.45L150.269 150.271L7.4554 197.877L2.78516 180.45Z" fill="#1A9AE2"/>
<path d="M15.6211 217.592L150.271 150.271L24.6429 233.219L15.6211 217.592Z" fill="#1A9AE2"/>
<path d="M37.6328 250.15L150.269 150.271L50.3922 262.907L37.6328 250.15Z" fill="#1A9AE2"/>
<path d="M67.3242 275.898L150.271 150.271L82.9495 284.92L67.3242 275.898Z" fill="#1A9AE2"/>
<path d="M102.664 293.087L150.271 150.271L120.094 297.757L102.664 293.087Z" fill="#1A9AE2"/>
<path d="M141.248 300.541L150.27 150.271L159.292 300.541H141.248Z" fill="#1A9AE2"/>
</g>
</svg>
