<svg width="1440" height="1486" viewBox="0 0 1440 1486" fill="none" xmlns="http://www.w3.org/2000/svg">
<path d="M203.5 1467.5L94.5 1398L-11.5 1440L-41.5 1453.27L-48 1485.79V53H1455L1465.5 1452.5L1385.5 1473.5L1233.5 1391L1011.5 1473.5L844.25 1432.25L677 1391L490.5 1473.5L303 1419L203.5 1467.5Z" fill="#050517"/>
<path d="M1371.76 1441.52L1236.21 1380.24L985.715 1441.7L985.067 1441.86L984.413 1441.73L675.737 1380.18L477.526 1452.32L476.662 1452.63L475.771 1452.41L304.115 1409.39L206.441 1441.64L205.125 1442.07L203.941 1441.35L96.2829 1375.88L21.7526 1408.99L-46.7132 1441.5L-51 1443.54V1438.79V6V3H-48H1455H1458V6V1438.79V1441.79H1455H1373H1372.35L1371.76 1441.52Z" fill="#264362" stroke="black" stroke-width="6"/>
</svg>
