<svg width="254" height="106" viewBox="0 0 254 106" fill="none" xmlns="http://www.w3.org/2000/svg">
<path fill-rule="evenodd" clip-rule="evenodd" d="M252.131 20.76C251.131 20.27 249.981 19.94 249.021 19.36C247.667 18.5446 246.187 17.9599 244.641 17.63C241.731 16.94 238.851 16.14 235.941 15.51C232.851 14.84 229.751 14.13 226.621 13.76C222.771 13.31 219.001 12.57 215.211 11.76C208.79 10.2962 202.298 9.16133 195.761 8.35998C190.761 7.83998 185.831 7.12999 180.861 6.46999C176.421 5.87999 172.001 5.15 167.551 4.66C160.551 3.91 153.551 3.12999 146.551 2.89999C143.826 2.972 141.106 2.63492 138.481 1.89999C137.791 1.77708 137.092 1.71021 136.391 1.70001C134.125 1.48862 131.871 1.1548 129.641 0.700005C129.073 0.479837 128.448 0.458843 127.866 0.640496C127.285 0.822149 126.783 1.1957 126.441 1.70001C125.111 3.45001 123.771 5.17999 122.441 6.92999C120.721 6.76999 118.981 6.52999 117.241 6.46999C115.401 6.3643 113.575 6.07621 111.791 5.60998C111.08 5.3517 110.299 5.35812 109.592 5.62804C108.885 5.89797 108.299 6.41337 107.941 7.07998C107.694 7.36813 107.408 7.62054 107.091 7.82998C106.091 7.41998 105.151 6.98999 104.161 6.64999C102.946 6.1575 101.682 5.79222 100.391 5.55999C97.9112 5.25999 95.7312 4.05 93.3912 3.48C92.3912 2.54 90.9412 2.55998 89.8212 1.95998C88.6282 1.41145 87.3493 1.07314 86.0411 0.959985C85.5311 0.879985 85.0411 0.539994 84.5511 0.469994C83.1165 0.112265 81.6388 -0.0425671 80.1612 0.0100028C77.6288 0.321375 75.1245 0.829569 72.6711 1.52999C70.9824 2.00819 69.2563 2.34272 67.5112 2.52999C66.1166 2.61246 64.7386 2.87462 63.4112 3.30999C62.3284 3.67923 61.1732 3.78549 60.0411 3.61999C58.6443 3.48632 57.236 3.53339 55.8512 3.76C53.8512 4.04 51.8512 4.30998 49.8512 4.54998C48.2835 4.72814 46.7465 5.11492 45.2812 5.70001C43.5522 6.46233 41.7583 7.06809 39.9211 7.51C39.7611 7.33 39.6512 7.25 39.6612 7.19C39.6612 6.94 39.7712 6.70001 39.8212 6.45001C40.0412 5.16001 39.8212 4.52 38.8212 4.07C37.8608 3.68568 36.8507 3.43988 35.8212 3.33999C34.6912 3.20999 33.5412 3.29 32.4112 3.26C28.6512 3.16 26.3112 4.65998 24.8312 8.10998C24.7612 8.27998 24.7412 8.44998 24.6612 8.60998C23.3312 11.34 22.9812 14.33 22.5112 17.27C22.4612 18.1009 22.1876 18.9029 21.7194 19.5911C21.2511 20.2794 20.6057 20.8283 19.8512 21.18C18.8586 21.6011 18.0497 22.3638 17.5712 23.33C16.7694 24.967 16.1006 26.6658 15.5712 28.41C14.8436 31.2929 13.8838 34.1121 12.7012 36.84C12.4473 37.4069 12.1103 37.9327 11.7012 38.4C9.79117 40.57 9.04114 43.31 8.04114 45.91C7.38114 47.63 6.97117 49.43 5.76117 50.91C5.43297 51.4273 5.17407 51.9853 4.99115 52.57C3.99115 54.89 2.99119 57.24 1.84119 59.51C0.406741 62.2522 -0.0919635 65.3881 0.421141 68.44C0.489239 68.7703 0.539338 69.1042 0.571166 69.44C0.571166 69.7 0.641158 70.05 0.501158 70.19C-0.498842 71.19 0.201185 71.99 0.841185 72.69C1.50608 73.3896 2.24352 74.0165 3.04114 74.56C3.46884 74.8637 3.97682 75.0342 4.50116 75.05C7.17116 75.05 9.76119 74.62 11.7212 72.51C12.3812 71.81 13.0112 71.08 13.7212 70.38C14.0994 70.0253 14.4967 69.6915 14.9112 69.38C14.9812 70.87 14.9912 71.97 15.0812 73.07C15.25 75.3435 15.1526 77.629 14.7911 79.88C14.1365 83.6009 14.0859 87.403 14.6412 91.14C14.7551 92.2002 15.0961 93.2234 15.6412 94.14C16.0296 94.8211 16.2651 95.5787 16.3312 96.36C16.5112 97.66 16.5112 98.98 16.6512 100.28C16.7912 101.58 16.9112 102.73 17.1412 103.93C17.2443 104.406 17.5045 104.833 17.8799 105.144C18.2554 105.454 18.7243 105.629 19.2112 105.64C19.6092 105.596 19.983 105.427 20.2794 105.157C20.5757 104.888 20.7793 104.532 20.8611 104.14C20.9611 103.81 21.0811 103.48 21.1711 103.14C21.5211 101.78 21.8811 100.42 22.1711 99.06C22.222 98.5844 22.3699 98.1243 22.6055 97.7081C22.8412 97.2919 23.1595 96.9283 23.5411 96.64C23.9767 96.2133 24.2582 95.654 24.3412 95.05C25.0812 92.16 25.7612 89.26 26.4712 86.36C26.6112 85.76 26.7912 85.18 26.8912 84.57C26.9674 84.0475 27.1754 83.553 27.4955 83.1331C27.8157 82.7133 28.2375 82.3818 28.7212 82.17C30.0542 81.4765 31.2 80.4714 32.0612 79.24C32.6812 78.39 33.3311 77.56 33.9811 76.73C35.6028 74.7569 36.493 72.284 36.5012 69.73C36.5534 69.0564 36.657 68.3878 36.8112 67.73C37.8613 67.9571 38.9542 67.8833 39.9642 67.5172C40.9743 67.151 41.8606 66.5073 42.5212 65.66C43.8622 64.1464 45.0888 62.5353 46.1912 60.84C47.3912 58.97 47.9811 56.91 46.8011 54.71C47.2611 54.11 47.7411 53.58 48.1111 52.99C49.2811 51.08 51.1111 50.7 53.1111 50.85C53.5411 50.85 53.9612 51.06 54.3912 51.13C56.1955 51.5513 58.077 51.51 59.8611 51.01C60.3647 50.8491 60.8933 50.7813 61.4211 50.81C64.3111 50.98 66.9612 49.86 69.6012 49.04C72.9222 47.9042 76.1715 46.5684 79.3312 45.04C81.5512 44.04 83.8112 43.04 85.4512 41.04C85.7715 40.6745 86.1719 40.3878 86.6211 40.2022C87.0703 40.0166 87.5562 39.9372 88.0411 39.97C89.1779 40.037 90.3182 40.0135 91.4512 39.9C93.6712 39.56 95.7612 40.15 98.1412 40.38C97.8412 41.2 97.6312 41.85 97.3712 42.48C97.1869 42.8365 97.1381 43.2477 97.2337 43.6375C97.3293 44.0272 97.5629 44.3692 97.8912 44.6C98.557 45.1649 99.344 45.5687 100.191 45.78C103.191 46.28 106.261 46.61 109.301 47C109.561 47 109.811 47.1 110.371 47.22C109.983 47.707 109.726 48.2852 109.625 48.8996C109.523 49.5139 109.58 50.1441 109.791 50.73C109.812 50.986 109.771 51.2434 109.671 51.48C109.341 52.93 109.061 54.39 108.621 55.8C108.452 56.2556 108.438 56.7544 108.58 57.219C108.723 57.6836 109.015 58.0881 109.411 58.37C110.394 59.249 111.516 59.9586 112.731 60.47C117.951 62.548 123.337 64.1838 128.831 65.36C129.506 65.4818 130.173 65.6386 130.831 65.83C135.071 67.26 139.291 68.76 143.541 70.17C146.041 70.99 148.541 71.84 151.101 72.43C160.771 74.66 170.431 76.92 180.151 78.92C185.901 80.11 191.741 80.92 197.561 81.75C199.473 81.9796 201.356 82.4052 203.181 83.02C206.081 84.0466 208.985 85.0466 211.891 86.02C212.872 86.3712 213.874 86.6618 214.891 86.89C217.479 87.399 220.002 88.1973 222.411 89.27C224.026 89.9741 225.76 90.3644 227.521 90.42C228.301 90.42 229.161 90.59 229.521 89.66C229.771 89.08 229.581 88.24 228.221 87.66C226.671 87.05 225.121 86.44 223.581 85.81C221.154 84.7883 218.637 83.9981 216.061 83.45C214.774 83.1764 213.504 82.8224 212.261 82.39C208.591 81.17 204.971 79.81 201.261 78.7C195.261 76.92 189.261 75.3 183.261 73.6C179.881 72.6447 176.44 71.923 172.961 71.44C171.961 71.3 170.901 71.1 169.661 70.9C169.831 70.486 169.869 70.0298 169.771 69.5933C169.673 69.1568 169.442 68.7611 169.111 68.46C167.511 67.22 165.921 65.98 164.281 64.81C163.894 64.6179 163.463 64.5284 163.031 64.55C162.923 64.5589 162.818 64.5908 162.724 64.6435C162.629 64.6962 162.547 64.7685 162.482 64.8557C162.418 64.9428 162.373 65.0427 162.35 65.1486C162.328 65.2546 162.328 65.3642 162.351 65.47C162.514 65.9634 162.78 66.4167 163.131 66.8C164.131 67.68 165.131 68.47 166.131 69.32C166.431 69.57 166.921 69.79 166.511 70.49C164.931 70.19 163.281 69.97 161.691 69.49C156.081 67.98 150.351 67.08 144.691 65.94C143.911 65.79 143.101 65.76 142.691 64.88C141.291 64.43 140.581 63.1 139.481 62.26C138.325 61.3227 137.255 60.2854 136.281 59.16C134.793 57.5373 133.016 56.2048 131.041 55.23C130.469 55.0456 129.879 54.9216 129.281 54.86C129.462 55.4217 129.718 55.9565 130.041 56.45C132.171 58.77 134.361 61.05 136.511 63.35C136.701 63.54 137.191 63.66 136.761 64.26C134.551 63.63 132.281 63.11 130.381 61.6C130.191 61.46 129.921 61.27 129.741 61.3C128.591 61.53 127.951 60.75 127.251 60.1C126.731 59.63 126.311 59.1 125.781 58.59C124.917 57.8487 124.016 57.1511 123.081 56.5C122.901 56.38 122.441 56.5 122.191 56.69C121.941 56.88 122.051 57.2 122.191 57.38C122.496 57.8602 122.83 58.321 123.191 58.76C120.831 58.22 118.651 57.89 116.591 57.2C115.48 56.8686 114.49 56.2181 113.745 55.3292C113 54.4403 112.533 53.3522 112.401 52.2C112.321 51.1248 112.321 50.0452 112.401 48.97C114.045 48.1618 115.466 46.9636 116.541 45.48C119.116 42.3433 120.86 38.6084 121.611 34.62C121.998 32.4626 122.597 30.3489 123.401 28.31C123.822 27.0647 124.157 25.7916 124.401 24.5C124.683 23.1304 125.044 21.7782 125.481 20.45C126.671 17.33 127.821 14.24 127.311 10.8C127.285 10.1092 127.308 9.41743 127.381 8.73C127.369 8.37428 127.456 8.02224 127.633 7.71322C127.81 7.40419 128.069 7.15035 128.381 6.98C129.324 6.31566 130.439 5.9372 131.591 5.88998C134.651 5.88998 137.721 5.60999 140.771 6.24999C141.619 6.47222 142.501 6.53327 143.371 6.42999C144.672 6.23056 145.993 6.20032 147.301 6.33999C157.571 6.95999 167.571 8.01999 177.571 9.52999C183.731 10.46 189.931 11.15 196.121 11.96C198.731 12.31 201.351 12.59 203.931 13.07C208.601 13.94 213.231 14.93 217.881 15.86C219.431 16.16 220.981 16.52 222.551 16.68C228.043 17.2801 233.491 18.2321 238.861 19.53C241.597 20.167 244.364 20.661 247.151 21.01C248.902 21.086 250.636 21.385 252.311 21.9C252.571 22 252.931 21.9 253.711 21.8C253.208 21.4188 252.68 21.0714 252.131 20.76ZM110.331 8.41C110.331 8.41 110.471 8.41 110.551 8.41C110.631 8.41 110.481 8.68998 110.451 8.82998H110.131C110.176 8.68049 110.243 8.53883 110.331 8.41ZM26.1612 18.53C26.5612 15.86 26.5212 13.12 27.4412 10.36C28.7312 11.36 29.8912 12.27 31.0712 13.15C31.7615 13.7101 32.633 13.9982 33.5212 13.96C33.7836 13.9766 34.0449 13.9139 34.2712 13.78C34.5296 13.582 34.7215 13.3099 34.8212 13C34.8303 12.8755 34.8065 12.7508 34.7521 12.6384C34.6976 12.526 34.6146 12.43 34.5112 12.36C32.4212 11.7 30.9412 10.2 29.3912 8.79C28.9187 8.44388 28.4128 8.14572 27.8812 7.89999L30.1412 6.83999C31.5512 8.07999 33.4312 7.52001 35.0112 7.92001C35.4655 8.30564 35.7947 8.81787 35.9568 9.39135C36.1189 9.96484 36.1064 10.5736 35.9211 11.14C35.7708 11.6433 35.6901 12.1648 35.6812 12.69C35.4482 17.1623 34.8258 21.6058 33.8212 25.97C33.3812 28.21 33.0412 30.47 32.6412 32.71C32.5528 33.0539 32.4323 33.3887 32.2812 33.71C32.2812 34.11 32.3712 34.5 32.4412 35.08C31.7112 34.6 31.8212 34.18 32.1212 33.73C31.9912 33.05 31.8911 32.37 31.7311 31.73C31.5882 31.3367 31.4074 30.9583 31.1912 30.6C30.4112 32.1 30.7712 33.44 30.5112 34.67C30.2512 35.9 30.1512 37.07 29.9512 38.49C29.4176 38.3787 28.9002 38.2006 28.4112 37.96C26.9212 36.88 25.4812 35.73 23.8412 34.48C23.7712 31.94 24.6112 29.32 24.9712 26.65C25.3312 23.98 25.7512 21.19 26.1612 18.53ZM40.9811 33.09C41.6488 32.8363 42.3806 32.8054 43.0673 33.0018C43.754 33.1983 44.3587 33.6116 44.7911 34.18C44.6098 34.5784 44.3993 34.9627 44.1612 35.33C42.2712 37.86 40.3612 40.33 38.4712 42.89C38.0194 43.5267 37.3628 43.9891 36.6111 44.2C35.4904 44.6491 34.4155 45.205 33.4012 45.86C32.9312 45.69 33.1412 45.28 33.1912 45C33.7912 42 34.3511 39 35.0511 36C35.4119 35.0178 35.8744 34.076 36.4312 33.19C37.9284 33.5882 39.5091 33.543 40.9811 33.06V33.09ZM9.37115 70.53C8.11115 71.82 6.37115 71.92 4.74115 72.04C4.22115 72.04 3.66118 71.59 3.27118 71.42C3.31898 70.42 3.30229 69.4179 3.22119 68.42C2.78261 65.895 3.18297 63.2959 4.36114 61.02C5.17114 59.47 5.77119 57.82 6.53119 56.24C7.36119 54.5 8.27116 52.8 9.13116 51.08C9.47579 50.4692 9.783 49.838 10.0511 49.19C10.8811 46.98 11.6511 44.75 12.4911 42.54C12.7534 41.8939 13.1106 41.2905 13.5511 40.75C15.4799 38.1404 16.8424 35.1567 17.5511 31.99C18.2011 29.56 19.0112 27.17 19.8312 24.78C20.1355 24.2208 20.5195 23.7088 20.9712 23.26C21.0998 23.5804 21.1839 23.9168 21.2212 24.26C20.6712 30.2 20.2212 36.16 19.5112 42.08C18.9612 46.61 18.0812 51.08 17.3212 55.59C17.2692 56.29 17.0234 56.9618 16.6111 57.53C15.0511 59.06 14.6912 61.09 14.3212 63.02C13.7112 66.23 11.5112 68.32 9.37115 70.53ZM20.7812 93.38C17.7812 92.72 17.4111 90.78 18.9312 88.25L23.0212 88.58C23.3412 90.53 23.0112 91.24 20.7812 93.36V93.38ZM23.9211 86.66C22.2111 87.47 20.6911 86.9 18.9211 86.61C18.3411 83.61 17.9212 80.83 18.5212 77.89C18.7969 75.9027 18.8939 73.8946 18.8112 71.89C18.6687 71.0223 18.8089 70.1319 19.2112 69.35C19.2825 69.1579 19.3044 68.951 19.2747 68.7483C19.2449 68.5455 19.1646 68.3535 19.0411 68.19C18.8347 68.0349 18.6796 67.8214 18.5958 67.5772C18.512 67.3329 18.5034 67.0691 18.5712 66.82C18.7112 66.13 18.7312 65.42 18.8312 64.73C19.5445 59.87 20.2611 55.01 20.9811 50.15C21.0911 49.38 21.2512 48.61 21.3812 47.82L22.7911 47.33C22.6511 46.95 22.5212 46.57 22.3812 46.2C22.2412 45.83 22.0912 45.7 22.1212 45.47C22.4212 42.99 22.5111 40.47 23.5411 37.93C25.5411 39.27 27.3612 40.51 29.4112 41.93C29.4112 42.17 29.4112 42.68 29.4112 43.18C29.1812 45.28 28.9012 47.36 28.7112 49.46C28.7333 49.8987 28.6385 50.3354 28.4364 50.7255C28.2343 51.1155 27.9323 51.445 27.5612 51.68C26.6212 51.01 27.9712 49.61 26.6912 48.97C26.5212 49.19 26.2811 49.37 26.2411 49.58C26.0675 50.3509 25.9869 51.1399 26.0012 51.93C26.0775 52.6262 25.9917 53.3305 25.7506 53.988C25.5095 54.6455 25.1194 55.2383 24.6111 55.72C24.2395 56.0953 23.9351 56.5316 23.7112 57.01C23.4676 57.4743 23.3569 57.9968 23.3912 58.52C23.5332 59.823 23.8703 61.0972 24.3912 62.3C24.9061 63.2111 25.1295 64.2581 25.0312 65.3C24.9903 65.708 25.0899 66.1178 25.3135 66.4614C25.5372 66.8051 25.8715 67.0622 26.2612 67.19C25.4612 73.63 24.6911 80.15 23.9211 86.64V86.66ZM33.1612 71.23C32.8877 72.4214 32.3997 73.5532 31.7212 74.57C30.8947 75.7966 30.0034 76.9783 29.0511 78.11C28.3213 76.8308 28.1101 75.3203 28.4612 73.89C28.9612 71.15 29.2512 68.38 29.6412 65.48L33.7212 64.92C33.5712 67.11 33.5112 69.19 33.1612 71.21V71.23ZM40.3112 63.33C39.6176 63.6751 38.9028 63.9757 38.1711 64.23C37.6411 63.83 37.1711 63.47 36.5511 62.98L43.6612 58.39C42.9012 60.01 40.9312 62.96 40.3112 63.31V63.33ZM91.9911 36.83C90.0116 37.2341 87.9707 37.2341 85.9911 36.83C85.1613 37.3336 84.387 37.9236 83.6812 38.59C82.2255 40.112 80.4539 41.2965 78.4911 42.06C75.2459 43.6296 71.9062 44.9956 68.4911 46.15C65.6112 47.06 62.7011 48.26 59.4911 47.75C59.4911 47.27 59.4911 46.75 59.4911 46.34C58.4911 45.65 57.5512 45 56.6012 44.4C56.028 44.0109 55.4103 43.692 54.7612 43.45C54.5944 43.4346 54.4264 43.4613 54.2726 43.5277C54.1189 43.5941 53.9843 43.698 53.8812 43.83C53.7863 43.9771 53.7294 44.1454 53.7154 44.3199C53.7014 44.4944 53.7309 44.6697 53.8011 44.83C54.0615 45.274 54.4003 45.6671 54.8011 45.99C55.6111 46.66 56.4611 47.28 57.4811 48.07C57.0911 48.24 56.8312 48.47 56.5712 48.45C55.7851 48.4297 55.0036 48.3224 54.2411 48.13C52.6899 47.7625 51.0622 47.8956 49.5912 48.51C49.1312 48.67 48.5012 49.04 48.3912 49.43C48.0512 50.57 47.1512 51.09 46.3212 51.73C43.8312 53.66 41.4012 55.68 38.8412 57.52C36.8548 58.9538 34.777 60.2565 32.6212 61.42C31.5101 61.952 30.3162 62.2902 29.0912 62.42C28.8284 62.4405 28.5641 62.4088 28.3136 62.3267C28.0631 62.2447 27.8313 62.114 27.6315 61.942C27.4317 61.7701 27.2678 61.5604 27.1494 61.3249C27.0309 61.0894 26.9601 60.8329 26.9412 60.57C26.901 59.8405 26.901 59.1094 26.9412 58.38C28.6812 56.38 30.3912 54.66 31.2612 52.29C31.5632 51.4811 31.9628 50.712 32.4512 50C32.7142 49.4897 33.1029 49.055 33.5805 48.7365C34.0581 48.4181 34.609 48.2266 35.1812 48.18C35.8317 48.1652 36.4713 48.0101 37.0564 47.7253C37.6415 47.4405 38.1582 47.0328 38.5712 46.53C39.1461 45.9902 39.684 45.4122 40.1812 44.8C42.4212 41.98 44.6611 39.16 46.8611 36.31C48.5711 34.08 47.8611 31.59 45.2911 30.57C43.6805 29.8095 41.844 29.6776 40.1412 30.2C38.7789 30.7126 37.2818 30.7408 35.9012 30.28C36.0712 28.23 36.6411 26.21 36.9811 24.16C37.3211 22.11 37.8212 19.85 38.1012 17.67C38.3812 15.49 38.4412 13.5 38.6212 11.28C40.1312 10.79 41.5412 10.36 42.9412 9.88998C44.3412 9.41998 45.9411 8.88999 47.4211 8.33999C47.5773 8.25941 47.7416 8.19571 47.9112 8.14999C51.8312 7.70999 55.6811 6.79001 59.6711 6.92001C61.3479 6.99074 63.027 6.85639 64.6711 6.51998C66.5324 6.14247 68.4114 5.85881 70.3011 5.67001C71.5998 5.57472 72.8788 5.29872 74.1012 4.85C76.3328 4.08779 78.6446 3.5845 80.9911 3.35C81.3303 3.34651 81.6679 3.39714 81.9911 3.49999C83.8086 3.73115 85.6115 4.06502 87.3912 4.49999C88.5556 4.84587 89.6895 5.28738 90.7812 5.82C93.9383 7.3066 97.2819 8.35947 100.721 8.95001C102.16 9.33004 103.557 9.85263 104.891 10.51C105.207 10.6562 105.469 10.8975 105.641 11.2C106.641 12.93 108.041 13.01 109.641 12.43C110.231 10.86 110.231 10.86 111.271 10.81C110.561 13.33 109.851 15.81 109.151 18.3C108.86 19.0352 108.649 19.7996 108.521 20.58C108.269 22.5838 107.656 24.5252 106.711 26.31C105.891 28.0567 105.173 29.8497 104.561 31.68C103.956 33.633 102.861 35.3988 101.381 36.81C99.2108 37.0231 97.0231 36.9862 94.8611 36.7C93.9051 36.5759 92.9349 36.6131 91.9911 36.81V36.83ZM124.211 12.77C124.095 14.7812 123.642 16.7587 122.871 18.62C122.096 20.1899 121.595 21.881 121.391 23.62C121.125 25.3386 120.648 27.0179 119.971 28.62C119.349 30.3506 118.887 32.1348 118.591 33.95C117.889 37.4857 116.388 40.814 114.201 43.68C113.978 43.942 113.741 44.1924 113.491 44.43L100.971 42.53C100.651 41.41 100.741 40.44 101.811 40.04C104.431 39.04 105.561 36.75 106.811 34.54C107.202 33.6656 107.536 32.7671 107.811 31.85C108.461 30.23 109.061 28.58 109.811 27.01C110.626 25.3635 111.202 23.6091 111.521 21.8C111.947 19.7471 112.501 17.7231 113.181 15.74C113.484 14.5587 113.909 13.4124 114.451 12.32C114.871 11.57 114.681 10.48 114.781 9.38998C115.061 8.96998 115.631 9.16998 116.121 9.20998C118.145 9.24594 120.157 9.51097 122.121 9.99999C123.931 10.53 124.451 11.01 124.211 12.75V12.77Z" fill="#DADAD9"/>
</svg>
