<svg width="111" height="223" viewBox="0 0 111 223" fill="none" xmlns="http://www.w3.org/2000/svg">
<path fill-rule="evenodd" clip-rule="evenodd" d="M71.2964 22.5246C69.7887 19.9931 68.4727 17.3522 67.3596 14.6242C67.2267 14.3506 67.0631 14.0932 66.8719 13.8567C66.8015 13.6898 66.6928 13.5419 66.5545 13.425C66.4161 13.3081 66.2522 13.2255 66.0759 13.184C65.5694 13.0315 65.0999 12.7761 64.6968 12.4336C64.1906 12.0227 63.5541 11.8064 62.9024 11.824C62.2506 11.8416 61.6267 12.0919 61.1435 12.5295L59.4238 13.7525C58.829 12.43 58.3679 11.2339 57.7831 10.1044C57.3241 9.07061 56.7875 8.07304 56.1779 7.12023C55.2389 5.65025 53.8478 4.52505 52.214 3.91397C51.6687 3.66043 51.058 3.58269 50.4665 3.69153C49.8751 3.80038 49.3321 4.09043 48.9127 4.5215C48.6681 4.69401 48.4627 4.91636 48.3102 5.17394C48.1577 5.43152 48.0614 5.7185 48.0278 6.01595C48.0141 6.13176 47.7323 6.23657 47.5157 6.38882C47.0134 5.75948 46.9561 4.97385 46.3233 4.46896C45.4768 3.72221 44.6827 2.91791 43.9469 2.06185C43.364 1.35573 42.5523 0.875984 41.6526 0.705799C40.7529 0.535614 39.822 0.685727 39.0214 1.13014C37.8545 1.75364 36.4765 2.17602 35.9987 3.67375C35.8613 3.94471 35.6253 4.15284 35.3393 4.25543C34.7297 4.5515 34.1981 4.9865 33.7873 5.52548C33.3765 6.06446 33.0979 6.69235 32.974 7.35862C32.4902 8.632 32.213 9.97452 32.1528 11.3354C32.1394 11.5607 32.0957 11.7832 32.0228 11.9969C31.9548 12.2358 31.4272 12.3305 31.2567 12.1221C31.054 11.9052 30.8818 11.6618 30.7448 11.3984C29.6467 9.41468 28.3628 7.53959 26.9105 5.79837C26.1697 4.72799 25.0854 3.94282 23.8374 3.57303C23.2042 3.31787 22.5113 3.24905 21.8403 3.37469C20.4246 3.8852 19.0425 4.48478 17.7025 5.16982C17.3664 5.3433 17.107 5.63589 16.9751 5.9904C16.5762 7.41975 15.7069 8.7537 15.8661 10.3268C15.9173 11.0824 15.9101 11.8407 15.8447 12.5952C15.7176 15.091 15.9419 17.5923 16.511 20.0257C17.0964 22.4488 17.7588 24.8482 18.3168 27.2836C19.072 30.3716 20.3354 33.3124 22.0552 35.986C23.2446 37.8271 24.2717 39.7683 25.1248 41.7874C25.4609 42.7903 25.949 43.7357 26.5719 44.5905C28.3138 46.606 29.3355 49.1438 29.4761 51.804C29.6097 53.4585 29.3371 55.1205 28.6821 56.6457C28.5931 56.8996 28.4226 57.117 28.1972 57.264C27.9718 57.411 27.704 57.4793 27.4358 57.4584C26.3213 57.4086 25.2248 57.1589 24.1986 56.7213C21.8498 55.5026 19.4253 54.4359 16.94 53.5275C14.6899 52.6305 12.3584 51.9533 9.97791 51.5051C8.34613 51.1485 6.65165 51.1989 5.04393 51.6518C4.19715 51.8901 3.32258 52.0422 2.3559 52.2576C1.98188 52.8644 1.52801 53.5619 1.12707 54.2795C0.233012 55.9604 -0.126572 57.8742 0.0963312 59.765C0.163041 60.3679 0.373123 60.9461 0.709032 61.4513C1.04494 61.9564 1.4969 62.3738 2.02712 62.6685C2.54417 62.9714 3.04026 63.3088 3.51198 63.6783C4.9193 64.8274 6.50379 65.7404 8.20367 66.3818C8.92293 66.6146 9.6067 66.9454 10.2357 67.3649C13.3895 69.6965 16.7846 71.7112 19.5872 74.5296C20.2236 75.1645 21.0004 75.6484 21.7016 76.2322C23.6779 77.7596 25.2838 79.7136 26.3995 81.9483C26.919 83.0381 27.5193 84.0875 28.1952 85.0879C29.7559 87.4123 31.3591 89.6847 32.9562 91.9927C34.0438 93.6307 34.9613 95.3782 36.0771 96.9816C36.7494 97.9402 37.4396 98.7921 36.9181 100.046C36.8639 100.169 36.9418 100.343 36.9627 100.487C37.0706 101.458 37.1105 102.449 37.3045 103.392C37.4985 104.336 37.8449 105.276 38.1519 106.3C37.5099 107.227 36.6563 107.986 35.6619 108.517C34.0563 109.36 32.4794 110.266 30.8368 111.027C29.5326 111.613 28.5873 112.291 29.2768 113.921C28.7211 115.684 29.5552 117.173 30.2178 118.695C32.4232 123.423 34.3404 128.281 35.9588 133.24C37.1903 137.369 38.4716 141.485 39.5175 145.664C40.2865 148.739 40.7299 151.895 41.2463 155.018C41.5341 156.731 41.7526 158.46 41.9017 160.205C42.3237 165.41 42.5305 170.624 43.1189 175.809C43.761 181.43 44.7177 187.02 45.5619 192.627C45.8623 194.685 46.3397 196.795 46.5581 198.889C47.2047 205.057 47.7295 211.246 48.3091 217.411C48.4558 219.069 48.8811 220.69 49.5669 222.207C49.7478 222.454 49.9616 222.675 50.2024 222.864C50.7705 222.106 51.0459 221.169 50.9776 220.224C51.0296 218.413 50.9251 216.596 50.8238 214.811C50.6875 212.679 50.5056 210.568 50.2963 208.469C49.9105 204.564 49.5744 200.647 49.0495 196.749C48.4459 192.262 47.6759 187.795 46.9373 183.324C46.7422 181.518 46.2935 179.749 45.6043 178.069C45.3058 177.37 45.1304 176.626 45.0859 175.868C44.858 173.24 44.6402 170.586 44.5423 167.954C44.4317 166.828 44.5422 165.69 44.8677 164.606C45.2736 163.472 45.3349 162.242 45.044 161.073C44.7393 159.445 44.3991 157.81 44.0944 156.182C43.9487 155.37 43.8486 154.538 43.7434 153.719C43.5777 152.522 43.4211 151.32 43.2281 150.135C42.6719 146.627 41.875 143.16 40.8429 139.761C39.2637 134.001 37.2895 128.357 34.9342 122.868C34.1139 121.044 33.3182 119.275 32.5143 117.487C32.0711 116.719 31.9221 115.816 32.0949 114.946L33.2628 114.08C34.039 113.49 34.8325 112.914 35.5831 112.291C36.2068 111.782 36.8001 111.237 37.3599 110.659C38.0098 109.983 38.8371 110.872 39.503 110.353C39.585 110.316 39.7701 110.386 40.0952 110.426C40.329 110.946 40.608 111.567 40.8828 112.178C41.0658 112.599 41.3669 112.958 41.7496 113.212C42.1323 113.466 42.5803 113.604 43.0396 113.609C43.9333 113.646 44.8438 113.598 45.7444 113.577C47.0217 113.477 48.3034 113.446 49.584 113.484C52.6728 113.804 55.7937 113.595 58.8119 112.864C61.8871 112.095 65.0497 111.594 68.0333 110.548C70.6895 109.628 73.4286 109.086 76.1284 108.409C78.169 107.871 80.1598 107.159 82.0792 106.281C82.569 106.071 83.0077 105.757 83.3653 105.362C83.7229 104.966 83.9911 104.498 84.1516 103.99C84.4596 102.912 84.6989 101.815 84.8682 100.707C85.022 99.9032 85.0915 99.0825 85.2061 98.3621C86.0543 98.2161 86.8893 98.0019 87.7031 97.7216C89.404 97.0964 91.26 97.0299 93.0014 97.5317C93.5703 98.5488 93.8365 99.7075 93.7685 100.871C93.3642 104.475 93.5487 108.122 94.3147 111.667C94.3297 111.742 94.3385 111.819 94.341 111.896C95.0978 118.65 95.943 125.43 97.1148 132.107C98.0884 137.612 98.9311 143.143 100.288 148.574C100.814 150.695 101.196 152.859 101.514 155.029C102.158 159.509 102.734 164.009 103.28 168.489C103.64 170.5 103.747 172.548 103.598 174.585C103.592 175.109 103.681 175.63 103.862 176.122C104.117 177.104 104.43 177.994 104.628 178.947C105.322 182.198 105.958 185.464 106.644 188.72C107.631 193.146 108.313 197.635 108.684 202.155C108.751 203.133 108.957 204.104 109.119 205.073C109.143 205.297 109.238 205.508 109.39 205.675C109.562 205.807 109.774 205.874 109.991 205.865C110.061 205.846 110.125 205.81 110.177 205.76C110.229 205.71 110.268 205.647 110.289 205.578C110.36 204.833 110.417 204.084 110.445 203.315C110.745 199.467 110.541 195.596 109.838 191.8C108.964 187.808 108.171 183.778 107.394 179.808C106.893 177.303 106.231 174.783 106.592 172.197C106.615 171.816 106.587 171.434 106.509 171.061C105.785 165.064 105.057 159.064 104.325 153.063C104.277 152.689 104.208 152.317 104.12 151.949C103.516 149.217 102.844 146.504 102.303 143.765C100.496 134.87 99.0305 125.924 97.9078 116.926C97.4868 113.552 96.9308 110.194 96.4601 106.831C96.3987 106.233 96.3845 105.631 96.4177 105.03C96.454 103.6 96.4639 102.159 96.5896 100.732C96.7829 98.5284 95.7264 96.7886 94.6393 95.0298C94.5166 94.793 94.3141 94.6073 94.0676 94.5054C93.8211 94.4035 93.5466 94.3921 93.2925 94.4732C92.2078 94.8035 91.068 94.9135 89.9402 94.7966C89.0294 94.782 88.1282 94.9844 87.311 95.387C86.8719 95.626 86.3865 95.7679 85.8877 95.803C85.389 95.8382 84.8885 95.7657 84.4202 95.5906C84.252 95.2167 84.0675 94.8063 83.887 94.405C83.1446 92.7543 82.705 90.9235 81.4491 89.5694C80.9063 89.0426 80.5241 88.3727 80.3467 87.6373C80.1693 86.902 80.204 86.1314 80.4469 85.415C80.5357 85.1231 80.6032 84.8252 80.6491 84.5236C80.8277 83.1166 81.2124 81.7045 80.3464 80.3396C80.1844 79.9185 80.1233 79.4654 80.1679 79.0164C80.1408 77.9322 80.1474 76.8985 80.1549 75.8425C80.196 72.8182 79.9392 69.7973 79.3882 66.8234C78.7405 63.4086 78.2553 59.9646 77.6797 56.5393C77.5337 55.5713 77.5697 54.5846 77.7857 53.6298C78.1441 52.3118 78.2371 50.9357 78.0592 49.5814C77.7545 47.9531 77.6122 46.2957 77.3622 44.6428C77.0475 42.0178 76.4884 39.428 75.6924 36.907C75.2244 35.5495 74.8608 34.156 74.4517 32.783C74.259 32.1351 74.0753 31.483 73.8867 30.8442C73.5951 29.8788 73.2944 28.9176 73.0539 28.017C72.7058 26.1185 72.1151 24.2725 71.2964 22.5246ZM62.0096 13.4558L62.0506 13.5469L61.9074 13.5456L62.0096 13.4558ZM81.1098 93.9106C81.1471 94.8153 81.3471 95.7059 81.7002 96.5398C82.0801 97.5691 82.2442 98.6657 82.1823 99.7611C82.1204 100.857 81.8338 101.928 81.3404 102.908C81.1477 103.312 80.8213 103.637 80.4164 103.828C78.8628 104.59 77.24 105.202 75.57 105.656C72.789 106.348 69.9984 106.945 67.2711 107.854C63.9902 108.945 60.554 109.57 57.1856 110.394C55.0561 110.903 52.8557 111.047 50.678 110.82C48.866 110.628 47.0374 110.655 45.232 110.901C44.6572 110.958 44.0793 110.976 43.5021 110.956C42.0428 108.55 40.8074 106.015 39.8114 103.383C39.6735 102.742 39.579 102.092 39.5287 101.438C39.9208 101.5 40.3064 101.598 40.6803 101.731C40.9145 101.857 41.1762 101.922 41.4419 101.922C41.7077 101.921 41.969 101.854 42.2023 101.727C42.7371 101.435 43.364 101.361 43.9519 101.521C46.9383 102.261 49.9678 101.951 52.9612 101.757C56.0509 101.576 59.1291 101.235 62.1832 100.734C64.8516 100.28 67.4453 99.4639 70.1068 98.848C70.6099 98.6912 71.1234 98.5703 71.6435 98.4859C73.6627 98.1809 75.6148 97.5329 77.4155 96.5699C77.7623 96.4302 78.0746 96.2167 78.3308 95.9444C78.5869 95.672 78.7809 95.3473 78.8991 94.9926C79.3124 93.8637 79.7828 92.764 80.2358 91.6502L80.6128 91.7328C80.8507 92.4403 81.0171 93.1699 81.1098 93.9106ZM69.4222 25.5495C69.9339 27.3698 70.2558 29.2316 70.6904 31.0756C70.7017 31.3763 70.7885 31.6693 70.943 31.9275C71.0975 32.1858 71.3145 32.4009 71.5742 32.553C71.8291 32.7084 72.0243 32.945 72.1285 33.2248C72.8781 34.7943 73.3771 36.4716 73.6074 38.1956C73.676 39.4695 74.0004 40.7271 74.136 42.0038C74.7047 47.5594 75.5342 53.0854 75.6981 58.6915C75.8422 61.2549 76.182 63.8036 76.7145 66.3153C77.273 69.6691 77.5633 73.0621 77.5827 76.462C77.6626 80.0774 78.0156 83.6904 78.2519 87.3122C78.3247 88.376 78.3974 89.4397 78.461 90.5076C76.7812 91.4225 75.0342 92.2082 73.2351 92.8579C70.2547 93.9351 67.2529 94.9891 64.2324 95.9527C62.8616 96.3818 61.4597 96.7044 60.0392 96.9176C56.8401 97.4353 53.6268 97.9703 50.4117 98.3307C47.1591 98.7715 43.8536 98.0879 41.0426 96.3931C40.5275 96.0766 39.912 95.8051 39.7448 95.1896C39.4942 94.3154 38.7373 94.4365 38.036 94.2914C36.6568 91.9073 35.2015 89.5246 33.897 87.0631C33.0115 85.4109 31.6913 83.9871 31.1765 82.1353C29.4074 79.9815 27.8891 77.6051 25.7246 75.8154C23.6855 74.1339 21.6272 72.4828 19.5789 70.8053C19.2982 70.5551 19.0029 70.3218 18.6945 70.1066C16.9535 69.182 15.6107 67.6528 14.9187 65.807C13.9976 65.8261 13.0827 65.6518 12.2331 65.2955C11.3835 64.9391 10.618 64.4086 9.98614 63.7381C9.35979 63.0768 8.75034 62.3312 7.66181 63.0071C7.4794 63.0892 7.06863 62.956 6.84661 62.8036C5.88924 62.1377 4.905 61.3633 3.97865 60.5957C3.28145 59.8957 2.81937 58.996 2.65648 58.0215C2.6221 57.8736 2.62844 57.7192 2.67482 57.5746C2.70768 57.4283 2.75741 57.1976 2.84359 57.1698C3.98448 56.8541 3.64419 55.4391 4.47369 54.9674C5.31721 54.4619 6.21714 54.0572 7.155 53.7615C7.81081 53.5515 8.50918 53.5113 9.18474 53.6447C9.86031 53.7781 10.491 54.0808 11.0177 54.5243C11.7609 55.0262 12.5842 55.3975 13.4523 55.6223C15.6158 56.3117 17.637 57.3864 19.4183 58.7944C20.3819 59.6428 21.6152 60.1217 22.8988 60.1457C24.5458 60.3126 26.206 60.3012 27.8506 60.1117C28.447 60.0119 29.036 59.8716 29.6134 59.6917C29.9419 59.6007 30.2446 59.4345 30.4979 59.2065C30.7512 58.9784 30.9479 58.6946 31.0728 58.3775C31.4399 57.6291 31.7428 56.8509 31.9784 56.0514C32.5558 53.215 32.7251 50.3976 31.4864 47.6433C30.8611 45.9397 29.9703 44.3457 28.847 42.9204C28.3581 42.2504 27.9707 41.5122 27.6971 40.7292C26.8689 38.7004 25.8567 36.7516 24.6731 34.9073C22.892 32.268 21.6152 29.3216 20.9074 26.2172C20.4532 24.3053 19.9717 22.4056 19.4363 20.5083C18.613 17.0476 18.3769 13.4733 18.7379 9.9344C18.8782 9.09916 19.119 8.28396 19.4552 7.50658C20.3559 6.60808 21.7922 6.72968 22.1445 5.34318C23.4077 5.65723 24.5108 6.42597 25.2427 7.50238C27.1699 9.92957 28.7302 12.6267 29.8735 15.5073C30.8318 18.2233 31.8133 20.9177 32.804 23.6081C33.4966 25.4896 34.2859 27.4152 35.0041 29.3291C35.6462 31.0249 36.2477 32.7281 36.8897 34.424C37.3942 35.7651 37.9443 37.0856 38.467 38.4185C38.8074 39.1755 39.0384 39.9817 39.3423 40.755C40.1075 42.7245 40.8179 44.7186 41.6833 46.6429C42.1254 47.4296 42.669 48.1547 43.3001 48.7995C43.3868 48.8656 43.4873 48.9115 43.594 48.9337C43.7008 48.9559 43.8111 48.9539 43.917 48.9278C44.0143 48.8817 44.0988 48.8124 44.1632 48.7261C44.2276 48.6398 44.2699 48.5391 44.2864 48.4327C44.2535 47.5331 44.1066 46.6412 43.8493 45.7784C42.8962 43.5576 42.1531 41.2524 41.6298 38.8929C41.4615 38.0765 41.1902 37.2848 40.8224 36.5368C39.9104 34.2949 39.2952 31.9433 38.9923 29.542C38.6599 27.6082 38.4087 25.6598 38.0265 23.7374C37.7783 22.4784 37.3313 21.265 36.9969 20.0339C36.631 18.8831 36.3249 17.7142 36.0798 16.5319C35.915 14.9558 35.6105 13.3975 35.1698 11.8754C34.9713 11.1799 34.9199 10.4508 35.0186 9.73432C35.1174 9.01786 35.3642 8.32982 35.7434 7.71398C36.0357 7.19118 36.5021 6.78742 37.0614 6.573C38.215 6.20946 39.3966 5.94205 40.5943 5.77354C40.9666 5.68646 41.3561 5.70792 41.7165 5.83536C42.077 5.9628 42.3934 6.19086 42.6282 6.49258C42.9922 6.87166 43.3129 7.29018 43.5841 7.74032C44.9172 10.7044 46.2502 13.6684 47.4464 16.694C47.826 18.0712 48.0916 19.4773 48.2407 20.8981C48.6371 23.3485 49.2249 25.7641 49.9986 28.1227C50.6941 30.2774 51.2795 32.4661 51.7526 34.6803C51.7914 35.204 51.895 35.721 52.061 36.2192C53.025 37.9238 52.7505 39.9222 53.4213 41.6819C53.4768 42.0392 53.489 42.4019 53.4575 42.7621C53.4213 43.3683 53.5663 43.9716 53.874 44.4951C54.1817 45.0187 54.6382 45.4388 55.1854 45.7021C55.6956 46.0658 56.1457 46.5071 56.5193 47.0101C56.715 46.4944 56.9996 46.1033 57.0211 45.6879C57.003 44.5565 56.9057 43.4278 56.73 42.31C55.9505 37.5291 54.7733 32.8393 53.5465 28.1609C51.9064 21.8811 50.104 15.6303 49.2865 9.15597C49.2617 8.90593 49.2585 8.65422 49.2771 8.40364C49.7852 7.58302 50.7235 7.84086 51.274 7.18759C51.4034 7.04881 51.5625 6.94103 51.7394 6.87235C51.9163 6.80367 52.1064 6.77585 52.2956 6.79093C52.4848 6.80601 52.6681 6.86362 52.8319 6.95946C52.9956 7.05529 53.1356 7.18686 53.2414 7.34438C53.5274 7.69486 53.7644 8.08254 53.9461 8.49677C55.2791 11.4608 56.6122 14.4249 57.9493 17.398C58.7728 19.2688 59.3524 21.2376 59.6738 23.2561C59.6938 23.5576 59.7538 23.8551 59.8524 24.1407C61.1562 27.1618 61.2672 30.4561 62.0284 33.6115C62.7896 36.7669 63.2681 39.8302 63.8566 42.9427C64.0478 43.9531 64.1935 44.9841 64.3666 46.0027C64.8409 46.0535 65.3103 46.1431 65.77 46.2707C66.2348 46.4851 66.6853 46.7293 67.1185 47.0019C67.1953 46.557 67.2273 46.1055 67.2141 45.6541C66.5837 40.6197 65.6145 35.6609 64.4972 30.7139C63.8986 28.0665 63.3771 25.3954 62.8027 22.7041C62.6793 22.1127 62.497 21.5368 62.3239 20.9568C62.0187 19.888 61.474 18.872 61.9357 17.6556C62.0621 17.3027 61.8091 16.8134 61.7094 16.299C62.3929 16.213 63.087 16.2953 63.7315 16.5386C64.376 16.7819 64.9512 17.1789 65.4074 17.6951C67.3764 19.9397 68.7561 22.6389 69.4222 25.5495Z" fill="#DADAD9"/>
</svg>
