<svg width="198" height="217" viewBox="0 0 198 217" fill="none" xmlns="http://www.w3.org/2000/svg">
<path d="M196.82 99.4315C196.731 99.0974 196.598 98.7767 196.424 98.4784C194.618 95.3582 191.94 92.8337 188.719 91.2155C190.895 87.0759 191.015 82.276 188.719 77.4762C188.619 77.1369 188.474 76.8125 188.288 76.5116C188.136 76.2433 187.957 75.9912 187.754 75.7595C185.98 73.1517 183.561 71.0472 180.732 69.6506C182.811 65.6316 182.954 60.9867 180.801 56.2788C180.708 55.9391 180.571 55.6129 180.394 55.3085C178.51 52.0929 175.695 49.5244 172.321 47.9422C173.51 46.1641 174.423 44.2169 175.031 42.1663C176.397 37.1884 173.171 31.2575 169.927 27.7093C169.554 27.2946 169.096 26.9655 168.583 26.7447C157.192 18.988 146.117 25.8663 135.857 32.4345C126.602 38.3654 117.525 44.6638 108.666 51.2148C105.961 35.4143 100.731 21.4971 87.2098 11.2199C76.3929 3.00385 63.3713 -5.90114 50.5908 5.19708C38.3099 15.8647 50.0971 25.2347 56.9064 35.4603C69.1587 53.8846 64.29 80.0828 57.5208 99.9884C43.0696 95.2287 30.0192 107.073 18.1804 114.577C5.23341 122.788 -5.62365 131.986 3.2067 147.212C14.9078 166.733 26.0117 186.656 38.1664 205.866C44.5451 215.943 51.1823 219.25 61.8384 213.405C69.7501 209.064 77.3403 203.874 85.0568 199.235C90.7236 195.836 100.111 191.771 103.165 185.352C105.801 179.818 105.324 174.151 103.389 168.639C110.767 168.065 116.227 166.549 123.484 162.323C134.433 155.973 145.187 149.267 155.952 142.601C169.835 134.012 204.594 120.445 196.82 99.4315ZM67.1607 201.055C62.7111 203.759 58.4107 206.992 53.5592 208.961C48.3919 211.045 43.0639 199.539 41.3242 196.439C37.6267 189.871 33.7168 183.417 29.8413 176.918C23.1812 165.699 16.4829 154.5 9.74622 143.319C1.23165 128.627 27.4299 117.546 36.5014 111.569C56.9294 98.0995 71.0936 125.923 78.1728 140.443C83.7075 151.771 92.1016 161.37 96.7292 173.198C101.627 185.605 75.1241 196.227 67.1607 201.061V201.055ZM145.664 139.972C137.813 144.818 129.926 149.602 122.003 154.326C113.965 159.097 109.062 160.727 99.9444 161.175C97.022 155.933 93.3819 150.967 90.5456 146.569C85.2635 138.37 81.1928 129.586 75.7729 121.433C72.6266 116.708 69.0267 108.664 64.2039 103.95C71.7883 82.4368 76.4446 55.5438 65.2603 34.4785C62.6077 29.4892 58.9447 24.9419 55.5917 20.4234C47.3183 9.26777 66.4315 6.64393 74.148 11.3232C91.9063 22.1056 98.9511 36.4248 101.787 56.3936C101.345 56.7323 100.897 57.0596 100.461 57.3983C96.6029 60.3609 100.409 67.0153 104.325 64.0068C112.455 57.7601 120.843 51.8464 129.283 46.0245C138.027 39.996 153.397 25.9926 164.737 33.3933C166.459 35.3856 168.09 38.4401 167.372 41.0697C166.608 43.837 164.082 46.4494 162.354 48.6599C162.268 48.7689 162.216 48.8838 162.141 48.9986C161.733 49.4493 161.447 49.9979 161.312 50.5914C161.177 51.1848 161.198 51.8029 161.372 52.3861C161.559 52.9792 161.877 53.523 162.301 53.9779C162.725 54.4328 163.245 54.7873 163.824 55.0156C164.311 55.296 164.87 55.427 165.432 55.3923C165.993 55.3576 166.532 55.1588 166.981 54.8204C169.852 54.2807 172.338 56.7438 173.768 59.1552C175.881 63.1742 174.623 67.0095 170.983 69.6219C170.361 70.0492 169.877 70.6492 169.591 71.348C169.306 72.0468 169.231 72.8139 169.376 73.5548C169.376 73.6294 169.376 73.7098 169.422 73.7902C169.416 73.8206 169.416 73.8516 169.422 73.882C169.422 73.9222 169.456 73.9567 169.468 73.9969C170.042 76.1155 172.137 77.7231 174.394 76.4829C177.431 75.4495 180.095 77.8723 181.651 80.3584C183.947 84.4463 182.799 88.3964 179.033 91.1179C178.545 91.4666 178.14 91.9172 177.844 92.4384C177.541 92.8726 177.34 93.3697 177.255 93.8926C177.171 94.4155 177.205 94.9508 177.356 95.4584C177.535 96.0471 177.852 96.5845 178.281 97.0258C178.706 97.6623 179.35 98.1203 180.091 98.313C180.832 98.5056 181.618 98.4194 182.3 98.0708C185.36 97.0086 188.001 99.4487 189.568 101.958C193.794 116.352 154.781 134.345 145.664 139.978V139.972Z" fill="#DADAD9"/>
</svg>
