<svg width="239" height="206" viewBox="0 0 239 206" fill="none" xmlns="http://www.w3.org/2000/svg">
<path fill-rule="evenodd" clip-rule="evenodd" d="M34.7142 204.413C35.7942 203.883 36.8542 203.333 37.9042 202.763C39.1238 202.175 40.3031 201.507 41.4342 200.763C44.4977 198.6 47.7432 196.706 51.1342 195.103C51.93 194.738 52.6625 194.249 53.3042 193.653C55.7142 191.273 58.8142 189.863 61.3042 187.583C61.7242 187.773 62.0042 187.893 62.3042 188.033C62.5514 188.169 62.8329 188.228 63.1137 188.205C63.3946 188.182 63.6625 188.077 63.8842 187.903C65.4942 186.743 67.0842 185.563 68.6842 184.373C69.3842 183.853 70.0842 183.313 70.7742 182.783L81.4042 174.613C82.2842 173.943 83.1742 173.273 84.0842 172.613C92.8142 166.313 101.614 160.093 110.254 153.673C113.914 150.963 117.634 148.393 121.504 145.983C126.456 142.917 131.214 139.551 135.754 135.903C138.892 133.19 142.327 130.842 145.994 128.903C146.42 128.692 146.816 128.426 147.174 128.113C148.524 126.983 149.854 125.843 151.174 124.703C152.924 123.193 154.584 121.543 156.464 120.223C157.76 119.358 158.894 118.272 159.814 117.013C160.331 116.411 160.621 115.647 160.634 114.853C160.653 114.397 160.703 113.943 160.784 113.493C162.314 112.313 163.694 111.093 165.224 110.113C168.094 108.273 170.224 105.723 172.494 103.283C172.731 103.065 172.907 102.789 173.005 102.482C173.104 102.176 173.12 101.849 173.054 101.533C172.654 100.013 172.704 98.3633 171.564 97.0633C171.314 96.7726 171.132 96.4294 171.032 96.0591C170.931 95.6888 170.915 95.3007 170.984 94.9234C172.214 94.2034 173.384 93.5534 174.514 92.8534C177.114 91.2334 179.824 89.9733 182.994 90.0933C183.631 90.0831 184.265 90.0026 184.884 89.8534C186.884 89.4834 188.884 88.7833 190.984 89.4734C191.064 89.488 191.145 89.488 191.224 89.4734C193.124 89.3133 195.034 89.1834 196.934 88.9534C197.729 88.8854 198.504 88.6754 199.224 88.3334C201.316 87.3357 203.538 86.6388 205.824 86.2634C208.674 85.5339 211.389 84.3522 213.864 82.7634C217.146 80.7998 220.299 78.6287 223.304 76.2634C225.034 74.8538 226.687 73.3516 228.254 71.7634C228.894 71.1634 229.384 70.3934 230.054 69.8534C231.882 68.2958 233.262 66.2803 234.054 64.0134C234.759 62.6082 235.203 61.0869 235.364 59.5234C235.444 56.8834 235.584 56.8834 234.654 54.7134C235.184 53.2034 235.754 51.7134 236.224 50.1934C236.694 48.6734 235.744 47.1034 235.584 45.4734C237.454 44.1034 237.814 41.8633 238.794 39.9734C238.997 39.536 239.053 39.0451 238.954 38.5734C238.474 36.4834 238.254 34.3034 236.954 32.4734C236.28 31.6962 235.677 30.8594 235.154 29.9734C234.716 29.0639 234.135 28.2302 233.434 27.5033C232.959 26.9854 232.565 26.3988 232.264 25.7634C231.049 23.3505 230.017 20.8502 229.174 18.2833C228.946 16.9519 228.342 15.7133 227.434 14.7134C227.633 14.0799 227.919 13.4774 228.284 12.9234C229.382 11.4512 230.267 9.83204 230.914 8.11337C231.327 7.40767 231.592 6.62496 231.692 5.81329C231.792 5.00161 231.724 4.17811 231.494 3.39336C232.134 2.71336 232.694 2.16335 233.204 1.56335C233.276 1.49268 233.332 1.4086 233.371 1.31591C233.41 1.22322 233.429 1.12379 233.429 1.02337C233.429 0.922944 233.41 0.823514 233.371 0.730827C233.332 0.638141 233.276 0.554026 233.204 0.48336C232.923 0.232276 232.576 0.0658641 232.204 0.00334941C231.884 -0.0188053 231.567 0.0694426 231.304 0.253349C229.689 1.2682 228.178 2.4406 226.794 3.75335C225.719 4.91758 224.487 5.92718 223.134 6.75335C219.84 8.69168 216.874 11.1386 214.344 14.0033C212.874 15.7833 211.214 17.4134 209.614 19.0734C209.263 19.5 208.787 19.8073 208.254 19.9534C205.334 20.3334 202.424 20.8534 199.454 20.4334C198.508 20.3184 197.551 20.3184 196.604 20.4334C195.736 20.5557 194.851 20.5013 194.004 20.2734C193.078 20.0189 192.1 20.0189 191.174 20.2734C189.324 20.7534 187.444 21.1134 185.604 21.6434C184.763 21.8737 183.978 22.2717 183.294 22.8133C181.635 24.183 180.153 25.7553 178.884 27.4934C177.884 28.9034 176.804 30.3034 175.704 31.6634C174.854 32.7234 173.914 33.6634 173.034 34.7334C170.234 38.0134 167.454 41.3033 164.644 44.5633C163.714 45.6533 162.644 46.6334 162.484 48.1834C162.41 48.4937 162.263 48.7817 162.054 49.0234C160.974 50.6034 159.954 52.2334 158.784 53.7434C157.614 55.2534 156.104 56.7434 154.934 58.3034C153.941 59.5478 152.879 60.7363 151.754 61.8634C151.338 62.3316 150.822 62.6998 150.243 62.9405C149.665 63.1811 149.04 63.2881 148.414 63.2533L146.234 61.2533C145.884 60.9433 145.554 60.5033 145.134 60.3733C143.464 59.8533 141.754 59.3134 140.024 60.1334C138.874 60.6688 137.758 61.2767 136.684 61.9534C135.274 62.8534 133.944 63.8633 132.564 64.8433C131.714 64.4933 130.934 64.1233 130.114 63.8433C129.524 63.6231 128.894 63.5278 128.264 63.5633C125.234 63.7715 122.269 64.5341 119.514 65.8133C114.446 68.162 109.577 70.9177 104.954 74.0534C103.387 75.142 101.761 76.1435 100.084 77.0534C93.5442 80.72 86.9976 84.37 80.4442 88.0033C79.8207 88.3594 79.1723 88.6702 78.5042 88.9334C73.9941 90.7572 69.5934 92.8407 65.3242 95.1734C64.1142 95.7934 62.9342 96.4734 61.7942 97.1734C60.1142 98.2434 58.5542 99.5134 56.7942 100.473C51.9942 103.163 47.1542 105.783 42.4342 108.613C38.2042 111.153 33.7642 113.353 29.3642 115.613C26.9642 116.863 24.4442 117.883 22.0142 119.093C15.3076 122.427 8.60424 125.76 1.90424 129.093C1.40484 129.343 0.943556 129.663 0.534242 130.043C0.304566 130.207 0.135704 130.442 0.0542366 130.711C-0.0272304 130.981 -0.0166747 131.27 0.084242 131.533C0.234339 131.862 0.490106 132.131 0.810844 132.298C1.13158 132.465 1.49886 132.519 1.85424 132.453C2.3152 132.329 2.76118 132.155 3.18424 131.933C5.55424 130.793 7.93424 129.663 10.2842 128.483C14.3442 126.43 18.3909 124.363 22.4242 122.283C23.4846 121.716 24.6849 121.463 25.8842 121.553C26.7574 121.65 27.6361 121.687 28.5142 121.663C29.1431 121.611 29.7602 121.462 30.3442 121.223C30.4082 121.107 30.4466 120.978 30.457 120.845C30.4673 120.712 30.4493 120.579 30.4042 120.453C29.869 120.133 29.3146 119.846 28.7442 119.593C29.3642 118.423 30.1442 119.043 30.9142 119.463C34.6968 117.757 38.3152 115.709 41.7242 113.343C43.5842 112.113 45.3442 110.713 47.2642 109.583C50.8442 107.493 54.4942 105.513 58.1442 103.583C63.0642 100.943 68.0142 98.3734 72.9642 95.7734C74.0842 95.1834 75.2142 94.6133 76.5242 93.9434C76.8042 95.0834 77.5242 95.2234 78.3342 94.8234L79.6442 94.2434C87.3642 90.8034 95.0809 87.3534 102.794 83.8934C103.664 83.5034 104.474 82.9834 105.304 82.5134C105.444 82.4334 105.634 82.3533 105.684 82.2234C105.832 81.9623 105.891 81.6608 105.854 81.3634C105.777 81.2395 105.673 81.1341 105.55 81.0546C105.428 80.9751 105.289 80.9235 105.144 80.9034C104.826 80.9075 104.513 80.9899 104.234 81.1434C101.174 82.4934 98.1042 83.8334 95.0542 85.2134C92.2242 86.5034 89.4242 87.8534 86.5942 89.1434C86.0312 89.3863 85.4534 89.5934 84.8642 89.7634C84.8642 89.7634 84.8642 89.7634 84.8642 89.8234H84.7842C84.3142 90.2934 84.2242 90.2834 83.5642 89.8234C83.614 89.9204 83.6431 90.0267 83.6498 90.1356C83.6564 90.2445 83.6405 90.3535 83.6029 90.4559C83.5653 90.5583 83.5069 90.6518 83.4314 90.7306C83.3559 90.8093 83.265 90.8715 83.1642 90.9134C82.9901 91.0117 82.8231 91.1219 82.6642 91.2434C82.6642 91.2434 82.6642 91.2434 82.6642 91.2934C82.3842 91.2434 82.5042 91.2934 82.6642 91.2934H82.7242C82.8542 91.0634 82.9642 90.8134 83.1042 90.5834C83.2442 90.3534 83.4442 90.1133 83.6142 89.8733H84.8342C84.8342 89.8733 84.8342 89.8734 84.8342 89.8234C84.8342 89.6834 84.8342 89.5234 84.9742 89.4734C88.3693 87.3859 91.8968 85.522 95.5342 83.8934C99.3035 82.3935 102.977 80.6636 106.534 78.7134C108.054 78.0133 109.53 77.2218 110.954 76.3433C112.294 75.3433 114.244 75.9334 115.304 74.4234C115.404 74.2834 115.754 74.2833 115.994 74.2833C116.234 74.2833 116.624 74.3734 116.934 74.4134L120.984 74.8534C121.224 74.8534 121.464 74.9034 121.694 74.9034C122.104 74.9034 122.524 74.8133 122.624 74.3433C122.674 74.1472 122.645 73.9396 122.544 73.7642C122.443 73.5888 122.279 73.4595 122.084 73.4034C121.634 73.2534 121.164 73.1434 120.724 72.9834C120.284 72.8234 119.614 72.9833 119.204 72.3433C119.954 71.6533 120.924 71.4133 121.634 70.8133C122.091 70.4232 122.646 70.1672 123.239 70.0737C123.832 69.9801 124.44 70.0527 124.994 70.2833C125.454 70.4233 125.904 70.5934 126.364 70.7034C126.689 70.7957 127.029 70.8229 127.364 70.7833C127.47 70.7541 127.567 70.6997 127.647 70.6248C127.727 70.5499 127.788 70.4568 127.824 70.3534C127.829 70.2407 127.806 70.1287 127.759 70.0262C127.713 69.9237 127.642 69.8337 127.554 69.7634C127.203 69.5836 126.838 69.4299 126.464 69.3034C126.044 69.1234 125.624 68.9134 125.144 68.6834C125.384 68.4034 125.514 68.1834 125.704 68.0834C126.192 67.8208 126.705 67.6065 127.234 67.4434C127.744 67.2934 128.304 66.9234 128.814 67.3834C129.514 68.0034 128.764 68.5233 128.654 69.0933C128.654 69.2433 128.654 69.4033 128.654 69.3133C129.654 70.5233 130.454 71.5434 131.234 72.6134C131.943 73.4753 132.541 74.4227 133.014 75.4334C134.382 78.8413 136.202 82.05 138.424 84.9734C138.944 85.6833 139.364 86.4534 139.834 87.1934C141.064 89.1934 142.264 91.1333 143.544 93.0633C146.616 97.4418 149.396 102.018 151.864 106.763C152.189 107.4 152.55 108.018 152.944 108.613C153.944 110.163 154.944 111.693 155.944 113.263C155.612 113.816 155.408 114.436 155.348 115.079C155.287 115.721 155.371 116.368 155.594 116.973C153.054 119.453 150.594 121.843 148.144 124.223C147.826 124.581 147.463 124.897 147.064 125.163C145.893 125.957 144.789 126.847 143.764 127.823C139.224 131.583 134.764 135.473 129.514 138.283C128.674 138.733 127.904 139.283 127.104 139.843C122.104 143.173 117.194 146.543 112.194 149.843C105.534 154.233 98.7942 158.503 92.1942 162.933C86.7642 166.573 81.3642 170.263 76.2842 174.403C74.4342 175.913 72.4842 177.313 70.5542 178.713C70.0645 179.112 69.478 179.374 68.8542 179.473C67.8253 179.622 66.8643 180.075 66.0942 180.773C63.4242 182.773 60.7442 184.773 58.0942 186.773C55.8642 188.453 53.4142 189.773 51.3642 191.773C50.7914 192.207 50.1623 192.56 49.4942 192.823C46.2364 194.328 43.1291 196.14 40.2142 198.233C39.3707 198.84 38.4736 199.369 37.5342 199.813C35.4142 200.903 33.2542 201.943 31.1242 203.023C30.1242 203.523 29.2142 204.083 28.2842 204.593C28.3742 204.863 28.3842 205.063 28.4842 205.143C28.6661 205.292 28.8774 205.402 29.1042 205.463C31.0542 205.993 32.8642 205.293 34.7142 204.413ZM222.714 10.9634C224.208 8.71963 226.325 6.96098 228.804 5.90337C228.934 6.14337 229.014 6.22335 229.004 6.28335C228.975 6.59241 228.901 6.89559 228.784 7.18337C227.724 9.18337 226.634 11.1834 225.614 13.0834L222.714 10.9634ZM215.024 18.6233C215.312 18.2262 215.722 17.9341 216.192 17.7915C216.661 17.6489 217.164 17.6636 217.624 17.8334C218.624 16.5534 219.474 15.4934 220.344 14.4534C221.414 13.1534 222.124 13.1534 223.204 14.4534C223.357 14.6875 223.482 14.9393 223.574 15.2034C222.734 15.6734 221.914 16.1534 221.094 16.6034C219.444 17.5034 218.344 18.7434 218.484 20.7634C218.489 20.8433 218.489 20.9234 218.484 21.0033C218.384 24.1133 218.424 24.1534 216.224 26.1434C214.249 27.9929 212.426 29.9995 210.774 32.1434C207.422 36.296 203.776 40.2027 199.864 43.8334C199.393 44.2544 198.895 44.6451 198.374 45.0033C198.162 45.1078 197.937 45.1819 197.704 45.2234L193.774 41.8834C193.974 41.5934 194.194 41.2134 194.474 40.8834C196.194 38.7934 197.884 36.6734 199.674 34.6434C201.464 32.6134 203.374 30.7034 205.164 28.6434C208.244 25.1534 211.674 21.9433 214.984 18.6233H215.024ZM218.484 36.8733C217.414 38.3533 216.224 39.7533 215.014 41.1233C213.793 42.6086 212.146 43.6836 210.294 44.2034C208.698 44.6706 207.126 45.2179 205.584 45.8433C204.171 46.4391 202.63 46.6695 201.104 46.5134C201.184 46.1834 201.164 45.9034 201.294 45.7734C206.405 40.8506 211.164 35.5742 215.534 29.9834C216.414 28.8934 217.534 27.9833 218.884 26.5333C219.114 27.9833 219.244 28.8334 219.374 29.6834C219.417 30.3145 219.518 30.9404 219.674 31.5534C220.354 33.5934 219.574 35.3033 218.444 36.8733H218.484ZM221.394 32.5434L221.534 32.6233L221.314 32.7134C221.304 32.6534 221.324 32.5934 221.354 32.5434H221.394ZM190.144 44.7634C191.006 44.3124 192.008 44.2136 192.941 44.4878C193.874 44.7621 194.664 45.3879 195.144 46.2334C195.374 46.5634 195.634 46.8533 195.974 47.2833C195.763 47.5979 195.536 47.9016 195.294 48.1934C192.628 51.12 189.924 54.0434 187.184 56.9634C187.074 57.0834 186.974 57.2134 186.864 57.3234C185.704 58.4034 184.464 59.4134 183.394 60.5734C182.324 61.7334 181.394 63.0233 180.394 64.2833C179.309 64.2645 178.239 64.0192 177.254 63.5633C177.181 63.2717 177.091 62.9845 176.984 62.7034C176.681 62.0406 176.603 61.2967 176.762 60.5854C176.92 59.874 177.308 59.2341 177.864 58.7634C178.584 58.0534 178.994 57.0034 180.064 56.6434C180.216 56.5809 180.337 56.4628 180.404 56.3133C181.464 54.0233 183.604 52.5933 185.074 50.6233C186.674 48.4333 188.584 46.5034 190.144 44.7634ZM184.144 46.9434L183.974 46.8133L184.264 46.5734C184.264 46.5234 184.264 46.4834 184.264 46.4434H184.344C184.915 44.8419 185.772 43.3576 186.874 42.0633C188.174 40.6933 189.414 39.2433 190.694 37.8433C190.994 37.5133 191.314 37.0834 192.004 37.5534C191.857 37.877 191.672 38.1824 191.454 38.4634C189.42 40.5705 187.541 42.8232 185.834 45.2034C185.454 45.7134 185.154 46.4234 184.344 46.4434V46.4934L184.244 46.5834L184.144 46.9434ZM157.974 58.7634C159.444 56.8834 161.114 55.1734 162.474 53.1834C162.844 52.6434 163.604 52.3734 164.174 51.9834C164.162 51.5092 164.263 51.0391 164.468 50.6114C164.674 50.1838 164.977 49.8109 165.354 49.5234C166.414 48.4434 167.484 47.3733 168.504 46.2533C169.154 45.6594 169.584 44.8628 169.724 43.9934C169.724 43.5134 170.264 43.0533 170.604 42.6233C171.254 41.9319 171.855 41.1968 172.404 40.4234C173.394 38.7797 174.628 37.2961 176.064 36.0234C176.967 35.2382 177.673 34.2516 178.124 33.1434C178.623 31.8679 179.512 30.7829 180.664 30.0434C181.513 29.6165 182.396 29.262 183.304 28.9834C183.584 27.4634 183.574 27.4534 184.564 26.6434C185.554 25.8334 186.564 25.0634 187.564 24.2334C188.433 23.466 189.467 22.9096 190.585 22.6078C191.704 22.3059 192.878 22.2668 194.014 22.4934C195.109 22.7232 196.24 22.7232 197.334 22.4934C198.035 22.3335 198.763 22.3335 199.464 22.4934C201.111 22.8062 202.792 22.9037 204.464 22.7833C204.774 22.7833 205.084 22.7834 205.624 22.8534C205.413 23.2286 205.172 23.5864 204.904 23.9234C203.273 25.5652 201.8 27.3564 200.504 29.2734C200.179 29.7156 199.775 30.0951 199.314 30.3934C198.74 30.8057 198.135 31.1734 197.504 31.4934C196.734 31.8734 195.924 32.1934 195.144 32.4934L194.074 31.6834C193.88 31.7049 193.691 31.7589 193.514 31.8433C190.204 34.5133 187.514 37.8433 184.664 40.8433C184.171 41.3659 183.726 41.9315 183.334 42.5333C182.515 43.801 181.592 44.9984 180.574 46.1134C179.638 47.3037 178.789 48.5603 178.034 49.8733C177.861 50.1434 177.746 50.4459 177.694 50.7624C177.642 51.0788 177.656 51.4024 177.734 51.7134C177.822 52.173 177.885 52.637 177.924 53.1034C176.994 54.2834 176.094 55.3833 175.234 56.5333C174.803 57.1017 174.44 57.7194 174.154 58.3733C174.034 58.6733 174.084 59.3134 174.294 59.4434C175.194 60.0134 175.124 60.9534 175.294 61.7634C175.754 64.4834 177.814 65.8534 179.984 66.7634C181.784 67.5134 184.134 66.5334 185.314 64.2034C185.744 63.3534 186.054 62.4334 186.564 61.6334C187.176 60.7029 187.861 59.8233 188.614 59.0033C191.404 55.9433 194.244 52.9234 197.034 49.8534C197.365 49.4573 197.774 49.1332 198.235 48.901C198.695 48.6688 199.199 48.5335 199.714 48.5033C200.062 48.5472 200.4 48.6486 200.714 48.8034C200.394 49.5734 199.714 49.5934 199.224 49.9234C199.101 50.006 198.996 50.1137 198.917 50.2394C198.837 50.3652 198.785 50.5062 198.764 50.6534C198.824 50.7858 198.916 50.9016 199.031 50.9905C199.146 51.0794 199.281 51.1387 199.424 51.1634C201.342 51.3752 203.28 51.028 205.004 50.1634C207.884 48.6234 210.774 47.0734 213.584 45.4234C214.577 44.7601 215.502 43.9997 216.344 43.1534C217.064 42.5234 217.694 41.7834 218.444 41.2034C220.236 39.7537 221.826 38.0723 223.174 36.2034C223.597 35.6777 223.885 35.0565 224.012 34.3941C224.139 33.7317 224.102 33.0482 223.904 32.4034C223.254 29.8534 222.744 27.2734 222.044 24.7434C221.716 23.4238 221.761 22.0388 222.174 20.7434C222.304 20.284 222.507 19.8485 222.774 19.4534C223.454 18.4534 224.024 18.3533 224.954 19.3433C225.424 19.8433 225.774 19.5434 226.314 19.4334C227.245 20.5917 227.984 21.8914 228.504 23.2833C228.924 24.1333 229.394 24.9734 229.774 25.8334C230.046 26.4859 230.28 27.1537 230.474 27.8334C230.684 28.4934 230.944 29.0134 231.804 28.8334C232.045 28.7845 232.295 28.8257 232.507 28.9493C232.719 29.0728 232.878 29.27 232.954 29.5033C233.448 30.5832 234.083 31.5922 234.844 32.5033C235.912 34.1377 236.549 36.0163 236.694 37.9634C236.414 38.3334 235.864 38.7334 235.824 39.1834C235.666 40.2192 235.114 41.154 234.284 41.7934C231.004 44.94 227.718 48.0767 224.424 51.2034C222.294 53.2034 220.134 55.2034 218.014 57.3034C217.014 58.2234 217.074 58.2533 216.724 59.7234C218.308 59.4061 219.794 58.721 221.064 57.7234C221.544 57.3034 222.004 56.8634 222.454 56.4234L229.394 49.5033C230.464 48.4433 230.734 48.3934 232.114 48.9534C232.534 49.1234 232.964 49.2534 233.464 49.4434C233.534 49.8201 233.534 50.2066 233.464 50.5834C232.941 52.339 232.141 53.9999 231.094 55.5033C229.424 57.5033 227.974 59.7434 225.654 61.1734C225.111 61.4243 224.67 61.8544 224.406 62.3914C224.143 62.9285 224.071 63.5399 224.204 64.1233C224.384 64.2912 224.597 64.4191 224.829 64.4986C225.062 64.5782 225.308 64.6076 225.553 64.5849C225.798 64.5622 226.035 64.488 226.249 64.3671C226.463 64.2462 226.649 64.0813 226.794 63.8834C228.124 62.5034 229.404 61.0934 230.704 59.6934L231.874 58.4534C232.488 59.1108 232.854 59.9615 232.909 60.8594C232.964 61.7573 232.704 62.6462 232.174 63.3733C231.404 64.5833 230.504 65.6933 229.644 66.8433C229.225 67.3237 228.835 67.8279 228.474 68.3534C227.064 70.5867 225.246 72.5341 223.114 74.0933C221.008 75.7933 218.851 77.4334 216.644 79.0134C215.782 79.5841 214.868 80.0728 213.914 80.4734C212.174 81.2734 210.421 82.04 208.654 82.7734C207.769 83.1256 206.864 83.4261 205.944 83.6734C203.724 84.3034 201.514 84.9934 199.264 85.4834C197.25 85.9595 195.2 86.264 193.134 86.3934C190.265 86.3962 187.402 86.6707 184.584 87.2134C183.721 87.3592 182.849 87.4494 181.974 87.4834C179.754 87.7034 177.564 87.9434 175.614 89.2434C174.164 90.2434 172.614 90.9734 171.054 91.7934C170.691 91.9399 170.312 92.044 169.924 92.1034C169.017 91.1814 168.268 90.1174 167.704 88.9534C166.054 85.8534 164.104 82.9534 162.204 79.9534C160.944 78.0034 159.364 76.3434 157.944 74.5534C156.054 72.1834 154.104 69.8533 152.194 67.5033C151.804 67.0233 151.474 66.5034 151.044 65.8934C151.554 65.3834 151.974 64.8933 152.444 64.5033C154.473 62.7773 156.325 60.8546 157.974 58.7634ZM157.504 109.043C155.294 105.533 153.114 102.043 150.924 98.5033C150.764 98.2334 150.604 97.9534 150.454 97.6734C149.944 96.6734 149.394 95.8133 148.114 96.3433C146.454 93.8633 144.894 91.5534 143.364 89.2334C141.531 86.4334 139.711 83.6267 137.904 80.8133C137.314 79.9033 136.464 79.1233 136.704 77.8133C136.764 77.4433 136.354 76.9534 136.104 76.5534C134.866 74.3249 133.998 71.9101 133.534 69.4034C133.432 69.0541 133.455 68.6799 133.599 68.3457C133.743 68.0115 134 67.7383 134.324 67.5734C135.872 66.5881 137.287 65.4085 138.534 64.0633C139.604 62.9433 141.054 62.7833 142.474 62.5933C142.79 62.5781 143.102 62.6658 143.364 62.8433C143.773 63.096 144.138 63.4135 144.444 63.7833C146.174 65.9434 147.924 68.0933 149.574 70.3133C152.409 74.3554 155.46 78.2411 158.714 81.9534C159.649 82.938 160.403 84.0785 160.944 85.3234C161.413 86.4096 162.04 87.4205 162.804 88.3234C163.804 89.5534 164.934 90.6934 166.004 91.8634C166.8 92.5328 167.372 93.4295 167.644 94.4334C167.68 94.6655 167.784 94.8815 167.944 95.0534C168.264 95.3834 168.894 95.6334 168.944 95.9734C169.154 97.6033 170.414 98.7734 170.734 100.333C170.824 100.713 170.894 101.093 171.004 101.633C170.524 102.083 170.144 102.383 169.834 102.743C169.054 103.633 167.834 103.923 167.114 104.953C166.332 105.853 165.453 106.664 164.494 107.373C164.384 107.473 164.294 107.643 164.154 107.703C162.294 108.533 160.614 109.773 158.594 110.433C158.204 109.988 157.84 109.52 157.504 109.033V109.043Z" fill="#DADAD9"/>
</svg>
