<svg width="65" height="59" viewBox="0 0 65 59" fill="none" xmlns="http://www.w3.org/2000/svg">
<path d="M51.4157 0.651015C42.2303 -0.61343 36.0255 3.26911 31.0666 10.1391C28.8036 8.23369 23.184 4.91839 22.88 4.80743C19.3923 3.65819 15.6157 3.74126 12.1819 5.04274C5.32943 7.90955 -0.257765 13.6455 0.634249 21.7395C1.63844 30.8726 6.92415 39.1817 13.6095 45.3458C18.7021 50.0383 29.466 59.6894 37.4846 58.1298C51.9531 55.3249 66.6692 30.6365 64.5249 16.3946C63.437 9.10777 59.4922 1.7588 51.4157 0.651015ZM54.1567 29.5216C51.2787 37.076 41.7036 53.18 32.1175 49.0612C21.9725 44.6967 13.4015 35.6574 9.10948 25.5977C3.34487 12.0994 19.2311 9.95514 26.8762 15.7974C28.8067 17.2829 29.5888 18.8428 31.5668 19.0484C32.2598 19.2928 33.0179 19.2782 33.701 19.0073C34.3841 18.7363 34.946 18.2273 35.283 17.5743L35.3064 17.5308L35.3791 17.4228C39.3109 11.0687 46.8767 2.60857 54.921 11.1606C59.3541 15.8579 55.9983 24.6788 54.1567 29.5216Z" fill="#DADAD9" fill-opacity="0.5"/>
</svg>
