<svg width="32" height="29" viewBox="0 0 32 29" fill="none" xmlns="http://www.w3.org/2000/svg">
<path id="Vector" d="M28.572 2.63887C26.9968 0.992597 24.864 0.0682373 22.6405 0.0682373C20.417 0.0682373 18.2842 0.992597 16.7091 2.63887L16.2355 3.13565C15.8415 3.54899 15.1819 3.54899 14.7879 3.13565L14.3143 2.63887C12.7392 0.992597 10.6064 0.0682373 8.38289 0.0682373C6.15942 0.0682373 4.02657 0.992597 2.45145 2.63887C0.881439 4.2932 0 6.53255 0 8.86694C0 11.2013 0.881439 13.4407 2.45145 15.095L14.7245 27.9698C14.8276 28.0788 14.9502 28.1653 15.0853 28.2244C15.2204 28.2834 15.3653 28.3138 15.5117 28.3138C15.6581 28.3138 15.803 28.2834 15.9381 28.2244C16.0732 28.1653 16.1958 28.0788 16.2989 27.9698L28.572 15.095C30.142 13.4407 31.0234 11.2013 31.0234 8.86694C31.0234 6.53255 30.142 4.2932 28.572 2.63887ZM27.0087 13.4435L16.2355 24.7449C15.8415 25.1582 15.1819 25.1582 14.7879 24.7449L4.01469 13.4435C2.85902 12.2289 2.20994 10.583 2.20994 8.86694C2.20994 7.15088 2.85902 5.50493 4.01469 4.29039C5.17436 3.07734 6.74522 2.39615 8.38289 2.39615C10.0206 2.39615 11.5914 3.07734 12.7511 4.29039L14.7245 6.36059C14.8276 6.4696 14.9502 6.55612 15.0853 6.61517C15.2204 6.67422 15.3653 6.70462 15.5117 6.70462C15.6581 6.70462 15.803 6.67422 15.9381 6.61517C16.0732 6.55612 16.1958 6.4696 16.2989 6.36059L18.2723 4.29039C19.432 3.07734 21.0028 2.39615 22.6405 2.39615C24.2782 2.39615 25.849 3.07734 27.0087 4.29039C28.1644 5.50493 28.8135 7.15088 28.8135 8.86694C28.8135 10.583 28.1644 12.2289 27.0087 13.4435Z" fill="#444444"/>
</svg>
