<svg width="57" height="57" viewBox="0 0 57 57" fill="none" xmlns="http://www.w3.org/2000/svg">
<path d="M49.9874 18.6684C54.3026 18.6684 56.1436 24.1542 52.702 26.7574L47.1984 30.9203C44.0095 33.3324 42.6722 37.483 43.8532 41.303L45.8633 47.805C47.1584 51.9941 42.3082 55.3729 38.8275 52.7064L34.6009 49.4685C31.192 46.8571 26.4552 46.8571 23.0463 49.4685L18.7382 52.7689C15.2624 55.4315 10.4169 52.0658 11.6987 47.8792L13.6821 41.4013C14.8437 37.6075 13.5253 33.4914 10.3757 31.0786L4.71319 26.7407C1.29866 24.1249 3.14847 18.6684 7.4498 18.6684H13.7156C17.8815 18.6684 21.5613 15.9544 22.7918 11.9744L24.5244 6.37028C25.8314 2.14248 31.8157 2.14248 33.1228 6.37029L34.8554 11.9744C36.0858 15.9544 39.7657 18.6684 43.9315 18.6684H49.9874Z" stroke="#FFAD33" stroke-width="5"/>
</svg>
