<svg width="190" height="22" viewBox="0 0 190 22" fill="none" xmlns="http://www.w3.org/2000/svg">
<g filter="url(#filter0_d_182_1839)">
<mask id="path-1-outside-1_182_1839" maskUnits="userSpaceOnUse" x="3" y="-1" width="184" height="16" fill="black">
<rect fill="white" x="3" y="-1" width="184" height="16"/>
<path d="M4.504 13V1.8H6.584V13H4.504ZM14.2694 4.36C14.952 4.36 15.56 4.49333 16.0934 4.76C16.6374 5.02667 17.064 5.43733 17.3734 5.992C17.6827 6.536 17.8374 7.24 17.8374 8.104V13H15.8374V8.36C15.8374 7.60267 15.656 7.03733 15.2934 6.664C14.9414 6.29067 14.4454 6.104 13.8054 6.104C13.336 6.104 12.92 6.2 12.5574 6.392C12.1947 6.584 11.912 6.872 11.7094 7.256C11.5174 7.62933 11.4214 8.104 11.4214 8.68V13H9.42138V4.456H11.3254V6.76L10.9894 6.056C11.288 5.512 11.72 5.096 12.2854 4.808C12.8614 4.50933 13.5227 4.36 14.2694 4.36ZM23.0145 13.112C22.2998 13.112 21.6118 13.0213 20.9505 12.84C20.2998 12.648 19.7825 12.4187 19.3985 12.152L20.1665 10.632C20.5505 10.8773 21.0092 11.08 21.5425 11.24C22.0758 11.4 22.6092 11.48 23.1425 11.48C23.7718 11.48 24.2252 11.3947 24.5025 11.224C24.7905 11.0533 24.9345 10.824 24.9345 10.536C24.9345 10.3013 24.8385 10.1253 24.6465 10.008C24.4545 9.88 24.2038 9.784 23.8945 9.72C23.5852 9.656 23.2385 9.59733 22.8545 9.544C22.4812 9.49067 22.1025 9.42133 21.7185 9.336C21.3452 9.24 21.0038 9.10667 20.6945 8.936C20.3852 8.75467 20.1345 8.51467 19.9425 8.216C19.7505 7.91733 19.6545 7.52267 19.6545 7.032C19.6545 6.488 19.8092 6.01867 20.1185 5.624C20.4278 5.21867 20.8598 4.90933 21.4145 4.696C21.9798 4.472 22.6465 4.36 23.4145 4.36C23.9905 4.36 24.5718 4.424 25.1585 4.552C25.7452 4.68 26.2305 4.86133 26.6145 5.096L25.8465 6.616C25.4412 6.37067 25.0305 6.20533 24.6145 6.12C24.2092 6.024 23.8038 5.976 23.3985 5.976C22.7905 5.976 22.3372 6.06667 22.0385 6.248C21.7505 6.42933 21.6065 6.65867 21.6065 6.936C21.6065 7.192 21.7025 7.384 21.8945 7.512C22.0865 7.64 22.3372 7.74133 22.6465 7.816C22.9558 7.89067 23.2972 7.95467 23.6705 8.008C24.0545 8.05067 24.4332 8.12 24.8065 8.216C25.1798 8.312 25.5212 8.44533 25.8305 8.616C26.1505 8.776 26.4065 9.00533 26.5985 9.304C26.7905 9.60267 26.8865 9.992 26.8865 10.472C26.8865 11.0053 26.7265 11.4693 26.4065 11.864C26.0972 12.2587 25.6545 12.568 25.0785 12.792C24.5025 13.0053 23.8145 13.112 23.0145 13.112ZM31.8249 13.112C30.8862 13.112 30.1609 12.872 29.6489 12.392C29.1369 11.9013 28.8809 11.1813 28.8809 10.232V2.568H30.8809V10.184C30.8809 10.5893 30.9822 10.904 31.1849 11.128C31.3982 11.352 31.6915 11.464 32.0649 11.464C32.5129 11.464 32.8862 11.3467 33.1849 11.112L33.7449 12.536C33.5102 12.728 33.2222 12.872 32.8809 12.968C32.5395 13.064 32.1875 13.112 31.8249 13.112ZM27.4729 6.12V4.52H33.1689V6.12H27.4729ZM40.6541 13V11.272L40.5421 10.904V7.88C40.5421 7.29333 40.3661 6.84 40.0141 6.52C39.6621 6.18933 39.1288 6.024 38.4141 6.024C37.9341 6.024 37.4595 6.09867 36.9901 6.248C36.5315 6.39733 36.1421 6.60533 35.8221 6.872L35.0381 5.416C35.4968 5.064 36.0408 4.80267 36.6701 4.632C37.3101 4.45067 37.9715 4.36 38.6541 4.36C39.8915 4.36 40.8461 4.65867 41.5181 5.256C42.2008 5.84267 42.5421 6.75467 42.5421 7.992V13H40.6541ZM37.9661 13.112C37.3261 13.112 36.7661 13.0053 36.2861 12.792C35.8061 12.568 35.4328 12.264 35.1661 11.88C34.9101 11.4853 34.7821 11.0427 34.7821 10.552C34.7821 10.072 34.8941 9.64 35.1181 9.256C35.3528 8.872 35.7315 8.568 36.2541 8.344C36.7768 8.12 37.4701 8.008 38.3341 8.008H40.8141V9.336H38.4781C37.7955 9.336 37.3368 9.448 37.1021 9.672C36.8675 9.88533 36.7501 10.152 36.7501 10.472C36.7501 10.8347 36.8941 11.1227 37.1821 11.336C37.4701 11.5493 37.8701 11.656 38.3821 11.656C38.8728 11.656 39.3101 11.544 39.6941 11.32C40.0888 11.096 40.3715 10.7653 40.5421 10.328L40.8781 11.528C40.6861 12.0293 40.3395 12.4187 39.8381 12.696C39.3475 12.9733 38.7235 13.112 37.9661 13.112ZM49.9569 4.36C50.6395 4.36 51.2475 4.49333 51.7809 4.76C52.3249 5.02667 52.7515 5.43733 53.0609 5.992C53.3702 6.536 53.5249 7.24 53.5249 8.104V13H51.5249V8.36C51.5249 7.60267 51.3435 7.03733 50.9809 6.664C50.6289 6.29067 50.1329 6.104 49.4929 6.104C49.0235 6.104 48.6075 6.2 48.2449 6.392C47.8822 6.584 47.5995 6.872 47.3969 7.256C47.2049 7.62933 47.1089 8.104 47.1089 8.68V13H45.1089V4.456H47.0129V6.76L46.6769 6.056C46.9755 5.512 47.4075 5.096 47.9729 4.808C48.5489 4.50933 49.2102 4.36 49.9569 4.36ZM59.278 13.112C58.3393 13.112 57.614 12.872 57.102 12.392C56.59 11.9013 56.334 11.1813 56.334 10.232V2.568H58.334V10.184C58.334 10.5893 58.4353 10.904 58.638 11.128C58.8513 11.352 59.1447 11.464 59.518 11.464C59.966 11.464 60.3393 11.3467 60.638 11.112L61.198 12.536C60.9633 12.728 60.6753 12.872 60.334 12.968C59.9927 13.064 59.6407 13.112 59.278 13.112ZM54.926 6.12V4.52H60.622V6.12H54.926ZM67.4571 13V1.8H72.3531C73.5691 1.8 74.6358 2.03467 75.5531 2.504C76.4705 2.97333 77.1851 3.624 77.6971 4.456C78.2091 5.288 78.4651 6.26933 78.4651 7.4C78.4651 8.52 78.2091 9.50133 77.6971 10.344C77.1851 11.176 76.4705 11.8267 75.5531 12.296C74.6358 12.7653 73.5691 13 72.3531 13H67.4571ZM69.5371 11.24H72.2571C73.0998 11.24 73.8251 11.08 74.4331 10.76C75.0518 10.44 75.5265 9.992 75.8571 9.416C76.1985 8.84 76.3691 8.168 76.3691 7.4C76.3691 6.62133 76.1985 5.94933 75.8571 5.384C75.5265 4.808 75.0518 4.36 74.4331 4.04C73.8251 3.72 73.0998 3.56 72.2571 3.56H69.5371V11.24ZM80.4839 13V4.456H82.4839V13H80.4839ZM81.4919 3.048C81.1185 3.048 80.8092 2.93067 80.5639 2.696C80.3292 2.46133 80.2119 2.17867 80.2119 1.848C80.2119 1.50667 80.3292 1.224 80.5639 0.999999C80.8092 0.765333 81.1185 0.648 81.4919 0.648C81.8652 0.648 82.1692 0.76 82.4039 0.983999C82.6492 1.19733 82.7719 1.46933 82.7719 1.8C82.7719 2.152 82.6545 2.45067 82.4199 2.696C82.1852 2.93067 81.8759 3.048 81.4919 3.048ZM87.7489 13.112C87.0342 13.112 86.3462 13.0213 85.6849 12.84C85.0342 12.648 84.5169 12.4187 84.1329 12.152L84.9009 10.632C85.2849 10.8773 85.7435 11.08 86.2769 11.24C86.8102 11.4 87.3435 11.48 87.8769 11.48C88.5062 11.48 88.9595 11.3947 89.2369 11.224C89.5249 11.0533 89.6689 10.824 89.6689 10.536C89.6689 10.3013 89.5729 10.1253 89.3809 10.008C89.1889 9.88 88.9382 9.784 88.6289 9.72C88.3195 9.656 87.9729 9.59733 87.5889 9.544C87.2155 9.49067 86.8369 9.42133 86.4529 9.336C86.0795 9.24 85.7382 9.10667 85.4289 8.936C85.1195 8.75467 84.8689 8.51467 84.6769 8.216C84.4849 7.91733 84.3889 7.52267 84.3889 7.032C84.3889 6.488 84.5435 6.01867 84.8529 5.624C85.1622 5.21867 85.5942 4.90933 86.1489 4.696C86.7142 4.472 87.3809 4.36 88.1489 4.36C88.7249 4.36 89.3062 4.424 89.8929 4.552C90.4795 4.68 90.9649 4.86133 91.3489 5.096L90.5809 6.616C90.1755 6.37067 89.7649 6.20533 89.3489 6.12C88.9435 6.024 88.5382 5.976 88.1329 5.976C87.5249 5.976 87.0715 6.06667 86.7729 6.248C86.4849 6.42933 86.3409 6.65867 86.3409 6.936C86.3409 7.192 86.4369 7.384 86.6289 7.512C86.8209 7.64 87.0715 7.74133 87.3809 7.816C87.6902 7.89067 88.0315 7.95467 88.4049 8.008C88.7889 8.05067 89.1675 8.12 89.5409 8.216C89.9142 8.312 90.2555 8.44533 90.5649 8.616C90.8849 8.776 91.1409 9.00533 91.3329 9.304C91.5249 9.60267 91.6209 9.992 91.6209 10.472C91.6209 11.0053 91.4609 11.4693 91.1409 11.864C90.8315 12.2587 90.3889 12.568 89.8129 12.792C89.2369 13.0053 88.5489 13.112 87.7489 13.112ZM97.2633 13.112C96.3673 13.112 95.5673 12.9253 94.8633 12.552C94.1699 12.168 93.6259 11.6453 93.2313 10.984C92.8366 10.3227 92.6393 9.57067 92.6393 8.728C92.6393 7.87467 92.8366 7.12267 93.2313 6.472C93.6259 5.81067 94.1699 5.29333 94.8633 4.92C95.5673 4.54667 96.3673 4.36 97.2633 4.36C98.0953 4.36 98.8259 4.53067 99.4553 4.872C100.095 5.20267 100.581 5.69333 100.911 6.344L99.3753 7.24C99.1193 6.83467 98.8046 6.536 98.4313 6.344C98.0686 6.152 97.6739 6.056 97.2473 6.056C96.7566 6.056 96.3139 6.16267 95.9193 6.376C95.5246 6.58933 95.2153 6.89867 94.9913 7.304C94.7673 7.69867 94.6553 8.17333 94.6553 8.728C94.6553 9.28267 94.7673 9.76267 94.9913 10.168C95.2153 10.5627 95.5246 10.8667 95.9193 11.08C96.3139 11.2933 96.7566 11.4 97.2473 11.4C97.6739 11.4 98.0686 11.304 98.4313 11.112C98.8046 10.92 99.1193 10.6213 99.3753 10.216L100.911 11.112C100.581 11.752 100.095 12.248 99.4553 12.6C98.8259 12.9413 98.0953 13.112 97.2633 13.112ZM106.355 13.112C105.48 13.112 104.702 12.9253 104.019 12.552C103.336 12.168 102.798 11.6453 102.403 10.984C102.008 10.3227 101.811 9.57067 101.811 8.728C101.811 7.87467 102.008 7.12267 102.403 6.472C102.798 5.81067 103.336 5.29333 104.019 4.92C104.702 4.54667 105.48 4.36 106.355 4.36C107.24 4.36 108.024 4.54667 108.707 4.92C109.4 5.29333 109.939 5.80533 110.323 6.456C110.718 7.10667 110.915 7.864 110.915 8.728C110.915 9.57067 110.718 10.3227 110.323 10.984C109.939 11.6453 109.4 12.168 108.707 12.552C108.024 12.9253 107.24 13.112 106.355 13.112ZM106.355 11.4C106.846 11.4 107.283 11.2933 107.667 11.08C108.051 10.8667 108.35 10.5573 108.563 10.152C108.787 9.74667 108.899 9.272 108.899 8.728C108.899 8.17333 108.787 7.69867 108.563 7.304C108.35 6.89867 108.051 6.58933 107.667 6.376C107.283 6.16267 106.851 6.056 106.371 6.056C105.88 6.056 105.443 6.16267 105.059 6.376C104.686 6.58933 104.387 6.89867 104.163 7.304C103.939 7.69867 103.827 8.17333 103.827 8.728C103.827 9.272 103.939 9.74667 104.163 10.152C104.387 10.5573 104.686 10.8667 105.059 11.08C105.443 11.2933 105.875 11.4 106.355 11.4ZM116.444 13.112C115.718 13.112 115.078 12.9787 114.524 12.712C113.969 12.4347 113.537 12.0187 113.228 11.464C112.918 10.8987 112.764 10.1893 112.764 9.336V4.456H114.764V9.064C114.764 9.832 114.934 10.408 115.276 10.792C115.628 11.1653 116.124 11.352 116.764 11.352C117.233 11.352 117.638 11.256 117.98 11.064C118.332 10.872 118.604 10.584 118.796 10.2C118.998 9.816 119.1 9.34133 119.1 8.776V4.456H121.1V13H119.196V10.696L119.532 11.4C119.244 11.9547 118.822 12.3813 118.268 12.68C117.713 12.968 117.105 13.112 116.444 13.112ZM128.566 4.36C129.249 4.36 129.857 4.49333 130.39 4.76C130.934 5.02667 131.361 5.43733 131.67 5.992C131.98 6.536 132.134 7.24 132.134 8.104V13H130.134V8.36C130.134 7.60267 129.953 7.03733 129.59 6.664C129.238 6.29067 128.742 6.104 128.102 6.104C127.633 6.104 127.217 6.2 126.854 6.392C126.492 6.584 126.209 6.872 126.006 7.256C125.814 7.62933 125.718 8.104 125.718 8.68V13H123.718V4.456H125.622V6.76L125.286 6.056C125.585 5.512 126.017 5.096 126.582 4.808C127.158 4.50933 127.82 4.36 128.566 4.36ZM137.887 13.112C136.949 13.112 136.223 12.872 135.711 12.392C135.199 11.9013 134.943 11.1813 134.943 10.232V2.568H136.943V10.184C136.943 10.5893 137.045 10.904 137.247 11.128C137.461 11.352 137.754 11.464 138.127 11.464C138.575 11.464 138.949 11.3467 139.247 11.112L139.807 12.536C139.573 12.728 139.285 12.872 138.943 12.968C138.602 13.064 138.25 13.112 137.887 13.112ZM133.535 6.12V4.52H139.231V6.12H133.535ZM151.315 13.16C150.44 13.16 149.635 13.016 148.899 12.728C148.163 12.44 147.523 12.04 146.979 11.528C146.435 11.0053 146.013 10.3973 145.715 9.704C145.416 9 145.267 8.232 145.267 7.4C145.267 6.568 145.416 5.80533 145.715 5.112C146.013 4.408 146.435 3.8 146.979 3.288C147.523 2.76533 148.163 2.36 148.899 2.072C149.635 1.784 150.435 1.64 151.299 1.64C152.173 1.64 152.973 1.784 153.699 2.072C154.435 2.36 155.075 2.76533 155.619 3.288C156.163 3.8 156.584 4.408 156.883 5.112C157.181 5.80533 157.331 6.568 157.331 7.4C157.331 8.232 157.181 9 156.883 9.704C156.584 10.408 156.163 11.016 155.619 11.528C155.075 12.04 154.435 12.44 153.699 12.728C152.973 13.016 152.179 13.16 151.315 13.16ZM151.299 11.336C151.864 11.336 152.387 11.24 152.867 11.048C153.347 10.856 153.763 10.584 154.115 10.232C154.467 9.86933 154.739 9.45333 154.931 8.984C155.133 8.504 155.235 7.976 155.235 7.4C155.235 6.824 155.133 6.30133 154.931 5.832C154.739 5.352 154.467 4.936 154.115 4.584C153.763 4.22133 153.347 3.944 152.867 3.752C152.387 3.56 151.864 3.464 151.299 3.464C150.733 3.464 150.211 3.56 149.731 3.752C149.261 3.944 148.845 4.22133 148.483 4.584C148.131 4.936 147.853 5.352 147.651 5.832C147.459 6.30133 147.363 6.824 147.363 7.4C147.363 7.96533 147.459 8.488 147.651 8.968C147.853 9.448 148.131 9.86933 148.483 10.232C148.835 10.584 149.251 10.856 149.731 11.048C150.211 11.24 150.733 11.336 151.299 11.336ZM159.615 13V3.976C159.615 3.08 159.877 2.36533 160.399 1.832C160.933 1.288 161.69 1.016 162.671 1.016C163.023 1.016 163.354 1.05333 163.663 1.128C163.983 1.20267 164.25 1.32 164.463 1.48L163.919 2.984C163.77 2.86667 163.599 2.78133 163.407 2.728C163.215 2.664 163.018 2.632 162.815 2.632C162.399 2.632 162.085 2.74933 161.871 2.984C161.658 3.208 161.551 3.54933 161.551 4.008V4.968L161.615 5.864V13H159.615ZM158.207 6.12V4.52H163.903V6.12H158.207ZM165.568 13V3.976C165.568 3.08 165.83 2.36533 166.352 1.832C166.886 1.288 167.643 1.016 168.624 1.016C168.976 1.016 169.307 1.05333 169.616 1.128C169.936 1.20267 170.203 1.32 170.416 1.48L169.872 2.984C169.723 2.86667 169.552 2.78133 169.36 2.728C169.168 2.664 168.971 2.632 168.768 2.632C168.352 2.632 168.038 2.74933 167.824 2.984C167.611 3.208 167.504 3.54933 167.504 4.008V4.968L167.568 5.864V13H165.568ZM164.16 6.12V4.52H169.856V6.12H164.16ZM175.094 13.112C174.144 13.112 173.312 12.9253 172.598 12.552C171.894 12.168 171.344 11.6453 170.95 10.984C170.566 10.3227 170.374 9.57067 170.374 8.728C170.374 7.87467 170.56 7.12267 170.934 6.472C171.318 5.81067 171.84 5.29333 172.502 4.92C173.174 4.54667 173.936 4.36 174.79 4.36C175.622 4.36 176.363 4.54133 177.014 4.904C177.664 5.26667 178.176 5.77867 178.55 6.44C178.923 7.10133 179.11 7.88 179.11 8.776C179.11 8.86133 179.104 8.95733 179.094 9.064C179.094 9.17067 179.088 9.272 179.078 9.368H171.958V8.04H178.022L177.238 8.456C177.248 7.96533 177.147 7.53333 176.934 7.16C176.72 6.78667 176.427 6.49333 176.054 6.28C175.691 6.06667 175.27 5.96 174.79 5.96C174.299 5.96 173.867 6.06667 173.494 6.28C173.131 6.49333 172.843 6.792 172.63 7.176C172.427 7.54933 172.326 7.992 172.326 8.504V8.824C172.326 9.336 172.443 9.78933 172.678 10.184C172.912 10.5787 173.243 10.8827 173.67 11.096C174.096 11.3093 174.587 11.416 175.142 11.416C175.622 11.416 176.054 11.3413 176.438 11.192C176.822 11.0427 177.163 10.808 177.462 10.488L178.534 11.72C178.15 12.168 177.664 12.5147 177.078 12.76C176.502 12.9947 175.84 13.112 175.094 13.112ZM181.031 13V4.456H182.935V6.808L182.711 6.12C182.967 5.544 183.367 5.10667 183.911 4.808C184.465 4.50933 185.153 4.36 185.975 4.36V6.264C185.889 6.24267 185.809 6.232 185.735 6.232C185.66 6.22133 185.585 6.216 185.511 6.216C184.753 6.216 184.151 6.44 183.703 6.888C183.255 7.32533 183.031 7.98133 183.031 8.856V13H181.031Z"/>
</mask>
<path d="M4.504 13V1.8H6.584V13H4.504ZM14.2694 4.36C14.952 4.36 15.56 4.49333 16.0934 4.76C16.6374 5.02667 17.064 5.43733 17.3734 5.992C17.6827 6.536 17.8374 7.24 17.8374 8.104V13H15.8374V8.36C15.8374 7.60267 15.656 7.03733 15.2934 6.664C14.9414 6.29067 14.4454 6.104 13.8054 6.104C13.336 6.104 12.92 6.2 12.5574 6.392C12.1947 6.584 11.912 6.872 11.7094 7.256C11.5174 7.62933 11.4214 8.104 11.4214 8.68V13H9.42138V4.456H11.3254V6.76L10.9894 6.056C11.288 5.512 11.72 5.096 12.2854 4.808C12.8614 4.50933 13.5227 4.36 14.2694 4.36ZM23.0145 13.112C22.2998 13.112 21.6118 13.0213 20.9505 12.84C20.2998 12.648 19.7825 12.4187 19.3985 12.152L20.1665 10.632C20.5505 10.8773 21.0092 11.08 21.5425 11.24C22.0758 11.4 22.6092 11.48 23.1425 11.48C23.7718 11.48 24.2252 11.3947 24.5025 11.224C24.7905 11.0533 24.9345 10.824 24.9345 10.536C24.9345 10.3013 24.8385 10.1253 24.6465 10.008C24.4545 9.88 24.2038 9.784 23.8945 9.72C23.5852 9.656 23.2385 9.59733 22.8545 9.544C22.4812 9.49067 22.1025 9.42133 21.7185 9.336C21.3452 9.24 21.0038 9.10667 20.6945 8.936C20.3852 8.75467 20.1345 8.51467 19.9425 8.216C19.7505 7.91733 19.6545 7.52267 19.6545 7.032C19.6545 6.488 19.8092 6.01867 20.1185 5.624C20.4278 5.21867 20.8598 4.90933 21.4145 4.696C21.9798 4.472 22.6465 4.36 23.4145 4.36C23.9905 4.36 24.5718 4.424 25.1585 4.552C25.7452 4.68 26.2305 4.86133 26.6145 5.096L25.8465 6.616C25.4412 6.37067 25.0305 6.20533 24.6145 6.12C24.2092 6.024 23.8038 5.976 23.3985 5.976C22.7905 5.976 22.3372 6.06667 22.0385 6.248C21.7505 6.42933 21.6065 6.65867 21.6065 6.936C21.6065 7.192 21.7025 7.384 21.8945 7.512C22.0865 7.64 22.3372 7.74133 22.6465 7.816C22.9558 7.89067 23.2972 7.95467 23.6705 8.008C24.0545 8.05067 24.4332 8.12 24.8065 8.216C25.1798 8.312 25.5212 8.44533 25.8305 8.616C26.1505 8.776 26.4065 9.00533 26.5985 9.304C26.7905 9.60267 26.8865 9.992 26.8865 10.472C26.8865 11.0053 26.7265 11.4693 26.4065 11.864C26.0972 12.2587 25.6545 12.568 25.0785 12.792C24.5025 13.0053 23.8145 13.112 23.0145 13.112ZM31.8249 13.112C30.8862 13.112 30.1609 12.872 29.6489 12.392C29.1369 11.9013 28.8809 11.1813 28.8809 10.232V2.568H30.8809V10.184C30.8809 10.5893 30.9822 10.904 31.1849 11.128C31.3982 11.352 31.6915 11.464 32.0649 11.464C32.5129 11.464 32.8862 11.3467 33.1849 11.112L33.7449 12.536C33.5102 12.728 33.2222 12.872 32.8809 12.968C32.5395 13.064 32.1875 13.112 31.8249 13.112ZM27.4729 6.12V4.52H33.1689V6.12H27.4729ZM40.6541 13V11.272L40.5421 10.904V7.88C40.5421 7.29333 40.3661 6.84 40.0141 6.52C39.6621 6.18933 39.1288 6.024 38.4141 6.024C37.9341 6.024 37.4595 6.09867 36.9901 6.248C36.5315 6.39733 36.1421 6.60533 35.8221 6.872L35.0381 5.416C35.4968 5.064 36.0408 4.80267 36.6701 4.632C37.3101 4.45067 37.9715 4.36 38.6541 4.36C39.8915 4.36 40.8461 4.65867 41.5181 5.256C42.2008 5.84267 42.5421 6.75467 42.5421 7.992V13H40.6541ZM37.9661 13.112C37.3261 13.112 36.7661 13.0053 36.2861 12.792C35.8061 12.568 35.4328 12.264 35.1661 11.88C34.9101 11.4853 34.7821 11.0427 34.7821 10.552C34.7821 10.072 34.8941 9.64 35.1181 9.256C35.3528 8.872 35.7315 8.568 36.2541 8.344C36.7768 8.12 37.4701 8.008 38.3341 8.008H40.8141V9.336H38.4781C37.7955 9.336 37.3368 9.448 37.1021 9.672C36.8675 9.88533 36.7501 10.152 36.7501 10.472C36.7501 10.8347 36.8941 11.1227 37.1821 11.336C37.4701 11.5493 37.8701 11.656 38.3821 11.656C38.8728 11.656 39.3101 11.544 39.6941 11.32C40.0888 11.096 40.3715 10.7653 40.5421 10.328L40.8781 11.528C40.6861 12.0293 40.3395 12.4187 39.8381 12.696C39.3475 12.9733 38.7235 13.112 37.9661 13.112ZM49.9569 4.36C50.6395 4.36 51.2475 4.49333 51.7809 4.76C52.3249 5.02667 52.7515 5.43733 53.0609 5.992C53.3702 6.536 53.5249 7.24 53.5249 8.104V13H51.5249V8.36C51.5249 7.60267 51.3435 7.03733 50.9809 6.664C50.6289 6.29067 50.1329 6.104 49.4929 6.104C49.0235 6.104 48.6075 6.2 48.2449 6.392C47.8822 6.584 47.5995 6.872 47.3969 7.256C47.2049 7.62933 47.1089 8.104 47.1089 8.68V13H45.1089V4.456H47.0129V6.76L46.6769 6.056C46.9755 5.512 47.4075 5.096 47.9729 4.808C48.5489 4.50933 49.2102 4.36 49.9569 4.36ZM59.278 13.112C58.3393 13.112 57.614 12.872 57.102 12.392C56.59 11.9013 56.334 11.1813 56.334 10.232V2.568H58.334V10.184C58.334 10.5893 58.4353 10.904 58.638 11.128C58.8513 11.352 59.1447 11.464 59.518 11.464C59.966 11.464 60.3393 11.3467 60.638 11.112L61.198 12.536C60.9633 12.728 60.6753 12.872 60.334 12.968C59.9927 13.064 59.6407 13.112 59.278 13.112ZM54.926 6.12V4.52H60.622V6.12H54.926ZM67.4571 13V1.8H72.3531C73.5691 1.8 74.6358 2.03467 75.5531 2.504C76.4705 2.97333 77.1851 3.624 77.6971 4.456C78.2091 5.288 78.4651 6.26933 78.4651 7.4C78.4651 8.52 78.2091 9.50133 77.6971 10.344C77.1851 11.176 76.4705 11.8267 75.5531 12.296C74.6358 12.7653 73.5691 13 72.3531 13H67.4571ZM69.5371 11.24H72.2571C73.0998 11.24 73.8251 11.08 74.4331 10.76C75.0518 10.44 75.5265 9.992 75.8571 9.416C76.1985 8.84 76.3691 8.168 76.3691 7.4C76.3691 6.62133 76.1985 5.94933 75.8571 5.384C75.5265 4.808 75.0518 4.36 74.4331 4.04C73.8251 3.72 73.0998 3.56 72.2571 3.56H69.5371V11.24ZM80.4839 13V4.456H82.4839V13H80.4839ZM81.4919 3.048C81.1185 3.048 80.8092 2.93067 80.5639 2.696C80.3292 2.46133 80.2119 2.17867 80.2119 1.848C80.2119 1.50667 80.3292 1.224 80.5639 0.999999C80.8092 0.765333 81.1185 0.648 81.4919 0.648C81.8652 0.648 82.1692 0.76 82.4039 0.983999C82.6492 1.19733 82.7719 1.46933 82.7719 1.8C82.7719 2.152 82.6545 2.45067 82.4199 2.696C82.1852 2.93067 81.8759 3.048 81.4919 3.048ZM87.7489 13.112C87.0342 13.112 86.3462 13.0213 85.6849 12.84C85.0342 12.648 84.5169 12.4187 84.1329 12.152L84.9009 10.632C85.2849 10.8773 85.7435 11.08 86.2769 11.24C86.8102 11.4 87.3435 11.48 87.8769 11.48C88.5062 11.48 88.9595 11.3947 89.2369 11.224C89.5249 11.0533 89.6689 10.824 89.6689 10.536C89.6689 10.3013 89.5729 10.1253 89.3809 10.008C89.1889 9.88 88.9382 9.784 88.6289 9.72C88.3195 9.656 87.9729 9.59733 87.5889 9.544C87.2155 9.49067 86.8369 9.42133 86.4529 9.336C86.0795 9.24 85.7382 9.10667 85.4289 8.936C85.1195 8.75467 84.8689 8.51467 84.6769 8.216C84.4849 7.91733 84.3889 7.52267 84.3889 7.032C84.3889 6.488 84.5435 6.01867 84.8529 5.624C85.1622 5.21867 85.5942 4.90933 86.1489 4.696C86.7142 4.472 87.3809 4.36 88.1489 4.36C88.7249 4.36 89.3062 4.424 89.8929 4.552C90.4795 4.68 90.9649 4.86133 91.3489 5.096L90.5809 6.616C90.1755 6.37067 89.7649 6.20533 89.3489 6.12C88.9435 6.024 88.5382 5.976 88.1329 5.976C87.5249 5.976 87.0715 6.06667 86.7729 6.248C86.4849 6.42933 86.3409 6.65867 86.3409 6.936C86.3409 7.192 86.4369 7.384 86.6289 7.512C86.8209 7.64 87.0715 7.74133 87.3809 7.816C87.6902 7.89067 88.0315 7.95467 88.4049 8.008C88.7889 8.05067 89.1675 8.12 89.5409 8.216C89.9142 8.312 90.2555 8.44533 90.5649 8.616C90.8849 8.776 91.1409 9.00533 91.3329 9.304C91.5249 9.60267 91.6209 9.992 91.6209 10.472C91.6209 11.0053 91.4609 11.4693 91.1409 11.864C90.8315 12.2587 90.3889 12.568 89.8129 12.792C89.2369 13.0053 88.5489 13.112 87.7489 13.112ZM97.2633 13.112C96.3673 13.112 95.5673 12.9253 94.8633 12.552C94.1699 12.168 93.6259 11.6453 93.2313 10.984C92.8366 10.3227 92.6393 9.57067 92.6393 8.728C92.6393 7.87467 92.8366 7.12267 93.2313 6.472C93.6259 5.81067 94.1699 5.29333 94.8633 4.92C95.5673 4.54667 96.3673 4.36 97.2633 4.36C98.0953 4.36 98.8259 4.53067 99.4553 4.872C100.095 5.20267 100.581 5.69333 100.911 6.344L99.3753 7.24C99.1193 6.83467 98.8046 6.536 98.4313 6.344C98.0686 6.152 97.6739 6.056 97.2473 6.056C96.7566 6.056 96.3139 6.16267 95.9193 6.376C95.5246 6.58933 95.2153 6.89867 94.9913 7.304C94.7673 7.69867 94.6553 8.17333 94.6553 8.728C94.6553 9.28267 94.7673 9.76267 94.9913 10.168C95.2153 10.5627 95.5246 10.8667 95.9193 11.08C96.3139 11.2933 96.7566 11.4 97.2473 11.4C97.6739 11.4 98.0686 11.304 98.4313 11.112C98.8046 10.92 99.1193 10.6213 99.3753 10.216L100.911 11.112C100.581 11.752 100.095 12.248 99.4553 12.6C98.8259 12.9413 98.0953 13.112 97.2633 13.112ZM106.355 13.112C105.48 13.112 104.702 12.9253 104.019 12.552C103.336 12.168 102.798 11.6453 102.403 10.984C102.008 10.3227 101.811 9.57067 101.811 8.728C101.811 7.87467 102.008 7.12267 102.403 6.472C102.798 5.81067 103.336 5.29333 104.019 4.92C104.702 4.54667 105.48 4.36 106.355 4.36C107.24 4.36 108.024 4.54667 108.707 4.92C109.4 5.29333 109.939 5.80533 110.323 6.456C110.718 7.10667 110.915 7.864 110.915 8.728C110.915 9.57067 110.718 10.3227 110.323 10.984C109.939 11.6453 109.4 12.168 108.707 12.552C108.024 12.9253 107.24 13.112 106.355 13.112ZM106.355 11.4C106.846 11.4 107.283 11.2933 107.667 11.08C108.051 10.8667 108.35 10.5573 108.563 10.152C108.787 9.74667 108.899 9.272 108.899 8.728C108.899 8.17333 108.787 7.69867 108.563 7.304C108.35 6.89867 108.051 6.58933 107.667 6.376C107.283 6.16267 106.851 6.056 106.371 6.056C105.88 6.056 105.443 6.16267 105.059 6.376C104.686 6.58933 104.387 6.89867 104.163 7.304C103.939 7.69867 103.827 8.17333 103.827 8.728C103.827 9.272 103.939 9.74667 104.163 10.152C104.387 10.5573 104.686 10.8667 105.059 11.08C105.443 11.2933 105.875 11.4 106.355 11.4ZM116.444 13.112C115.718 13.112 115.078 12.9787 114.524 12.712C113.969 12.4347 113.537 12.0187 113.228 11.464C112.918 10.8987 112.764 10.1893 112.764 9.336V4.456H114.764V9.064C114.764 9.832 114.934 10.408 115.276 10.792C115.628 11.1653 116.124 11.352 116.764 11.352C117.233 11.352 117.638 11.256 117.98 11.064C118.332 10.872 118.604 10.584 118.796 10.2C118.998 9.816 119.1 9.34133 119.1 8.776V4.456H121.1V13H119.196V10.696L119.532 11.4C119.244 11.9547 118.822 12.3813 118.268 12.68C117.713 12.968 117.105 13.112 116.444 13.112ZM128.566 4.36C129.249 4.36 129.857 4.49333 130.39 4.76C130.934 5.02667 131.361 5.43733 131.67 5.992C131.98 6.536 132.134 7.24 132.134 8.104V13H130.134V8.36C130.134 7.60267 129.953 7.03733 129.59 6.664C129.238 6.29067 128.742 6.104 128.102 6.104C127.633 6.104 127.217 6.2 126.854 6.392C126.492 6.584 126.209 6.872 126.006 7.256C125.814 7.62933 125.718 8.104 125.718 8.68V13H123.718V4.456H125.622V6.76L125.286 6.056C125.585 5.512 126.017 5.096 126.582 4.808C127.158 4.50933 127.82 4.36 128.566 4.36ZM137.887 13.112C136.949 13.112 136.223 12.872 135.711 12.392C135.199 11.9013 134.943 11.1813 134.943 10.232V2.568H136.943V10.184C136.943 10.5893 137.045 10.904 137.247 11.128C137.461 11.352 137.754 11.464 138.127 11.464C138.575 11.464 138.949 11.3467 139.247 11.112L139.807 12.536C139.573 12.728 139.285 12.872 138.943 12.968C138.602 13.064 138.25 13.112 137.887 13.112ZM133.535 6.12V4.52H139.231V6.12H133.535ZM151.315 13.16C150.44 13.16 149.635 13.016 148.899 12.728C148.163 12.44 147.523 12.04 146.979 11.528C146.435 11.0053 146.013 10.3973 145.715 9.704C145.416 9 145.267 8.232 145.267 7.4C145.267 6.568 145.416 5.80533 145.715 5.112C146.013 4.408 146.435 3.8 146.979 3.288C147.523 2.76533 148.163 2.36 148.899 2.072C149.635 1.784 150.435 1.64 151.299 1.64C152.173 1.64 152.973 1.784 153.699 2.072C154.435 2.36 155.075 2.76533 155.619 3.288C156.163 3.8 156.584 4.408 156.883 5.112C157.181 5.80533 157.331 6.568 157.331 7.4C157.331 8.232 157.181 9 156.883 9.704C156.584 10.408 156.163 11.016 155.619 11.528C155.075 12.04 154.435 12.44 153.699 12.728C152.973 13.016 152.179 13.16 151.315 13.16ZM151.299 11.336C151.864 11.336 152.387 11.24 152.867 11.048C153.347 10.856 153.763 10.584 154.115 10.232C154.467 9.86933 154.739 9.45333 154.931 8.984C155.133 8.504 155.235 7.976 155.235 7.4C155.235 6.824 155.133 6.30133 154.931 5.832C154.739 5.352 154.467 4.936 154.115 4.584C153.763 4.22133 153.347 3.944 152.867 3.752C152.387 3.56 151.864 3.464 151.299 3.464C150.733 3.464 150.211 3.56 149.731 3.752C149.261 3.944 148.845 4.22133 148.483 4.584C148.131 4.936 147.853 5.352 147.651 5.832C147.459 6.30133 147.363 6.824 147.363 7.4C147.363 7.96533 147.459 8.488 147.651 8.968C147.853 9.448 148.131 9.86933 148.483 10.232C148.835 10.584 149.251 10.856 149.731 11.048C150.211 11.24 150.733 11.336 151.299 11.336ZM159.615 13V3.976C159.615 3.08 159.877 2.36533 160.399 1.832C160.933 1.288 161.69 1.016 162.671 1.016C163.023 1.016 163.354 1.05333 163.663 1.128C163.983 1.20267 164.25 1.32 164.463 1.48L163.919 2.984C163.77 2.86667 163.599 2.78133 163.407 2.728C163.215 2.664 163.018 2.632 162.815 2.632C162.399 2.632 162.085 2.74933 161.871 2.984C161.658 3.208 161.551 3.54933 161.551 4.008V4.968L161.615 5.864V13H159.615ZM158.207 6.12V4.52H163.903V6.12H158.207ZM165.568 13V3.976C165.568 3.08 165.83 2.36533 166.352 1.832C166.886 1.288 167.643 1.016 168.624 1.016C168.976 1.016 169.307 1.05333 169.616 1.128C169.936 1.20267 170.203 1.32 170.416 1.48L169.872 2.984C169.723 2.86667 169.552 2.78133 169.36 2.728C169.168 2.664 168.971 2.632 168.768 2.632C168.352 2.632 168.038 2.74933 167.824 2.984C167.611 3.208 167.504 3.54933 167.504 4.008V4.968L167.568 5.864V13H165.568ZM164.16 6.12V4.52H169.856V6.12H164.16ZM175.094 13.112C174.144 13.112 173.312 12.9253 172.598 12.552C171.894 12.168 171.344 11.6453 170.95 10.984C170.566 10.3227 170.374 9.57067 170.374 8.728C170.374 7.87467 170.56 7.12267 170.934 6.472C171.318 5.81067 171.84 5.29333 172.502 4.92C173.174 4.54667 173.936 4.36 174.79 4.36C175.622 4.36 176.363 4.54133 177.014 4.904C177.664 5.26667 178.176 5.77867 178.55 6.44C178.923 7.10133 179.11 7.88 179.11 8.776C179.11 8.86133 179.104 8.95733 179.094 9.064C179.094 9.17067 179.088 9.272 179.078 9.368H171.958V8.04H178.022L177.238 8.456C177.248 7.96533 177.147 7.53333 176.934 7.16C176.72 6.78667 176.427 6.49333 176.054 6.28C175.691 6.06667 175.27 5.96 174.79 5.96C174.299 5.96 173.867 6.06667 173.494 6.28C173.131 6.49333 172.843 6.792 172.63 7.176C172.427 7.54933 172.326 7.992 172.326 8.504V8.824C172.326 9.336 172.443 9.78933 172.678 10.184C172.912 10.5787 173.243 10.8827 173.67 11.096C174.096 11.3093 174.587 11.416 175.142 11.416C175.622 11.416 176.054 11.3413 176.438 11.192C176.822 11.0427 177.163 10.808 177.462 10.488L178.534 11.72C178.15 12.168 177.664 12.5147 177.078 12.76C176.502 12.9947 175.84 13.112 175.094 13.112ZM181.031 13V4.456H182.935V6.808L182.711 6.12C182.967 5.544 183.367 5.10667 183.911 4.808C184.465 4.50933 185.153 4.36 185.975 4.36V6.264C185.889 6.24267 185.809 6.232 185.735 6.232C185.66 6.22133 185.585 6.216 185.511 6.216C184.753 6.216 184.151 6.44 183.703 6.888C183.255 7.32533 183.031 7.98133 183.031 8.856V13H181.031Z" fill="#FFFEFE"/>
<path d="M4.504 13H3.504V14H4.504V13ZM4.504 1.8V0.799999H3.504V1.8H4.504ZM6.584 1.8H7.584V0.799999H6.584V1.8ZM6.584 13V14H7.584V13H6.584ZM5.504 13V1.8H3.504V13H5.504ZM4.504 2.8H6.584V0.799999H4.504V2.8ZM5.584 1.8V13H7.584V1.8H5.584ZM6.584 12H4.504V14H6.584V12ZM16.0934 4.76L15.6461 5.65445L15.6532 5.65792L16.0934 4.76ZM17.3734 5.992L16.5 6.47909L16.5041 6.4863L17.3734 5.992ZM17.8374 13V14H18.8374V13H17.8374ZM15.8374 13H14.8374V14H15.8374V13ZM15.2934 6.664L14.5658 7.35001L14.5709 7.35544L14.5761 7.36079L15.2934 6.664ZM12.5574 6.392L13.0253 7.27579L13.0253 7.27579L12.5574 6.392ZM11.7094 7.256L10.8249 6.78921L10.8201 6.79865L11.7094 7.256ZM11.4214 13V14H12.4214V13H11.4214ZM9.42138 13H8.42138V14H9.42138V13ZM9.42138 4.456V3.456H8.42138V4.456H9.42138ZM11.3254 4.456H12.3254V3.456H11.3254V4.456ZM11.3254 6.76L10.4229 7.19073L12.3254 6.76H11.3254ZM10.9894 6.056L10.1128 5.57474L9.86609 6.0241L10.0869 6.48673L10.9894 6.056ZM12.2854 4.808L12.7393 5.69906L12.7457 5.69575L12.2854 4.808ZM14.2694 5.36C14.8194 5.36 15.2706 5.46663 15.6462 5.65443L16.5406 3.86557C15.8495 3.52004 15.0847 3.36 14.2694 3.36V5.36ZM15.6532 5.65792C16.0052 5.83046 16.2848 6.09317 16.5 6.47907L18.2467 5.50493C17.8433 4.7815 17.2695 4.22287 16.5335 3.86208L15.6532 5.65792ZM16.5041 6.4863C16.7013 6.83305 16.8374 7.3504 16.8374 8.104H18.8374C18.8374 7.1296 18.6642 6.23895 18.2427 5.4977L16.5041 6.4863ZM16.8374 8.104V13H18.8374V8.104H16.8374ZM17.8374 12H15.8374V14H17.8374V12ZM16.8374 13V8.36H14.8374V13H16.8374ZM16.8374 8.36C16.8374 7.46037 16.6229 6.59742 16.0107 5.96721L14.5761 7.36079C14.6892 7.47724 14.8374 7.74497 14.8374 8.36H16.8374ZM16.021 5.97799C15.4354 5.3569 14.6481 5.104 13.8054 5.104V7.104C14.2426 7.104 14.4474 7.22444 14.5658 7.35001L16.021 5.97799ZM13.8054 5.104C13.1966 5.104 12.6158 5.22955 12.0895 5.50821L13.0253 7.27579C13.2242 7.17045 13.4755 7.104 13.8054 7.104V5.104ZM12.0895 5.50821C11.5387 5.79983 11.1157 6.23844 10.825 6.78924L12.5938 7.72276C12.7084 7.50556 12.8508 7.36817 13.0253 7.27579L12.0895 5.50821ZM10.8201 6.79865C10.5334 7.35612 10.4214 8.00104 10.4214 8.68H12.4214C12.4214 8.20696 12.5014 7.90255 12.5987 7.71335L10.8201 6.79865ZM10.4214 8.68V13H12.4214V8.68H10.4214ZM11.4214 12H9.42138V14H11.4214V12ZM10.4214 13V4.456H8.42138V13H10.4214ZM9.42138 5.456H11.3254V3.456H9.42138V5.456ZM10.3254 4.456V6.76H12.3254V4.456H10.3254ZM12.2279 6.32927L11.8919 5.62527L10.0869 6.48673L10.4229 7.19073L12.2279 6.32927ZM11.866 6.53726C12.0658 6.17331 12.3485 5.89812 12.7393 5.69904L11.8314 3.91696C11.0916 4.29388 10.5103 4.85069 10.1128 5.57474L11.866 6.53726ZM12.7457 5.69575C13.1594 5.48126 13.6586 5.36 14.2694 5.36V3.36C13.3868 3.36 12.5634 3.53741 11.8251 3.92024L12.7457 5.69575ZM20.9505 12.84L20.6675 13.7991L20.6767 13.8018L20.6861 13.8044L20.9505 12.84ZM19.3985 12.152L18.506 11.701L18.1137 12.4773L18.8281 12.9734L19.3985 12.152ZM20.1665 10.632L20.7049 9.7893L19.7728 9.19379L19.274 10.181L20.1665 10.632ZM21.5425 11.24L21.8298 10.2822L21.8298 10.2822L21.5425 11.24ZM24.5025 11.224L23.9927 10.3637L23.9855 10.368L23.9784 10.3723L24.5025 11.224ZM24.6465 10.008L24.0918 10.84L24.1082 10.851L24.1251 10.8613L24.6465 10.008ZM22.8545 9.544L22.7131 10.534L22.7169 10.5345L22.8545 9.544ZM21.7185 9.336L21.4695 10.3045L21.4855 10.3086L21.5016 10.3122L21.7185 9.336ZM20.6945 8.936L20.1888 9.7987L20.2 9.80529L20.2114 9.81158L20.6945 8.936ZM20.1185 5.624L20.9056 6.24093L20.9135 6.23067L20.1185 5.624ZM21.4145 4.696L21.7735 5.62939L21.7829 5.62568L21.4145 4.696ZM25.1585 4.552L24.9453 5.52902L24.9453 5.52902L25.1585 4.552ZM26.6145 5.096L27.507 5.54697L27.923 4.7237L27.136 4.24272L26.6145 5.096ZM25.8465 6.616L25.3287 7.4715L26.2522 8.03047L26.739 7.06697L25.8465 6.616ZM24.6145 6.12L24.384 7.09308L24.3987 7.09656L24.4136 7.0996L24.6145 6.12ZM22.0385 6.248L21.5195 5.39321L21.5126 5.39743L21.5057 5.40177L22.0385 6.248ZM21.8945 7.512L21.3398 8.34405L21.3398 8.34405L21.8945 7.512ZM22.6465 7.816L22.4119 8.78808L22.4119 8.78808L22.6465 7.816ZM23.6705 8.008L23.5291 8.99795L23.5445 9.00016L23.5601 9.00188L23.6705 8.008ZM24.8065 8.216L25.0555 7.24751L25.0555 7.24751L24.8065 8.216ZM25.8305 8.616L25.3474 9.49158L25.3652 9.50137L25.3833 9.51043L25.8305 8.616ZM26.4065 11.864L25.6297 11.2342L25.6245 11.2406L25.6194 11.2471L26.4065 11.864ZM25.0785 12.792L25.4258 13.7297L25.4334 13.7269L25.4409 13.724L25.0785 12.792ZM23.0145 12.112C22.3854 12.112 21.7865 12.0323 21.2149 11.8756L20.6861 13.8044C21.4371 14.0103 22.2143 14.112 23.0145 14.112V12.112ZM21.2335 11.8809C20.6434 11.7067 20.2352 11.5155 19.9689 11.3306L18.8281 12.9734C19.3298 13.3218 19.9563 13.5893 20.6675 13.7991L21.2335 11.8809ZM20.291 12.603L21.059 11.083L19.274 10.181L18.506 11.701L20.291 12.603ZM19.6281 11.4747C20.1051 11.7794 20.6521 12.0169 21.2552 12.1978L21.8298 10.2822C21.3663 10.1431 20.9959 9.97524 20.7049 9.7893L19.6281 11.4747ZM21.2552 12.1978C21.8776 12.3846 22.5076 12.48 23.1425 12.48V10.48C22.7107 10.48 22.2741 10.4154 21.8298 10.2822L21.2552 12.1978ZM23.1425 12.48C23.813 12.48 24.5026 12.3981 25.0266 12.0757L23.9784 10.3723C23.9802 10.3712 23.9669 10.3796 23.9308 10.3922C23.895 10.4048 23.8424 10.4195 23.7695 10.4333C23.6213 10.4612 23.4158 10.48 23.1425 10.48V12.48ZM25.0123 12.0843C25.5456 11.7683 25.9345 11.2404 25.9345 10.536H23.9345C23.9345 10.5239 23.9361 10.5016 23.9441 10.4728C23.9522 10.4437 23.9647 10.416 23.9796 10.3922C24.0099 10.344 24.0316 10.3407 23.9927 10.3637L25.0123 12.0843ZM25.9345 10.536C25.9345 9.97116 25.6724 9.463 25.1679 9.15472L24.1251 10.8613C24.0902 10.84 24.0304 10.7909 23.9846 10.7069C23.9398 10.6247 23.9345 10.5573 23.9345 10.536H25.9345ZM25.2012 9.17595C24.8708 8.95571 24.4888 8.82178 24.0971 8.74074L23.6919 10.6993C23.9189 10.7462 24.0382 10.8043 24.0918 10.84L25.2012 9.17595ZM24.0971 8.74074C23.762 8.67142 23.3932 8.60922 22.9921 8.55351L22.7169 10.5345C23.0838 10.5854 23.4083 10.6406 23.6919 10.6993L24.0971 8.74074ZM22.9959 8.55405C22.649 8.50449 22.2955 8.43983 21.9354 8.35981L21.5016 10.3122C21.9095 10.4028 22.3134 10.4768 22.7131 10.5339L22.9959 8.55405ZM21.9675 8.36751C21.6685 8.2906 21.4068 8.18687 21.1776 8.06042L20.2114 9.81158C20.6009 10.0265 21.0219 10.1894 21.4695 10.3045L21.9675 8.36751ZM21.2002 8.0733C21.0251 7.97062 20.8898 7.84038 20.7837 7.67524L19.1013 8.75676C19.3792 9.18895 19.7453 9.53871 20.1888 9.7987L21.2002 8.0733ZM20.7837 7.67524C20.7279 7.58846 20.6545 7.40152 20.6545 7.032H18.6545C18.6545 7.64381 18.7731 8.24621 19.1013 8.75676L20.7837 7.67524ZM20.6545 7.032C20.6545 6.69143 20.7462 6.44424 20.9056 6.24088L19.3314 5.00712C18.8722 5.59309 18.6545 6.28457 18.6545 7.032H20.6545ZM20.9135 6.23067C21.093 5.9954 21.3625 5.78741 21.7735 5.62934L21.0555 3.76265C20.3571 4.03126 19.7627 4.44193 19.3235 5.01733L20.9135 6.23067ZM21.7829 5.62568C22.2046 5.45859 22.7408 5.36 23.4145 5.36V3.36C22.5522 3.36 21.7551 3.48541 21.0461 3.76632L21.7829 5.62568ZM23.4145 5.36C23.9158 5.36 24.4257 5.41565 24.9453 5.52902L25.3717 3.57498C24.7179 3.43235 24.0652 3.36 23.4145 3.36V5.36ZM24.9453 5.52902C25.4572 5.64069 25.83 5.78854 26.0931 5.94928L27.136 4.24272C26.631 3.93412 26.0331 3.7193 25.3717 3.57498L24.9453 5.52902ZM25.722 4.64503L24.954 6.16503L26.739 7.06697L27.507 5.54697L25.722 4.64503ZM26.3643 5.7605C25.8724 5.4628 25.3556 5.25119 24.8154 5.1404L24.4136 7.0996C24.7054 7.15948 25.0099 7.27854 25.3287 7.4715L26.3643 5.7605ZM24.845 5.14692C24.3662 5.03353 23.8836 4.976 23.3985 4.976V6.976C23.7241 6.976 24.0521 7.01447 24.384 7.09308L24.845 5.14692ZM23.3985 4.976C22.7259 4.976 22.0518 5.07005 21.5195 5.39321L22.5575 7.10279C22.6225 7.06329 22.8551 6.976 23.3985 6.976V4.976ZM21.5057 5.40177C21.0031 5.71823 20.6065 6.2338 20.6065 6.936H22.6065C22.6065 6.95421 22.604 6.98019 22.5954 7.01038C22.5868 7.04075 22.5743 7.06714 22.5614 7.08777C22.5358 7.12847 22.5226 7.12493 22.5713 7.09423L21.5057 5.40177ZM20.6065 6.936C20.6065 7.48331 20.8356 8.00791 21.3398 8.34405L22.4492 6.67995C22.4868 6.70501 22.5373 6.75351 22.5729 6.82479C22.6065 6.89193 22.6065 6.9384 22.6065 6.936H20.6065ZM21.3398 8.34405C21.6587 8.55668 22.0286 8.69557 22.4119 8.78808L22.8811 6.84392C22.6457 6.78709 22.5143 6.72332 22.4492 6.67995L21.3398 8.34405ZM22.4119 8.78808C22.757 8.87138 23.13 8.94093 23.5291 8.99795L23.8119 7.01805C23.4644 6.9684 23.1547 6.90995 22.8811 6.84392L22.4119 8.78808ZM23.5601 9.00188C23.8974 9.03937 24.2298 9.10023 24.5575 9.18449L25.0555 7.24751C24.6366 7.13977 24.2116 7.06196 23.7809 7.01412L23.5601 9.00188ZM24.5575 9.18449C24.8565 9.2614 25.1182 9.36513 25.3474 9.49158L26.3136 7.74042C25.9241 7.52553 25.5031 7.3626 25.0555 7.24751L24.5575 9.18449ZM25.3833 9.51043C25.5439 9.59072 25.6633 9.69845 25.7573 9.84476L27.4397 8.76324C27.1497 8.31222 26.7571 7.96128 26.2777 7.72157L25.3833 9.51043ZM25.7573 9.84476C25.8151 9.93465 25.8865 10.1182 25.8865 10.472H27.8865C27.8865 9.86582 27.7659 9.27069 27.4397 8.76324L25.7573 9.84476ZM25.8865 10.472C25.8865 10.7883 25.7978 11.027 25.6297 11.2342L27.1833 12.4938C27.6552 11.9117 27.8865 11.2224 27.8865 10.472H25.8865ZM25.6194 11.2471C25.4439 11.4711 25.1635 11.686 24.7161 11.86L25.4409 13.724C26.1455 13.45 26.7505 13.0462 27.1936 12.4809L25.6194 11.2471ZM24.7312 11.8543C24.2943 12.0161 23.7299 12.112 23.0145 12.112V14.112C23.8991 14.112 24.7107 13.9946 25.4258 13.7297L24.7312 11.8543ZM29.6489 12.392L28.9569 13.114L28.9649 13.1215L29.6489 12.392ZM28.8809 2.568V1.568H27.8809V2.568H28.8809ZM30.8809 2.568H31.8809V1.568H30.8809V2.568ZM31.1849 11.128L30.4433 11.7989L30.4519 11.8084L30.4607 11.8177L31.1849 11.128ZM33.1849 11.112L34.1155 10.746L33.6237 9.49546L32.5671 10.3257L33.1849 11.112ZM33.7449 12.536L34.3781 13.31L34.9423 12.8484L34.6755 12.17L33.7449 12.536ZM32.8809 12.968L33.1516 13.9307L32.8809 12.968ZM27.4729 6.12H26.4729V7.12H27.4729V6.12ZM27.4729 4.52V3.52H26.4729V4.52H27.4729ZM33.1689 4.52H34.1689V3.52H33.1689V4.52ZM33.1689 6.12V7.12H34.1689V6.12H33.1689ZM31.8249 12.112C31.0526 12.112 30.6041 11.9168 30.3328 11.6625L28.9649 13.1215C29.7176 13.8272 30.7198 14.112 31.8249 14.112V12.112ZM30.3408 11.67C30.0855 11.4253 29.8809 11.0046 29.8809 10.232H27.8809C27.8809 11.358 28.1883 12.3773 28.957 13.114L30.3408 11.67ZM29.8809 10.232V2.568H27.8809V10.232H29.8809ZM28.8809 3.568H30.8809V1.568H28.8809V3.568ZM29.8809 2.568V10.184H31.8809V2.568H29.8809ZM29.8809 10.184C29.8809 10.7512 30.0244 11.3359 30.4433 11.7989L31.9264 10.4571C31.9263 10.457 31.926 10.4567 31.9256 10.456C31.9251 10.4554 31.9241 10.4539 31.9228 10.4515C31.9201 10.4468 31.9148 10.4363 31.9087 10.4175C31.8962 10.3786 31.8809 10.3052 31.8809 10.184H29.8809ZM30.4607 11.8177C30.9011 12.28 31.4788 12.464 32.0649 12.464V10.464C31.9776 10.464 31.9351 10.4509 31.9216 10.4458C31.9119 10.4421 31.9114 10.4408 31.909 10.4383L30.4607 11.8177ZM32.0649 12.464C32.6951 12.464 33.2976 12.2952 33.8027 11.8983L32.5671 10.3257C32.4749 10.3981 32.3306 10.464 32.0649 10.464V12.464ZM32.2543 11.478L32.8143 12.902L34.6755 12.17L34.1155 10.746L32.2543 11.478ZM33.1116 11.762C33 11.8534 32.8411 11.9404 32.6101 12.0053L33.1516 13.9307C33.6033 13.8036 34.0204 13.6026 34.3781 13.31L33.1116 11.762ZM32.6101 12.0053C32.3589 12.076 32.0981 12.112 31.8249 12.112V14.112C32.277 14.112 32.7202 14.052 33.1516 13.9307L32.6101 12.0053ZM28.4729 6.12V4.52H26.4729V6.12H28.4729ZM27.4729 5.52H33.1689V3.52H27.4729V5.52ZM32.1689 4.52V6.12H34.1689V4.52H32.1689ZM33.1689 5.12H27.4729V7.12H33.1689V5.12ZM40.6541 13H39.6541V14H40.6541V13ZM40.6541 11.272H41.6541V11.1232L41.6108 10.9808L40.6541 11.272ZM40.5421 10.904H39.5421V11.0528L39.5855 11.1952L40.5421 10.904ZM40.0141 6.52L39.3294 7.24885L39.3354 7.25444L39.3415 7.25994L40.0141 6.52ZM36.9901 6.248L36.6869 5.29505L36.6805 5.29713L36.9901 6.248ZM35.8221 6.872L34.9417 7.3461L35.522 8.42383L36.4623 7.64022L35.8221 6.872ZM35.0381 5.416L34.4293 4.62269L33.7542 5.1408L34.1577 5.8901L35.0381 5.416ZM36.6701 4.632L36.9319 5.5972L36.9427 5.59413L36.6701 4.632ZM41.5181 5.256L40.8538 6.00341L40.86 6.00897L40.8664 6.01442L41.5181 5.256ZM42.5421 13V14H43.5421V13H42.5421ZM36.2861 12.792L35.8632 13.6982L35.8716 13.7021L35.88 13.7058L36.2861 12.792ZM35.1661 11.88L34.3272 12.4242L34.3358 12.4374L34.3448 12.4504L35.1661 11.88ZM35.1181 9.256L34.2648 8.73455L34.2595 8.74329L34.2543 8.75213L35.1181 9.256ZM36.2541 8.344L36.648 9.26314L36.648 9.26314L36.2541 8.344ZM40.8141 8.008H41.8141V7.008H40.8141V8.008ZM40.8141 9.336V10.336H41.8141V9.336H40.8141ZM37.1021 9.672L37.7748 10.4119L37.7838 10.4038L37.7926 10.3954L37.1021 9.672ZM37.1821 11.336L36.5869 12.1396L36.5869 12.1396L37.1821 11.336ZM39.6941 11.32L39.2005 10.4503L39.1903 10.4562L39.6941 11.32ZM40.5421 10.328L41.5051 10.0584L40.6983 7.17704L39.6105 9.96446L40.5421 10.328ZM40.8781 11.528L41.812 11.8856L41.9303 11.5768L41.8411 11.2584L40.8781 11.528ZM39.8381 12.696L39.354 11.8209L39.3461 11.8254L39.8381 12.696ZM41.6541 13V11.272H39.6541V13H41.6541ZM41.6108 10.9808L41.4988 10.6128L39.5855 11.1952L39.6975 11.5632L41.6108 10.9808ZM41.5421 10.904V7.88H39.5421V10.904H41.5421ZM41.5421 7.88C41.5421 7.08239 41.2945 6.33248 40.6868 5.78006L39.3415 7.25994C39.4378 7.34752 39.5421 7.50428 39.5421 7.88H41.5421ZM40.6988 5.79115C40.0892 5.21853 39.2631 5.024 38.4141 5.024V7.024C38.9945 7.024 39.235 7.16014 39.3294 7.24885L40.6988 5.79115ZM38.4141 5.024C37.8286 5.024 37.2517 5.11537 36.6869 5.29507L37.2933 7.20093C37.6672 7.08197 38.0397 7.024 38.4141 7.024V5.024ZM36.6805 5.29713C36.1199 5.47966 35.6137 5.74399 35.1819 6.10378L36.4623 7.64022C36.6706 7.46668 36.943 7.31501 37.2997 7.19887L36.6805 5.29713ZM36.7026 6.3979L35.9186 4.9419L34.1577 5.8901L34.9417 7.3461L36.7026 6.3979ZM35.6469 6.20931C35.9898 5.94617 36.4123 5.73804 36.9319 5.59714L36.4084 3.66686C35.6693 3.86729 35.0038 4.18183 34.4293 4.62269L35.6469 6.20931ZM36.9427 5.59413C37.4917 5.43858 38.0612 5.36 38.6541 5.36V3.36C37.8817 3.36 37.1285 3.46275 36.3975 3.66987L36.9427 5.59413ZM38.6541 5.36C39.739 5.36 40.4238 5.62122 40.8538 6.00341L42.1825 4.50859C41.2684 3.69611 40.0439 3.36 38.6541 3.36V5.36ZM40.8664 6.01442C41.2539 6.34747 41.5421 6.93179 41.5421 7.992H43.5421C43.5421 6.57754 43.1477 5.33787 42.1699 4.49758L40.8664 6.01442ZM41.5421 7.992V13H43.5421V7.992H41.5421ZM42.5421 12H40.6541V14H42.5421V12ZM37.9661 12.112C37.4362 12.112 37.0197 12.0237 36.6923 11.8782L35.88 13.7058C36.5126 13.987 37.2161 14.112 37.9661 14.112V12.112ZM36.709 11.8858C36.3675 11.7264 36.1405 11.5299 35.9875 11.3096L34.3448 12.4504C34.7251 12.9981 35.2448 13.4096 35.8632 13.6982L36.709 11.8858ZM36.0051 11.3358C35.8589 11.1104 35.7821 10.8583 35.7821 10.552H33.7821C33.7821 11.2271 33.9614 11.8603 34.3272 12.4242L36.0051 11.3358ZM35.7821 10.552C35.7821 10.2345 35.8542 9.97881 35.9819 9.75987L34.2543 8.75213C33.9341 9.30119 33.7821 9.90953 33.7821 10.552H35.7821ZM35.9714 9.77745C36.0724 9.61218 36.2655 9.42708 36.648 9.26314L35.8602 7.42485C35.1974 7.70892 34.6332 8.13182 34.2648 8.73455L35.9714 9.77745ZM36.648 9.26314C36.9988 9.11283 37.5421 9.008 38.3341 9.008V7.008C37.3982 7.008 36.5548 7.12717 35.8602 7.42485L36.648 9.26314ZM38.3341 9.008H40.8141V7.008H38.3341V9.008ZM39.8141 8.008V9.336H41.8141V8.008H39.8141ZM40.8141 8.336H38.4781V10.336H40.8141V8.336ZM38.4781 8.336C38.089 8.336 37.7179 8.36723 37.3849 8.44854C37.0579 8.52838 36.7006 8.67283 36.4116 8.94864L37.7926 10.3954C37.7383 10.4472 37.7276 10.4236 37.8593 10.3915C37.985 10.3608 38.1846 10.336 38.4781 10.336V8.336ZM36.4295 8.93206C35.9842 9.33686 35.7501 9.87315 35.7501 10.472H37.7501C37.7501 10.4533 37.7518 10.4426 37.7527 10.4381C37.7535 10.4339 37.7541 10.4333 37.7534 10.4347C37.7528 10.4362 37.7527 10.4359 37.7545 10.4334C37.7565 10.4306 37.7623 10.4233 37.7748 10.4119L36.4295 8.93206ZM35.7501 10.472C35.7501 11.1471 36.0407 11.735 36.5869 12.1396L37.7774 10.5324C37.76 10.5196 37.7525 10.5113 37.7507 10.5092C37.7491 10.5074 37.7506 10.5088 37.7526 10.5128C37.7545 10.5167 37.7544 10.5179 37.7535 10.5139C37.7525 10.5095 37.7501 10.4963 37.7501 10.472H35.7501ZM36.5869 12.1396C37.1069 12.5248 37.7446 12.656 38.3821 12.656V10.656C37.9956 10.656 37.8333 10.5739 37.7774 10.5324L36.5869 12.1396ZM38.3821 12.656C39.031 12.656 39.6456 12.506 40.198 12.1838L39.1903 10.4562C38.9747 10.582 38.7146 10.656 38.3821 10.656V12.656ZM40.1877 12.1897C40.7895 11.8481 41.2226 11.3349 41.4737 10.6915L39.6105 9.96446C39.5203 10.1958 39.388 10.3439 39.2005 10.4503L40.1877 12.1897ZM39.5792 10.5976L39.9152 11.7976L41.8411 11.2584L41.5051 10.0584L39.5792 10.5976ZM39.9443 11.1704C39.8425 11.4361 39.6642 11.6494 39.3541 11.821L40.3222 13.571C41.0148 13.1879 41.5298 12.6225 41.812 11.8856L39.9443 11.1704ZM39.3461 11.8254C39.0484 11.9937 38.6081 12.112 37.9661 12.112V14.112C38.8389 14.112 39.6465 13.953 40.3302 13.5666L39.3461 11.8254ZM51.7809 4.76L51.3336 5.65445L51.3407 5.65792L51.7809 4.76ZM53.0609 5.992L52.1875 6.47909L52.1916 6.4863L53.0609 5.992ZM53.5249 13V14H54.5249V13H53.5249ZM51.5249 13H50.5249V14H51.5249V13ZM50.9809 6.664L50.2533 7.35001L50.2584 7.35544L50.2636 7.36079L50.9809 6.664ZM48.2449 6.392L48.7128 7.27579L48.7128 7.27579L48.2449 6.392ZM47.3969 7.256L46.5124 6.78921L46.5076 6.79865L47.3969 7.256ZM47.1089 13V14H48.1089V13H47.1089ZM45.1089 13H44.1089V14H45.1089V13ZM45.1089 4.456V3.456H44.1089V4.456H45.1089ZM47.0129 4.456H48.0129V3.456H47.0129V4.456ZM47.0129 6.76L46.1104 7.19073L48.0129 6.76H47.0129ZM46.6769 6.056L45.8003 5.57474L45.5536 6.0241L45.7744 6.48673L46.6769 6.056ZM47.9729 4.808L48.4268 5.69906L48.4332 5.69575L47.9729 4.808ZM49.9569 5.36C50.5069 5.36 50.9581 5.46663 51.3337 5.65443L52.2281 3.86557C51.537 3.52004 50.7722 3.36 49.9569 3.36V5.36ZM51.3407 5.65792C51.6927 5.83046 51.9723 6.09317 52.1875 6.47907L53.9342 5.50493C53.5308 4.7815 52.957 4.22287 52.221 3.86208L51.3407 5.65792ZM52.1916 6.4863C52.3888 6.83305 52.5249 7.3504 52.5249 8.104H54.5249C54.5249 7.1296 54.3517 6.23895 53.9302 5.4977L52.1916 6.4863ZM52.5249 8.104V13H54.5249V8.104H52.5249ZM53.5249 12H51.5249V14H53.5249V12ZM52.5249 13V8.36H50.5249V13H52.5249ZM52.5249 8.36C52.5249 7.46037 52.3104 6.59742 51.6982 5.96721L50.2636 7.36079C50.3767 7.47724 50.5249 7.74497 50.5249 8.36H52.5249ZM51.7085 5.97799C51.1229 5.3569 50.3356 5.104 49.4929 5.104V7.104C49.9301 7.104 50.1349 7.22444 50.2533 7.35001L51.7085 5.97799ZM49.4929 5.104C48.8841 5.104 48.3033 5.22955 47.777 5.50821L48.7128 7.27579C48.9117 7.17045 49.163 7.104 49.4929 7.104V5.104ZM47.777 5.50821C47.2262 5.79983 46.8032 6.23844 46.5125 6.78924L48.2813 7.72276C48.3959 7.50556 48.5383 7.36817 48.7128 7.27579L47.777 5.50821ZM46.5076 6.79865C46.2209 7.35612 46.1089 8.00104 46.1089 8.68H48.1089C48.1089 8.20696 48.1889 7.90255 48.2862 7.71335L46.5076 6.79865ZM46.1089 8.68V13H48.1089V8.68H46.1089ZM47.1089 12H45.1089V14H47.1089V12ZM46.1089 13V4.456H44.1089V13H46.1089ZM45.1089 5.456H47.0129V3.456H45.1089V5.456ZM46.0129 4.456V6.76H48.0129V4.456H46.0129ZM47.9154 6.32927L47.5794 5.62527L45.7744 6.48673L46.1104 7.19073L47.9154 6.32927ZM47.5535 6.53726C47.7533 6.17331 48.036 5.89812 48.4268 5.69904L47.5189 3.91696C46.7791 4.29388 46.1978 4.85069 45.8003 5.57474L47.5535 6.53726ZM48.4332 5.69575C48.8469 5.48126 49.3461 5.36 49.9569 5.36V3.36C49.0743 3.36 48.2509 3.53741 47.5126 3.92024L48.4332 5.69575ZM57.102 12.392L56.4101 13.114L56.4181 13.1215L57.102 12.392ZM56.334 2.568V1.568H55.334V2.568H56.334ZM58.334 2.568H59.334V1.568H58.334V2.568ZM58.638 11.128L57.8965 11.7989L57.905 11.8084L57.9139 11.8177L58.638 11.128ZM60.638 11.112L61.5686 10.746L61.0768 9.49546L60.0202 10.3257L60.638 11.112ZM61.198 12.536L61.8312 13.31L62.3954 12.8484L62.1286 12.17L61.198 12.536ZM60.334 12.968L60.6047 13.9307L60.334 12.968ZM54.926 6.12H53.926V7.12H54.926V6.12ZM54.926 4.52V3.52H53.926V4.52H54.926ZM60.622 4.52H61.622V3.52H60.622V4.52ZM60.622 6.12V7.12H61.622V6.12H60.622ZM59.278 12.112C58.5058 12.112 58.0573 11.9168 57.7859 11.6625L56.4181 13.1215C57.1707 13.8272 58.1729 14.112 59.278 14.112V12.112ZM57.7939 11.67C57.5386 11.4253 57.334 11.0046 57.334 10.232H55.334C55.334 11.358 55.6414 12.3773 56.4101 13.114L57.7939 11.67ZM57.334 10.232V2.568H55.334V10.232H57.334ZM56.334 3.568H58.334V1.568H56.334V3.568ZM57.334 2.568V10.184H59.334V2.568H57.334ZM57.334 10.184C57.334 10.7512 57.4776 11.3359 57.8965 11.7989L59.3795 10.4571C59.3794 10.457 59.3792 10.4567 59.3787 10.456C59.3782 10.4554 59.3773 10.4539 59.3759 10.4515C59.3732 10.4468 59.3679 10.4363 59.3619 10.4175C59.3494 10.3786 59.334 10.3052 59.334 10.184H57.334ZM57.9139 11.8177C58.3542 12.28 58.932 12.464 59.518 12.464V10.464C59.4307 10.464 59.3882 10.4509 59.3747 10.4458C59.365 10.4421 59.3645 10.4408 59.3621 10.4383L57.9139 11.8177ZM59.518 12.464C60.1482 12.464 60.7507 12.2952 61.2558 11.8983L60.0202 10.3257C59.928 10.3981 59.7838 10.464 59.518 10.464V12.464ZM59.7074 11.478L60.2674 12.902L62.1286 12.17L61.5686 10.746L59.7074 11.478ZM60.5648 11.762C60.4532 11.8534 60.2943 11.9404 60.0633 12.0053L60.6047 13.9307C61.0564 13.8036 61.4735 13.6026 61.8312 13.31L60.5648 11.762ZM60.0633 12.0053C59.812 12.076 59.5512 12.112 59.278 12.112V14.112C59.7301 14.112 60.1733 14.052 60.6047 13.9307L60.0633 12.0053ZM55.926 6.12V4.52H53.926V6.12H55.926ZM54.926 5.52H60.622V3.52H54.926V5.52ZM59.622 4.52V6.12H61.622V4.52H59.622ZM60.622 5.12H54.926V7.12H60.622V5.12ZM67.4571 13H66.4571V14H67.4571V13ZM67.4571 1.8V0.799999H66.4571V1.8H67.4571ZM75.5531 2.504L75.0976 3.39425L75.0976 3.39425L75.5531 2.504ZM77.6971 4.456L76.8455 4.9801L76.8455 4.9801L77.6971 4.456ZM77.6971 10.344L78.5488 10.8681L78.5517 10.8633L77.6971 10.344ZM69.5371 11.24H68.5371V12.24H69.5371V11.24ZM74.4331 10.76L73.9737 9.87176L73.9674 9.87508L74.4331 10.76ZM75.8571 9.416L74.9968 8.90615L74.9899 8.91813L75.8571 9.416ZM75.8571 5.384L74.9899 5.88187L74.9954 5.89143L75.0011 5.90087L75.8571 5.384ZM74.4331 4.04L73.9674 4.92494L73.9737 4.92822L74.4331 4.04ZM69.5371 3.56V2.56H68.5371V3.56H69.5371ZM68.4571 13V1.8H66.4571V13H68.4571ZM67.4571 2.8H72.3531V0.799999H67.4571V2.8ZM72.3531 2.8C73.4392 2.8 74.3446 3.00897 75.0976 3.39425L76.0086 1.61375C74.927 1.06036 73.6991 0.799999 72.3531 0.799999V2.8ZM75.0976 3.39425C75.8612 3.7849 76.4348 4.31282 76.8455 4.9801L78.5488 3.9319C77.9354 2.93517 77.0797 2.16176 76.0086 1.61375L75.0976 3.39425ZM76.8455 4.9801C77.246 5.63102 77.4651 6.42474 77.4651 7.4H79.4651C79.4651 6.11392 79.1722 4.94498 78.5488 3.9319L76.8455 4.9801ZM77.4651 7.4C77.4651 8.36231 77.247 9.15899 76.8425 9.82474L78.5517 10.8633C79.1712 9.84368 79.4651 8.67769 79.4651 7.4H77.4651ZM76.8455 9.8199C76.4348 10.4872 75.8612 11.0151 75.0976 11.4058L76.0086 13.1862C77.0797 12.6382 77.9354 11.8648 78.5488 10.8681L76.8455 9.8199ZM75.0976 11.4058C74.3446 11.791 73.4392 12 72.3531 12V14C73.6991 14 74.927 13.7396 76.0086 13.1862L75.0976 11.4058ZM72.3531 12H67.4571V14H72.3531V12ZM69.5371 12.24H72.2571V10.24H69.5371V12.24ZM72.2571 12.24C73.2258 12.24 74.1183 12.0558 74.8989 11.6449L73.9674 9.87508C73.532 10.1042 72.9738 10.24 72.2571 10.24V12.24ZM74.8925 11.6482C75.6731 11.2445 76.2933 10.6648 76.7244 9.91387L74.9899 8.91813C74.7596 9.31921 74.4305 9.63551 73.9737 9.87178L74.8925 11.6482ZM76.7174 9.9258C77.163 9.17392 77.3691 8.32056 77.3691 7.4H75.3691C75.3691 8.01544 75.2339 8.50608 74.9968 8.9062L76.7174 9.9258ZM77.3691 7.4C77.3691 6.47212 77.1644 5.61442 76.7132 4.86713L75.0011 5.90087C75.2325 6.28424 75.3691 6.77054 75.3691 7.4H77.3691ZM76.7244 4.88613C76.2933 4.13521 75.6731 3.55551 74.8925 3.15178L73.9737 4.92822C74.4305 5.16449 74.7596 5.48079 74.9899 5.88187L76.7244 4.88613ZM74.8989 3.15508C74.1183 2.74424 73.2258 2.56 72.2571 2.56V4.56C72.9738 4.56 73.532 4.69576 73.9674 4.92492L74.8989 3.15508ZM72.2571 2.56H69.5371V4.56H72.2571V2.56ZM68.5371 3.56V11.24H70.5371V3.56H68.5371ZM80.4839 13H79.4839V14H80.4839V13ZM80.4839 4.456V3.456H79.4839V4.456H80.4839ZM82.4839 4.456H83.4839V3.456H82.4839V4.456ZM82.4839 13V14H83.4839V13H82.4839ZM80.5639 2.696L79.8568 3.40311L79.8646 3.41096L79.8727 3.41864L80.5639 2.696ZM80.5639 0.999999L81.2544 1.72335L81.2551 1.72264L80.5639 0.999999ZM82.4039 0.983999L81.7134 1.70736L81.7302 1.72338L81.7477 1.7386L82.4039 0.983999ZM82.4199 2.696L83.127 3.40311L83.1348 3.39525L83.1425 3.38722L82.4199 2.696ZM81.4839 13V4.456H79.4839V13H81.4839ZM80.4839 5.456H82.4839V3.456H80.4839V5.456ZM81.4839 4.456V13H83.4839V4.456H81.4839ZM82.4839 12H80.4839V14H82.4839V12ZM81.4919 2.048C81.3481 2.048 81.295 2.01155 81.2551 1.97336L79.8727 3.41864C80.3234 3.84978 80.889 4.048 81.4919 4.048V2.048ZM81.271 1.98889C81.2231 1.94099 81.2119 1.91237 81.2119 1.848H79.2119C79.2119 2.44497 79.4353 2.98167 79.8568 3.40311L81.271 1.98889ZM81.2119 1.848C81.2119 1.79374 81.2207 1.76992 81.2235 1.76338C81.2257 1.75794 81.2314 1.7453 81.2544 1.72335L79.8734 0.276644C79.4298 0.70009 79.2119 1.24935 79.2119 1.848H81.2119ZM81.2551 1.72264C81.295 1.68445 81.3481 1.648 81.4919 1.648V-0.352C80.889 -0.352 80.3234 -0.15378 79.8727 0.277356L81.2551 1.72264ZM81.4919 1.648C81.6498 1.648 81.6929 1.6878 81.7134 1.70736L83.0944 0.260643C82.6455 -0.167797 82.0806 -0.352 81.4919 -0.352V1.648ZM81.7477 1.7386C81.7606 1.7498 81.7663 1.75693 81.768 1.75919C81.7696 1.76125 81.7691 1.76098 81.7683 1.75911C81.7675 1.75727 81.768 1.75776 81.769 1.76245C81.77 1.76743 81.7719 1.77933 81.7719 1.8H83.7719C83.7719 1.18557 83.528 0.636345 83.0601 0.229394L81.7477 1.7386ZM81.7719 1.8C81.7719 1.90499 81.7468 1.95301 81.6972 2.00478L83.1425 3.38722C83.5623 2.94832 83.7719 2.39901 83.7719 1.8H81.7719ZM81.7128 1.98889C81.6953 2.00637 81.6558 2.048 81.4919 2.048V4.048C82.096 4.048 82.6751 3.85496 83.127 3.40311L81.7128 1.98889ZM85.6849 12.84L85.4019 13.7991L85.4111 13.8018L85.4204 13.8044L85.6849 12.84ZM84.1329 12.152L83.2403 11.701L82.8481 12.4773L83.5625 12.9734L84.1329 12.152ZM84.9009 10.632L85.4393 9.7893L84.5072 9.19379L84.0083 10.181L84.9009 10.632ZM86.2769 11.24L86.5642 10.2822L86.5642 10.2822L86.2769 11.24ZM89.2369 11.224L88.7271 10.3637L88.7199 10.368L88.7128 10.3723L89.2369 11.224ZM89.3809 10.008L88.8262 10.84L88.8426 10.851L88.8594 10.8613L89.3809 10.008ZM87.5889 9.544L87.4475 10.534L87.4513 10.5345L87.5889 9.544ZM86.4529 9.336L86.2038 10.3045L86.2198 10.3086L86.2359 10.3122L86.4529 9.336ZM85.4289 8.936L84.9232 9.7987L84.9344 9.80529L84.9458 9.81158L85.4289 8.936ZM84.8529 5.624L85.64 6.24093L85.6478 6.23067L84.8529 5.624ZM86.1489 4.696L86.5079 5.62939L86.5172 5.62568L86.1489 4.696ZM89.8929 4.552L89.6797 5.52902L89.6797 5.52902L89.8929 4.552ZM91.3489 5.096L92.2414 5.54697L92.6574 4.7237L91.8703 4.24272L91.3489 5.096ZM90.5809 6.616L90.0631 7.4715L90.9866 8.03047L91.4734 7.06697L90.5809 6.616ZM89.3489 6.12L89.1184 7.09308L89.1331 7.09656L89.1479 7.0996L89.3489 6.12ZM86.7729 6.248L86.2539 5.39321L86.2469 5.39743L86.2401 5.40177L86.7729 6.248ZM86.6289 7.512L86.0742 8.34405L86.0742 8.34405L86.6289 7.512ZM87.3809 7.816L87.1462 8.78808L87.1462 8.78808L87.3809 7.816ZM88.4049 8.008L88.2635 8.99795L88.2789 9.00016L88.2944 9.00188L88.4049 8.008ZM89.5409 8.216L89.7899 7.24751L89.7899 7.24751L89.5409 8.216ZM90.5649 8.616L90.0818 9.49158L90.0995 9.50137L90.1177 9.51043L90.5649 8.616ZM91.1409 11.864L90.3641 11.2342L90.3589 11.2406L90.3538 11.2471L91.1409 11.864ZM89.8129 12.792L90.1602 13.7297L90.1678 13.7269L90.1753 13.724L89.8129 12.792ZM87.7489 12.112C87.1198 12.112 86.5209 12.0323 85.9493 11.8756L85.4204 13.8044C86.1715 14.0103 86.9486 14.112 87.7489 14.112V12.112ZM85.9679 11.8809C85.3778 11.7067 84.9695 11.5155 84.7033 11.3306L83.5625 12.9734C84.0642 13.3218 84.6907 13.5893 85.4019 13.7991L85.9679 11.8809ZM85.0254 12.603L85.7934 11.083L84.0083 10.181L83.2403 11.701L85.0254 12.603ZM84.3625 11.4747C84.8394 11.7794 85.3864 12.0169 85.9895 12.1978L86.5642 10.2822C86.1006 10.1431 85.7303 9.97524 85.4393 9.7893L84.3625 11.4747ZM85.9895 12.1978C86.612 12.3846 87.242 12.48 87.8769 12.48V10.48C87.4451 10.48 87.0085 10.4154 86.5642 10.2822L85.9895 12.1978ZM87.8769 12.48C88.5473 12.48 89.237 12.3981 89.761 12.0757L88.7128 10.3723C88.7146 10.3712 88.7012 10.3796 88.6652 10.3922C88.6294 10.4048 88.5768 10.4195 88.5039 10.4333C88.3557 10.4612 88.1502 10.48 87.8769 10.48V12.48ZM89.7467 12.0843C90.28 11.7683 90.6689 11.2404 90.6689 10.536H88.6689C88.6689 10.5239 88.6705 10.5016 88.6785 10.4728C88.6866 10.4437 88.6991 10.416 88.714 10.3922C88.7443 10.344 88.7659 10.3407 88.7271 10.3637L89.7467 12.0843ZM90.6689 10.536C90.6689 9.97116 90.4068 9.463 89.9023 9.15472L88.8594 10.8613C88.8245 10.84 88.7648 10.7909 88.719 10.7069C88.6742 10.6247 88.6689 10.5573 88.6689 10.536H90.6689ZM89.9356 9.17595C89.6052 8.95571 89.2232 8.82178 88.8315 8.74074L88.4263 10.6993C88.6533 10.7462 88.7725 10.8043 88.8262 10.84L89.9356 9.17595ZM88.8315 8.74074C88.4964 8.67142 88.1276 8.60922 87.7264 8.55351L87.4513 10.5345C87.8182 10.5854 88.1427 10.6406 88.4263 10.6993L88.8315 8.74074ZM87.7303 8.55405C87.3834 8.50449 87.0299 8.43983 86.6698 8.35981L86.2359 10.3122C86.6439 10.4028 87.0477 10.4768 87.4475 10.5339L87.7303 8.55405ZM86.7019 8.36751C86.4028 8.2906 86.1411 8.18687 85.912 8.06042L84.9458 9.81158C85.3353 10.0265 85.7562 10.1894 86.2038 10.3045L86.7019 8.36751ZM85.9346 8.0733C85.7594 7.97062 85.6242 7.84038 85.5181 7.67524L83.8357 8.75676C84.1135 9.18895 84.4797 9.53871 84.9232 9.7987L85.9346 8.0733ZM85.5181 7.67524C85.4623 7.58846 85.3889 7.40152 85.3889 7.032H83.3889C83.3889 7.64381 83.5075 8.24621 83.8357 8.75676L85.5181 7.67524ZM85.3889 7.032C85.3889 6.69143 85.4805 6.44424 85.6399 6.24088L84.0658 5.00712C83.6065 5.59309 83.3889 6.28457 83.3889 7.032H85.3889ZM85.6478 6.23067C85.8274 5.9954 86.0969 5.78741 86.5079 5.62934L85.7899 3.76265C85.0915 4.03126 84.497 4.44193 84.0579 5.01733L85.6478 6.23067ZM86.5172 5.62568C86.939 5.45859 87.4751 5.36 88.1489 5.36V3.36C87.2866 3.36 86.4895 3.48541 85.7805 3.76632L86.5172 5.62568ZM88.1489 5.36C88.6502 5.36 89.1601 5.41565 89.6797 5.52902L90.106 3.57498C89.4523 3.43235 88.7995 3.36 88.1489 3.36V5.36ZM89.6797 5.52902C90.1916 5.64069 90.5644 5.78854 90.8274 5.94928L91.8703 4.24272C91.3654 3.93412 90.7675 3.7193 90.106 3.57498L89.6797 5.52902ZM90.4563 4.64503L89.6883 6.16503L91.4734 7.06697L92.2414 5.54697L90.4563 4.64503ZM91.0987 5.7605C90.6068 5.4628 90.0899 5.25119 89.5498 5.1404L89.1479 7.0996C89.4398 7.15948 89.7443 7.27854 90.0631 7.4715L91.0987 5.7605ZM89.5793 5.14692C89.1006 5.03353 88.6179 4.976 88.1329 4.976V6.976C88.4585 6.976 88.7865 7.01447 89.1184 7.09308L89.5793 5.14692ZM88.1329 4.976C87.4603 4.976 86.7862 5.07005 86.2539 5.39321L87.2919 7.10279C87.3569 7.06329 87.5895 6.976 88.1329 6.976V4.976ZM86.2401 5.40177C85.7374 5.71823 85.3409 6.2338 85.3409 6.936H87.3409C87.3409 6.95421 87.3384 6.98019 87.3298 7.01038C87.3212 7.04075 87.3087 7.06714 87.2958 7.08777C87.2702 7.12847 87.2569 7.12493 87.3057 7.09423L86.2401 5.40177ZM85.3409 6.936C85.3409 7.48331 85.57 8.00791 86.0742 8.34405L87.1836 6.67995C87.2212 6.70501 87.2717 6.75351 87.3073 6.82479C87.3409 6.89193 87.3409 6.9384 87.3409 6.936H85.3409ZM86.0742 8.34405C86.3931 8.55668 86.763 8.69557 87.1462 8.78808L87.6155 6.84392C87.3801 6.78709 87.2486 6.72332 87.1836 6.67995L86.0742 8.34405ZM87.1462 8.78808C87.4913 8.87138 87.8643 8.94093 88.2635 8.99795L88.5463 7.01805C88.1988 6.9684 87.8891 6.90995 87.6155 6.84392L87.1462 8.78808ZM88.2944 9.00188C88.6318 9.03937 88.9642 9.10023 89.2918 9.18449L89.7899 7.24751C89.3709 7.13977 88.9459 7.06196 88.5153 7.01412L88.2944 9.00188ZM89.2918 9.18449C89.5909 9.2614 89.8526 9.36513 90.0818 9.49158L91.048 7.74042C90.6585 7.52553 90.2375 7.3626 89.7899 7.24751L89.2918 9.18449ZM90.1177 9.51043C90.2782 9.59072 90.3976 9.69845 90.4917 9.84476L92.1741 8.76324C91.8841 8.31222 91.4915 7.96128 91.0121 7.72157L90.1177 9.51043ZM90.4917 9.84476C90.5495 9.93465 90.6209 10.1182 90.6209 10.472H92.6209C92.6209 9.86582 92.5003 9.27069 92.1741 8.76324L90.4917 9.84476ZM90.6209 10.472C90.6209 10.7883 90.5321 11.027 90.3641 11.2342L91.9176 12.4938C92.3896 11.9117 92.6209 11.2224 92.6209 10.472H90.6209ZM90.3538 11.2471C90.1783 11.4711 89.8979 11.686 89.4504 11.86L90.1753 13.724C90.8799 13.45 91.4848 13.0462 91.9279 12.4809L90.3538 11.2471ZM89.4656 11.8543C89.0287 12.0161 88.4643 12.112 87.7489 12.112V14.112C88.6334 14.112 89.4451 13.9946 90.1602 13.7297L89.4656 11.8543ZM94.8633 12.552L94.3788 13.4268L94.3867 13.4312L94.3947 13.4355L94.8633 12.552ZM93.2313 10.984L92.3725 11.4965L92.3725 11.4965L93.2313 10.984ZM93.2313 6.472L94.0863 6.99063L94.09 6.98446L93.2313 6.472ZM94.8633 4.92L94.3947 4.03652L94.3892 4.03953L94.8633 4.92ZM99.4553 4.872L98.9785 5.75103L98.9873 5.75582L98.9962 5.76043L99.4553 4.872ZM100.911 6.344L101.415 7.20778L102.23 6.73226L101.803 5.89095L100.911 6.344ZM99.3753 7.24L98.5298 7.77399L99.0453 8.5902L99.8791 8.10378L99.3753 7.24ZM98.4313 6.344L97.9633 7.22785L97.9739 7.23329L98.4313 6.344ZM95.9193 6.376L95.4437 5.49629L95.4437 5.49629L95.9193 6.376ZM94.9913 7.304L95.861 7.79764L95.8665 7.78769L94.9913 7.304ZM94.9913 10.168L94.116 10.6517L94.1216 10.6616L94.9913 10.168ZM95.9193 11.08L96.3948 10.2003L96.3948 10.2003L95.9193 11.08ZM98.4313 11.112L97.9739 10.2226L97.9634 10.2282L98.4313 11.112ZM99.3753 10.216L99.8791 9.35222L99.0453 8.8658L98.5298 9.68201L99.3753 10.216ZM100.911 11.112L101.8 11.571L102.236 10.7269L101.415 10.2482L100.911 11.112ZM99.4553 12.6L99.932 13.479L99.9372 13.4762L99.4553 12.6ZM97.2633 12.112C96.51 12.112 95.8743 11.9562 95.3318 11.6685L94.3947 13.4355C95.2602 13.8944 96.2245 14.112 97.2633 14.112V12.112ZM95.3477 11.6772C94.8043 11.3762 94.3914 10.9766 94.09 10.4715L92.3725 11.4965C92.8605 12.3141 93.5356 12.9598 94.3788 13.4268L95.3477 11.6772ZM94.09 10.4715C93.7964 9.97954 93.6393 9.40776 93.6393 8.728H91.6393C91.6393 9.73357 91.8768 10.6658 92.3725 11.4965L94.09 10.4715ZM93.6393 8.728C93.6393 8.03478 93.7976 7.46653 94.0863 6.99061L92.3762 5.95339C91.8756 6.7788 91.6393 7.71456 91.6393 8.728H93.6393ZM94.09 6.98446C94.3899 6.48192 94.7994 6.09016 95.3373 5.80047L94.3892 4.03953C93.5405 4.49651 92.862 5.13942 92.3725 5.95954L94.09 6.98446ZM95.3318 5.80346C95.8743 5.51576 96.51 5.36 97.2633 5.36V3.36C96.2245 3.36 95.2602 3.57758 94.3947 4.03654L95.3318 5.80346ZM97.2633 5.36C97.9559 5.36 98.5177 5.50109 98.9785 5.75103L99.932 3.99297C99.1342 3.56024 98.2346 3.36 97.2633 3.36V5.36ZM98.9962 5.76043C99.4474 5.99353 99.7827 6.3306 100.02 6.79705L101.803 5.89095C101.378 5.05606 100.743 4.41181 99.9143 3.98357L98.9962 5.76043ZM100.407 5.48022L98.8714 6.37622L99.8791 8.10378L101.415 7.20778L100.407 5.48022ZM100.221 6.70601C99.8832 6.17153 99.4422 5.73941 98.8886 5.45471L97.9739 7.23329C98.167 7.33259 98.3553 7.4978 98.5298 7.77399L100.221 6.70601ZM98.8991 5.46021C98.3865 5.18882 97.8303 5.056 97.2473 5.056V7.056C97.5175 7.056 97.7507 7.11518 97.9634 7.22779L98.8991 5.46021ZM97.2473 5.056C96.6065 5.056 95.9979 5.19677 95.4437 5.49629L96.3948 7.25571C96.63 7.12856 96.9067 7.056 97.2473 7.056V5.056ZM95.4437 5.49629C94.875 5.8037 94.4294 6.25314 94.116 6.82031L95.8665 7.78769C96.0011 7.54419 96.1741 7.37496 96.3948 7.25571L95.4437 5.49629ZM94.1216 6.81039C93.7951 7.38562 93.6553 8.03851 93.6553 8.728H95.6553C95.6553 8.30815 95.7394 8.01171 95.8609 7.79761L94.1216 6.81039ZM93.6553 8.728C93.6553 9.41848 93.7954 10.0716 94.116 10.6517L95.8665 9.68431C95.7391 9.45376 95.6553 9.14686 95.6553 8.728H93.6553ZM94.1216 10.6616C94.437 11.2174 94.8821 11.6561 95.4437 11.9597L96.3948 10.2003C96.1671 10.0772 95.9935 9.90793 95.8609 9.67439L94.1216 10.6616ZM95.4437 11.9597C95.9978 12.2592 96.6065 12.4 97.2473 12.4V10.4C96.9067 10.4 96.63 10.3274 96.3948 10.2003L95.4437 11.9597ZM97.2473 12.4C97.8303 12.4 98.3865 12.2672 98.8991 11.9958L97.9634 10.2282C97.7507 10.3408 97.5175 10.4 97.2473 10.4V12.4ZM98.8886 12.0013C99.4422 11.7166 99.8832 11.2845 100.221 10.75L98.5298 9.68201C98.3553 9.9582 98.167 10.1234 97.9739 10.2227L98.8886 12.0013ZM98.8714 11.0798L100.407 11.9758L101.415 10.2482L99.8791 9.35222L98.8714 11.0798ZM100.023 10.653C99.7846 11.1141 99.442 11.466 98.9733 11.7238L99.9372 13.4762C100.748 13.03 101.377 12.3899 101.8 11.571L100.023 10.653ZM98.9785 11.721C98.5177 11.9709 97.9559 12.112 97.2633 12.112V14.112C98.2346 14.112 99.1342 13.9118 99.932 13.479L98.9785 11.721ZM104.019 12.552L103.529 13.4236L103.539 13.4294L104.019 12.552ZM102.403 10.984L101.544 11.4965L101.544 11.4965L102.403 10.984ZM102.403 6.472L103.258 6.99063L103.262 6.98446L102.403 6.472ZM104.019 4.92L104.499 5.79737L104.499 5.79737L104.019 4.92ZM108.707 4.92L108.227 5.79739L108.233 5.80047L108.707 4.92ZM110.323 6.456L109.462 6.96429L109.468 6.97461L110.323 6.456ZM110.323 10.984L109.464 10.4715L109.458 10.4819L110.323 10.984ZM108.707 12.552L109.187 13.4294L109.192 13.4268L108.707 12.552ZM107.667 11.08L107.181 10.2058L107.181 10.2058L107.667 11.08ZM108.563 10.152L107.688 9.66831L107.683 9.67723L107.678 9.68625L108.563 10.152ZM108.563 7.304L107.678 7.76975L107.686 7.7838L107.693 7.79761L108.563 7.304ZM107.667 6.376L108.153 5.50184L108.153 5.50184L107.667 6.376ZM105.059 6.376L104.573 5.50178L104.563 5.50776L105.059 6.376ZM104.163 7.304L105.033 7.79764L105.038 7.78769L104.163 7.304ZM104.163 10.152L103.288 10.6357L103.288 10.6357L104.163 10.152ZM105.059 11.08L104.563 11.9483L104.573 11.9542L105.059 11.08ZM106.355 12.112C105.627 12.112 105.017 11.9579 104.499 11.6746L103.539 13.4294C104.387 13.8927 105.334 14.112 106.355 14.112V12.112ZM104.509 11.6804C103.976 11.3804 103.566 10.9804 103.262 10.4715L101.544 11.4965C102.03 12.3102 102.697 12.9556 103.529 13.4236L104.509 11.6804ZM103.262 10.4715C102.968 9.97954 102.811 9.40776 102.811 8.728H100.811C100.811 9.73357 101.049 10.6658 101.544 11.4965L103.262 10.4715ZM102.811 8.728C102.811 8.03478 102.969 7.46653 103.258 6.99061L101.548 5.95339C101.047 6.7788 100.811 7.71456 100.811 8.728H102.811ZM103.262 6.98446C103.564 6.47805 103.971 6.08599 104.499 5.79737L103.539 4.04263C102.702 4.50068 102.032 5.14328 101.544 5.95954L103.262 6.98446ZM104.499 5.79737C105.017 5.51407 105.627 5.36 106.355 5.36V3.36C105.334 3.36 104.387 3.57926 103.539 4.04263L104.499 5.79737ZM106.355 5.36C107.096 5.36 107.711 5.51503 108.227 5.79737L109.187 4.04263C108.338 3.57831 107.385 3.36 106.355 3.36V5.36ZM108.233 5.80047C108.773 6.09117 109.175 6.47744 109.462 6.96425L111.184 5.94775C110.704 5.13323 110.028 4.49549 109.181 4.03953L108.233 5.80047ZM109.468 6.97461C109.756 7.44861 109.915 8.02157 109.915 8.728H111.915C111.915 7.70643 111.68 6.76472 111.178 5.93739L109.468 6.97461ZM109.915 8.728C109.915 9.40776 109.758 9.97954 109.464 10.4715L111.182 11.4965C111.678 10.6658 111.915 9.73357 111.915 8.728H109.915ZM109.458 10.4819C109.168 10.981 108.764 11.3774 108.223 11.6772L109.192 13.4268C110.037 12.9586 110.71 12.3096 111.188 11.4861L109.458 10.4819ZM108.227 11.6746C107.711 11.957 107.096 12.112 106.355 12.112V14.112C107.385 14.112 108.338 13.8937 109.187 13.4294L108.227 11.6746ZM106.355 12.4C106.995 12.4 107.603 12.2593 108.153 11.9542L107.181 10.2058C106.963 10.3273 106.696 10.4 106.355 10.4V12.4ZM108.153 11.9542C108.714 11.6422 109.148 11.1874 109.448 10.6177L107.678 9.68625C107.551 9.92728 107.388 10.0911 107.181 10.2058L108.153 11.9542ZM109.438 10.6357C109.757 10.0583 109.899 9.41152 109.899 8.728H107.899C107.899 9.13248 107.817 9.43502 107.688 9.66831L109.438 10.6357ZM109.899 8.728C109.899 8.03851 109.759 7.38562 109.433 6.81039L107.693 7.79761C107.815 8.01171 107.899 8.30815 107.899 8.728H109.899ZM109.448 6.83825C109.148 6.26861 108.714 5.81377 108.153 5.50184L107.181 7.25016C107.388 7.3649 107.551 7.52872 107.678 7.76975L109.448 6.83825ZM108.153 5.50184C107.607 5.19847 107.005 5.056 106.371 5.056V7.056C106.697 7.056 106.96 7.12686 107.181 7.25016L108.153 5.50184ZM106.371 5.056C105.731 5.056 105.123 5.19666 104.573 5.50184L105.545 7.25016C105.763 7.12867 106.03 7.056 106.371 7.056V5.056ZM104.563 5.50776C104.018 5.8191 103.594 6.26729 103.288 6.82031L105.038 7.78769C105.181 7.53004 105.353 7.35957 105.555 7.24424L104.563 5.50776ZM103.293 6.81039C102.967 7.38562 102.827 8.03851 102.827 8.728H104.827C104.827 8.30815 104.911 8.01171 105.033 7.79761L103.293 6.81039ZM102.827 8.728C102.827 9.41152 102.969 10.0583 103.288 10.6357L105.038 9.66831C104.909 9.43502 104.827 9.13248 104.827 8.728H102.827ZM103.288 10.6357C103.594 11.1887 104.018 11.6369 104.563 11.9482L105.555 10.2118C105.353 10.0964 105.181 9.92596 105.038 9.66831L103.288 10.6357ZM104.573 11.9542C105.12 12.2575 105.721 12.4 106.355 12.4V10.4C106.029 10.4 105.767 10.3291 105.545 10.2058L104.573 11.9542ZM114.524 12.712L114.076 13.6064L114.083 13.6099L114.09 13.6133L114.524 12.712ZM113.228 11.464L112.35 11.944L112.354 11.9511L113.228 11.464ZM112.764 4.456V3.456H111.764V4.456H112.764ZM114.764 4.456H115.764V3.456H114.764V4.456ZM115.276 10.792L114.528 11.4564L114.538 11.4673L114.548 11.478L115.276 10.792ZM117.98 11.064L117.501 10.186L117.489 10.1924L117.98 11.064ZM118.796 10.2L117.911 9.73324L117.906 9.74296L117.901 9.75279L118.796 10.2ZM119.1 4.456V3.456H118.1V4.456H119.1ZM121.1 4.456H122.1V3.456H121.1V4.456ZM121.1 13V14H122.1V13H121.1ZM119.196 13H118.196V14H119.196V13ZM119.196 10.696L120.098 10.2653L118.196 10.696H119.196ZM119.532 11.4L120.419 11.8608L120.649 11.4188L120.434 10.9693L119.532 11.4ZM118.268 12.68L118.728 13.5675L118.735 13.564L118.742 13.5605L118.268 12.68ZM116.444 12.112C115.842 12.112 115.354 12.0018 114.957 11.8107L114.09 13.6133C114.802 13.9555 115.595 14.112 116.444 14.112V12.112ZM114.971 11.8176C114.6 11.6324 114.315 11.3606 114.101 10.9769L112.354 11.9511C112.759 12.6768 113.337 13.2369 114.076 13.6064L114.971 11.8176ZM114.105 10.984C113.898 10.6059 113.764 10.074 113.764 9.336H111.764C111.764 10.3046 111.939 11.1915 112.35 11.944L114.105 10.984ZM113.764 9.336V4.456H111.764V9.336H113.764ZM112.764 5.456H114.764V3.456H112.764V5.456ZM113.764 4.456V9.064H115.764V4.456H113.764ZM113.764 9.064C113.764 9.95903 113.96 10.8171 114.528 11.4564L116.023 10.1276C115.909 9.99892 115.764 9.70497 115.764 9.064H113.764ZM114.548 11.478C115.134 12.0991 115.921 12.352 116.764 12.352V10.352C116.326 10.352 116.122 10.2316 116.003 10.106L114.548 11.478ZM116.764 12.352C117.371 12.352 117.952 12.227 118.47 11.9356L117.489 10.1924C117.325 10.285 117.095 10.352 116.764 10.352V12.352ZM118.458 11.9419C119.003 11.6451 119.414 11.2002 119.69 10.6472L117.901 9.75279C117.794 9.96779 117.661 10.0989 117.501 10.1861L118.458 11.9419ZM119.68 10.6668C119.978 10.102 120.1 9.45647 120.1 8.776H118.1C118.1 9.2262 118.019 9.52998 117.911 9.73324L119.68 10.6668ZM120.1 8.776V4.456H118.1V8.776H120.1ZM119.1 5.456H121.1V3.456H119.1V5.456ZM120.1 4.456V13H122.1V4.456H120.1ZM121.1 12H119.196V14H121.1V12ZM120.196 13V10.696H118.196V13H120.196ZM118.293 11.1267L118.629 11.8307L120.434 10.9693L120.098 10.2653L118.293 11.1267ZM118.644 10.9392C118.449 11.3141 118.173 11.5953 117.794 11.7995L118.742 13.5605C119.472 13.1674 120.038 12.5952 120.419 11.8608L118.644 10.9392ZM117.807 11.7925C117.403 12.0023 116.954 12.112 116.444 12.112V14.112C117.256 14.112 118.023 13.9337 118.728 13.5675L117.807 11.7925ZM130.39 4.76L129.943 5.65445L129.95 5.65792L130.39 4.76ZM131.67 5.992L130.797 6.47909L130.801 6.4863L131.67 5.992ZM132.134 13V14H133.134V13H132.134ZM130.134 13H129.134V14H130.134V13ZM129.59 6.664L128.863 7.35001L128.868 7.35544L128.873 7.36079L129.59 6.664ZM126.854 6.392L127.322 7.27579L127.322 7.27579L126.854 6.392ZM126.006 7.256L125.122 6.78921L125.117 6.79865L126.006 7.256ZM125.718 13V14H126.718V13H125.718ZM123.718 13H122.718V14H123.718V13ZM123.718 4.456V3.456H122.718V4.456H123.718ZM125.622 4.456H126.622V3.456H125.622V4.456ZM125.622 6.76L124.72 7.19073L126.622 6.76H125.622ZM125.286 6.056L124.41 5.57474L124.163 6.0241L124.384 6.48673L125.286 6.056ZM126.582 4.808L127.036 5.69906L127.043 5.69575L126.582 4.808ZM128.566 5.36C129.116 5.36 129.567 5.46663 129.943 5.65443L130.837 3.86557C130.146 3.52004 129.382 3.36 128.566 3.36V5.36ZM129.95 5.65792C130.302 5.83046 130.582 6.09317 130.797 6.47907L132.544 5.50493C132.14 4.7815 131.566 4.22287 130.83 3.86208L129.95 5.65792ZM130.801 6.4863C130.998 6.83305 131.134 7.3504 131.134 8.104H133.134C133.134 7.1296 132.961 6.23895 132.54 5.4977L130.801 6.4863ZM131.134 8.104V13H133.134V8.104H131.134ZM132.134 12H130.134V14H132.134V12ZM131.134 13V8.36H129.134V13H131.134ZM131.134 8.36C131.134 7.46037 130.92 6.59742 130.308 5.96721L128.873 7.36079C128.986 7.47724 129.134 7.74497 129.134 8.36H131.134ZM130.318 5.97799C129.732 5.3569 128.945 5.104 128.102 5.104V7.104C128.54 7.104 128.744 7.22444 128.863 7.35001L130.318 5.97799ZM128.102 5.104C127.493 5.104 126.913 5.22955 126.386 5.50821L127.322 7.27579C127.521 7.17045 127.772 7.104 128.102 7.104V5.104ZM126.386 5.50821C125.836 5.79983 125.413 6.23844 125.122 6.78924L126.891 7.72276C127.005 7.50556 127.148 7.36817 127.322 7.27579L126.386 5.50821ZM125.117 6.79865C124.83 7.35612 124.718 8.00104 124.718 8.68H126.718C126.718 8.20696 126.798 7.90255 126.896 7.71335L125.117 6.79865ZM124.718 8.68V13H126.718V8.68H124.718ZM125.718 12H123.718V14H125.718V12ZM124.718 13V4.456H122.718V13H124.718ZM123.718 5.456H125.622V3.456H123.718V5.456ZM124.622 4.456V6.76H126.622V4.456H124.622ZM126.525 6.32927L126.189 5.62527L124.384 6.48673L124.72 7.19073L126.525 6.32927ZM126.163 6.53726C126.363 6.17331 126.645 5.89812 127.036 5.69904L126.128 3.91696C125.388 4.29388 124.807 4.85069 124.41 5.57474L126.163 6.53726ZM127.043 5.69575C127.456 5.48126 127.956 5.36 128.566 5.36V3.36C127.684 3.36 126.86 3.53741 126.122 3.92024L127.043 5.69575ZM135.711 12.392L135.019 13.114L135.027 13.1215L135.711 12.392ZM134.943 2.568V1.568H133.943V2.568H134.943ZM136.943 2.568H137.943V1.568H136.943V2.568ZM137.247 11.128L136.506 11.7989L136.514 11.8084L136.523 11.8177L137.247 11.128ZM139.247 11.112L140.178 10.746L139.686 9.49546L138.63 10.3257L139.247 11.112ZM139.807 12.536L140.441 13.31L141.005 12.8484L140.738 12.17L139.807 12.536ZM138.943 12.968L139.214 13.9307L138.943 12.968ZM133.535 6.12H132.535V7.12H133.535V6.12ZM133.535 4.52V3.52H132.535V4.52H133.535ZM139.231 4.52H140.231V3.52H139.231V4.52ZM139.231 6.12V7.12H140.231V6.12H139.231ZM137.887 12.112C137.115 12.112 136.667 11.9168 136.395 11.6625L135.027 13.1215C135.78 13.8272 136.782 14.112 137.887 14.112V12.112ZM136.403 11.67C136.148 11.4253 135.943 11.0046 135.943 10.232H133.943C133.943 11.358 134.251 12.3773 135.019 13.114L136.403 11.67ZM135.943 10.232V2.568H133.943V10.232H135.943ZM134.943 3.568H136.943V1.568H134.943V3.568ZM135.943 2.568V10.184H137.943V2.568H135.943ZM135.943 10.184C135.943 10.7512 136.087 11.3359 136.506 11.7989L137.989 10.4571C137.989 10.457 137.989 10.4567 137.988 10.456C137.988 10.4554 137.987 10.4539 137.985 10.4515C137.983 10.4468 137.977 10.4363 137.971 10.4175C137.959 10.3786 137.943 10.3052 137.943 10.184H135.943ZM136.523 11.8177C136.964 12.28 137.541 12.464 138.127 12.464V10.464C138.04 10.464 137.998 10.4509 137.984 10.4458C137.974 10.4421 137.974 10.4408 137.972 10.4383L136.523 11.8177ZM138.127 12.464C138.758 12.464 139.36 12.2952 139.865 11.8983L138.63 10.3257C138.537 10.3981 138.393 10.464 138.127 10.464V12.464ZM138.317 11.478L138.877 12.902L140.738 12.17L140.178 10.746L138.317 11.478ZM139.174 11.762C139.063 11.8534 138.904 11.9404 138.673 12.0053L139.214 13.9307C139.666 13.8036 140.083 13.6026 140.441 13.31L139.174 11.762ZM138.673 12.0053C138.421 12.076 138.161 12.112 137.887 12.112V14.112C138.339 14.112 138.783 14.052 139.214 13.9307L138.673 12.0053ZM134.535 6.12V4.52H132.535V6.12H134.535ZM133.535 5.52H139.231V3.52H133.535V5.52ZM138.231 4.52V6.12H140.231V4.52H138.231ZM139.231 5.12H133.535V7.12H139.231V5.12ZM148.899 12.728L149.263 11.7968L149.263 11.7968L148.899 12.728ZM146.979 11.528L146.286 12.2491L146.293 12.2562L146.979 11.528ZM145.715 9.704L144.794 10.0946L144.796 10.0996L145.715 9.704ZM145.715 5.112L146.633 5.50763L146.635 5.50255L145.715 5.112ZM146.979 3.288L147.664 4.01624L147.671 4.0091L146.979 3.288ZM148.899 2.072L149.263 3.00324L149.263 3.00324L148.899 2.072ZM153.699 2.072L153.329 3.00143L153.334 3.00324L153.699 2.072ZM155.619 3.288L154.926 4.00914L154.933 4.0162L155.619 3.288ZM156.883 5.112L155.962 5.50256L155.964 5.50762L156.883 5.112ZM156.883 9.704L155.962 9.31345L155.962 9.31345L156.883 9.704ZM155.619 11.528L154.933 10.7998L154.933 10.7998L155.619 11.528ZM153.699 12.728L153.334 11.7967L153.329 11.7986L153.699 12.728ZM152.867 11.048L153.238 11.9765L153.238 11.9765L152.867 11.048ZM154.115 10.232L154.822 10.9391L154.827 10.9338L154.832 10.9285L154.115 10.232ZM154.931 8.984L154.009 8.595L154.005 8.60537L154.931 8.984ZM154.931 5.832L154.002 6.20339L154.007 6.21598L154.012 6.22844L154.931 5.832ZM154.115 4.584L153.397 5.28048L153.402 5.28583L153.407 5.29111L154.115 4.584ZM152.867 3.752L153.238 2.82352L153.238 2.82352L152.867 3.752ZM149.731 3.752L149.359 2.82349L149.352 2.82645L149.731 3.752ZM148.483 4.584L147.775 3.87689L147.775 3.87689L148.483 4.584ZM147.651 5.832L146.729 5.443L146.725 5.45337L147.651 5.832ZM147.651 8.968L146.722 9.33939L146.726 9.34822L146.729 9.35697L147.651 8.968ZM148.483 10.232L147.765 10.9285L147.77 10.9338L147.775 10.9391L148.483 10.232ZM149.731 11.048L150.102 10.1195L150.102 10.1195L149.731 11.048ZM151.315 12.16C150.551 12.16 149.871 12.0347 149.263 11.7968L148.534 13.6592C149.398 13.9973 150.328 14.16 151.315 14.16V12.16ZM149.263 11.7968C148.639 11.5526 148.11 11.2192 147.664 10.7998L146.293 12.2562C146.935 12.8608 147.686 13.3274 148.534 13.6592L149.263 11.7968ZM147.671 10.8069C147.224 10.3767 146.879 9.87935 146.633 9.30838L144.796 10.0996C145.147 10.9153 145.645 11.634 146.286 12.2491L147.671 10.8069ZM146.635 9.31345C146.393 8.74349 146.267 8.10971 146.267 7.4H144.267C144.267 8.35429 144.438 9.25651 144.794 10.0945L146.635 9.31345ZM146.267 7.4C146.267 6.69009 146.393 6.06379 146.633 5.50762L144.796 4.71638C144.438 5.54688 144.267 6.44591 144.267 7.4H146.267ZM146.635 5.50255C146.881 4.92309 147.223 4.43089 147.664 4.0162L146.293 2.5598C145.646 3.16911 145.145 3.89291 144.794 4.72145L146.635 5.50255ZM147.671 4.0091C148.116 3.58166 148.643 3.24574 149.263 3.00324L148.534 1.14076C147.682 1.47426 146.929 1.94901 146.286 2.56689L147.671 4.0091ZM149.263 3.00324C149.872 2.76474 150.548 2.64 151.299 2.64V0.639999C150.321 0.639999 149.397 0.803258 148.534 1.14076L149.263 3.00324ZM151.299 2.64C152.062 2.64 152.735 2.76535 153.329 3.00142L154.068 1.14258C153.211 0.802649 152.284 0.639999 151.299 0.639999V2.64ZM153.334 3.00324C153.954 3.24574 154.481 3.58166 154.926 4.0091L156.311 2.56689C155.668 1.94901 154.915 1.47426 154.063 1.14076L153.334 3.00324ZM154.933 4.0162C155.374 4.43089 155.716 4.92309 155.962 5.50255L157.803 4.72145C157.452 3.89291 156.951 3.16911 156.304 2.5598L154.933 4.0162ZM155.964 5.50762C156.204 6.06379 156.331 6.69009 156.331 7.4H158.331C158.331 6.44591 158.159 5.54688 157.801 4.71638L155.964 5.50762ZM156.331 7.4C156.331 8.10971 156.204 8.74349 155.962 9.31345L157.803 10.0945C158.159 9.25651 158.331 8.35429 158.331 7.4H156.331ZM155.962 9.31345C155.716 9.89291 155.374 10.3851 154.933 10.7998L156.304 12.2562C156.951 11.6469 157.452 10.9231 157.803 10.0945L155.962 9.31345ZM154.933 10.7998C154.487 11.2192 153.958 11.5526 153.334 11.7968L154.063 13.6592C154.911 13.3274 155.662 12.8608 156.304 12.2562L154.933 10.7998ZM153.329 11.7986C152.734 12.0352 152.066 12.16 151.315 12.16V14.16C152.291 14.16 153.213 13.9968 154.068 13.6574L153.329 11.7986ZM151.299 12.336C151.979 12.336 152.629 12.22 153.238 11.9765L152.495 10.1195C152.144 10.26 151.749 10.336 151.299 10.336V12.336ZM153.238 11.9765C153.839 11.7362 154.37 11.3906 154.822 10.9391L153.407 9.52489C153.155 9.77744 152.854 9.97584 152.495 10.1195L153.238 11.9765ZM154.832 10.9285C155.273 10.4738 155.616 9.94982 155.856 9.36263L154.005 8.60537C153.861 8.95684 153.66 9.26486 153.397 9.53552L154.832 10.9285ZM155.852 9.37297C156.112 8.75748 156.235 8.09547 156.235 7.4H154.235C154.235 7.85653 154.155 8.25052 154.009 8.59503L155.852 9.37297ZM156.235 7.4C156.235 6.70491 156.112 6.04501 155.849 5.43556L154.012 6.22844C154.155 6.55766 154.235 6.94308 154.235 7.4H156.235ZM155.859 5.46061C155.619 4.85982 155.273 4.32835 154.822 3.87689L153.407 5.29111C153.66 5.54365 153.858 5.84418 154.002 6.20339L155.859 5.46061ZM154.832 3.88752C154.38 3.42172 153.845 3.06646 153.238 2.82352L152.495 4.68048C152.848 4.82154 153.145 5.02094 153.397 5.28048L154.832 3.88752ZM153.238 2.82352C152.629 2.58003 151.979 2.464 151.299 2.464V4.464C151.749 4.464 152.144 4.53997 152.495 4.68048L153.238 2.82352ZM151.299 2.464C150.618 2.464 149.968 2.58003 149.359 2.82352L150.102 4.68048C150.453 4.53997 150.848 4.464 151.299 4.464V2.464ZM149.352 2.82645C148.758 3.06932 148.231 3.42143 147.775 3.87689L149.19 5.29111C149.459 5.02124 149.764 4.81868 150.109 4.67755L149.352 2.82645ZM147.775 3.87689C147.328 4.32436 146.98 4.8498 146.729 5.44303L148.572 6.22097C148.727 5.8542 148.933 5.54764 149.19 5.29111L147.775 3.87689ZM146.725 5.45337C146.478 6.05811 146.363 6.71169 146.363 7.4H148.363C148.363 6.93631 148.439 6.54455 148.576 6.21063L146.725 5.45337ZM146.363 7.4C146.363 8.08061 146.479 8.73066 146.722 9.33939L148.579 8.59661C148.438 8.24533 148.363 7.85006 148.363 7.4H146.363ZM146.729 9.35697C146.979 9.94762 147.324 10.4741 147.765 10.9285L149.2 9.53552C148.937 9.2646 148.728 8.94838 148.572 8.57903L146.729 9.35697ZM147.775 10.9391C148.227 11.3906 148.758 11.7362 149.359 11.9765L150.102 10.1195C149.743 9.97584 149.442 9.77743 149.19 9.52489L147.775 10.9391ZM149.359 11.9765C149.968 12.22 150.618 12.336 151.299 12.336V10.336C150.848 10.336 150.453 10.26 150.102 10.1195L149.359 11.9765ZM159.615 13H158.615V14H159.615V13ZM160.399 1.832L159.685 1.13193L159.685 1.13207L160.399 1.832ZM163.663 1.128L163.429 2.10011L163.436 2.10184L163.663 1.128ZM164.463 1.48L165.404 1.82014L165.655 1.1241L165.063 0.68L164.463 1.48ZM163.919 2.984L163.301 3.77032L164.389 4.62493L164.86 3.32414L163.919 2.984ZM163.407 2.728L163.091 3.67668L163.115 3.68472L163.14 3.69152L163.407 2.728ZM161.871 2.984L162.595 3.67365L162.603 3.66526L162.611 3.65667L161.871 2.984ZM161.551 4.968H160.551V5.00367L160.554 5.03925L161.551 4.968ZM161.615 5.864H162.615V5.82833L162.613 5.79275L161.615 5.864ZM161.615 13V14H162.615V13H161.615ZM158.207 6.12H157.207V7.12H158.207V6.12ZM158.207 4.52V3.52H157.207V4.52H158.207ZM163.903 4.52H164.903V3.52H163.903V4.52ZM163.903 6.12V7.12H164.903V6.12H163.903ZM160.615 13V3.976H158.615V13H160.615ZM160.615 3.976C160.615 3.2859 160.81 2.84194 161.113 2.53193L159.685 1.13207C158.944 1.88873 158.615 2.8741 158.615 3.976H160.615ZM161.113 2.53207C161.408 2.23102 161.877 2.016 162.671 2.016V0.0159998C161.502 0.0159998 160.457 0.344982 159.685 1.13193L161.113 2.53207ZM162.671 2.016C162.952 2.016 163.204 2.0458 163.429 2.10008L163.898 0.155917C163.504 0.0608624 163.094 0.0159998 162.671 0.0159998V2.016ZM163.436 2.10184C163.652 2.15214 163.783 2.22009 163.863 2.28L165.063 0.68C164.716 0.41991 164.315 0.253197 163.89 0.154158L163.436 2.10184ZM163.523 1.13986L162.979 2.64386L164.86 3.32414L165.404 1.82014L163.523 1.13986ZM164.537 2.19768C164.279 1.99474 163.988 1.8514 163.675 1.76448L163.14 3.69152C163.211 3.71127 163.261 3.73859 163.301 3.77032L164.537 2.19768ZM163.723 1.77932C163.429 1.68128 163.125 1.632 162.815 1.632V3.632C162.911 3.632 163.001 3.64672 163.091 3.67668L163.723 1.77932ZM162.815 1.632C162.21 1.632 161.589 1.80828 161.131 2.31133L162.611 3.65667C162.604 3.66427 162.6 3.66332 162.617 3.65698C162.639 3.64861 162.699 3.632 162.815 3.632V1.632ZM161.147 2.29434C160.687 2.7771 160.551 3.41472 160.551 4.008H162.551C162.551 3.68394 162.628 3.6389 162.595 3.67365L161.147 2.29434ZM160.551 4.008V4.968H162.551V4.008H160.551ZM160.554 5.03925L160.618 5.93525L162.613 5.79275L162.549 4.89675L160.554 5.03925ZM160.615 5.864V13H162.615V5.864H160.615ZM161.615 12H159.615V14H161.615V12ZM159.207 6.12V4.52H157.207V6.12H159.207ZM158.207 5.52H163.903V3.52H158.207V5.52ZM162.903 4.52V6.12H164.903V4.52H162.903ZM163.903 5.12H158.207V7.12H163.903V5.12ZM165.568 13H164.568V14H165.568V13ZM166.352 1.832L165.638 1.13193L165.638 1.13207L166.352 1.832ZM169.616 1.128L169.382 2.10011L169.389 2.10184L169.616 1.128ZM170.416 1.48L171.357 1.82014L171.609 1.1241L171.016 0.68L170.416 1.48ZM169.872 2.984L169.255 3.77032L170.342 4.62493L170.813 3.32414L169.872 2.984ZM169.36 2.728L169.044 3.67668L169.068 3.68472L169.093 3.69152L169.36 2.728ZM167.824 2.984L168.549 3.67365L168.557 3.66526L168.564 3.65667L167.824 2.984ZM167.504 4.968H166.504V5.00367L166.507 5.03925L167.504 4.968ZM167.568 5.864H168.568V5.82833L168.566 5.79275L167.568 5.864ZM167.568 13V14H168.568V13H167.568ZM164.16 6.12H163.16V7.12H164.16V6.12ZM164.16 4.52V3.52H163.16V4.52H164.16ZM169.856 4.52H170.856V3.52H169.856V4.52ZM169.856 6.12V7.12H170.856V6.12H169.856ZM166.568 13V3.976H164.568V13H166.568ZM166.568 3.976C166.568 3.2859 166.763 2.84194 167.067 2.53193L165.638 1.13207C164.897 1.88873 164.568 2.8741 164.568 3.976H166.568ZM167.066 2.53207C167.362 2.23102 167.831 2.016 168.624 2.016V0.0159998C167.456 0.0159998 166.41 0.344982 165.638 1.13193L167.066 2.53207ZM168.624 2.016C168.906 2.016 169.157 2.0458 169.382 2.10008L169.851 0.155917C169.457 0.0608624 169.047 0.0159998 168.624 0.0159998V2.016ZM169.389 2.10184C169.605 2.15214 169.736 2.22009 169.816 2.28L171.016 0.68C170.67 0.41991 170.268 0.253197 169.844 0.154158L169.389 2.10184ZM169.476 1.13986L168.932 2.64386L170.813 3.32414L171.357 1.82014L169.476 1.13986ZM170.49 2.19768C170.232 1.99474 169.941 1.8514 169.628 1.76448L169.093 3.69152C169.164 3.71127 169.214 3.73859 169.255 3.77032L170.49 2.19768ZM169.677 1.77932C169.382 1.68128 169.078 1.632 168.768 1.632V3.632C168.864 3.632 168.954 3.64672 169.044 3.67668L169.677 1.77932ZM168.768 1.632C168.163 1.632 167.542 1.80828 167.084 2.31133L168.564 3.65667C168.557 3.66427 168.553 3.66332 168.57 3.65698C168.592 3.64861 168.652 3.632 168.768 3.632V1.632ZM167.1 2.29434C166.64 2.7771 166.504 3.41472 166.504 4.008H168.504C168.504 3.68394 168.582 3.6389 168.549 3.67365L167.1 2.29434ZM166.504 4.008V4.968H168.504V4.008H166.504ZM166.507 5.03925L166.571 5.93525L168.566 5.79275L168.502 4.89675L166.507 5.03925ZM166.568 5.864V13H168.568V5.864H166.568ZM167.568 12H165.568V14H167.568V12ZM165.16 6.12V4.52H163.16V6.12H165.16ZM164.16 5.52H169.856V3.52H164.16V5.52ZM168.856 4.52V6.12H170.856V4.52H168.856ZM169.856 5.12H164.16V7.12H169.856V5.12ZM172.598 12.552L172.119 13.4299L172.127 13.4342L172.135 13.4383L172.598 12.552ZM170.95 10.984L170.085 11.4862L170.091 11.4965L170.95 10.984ZM170.934 6.472L170.069 5.96986L170.066 5.97433L170.934 6.472ZM172.502 4.92L172.016 4.04582L172.01 4.04918L172.502 4.92ZM177.014 4.904L177.5 4.03052L177.5 4.03052L177.014 4.904ZM179.094 9.064L178.099 8.96449L178.094 9.01412V9.064H179.094ZM179.078 9.368V10.368H179.973L180.072 9.47843L179.078 9.368ZM171.958 9.368H170.958V10.368H171.958V9.368ZM171.958 8.04V7.04H170.958V8.04H171.958ZM178.022 8.04L178.49 8.92335L178.022 7.04V8.04ZM177.238 8.456L176.238 8.43427L176.201 10.1382L177.706 9.33935L177.238 8.456ZM176.934 7.16L176.065 7.65614L176.065 7.65614L176.934 7.16ZM176.054 6.28L175.547 7.142L175.557 7.14824L176.054 6.28ZM173.494 6.28L172.997 5.41169L172.987 5.41807L173.494 6.28ZM172.63 7.176L171.755 6.69033L171.751 6.69891L172.63 7.176ZM173.67 11.096L173.222 11.9904L173.222 11.9904L173.67 11.096ZM176.438 11.192L176.8 12.124L176.8 12.124L176.438 11.192ZM177.462 10.488L178.216 9.83158L177.488 8.99451L176.731 9.80568L177.462 10.488ZM178.534 11.72L179.293 12.3708L179.855 11.7151L179.288 11.0636L178.534 11.72ZM177.078 12.76L177.455 13.6861L177.463 13.6826L177.078 12.76ZM175.094 12.112C174.277 12.112 173.609 11.9521 173.061 11.6657L172.135 13.4383C173.016 13.8985 174.012 14.112 175.094 14.112V12.112ZM173.076 11.6741C172.523 11.3721 172.107 10.9728 171.808 10.4715L170.091 11.4965C170.581 12.3179 171.265 12.9639 172.119 13.4299L173.076 11.6741ZM171.814 10.4819C171.528 9.98827 171.374 9.41276 171.374 8.728H169.374C169.374 9.72858 169.603 10.6571 170.085 11.4861L171.814 10.4819ZM171.374 8.728C171.374 8.02487 171.526 7.44901 171.801 6.96967L170.066 5.97433C169.595 6.79632 169.374 7.72446 169.374 8.728H171.374ZM171.798 6.97414C172.094 6.46559 172.488 6.07602 172.993 5.79082L172.01 4.04918C171.193 4.51064 170.542 5.15574 170.069 5.96986L171.798 6.97414ZM172.987 5.79416C173.495 5.51216 174.087 5.36 174.79 5.36V3.36C173.785 3.36 172.852 3.58117 172.016 4.04584L172.987 5.79416ZM174.79 5.36C175.472 5.36 176.042 5.50714 176.527 5.77748L177.5 4.03052C176.684 3.57552 175.772 3.36 174.79 3.36V5.36ZM176.527 5.77748C177.013 6.04877 177.394 6.42716 177.679 6.93159L179.42 5.9484C178.959 5.13017 178.315 4.48456 177.5 4.03052L176.527 5.77748ZM177.679 6.93159C177.953 7.41798 178.11 8.02115 178.11 8.776H180.11C180.11 7.73885 179.893 6.78469 179.42 5.9484L177.679 6.93159ZM178.11 8.776C178.11 8.82097 178.107 8.88294 178.099 8.96449L180.089 9.16351C180.102 9.03173 180.11 8.9017 180.11 8.776H178.11ZM178.094 9.064C178.094 9.13753 178.09 9.20179 178.084 9.25757L180.072 9.47843C180.087 9.34221 180.094 9.2038 180.094 9.064H178.094ZM179.078 8.368H171.958V10.368H179.078V8.368ZM172.958 9.368V8.04H170.958V9.368H172.958ZM171.958 9.04H178.022V7.04H171.958V9.04ZM177.553 7.15665L176.769 7.57265L177.706 9.33935L178.49 8.92335L177.553 7.15665ZM178.237 8.47773C178.251 7.83186 178.117 7.21595 177.802 6.66386L176.065 7.65614C176.177 7.85071 176.245 8.0988 176.238 8.43427L178.237 8.47773ZM177.802 6.66386C177.5 6.1355 177.078 5.71368 176.55 5.41176L175.557 7.14824C175.776 7.27299 175.941 7.43784 176.065 7.65614L177.802 6.66386ZM176.561 5.41807C176.024 5.1022 175.422 4.96 174.79 4.96V6.96C175.117 6.96 175.358 7.03113 175.547 7.14193L176.561 5.41807ZM174.79 4.96C174.15 4.96 173.542 5.1005 172.997 5.41176L173.99 7.14824C174.192 7.03283 174.448 6.96 174.79 6.96V4.96ZM172.987 5.41807C172.463 5.72591 172.051 6.15759 171.755 6.69036L173.504 7.66164C173.634 7.42641 173.799 7.26076 174.001 7.14193L172.987 5.41807ZM171.751 6.69891C171.454 7.24593 171.326 7.85938 171.326 8.504H173.326C173.326 8.12462 173.4 7.85273 173.508 7.65309L171.751 6.69891ZM171.326 8.504V8.824H173.326V8.504H171.326ZM171.326 8.824C171.326 9.49465 171.481 10.1285 171.818 10.6951L173.537 9.67292C173.405 9.45017 173.326 9.17735 173.326 8.824H171.326ZM171.818 10.6951C172.155 11.261 172.631 11.6949 173.222 11.9904L174.117 10.2016C173.854 10.0704 173.67 9.89633 173.537 9.67292L171.818 10.6951ZM173.222 11.9904C173.809 12.2837 174.457 12.416 175.142 12.416V10.416C174.717 10.416 174.384 10.335 174.117 10.2016L173.222 11.9904ZM175.142 12.416C175.725 12.416 176.283 12.325 176.8 12.124L176.075 10.26C175.824 10.3576 175.518 10.416 175.142 10.416V12.416ZM176.8 12.124C177.333 11.9168 177.798 11.5932 178.193 11.1703L176.731 9.80568C176.528 10.0228 176.31 10.1685 176.075 10.26L176.8 12.124ZM176.707 11.1444L177.779 12.3764L179.288 11.0636L178.216 9.83158L176.707 11.1444ZM177.774 11.0692C177.5 11.3896 177.146 11.6475 176.692 11.8374L177.463 13.6826C178.183 13.3818 178.8 12.9464 179.293 12.3708L177.774 11.0692ZM176.7 11.8339C176.266 12.011 175.736 12.112 175.094 12.112V14.112C175.944 14.112 176.738 13.9783 177.455 13.6861L176.7 11.8339ZM181.031 13H180.031V14H181.031V13ZM181.031 4.456V3.456H180.031V4.456H181.031ZM182.935 4.456H183.935V3.456H182.935V4.456ZM182.935 6.808L181.984 7.11759L183.935 6.808H182.935ZM182.711 6.12L181.797 5.71386L181.641 6.06461L181.76 6.42959L182.711 6.12ZM183.911 4.808L183.437 3.9275L183.429 3.93142L183.911 4.808ZM185.975 4.36H186.975V3.36H185.975V4.36ZM185.975 6.264L185.732 7.23414L186.975 7.54477V6.264H185.975ZM185.735 6.232L185.593 7.22195L185.664 7.232H185.735V6.232ZM183.703 6.888L184.401 7.60363L184.41 7.59511L183.703 6.888ZM183.031 13V14H184.031V13H183.031ZM182.031 13V4.456H180.031V13H182.031ZM181.031 5.456H182.935V3.456H181.031V5.456ZM181.935 4.456V6.808H183.935V4.456H181.935ZM183.886 6.49841L183.662 5.81041L181.76 6.42959L181.984 7.11759L183.886 6.49841ZM183.625 6.52614C183.793 6.14666 184.043 5.8762 184.392 5.68458L183.429 3.93142C182.691 4.33714 182.14 4.94134 181.797 5.71386L183.625 6.52614ZM184.385 5.68847C184.756 5.4885 185.27 5.36 185.975 5.36V3.36C185.037 3.36 184.175 3.53017 183.437 3.92753L184.385 5.68847ZM184.975 4.36V6.264H186.975V4.36H184.975ZM186.217 5.29386C186.066 5.25611 185.904 5.232 185.735 5.232V7.232C185.715 7.232 185.713 7.22923 185.732 7.23414L186.217 5.29386ZM185.876 5.24205C185.755 5.22476 185.633 5.216 185.511 5.216V7.216C185.538 7.216 185.565 7.21791 185.593 7.22195L185.876 5.24205ZM185.511 5.216C184.544 5.216 183.667 5.50944 182.996 6.18089L184.41 7.59511C184.634 7.37056 184.963 7.216 185.511 7.216V5.216ZM183.004 6.17243C182.297 6.86248 182.031 7.821 182.031 8.856H184.031C184.031 8.14167 184.212 7.78819 184.401 7.60357L183.004 6.17243ZM182.031 8.856V13H184.031V8.856H182.031ZM183.031 12H181.031V14H183.031V12Z" fill="black" mask="url(#path-1-outside-1_182_1839)"/>
</g>
<defs>
<filter id="filter0_d_182_1839" x="0.503998" y="0.64801" width="189.471" height="20.512" filterUnits="userSpaceOnUse" color-interpolation-filters="sRGB">
<feFlood flood-opacity="0" result="BackgroundImageFix"/>
<feColorMatrix in="SourceAlpha" type="matrix" values="0 0 0 0 0 0 0 0 0 0 0 0 0 0 0 0 0 0 127 0" result="hardAlpha"/>
<feOffset dy="4"/>
<feGaussianBlur stdDeviation="2"/>
<feComposite in2="hardAlpha" operator="out"/>
<feColorMatrix type="matrix" values="0 0 0 0 0 0 0 0 0 0 0 0 0 0 0 0 0 0 0.25 0"/>
<feBlend mode="normal" in2="BackgroundImageFix" result="effect1_dropShadow_182_1839"/>
<feBlend mode="normal" in="SourceGraphic" in2="effect1_dropShadow_182_1839" result="shape"/>
</filter>
</defs>
</svg>
