<svg width="186" height="145" viewBox="0 0 186 145" fill="none" xmlns="http://www.w3.org/2000/svg">
<mask id="mask0_957_2245" style="mask-type:luminance" maskUnits="userSpaceOnUse" x="20" y="29" width="162" height="111">
<path d="M181.046 86.4051C180.651 95.9524 180.283 105.093 180.257 115.06C180.245 121.022 180.079 126.976 179.762 132.921C179.762 133.033 179.722 133.142 179.647 133.226C175.986 138.044 170.634 138.947 165.116 139.239C143.835 140.371 121.893 138.629 100.333 138.273C87.124 138.057 73.9536 137.205 60.7578 137.091C53.8802 137.04 47.0196 136.654 40.176 135.934C35.2561 135.425 27.5776 134.408 23.9164 130.277C21.2467 127.264 20.7128 124.569 20.8653 120.297C21.2086 111.22 21.7043 102.423 21.679 93.0158C21.6273 78.8493 22.6729 64.7001 24.8063 50.6951C25.8742 43.6014 29.7007 40.5122 36.68 39.7621C45.2255 38.8595 53.819 38.4901 62.4105 38.6561C62.5151 38.657 62.6179 38.6289 62.7076 38.5751C62.7974 38.5213 62.8705 38.4437 62.919 38.3511C64.2314 35.7006 65.8438 33.2095 67.7244 30.9268C68.0351 30.5206 68.4382 30.1945 68.9004 29.9756C69.3625 29.7567 69.8703 29.6513 70.3814 29.6682C81.3778 29.7827 91.9295 29.3122 102.316 30.2149C103.968 30.3547 105.837 30.787 107.909 31.4861C108.037 31.5353 108.141 31.6306 108.202 31.7531L112.117 38.9485C112.16 39.0364 112.227 39.1104 112.311 39.1621C112.394 39.2138 112.49 39.2411 112.588 39.2409C119.758 39.4443 127.055 38.9231 134.174 39.368C135.865 39.4698 137.543 39.546 139.221 39.5969C139.367 39.6019 139.51 39.5484 139.617 39.4483C139.725 39.3482 139.788 39.2096 139.793 39.063V39.0502C139.793 37.2323 139.844 36.1009 139.971 35.6305C140.416 33.7871 141.623 32.8719 143.568 32.91C147.433 32.9609 151.31 33.1897 155.175 33.571C157.629 33.7999 160.425 33.6981 160.769 36.9653C160.896 38.1952 160.844 39.4369 160.616 40.652C160.602 40.723 160.601 40.7962 160.615 40.8673C160.629 40.9385 160.657 41.0062 160.697 41.0665C160.737 41.1268 160.789 41.1785 160.849 41.2186C160.91 41.2588 160.977 41.2866 161.048 41.3004H161.099C163.235 41.5038 165.371 41.7326 167.506 41.9741C171.969 42.4954 175.592 44.2243 177.486 48.5721C179.084 52.2222 179.997 56.1349 180.181 60.1152C180.601 69.2175 181.389 78.2817 181.046 86.4051Z" fill="white"/>
</mask>
<g mask="url(#mask0_957_2245)">
<path d="M150.578 7.73175L237.989 95.1427" stroke="black" stroke-width="2.10556" stroke-miterlimit="10"/>
<path d="M145.662 11.1237L233.073 98.5347" stroke="black" stroke-width="2.10556" stroke-miterlimit="10"/>
<path d="M140.747 14.5154L228.158 101.926" stroke="black" stroke-width="2.10556" stroke-miterlimit="10"/>
<path d="M135.831 17.9065L223.242 105.318" stroke="black" stroke-width="2.10556" stroke-miterlimit="10"/>
<path d="M130.917 21.299L218.328 108.71" stroke="black" stroke-width="2.10556" stroke-miterlimit="10"/>
<path d="M126 24.6907L213.411 112.102" stroke="black" stroke-width="2.10556" stroke-miterlimit="10"/>
<path d="M121.085 28.0817L208.496 115.493" stroke="black" stroke-width="2.10556" stroke-miterlimit="10"/>
<path d="M116.17 31.4738L203.581 118.885" stroke="black" stroke-width="2.10556" stroke-miterlimit="10"/>
<path d="M111.253 34.8647L198.664 122.276" stroke="black" stroke-width="2.10556" stroke-miterlimit="10"/>
<path d="M106.337 38.2568L193.748 125.668" stroke="black" stroke-width="2.10556" stroke-miterlimit="10"/>
<path d="M101.422 41.6486L188.833 129.06" stroke="black" stroke-width="2.10556" stroke-miterlimit="10"/>
<path d="M96.5072 45.0402L183.918 132.451" stroke="black" stroke-width="2.10556" stroke-miterlimit="10"/>
<path d="M91.5909 48.4316L179.002 135.843" stroke="black" stroke-width="2.10556" stroke-miterlimit="10"/>
<path d="M86.6747 51.8237L174.086 139.235" stroke="black" stroke-width="2.10556" stroke-miterlimit="10"/>
<path d="M81.7601 55.2151L169.171 142.626" stroke="black" stroke-width="2.10556" stroke-miterlimit="10"/>
<path d="M76.8453 58.6068L164.256 146.018" stroke="black" stroke-width="2.10556" stroke-miterlimit="10"/>
<path d="M71.929 61.9987L159.34 149.41" stroke="black" stroke-width="2.10556" stroke-miterlimit="10"/>
<path d="M67.0128 65.3904L154.424 152.801" stroke="black" stroke-width="2.10556" stroke-miterlimit="10"/>
<path d="M62.0981 68.782L149.509 156.193" stroke="black" stroke-width="2.10556" stroke-miterlimit="10"/>
<path d="M57.1832 72.1735L144.594 159.584" stroke="black" stroke-width="2.10556" stroke-miterlimit="10"/>
<path d="M52.2659 75.5652L139.677 162.976" stroke="black" stroke-width="2.10556" stroke-miterlimit="10"/>
<path d="M47.3516 78.9573L134.763 166.368" stroke="black" stroke-width="2.10556" stroke-miterlimit="10"/>
<path d="M42.4364 82.3488L129.847 169.76" stroke="black" stroke-width="2.10556" stroke-miterlimit="10"/>
<path d="M37.5209 85.7407L124.932 173.152" stroke="black" stroke-width="2.10556" stroke-miterlimit="10"/>
<path d="M32.605 89.1321L120.016 176.543" stroke="black" stroke-width="2.10556" stroke-miterlimit="10"/>
<path d="M27.6898 92.5238L115.101 179.935" stroke="black" stroke-width="2.10556" stroke-miterlimit="10"/>
<path d="M22.7744 95.9156L110.185 183.327" stroke="black" stroke-width="2.10556" stroke-miterlimit="10"/>
<path d="M17.8585 99.3074L105.269 186.718" stroke="black" stroke-width="2.10556" stroke-miterlimit="10"/>
<path d="M12.9426 102.699L100.354 190.11" stroke="black" stroke-width="2.10556" stroke-miterlimit="10"/>
<path d="M8.0285 106.091L95.4395 193.502" stroke="black" stroke-width="2.10556" stroke-miterlimit="10"/>
<path d="M3.11139 109.482L90.5223 196.893" stroke="black" stroke-width="2.10556" stroke-miterlimit="10"/>
<path d="M-1.80435 112.874L85.6066 200.285" stroke="black" stroke-width="2.10556" stroke-miterlimit="10"/>
</g>
<path d="M181.044 86.4491C180.641 96.2305 180.263 105.595 180.237 115.806C180.224 121.915 180.055 128.015 179.729 134.106C179.73 134.221 179.688 134.332 179.612 134.419C175.861 139.355 170.377 140.28 164.725 140.579C142.921 141.738 120.441 139.954 98.3514 139.589C84.8189 139.368 71.3255 138.495 57.8059 138.378C50.7596 138.326 43.7307 137.931 36.7192 137.193C31.6787 136.672 23.8118 135.63 20.0608 131.397C17.3256 128.31 16.7785 125.549 16.9348 121.173C17.2865 111.873 17.7944 102.86 17.7684 93.2219C17.7155 78.7078 18.7867 64.2115 20.9724 49.8629C22.0665 42.5953 25.9869 39.4302 33.1374 38.6618C41.8926 37.737 50.6969 37.3586 59.4991 37.5287C59.6063 37.5295 59.7117 37.5008 59.8036 37.4456C59.8955 37.3905 59.9704 37.3111 60.0201 37.2161C61.3647 34.5006 63.0166 31.9484 64.9434 29.6097C65.2617 29.1936 65.6747 28.8594 66.1482 28.6352C66.6217 28.4109 67.1419 28.3029 67.6656 28.3203C78.9318 28.4375 89.7422 27.9556 100.383 28.8803C102.076 29.0236 103.991 29.4665 106.114 30.1828C106.245 30.2332 106.352 30.3308 106.414 30.4563L110.425 37.8282C110.469 37.9183 110.538 37.9941 110.623 38.047C110.708 38.1 110.807 38.128 110.907 38.1278C118.253 38.3362 125.729 37.8022 133.023 38.2581C134.755 38.3623 136.474 38.4404 138.194 38.4925C138.344 38.4976 138.49 38.4429 138.6 38.3403C138.71 38.2377 138.774 38.0957 138.78 37.9455V37.9324C138.78 36.0699 138.832 34.9107 138.962 34.4288C139.418 32.5402 140.655 31.6025 142.648 31.6415C146.607 31.6937 150.58 31.9281 154.539 32.3189C157.053 32.5533 159.919 32.4491 160.27 35.7964C160.4 37.0564 160.348 38.3286 160.114 39.5736C160.099 39.6463 160.099 39.7213 160.113 39.7941C160.127 39.867 160.156 39.9364 160.197 39.9981C160.238 40.0599 160.291 40.1129 160.353 40.154C160.415 40.1952 160.484 40.2237 160.557 40.2378H160.609C162.797 40.4462 164.985 40.6806 167.173 40.9281C171.745 41.4621 175.457 43.2335 177.398 47.6878C179.035 51.4275 179.971 55.4362 180.159 59.5142C180.589 68.8398 181.396 78.1263 181.044 86.4491Z" stroke="black" stroke-width="7.91999" stroke-miterlimit="10"/>
<path d="M169.507 71.0252C169.507 87.9947 169.123 104.927 168.356 121.823C167.94 130.959 143.651 129.309 137.8 129.379C134.223 129.42 130.397 129.309 126.321 129.046C108.603 127.867 90.7321 128.671 72.9309 128.45H72.8615C69.1876 128.394 65.5275 128.311 61.8674 128.145C43.4146 127.327 28.973 126.402 18.5427 125.372C15.0213 125.025 7.96456 122.987 5.69094 119.84C3.84702 117.303 4.23516 115.279 4.38773 112.243C5.12247 97.9767 5.77869 83.7107 6.35638 69.4448C6.36198 69.2922 6.42512 69.1473 6.53313 69.0393C6.64113 68.9313 6.78599 68.8681 6.93864 68.8625C17.2103 68.5155 27.4931 68.7099 37.7443 69.4448C37.7858 69.4448 37.8275 69.4586 37.869 69.4586C38.0215 69.5056 38.15 69.6098 38.2275 69.7493C38.305 69.8889 38.3256 70.053 38.2849 70.2073C37.0745 74.6581 36.5554 79.2686 36.746 83.8771C37.5363 102.385 51.0813 116.402 69.6035 117.58C70.7265 117.65 71.8633 117.691 72.9863 117.691C86.3095 117.691 99.5357 112.631 107.05 100.902C112.498 92.4035 114.171 82.8558 112.069 72.2591C112.039 72.1031 112.072 71.9417 112.16 71.8096C112.248 71.6775 112.385 71.5851 112.54 71.5521C113.982 71.261 115.216 71.0946 116.242 71.0669C122.467 70.9005 128.594 70.5262 134.916 70.748C146.229 71.1362 157.547 71.0299 168.869 70.4291H168.911C168.989 70.4285 169.067 70.4435 169.139 70.4733C169.212 70.503 169.278 70.5469 169.333 70.6024C169.389 70.6579 169.433 70.7238 169.463 70.7964C169.492 70.869 169.507 70.9468 169.507 71.0252Z" fill="#333333"/>
<path d="M169.463 65.706C169.461 65.8637 169.398 66.0147 169.287 66.1263C169.175 66.2378 169.024 66.301 168.866 66.3021C149.041 66.7735 135.764 66.8844 129.035 66.6348C121.59 66.3853 115.583 66.4315 111.012 66.7735C110.889 66.7858 110.765 66.7589 110.658 66.6966C110.551 66.6344 110.466 66.54 110.416 66.4269C110.056 65.6782 109.529 64.4305 108.822 62.6975C105.425 54.4762 98.3684 46.9897 89.8699 43.8564C86.2563 42.5314 82.4581 41.7783 78.6124 41.6244C68.7552 41.2223 58.8286 44.5496 50.6905 50.1091C46.1847 53.2007 42.996 58.3026 40.6808 63.1134C40.2094 64.0839 39.4191 64.5691 38.3378 64.5691C34.6222 64.5275 30.9298 64.4304 27.2605 64.278C23.6836 64.1255 17.0104 64.144 7.24103 64.3335H7.18552C7.02561 64.3205 6.87739 64.2446 6.77342 64.1224C6.66945 64.0002 6.61823 63.8417 6.63102 63.6818C6.9221 58.2472 7.47204 50.4326 8.28083 40.238C8.72448 34.7617 9.69489 30.8937 16.003 30.4501C31.8633 29.3132 44.595 28.62 54.1981 28.3705C61.6569 28.1764 70.2802 28.3981 78.848 28.5784C82.7577 28.6616 86.6534 28.7309 90.4245 28.7586C108.85 28.9111 121.253 29.1283 127.635 29.4103C135.219 29.7569 145.644 30.5563 158.912 31.8087C164.929 32.3771 167.133 35.3856 168.284 41.2361C168.926 44.5273 169.292 47.8662 169.379 51.2182C169.504 56.0567 169.532 60.8859 169.463 65.706Z" fill="#ED1C24"/>
<path d="M149.223 5.19912C149.141 7.67882 148.158 9.65845 147.028 9.62101C145.899 9.58358 145.049 7.54309 145.131 5.06339C145.214 2.58383 146.196 0.604202 147.326 0.641636C148.456 0.679069 149.305 2.71956 149.223 5.19912Z" fill="black"/>
<path d="M134.027 4.038C135.109 6.03842 135.115 8.13076 134.041 8.71125C132.968 9.29173 131.221 8.14061 130.139 6.14004C129.057 4.13962 129.051 2.04728 130.125 1.4668C131.198 0.886315 132.945 2.03743 134.027 4.038Z" fill="black"/>
<path d="M157.412 12.6734L162.223 10.69C162.653 10.5131 163.135 10.5139 163.564 10.6924C163.992 10.8708 164.333 11.2123 164.51 11.6417L164.569 11.7868C164.746 12.2161 164.746 12.6982 164.567 13.1269C164.389 13.5556 164.047 13.8959 163.618 14.0728L158.806 16.0562C158.377 16.2332 157.894 16.2323 157.466 16.0539C157.037 15.8754 156.697 15.5339 156.52 15.1046L156.46 14.9594C156.372 14.7469 156.327 14.5191 156.328 14.2892C156.328 14.0592 156.374 13.8316 156.462 13.6193C156.551 13.4071 156.68 13.2143 156.843 13.052C157.006 12.8897 157.199 12.761 157.412 12.6734Z" fill="black"/>
<path d="M122.688 13.1566C124.628 14.1073 125.815 15.667 125.338 16.6401C124.861 17.6133 122.902 17.6318 120.961 16.6811C119.021 15.7305 117.834 14.1708 118.311 13.1975C118.788 12.2243 120.747 12.206 122.688 13.1566Z" fill="black"/>
<path d="M173.799 47.7964C173.599 43.4532 172.602 39.1838 170.859 35.2008C168.795 30.4677 164.852 28.5779 159.979 28.0103C157.653 27.7399 155.326 27.4962 153 27.2792C152.979 27.2767 152.958 27.2742 152.937 27.2706C152.781 27.2402 152.643 27.149 152.553 27.0169C152.464 26.8849 152.431 26.7229 152.461 26.5665C152.718 25.2424 152.778 23.8876 152.637 22.5461C152.256 18.9889 149.214 19.0983 146.533 18.8378C142.315 18.4237 138.096 18.1845 133.877 18.1202C131.752 18.0871 130.442 19.077 129.946 21.0901C129.817 21.6012 129.755 22.843 129.759 24.8156V24.8401C129.754 24.9995 129.685 25.1501 129.569 25.2588C129.452 25.3676 129.297 25.4256 129.138 25.4201C127.306 25.3636 125.472 25.2788 123.637 25.1657C115.866 24.6829 107.914 25.2567 100.089 25.0269C99.9837 25.0249 99.8805 24.9949 99.7902 24.9398C99.7 24.8847 99.626 24.8067 99.5759 24.7136L95.3134 16.8583C95.2427 16.7251 95.1242 16.6237 94.9817 16.5745C92.7233 15.8053 90.6905 15.3421 88.8835 15.1848C77.562 14.2006 66.0538 14.7203 54.0565 14.5876C52.8855 14.5754 51.9198 15.0341 51.1592 15.9638C49.1169 18.4578 47.3588 21.1716 45.9174 24.055C45.8676 24.1573 45.7892 24.243 45.6918 24.3019C45.5943 24.3607 45.482 24.3902 45.3682 24.3867C35.9974 24.2091 26.6246 24.6145 17.3041 25.6007C9.69094 26.4092 5.53048 29.7784 4.3595 37.5194C2.03508 52.7951 0.894301 68.2275 0.947332 83.6789C0.97805 93.9376 0.434952 103.519 0.0663348 113.421C-0.108144 118.077 0.482875 121.024 3.39372 124.308C7.38462 128.817 15.7522 129.917 21.1267 130.479C28.5887 131.259 36.0676 131.68 43.5632 131.741C57.9577 131.861 72.3277 132.791 86.7271 133.026C110.245 133.413 134.173 135.321 157.376 134.083C163.396 133.763 169.229 132.773 173.226 127.52C173.301 127.425 173.345 127.309 173.352 127.188C173.695 120.703 173.874 114.212 173.89 107.715C173.914 96.8472 174.319 86.8785 174.753 76.4638C175.128 67.5998 174.264 57.7159 173.799 47.7964ZM44.5351 64.6533C51.1346 51.3216 66.0353 44.0709 80.5392 45.7789C94.8723 47.4696 103.072 56.497 107.352 69.6887C112.105 84.313 106.683 101.316 92.8805 108.887C79.6693 116.132 62.6723 116.005 50.6579 105.633C39.2037 95.7487 38.19 77.4714 44.5351 64.6533ZM133.889 22.2193C133.89 22.2008 133.892 22.1824 133.894 22.164C133.917 22.0071 134.001 21.8658 134.128 21.7708C134.255 21.6759 134.414 21.6353 134.571 21.6577C139.082 22.2497 143.631 22.5059 148.181 22.4245H148.187C148.266 22.4236 148.345 22.4384 148.419 22.468C148.492 22.4976 148.559 22.5415 148.616 22.597C148.673 22.6526 148.718 22.7188 148.749 22.7919C148.78 22.865 148.797 22.9434 148.797 23.0228L148.839 26.2163C148.84 26.2352 148.839 26.2541 148.837 26.2728C148.831 26.3519 148.809 26.429 148.773 26.4996C148.737 26.5703 148.687 26.6331 148.627 26.6845C148.566 26.7359 148.496 26.7748 148.421 26.799C148.345 26.8233 148.266 26.8324 148.187 26.8258C144.113 26.4928 140.03 26.2032 135.936 25.957C135.404 25.9288 134.863 25.9026 134.312 25.8784H134.298C134.138 25.87 133.988 25.7985 133.881 25.6797C133.774 25.5608 133.718 25.4043 133.726 25.2444L133.889 22.2193ZM51.4848 23.33L54.0332 18.6154C54.0853 18.5175 54.1639 18.4362 54.2598 18.3806C54.3558 18.325 54.4654 18.2974 54.5763 18.3009C68.4387 18.6031 79.4641 19.4546 91.8533 19.7434C91.9629 19.7459 92.0698 19.7783 92.1624 19.837C92.2551 19.8956 92.33 19.9784 92.3792 20.0764L94.1719 23.6323C94.2179 23.7228 94.2404 23.8235 94.2371 23.9249C94.2339 24.0264 94.205 24.1254 94.1533 24.2128C94.1016 24.3002 94.0287 24.3731 93.9413 24.4247C93.8539 24.4764 93.7549 24.5052 93.6534 24.5084C90.3358 24.6079 87.0211 24.6095 83.7093 24.5133C77.9724 24.345 74.4501 24.2585 73.1423 24.254C66.1103 24.2295 59.0681 24.2196 52.0156 24.2245C51.9173 24.2246 51.8206 24.2001 51.7342 24.1533C51.5921 24.077 51.4861 23.9475 51.4394 23.7932C51.3926 23.6389 51.4089 23.4723 51.4848 23.33ZM6.6609 63.1113C6.81817 60.2385 7.04508 56.7444 7.34161 52.629C7.35021 52.5025 7.36004 52.3747 7.36864 52.2469C7.39567 51.8672 7.42394 51.4826 7.45342 51.0931C7.47308 50.813 7.49356 50.5303 7.51486 50.2453C7.53206 50.0192 7.54927 49.7907 7.56524 49.5609C7.56893 49.5191 7.57261 49.4773 7.57507 49.4356C7.78641 46.6205 8.02478 43.5541 8.29019 40.2361C8.57894 36.6421 9.09746 33.7398 11.2023 32.0429C11.303 31.9631 11.4075 31.8844 11.5144 31.8095C11.7905 31.6173 12.0818 31.448 12.3855 31.3032C12.4482 31.2713 12.5133 31.2418 12.5784 31.2135C12.6436 31.1841 12.7099 31.1558 12.7787 31.1288C13.6622 30.7675 14.7262 30.5341 16.0127 30.4431C22.3972 29.9885 28.2742 29.6047 33.6437 29.2918C33.742 29.2857 33.8378 29.2795 33.9337 29.2746C34.2544 29.2562 34.5726 29.2377 34.8884 29.2193C34.9793 29.2144 35.0703 29.2095 35.1612 29.2046C35.4917 29.1849 35.8206 29.1665 36.1478 29.1493C37.1935 29.0903 38.2187 29.0346 39.2233 28.9822C39.8058 28.9527 40.3812 28.9232 40.9497 28.8937H40.9522C45.8855 28.648 50.3019 28.4739 54.2015 28.3715C57.0902 28.2978 60.1534 28.2843 63.3211 28.3064H63.3334C63.89 28.3101 64.4495 28.315 65.0118 28.3211C65.7613 28.3297 66.5154 28.3396 67.2739 28.3506C67.6536 28.3555 68.0333 28.3617 68.4154 28.3678C69.3677 28.3826 70.3256 28.3998 71.2894 28.4194C72.0598 28.4329 72.8322 28.4485 73.6068 28.4661C76.0937 28.5165 78.5978 28.573 81.0897 28.6234C81.8675 28.6394 82.644 28.6545 83.4194 28.6688C85.7834 28.7119 88.1291 28.7475 90.4292 28.7647C94.7371 28.7979 98.7157 28.8347 102.365 28.8753C104.325 28.8974 106.19 28.9207 107.959 28.9453C108.399 28.9515 108.833 28.9576 109.261 28.9637C109.476 28.9662 109.689 28.9699 109.902 28.9736C111.593 28.9981 113.19 29.0244 114.693 29.0522H114.695C115.07 29.0584 115.44 29.0657 115.802 29.0731H115.805C116.169 29.0792 116.526 29.0862 116.878 29.094C117.943 29.1161 118.955 29.1382 119.914 29.1603C120.215 29.1689 120.51 29.1767 120.801 29.1837H120.848C121.138 29.1923 121.421 29.2001 121.699 29.207C121.715 29.207 121.731 29.207 121.746 29.2083C124.084 29.2709 126.049 29.3385 127.64 29.411C131.868 29.6064 136.979 29.941 142.973 30.4149C144.035 30.4984 145.124 30.5865 146.242 30.679C146.594 30.7085 146.948 30.738 147.306 30.7687H147.311C147.668 30.7995 148.028 30.829 148.392 30.8609H148.397C151.679 31.141 155.185 31.4564 158.916 31.807C164.935 32.3747 167.14 35.3875 168.287 41.2326C168.769 43.6998 169.095 46.195 169.263 48.7032C169.263 48.7045 169.264 48.7057 169.263 48.7069C169.291 49.1235 169.316 49.54 169.334 49.9578C169.344 50.1679 169.353 50.378 169.36 50.5893C169.367 50.797 169.375 51.0059 169.38 51.2135C169.396 51.8316 169.41 52.4496 169.421 53.0677C169.425 53.2397 169.429 53.4117 169.431 53.5837C169.468 55.5583 169.49 57.532 169.496 59.505C169.499 60.3184 169.499 61.1314 169.495 61.944C169.494 62.336 169.493 62.7279 169.489 63.1199C169.484 63.9837 169.476 64.8471 169.465 65.71C169.462 65.867 169.399 66.0169 169.289 66.1284C169.178 66.2399 169.029 66.3045 168.872 66.3084C163.806 66.4264 159.168 66.5214 154.957 66.5935C154.766 66.5972 154.577 66.5996 154.388 66.6033C154.076 66.6082 153.768 66.6131 153.46 66.6181C151.783 66.6463 150.177 66.6701 148.641 66.6893C148.372 66.693 148.107 66.6967 147.841 66.6992C147.811 66.6992 147.78 66.6992 147.75 66.7004C147.204 66.7065 146.667 66.7127 146.14 66.7188C146.083 66.7188 146.027 66.7188 145.97 66.72C145.737 66.7225 145.507 66.725 145.277 66.7274C145.23 66.7274 145.182 66.7274 145.136 66.7286C144.792 66.7323 144.451 66.7348 144.115 66.7385C144.016 66.7385 143.917 66.7385 143.819 66.7397C143.036 66.7459 142.276 66.7512 141.539 66.7557C141.448 66.7557 141.359 66.7557 141.269 66.7569C141.106 66.7581 140.942 66.7581 140.781 66.7594C138.996 66.7655 137.351 66.7651 135.848 66.7581C135.654 66.7569 135.462 66.7557 135.273 66.7545C135.057 66.7532 134.844 66.752 134.634 66.7495C132.43 66.7311 130.563 66.6947 129.035 66.6402C128.047 66.6058 127.084 66.5763 126.147 66.5517C125.772 66.5431 125.401 66.5333 125.034 66.5259C119.409 66.4055 114.735 66.4878 111.012 66.7729C110.925 66.78 110.839 66.7686 110.757 66.7393C110.676 66.71 110.602 66.6637 110.54 66.6033C110.519 66.5835 110.5 66.5621 110.483 66.5394C110.456 66.5052 110.433 66.4681 110.414 66.4288C110.403 66.4055 110.392 66.3809 110.381 66.3563C110.37 66.3318 110.358 66.306 110.346 66.2802C110.045 65.6203 109.626 64.6447 109.089 63.3533C109.044 63.2428 108.998 63.1309 108.951 63.0167C108.908 62.9147 108.865 62.8102 108.821 62.7033C108.557 62.0607 108.27 61.4234 107.961 60.7914C107.96 60.7895 107.959 60.7875 107.958 60.7853C107.835 60.5346 107.709 60.284 107.58 60.0358C107.45 59.7839 107.314 59.5332 107.177 59.2826C107.04 59.0356 106.901 58.7903 106.759 58.5466C106.759 58.5456 106.759 58.5447 106.758 58.5438C106.758 58.543 106.757 58.5422 106.757 58.5416C106.639 58.3401 106.519 58.1398 106.398 57.9408C106.075 57.41 105.736 56.8857 105.382 56.368C105.219 56.1321 105.054 55.8962 104.886 55.664C104.384 54.9648 103.854 54.2817 103.298 53.6145C102.65 52.8379 101.97 52.0892 101.258 51.3683C101.156 51.2651 101.054 51.1631 100.951 51.0612C100.848 50.9579 100.744 50.8572 100.641 50.7589C100.33 50.4579 100.014 50.1638 99.6926 49.8767C99.6914 49.8767 99.6901 49.8754 99.6889 49.8742C99.4739 49.6825 99.2576 49.4945 99.0401 49.3078C98.9283 49.2132 98.8165 49.1185 98.7047 49.0264C98.1506 48.5668 97.5833 48.1265 97.0029 47.7055C97.0017 47.7043 97.0005 47.7031 96.9992 47.7031C96.767 47.5347 96.5331 47.3697 96.2976 47.2079C96.297 47.2072 96.2961 47.2068 96.2952 47.2066C95.8233 46.8823 95.3429 46.5718 94.8539 46.2753C94.8539 46.274 94.8527 46.274 94.8514 46.274C93.2738 45.3093 91.6069 44.4987 89.8738 43.8535C86.485 42.6067 82.9303 41.8684 79.3252 41.6626C79.2245 41.6553 79.125 41.6503 79.0242 41.6454C77.4743 41.5651 75.9209 41.5758 74.3722 41.6774C74.2273 41.6872 74.0823 41.697 73.9361 41.7081C73.6485 41.7302 73.361 41.7548 73.0735 41.7818C73.0712 41.7828 73.0686 41.7832 73.0661 41.783C72.7786 41.8101 72.4911 41.8404 72.2035 41.874C72.2017 41.8751 72.1995 41.8755 72.1974 41.8752C71.9099 41.9096 71.6228 41.9461 71.3361 41.9846C71.3346 41.9854 71.3329 41.9858 71.3311 41.9858C70.8986 42.046 70.4678 42.1119 70.0385 42.1836C70.038 42.1841 70.0375 42.1844 70.0368 42.1846C70.0362 42.1849 70.0355 42.1849 70.0348 42.1848C63.1331 43.3509 56.4697 46.1733 50.6996 50.1089C49.9224 50.6429 49.183 51.23 48.4867 51.866C48.4862 51.8669 48.4856 51.8678 48.4847 51.8684C48.4838 51.8691 48.4828 51.8695 48.4818 51.8697C48.3564 51.9852 48.2324 52.1019 48.1082 52.2186C48.107 52.2211 48.1058 52.2223 48.1033 52.2223C47.9817 52.3403 47.86 52.4582 47.7396 52.5799C47.4312 52.8858 47.1306 53.2012 46.8377 53.526C44.2734 56.3582 42.2706 59.8011 40.6769 63.1076C40.557 63.3635 40.4006 63.6007 40.2125 63.8117C40.1842 63.8436 40.1547 63.8731 40.1252 63.9013C39.818 64.2055 39.4284 64.4131 39.0046 64.4985C38.9542 64.5108 38.9026 64.5206 38.851 64.528C38.8215 64.5329 38.7908 64.5366 38.7601 64.5415H38.7564C38.6161 64.5578 38.475 64.5651 38.3337 64.5636C34.6316 64.5231 30.9405 64.4264 27.2605 64.2737C23.691 64.1287 17.0174 64.1467 7.23962 64.3277C7.22242 64.3277 7.20645 64.3277 7.19048 64.3265C7.11167 64.3215 7.03464 64.301 6.96378 64.2661C6.89292 64.2313 6.82965 64.1828 6.77759 64.1234C6.72553 64.0641 6.68571 63.995 6.66041 63.9202C6.63511 63.8454 6.62484 63.7663 6.63018 63.6876C6.64001 63.4983 6.65107 63.3066 6.6609 63.1113ZM169.506 71.0353C169.506 74.2153 169.493 77.3944 169.466 80.5727C169.439 83.749 169.398 86.9244 169.344 90.099V90.1039C169.219 97.5132 169.019 104.916 168.746 112.313C168.7 113.537 168.653 114.76 168.603 115.983C168.526 117.931 168.443 119.878 168.354 121.826C168.331 122.386 168.208 122.938 167.99 123.455C167.932 123.592 167.867 123.726 167.797 123.856C167.774 123.899 167.75 123.942 167.725 123.985C167.454 124.443 167.118 124.86 166.727 125.222C166.63 125.314 166.529 125.404 166.425 125.491C166.425 125.492 166.423 125.492 166.422 125.494C166.267 125.624 166.105 125.749 165.934 125.87C165.912 125.887 165.89 125.902 165.868 125.916C165.787 125.974 165.703 126.031 165.619 126.085C165.523 126.149 165.423 126.21 165.324 126.27C165.224 126.33 165.122 126.389 165.018 126.446C164.757 126.592 164.484 126.731 164.199 126.863C164.086 126.914 163.971 126.966 163.854 127.016C163.736 127.068 163.618 127.117 163.498 127.165C163.436 127.189 163.376 127.214 163.315 127.237C163.01 127.356 162.695 127.469 162.369 127.575C162.24 127.618 162.108 127.66 161.975 127.701H161.974C161.841 127.742 161.708 127.782 161.572 127.821C161.301 127.898 161.024 127.973 160.743 128.045C160.603 128.08 160.462 128.115 160.318 128.148C158.403 128.582 156.461 128.887 154.505 129.063C154.228 129.09 153.951 129.116 153.673 129.139C153.619 129.144 153.565 129.148 153.511 129.153C153.073 129.188 152.635 129.22 152.196 129.249C151.834 129.272 151.472 129.294 151.111 129.313C150.825 129.327 150.539 129.341 150.255 129.353C150.215 129.354 150.176 129.356 150.138 129.358C148.427 129.429 146.753 129.452 145.197 129.453C144.263 129.454 143.372 129.446 142.541 129.435H142.532C142.294 129.432 142.061 129.428 141.834 129.426C141.601 129.422 141.372 129.418 141.15 129.415C140.862 129.41 140.585 129.405 140.318 129.401C140.247 129.4 140.177 129.399 140.107 129.397C139.979 129.395 139.853 129.392 139.731 129.391C138.964 129.379 138.309 129.373 137.797 129.379H137.767C134.2 129.423 130.384 129.313 126.318 129.047C111.895 128.099 97.374 128.449 82.8713 128.486C82.746 128.487 82.6194 128.487 82.4941 128.487C75.6108 128.503 68.7324 128.445 61.87 128.142C51.8129 127.697 42.9484 127.22 35.2767 126.711L35.1071 126.7C34.7225 126.675 34.3416 126.649 33.9644 126.623C32.6398 126.533 31.3525 126.442 30.1025 126.35C29.6946 126.321 29.2903 126.29 28.891 126.26C28.4904 126.23 28.0935 126.199 27.7004 126.169C27.3084 126.139 26.9201 126.108 26.5355 126.077C25.3817 125.985 24.2628 125.893 23.1786 125.8C22.8186 125.768 22.4611 125.737 22.1072 125.705C21.7545 125.674 21.4052 125.643 21.0591 125.61C20.1965 125.531 19.3577 125.451 18.5427 125.371C18.0094 125.318 17.395 125.228 16.7291 125.1C16.5005 125.057 16.2662 125.01 16.0262 124.957C15.8112 124.91 15.5913 124.86 15.3689 124.804C15.3676 124.806 15.3664 124.806 15.3664 124.804C11.7884 123.941 7.39445 122.209 5.68774 119.845C4.73179 118.527 4.37669 117.347 4.27839 116.094C4.23401 115.405 4.23565 114.714 4.28331 114.026C4.28454 113.999 4.287 113.972 4.28822 113.945C4.29683 113.791 4.30542 113.634 4.31648 113.476C4.32877 113.27 4.34229 113.061 4.35457 112.848C4.36686 112.651 4.37792 112.45 4.38898 112.244C5.12253 97.9739 5.77867 83.7084 6.3574 69.4478C6.36002 69.3898 6.37035 69.3323 6.38812 69.277C6.42718 69.1611 6.50069 69.0598 6.59882 68.9866C6.69696 68.9135 6.81506 68.8721 6.93736 68.8679C9.4329 68.7819 11.9272 68.7282 14.4203 68.7069C16.0975 68.6922 17.7747 68.6926 19.4519 68.7081C19.7124 68.7094 19.9721 68.7122 20.2309 68.7167C20.5148 68.718 20.7974 68.7216 21.0812 68.7266C23.1541 68.7561 25.2261 68.8081 27.2973 68.8826C29.4808 68.9612 31.6634 69.0645 33.8452 69.1922C35.1464 69.2684 36.4477 69.3536 37.7489 69.4478C37.7872 69.4501 37.8251 69.4567 37.8619 69.4675C37.9417 69.4888 38.0162 69.5265 38.0807 69.5781C38.1452 69.6297 38.1983 69.6941 38.2367 69.7673C38.2675 69.8248 38.2883 69.8871 38.2981 69.9516C38.313 70.0371 38.3088 70.1247 38.2858 70.2084C38.1863 70.5746 38.0929 70.942 38.002 71.3081C37.9332 71.5944 37.8656 71.8795 37.8017 72.1658C37.7661 72.3267 37.7304 72.4877 37.696 72.6487C37.6604 72.8158 37.626 72.9816 37.5928 73.1487C37.5437 73.392 37.497 73.6366 37.4515 73.8798C37.4282 74.0039 37.4048 74.128 37.3839 74.2521C36.8205 77.4299 36.6046 80.6596 36.7401 83.8841C37.0079 90.0978 38.7146 95.8065 41.5653 100.692C41.5653 100.693 41.5653 100.694 41.5665 100.694C41.7643 101.035 41.9683 101.371 42.1784 101.703C42.1784 101.704 42.1784 101.704 42.1797 101.706C42.375 102.016 42.5761 102.323 42.783 102.626C44.1116 104.592 45.645 106.411 47.3575 108.053C47.5443 108.233 47.7335 108.411 47.9252 108.585C48.3098 108.938 48.7025 109.281 49.1035 109.615C49.2694 109.754 49.4373 109.89 49.6073 110.024C50.8685 111.036 52.2015 111.955 53.5957 112.774C53.8218 112.907 54.0495 113.037 54.2789 113.165C54.2801 113.166 54.2814 113.166 54.2826 113.167C54.6266 113.359 54.9756 113.545 55.3295 113.726C55.4474 113.788 55.5678 113.848 55.6883 113.908C59.8487 115.981 64.5412 117.264 69.6048 117.588C84.0288 118.505 98.9001 113.627 107.051 100.911C110.432 95.6357 112.358 89.9598 112.831 83.8829C112.976 82.0049 112.987 80.1189 112.862 78.2394C112.73 76.2335 112.465 74.2385 112.068 72.2678C112.065 72.2481 112.062 72.2284 112.06 72.21V72.2063C112.047 72.0587 112.088 71.9115 112.176 71.7925C112.265 71.6736 112.394 71.5913 112.539 71.5612C113.757 71.2923 114.995 71.1287 116.241 71.0722C122.472 70.9088 128.601 70.534 134.915 70.7515C146.234 71.1422 157.551 71.0358 168.866 70.432C168.88 70.4308 168.892 70.4308 168.904 70.4308C169.063 70.4311 169.214 70.4936 169.327 70.6048C169.44 70.7161 169.504 70.8672 169.506 71.0255V71.0353Z" fill="black"/>
<path d="M107.353 69.6887C103.072 56.4971 94.8724 47.4696 80.5393 45.7789C66.0354 44.0709 51.1347 51.3216 44.5352 64.6533C38.1901 77.4714 39.2038 95.7487 50.658 105.633C62.6724 116.006 79.6694 116.132 92.8806 108.887C106.683 101.316 112.105 84.313 107.353 69.6887ZM83.5534 101.912C60.9768 109.725 46.0699 85.7371 53.2911 66.6807C58.1028 53.9892 71.3263 50.0045 83.5829 53.295C92.7 55.7463 98.8043 63.5843 100.296 72.5983C102.397 85.2837 95.8824 97.6434 83.5534 101.912Z" fill="white"/>
<path d="M148.84 26.2163C148.84 26.2352 148.839 26.254 148.837 26.2728C148.831 26.3519 148.809 26.429 148.773 26.4996C148.737 26.5703 148.688 26.6331 148.627 26.6845C148.567 26.7358 148.497 26.7748 148.421 26.799C148.346 26.8233 148.266 26.8324 148.187 26.8257C144.114 26.4928 140.03 26.2032 135.937 25.957C135.405 25.9288 134.863 25.9026 134.312 25.8784H134.299C134.139 25.87 133.989 25.7985 133.882 25.6797C133.774 25.5608 133.718 25.4043 133.726 25.2444L133.89 22.2192C133.891 22.2008 133.892 22.1824 133.895 22.164C133.917 22.0071 134.001 21.8657 134.128 21.7708C134.255 21.6759 134.415 21.6352 134.572 21.6577C139.083 22.2497 143.632 22.5059 148.181 22.4245H148.187C148.267 22.4236 148.345 22.4384 148.419 22.468C148.493 22.4976 148.56 22.5415 148.617 22.597C148.673 22.6526 148.718 22.7188 148.75 22.7919C148.781 22.865 148.797 22.9434 148.798 23.0228L148.84 26.2163Z" fill="white"/>
<path d="M94.2375 23.8842C94.2402 23.9635 94.2272 24.0425 94.1993 24.1168C94.1714 24.1911 94.1292 24.2592 94.075 24.3171C94.0208 24.3751 93.9557 24.4218 93.8834 24.4546C93.8112 24.4874 93.7332 24.5057 93.6539 24.5083C90.3363 24.6079 87.0216 24.6095 83.7098 24.5133C77.9729 24.3449 74.4505 24.2585 73.1428 24.254C66.1108 24.2294 59.0685 24.2196 52.0161 24.2245C51.9178 24.2245 51.8211 24.2 51.7347 24.1532C51.5926 24.077 51.4866 23.9475 51.4398 23.7932C51.3931 23.6389 51.4094 23.4723 51.4853 23.33L54.0336 18.6154C54.0858 18.5175 54.1643 18.4362 54.2603 18.3806C54.3563 18.325 54.4659 18.2974 54.5767 18.3008C68.4392 18.6031 79.4646 19.4546 91.8538 19.7433C91.9634 19.7459 92.0703 19.7783 92.1629 19.8369C92.2556 19.8956 92.3305 19.9783 92.3797 20.0763L94.1724 23.6323C94.2122 23.7105 94.2344 23.7965 94.2375 23.8842Z" fill="white"/>
<path d="M160.695 21.1779L167.082 22.4309C167.298 22.4731 167.503 22.5574 167.686 22.679C167.869 22.8005 168.026 22.9569 168.148 23.1392C168.271 23.3215 168.356 23.5261 168.4 23.7414C168.443 23.9567 168.444 24.1785 168.401 24.394L168.373 24.5363C168.288 24.9715 168.033 25.355 167.665 25.6025C167.297 25.8499 166.845 25.9409 166.41 25.8555L160.023 24.6024C159.808 24.5601 159.603 24.4758 159.42 24.3542C159.237 24.2327 159.079 24.0763 158.957 23.894C158.834 23.7117 158.749 23.5071 158.706 23.2918C158.662 23.0765 158.662 22.8548 158.704 22.6393L158.732 22.497C158.774 22.2815 158.858 22.0764 158.98 21.8934C159.101 21.7105 159.258 21.5533 159.44 21.4308C159.622 21.3083 159.827 21.2229 160.042 21.1795C160.258 21.1361 160.479 21.1356 160.695 21.1779Z" fill="black"/>
<path d="M37.3916 34.8269C30.0087 34.2147 22.5761 34.6629 15.3203 36.1579C14.2805 36.3797 13.7398 36.9343 13.7259 37.8493L13.518 46.8608C13.5158 46.9823 13.5504 47.1015 13.6172 47.203C13.684 47.3044 13.7799 47.3833 13.8924 47.4293C19.5626 49.897 29.614 48.885 36.5182 48.164C38.0848 47.9977 39.804 48.7464 40.2476 46.3063C40.7467 43.5474 41.9529 35.1874 37.3916 34.8269ZM36.6152 44.1019C36.6169 44.2548 36.5607 44.4027 36.4578 44.5158C36.3549 44.629 36.2131 44.6991 36.0607 44.7119C29.7627 45.2412 23.4385 45.3894 17.1226 45.1556H17.081C16.9212 45.1352 16.7759 45.0523 16.6771 44.9249C16.5783 44.7976 16.5341 44.6362 16.5542 44.4763L17.2335 38.9168C17.252 38.7836 17.3135 38.6601 17.4086 38.565C17.5037 38.4699 17.6272 38.4085 17.7604 38.39C23.8342 37.6786 29.9621 37.5486 36.0607 38.0018C36.211 38.0138 36.3513 38.0816 36.454 38.192C36.5566 38.3024 36.6142 38.4472 36.6152 38.598V44.1019Z" fill="black"/>
<path d="M36.6156 38.598V44.1019C36.6173 44.2548 36.5611 44.4027 36.4582 44.5158C36.3554 44.629 36.2135 44.699 36.0611 44.7119C29.7631 45.2412 23.4389 45.3894 17.123 45.1556H17.0814C16.9216 45.1352 16.7763 45.0523 16.6775 44.9249C16.5787 44.7975 16.5345 44.6362 16.5546 44.4763L17.2339 38.9168C17.2524 38.7836 17.3139 38.6601 17.409 38.565C17.5041 38.4699 17.6276 38.4085 17.7608 38.39C23.8346 37.6786 29.9626 37.5486 36.0611 38.0018C36.2114 38.0138 36.3517 38.0816 36.4544 38.192C36.557 38.3024 36.6146 38.4472 36.6156 38.598Z" fill="white"/>
<path d="M151.368 38.4905C149.726 37.9591 148.319 36.9146 150.148 35.2844C150.254 35.1874 150.392 35.1335 150.535 35.1334C154.725 35.0549 160.956 36.4739 163.184 40.4708C163.915 41.7811 166.577 51.7677 162.121 48.4953C162.005 48.4102 161.924 48.2857 161.892 48.1451C160.431 41.9924 156.911 40.2957 151.368 38.4905Z" fill="black"/>
<path d="M163.16 51.6108C163.54 51.6108 163.911 51.7234 164.227 51.9344C164.542 52.1454 164.788 52.4453 164.934 52.7961C165.079 53.147 165.117 53.533 165.043 53.9055C164.969 54.2779 164.786 54.62 164.517 54.8885C164.249 55.157 163.907 55.3399 163.534 55.4139C163.162 55.488 162.776 55.45 162.425 55.3046C162.074 55.1593 161.774 54.9132 161.563 54.5975C161.352 54.2817 161.24 53.9105 161.24 53.5308C161.24 53.2786 161.289 53.029 161.386 52.796C161.482 52.5631 161.624 52.3514 161.802 52.1731C161.98 51.9948 162.192 51.8534 162.425 51.7569C162.658 51.6604 162.908 51.6108 163.16 51.6108Z" fill="black"/>
<path d="M100.296 72.5984C98.8039 63.5844 92.6996 55.7464 83.5825 53.2951C71.3259 50.0045 58.1024 53.9893 53.2907 66.6808C46.0695 85.7371 60.9764 109.726 83.553 101.912C95.882 97.6435 102.397 85.2837 100.296 72.5984ZM75.377 99.274C62.1953 99.3748 53.3866 84.5072 56.376 71.9643C58.7684 61.922 66.3705 56.6716 75.1645 56.6986C78.2461 56.7085 81.474 57.3658 84.676 58.6929C95.447 63.1556 97.8504 73.3417 94.958 83.7871C92.7438 91.7972 87.6438 96.7781 79.6579 98.7297C78.3013 99.0662 76.911 99.2484 75.5134 99.2728C75.468 99.274 75.4225 99.274 75.377 99.274Z" fill="black"/>
<path d="M95.0894 83.7863C92.8753 91.7964 87.7752 96.7777 79.7894 98.7301C64.3013 102.516 53.2047 85.8211 56.5075 71.9648C59.7366 58.4033 72.4711 53.5793 84.8062 58.6933C95.5785 63.1548 97.9806 73.3409 95.0894 83.7863Z" fill="#00FFFF"/>
<path d="M12.7201 105.607C10.311 105.728 10.6671 103.192 10.5887 101.677C10.2084 94.5702 10.5887 87.6809 11.0778 80.5985C11.2227 78.4671 11.8264 72.7071 14.8394 75.104C14.9027 75.154 14.9556 75.216 14.995 75.2865C15.0344 75.3569 15.0595 75.4345 15.0689 75.5146C15.2701 77.5072 15.3325 80.1095 15.2561 83.3215C15.0305 92.5354 14.6581 99.4648 14.1389 104.11C14.0302 105.068 13.5573 105.567 12.7201 105.607Z" fill="white"/>
<path d="M12.4674 109.924C12.828 109.924 13.1805 110.031 13.4804 110.232C13.7802 110.432 14.0139 110.717 14.1519 111.05C14.2898 111.383 14.3259 111.75 14.2555 112.104C14.1852 112.457 14.0115 112.782 13.7565 113.037C13.5015 113.292 13.1766 113.466 12.8229 113.536C12.4692 113.607 12.1025 113.57 11.7694 113.432C11.4362 113.294 11.1514 113.061 10.951 112.761C10.7507 112.461 10.6437 112.109 10.6437 111.748C10.6437 111.508 10.6909 111.271 10.7825 111.05C10.8742 110.829 11.0085 110.628 11.1778 110.458C11.3472 110.289 11.5482 110.155 11.7695 110.063C11.9907 109.972 12.2279 109.924 12.4674 109.924Z" fill="white"/>
</svg>
