<svg id="Layer_1" data-name="Layer 1" xmlns="http://www.w3.org/2000/svg" viewBox="0 0 2500 1000">
  <rect x="106.89961" y="600.39135" width="2257.77288" height="122.39921" fill="#ffc913"/>
  <g>
    <path d="M1746.711,500.66872q31.96446,0,53.40456,8.1748,21.43095,8.17308,32.151,27.247,10.712,19.07224,10.71776,52.13194,0,27.61442-8.35676,45.23091A65.54921,65.54921,0,0,1,1809.198,661.608L1853.519,762.24054H1774.6848l-28.70049-85.01081H1734.359v85.01081h-70.84253V550.43966l-19.98094-49.77094ZM1734.359,628.5483q16.70667,0,24.70408-8.35562,7.986-8.35334,7.99283-29.42721,0-16.705-2.9069-24.8849-2.91149-8.17481-9.991-11.08056-7.083-2.9046-19.799-2.9069Z"/>
    <path d="M1914.91528,765.873a53.042,53.042,0,0,1-27.247-7.44693,56.47327,56.47327,0,0,1-20.70881-21.61635q-7.99455-14.16771-7.99168-34.14921,0-31.24,21.97914-47.228,21.97685-15.98223,56.85508-15.98566h15.62172V619.466q0-10.5318-7.2661-14.35025-7.27011-3.81446-18.52749-3.81445a135.20888,135.20888,0,0,0-26.52031,2.543,167.55963,167.55963,0,0,0-25.4308,7.2661v-50.8616q16.34788-3.62733,33.96839-6.7202a205.09278,205.09278,0,0,1,35.42069-3.08887,129.95982,129.95982,0,0,1,36.69333,4.90511,52.33856,52.33856,0,0,1,26.8831,17.61994q10.16614,12.72054,10.17186,36.32938V762.24054h-56.67311l-4.36035-15.62173a58.45851,58.45851,0,0,1-42.86762,19.25421Zm25.42965-47.9547q7.26326,0,13.07876-6.53938V675.41349h-4.72314q-10.89744,0-18.52748,5.26789-7.6289,5.27019-7.6289,15.80256,0,10.17644,5.44873,15.80369Q1933.44333,717.92519,1940.34493,717.91832Z"/>
    <polygon points="2046.063 553.347 2111.456 553.347 2111.456 807.652 2046.063 845.16 2046.063 553.347"/>
    <path d="M2189.19849,765.873a53.042,53.042,0,0,1-27.247-7.44693,56.47327,56.47327,0,0,1-20.70881-21.61635q-7.99455-14.16771-7.99168-34.14921,0-31.24,21.97913-47.228,21.97686-15.98223,56.85509-15.98566h15.62173V619.466q0-10.5318-7.26611-14.35025-7.27011-3.81446-18.52749-3.81445a135.20888,135.20888,0,0,0-26.52031,2.543,167.55963,167.55963,0,0,0-25.4308,7.2661v-50.8616q16.34789-3.62733,33.96839-6.7202a205.09278,205.09278,0,0,1,35.42069-3.08887,129.95982,129.95982,0,0,1,36.69333,4.90511,52.33856,52.33856,0,0,1,26.8831,17.61994q10.16615,12.72054,10.17186,36.32938V762.24054h-56.67311l-4.36035-15.62173a58.45851,58.45851,0,0,1-42.86762,19.25421Zm25.42965-47.9547q7.26326,0,13.07877-6.53938V675.41349h-4.72315q-10.89744,0-18.52748,5.26789-7.62889,5.27019-7.6289,15.80256,0,10.17644,5.44873,15.80369Q2207.72654,717.92519,2214.62814,717.91832Z"/>
    <rect x="2044.24602" y="487.95389" width="69.02629" height="49.40815"/>
  </g>
  <g>
    <path d="M329.82821,708.26209l-32.11976-76.649V762.28217h-69.3503V549.48847L208.283,499.48363h86.86951l51.10038,109.86431,51.09934-109.86431h67.16027V762.28217h-69.3503V632.34274l-32.11976,75.91935Z"/>
    <path d="M664.8978,762.28217v-209.874h55.84528l7.29975,29.20007h.72967q5.83413-18.24781,20.62236-26.64521,14.78349-8.39268,37.413-4.38007v62.0495a245.96472,245.96472,0,0,0-29.38249,1.8252,179.07826,179.07826,0,0,0-26.82762,5.10973V762.28217Z"/>
    <path d="M891.92408,765.93257a124.87279,124.87279,0,0,1-36.49983-5.11077,72.38075,72.38075,0,0,1-29.38248-17.15437q-12.59295-12.0457-19.52787-33.21531-6.93807-21.16331-6.93493-53.28937,0-31.38643,8.21288-52.19488,8.21184-20.80477,22.44756-32.84942a87.74256,87.74256,0,0,1,32.11977-17.33784,131.914,131.914,0,0,1,37.59432-5.29214,138.13374,138.13374,0,0,1,23.35964,1.8252,161.10819,161.10819,0,0,1,21.90031,5.47456v82.12461H907.61913l-7.3008-37.9602q-16.42366,0-24.63655,12.41053-8.2134,12.4121-8.21288,44.52924,0,22.99533,5.84044,35.40534,5.83414,12.4121,16.42471,16.78954,10.58166,4.37955,25.18484,3.10211a199.38992,199.38992,0,0,0,31.75493-5.657v51.83005a156.22049,156.22049,0,0,1-26.64521,4.92731A265.6073,265.6073,0,0,1,891.92408,765.93257Z"/>
    <path d="M1035.00055,562.99349q19.71029-13.5003,41.60955-13.505,25.18588,0,41.793,15.69505,16.60451,15.69715,16.60713,47.08411V762.28217h-65.6999V622.853q0-22.25939-20.07512-22.26515a25.63063,25.63063,0,0,0-14.23468,4.01523V762.28217h-65.6999V496.19805l65.6999-9.48978Z"/>
    <path d="M580.948,765.93257a151.62,151.62,0,0,1-39.23711-4.74489,70.03078,70.03078,0,0,1-30.477-16.79059q-12.78008-12.04413-19.71028-33.21426-6.93807-21.16488-6.93493-54.02008,0-53.28728,19.8927-80.48182,19.88957-27.18774,64.05712-27.19246,40.14708,0,58.21772,22.08169,18.067,22.088,18.06645,65.51748,0,10.22312-.72966,20.98719a144.77266,144.77266,0,0,1-2.55486,19.52787H554.30383q2.189,22.26725,12.40948,29.74732,10.21524,7.48532,34.30979,7.48217a107.4295,107.4295,0,0,0,17.33784-1.45933q8.93991-1.45459,17.33679-3.28557v49.64q-12.78008,2.557-26.82658,4.38006A216.946,216.946,0,0,1,580.948,765.93257Zm-9.85462-168.26445q-14.60267,0-17.15438,39.41952h29.92974q0-8.0247-.5483-17.15438a48.35776,48.35776,0,0,0-3.28452-15.69505Q577.29811,597.66812,571.09337,597.66812Z"/>
  </g>
  <g>
    <path d="M1399.20944,151.957c-12.546,18.10955-1.79832,35.2313,6.43713,41.07623-11.02759,42.684-43.44181,41.8029-70.05252,11.83985,17.25936-25.32387-4.3426-60.34872-35.52013-56.23872-40.98666,5.68829-41.26487,55.92772-11.04906,67.67244-.19841,11.291-12.18685,38.06815-22.86944,43.17267-23.07284,12.62841-41.98827,3.21623-52.801-9.65741,14.52361-35.79594-27.46748-70.255-61.2782-45.93457-22.2486,16.50375-20.85839,59.73572,14.68885,70.65291,7.34789,32.11789-11.91211,69.30071-50.97988,46.65541,17.23378-47.545-62.78529-60.097-67.30809-12.7225-2.90728,19.50783,13.21623,39.639,33.547,38.47788,20.74845,57.55379,69.03594,91.74274,50.00861,154.93344-5.93513,16.41382-13.13058,24.35273-24.25813,30.74628,19.63407,3.0948,27.65961,1.56087,43.31517-1.17548-.78933,33.75347,1.67732,70.00308,17.53281,98.89227,15.85549,28.87938,8.15977,62.92879-11.61286,87.58528-3.70984,4.2919-11.8399,10.93217-3.63091,14.48408,8.209,3.552,13.49749,4.26237,22.37741,4.26237,21.43,0,41.0348-8.426,57.22575-21.70643-.2368,20.74937-19.23962,42.16961-3.94663,61.17254,12.796,21.02748,31.72507,37.53032,53.03277,49.57936,48.2335,31.93185,119.83431,38.2946,169.54433,20.942,5.56583-39.38295,1.80569-38.11092,4.35322-70.5214,91.98236,12.96849,112.55581-30.93873,119.86966-116.07915,24.31906.35942,50.29658-12.68957,58.37417-33.50242,2.04856-4.85528,9.34983-22.11041.34067-36.896-7.70743-14.97237-27.69864-18.55568-39.47219-5.87885,22.57713-.08013,25.52019,36.1343-3.46675,25.66856-2.76372-1.44513-10.06651-12.73315-16.03157-16.30756,3.69075-43.41324-3.61247-103.30518-16.3293-148.20464-3.32667-11.10956,8.06913-19.01269,12.15389-28.92855,25.09734-56.3998-7.88806-119.54729-71.039-123.33169-7.29151-24.78475-13.47775-49.905-19.73316-74.98568,21.9333-.24666,26.64953-35.90434,1.64761-39.14054-25.00171-3.23625-30.33964,26.96526-22.36744,46.0471-9.72823-7.30125-13.54671-19.40745-15.78631-30.58625C1480.10349,165.20881,1428.82675,117.22676,1399.20944,151.957Z"/>
    <path d="M1299.803,169.38912a10.99766,10.99766,0,0,0-4.02629,4.07569c-2.74518,5.00275-.91344,12.00926,3.48225,15.99476,3.674,3.33112,9.52923,4.90553,14.48247,2.67042a12.67476,12.67476,0,0,0,5.36064-4.72841C1323.75957,174.63849,1312.68193,163.70235,1299.803,169.38912Z" fill="#f9ec23"/>
    <path d="M1319.10207,187.40158a11.78767,11.78767,0,0,1-4.308,3.80967c-4.8177,2.43418-10.98938,1.02228-14.87731-2.49185-4.2479-3.83944-6.24722-10.6201-3.65752-15.52677a10.42741,10.42741,0,0,1,3.54381-3.80351,16.00916,16.00916,0,0,0-8.36057,8.19272c-2.11837,4.99321-1.69668,11.74478,2.8311,16.27161,4.86481,4.86371,12.25666,4.9468,17.39224,2.28151A16.04814,16.04814,0,0,0,1319.10207,187.40158Z" fill="#c8be2e"/>
    <path d="M1432.00125,161.1665a8.43379,8.43379,0,0,0-4.28371-.97575c-4.36983.23388-8.19481,4.26035-9.01459,8.73608a10.535,10.535,0,0,0,4.11541,10.5168,9.71981,9.71981,0,0,0,5.24855,1.58132C1438.26673,178.89953,1440.91406,167.25942,1432.00125,161.1665Z" fill="#f9ec23"/>
    <path d="M1428.06691,181.025a9.03938,9.03938,0,0,1-4.22429-1.2669c-3.534-2.15513-5.10935-6.74759-4.39142-10.70187.78435-4.32038,4.39442-8.36473,8.63877-8.66108a7.99633,7.99633,0,0,1,3.91128.7714,12.27684,12.27684,0,0,0-8.71888-2.13547,11.4654,11.4654,0,0,0-9.45827,8.42371c-1.20237,5.13651,1.73215,9.98679,5.54531,12.25563A12.30678,12.30678,0,0,0,1428.06691,181.025Z" fill="#c8be2e"/>
    <path d="M1438.72538,224.29581c-2.34005-3.32056-4.70178-6.84677-7.05436-10.5815-3.13346-4.9744-5.93142-9.81216-8.43076-14.45279a87.55743,87.55743,0,0,1-15.91527,25.9806c4.46313-.40637,9.15034-.71638,14.04506-.89494C1427.465,224.12485,1433.26181,224.12891,1438.72538,224.29581Z" fill="#f9ec23"/>
    <path d="M1320.79427,216.713a24.531,24.531,0,0,1-13.05,3.67219c-.67784,4.17979-1.56706,8.664-2.73522,13.39323-1.206,4.8826-2.55371,9.39721-3.94782,13.52084,6.40289-2.4414,13.372-4.83315,20.882-7.04661,7.18612-2.11805,14.042-3.82958,20.48716-5.21772a76.503,76.503,0,0,1-21.636-18.32193Z" fill="#f9ec23"/>
    <path d="M1166.71731,230.82637a2.68593,2.68593,0,0,0-.82887.69067C1166.11547,230.88557,1166.71731,230.38237,1166.71731,230.82637Z" fill="#fff"/>
    <path d="M1190.36363,247.18105c-10.229,2.758-20.3854-.3502-25.36125-7.52968-1.05595-1.52349-.01211-6.59374-3.31248-11.10472-.20681-.28273-.3869-.50775-.50624-.65324a16.02028,16.02028,0,0,1,3.81872-5.12534q.05825-.05143.11668-.10207a14.75348,14.75348,0,0,1,1.41558-1.109c2.74319-1.99914,8.50707-5.22407,15.40938-3.45837a17.93852,17.93852,0,0,1,13.22053,15.39486C1195.8564,241.00172,1191.19193,246.27491,1190.36363,247.18105Z" fill="#f9ec23"/>
    <path d="M1160.47987,229.56181c-.63289,1.63166-2.62063,7.35115-.109,13.30274,3.3351,7.903,12.98985,12.44776,21.17789,10.10127a19.166,19.166,0,0,0,11.03418-8.81171,20.71866,20.71866,0,0,1-21.73561-2.10958c-8.10129-6.32989-7.77924-16.31649-7.732-17.27287-.33952.43139-.6117.8185-.82011,1.1317-.40186.60408-.65373,1.06467-.7273,1.20134-.20823.38654-.336.6768-.38422.78871-.04044.0937-.06894.16406-.08087.19349C1160.99627,228.34893,1160.81386,228.78633,1160.47987,229.56181Z" fill="#c8be2e"/>
    <path d="M1253.84345,292.6853c-.96693,1.59836,11.63281,13.51716,14.79987,13.81313.54255-.50319,1.3913-.62159,1.97332-.98663,4.1045-2.55544,6.38357-1.72665,10.85324-2.96,10.6262-2.92048,20.53225-9.48173,31.26687-13.13237,10.73485-3.64074,23.40354-6.91645,33.85214-11.534,4.79516-2.11145,7.64671-2.05222,12.82656-2.95995,11.71152-2.06211,23.6798-6.71911,35.58866-8.8108,11.91883-2.09172,26.96526-.92746,37.42362-5.00236a17.39935,17.39935,0,0,1,6.33608-1.428,15.69385,15.69385,0,0,1,6.49048,1.428c3.29609,1.42583,10.17233,2.44285,25.57635,1.04453-.22422-1.13146-.55925-2.83577-.95543-4.90922-1.92258-10.06359-1.8894-11.0541-2.53864-12.27964-3.16143-5.9669-15.9637-5.16722-19.34176-4.92286-47.76814,3.45556-83.04735,12.51969-83.04735,12.51969-20.27507,5.20926-30.41271,7.81388-33.08927,8.61657A457.51062,457.51062,0,0,0,1253.84345,292.6853Z" fill="#f5ea14"/>
    <path d="M1447.9124,259.47639a21.08456,21.08456,0,0,1,1.02761,3.58442,21.51373,21.51373,0,0,1,.00313,8.03418q6.0312-.52163,12.2815-1.20128,5.46537-.59664,10.74214-1.27981-.56149-3.22138-1.136-6.457-.3924-2.20989-.78829-4.41143c-1.013.09985-2.50577.2423-4.316.39719-2.45628.21017-4.28108.33925-5.15428.40143C1457.60008,258.7557,1453.55206,259.05362,1447.9124,259.47639Z" fill="#c8be2e"/>
    <path d="M1361.01188,272.62a13.29149,13.29149,0,0,1,5.045,8.88112,12.82331,12.82331,0,0,1-1.48714,7.33575c10.57394-3.05571,21.95759-5.968,34.10368-8.57156,12.44425-2.66745,24.29348-4.71165,35.42949-6.27374a11.72987,11.72987,0,0,1-2.16479-6.17044,12.07359,12.07359,0,0,1,2.9192-8.302c-11.73581,1.19779-24.27244,2.89029-37.48174,5.24236C1384.40393,267.07127,1372.26261,269.75376,1361.01188,272.62Z" fill="#c8be2e"/>
    <path d="M1233.57249,280.0802a39.8478,39.8478,0,0,1-21.25376-3.82886,39.20283,39.20283,0,0,1-11.96715-9.13756,18.15523,18.15523,0,0,1-10.18751,5.27625q-.88272,7.89748-1.5555,16.271-.64641,8.13435-1.01255,15.86415,10.66754-5.7437,21.45105-11.4822Q1221.34886,286.4969,1233.57249,280.0802Z" fill="#f9ec23"/>
    <path d="M1281.54079,301.04858a12.19924,12.19924,0,0,1,5.52659,6.21937,12.80926,12.80926,0,0,1-2.96432,13.04365c21.98253-11.02095,45.4058-19.35816,68.079-27.6263a13.76872,13.76872,0,0,1-4.65226-6.68212,13.97566,13.97566,0,0,1,.66226-9.82153c-13.91991,4.17121-25.35972,8.17772-33.9855,11.40347-8.075,3.0198-14.72419,5.74435-18.27573,7.22345C1290.44717,297.0923,1285.61037,299.213,1281.54079,301.04858Z" fill="#c8be2e"/>
    <path d="M1275.50656,342.41177c2.64424,1.53916,7.36047,11.00116,10.85324,11.83981,12.36923-6.01609,23.88212-11.27636,34.31142-15.83136,4.46794-1.95136,15.479-6.74706,27.80924-11.59961a828.13755,828.13755,0,0,1,106.3314-33.11282,26.99438,26.99438,0,0,0,5.87832-1.56453c6.57114-2.6987,10.8476-7.96588,13.63323-12.69731a640.1615,640.1615,0,0,0-198.81685,62.96582Z" fill="#f5ea14"/>
    <path d="M1219.84645,311.34214a36.57592,36.57592,0,0,0,48.79687-4.84368c-3.16706-.296-15.7668-12.21477-14.79987-13.81316q-8.40081,4.28241-17.1221,9.05923Q1227.98813,306.53685,1219.84645,311.34214Z" fill="#f5ea14"/>
    <path d="M1257.77967,311.22965c-10.16388,1.82415-16.55786-2.52641-31.16517-1.07467-2.77349.27564-5.0055.67722-6.36276.9486-15.48294,9.1007-32.04492,19.76328-49.19933,32.23643a604.72493,604.72493,0,0,0-48.4755,39.22213c1.47912,2.22709,2.98058,4.63977,4.46729,7.23939,1.611,2.81691,3.025,5.53914,4.26713,8.12757,6.27515-4.25247,13.89193-11.09,19.81188-15.70754s15.01694-12.65875,20.86793-15.63843c5.85078-2.97973,17.5031-14.35585,19.50613-13.05346-3.46328-13.96113,10.3894-23.40343,22.69292-18.7464a29.7029,29.7029,0,0,1,2.96.98663,50.95265,50.95265,0,0,1,6.44168-3.7c2.28233-1.09871,4.0234-1.72754,4.70235-1.98047,9.635-3.58913,13.67162-9.05991,19.84549-8.90266,2.46578.0628,6.08953,1.04423,10.44991,5.70323a9.82287,9.82287,0,0,1-6.90661,3.94661c3.483,3.22634,3.5125-.22693,7.89327,0a56.2398,56.2398,0,0,1,22.69314-9.86653c-7.53807.99652-17.56252-8.01161-10.85324-15.78645A32.81739,32.81739,0,0,1,1257.77967,311.22965Z" fill="#f5ea14"/>
    <path d="M1074.52111,304.84891c-4.582,7.79389-1.28036,17.69078,6.17215,21.08271,6.90572,3.14307,15.79368-.01955,19.32949-7.58184a15.01892,15.01892,0,0,0-25.50164-13.50087Z" fill="#f9ec23"/>
    <path d="M1100.02275,318.34978c-5.0403,13.44086-32.53719.705-25.50164-13.50087a15.48648,15.48648,0,0,0-5.02511,11.24972,15.12207,15.12207,0,0,0,9.95554,13.5581,15.87726,15.87726,0,0,0,17.06488-4.42851A15.56111,15.56111,0,0,0,1100.02275,318.34978Z" fill="#c8be2e"/>
    <path d="M1214.26912,337.58522a11.2923,11.2923,0,0,1,7.85988,14.29931c7.455-4.41454,13.97715-8.11464,19.24092-11.03767,5.43529-3.01834,12.68777-7.03574,22.44224-11.963,3.97461-2.00772,7.33575-3.64668,9.77595-4.82091l-1.14236-2.9075a8.12225,8.12225,0,0,1-5.26117-2.63064c-2.2936-2.71152-2.36407-7.11559.03774-10.7543-6.97947,3.41869-13.11735,6.61259-18.29655,9.40046-9.92535,5.34279-17.43,9.78681-20.6847,11.73568C1222.73422,332.20422,1218.01908,335.17024,1214.26912,337.58522Z" fill="#c8be2e"/>
    <path d="M1361.24707,376.55085a140.71706,140.71706,0,0,1-29.07726,42.64694,126.37124,126.37124,0,0,0,24.775-5.289,134.10251,134.10251,0,0,0,24.775-10.99564,121.36381,121.36381,0,0,0,16.70229-10.85647c9.16906-7.22328,11.7459-11.67439,16.94739-11.65286,4.21472.01746,8.21373,2.96351,11.98341,7.98693,25.02152-17.86828,47.36925-45.98791,74.98568-59.19922-25.72213.77946-52.87486,6.57112-75.74542,17.98671C1403.72243,358.59375,1384.384,367.89791,1361.24707,376.55085Z" fill="#333"/>
    <path d="M1220.15558,340.04468c-.53281-.95706-2.02263-3.36449-2.96-3.94662a29.7024,29.7024,0,0,0-2.96-.98665A29.181,29.181,0,0,1,1220.15558,340.04468Z" fill="#575757"/>
    <path d="M1137.4078,342.91644a138.50144,138.50144,0,0,1-32.6907-5.83173q1.95613,4.76193,3.89938,9.59084,3.05225,7.58564,5.96715,15.0755a126.64443,126.64443,0,0,0,22.82417-18.83461Z" fill="#f9ec23"/>
    <path d="M1131.31133,397.9291q1.49365,3.43654,2.97711,6.95475,1.3772,3.26667,2.69715,6.49091c22.19981-14.65182,43.689-32.63849,66.10589-47.35938a15.48122,15.48122,0,0,1-11.82776-11.48237c-9.869,6.54027-20.1326,13.7634-30.65688,21.7312C1150.05849,382.25026,1140.3012,390.18758,1131.31133,397.9291Z" fill="#c8be2e"/>
    <path d="M1528.27269,341.78351c-1.28619.5378-2.51939,1.16776-2.51957,1.16785-.73451.37521-1.3599.72617-1.86449,1.02255,26.24478,2.8833,39.95165,32.628,29.66549,53.96045a39.32446,39.32446,0,0,0,8.045-12.71593c1.19688-3.0994,6.855-18.9637-2.15963-32.63942-5.8164-8.82388-15.91533-13.96666-21.64586-13.3559A50.09883,50.09883,0,0,0,1528.27269,341.78351Z" fill="#333"/>
    <path d="M1556.21936,394.51667c9.89972-15.52607-1.97005-37.67986-8.84423-43.6364a61.61791,61.61791,0,0,0-9.31154-6.364c-2.45158-1.32443-5-2.37718-5.00011-2.37721-1.10583-.4568-2.06617-.80973-2.80761-1.06795-.33374.10924-.82923.2756-1.42385.49155a57.65167,57.65167,0,0,0-7.6173,3.557,155.6592,155.6592,0,0,0-18.02588,12.7586,39.25163,39.25163,0,0,1,15.5478,3.211c22.98481,10.03533,27.06481,39.50155,27.42168,42.39361A25.93625,25.93625,0,0,0,1556.21936,394.51667Z" fill="#4d4e4e"/>
    <path d="M1286.3598,354.25161c-3.49277-.83866-8.209-10.30066-10.85324-11.83984a964.401,964.401,0,0,0-83.064,49.15832c-17.13923,11.33874-33.18446,22.74226-48.16259,34.02643,1.37243,2.71551,2.7414,5.72658,4.02427,9.02744.87888,2.26134,1.63373,4.44354,2.28406,6.52587,19.92854-15.3701,42.22615-31.26462,66.95138-47.046C1241.52258,378.79617,1264.63207,365.61033,1286.3598,354.25161Z" fill="#c8be2e"/>
    <path d="M1295.85472,373.29937a26.1388,26.1388,0,0,0,19.01961,19.03794c8.59374-11.20837,16.24031-24.07434,24.66634-35.51953-4.58041-.7455-22.67623-3.15348-36.498,8.399A37.20186,37.20186,0,0,0,1295.85472,373.29937Z" fill="#1a1a1a"/>
    <path d="M1427.35286,388.3907c-1.59813-2.49705-5.80261-8.2906-12.41784-9.21272-4.74032-.6608-8.53927,1.48368-14.37874,5.2222-15.98976,10.2369-16.51019,12.727-25.66179,18.10712-7.67523,4.51215-15.03153,7.30057-26.14138,11.51182-4.58544,1.73812-8.45316,3.06616-11.18573,3.97119a67.88234,67.88234,0,0,0,16.342-15.00335c3.69971-4.75375,5.33855-8.21348,7.91431-12.59107a124.1972,124.1972,0,0,1,18.85421-24.27858c-15.56954,7.19982-19.81136,8.69085-20.02839,8.2691-.24594-.47779,5.01336-2.7485,8.19144-8.49592a19.78539,19.78539,0,0,0,2.2726-7.0994q-32.06617,39.95948-64.13249,79.919C1352.24879,437.18073,1391.73469,413.8365,1427.35286,388.3907Z" fill="#4d4e4e"/>
    <path d="M1191.54262,496.9226c-.95706,1.07548-2.04238,2.43707-1.97331,3.94662a341.39966,341.39966,0,0,0,40.68312-20.21948c42.37735-24.73108,65.90041-50.82513,71.7954-63.64609.45972-.99984,2.66708-5.95307,6.195-12.52924,3.76493-7.01811,7.23059-12.52326,9.55089-16.05143a26.31727,26.31727,0,0,1-16.86209-7.44823,24.39937,24.39937,0,0,1-5.07686-7.67538c-8.88229,14.90964-17.08536,27.2124-23.63344,36.57077-6.8403,9.776-13.43647,19.94411-24.19274,32.04652-8.75161,9.84684-17.66109,19.55548-27.133,29.10628C1211.43356,480.57374,1202.14915,489.34511,1191.54262,496.9226Z" fill="#333"/>
    <path d="M1544.76465,721.87964c-8.23854,16.85206-24.6861,28.93857-43.41276,30.58626-11.81215,1.03929-25.63276,2.3041-95.62652-28.6919-27.94933-12.37708-41.92411-18.56564-46.59915-22.00749-43.0789-31.71546-52.05863-84.84728-55.17709-103.15716-7.02485-41.24632,1.66088-71.71178,3.71838-78.52128,12.40158-41.04345,36.33383-57.76092,37.77527-58.64748l4.32047-2.65711h0c3.33393-1.61476,5.63387-1.51708,19.44907-9.07609a619.73836,619.73836,0,0,0,76.054-49.7859c4.29722-3.37172,10.26183-8.17353,19.51411-10.47826,13.88421-3.45852,25.99541.99175,31.38347,3.05117,20.87654,7.9794,31.44079,25.10125,34.913,31.39533a108.75846,108.75846,0,0,0-17.8654-6.90583c-6.4566-1.8616-13.79882-3.86131-23.69944-3.92686a75.02672,75.02672,0,0,0-23.45277,4.17353,105.51765,105.51765,0,0,0-18.74642,8.87988c-5.8903,3.51248-11.37615,7.16311-16.77312,10.85319s-12.4023,7.00528-17.74,9.88629c-5.33783,2.881-12.49107,10.14283-13.07316,10.60653-14.71381-1.1395-26.35131,3.8611-29.89565,9.56067-1.64945,2.6526-3.24758,8.19271-3.46931,8.9616-1.10023,3.81413-1.05217,5.2413-.39661,6.477a5.12149,5.12149,0,0,0,3.96552,2.77586c1.69533.05246,2.57985-1.23518,3.43679-.7931.50356.25979.95064,1.09258.70626,3.6042,2.20022.99653-2.2496,1.13467-.98665,2.96,10.00468,2.733,18.16421,10.498,27.6263,13.81315-1.37146,2.67385-4.47944,4.20316-5.91992,6.90658-1.85491,3.473-2.47651,8.78124-1.97331,12.82649-5.49572-4.98258-18.08543,1.59838-23.97573,3.65063-5.90017,2.04239-11.78059,6.63029-16.72373,11.88917-4.93327,5.26876-6.1272,12.21478-9.3042,19.30882-3.16712,7.10392-1.1248,18.0163-2.289,26.32391-1.1643,8.30761,3.66045,17.66113,4.93327,23.67969,0,11.03078,2.78231,19.33839,9.86653,27.6263,6.42313,14.52352,14.17821,32.52013,29.3727,43.63967,15.19437,11.11961,28.49457,20.91707,45.38607,28.613,16.89151,7.696,36.05224,17.60193,54.27583,20.70985C1502.5852,733.09788,1531.04026,737.46875,1544.76465,721.87964Z" fill="#fdcc8b"/>
    <path d="M1399.72654,457.45646c6.03832-1.16425,12.44169-.98666,18.74642-.98666a86.98,86.98,0,0,1,15.78646,0c6.53164,0,19.2595-.67092,20.71973,6.90658,5.74233,4.90364,16.6054,3.08823,19.97973,12.57983,3.38422,9.48173-.19734,16.59552-4.11432,24.9919-3.92693,8.38661-9.80734,10.37961-15.94436,16.61527-6.137,6.22578-19.64425,3.05866-25.574,7.97218-2.92051,19.13123-34.14807,18.04587-36.50618-.98666-5.49567-4.98258-18.08535,1.59838-23.97568,3.65063-5.90019,2.04239-11.78064,6.63029-16.72379,11.88917-5.51277,5.86488-7.11114,12.1507-9.30413,19.30882a75.67316,75.67316,0,0,0-3.372,20.45512,71.29332,71.29332,0,0,0,6.01621,29.54848c.07756-3.37994.76875-14.17977,9.04368-22.414,8.24453-8.204,23.47479-13.32145,32.98557-6.39561,4.787,3.48593,6.58121,8.89861,7.30343,12.03653-7.85306-2.986-15.931-1.549-20.16335,3.44329-.38008.44834-4.52364,5.49-2.89,11.11009,1.65884,5.70674,8.10226,7.97784,9.40573,8.43726,10.93678,3.85484,21.5265-4.96512,37.24834-13.20306.00006-.00006,24.87326-12.5782,39.5451-14.72085a62.00609,62.00609,0,0,1,10.187-.53386,53.49654,53.49654,0,0,1,5.59943.53386c5.07141-.98665,8.04125-9.54093,14.04006-11.61293,5.99887-2.072,15.34251-3.12768,21.15386-4.49914,5.8114-1.37141,18.30241-1.10505,19.072-7.56762-2.35812-9.531-7.78471-18.94376-11.58331-27.88284-3.80846-8.93908-9.44228-17.98668-12.31341-27.15273-2.88108-9.15611-10.31055-22.9397-4.71624-32.77661,1.5885-2.80206.69067-.32555,2.96.98666-1.87466-6.11727,6.88683-5.29833,7.89323-10.85319,2.52583-14.08945,21.65706-8.49508,32.55957-9.86654-1.39181-4.80265-2.986-9.81318-4.81608-14.99588-2.21412-6.27035-4.54141-12.13541-6.89832-17.58419a74.04067,74.04067,0,0,0-29.82459-11.0029,70.7431,70.7431,0,0,0-20.58333.23435,76.819,76.819,0,0,0-14.60975,4.10939,102.75307,102.75307,0,0,0-18.74642,8.87988c-5.89029,3.51254-11.37609,7.16311-16.77311,10.85319-5.397,3.69007-12.40225,7.00522-17.74,9.88629S1400.30869,456.99276,1399.72654,457.45646Z" fill="#ffdaab"/>
    <path d="M1191.54262,496.92261a221.23757,221.23757,0,0,1-26.63965,20.71973c28.978-.592,58.98216-18.57868,82.13892-36.25952,23.15676-17.6907,42.209-39.33788,55.00594-64.37916a294.59207,294.59207,0,0,1-112.47852,83.86557C1189.50024,499.35965,1190.58556,497.99806,1191.54262,496.92261Z" fill="#4d4e4e"/>
    <path d="M1232.98207,418.977c-16.05284,9.45213-29.40226,20.32507-44.6954,31.27694-15.303,10.95183-31.29665,25.08071-30.29028,45.68205C1186.48108,475.67008,1213.90019,448.11285,1232.98207,418.977Z" fill="#333"/>
    <path d="M1386.913,439.5534a264.24887,264.24887,0,0,1-46.90541,20.42393,184.16913,184.16913,0,0,1-44.47454,9.319c-14.494,48.24737-14.66164,103.40125,1.97331,150.958a101.804,101.804,0,0,1-51.96859-59.46416c-15.00447-7.12248-32.39123-5.53-44.80242,4.13258-17.52088,13.64066-16.41105,36.14883-14.72083,42.50508,1.10939,4.17188,8.12562,28.97907,31.50378,39.53518,3.84981,1.73842,20.30066,9.16654,35.74988,2.11177,2.63265-1.2022,11.71684-5.35039,16.36628-15.10785a27.94876,27.94876,0,0,0,2.2189-6.806,446.936,446.936,0,0,0,27.1009,39.021c.0001,0,15.68591,20.20866,31.11161,35.96467,45.02414,45.98836,170.22523,53.55413,170.69112,50.31935.2702-1.8759-40.46123-4.85306-95.62648-28.69191-28.85965-12.47125-48.55324-30.53691-69.39136-54.927-20.82824-24.39-29.45153-59.38669-31.32618-92.00545-1.87476-32.61876,3.65053-74.13718,27.54739-96.771,6.18353-5.85668,8.20791-5.19112,36.56773-25.04529,16.27671-11.395,29.37119-21.16723,38.1107-27.81912C1401.69653,430.62945,1395.04309,434.97482,1386.913,439.5534Z" fill="#cca370"/>
    <path d="M1418.473,456.46981h15.78646A86.9773,86.9773,0,0,0,1418.473,456.46981Z" fill="#8d8d8d"/>
    <path d="M1448.07257,478.06187c-6.63028,1.30239-8.3076,10.38946-13.56649,14.05981s-10.01455,11.455-16.03312,12.57984c8.21884,2.9994,12.10626,12.52063,10.85319,20.71972,5.9298-4.91351,19.43709-1.74639,25.574-7.97217,6.137-6.23566,12.01743-8.22866,15.94436-16.61525,3.917-8.3964,7.49854-15.5102,4.11432-24.99192-3.37433-9.49161-14.2374-7.67617-19.97973-12.57984v14.79981C1452.7,477.85468,1450.34186,478.33813,1448.07257,478.06187Z" fill="#fff"/>
    <path d="M1499.37856,476.20288c1.86479.46373,2.06214,2.585,2.96,3.94662,2.33837.16774,7.16312-3.917,7.89323-3.94662,1.1248-2.54555-.37493-7.07432,0-9.86653-1.0064,5.55486-9.76789,4.73592-7.89323,10.85319C1500.06923,475.8773,1500.96706,473.40079,1499.37856,476.20288Z" fill="#fff"/>
    <path d="M1511.16844,474.322c-2.39581.361-3.46726.976-6.60234,1.27408a29.43749,29.43749,0,0,1-5.55992,0q5.41207,7.724,10.86174,16.30448,3.8331,6.05786,7.27043,11.92861a14.59858,14.59858,0,0,1,18.74642-2.96c-4.43007-6.09752,7.65644-16.58565,3.94661-24.66635h3.94661c-5.36806-.6396-9.75259-.87337-12.80674-.9669-5.68338-.17409-6.06927.15838-10.189-.219C1515.46975,474.53025,1514.4601,473.82609,1511.16844,474.322Z" fill="#cca370"/>
    <path d="M1374.07355,488.04273c2.20025.99653-2.24957,1.13464-.98666,2.96,10.00469,2.733,18.16427,10.498,27.62631,13.81315-1.37147,2.67385-4.47939,4.20316-5.91993,6.90658,4.73593-7.49855,15.895-9.74815,23.67969-6.90658,6.01857-1.1248,10.77424-8.90948,16.03312-12.57983s6.93621-12.75743,13.56649-14.05982C1421.65,474.92025,1398.23669,478.20579,1374.07355,488.04273Z" fill="#fff"/>
    <path d="M1535.88475,500.86923c3.78877,2.31864,6.56127,7.538,6.90657,11.83984,1.28264,1.98318,6.24554,4.45969,7.89323,6.90658a340.76259,340.76259,0,0,0-3.94661-43.41277c-.84851-.296-2.141.37494-2.96,0h-3.94662C1543.54119,484.28358,1531.45468,494.77171,1535.88475,500.86923Z" fill="#fff"/>
    <path d="M1550.68455,519.61564c-1.64769-2.44689-6.61059-4.9234-7.89323-6.90658.81894,7.21244-5.26875,13.30007-11.83984,14.79981,8.31748,18.08537,25.89966,42.00185,7.89323,60.18587a79.577,79.577,0,0,1,21.43551,2.47549,113.58292,113.58292,0,0,0-9.59567-70.55459Z" fill="#ffdaab"/>
    <path d="M1217.19561,539.34872a75.21537,75.21537,0,0,1,7.89323,0A23.29707,23.29707,0,0,0,1217.19561,539.34872Z" fill="#898989"/>
    <path d="M1186.28669,608.41655c-.40008-3.21027-2.24242-20.53729,9.7394-34.6561,11.47516-13.52178,31.02932-18.6795,49.51171-12.97028-.30164-2.445-1.87172-13.01527-10.48167-18.454-3.84591-2.4294-7.6556-2.92479-10.79394-3.3329a36.385,36.385,0,0,0-19.226,2.68707c-10.74677,4.83658-15.603,14.15481-17.94266,18.64443C1176.28013,581.08394,1184.39253,603.5257,1186.28669,608.41655Z" fill="#fdcc8b"/>
    <path d="M1473.72557,587.69474c12.80674,1.45035,25.16954,15.20431,38.40054,9.78759,13.24094-5.40685,19.072-20.51251,15.86541-33.46728-.76962,6.46257-13.26063,6.19621-19.072,7.56762-5.81135,1.37146-15.155,2.42719-21.15386,4.49914C1481.76682,578.15381,1478.797,586.70809,1473.72557,587.69474Z" fill="#cca370"/>
    <path d="M1249.75519,625.18758c.19132-1.56267-6.99766-1.61193-12.57984-8.13989-1.12594-1.31673-7.29319-8.52886-4.41034-15.75683,2.49117-6.246,9.91038-7.9154,10.80679-8.103.122-.58366,2.02055-10.39889-4.32576-16.08708-6.54637-5.86753-16.62516-2.64664-21.74989.66863-9.23576,5.97466-9.99093,17.17839-10.16707,19.79185a29.44238,29.44238,0,0,0,11.75427,25.56519C1232.01785,632.4774,1249.46245,627.57864,1249.75519,625.18758Z"/>
    <path d="M1355.32713,637.02743c6.42312,14.52352,14.17821,32.52013,29.3727,43.63967,15.19443,11.11961,28.49456,20.91707,45.38606,28.613,16.89151,7.69595,36.05231,17.60193,54.27583,20.70985,18.22347,3.108,46.67859,7.47885,60.40291-8.11026a251.694,251.694,0,0,0,12.8265-62.15918c-14.72086-1.37147-28.8103-7.58737-40.4528-16.77312a41.20625,41.20625,0,0,1-6.90658-6.90657c-1.17412-2.05226-3.27569-3.53224-3.94661-5.91992C1469.90722,670.18885,1393.56,681.76234,1355.32713,637.02743Z" fill="#ffdaab"/>
    <path d="M1517.13833,642.94735c-2.12133-1.96343-4.89383-4.73592-6.90658-6.90657A41.20625,41.20625,0,0,0,1517.13833,642.94735Z" fill="#878787"/>
    <path d="M1477.67218,671.5603a39.86889,39.86889,0,0,0,21.20107,11.75584c3.11136.46177,12.92279,1.918,22.00514-3.87646,4.814-3.07119,12.33612-10.03787,11.04-16.72963a4.52034,4.52034,0,0,0-1.42686-3.04217c-4.2046-3.12044-12.14161,9.47667-23.98013,10.25255-13.71006.89856-23.55588-14.65334-29.52723-10.57689a7.14743,7.14743,0,0,0-2.73269,4.97891C1474.04221,666.65654,1475.20579,668.89964,1477.67218,671.5603Z"/>
    <g>
      <path d="M1269.46745,693.20105c.38849,24.072,31.0947,58.28142,31.09481,58.28147A124.651,124.651,0,0,0,1324.613,781.113c19.93071,17.99709,40.50178,24.72322,51.085,28.06073a153.06853,153.06853,0,0,0,39.97322,6.93442,1.43916,1.43916,0,0,1-.22325.33383c-.845.94172-2.49028.11418-3.31072.71972-.44844.331-.82164,1.1674-.32983,3.47006A21.0923,21.0923,0,0,0,1416.76,819.392a20.52314,20.52314,0,0,0,3.205-1.66886,34.43718,34.43718,0,0,0,3.75732-2.57637,32.983,32.983,0,0,0,5.5371-5.61761,227.15953,227.15953,0,0,1-85.36827-44.15708c-.00011,0-27.38237-21.64289-67.38833-71.31994-1.60142-1.9885-3.00378-4.07869-3.00378-4.0788a47.649,47.649,0,0,1-3.19861-5.66879c-.20026.96655-.41679,2.18979-.5792,3.61453A46.566,46.566,0,0,0,1269.46745,693.20105Z" fill="#ffdaab"/>
      <path d="M1263.61353,733.14355a132.2219,132.2219,0,0,0,21.81708,39.64154c25.093,31.26362,56.93625,41.29311,69.82288,45.15588,16.19637,4.85485,43.36916,12.99987,64.99866-.41586,1.49733-.92876,2.68219-1.78341,3.47022-2.37828-79.81827,5.67914-141.9784-76.91066-154.1993-124.68027C1269.24225,705.92934,1269.19563,717.88932,1263.61353,733.14355Z" fill="#fdcc8b"/>
      <path d="M1355.25349,817.941c-27.03726-12.42409-45.12758-26.22006-56.00262-35.76371-9.13157-8.01361-14.03017-13.77917-17.9163-19.433a95.798,95.798,0,0,1-15.20788-37.60209c-10.72671,31.06152-9.059,41.41824-4.882,44.64407,1.28309.99094,1.999,2.38679,17.99556,12.58423,13.53272,8.6268,20.29914,12.94018,24.77467,15.34627a244.7613,244.7613,0,0,0,31.5569,13.955C1343.3043,814.48212,1350.0422,816.51,1355.25349,817.941Z" fill="#cca370"/>
    </g>
    <rect x="1429.05503" y="518.64284" width="12.23199" height="12.32625" fill="#fff"/>
    <polygon points="1258.565 562.375 1328.695 501.979 1328.695 472.91 1258.565 532.998 1258.565 562.375"/>
    <g>
      <path d="M1319.20707,453.45269V481.9045h24.10757v48.98085h12.232v12.26377h98.00408V530.88535h12.24258V518.64284h12.26377V477.93543h39.41679l.153,52.94992h9.411v12.26377h54.30329V453.45269Zm146.58623,52.94756h-12.24258v12.24259H1441.287v12.24251h-12.232V518.64284h12.232V506.40025h-12.232V494.14708h12.232v12.25317h12.2637V494.14708h12.24258Z"/>
      <rect x="1551.59798" y="521.95335" width="8.94679" height="9.01573" fill="#fff"/>
      <rect x="1560.57363" y="512.97771" width="8.94679" height="9.01573" fill="#fff"/>
      <rect x="1569.53097" y="504.02036" width="8.94679" height="9.01573" fill="#fff"/>
      <rect x="1551.59798" y="504.02036" width="8.94679" height="9.01573" fill="#fff"/>
      <rect x="1328.69518" y="481.87285" width="14.63976" height="13.8644"/>
      <rect x="1328.69518" y="495.73725" width="16.61417" height="11.98184"/>
    </g>
    <circle cx="1206.52139" cy="349.41789" r="16.94043"/>
    <circle cx="1278.20083" cy="312.25106" r="16.94043"/>
    <circle cx="1355.52893" cy="284.79207" r="16.94043"/>
    <circle cx="1436.89337" cy="267.85165" r="16.94043"/>
    <path d="M1371.1136,358.79109c-5.14042,4.812-9.90965,10.09339-9.90977,10.09348-1.541,1.57494-3.1228,3.32953-4.69913,5.277a75.48747,75.48747,0,0,0-8.0651,12.22944c4.69768-2.59842,11.53561-6.36582,19.83183-10.88221,9.58784-5.21953,14.38176-7.82928,16.55271-8.95,11.91753-6.15232,22.02748-10.34391,41.761-18.476,9.08066-3.74208,13.62093-5.61313,16.605-6.73386,12.87166-4.83442,32.33723-10.41383,59.14839-12.15748,8.04125-2.37784,15.52-6.62044,23.67969-8.87988a162.41173,162.41173,0,0,0-75.00893-2.92513C1451.00918,317.3865,1405.69237,326.42178,1371.1136,358.79109Z" fill="#1a1a1a"/>
  </g>
</svg>
