<svg width="202" height="201" viewBox="0 0 202 201" fill="none" xmlns="http://www.w3.org/2000/svg">
<path d="M130.493 0.279352C125.396 -0.192757 121.491 1.05331 118.527 3.42027C117.996 3.58118 117.526 3.90052 117.181 4.33557C93.3382 33.2336 67.3564 60.4359 41.8659 87.8533C30.6638 99.8904 19.42 111.886 8.25966 123.958C-1.53573 134.556 -2.04315 148.816 6.09826 160.625C14.0341 172.139 26.7746 172.399 38.8984 168.786C44.5208 167.107 50.1379 165.408 55.7496 163.689C55.7449 164.132 55.8301 164.571 56.0001 164.98C59.398 173.298 63.7016 181.147 67.0737 189.504C68.2813 192.497 70.2821 196.727 73.3331 198.39C83.9796 204.187 98.1556 197.777 108.764 194.601C115.88 192.468 128.335 190.49 131.004 181.95C134.832 169.772 129.331 154.16 126.392 142.011C146.719 135.746 167.072 129.55 187.451 123.422C187.65 123.359 187.844 123.28 188.029 123.184C206.888 118.277 202.555 84.6224 197.462 69.6692C191.276 51.4466 179.714 35.1766 166.412 21.4631C156.934 11.6902 144.528 1.58968 130.493 0.279352ZM165.66 55.3583C175.125 69.4412 191.324 100.934 179.329 116.963C175.594 116.533 171.955 115.497 168.554 113.896C141.978 101.638 126.414 69.438 118.321 43.1093C116.324 35.7932 114.914 23.5346 118.045 15.2133C133.181 12.8977 160.865 48.1997 165.66 55.3583ZM109.271 23.0175C109.551 23.0079 109.821 22.9124 110.044 22.7441C110.268 22.5757 110.434 22.3426 110.52 22.0765C110.549 22.0475 110.578 22.0187 110.581 21.9577C109.916 29.5811 110.543 37.2622 112.438 44.6765C121.427 73.8539 140.269 111.735 171.981 121.781C168.32 122.873 164.67 123.978 161.032 125.098C142.771 123.313 126.068 98.9847 117.91 86.0677C110.048 73.6131 96.5081 49.1021 101.403 32.01C104.045 29.0253 106.667 26.0278 109.271 23.0175ZM54.8408 82.7533C68.9236 67.5913 83.1318 52.4711 96.9577 37.0265C95.6217 54.4205 107.126 75.4565 114.75 87.8597C122.554 100.571 137.231 121.26 154.131 127.189C136.679 132.527 119.234 137.885 101.798 143.263C85.9644 148.125 70.128 152.974 54.2884 157.808C48.9731 159.424 43.2147 161.72 37.4595 163.223C22.5866 162.282 9.27774 138.651 15.5661 125.22C17.4192 122.995 19.359 120.869 21.2024 118.884C32.4109 106.834 43.6419 94.8128 54.8375 82.7501L54.8408 82.7533ZM85.4794 154.59C91.6008 152.717 97.7178 150.835 103.831 148.944C105.118 152.686 106.355 156.434 107.392 160.259C108.117 162.908 108.637 165.61 108.947 168.339C109.448 172.778 108.349 174.21 103.972 175.517C97.1279 177.55 86.8508 183.646 81.5773 176.67C77.6463 171.455 77.0137 164.013 74.1296 158.046L85.4794 154.59ZM12.393 158.826C3.29774 149.834 5.30498 140.472 10.5624 132.048C10.1095 144.487 18.0904 159.148 28.9874 164.668C23.0266 165.028 17.3164 163.692 12.393 158.826ZM125.432 168.503C128.094 184.802 115.27 186.321 103.285 189.912C92.6831 193.088 77.2385 198.686 71.6728 184.911C68.5222 177.104 64.4306 169.781 61.2511 162.003L68.2652 159.857C73.1212 168.49 73.1083 179.076 81.7957 185.232C88.3249 189.835 101.406 182.605 107.733 180.723C121.327 176.68 113.141 156.945 109.602 147.156L120.537 143.787C122.419 151.989 124.076 160.204 125.432 168.503ZM165.085 28.7887C175.26 39.2778 183.112 51.8705 189.172 65.0798C194.863 77.5216 198.804 92.8377 195.573 106.391C193.887 113.466 189.195 116.398 183.713 116.966C193.842 99.2577 178.699 68.8599 168.837 53.5502C163.727 45.6143 137.581 12.7821 120.129 11.2662C122.834 7.54719 127.14 5.53995 133.782 6.77962C146.076 9.10483 156.777 20.2234 165.085 28.7887Z" fill="#DADAD9"/>
</svg>
