<?xml version="1.0" standalone="no"?>
<!DOCTYPE svg PUBLIC "-//W3C//DTD SVG 20010904//EN"
 "http://www.w3.org/TR/2001/REC-SVG-20010904/DTD/svg10.dtd">
<svg version="1.0" xmlns="http://www.w3.org/2000/svg"
 width="4001.000000pt" height="4001.000000pt" viewBox="0 0 4001.000000 4001.000000"
 preserveAspectRatio="xMidYMid meet">

<g transform="translate(0.000000,4001.000000) scale(0.100000,-0.100000)"
fill="#000000" stroke="none">
<path d="M12230 29244 c-433 -37 -789 -207 -1091 -521 -48 -49 -99 -108 -114
-131 l-27 -41 -86 75 c-387 335 -888 486 -1394 419 -428 -56 -811 -247 -1084
-539 -190 -202 -330 -455 -396 -711 -12 -49 -23 -92 -25 -93 -1 -2 -44 22 -95
53 -281 170 -568 258 -893 272 -456 19 -908 -136 -1268 -437 -265 -222 -468
-557 -562 -930 -27 -107 -55 -303 -55 -387 l0 -56 -119 6 c-646 32 -1224 -246
-1548 -745 -260 -401 -342 -950 -212 -1422 126 -459 449 -860 861 -1067 78
-39 78 -39 119 -121 72 -144 203 -377 349 -623 348 -585 439 -766 496 -991 45
-180 39 -379 -16 -546 -30 -89 -40 -100 -140 -168 -197 -132 -326 -308 -397
-537 -25 -81 -27 -102 -27 -263 -1 -142 3 -188 18 -245 76 -280 253 -500 502
-624 103 -51 186 -76 325 -97 63 -9 115 -18 117 -19 1 -1 9 -58 17 -126 64
-522 188 -953 400 -1384 51 -104 99 -210 105 -235 17 -59 17 -200 1 -275 -32
-150 -123 -324 -234 -448 -153 -171 -264 -367 -314 -553 -23 -87 -26 -118 -26
-259 0 -141 3 -172 26 -260 15 -55 47 -142 72 -194 139 -287 363 -468 735
-592 213 -71 400 -99 660 -99 l165 0 19 -58 c65 -200 322 -588 588 -889 213
-241 496 -484 792 -682 665 -446 1279 -708 2001 -855 600 -122 1252 -149 1840
-75 431 55 916 180 1099 284 203 115 346 280 427 490 39 99 53 170 83 408 13
103 26 190 28 193 3 3 55 16 114 30 215 48 389 107 587 198 42 19 77 32 77 27
0 -5 5 -55 10 -112 32 -318 147 -571 345 -757 130 -123 292 -203 477 -236 112
-20 1349 -33 1573 -17 178 13 327 36 399 61 48 16 58 17 107 4 74 -19 295 -50
469 -66 199 -18 1134 -18 1325 0 184 17 329 38 438 64 l88 20 137 -46 c268
-89 545 -125 810 -106 188 13 376 48 504 92 32 11 64 10 200 -4 200 -22 825
-34 1013 -20 72 5 133 7 136 3 3 -3 2 -89 -2 -191 -23 -582 -30 -960 -20
-1047 15 -135 54 -213 125 -250 138 -72 497 5 1131 242 223 84 395 158 735
318 330 154 414 197 515 257 243 147 375 344 415 619 11 69 15 81 29 76 9 -4
54 -18 101 -31 316 -92 700 -91 1023 4 l92 27 90 -34 c423 -159 924 -161 1320
-4 417 164 756 477 961 885 l54 107 -26 2562 c-14 1408 -23 2563 -21 2566 3 2
56 -11 118 -30 249 -76 532 -131 829 -163 190 -21 618 -23 805 -5 247 24 613
88 765 135 41 12 55 12 130 -5 145 -32 428 -77 600 -96 235 -25 793 -25 965 0
163 24 322 61 443 101 97 33 109 35 349 47 430 21 822 1 1313 -67 320 -45 550
-55 664 -29 123 27 221 82 307 172 121 127 189 283 226 514 17 107 18 231 18
1974 0 1490 -3 1883 -13 1975 -67 569 -304 1065 -680 1422 -363 343 -872 563
-1378 595 l-102 6 -5 261 c-3 224 -7 272 -25 338 -52 193 -133 331 -277 473
-150 149 -326 243 -522 281 -97 18 -283 18 -371 -1 -114 -24 -330 -53 -637
-85 -482 -51 -691 -88 -905 -162 -485 -167 -730 -507 -730 -1017 l0 -113 -42
6 c-102 14 -435 27 -568 21 -316 -14 -580 -50 -835 -115 -238 -61 -461 -142
-648 -237 l-69 -34 -67 63 c-171 164 -373 260 -650 310 -90 16 -159 21 -311
21 -264 1 -474 -30 -715 -104 l-100 -31 -65 16 c-204 50 -454 61 -1150 48
-530 -9 -570 -11 -645 -32 -107 -29 -265 -105 -348 -168 l-68 -52 -97 49
c-237 119 -516 196 -862 238 -204 25 -677 25 -880 0 -355 -44 -658 -121 -879
-223 -41 -19 -78 -34 -82 -34 -5 0 -9 62 -9 138 0 552 -178 920 -529 1096
-256 129 -559 165 -1209 146 -186 -6 -470 -10 -632 -9 -266 0 -303 -2 -372
-20 -180 -47 -312 -126 -450 -269 -112 -116 -210 -267 -321 -493 l-91 -186
-97 196 c-217 437 -404 634 -699 734 l-95 32 -1075 3 -1075 3 -299 -126 c-275
-116 -301 -125 -331 -115 -32 11 -32 11 -82 203 l-50 192 19 30 c137 217 208
407 239 640 15 113 6 383 -16 480 -72 326 -252 611 -503 800 -151 113 -366
211 -541 247 l-64 13 -52 80 c-266 412 -719 702 -1190 764 -95 12 -272 20
-335 15z m366 -265 c424 -81 793 -348 1007 -730 l47 -85 87 -13 c182 -26 386
-111 534 -223 192 -145 328 -353 397 -606 24 -89 26 -113 26 -292 -1 -178 -3
-204 -26 -291 -47 -174 -117 -322 -206 -435 -21 -27 -41 -54 -45 -60 -5 -9 53
-249 147 -603 l12 -43 134 -44 135 -43 321 134 320 135 1010 0 c1121 0 1062 3
1204 -67 56 -28 98 -60 166 -128 150 -147 237 -297 433 -738 54 -122 116 -260
138 -307 l40 -85 20 45 c11 25 78 173 147 330 142 317 212 456 291 575 99 149
232 274 347 325 105 46 148 51 448 50 157 0 439 4 627 10 586 18 865 -12 1076
-115 163 -80 273 -211 336 -400 45 -136 62 -249 68 -460 5 -170 -14 -538 -33
-622 -2 -13 0 -23 6 -23 5 0 73 47 151 105 98 74 178 124 263 165 352 171 846
261 1361 247 537 -15 960 -125 1262 -328 l74 -50 98 93 c105 102 196 157 326
198 66 22 95 23 530 32 519 10 870 5 1025 -17 121 -16 159 -26 205 -54 l34
-20 98 35 c236 85 483 127 738 127 302 0 515 -56 700 -184 85 -58 130 -105
200 -204 26 -38 52 -74 56 -78 4 -5 60 22 124 59 298 171 631 286 1005 348
237 39 363 49 625 49 244 0 377 -9 610 -43 71 -11 131 -18 133 -16 1 2 -2 54
-9 115 -17 165 -7 425 21 525 85 314 291 483 713 586 156 38 320 63 672 100
307 32 523 61 637 85 342 72 702 -103 857 -419 73 -147 74 -158 79 -562 l3
-361 166 -7 c367 -15 636 -78 919 -216 529 -257 903 -745 1034 -1345 56 -260
53 -162 58 -2090 2 -1197 0 -1826 -7 -1921 -24 -321 -117 -513 -284 -590 -61
-28 -65 -29 -232 -28 -138 0 -219 7 -430 37 -425 59 -601 71 -1020 71 -445 0
-602 -12 -718 -53 -112 -39 -268 -76 -412 -98 -96 -14 -184 -18 -440 -18 -400
1 -638 24 -1010 102 -93 19 -174 36 -180 36 -5 0 -73 -16 -150 -36 -864 -222
-1729 -167 -2587 166 l-68 26 0 -287 c0 -158 11 -1378 25 -2711 l24 -2425 -51
-98 c-108 -207 -319 -441 -515 -571 -167 -112 -363 -192 -568 -234 -139 -28
-442 -25 -593 5 -135 27 -295 78 -380 121 l-61 31 -118 -39 c-219 -73 -425
-99 -634 -81 -221 19 -389 66 -616 175 -75 36 -138 63 -141 61 -2 -3 2 -64 8
-137 41 -435 -61 -619 -450 -814 -154 -77 -706 -333 -820 -380 -451 -186 -937
-337 -1115 -347 l-50 -3 -8 60 c-8 59 3 507 27 1155 7 179 12 327 10 328 -1 2
-78 -4 -171 -13 -355 -35 -916 -31 -1280 11 l-132 15 -98 -31 c-425 -132 -913
-106 -1294 67 l-77 35 -38 -20 c-72 -36 -232 -67 -479 -92 -166 -17 -936 -24
-1160 -11 -341 20 -579 55 -679 99 l-44 20 -45 -30 c-120 -78 -388 -95 -1267
-81 -719 11 -697 9 -847 84 -214 107 -362 332 -414 629 -18 106 -16 312 5 467
9 73 16 140 14 148 -2 12 -34 -4 -131 -65 -362 -229 -630 -334 -1020 -399 -64
-11 -121 -22 -126 -25 -4 -3 -11 -44 -15 -91 -10 -139 -56 -485 -72 -550 -22
-86 -85 -211 -141 -278 -127 -153 -264 -221 -638 -317 -1011 -261 -2207 -178
-3230 225 -166 65 -535 249 -680 339 -324 201 -397 248 -518 339 -380 284
-645 564 -914 964 -146 217 -208 348 -252 538 l-12 50 -297 0 c-271 0 -307 2
-411 23 -130 26 -284 76 -396 127 -366 167 -564 535 -487 907 36 172 123 325
299 529 111 128 203 306 249 486 21 79 26 122 26 223 0 169 -19 237 -132 464
-98 199 -131 278 -196 468 -103 305 -172 640 -208 1021 -7 81 -15 149 -17 151
-2 1 -75 10 -162 20 -86 10 -193 26 -237 37 -328 78 -550 362 -550 704 0 258
119 469 351 621 109 72 152 124 195 239 48 131 67 245 67 415 0 176 -11 246
-73 433 -69 206 -150 364 -448 867 -194 329 -318 551 -398 714 l-54 108 -127
64 c-439 218 -739 643 -804 1139 -14 111 -7 335 16 465 23 129 84 310 146 432
199 386 568 649 1025 729 167 29 404 29 569 -1 66 -12 135 -24 153 -27 l33 -6
-7 174 c-13 348 50 629 203 902 321 573 1015 888 1664 757 310 -63 549 -187
817 -426 70 -62 128 -111 130 -110 1 2 9 75 17 162 18 187 36 284 77 413 122
384 388 685 758 859 446 210 930 217 1347 17 215 -102 371 -224 532 -415 56
-66 104 -120 106 -120 2 0 25 39 51 88 109 202 204 322 352 445 335 279 739
386 1158 306z"/>
<path d="M12186 28244 c-84 -20 -173 -66 -255 -130 -82 -63 -130 -122 -171
-209 -113 -237 -63 -510 127 -704 l75 -76 -12 -50 c-7 -27 -30 -95 -51 -151
-103 -266 -276 -455 -474 -517 -55 -17 -94 -22 -185 -22 -162 0 -267 32 -438
132 -104 61 -182 122 -304 241 l-107 105 20 28 c11 16 35 61 53 101 134 293
58 646 -188 875 -89 82 -162 127 -267 165 -173 61 -351 59 -541 -6 -132 -45
-198 -86 -298 -186 -69 -68 -94 -102 -127 -170 -62 -127 -77 -193 -77 -345 0
-142 14 -210 64 -321 67 -149 176 -264 316 -336 l82 -42 -5 -36 c-37 -281
-217 -664 -397 -844 -161 -162 -497 -252 -747 -202 -169 35 -319 117 -461 255
l-82 78 22 69 c32 101 42 166 42 268 0 349 -237 666 -588 787 -95 33 -101 34
-262 34 -161 0 -167 -1 -260 -33 -144 -50 -232 -104 -330 -202 -69 -68 -95
-104 -134 -178 -71 -138 -98 -255 -98 -417 0 -163 28 -281 99 -418 39 -75 66
-110 148 -192 85 -85 115 -108 200 -152 55 -28 119 -57 142 -64 24 -6 45 -19
47 -28 31 -104 40 -389 17 -511 -47 -255 -167 -464 -328 -573 -186 -128 -407
-137 -667 -29 -50 21 -110 50 -132 65 l-41 26 25 83 c35 118 37 273 3 376 -93
286 -400 467 -761 449 -330 -16 -574 -189 -658 -467 -27 -90 -45 -242 -38
-314 40 -360 310 -636 647 -662 l84 -7 50 -126 c27 -69 97 -223 156 -341 101
-203 158 -303 441 -782 233 -392 352 -634 433 -883 75 -226 105 -412 105 -642
0 -534 -207 -1019 -524 -1229 l-59 -39 49 -9 c27 -5 159 -9 294 -10 243 0 311
6 528 50 l32 7 0 -229 c0 -694 81 -1229 251 -1656 21 -54 75 -170 120 -260
135 -270 185 -451 196 -708 15 -366 -103 -751 -336 -1096 -44 -66 -112 -155
-152 -199 -83 -94 -101 -125 -97 -168 4 -40 45 -65 176 -107 241 -78 614 -59
931 46 204 69 414 182 600 323 50 39 94 71 97 71 8 0 -7 -133 -27 -230 -10
-52 -48 -187 -84 -300 -107 -334 -124 -461 -85 -615 22 -88 38 -117 167 -305
243 -358 567 -664 953 -899 58 -36 152 -94 210 -130 956 -595 2381 -775 3486
-439 l101 30 22 182 c37 310 41 379 51 831 6 242 13 460 16 485 l6 45 137 -17
c427 -54 835 -40 1136 39 278 72 479 185 665 372 267 268 440 658 554 1247 32
166 70 433 91 639 8 88 18 179 21 203 l5 42 69 0 c269 0 587 101 821 261 209
143 327 300 413 549 91 260 88 461 -10 660 -149 302 -489 408 -752 234 -52
-34 -60 -54 -22 -54 54 0 137 -45 201 -109 102 -102 139 -226 105 -345 -44
-152 -209 -212 -416 -152 -68 20 -84 34 -199 168 -50 59 -120 133 -156 165
l-64 58 11 145 c11 153 5 891 -7 923 -6 15 0 17 69 17 l76 0 0 980 0 980 -229
0 -229 0 -4 23 c-3 12 -18 69 -33 127 -25 97 -27 110 -16 169 15 80 55 160
141 281 87 122 120 182 168 305 66 166 110 339 131 515 15 120 13 387 -4 507
-100 707 -571 1265 -1239 1467 -121 37 -330 76 -406 76 -26 0 -52 6 -57 13
-11 13 -77 242 -167 580 -55 204 -261 1023 -268 1062 -3 17 5 21 61 27 251 28
406 317 309 577 -29 78 -121 169 -203 201 -51 21 -78 24 -185 25 -120 0 -127
-1 -193 -32 -164 -78 -258 -252 -274 -508 -7 -130 9 -255 52 -380 19 -55 32
-101 31 -103 -2 -2 -31 20 -65 48 -147 122 -249 310 -312 576 l-20 87 66 66
c107 105 166 204 191 320 19 91 17 154 -6 245 -31 124 -82 208 -185 312 -76
76 -105 98 -185 137 -52 26 -127 54 -165 62 -87 18 -211 18 -289 -1z m293
-405 c56 -23 115 -82 137 -135 21 -50 18 -147 -6 -193 -73 -144 -302 -176
-419 -60 -55 55 -74 111 -69 197 4 85 35 138 104 178 84 49 160 53 253 13z
m-2553 -197 c53 -27 99 -73 127 -126 18 -34 22 -57 22 -141 0 -87 -3 -107 -26
-156 -57 -122 -153 -188 -283 -197 -141 -9 -255 54 -307 170 -35 77 -34 201 2
278 42 89 116 151 224 187 60 19 190 12 241 -15z m2475 -783 c39 -68 114 -188
165 -267 52 -79 94 -144 94 -145 0 -1 -107 -3 -238 -4 -130 -2 -282 -7 -337
-12 -55 -5 -101 -8 -103 -6 -1 1 19 29 46 61 105 128 207 293 268 436 15 37
30 66 31 64 2 -2 35 -59 74 -127z m-2012 -528 c46 -34 104 -73 128 -88 24 -14
41 -29 36 -33 -4 -4 -62 -19 -128 -35 -161 -37 -449 -122 -617 -183 -76 -27
-138 -48 -138 -47 0 2 20 72 45 158 24 85 56 216 71 291 28 135 28 136 55 136
48 0 132 21 194 49 l60 27 105 -106 c58 -59 143 -135 189 -169z m-3246 221
c80 -37 145 -101 184 -180 25 -51 28 -67 28 -162 0 -93 -3 -111 -27 -163 -36
-76 -126 -170 -197 -204 -51 -25 -66 -28 -166 -28 -104 0 -114 2 -176 32 -76
38 -150 110 -182 181 -18 39 -22 65 -22 153 0 101 1 108 37 181 98 196 328
281 521 190z m6002 -467 c79 -21 130 -55 144 -97 11 -32 28 -120 75 -380 l23
-127 -26 -5 c-14 -3 -93 -12 -176 -21 -82 -9 -159 -17 -170 -18 -18 -3 -20 3
-21 67 -1 39 -9 90 -18 114 -57 157 -222 264 -383 249 -235 -22 -398 -265
-325 -482 11 -33 19 -61 18 -63 -2 -1 -97 -20 -212 -42 -245 -46 -468 -95
-684 -150 -85 -22 -158 -40 -161 -40 -4 0 -5 8 -2 19 7 28 -14 129 -38 178
-33 69 -103 139 -175 174 -231 114 -509 -43 -531 -300 -7 -86 9 -153 53 -227
19 -31 33 -58 32 -59 -2 -1 -39 -14 -83 -30 -238 -84 -676 -258 -931 -371 -8
-4 -13 19 -15 73 -7 141 -87 260 -217 321 -49 23 -70 27 -152 27 -82 0 -103
-4 -152 -27 -76 -35 -138 -95 -179 -170 -33 -60 -34 -68 -34 -168 0 -96 3
-110 29 -161 15 -32 50 -79 77 -105 l49 -48 -198 -101 c-200 -103 -498 -266
-680 -374 l-100 -59 -4 67 c-7 125 -82 238 -200 302 -60 33 -68 34 -168 34
-96 0 -110 -3 -161 -29 -71 -35 -139 -104 -176 -176 -25 -50 -28 -64 -28 -160
0 -90 4 -112 24 -152 33 -68 96 -135 158 -170 30 -17 51 -34 46 -38 -4 -3 -78
-55 -163 -115 -85 -60 -292 -211 -460 -335 -467 -346 -747 -547 -754 -539 -2
2 -33 75 -70 162 -64 151 -142 303 -213 415 -34 52 -34 53 -14 70 390 339 597
509 856 703 877 659 1892 1242 2809 1614 428 173 739 274 1261 409 551 142
837 200 1295 265 593 83 991 110 1125 76z m-5624 -616 c76 -72 141 -116 229
-158 118 -56 186 -73 328 -78 l123 -5 -228 -120 c-125 -66 -349 -185 -497
-264 -147 -79 -271 -144 -274 -144 -7 0 7 225 29 464 10 115 19 215 19 221 0
6 21 16 46 23 53 14 122 53 149 82 10 11 21 20 25 20 4 0 27 -19 51 -41z
m5878 -290 c-50 -70 -128 -145 -191 -181 -51 -30 -98 -45 -323 -98 -668 -159
-1590 -452 -2238 -711 -544 -217 -1144 -491 -1502 -684 -899 -485 -1747 -1028
-2556 -1636 l-197 -148 -31 87 c-17 48 -48 125 -69 172 l-38 85 157 117 c745
553 1625 1112 2479 1575 1067 578 2371 1055 3600 1317 314 67 848 162 923 165
l28 1 -42 -61z m-8288 -421 c71 -32 125 -86 157 -157 21 -45 26 -72 27 -136 0
-71 -4 -88 -33 -147 -37 -76 -82 -120 -162 -157 -47 -22 -68 -26 -145 -26 -78
1 -97 5 -142 28 -72 37 -114 76 -149 139 -26 48 -29 62 -29 148 0 80 4 102 23
138 29 54 93 125 139 153 90 56 215 62 314 17z m454 -814 c118 -29 286 -56
494 -81 l44 -5 -64 -65 c-86 -87 -234 -210 -341 -284 l-88 -60 -14 33 c-121
290 -203 509 -188 503 9 -3 80 -22 157 -41z m8112 -1090 c263 -53 503 -180
699 -367 98 -93 216 -240 271 -337 52 -92 193 -457 246 -637 l16 -53 -1997 0
-1997 1 120 51 c189 82 446 215 620 322 358 220 792 518 1130 776 222 168 358
233 550 260 80 12 246 4 342 -16z m-3618 -1831 l0 -168 -276 -235 c-151 -129
-308 -263 -348 -297 l-72 -62 18 122 c11 67 30 178 44 247 25 120 112 470 119
477 2 2 43 8 92 13 101 12 397 60 403 66 17 16 21 -16 20 -163z m3896 -125
c-3 -13 -9 -55 -12 -94 -8 -109 9 -177 142 -549 25 -71 95 -231 155 -355 231
-480 328 -702 361 -829 23 -92 25 -249 3 -341 -50 -216 -229 -399 -421 -431
-112 -18 -197 4 -439 117 -237 110 -298 126 -484 126 -172 1 -243 -12 -451
-82 -254 -85 -532 -212 -794 -363 -271 -156 -369 -192 -504 -185 -100 5 -174
33 -239 92 -55 50 -76 108 -70 191 9 105 68 187 168 233 68 32 197 41 278 19
64 -17 66 -11 23 80 -128 270 -448 308 -756 89 -202 -145 -305 -394 -275 -668
26 -234 109 -390 314 -593 257 -253 572 -411 971 -486 139 -27 463 -37 627
-20 302 31 606 119 883 256 257 126 438 252 620 430 43 43 81 72 83 66 11 -33
152 -199 210 -247 227 -187 533 -330 797 -372 81 -12 105 -20 105 -32 0 -42
-43 -373 -66 -505 -55 -320 -169 -746 -233 -873 -144 -282 -424 -507 -736
-590 -160 -42 -292 -54 -495 -42 -999 55 -2100 314 -2772 651 -338 169 -527
311 -773 579 -396 430 -755 893 -1054 1360 -41 63 -78 119 -82 124 -4 5 -13
-11 -19 -35 -66 -242 -323 -445 -611 -480 -291 -35 -659 102 -887 330 -160
161 -266 346 -356 619 -82 252 -91 303 -90 532 0 179 2 203 27 293 51 192 163
385 288 501 75 70 196 136 294 162 92 24 254 29 358 11 228 -40 342 -155 407
-410 64 -255 214 -538 405 -766 85 -101 265 -278 350 -342 126 -96 359 -239
371 -227 2 2 -15 62 -37 132 -89 290 -159 631 -193 946 -15 131 -35 482 -36
602 l0 47 473 407 472 408 5 -55 5 -54 158 -3 157 -3 0 -249 0 -250 135 0 135
0 0 -135 0 -135 1070 0 1070 0 0 135 0 135 135 0 135 0 0 130 0 130 130 0 130
0 0 445 0 445 221 0 221 0 -7 -22z m415 -260 l0 -281 -98 159 c-54 87 -135
214 -180 282 l-82 122 180 0 180 0 0 -282z m-1652 -200 l-3 -133 -130 0 -130
0 -3 133 -3 132 136 0 136 0 -3 -132z m532 -3 l0 -135 -130 0 -130 0 0 -130 0
-130 -135 0 -135 0 0 130 0 130 135 0 135 0 0 135 0 135 130 0 130 0 0 -135z
m2070 -170 l0 -95 90 0 90 0 0 95 0 95 105 0 106 0 -3 -102 -3 -103 -97 -3
-98 -3 0 -94 0 -95 -95 0 -94 0 -3 -97 -3 -98 -100 0 -100 0 -3 103 -3 102
101 0 100 0 0 90 0 89 -97 3 -98 3 -3 103 -3 102 106 0 105 0 0 -95z m-2605
-360 l0 -130 -130 0 -130 0 -3 119 c-1 66 0 126 2 133 4 11 34 13 133 11 l128
-3 0 -130z m2589 -492 c36 -199 41 -253 40 -488 -1 -170 -5 -269 -17 -339 -9
-54 -17 -99 -19 -101 -2 -2 -46 6 -98 16 -52 11 -157 23 -232 26 l-136 6 50
66 c28 36 59 84 69 107 84 189 60 406 -81 711 l-39 83 224 0 223 0 16 -87z
m-6252 -3071 c115 -191 651 -804 1063 -1218 365 -366 602 -565 926 -777 409
-267 889 -490 1321 -612 l98 -28 -22 -29 c-38 -54 -151 -138 -253 -188 -277
-137 -607 -153 -1040 -50 -181 43 -577 163 -748 226 -183 68 -412 167 -562
241 -240 121 -929 561 -1034 661 -111 106 -91 368 65 855 30 94 64 221 74 284
22 127 40 355 40 514 0 111 8 199 19 199 3 -1 27 -35 53 -78z"/>
<path d="M8006 18825 c-184 -52 -312 -182 -361 -365 -25 -90 -29 -224 -11
-310 34 -160 145 -324 280 -412 122 -79 324 -116 482 -89 90 16 157 45 152 67
-3 19 -4 19 -113 70 -187 87 -307 301 -251 448 28 73 120 149 208 170 34 8 44
49 34 144 -12 120 -66 207 -158 257 -44 24 -67 29 -133 32 -47 1 -100 -3 -129
-12z"/>
<path d="M13472 16956 c-76 -86 -48 -176 94 -304 81 -73 187 -135 302 -175 81
-29 97 -31 227 -32 161 0 234 17 344 82 83 49 188 153 226 223 36 67 41 158
12 203 -31 48 -70 38 -196 -48 -189 -128 -276 -161 -396 -152 -111 8 -171 36
-409 187 -52 33 -80 45 -120 48 -49 4 -54 2 -84 -32z"/>
<path d="M32920 25186 l-695 -101 -3 -2903 -2 -2902 717 2 718 3 5 1719 5
1720 46 23 c70 35 155 53 246 53 226 0 349 -81 414 -275 11 -33 15 -334 19
-1640 l5 -1600 718 -3 717 -2 -2 1772 -3 1773 -23 107 c-43 204 -103 353 -194
485 -165 239 -431 410 -748 479 -122 27 -477 27 -600 0 -175 -38 -367 -115
-520 -209 l-75 -46 -3 825 -2 824 -23 -1 c-12 -1 -335 -47 -717 -103z"/>
<path d="M15660 25002 c0 -5 96 -245 213 -533 l212 -524 5 -2330 5 -2330 757
-3 758 -2 2 1410 3 1409 279 -667 c154 -367 309 -736 344 -820 l64 -152 366 2
365 3 341 806 341 806 5 -1396 5 -1396 758 -3 757 -2 0 2865 0 2865 -736 -2
-736 -3 -552 -1187 c-303 -653 -554 -1184 -557 -1180 -3 4 -253 539 -555 1189
l-549 1183 -947 0 c-522 0 -948 -4 -948 -8z"/>
<path d="M27757 23914 c-206 -32 -367 -114 -517 -264 -104 -104 -175 -213
-226 -344 -16 -42 -31 -76 -34 -76 -3 0 -41 142 -84 315 l-78 315 -614 0 -614
0 0 -2268 c0 -2036 2 -2270 16 -2290 l15 -22 705 0 704 0 0 1554 0 1554 33 11
c204 66 700 129 1127 144 l65 2 3 677 2 676 -27 6 c-130 27 -339 32 -476 10z"/>
<path d="M23168 23905 c-299 -41 -533 -123 -734 -257 -98 -65 -247 -208 -324
-310 -204 -271 -344 -663 -404 -1133 -49 -382 -49 -882 -1 -1270 101 -812 441
-1328 1033 -1568 390 -159 1047 -204 1692 -116 154 21 412 63 492 80 l48 11 0
538 c0 296 -3 541 -8 544 -4 2 -50 -4 -102 -15 -292 -60 -381 -71 -610 -76
-531 -12 -805 86 -932 332 -57 112 -118 335 -118 437 l0 28 948 2 947 3 17 95
c61 351 69 951 18 1302 -90 616 -352 1031 -775 1229 -157 73 -322 118 -535
145 -143 18 -518 17 -652 -1z m482 -1060 c107 -56 161 -252 176 -637 l7 -188
-323 0 -323 0 7 83 c36 432 142 704 295 752 50 16 119 12 161 -10z"/>
<path d="M30398 23909 c-204 -21 -464 -81 -633 -144 -281 -106 -559 -293 -731
-493 -380 -441 -547 -1085 -504 -1942 19 -392 63 -659 151 -925 101 -304 221
-509 408 -695 432 -430 1041 -573 2021 -474 179 18 396 54 525 86 l90 23 3
568 c1 340 -2 567 -7 567 -5 0 -57 -11 -116 -25 -140 -33 -353 -70 -492 -85
-158 -17 -395 -8 -498 19 -334 88 -511 328 -582 791 -25 163 -24 627 1 825 23
184 65 346 117 453 96 198 300 331 510 332 l57 0 50 -262 c28 -145 64 -329 79
-410 l28 -148 413 0 412 0 0 899 0 899 -147 41 c-314 86 -506 112 -843 110
-129 -1 -270 -5 -312 -10z"/>
<path d="M23535 18758 c-3 -7 -4 -231 -3 -498 l3 -485 690 0 690 0 0 495 0
495 -688 3 c-545 2 -689 0 -692 -10z"/>
<path d="M15666 18470 c-6 -38 -4 -43 26 -68 44 -35 93 -87 195 -205 47 -54
94 -104 106 -112 39 -25 157 -47 228 -42 86 5 142 36 177 97 53 90 30 240 -52
338 l-28 32 -323 0 -322 0 -7 -40z"/>
<path d="M16963 18463 c117 -230 96 -536 -58 -848 -145 -294 -458 -524 -850
-625 l-110 -28 -3 -1836 -2 -1836 710 0 710 0 0 845 0 845 114 0 114 0 46
-132 c25 -73 154 -452 285 -843 l239 -710 792 -3 c633 -2 791 0 787 10 -3 7
-201 458 -441 1002 -240 544 -436 990 -436 992 0 2 21 18 48 35 212 144 386
358 483 592 85 207 128 445 136 757 17 643 -116 1090 -412 1385 -228 227 -529
352 -1015 421 -90 13 -227 18 -638 21 l-523 5 24 -49z m700 -1012 c237 -62
312 -188 338 -572 19 -276 -10 -500 -83 -649 -76 -156 -233 -242 -485 -265
l-73 -6 0 762 0 762 113 -6 c61 -3 147 -15 190 -26z"/>
<path d="M21240 17510 c-210 -19 -637 -91 -965 -163 l-100 -22 -3 -500 c-1
-275 0 -505 2 -511 3 -8 43 2 118 27 250 83 490 132 745 149 391 28 616 -47
667 -221 13 -41 16 -104 16 -286 l0 -233 -167 0 c-597 -1 -969 -98 -1286 -336
-303 -227 -441 -556 -424 -1004 14 -375 125 -642 366 -880 212 -209 454 -310
747 -310 301 0 579 111 796 318 41 39 59 51 63 41 3 -8 22 -75 43 -149 l37
-135 573 -3 573 -2 -4 1617 c-3 1776 0 1685 -63 1885 -48 153 -113 257 -235
374 -188 180 -397 269 -764 326 -150 23 -559 33 -735 18z m480 -2849 l0 -359
-41 -36 c-69 -58 -124 -79 -209 -80 -66 -1 -84 3 -142 32 -148 73 -215 206
-206 411 5 113 25 166 88 235 92 99 237 152 428 155 l82 1 0 -359z"/>
<path d="M26710 17509 c-205 -16 -544 -73 -915 -152 l-150 -32 -3 -500 c-1
-275 0 -505 2 -511 3 -7 46 3 118 28 248 82 489 131 745 148 241 17 411 -3
530 -63 61 -32 96 -68 125 -132 22 -47 23 -64 26 -296 l3 -246 -263 -6 c-145
-3 -301 -11 -348 -17 -554 -70 -967 -312 -1147 -675 -84 -167 -112 -293 -120
-525 -13 -418 95 -726 345 -983 140 -143 296 -237 487 -293 121 -35 346 -45
478 -20 222 42 428 146 595 301 33 31 62 52 65 48 2 -4 21 -72 43 -150 l39
-143 567 0 568 0 0 1608 c0 1722 1 1690 -50 1870 -92 329 -365 572 -754 672
-286 73 -631 97 -986 69z m480 -2848 l0 -359 -37 -32 c-102 -90 -243 -111
-356 -55 -117 58 -190 171 -206 320 -16 144 19 266 100 344 50 49 161 105 239
120 30 6 64 13 75 15 11 2 57 4 103 5 l82 1 0 -359z"/>
<path d="M23570 14550 c0 -1600 3 -2910 7 -2910 3 0 298 167 655 372 l648 372
0 2538 0 2538 -655 0 -655 0 0 -2910z"/>
</g>
</svg>
