<svg width="446" height="446" viewBox="0 0 446 446" fill="none" xmlns="http://www.w3.org/2000/svg">
<path d="M252.166 44.5574C245.594 54.0461 251.225 63.0174 255.54 66.0792C249.762 88.4438 232.778 87.9822 218.836 72.283C227.879 59.0145 216.562 40.6638 200.225 42.8158C178.75 45.7973 178.594 72.1202 194.427 78.2728C194.324 84.189 188.042 98.2179 182.445 100.894C170.372 107.51 160.455 102.58 154.788 95.834C162.399 77.0775 140.398 59.0234 122.676 71.7657C111.02 80.4136 111.749 103.064 130.372 108.784C134.223 125.611 124.128 145.095 103.661 133.229C112.69 108.318 70.7664 101.741 68.3959 126.563C66.8728 136.784 75.3201 147.331 85.9728 146.723C96.844 176.879 122.143 194.79 112.175 227.895C109.064 236.496 105.296 240.655 99.4643 244.004C109.751 245.625 113.959 244.823 122.159 243.389C121.746 261.073 123.038 280.066 131.347 295.203C139.656 310.34 135.621 328.173 125.261 341.092C123.316 343.342 119.057 346.821 123.359 348.674C127.66 350.527 130.43 350.904 135.084 350.904C146.312 350.904 156.583 346.488 165.066 339.531C164.942 350.402 154.987 361.626 162.999 371.58C169.703 382.599 179.622 391.244 190.785 397.558C216.055 414.283 253.571 417.627 279.617 408.529C282.532 387.895 280.563 388.562 281.896 371.58C330.091 378.375 340.871 355.37 344.702 310.761C357.444 310.951 371.054 304.114 375.286 293.209C376.359 290.665 380.192 281.613 375.465 273.877C371.426 266.032 360.952 264.154 354.784 270.798C366.603 270.755 368.164 289.73 352.968 284.247C351.519 283.489 347.692 277.575 344.568 275.701C346.501 252.955 342.675 221.575 336.012 198.051C334.27 192.23 340.249 188.089 342.38 182.887C355.537 153.337 338.248 120.253 305.159 118.268C301.339 105.283 298.099 92.1211 294.821 78.9797C306.312 78.8504 308.783 60.1697 295.684 58.4637C282.585 56.7578 279.789 72.593 283.966 82.5901C278.868 78.7656 276.867 72.4213 275.695 66.5653C294.551 51.5128 267.684 26.3606 252.166 44.5574Z" fill="black"/>
<path d="M200.084 53.6918C199.204 54.2028 198.476 54.9395 197.975 55.8259C196.536 58.4484 197.495 62.119 199.799 64.2063C201.723 65.9524 204.792 66.7775 207.381 65.6067C208.535 65.0668 209.509 64.2069 210.189 63.1292C212.635 56.4414 206.832 50.7125 200.084 53.6918Z" fill="#F9EC23"/>
<path d="M210.195 63.1288C209.621 63.9745 208.846 64.6641 207.939 65.1358C205.414 66.4114 202.181 65.671 200.134 63.8291C197.904 61.8221 196.862 58.2652 198.218 55.694C198.659 54.884 199.298 54.1988 200.076 53.7026C199.458 53.9658 196.909 55.1298 195.703 57.9798C194.588 60.5956 194.811 64.1323 197.186 66.5051C199.734 69.0517 203.608 69.0963 206.3 67.7003C208.951 66.3311 209.941 63.8313 210.195 63.1288Z" fill="#C8BE2E"/>
<path d="M269.348 49.3834C268.658 49.0171 267.884 48.8401 267.103 48.8705C264.815 48.9932 262.81 51.1005 262.38 53.4487C262.021 55.4089 262.725 57.7415 264.536 58.9591C265.355 59.4933 266.31 59.7813 267.288 59.7886C272.631 58.6736 274.018 52.5746 269.348 49.3834Z" fill="#F9EC23"/>
<path d="M267.288 59.7885C266.506 59.7519 265.745 59.5221 265.074 59.1195C263.223 57.9911 262.398 55.5849 262.772 53.511C263.185 51.2476 265.076 49.1291 267.299 48.9752C268.006 48.9343 268.711 49.0732 269.349 49.3788C268.921 49.0778 267.119 47.8936 264.779 48.2638C262.627 48.5983 260.411 50.1727 259.824 52.677C259.196 55.3686 260.732 57.9108 262.723 59.0994C264.701 60.2657 266.726 59.9067 267.288 59.7885Z" fill="#C8BE2E"/>
<path d="M272.872 82.4588C271.645 80.7194 270.408 78.8707 269.175 76.915C267.533 74.3081 266.068 71.7749 264.757 69.333C262.795 74.3202 259.973 78.9244 256.419 82.936C258.758 82.7242 261.213 82.5614 263.778 82.4677C266.971 82.3696 270.009 82.3718 272.872 82.4588Z" fill="#F9EC23"/>
<path d="M211.083 78.4961C210.078 79.1156 208.994 79.595 207.86 79.9211C206.685 80.2593 205.467 80.4268 204.243 80.4184C203.889 82.6082 203.423 84.9586 202.812 87.4362C202.178 89.994 201.474 92.36 200.742 94.5209C204.087 93.2408 207.749 91.9876 211.685 90.828C215.449 89.713 219.044 88.821 222.418 88.094C218.075 85.6316 214.231 82.3795 211.083 78.505V78.4961Z" fill="#F9EC23"/>
<path d="M130.355 85.8795C130.187 85.97 130.039 86.0937 129.92 86.243C130.038 85.9107 130.355 85.6476 130.355 85.8795Z" fill="white"/>
<path d="M142.745 94.4493C137.393 95.8943 132.063 94.2664 129.456 90.5044C128.903 89.7061 129.456 87.0501 127.721 84.6863C127.612 84.5369 127.518 84.421 127.456 84.3429C127.939 83.3252 128.621 82.4151 129.463 81.6669L129.523 81.6134C129.759 81.4052 130.007 81.2116 130.266 81.0336C131.702 79.9855 134.726 78.2951 138.338 79.2206C141.906 80.1304 144.904 83.355 145.267 87.2865C145.631 91.218 143.178 93.9743 142.745 94.4493Z" fill="#F9EC23"/>
<path d="M127.085 85.2174C126.755 86.0737 125.714 89.0708 127.03 92.1884C128.776 96.3295 133.836 98.7111 138.126 97.4801C140.296 96.858 142.363 95.3839 143.906 92.864C140.142 94.6793 135.711 94.2533 132.518 91.749C128.281 88.433 128.443 83.2015 128.468 82.6997C128.29 82.9227 128.147 83.1279 128.038 83.2929C127.826 83.6095 127.694 83.8504 127.656 83.9217C127.547 84.1247 127.48 84.2763 127.456 84.3343C127.431 84.3923 127.42 84.4213 127.413 84.4369C127.357 84.5818 127.262 84.8115 127.085 85.2174Z" fill="#C8BE2E"/>
<path d="M176.003 118.29C175.497 119.129 182.1 125.373 183.759 125.529C184.042 125.266 184.488 125.203 184.792 125.012C186.944 123.674 188.137 124.106 190.478 123.451C196.053 121.919 201.236 118.482 206.86 116.569C212.484 114.655 219.125 112.945 224.597 110.525C227.11 109.41 228.611 109.451 231.318 108.976C237.453 107.894 243.724 105.454 249.963 104.36C256.203 103.265 264.093 103.873 269.572 101.737C270.845 101.242 271.869 100.994 272.892 100.99C274.066 100.994 275.226 101.248 276.293 101.737C278.019 102.484 281.623 103.017 289.693 102.286C289.575 101.692 289.401 100.798 289.191 99.7122C288.186 94.4405 288.203 93.9142 287.853 93.2786C286.196 90.1566 279.489 90.5714 277.72 90.6985C252.691 92.5093 234.206 97.2592 234.206 97.2592C223.585 99.9887 218.273 101.353 216.87 101.773C202.77 106.013 189.09 111.542 176.003 118.29Z" fill="#F5EA14"/>
<path d="M277.684 100.892C277.919 101.501 278.099 102.129 278.223 102.77C278.488 104.161 278.488 105.589 278.223 106.98C280.33 106.797 282.475 106.587 284.659 106.349C286.568 106.142 288.444 105.919 290.288 105.68C290.091 104.554 289.893 103.427 289.692 102.297C289.557 101.525 289.419 100.754 289.28 99.9844C288.749 100.038 287.966 100.111 287.018 100.192C285.732 100.303 284.775 100.37 284.318 100.404C282.764 100.515 280.638 100.671 277.684 100.892Z" fill="#C8BE2E"/>
<path d="M232.154 107.778C232.533 108.072 234.511 109.66 234.797 112.432C234.925 113.762 234.654 115.099 234.019 116.274C239.558 114.673 245.523 113.152 251.885 111.783C258.406 110.387 264.614 109.314 270.45 108.496C269.773 107.548 269.379 106.426 269.315 105.263C269.259 103.672 269.805 102.119 270.845 100.914C264.697 101.541 258.134 102.428 251.207 103.661C244.408 104.87 238.048 106.277 232.154 107.778Z" fill="#C8BE2E"/>
<path d="M165.383 111.687C161.557 112.056 157.703 111.361 154.246 109.68C151.867 108.504 149.737 106.878 147.976 104.893C147.298 105.591 146.518 106.18 145.661 106.641C144.718 107.146 143.696 107.49 142.639 107.658C142.332 110.417 142.061 113.259 141.828 116.183C141.603 119.024 141.426 121.794 141.297 124.494C145.022 122.487 148.769 120.48 152.536 118.473C156.831 116.191 161.113 113.929 165.383 111.687Z" fill="#F9EC23"/>
<path d="M190.516 122.672C191.834 123.386 192.86 124.54 193.415 125.932C194.26 128.183 193.638 130.825 191.854 132.765C203.376 126.992 215.641 122.623 227.527 118.29C226.38 117.396 225.531 116.175 225.09 114.789C224.577 113.089 224.701 111.26 225.437 109.645C218.143 111.83 212.149 113.928 207.631 115.619C203.394 117.202 199.915 118.629 198.055 119.41C195.181 120.601 192.648 121.711 190.516 122.672Z" fill="#C8BE2E"/>
<path d="M187.354 144.346C188.738 145.151 191.211 150.108 193.04 150.547C199.52 147.396 205.553 144.64 211.018 142.254C213.358 141.23 219.129 138.719 225.589 136.177C251.323 126.048 277.122 119.744 281.299 118.828C282.353 118.67 283.386 118.395 284.379 118.007C287.822 116.593 290.063 113.833 291.515 111.355C255.224 116.584 220.037 127.729 187.354 144.346Z" fill="#F5EA14"/>
<path d="M158.191 128.067C159.36 128.928 164.328 132.384 171.348 131.726C178.511 131.057 182.793 126.582 183.752 125.529C182.093 125.373 175.501 119.129 175.996 118.291C173.068 119.786 170.079 121.369 167.027 123.038C163.975 124.708 161.029 126.384 158.191 128.067Z" fill="#F5EA14"/>
<path d="M178.066 128.002C172.74 128.959 169.391 126.68 161.738 127.44C160.284 127.585 159.115 127.795 158.404 127.937C150.302 132.71 141.605 138.296 132.625 144.832C123.812 151.241 115.335 158.099 107.228 165.381C108.004 166.548 108.789 167.812 109.569 169.172C110.412 170.649 111.152 172.071 111.799 173.432C115.088 171.202 119.078 167.62 122.18 165.201C125.282 162.781 130.047 158.569 133.107 157.008C136.166 155.447 142.276 149.486 143.327 150.168C141.512 142.854 148.77 137.903 155.217 140.356C155.594 140.501 156.477 140.697 156.767 140.874C157.847 140.144 158.979 139.494 160.154 138.929C160.958 138.542 161.78 138.196 162.619 137.892C167.665 136.01 169.781 133.144 173.015 133.227C174.308 133.26 176.206 133.773 178.489 136.215C177.597 137.306 176.482 138.144 174.872 138.282C176.696 139.973 176.712 138.164 179.007 138.282C182.535 135.699 186.593 133.933 190.888 133.111C186.939 133.633 181.687 128.914 185.202 124.84C182.303 126.952 179.772 127.701 178.066 128.002Z" fill="#F5EA14"/>
<path d="M82.0486 124.657C79.6491 128.74 81.3796 133.927 85.2821 135.705C88.9013 137.35 93.5576 135.693 95.4107 131.731C95.7582 130.061 95.5538 128.323 94.8283 126.78C94.1027 125.236 92.8954 123.97 91.388 123.172C89.8806 122.374 88.1548 122.088 86.4704 122.355C84.7859 122.623 83.2341 123.431 82.0486 124.657Z" fill="#F9EC23"/>
<path d="M95.4108 131.737C92.7683 138.78 78.3625 132.108 82.0487 124.657C81.6562 125.018 79.3548 127.199 79.4173 130.551C79.4775 133.834 81.7721 136.59 84.6332 137.656C88.0563 138.931 91.6064 137.531 93.5733 135.334C94.4781 134.309 95.11 133.072 95.4108 131.737Z" fill="#C8BE2E"/>
<path d="M155.269 141.828C156.04 142.034 156.762 142.394 157.391 142.887C158.02 143.379 158.543 143.994 158.928 144.694C159.313 145.394 159.552 146.164 159.631 146.959C159.71 147.754 159.627 148.557 159.387 149.319C163.294 147.006 166.711 145.068 169.469 143.536C172.317 141.955 176.117 139.85 181.228 137.268C183.309 136.217 185.07 135.359 186.357 134.743L185.759 133.207C185.313 133.158 183.949 132.946 183.003 131.829C181.801 130.408 181.763 128.102 183.023 126.196C179.366 127.98 176.15 129.659 173.434 131.12C168.234 133.921 164.291 136.249 162.596 137.27C159.704 138.996 157.233 140.55 155.269 141.828Z" fill="#C8BE2E"/>
<path d="M232.276 162.233C228.619 170.556 223.454 178.132 217.041 184.577C221.45 184.09 225.799 183.161 230.022 181.805C234.532 180.329 238.882 178.399 243.003 176.045C245.862 174.42 248.506 172.923 251.753 170.357C256.559 166.566 257.908 164.24 260.633 164.251C262.841 164.251 264.937 165.812 266.913 168.437C280.023 159.071 291.73 144.341 306.201 137.419C292.723 137.828 278.498 140.86 266.507 146.843C254.516 152.827 244.408 157.699 232.276 162.233Z" fill="#333333"/>
<path d="M158.352 143.106C158.074 142.604 157.293 141.342 156.791 141.036C156.502 140.86 155.618 140.664 155.23 140.519C155.85 140.809 157.884 142.459 158.352 143.106Z" fill="#575757"/>
<path d="M114.999 144.609C109.187 144.283 103.436 143.257 97.8701 141.554C98.5525 143.223 99.2304 144.898 99.9039 146.578C100.97 149.23 102.01 151.864 103.026 154.479C107.383 151.665 111.397 148.353 114.985 144.609H114.999Z" fill="#F9EC23"/>
<path d="M111.804 173.434C112.326 174.633 112.846 175.848 113.365 177.078C113.843 178.216 114.314 179.35 114.776 180.478C126.408 172.8 137.667 163.376 149.41 155.665C147.915 155.348 146.54 154.614 145.443 153.549C144.347 152.483 143.574 151.13 143.213 149.644C138.042 153.069 132.665 156.854 127.157 161.017C121.649 165.18 116.513 169.377 111.804 173.434Z" fill="#C8BE2E"/>
<path d="M319.782 144.015C319.113 144.296 318.462 144.626 318.462 144.626C318.079 144.825 317.751 145.008 317.485 145.164C331.236 146.674 338.418 162.259 333.028 173.436C334.849 171.507 336.28 169.244 337.243 166.773C337.87 165.149 340.836 156.838 336.113 149.673C333.064 145.048 327.772 142.354 324.771 142.675C323.654 142.793 320.924 143.54 319.782 144.015Z" fill="#333333"/>
<path d="M334.431 171.645C339.618 163.51 333.398 151.903 329.797 148.781C328.274 147.522 326.638 146.406 324.911 145.447C323.627 144.754 322.293 144.203 322.293 144.203C321.713 143.962 321.209 143.777 320.821 143.643C320.647 143.699 320.375 143.786 320.074 143.9C318.701 144.423 317.367 145.046 316.085 145.764C314.492 146.656 310.987 148.973 306.641 152.454C309.442 152.453 312.214 153.025 314.787 154.135C326.829 159.394 328.965 174.832 329.152 176.346C332.156 174.756 333.673 172.825 334.431 171.645Z" fill="#4D4E4E"/>
<path d="M193.04 150.547C191.212 150.101 188.739 145.151 187.354 144.346C172.427 152.199 157.902 160.795 143.835 170.102C134.855 176.043 126.441 182.017 118.601 187.929C119.321 189.352 120.037 190.93 120.71 192.659C121.17 193.843 121.566 194.987 121.905 196.077C132.349 188.025 144.029 179.698 156.986 171.429C169.549 163.408 181.656 156.499 193.04 150.547Z" fill="#C8BE2E"/>
<path d="M198.024 160.529C198.625 162.938 199.87 165.14 201.625 166.897C203.381 168.654 205.581 169.9 207.99 170.503C212.493 164.63 216.498 157.888 220.924 151.892C218.525 151.502 209.043 150.242 201.802 156.294C200.342 157.513 199.07 158.94 198.024 160.529Z" fill="#1A1A1A"/>
<path d="M266.914 168.437C266.075 167.128 263.872 164.093 260.406 163.609C257.922 163.263 255.933 164.387 252.874 166.345C244.495 171.697 244.223 173.013 239.429 175.831C235.415 178.195 231.552 179.658 225.732 181.852C223.328 182.762 221.301 183.458 219.87 183.933C223.136 181.8 226.029 179.144 228.433 176.072C230.371 173.581 231.229 171.768 232.581 169.476C235.334 164.847 238.652 160.577 242.457 156.765C234.3 160.538 232.079 161.318 231.976 161.098C231.874 160.877 234.603 159.657 236.267 156.638C236.897 155.485 237.301 154.222 237.458 152.918L203.845 194.8C227.563 194.01 248.251 181.767 266.914 168.437Z" fill="#4D4E4E"/>
<path d="M143.362 225.299C142.861 225.863 142.292 226.577 142.328 227.369C149.66 224.313 156.781 220.774 163.644 216.774C185.846 203.822 198.171 190.146 201.26 183.427C201.501 182.903 202.658 180.305 204.507 176.861C206.478 173.186 208.298 170.301 209.511 168.452C208.173 168.365 203.978 167.912 200.676 164.55C199.542 163.392 198.64 162.03 198.015 160.536C193.361 168.341 189.064 174.792 185.632 179.696C182.049 184.825 178.592 190.146 172.957 196.488C168.365 201.639 163.705 206.721 158.741 211.73C153.777 216.738 148.92 221.33 143.362 225.299Z" fill="#333333"/>
<path d="M328.43 343.164C324.113 351.994 315.496 358.328 305.684 359.191C299.496 359.735 292.255 360.397 255.58 344.158C240.938 337.673 233.615 334.431 231.166 332.627C208.594 316.009 203.889 288.172 202.261 278.578C198.579 256.967 203.131 241.005 204.208 237.437C210.701 215.933 223.241 207.167 223.997 206.721L226.26 205.327C228.006 204.482 229.213 204.533 236.451 200.573C258.39 188.569 276.299 174.482 276.299 174.482C278.549 172.716 281.676 170.198 286.521 168.992C293.798 167.179 300.142 169.511 302.965 170.591C313.904 174.77 319.438 183.748 321.251 187.039C318.242 185.56 315.108 184.349 311.885 183.422C308.503 182.445 304.656 181.397 299.469 181.364C295.566 181.337 290.703 182.294 287.182 183.551C283.766 184.776 280.48 186.334 277.37 188.203C274.283 190.043 271.411 191.956 268.583 193.89C265.756 195.823 262.085 197.56 259.286 199.07C256.488 200.58 252.744 204.384 252.438 204.627C244.729 204.029 238.632 206.65 236.775 209.636C235.909 211.025 235.073 213.928 234.957 214.332C234.38 216.339 234.406 217.077 234.75 217.724C235.111 218.408 235.921 219.151 236.826 219.18C237.731 219.209 238.177 218.531 238.628 218.763C238.891 218.899 239.125 219.336 238.998 220.652C240.151 221.174 237.818 221.247 238.481 222.202C243.721 223.636 247.998 227.703 252.955 229.44C252.235 230.841 250.607 231.641 249.854 233.06C248.881 234.879 248.556 237.66 248.819 239.779C245.94 237.169 239.344 240.617 236.257 241.692C233.171 242.767 230.085 245.166 227.496 247.92C224.907 250.674 224.284 254.32 222.621 258.038C220.957 261.755 222.03 267.477 221.421 271.83C220.812 276.183 223.339 281.083 224.006 284.236C224.006 290.016 225.464 294.369 229.175 298.711C232.54 306.322 236.603 315.75 244.562 321.575C252.521 327.4 259.503 332.535 268.342 336.567C277.182 340.599 287.231 345.791 296.779 347.418C306.328 349.046 321.238 351.332 328.43 343.164Z" fill="#FDCC8B"/>
<path d="M252.436 204.622C255.601 204.011 258.954 204.105 262.248 204.105C265 203.854 267.768 203.854 270.519 204.105C273.942 204.105 280.612 203.753 281.377 207.724C284.385 210.293 290.074 209.341 291.845 214.314C293.615 219.287 291.742 223.011 289.688 227.409C287.635 231.806 284.559 232.848 281.335 236.106C278.11 239.364 271.043 237.709 267.935 240.282C266.405 250.317 250.043 249.738 248.808 239.765C245.929 237.156 239.333 240.604 236.246 241.678C233.16 242.753 230.074 245.153 227.485 247.907C224.597 250.98 223.758 254.273 222.61 258.024C221.533 261.499 220.938 265.105 220.842 268.742C220.778 274.068 221.853 279.346 223.995 284.222C224.035 282.452 224.398 276.794 228.734 272.479C233.069 268.164 241.032 265.499 246.016 269.134C248.525 270.961 249.464 273.795 249.843 275.441C245.728 273.88 241.496 274.629 239.277 277.245C239.079 277.468 236.909 280.119 237.763 283.065C238.632 286.055 242 287.244 242.691 287.485C248.422 289.505 253.97 284.885 262.208 280.572C262.208 280.572 275.24 273.982 282.927 272.858C284.696 272.619 286.481 272.525 288.266 272.58C289.247 272.622 290.226 272.715 291.198 272.858C293.856 272.343 295.411 267.861 298.557 266.775C301.704 265.689 306.596 265.136 309.64 264.418C312.684 263.7 319.229 263.838 319.633 260.453C318.397 255.46 315.554 250.527 313.563 245.844C311.571 241.161 308.617 236.42 307.111 231.617C305.606 226.813 301.71 219.597 304.641 214.446C305.475 212.978 305.004 214.276 306.201 214.963C305.218 211.758 309.81 212.187 310.336 209.277C311.661 201.895 321.684 204.817 327.395 204.107C326.666 201.59 325.834 198.965 324.873 196.251C323.711 192.964 322.494 189.891 321.258 187.037C316.529 184.006 311.197 182.039 305.633 181.272C302.051 180.787 298.417 180.829 294.846 181.395C291.666 181.923 289.345 182.766 287.193 183.549C283.774 184.764 280.486 186.323 277.381 188.201C274.295 190.041 271.422 191.954 268.595 193.887C265.767 195.821 262.097 197.558 259.298 199.068C256.499 200.577 252.744 204.379 252.436 204.622Z" fill="#FFDAAB"/>
<path d="M143.362 225.299C138.993 229.269 134.327 232.899 129.404 236.157C144.586 235.847 160.308 226.423 172.443 217.16C184.579 207.896 194.558 196.55 201.264 183.429C185.27 202.783 164.732 218.007 142.332 227.371C142.291 226.568 142.86 225.863 143.362 225.299Z" fill="#4D4E4E"/>
<path d="M165.074 184.461C156.662 189.414 149.669 195.109 141.659 200.847C133.648 206.585 125.257 213.988 125.785 224.784C140.713 214.165 155.077 199.725 165.074 184.461Z" fill="#333333"/>
<path d="M245.724 195.241C234.465 201.583 224.898 204.645 221.149 205.945C213.613 208.527 205.785 210.166 197.846 210.824C190.253 236.103 190.166 265.002 198.881 289.918C192.495 286.801 186.798 282.439 182.122 277.089C177.446 271.738 173.886 265.508 171.652 258.762C163.792 255.032 154.682 255.863 148.179 260.928C138.998 268.075 139.581 279.867 140.466 283.199C141.046 285.384 144.723 298.381 156.968 303.913C158.975 304.823 167.603 308.714 175.7 305.028C177.08 304.397 181.839 302.225 184.276 297.112C184.814 295.977 185.205 294.778 185.438 293.544C189.806 300.604 194.546 307.427 199.639 313.984C199.639 313.984 207.859 324.572 215.94 332.827C239.531 356.911 305.129 360.888 305.363 359.193C305.506 358.209 284.165 356.651 255.262 344.16C240.14 337.624 229.822 328.16 218.913 315.38C208.004 302.6 203.481 284.265 202.5 267.174C201.519 250.083 204.411 228.332 216.933 216.473C220.173 213.404 221.234 213.752 236.093 203.349C244.62 197.379 251.48 192.259 256.06 188.774C253.471 190.567 249.983 192.844 245.724 195.241Z" fill="#CCA370"/>
<path d="M262.259 204.105H270.53C267.779 203.854 265.01 203.854 262.259 204.105Z" fill="#8D8D8D"/>
<path d="M277.768 215.418C274.294 216.1 273.415 220.861 270.659 222.777C267.903 224.693 265.412 228.78 262.259 229.369C266.565 230.941 268.603 235.93 267.945 240.225C271.054 237.651 278.13 239.31 281.345 236.048C284.561 232.785 287.643 231.737 289.699 227.351C291.755 222.964 293.628 219.225 291.855 214.256C290.082 209.288 284.396 210.242 281.388 207.667V215.418C280.192 215.309 278.957 215.563 277.768 215.418Z" fill="white"/>
<path d="M304.649 214.444C305.626 214.687 305.731 215.799 306.21 216.511C307.435 216.6 309.964 214.459 310.345 214.444C310.936 213.106 310.149 210.737 310.345 209.274C309.819 212.173 305.216 211.756 306.21 214.961C305.013 214.274 305.483 212.976 304.649 214.444Z" fill="white"/>
<path d="M310.826 213.458C309.571 213.648 309.011 213.971 307.367 214.127C306.399 214.218 305.424 214.218 304.455 214.127C306.346 216.822 308.243 219.669 310.146 222.668C311.484 224.785 312.754 226.866 313.955 228.912C316.339 226.013 320.609 225.422 323.778 227.362C321.457 224.166 327.792 218.665 325.845 214.428H327.912C325.1 214.094 322.804 213.982 321.202 213.922C318.225 213.83 318.022 214.004 315.864 213.808C313.092 213.567 312.552 213.199 310.826 213.458Z" fill="#CCA370"/>
<path d="M238.998 220.647C240.151 221.169 237.819 221.243 238.481 222.197C243.722 223.631 247.999 227.699 252.956 229.436C252.236 230.836 250.608 231.637 249.854 233.055C252.336 229.126 258.181 227.946 262.26 229.436C265.413 228.847 267.906 224.768 270.66 222.844C273.414 220.919 274.295 216.154 277.769 215.485C263.925 213.772 251.658 215.494 238.998 220.647Z" fill="white"/>
<path d="M323.778 227.369C325.763 228.582 327.214 231.318 327.395 233.57C328.064 234.61 330.669 235.907 331.532 237.19C331.328 229.571 330.637 221.974 329.464 214.444C329.018 214.29 328.349 214.64 327.903 214.444H325.836C327.787 218.678 321.457 224.173 323.778 227.369Z" fill="white"/>
<path d="M331.532 237.19C330.669 235.907 328.069 234.609 327.395 233.57C327.826 237.35 324.635 240.539 321.191 241.326C325.551 250.802 334.763 263.332 325.328 272.858C329.113 272.779 332.891 273.216 336.558 274.156C338.889 261.614 337.127 248.654 331.532 237.19Z" fill="#FFDAAB"/>
<path d="M156.803 247.53C158.18 247.459 159.56 247.459 160.937 247.53C159.569 247.296 158.171 247.296 156.803 247.53Z" fill="#898989"/>
<path d="M140.608 283.717C140.399 282.035 139.433 272.957 145.71 265.56C151.731 258.475 161.967 255.772 171.652 258.763C171.494 257.483 170.671 251.943 166.16 249.094C164.153 247.822 162.146 247.562 160.504 247.347C158.912 247.14 154.753 246.81 150.431 248.757C144.801 251.29 142.256 256.172 141.03 258.524C135.361 269.395 139.616 281.154 140.608 283.717Z" fill="#FDCC8B"/>
<path d="M291.209 272.859C297.919 273.619 304.397 280.826 311.328 277.988C318.259 275.149 321.321 267.241 319.641 260.453C319.238 263.838 312.693 263.7 309.649 264.418C306.605 265.136 301.708 265.689 298.566 266.775C295.424 267.861 293.867 272.343 291.209 272.859Z" fill="#CCA370"/>
<path d="M173.862 292.502C173.962 291.684 170.196 291.659 167.27 288.239C166.681 287.55 163.45 283.779 164.96 279.988C166.264 276.714 170.151 275.84 170.622 275.751C170.686 275.445 171.681 270.303 168.356 267.321C164.926 264.248 159.646 265.936 156.959 267.671C152.122 270.793 151.725 276.674 151.633 278.043C151.299 282.991 153.458 288.301 157.79 291.436C164.574 296.322 173.717 293.756 173.862 292.502Z" fill="black"/>
<path d="M229.175 298.706C232.54 306.317 236.603 315.745 244.562 321.57C252.521 327.395 259.503 332.53 268.343 336.562C277.182 340.594 287.231 345.786 296.779 347.413C306.328 349.041 321.236 351.332 328.428 343.163C332.092 332.727 334.197 321.768 335.149 310.605C327.435 309.887 320.052 306.629 313.953 301.817C312.607 300.758 311.392 299.543 310.333 298.197C309.718 297.122 308.619 296.349 308.266 295.098C289.209 316.082 249.207 322.145 229.175 298.706Z" fill="#FFDAAB"/>
<path d="M313.955 301.808C312.84 300.78 311.391 299.326 310.336 298.188C311.394 299.534 312.609 300.749 313.955 301.808Z" fill="#878787"/>
<path d="M293.276 316.8C298.126 322.03 304.386 322.96 304.386 322.96C306.016 323.201 311.156 323.965 315.915 320.928C318.437 319.32 322.382 315.67 321.699 312.162C321.581 311.562 321.463 310.949 320.95 310.57C318.749 308.935 314.59 315.534 308.386 315.942C301.203 316.412 296.046 308.264 292.917 310.398C292.159 310.915 291.579 311.999 291.485 313.007C291.376 314.231 291.985 315.407 293.276 316.8Z" fill="black"/>
<path d="M184.198 328.137C184.394 340.744 200.477 358.675 200.477 358.675C203.858 364.464 208.11 369.698 213.083 374.194C223.526 383.624 234.304 387.148 239.843 388.896C246.632 391.031 253.676 392.254 260.787 392.531C260.757 392.594 260.718 392.652 260.671 392.705C260.225 393.198 259.367 392.765 258.937 393.082C258.7 393.256 258.506 393.693 258.763 394.899C259.65 394.794 260.521 394.58 261.356 394.264C261.941 394.023 262.503 393.73 263.035 393.389C263.72 392.987 264.378 392.54 265.004 392.051C266.085 391.19 267.058 390.201 267.903 389.108C251.515 384.665 236.267 376.766 223.183 365.943C223.183 365.943 208.837 354.603 187.875 328.574C187.037 327.533 186.301 326.438 186.301 326.438C185.676 325.487 185.116 324.495 184.626 323.468C184.521 323.974 184.403 324.616 184.323 325.361C184.229 326.283 184.187 327.21 184.198 328.137Z" fill="#FFDAAB"/>
<path d="M181.123 349.066C183.712 356.595 187.579 363.621 192.554 369.836C205.7 386.216 222.385 391.467 229.126 393.494C237.6 396.039 251.85 400.307 263.18 393.271C263.965 392.783 264.587 392.337 265 392.025C223.179 395 190.612 351.727 184.207 326.699C184.071 334.807 184.047 341.074 181.123 349.066Z" fill="#FDCC8B"/>
<path d="M229.137 393.495C214.97 386.985 205.499 379.758 199.795 374.763C195.009 370.566 192.436 367.544 190.407 364.583C185.253 357.083 183.284 349.642 182.439 344.881C176.819 361.16 177.693 366.581 179.881 368.271C180.55 368.791 180.929 369.522 189.309 374.865C196.401 379.386 199.947 381.645 202.29 382.907C207.624 385.729 213.149 388.171 218.826 390.217C222.875 391.684 226.405 392.746 229.137 393.495Z" fill="#CCA370"/>
<path d="M274.214 236.681H267.805V243.139H274.214V236.681Z" fill="white"/>
<path d="M178.479 259.594L215.222 227.948V212.717L178.479 244.2V259.594Z" fill="black"/>
<path d="M210.251 202.524V217.425H222.882V243.088H229.291V249.512H280.639V243.088H287.052V236.674H293.479V215.351H314.131L314.211 243.094H319.142V249.519H347.594V202.524H210.251ZM287.052 230.265H280.639V236.681H274.214V243.094H267.805V236.681H274.214V230.265H267.805V223.845H274.214V230.265H280.639V223.845H287.052V230.265Z" fill="black"/>
<path d="M336.696 238.414H332.009V243.137H336.696V238.414Z" fill="white"/>
<path d="M341.399 233.713H336.712V238.436H341.399V233.713Z" fill="white"/>
<path d="M346.094 229.019H341.406V233.742H346.094V229.019Z" fill="white"/>
<path d="M336.696 229.019H332.009V233.742H336.696V229.019Z" fill="white"/>
<path d="M222.893 217.414H215.222V224.677H222.893V217.414Z" fill="black"/>
<path d="M223.928 224.679H215.222V230.957H223.928V224.679Z" fill="black"/>
<path d="M151.209 156.891C156.111 156.891 160.085 152.918 160.085 148.016C160.085 143.114 156.111 139.141 151.209 139.141C146.308 139.141 142.334 143.114 142.334 148.016C142.334 152.918 146.308 156.891 151.209 156.891Z" fill="black"/>
<path d="M188.765 137.417C193.667 137.417 197.64 133.443 197.64 128.541C197.64 123.64 193.667 119.666 188.765 119.666C183.863 119.666 179.89 123.64 179.89 128.541C179.89 133.443 183.863 137.417 188.765 137.417Z" fill="black"/>
<path d="M229.282 123.032C234.183 123.032 238.157 119.058 238.157 114.156C238.157 109.254 234.183 105.281 229.282 105.281C224.38 105.281 220.406 109.254 220.406 114.156C220.406 119.058 224.38 123.032 229.282 123.032Z" fill="black"/>
<path d="M271.911 114.156C276.812 114.156 280.786 110.182 280.786 105.281C280.786 100.379 276.812 96.4053 271.911 96.4053C267.009 96.4053 263.035 100.379 263.035 105.281C263.035 110.182 267.009 114.156 271.911 114.156Z" fill="black"/>
<path d="M237.446 152.927C234.752 155.449 232.254 158.216 232.254 158.216C231.447 159.041 230.618 159.96 229.801 160.979C228.185 162.973 226.766 165.12 225.564 167.388C228.017 166.026 231.608 164.043 235.954 161.686C240.978 158.952 243.489 157.583 244.629 157.003C250.873 153.781 256.169 151.584 266.507 147.323C271.266 145.363 273.643 144.381 275.204 143.795C281.948 141.262 292.152 138.338 306.201 137.426C310.414 136.179 314.332 133.956 318.607 132.772C310.864 130.622 296.55 127.801 279.307 131.24C279.307 131.233 255.558 135.968 237.446 152.927Z" fill="#1A1A1A"/>
</svg>
