<svg width="201" height="201" viewBox="0 0 201 201" fill="none" xmlns="http://www.w3.org/2000/svg">
<path d="M137.867 162.75C135.407 162.743 132.963 162.349 130.626 161.581C126.153 160.108 121.835 156.986 118.788 153.007C115.373 148.558 113.735 143.466 114.048 138.283C114.337 133.535 116.322 129.132 119.949 125.196C122.048 122.946 124.468 121.017 127.13 119.474C136.314 114.189 145.642 116.077 149.142 117.103C151.637 108.821 153.022 100.243 153.259 91.5965C153.521 82.0521 152.591 73.0531 150.636 66.144C139.221 70.9341 127.412 74.7268 115.343 77.4797C103.263 80.232 90.9681 81.9323 78.5948 82.5616C81.436 105.082 78.6947 126.825 70.2332 149.004L70.2192 149.037C67.8446 154.403 63.9715 158.433 59.0194 160.692C56.0392 162.032 52.8064 162.718 49.5389 162.703C47.7623 162.702 45.9911 162.509 44.2562 162.126C39.0524 160.978 34.3451 158.186 31.0005 154.265C27.2962 149.923 25.3941 144.411 25.499 138.322C25.3771 130.23 29.2952 122.597 35.9815 117.912C38.9715 115.814 42.3941 114.434 45.8796 113.91C49.3103 113.386 52.8167 113.701 56.0994 114.827C59.2532 95.1759 54.7957 74.7304 51.1393 60.9922L50.8996 60.0931L51.8306 60.149C91.4 62.5376 130.389 53.6895 164.586 34.5456L165.317 34.136L165.56 34.9352C168.366 44.2339 171.005 53.4307 172.44 63.6925C173.916 74.2419 174.07 85.5496 172.925 99.2788C172.826 100.565 171.739 113.212 167.949 126.978C165.652 135.333 162.828 142.363 159.558 147.88C155.435 154.842 150.58 159.409 145.128 161.452C142.806 162.318 140.346 162.758 137.867 162.75ZM140.727 117.264C136.909 117.264 132.335 118.033 127.802 120.641C125.047 122.228 116.013 128.191 115.393 138.364C114.745 149.053 122.974 157.644 131.047 160.303C133.694 161.175 138.982 162.321 144.657 160.194C149.786 158.271 154.387 153.936 158.335 147.307C161.532 141.934 164.307 135.062 166.578 126.88C170.526 112.651 171.573 99.3018 171.585 99.1809L171.678 99.1859L171.578 99.1689C173.959 70.5975 170.518 56.117 164.506 36.1271C147.521 45.5317 129.285 52.4733 110.346 56.7434C91.44 61.0149 72.0307 62.6289 52.6788 61.5386C55.2662 71.3997 56.9485 80.0681 57.8176 88.0121C58.9315 98.1829 58.7597 107.293 57.2942 115.845L57.1563 116.652L56.3911 116.361C49.8646 113.874 42.7048 114.841 36.7547 119.012C30.4311 123.443 26.7268 130.656 26.8456 138.309V138.331C26.6209 151.11 35.5739 158.828 44.5459 160.808C52.5239 162.568 63.7067 160.402 68.9805 148.506C77.451 126.308 80.1283 104.558 77.1663 82.0101L77.0714 81.2848L77.8026 81.2499C102.933 80.0818 127.654 74.4464 150.808 64.6075L151.5 64.3138L151.716 65.0341C153.854 72.165 154.88 81.6115 154.605 91.6315C154.358 100.626 152.887 109.545 150.232 118.142L150.032 118.795L149.382 118.584C146.581 117.704 143.662 117.259 140.727 117.264Z" fill="black"/>
<path d="M70.2142 149.051L68.9755 148.524C69.425 147.364 69.8676 146.17 70.2931 144.978L71.5789 145.385C71.2222 146.641 70.7658 147.867 70.2142 149.051Z" fill="black"/>
<path d="M149.139 145.993C148.763 146.769 148.345 147.524 147.886 148.255C148.288 147.542 148.706 146.788 149.139 145.993Z" fill="black"/>
<path d="M62.1044 142.026C61.7587 143.247 61.3161 144.438 60.7808 145.588C61.215 144.465 61.6562 143.278 62.1044 142.026Z" fill="black"/>
<path d="M147.893 148.261C147.875 148.296 147.854 148.328 147.836 148.362H147.829C147.851 148.33 147.873 148.296 147.893 148.261Z" fill="black"/>
<mask id="mask0_1032_4235" style="mask-type:luminance" maskUnits="userSpaceOnUse" x="25" y="35" width="149" height="128">
<path d="M172.944 98.4306C171.206 116.203 165.937 133.449 157.446 149.158L157.44 149.169C157.008 149.963 156.591 150.717 156.189 151.432C156.189 151.432 156.189 151.432 156.189 151.438C156.171 151.466 156.153 151.494 156.135 151.521C152.045 157.998 145.03 162.269 137.061 162.269C124.436 162.269 114.204 151.548 114.204 138.324C114.204 125.099 124.436 114.38 137.061 114.38C141.326 114.379 145.498 115.618 149.072 117.946C154.507 100.863 155.019 82.595 150.549 65.2348C137.798 70.6402 124.551 74.7936 110.996 77.6364C99.8996 79.9577 88.6364 81.3941 77.3126 81.9321C78.8114 93.1214 78.8672 104.457 77.4785 115.66C76.7348 121.528 75.616 127.342 74.1288 133.067C72.961 137.588 71.6743 141.649 70.4066 145.201C69.9597 146.453 69.5184 147.641 69.0829 148.764C65.3866 156.756 57.5584 162.268 48.5085 162.268C35.8841 162.268 25.6514 151.547 25.6514 138.323C25.6514 125.098 35.8841 114.379 48.5085 114.379C51.1026 114.376 53.6766 114.835 56.1099 115.734C56.2431 114.844 56.3649 113.951 56.4755 113.057C58.0907 100.011 57.3742 86.7814 54.3596 73.986L51.2697 60.8182L64.7922 60.9881C78.8536 61.162 92.8918 59.7969 106.656 56.9171C122.767 53.5385 138.379 48.1094 153.11 40.7623L164.398 35.1329L167.979 47.2278C172.923 63.815 174.609 81.2025 172.944 98.4306Z" fill="white"/>
</mask>
<g mask="url(#mask0_1032_4235)">
<path d="M149.07 20.8751L234.612 106.418" stroke="black" stroke-width="3.4155" stroke-miterlimit="10"/>
<path d="M144.26 24.1937L229.803 109.737" stroke="black" stroke-width="3.4155" stroke-miterlimit="10"/>
<path d="M139.45 27.5134L224.992 113.056" stroke="black" stroke-width="3.4155" stroke-miterlimit="10"/>
<path d="M134.64 30.8323L220.183 116.376" stroke="black" stroke-width="3.4155" stroke-miterlimit="10"/>
<path d="M129.828 34.1519L215.371 119.694" stroke="black" stroke-width="3.4155" stroke-miterlimit="10"/>
<path d="M125.021 37.4716L210.564 123.014" stroke="black" stroke-width="3.4155" stroke-miterlimit="10"/>
<path d="M120.207 40.7905L205.75 126.333" stroke="black" stroke-width="3.4155" stroke-miterlimit="10"/>
<path d="M115.396 44.1099L200.939 129.652" stroke="black" stroke-width="3.4155" stroke-miterlimit="10"/>
<path d="M110.587 47.4285L196.13 132.971" stroke="black" stroke-width="3.4155" stroke-miterlimit="10"/>
<path d="M105.776 50.7484L191.319 136.291" stroke="black" stroke-width="3.4155" stroke-miterlimit="10"/>
<path d="M100.966 54.0673L186.509 139.61" stroke="black" stroke-width="3.4155" stroke-miterlimit="10"/>
<path d="M96.1566 57.3865L181.699 142.929" stroke="black" stroke-width="3.4155" stroke-miterlimit="10"/>
<path d="M91.3438 60.7053L176.886 146.248" stroke="black" stroke-width="3.4155" stroke-miterlimit="10"/>
<path d="M86.5352 64.025L172.078 149.567" stroke="black" stroke-width="3.4155" stroke-miterlimit="10"/>
<path d="M81.7234 67.3434L167.266 152.886" stroke="black" stroke-width="3.4155" stroke-miterlimit="10"/>
<path d="M76.9147 70.6633L162.457 156.206" stroke="black" stroke-width="3.4155" stroke-miterlimit="10"/>
<path d="M72.1041 73.9819L157.647 159.524" stroke="black" stroke-width="3.4155" stroke-miterlimit="10"/>
<path d="M67.2917 77.3018L152.834 162.844" stroke="black" stroke-width="3.4155" stroke-miterlimit="10"/>
<path d="M62.4832 80.6204L148.026 166.163" stroke="black" stroke-width="3.4155" stroke-miterlimit="10"/>
<path d="M57.6705 83.9399L143.214 169.482" stroke="black" stroke-width="3.4155" stroke-miterlimit="10"/>
<path d="M52.8607 87.2587L138.404 172.801" stroke="black" stroke-width="3.4155" stroke-miterlimit="10"/>
<path d="M48.0515 90.5784L133.594 176.121" stroke="black" stroke-width="3.4155" stroke-miterlimit="10"/>
<path d="M43.2394 93.8972L128.782 179.44" stroke="black" stroke-width="3.4155" stroke-miterlimit="10"/>
<path d="M38.4287 97.2169L123.972 182.759" stroke="black" stroke-width="3.4155" stroke-miterlimit="10"/>
<path d="M33.6204 100.535L119.163 186.078" stroke="black" stroke-width="3.4155" stroke-miterlimit="10"/>
<path d="M28.8079 103.855L114.35 189.398" stroke="black" stroke-width="3.4155" stroke-miterlimit="10"/>
<path d="M23.9994 107.174L109.543 192.716" stroke="black" stroke-width="3.4155" stroke-miterlimit="10"/>
<path d="M19.1884 110.493L104.732 196.036" stroke="black" stroke-width="3.4155" stroke-miterlimit="10"/>
<path d="M14.3768 113.812L99.9193 199.354" stroke="black" stroke-width="3.4155" stroke-miterlimit="10"/>
<path d="M9.56775 117.132L95.1102 202.674" stroke="black" stroke-width="3.4155" stroke-miterlimit="10"/>
<path d="M4.75671 120.45L90.3 205.993" stroke="black" stroke-width="3.4155" stroke-miterlimit="10"/>
<path d="M-0.0537109 123.77L85.4887 209.312" stroke="black" stroke-width="3.4155" stroke-miterlimit="10"/>
</g>
<path d="M105.898 135.147C105.732 145.361 112.467 154.74 121.558 157.578C133.386 161.269 143.588 152.146 146.973 149.119L105.898 135.147ZM105.898 135.147C106.048 125.91 111.811 117.89 119.696 114.254L105.898 135.147ZM136.538 154.05C132.37 156.109 127.416 157.285 122.161 155.645C113.968 153.087 107.77 144.538 107.923 135.18L107.923 135.18C108.059 126.775 113.314 119.426 120.544 116.093L120.544 116.093C129.874 111.789 138.694 115.995 139.858 116.58L141.996 117.653L142.702 115.367C145.39 106.652 146.88 97.6118 147.129 88.495C147.395 78.813 146.45 69.0284 144.183 61.472L143.533 59.3075L141.453 60.1896C118.441 69.9451 93.8819 75.5441 68.9156 76.7265L66.7677 76.8282L66.998 78.9661C67.9062 87.3983 68.2099 95.8846 67.9067 104.36L67.9067 104.36C67.1923 124.421 66.6632 136.646 58.0989 146.132C57.1676 147.164 54.4102 150.213 50.366 152.737C46.3241 155.261 41.1559 157.163 35.3278 156.16C26.8723 154.705 18.7054 147.491 17.5034 137.846C16.797 132.178 18.7117 127.459 20.9735 124.016C23.2422 120.562 25.7903 118.505 26.1027 118.259C35.3149 111.036 46.2432 114.195 47.2054 114.495L49.5156 115.214L49.8168 112.814C50.7575 105.317 51.5431 95.7051 50.3391 84.6949L50.3391 84.6947C49.4148 76.25 47.6901 67.8812 45.619 59.7817C64.4709 60.4684 83.3391 58.8279 101.796 54.8946L101.796 54.8946C120.622 50.8801 138.864 44.5129 156.095 35.9451C158.98 45.2969 160.995 54.8973 162.112 64.6237C162.406 67.1845 163.702 79.1258 162.621 95.1161C162.621 95.1165 162.621 95.1168 162.621 95.1172L162.619 95.154C161.92 105.409 161.338 113.959 157.847 124.727L159.773 125.352L157.847 124.727C154.643 134.61 152.332 141.61 145.626 147.607L145.625 147.607C143.941 149.114 140.722 151.985 136.538 154.05Z" fill="#E82323" stroke="black" stroke-width="4.05"/>
</svg>
