<svg width="77" height="87" viewBox="0 0 77 87" fill="none" xmlns="http://www.w3.org/2000/svg">
<path d="M38.3005 86.4551C26.8364 86.4551 15.3722 86.455 3.90812 86.4547C1.44854 86.4545 0.561406 85.5326 0.628513 83.0551C0.851663 74.4928 4.39708 66.3532 10.5146 60.3585C16.6321 54.3638 24.8419 50.9842 33.4067 50.9349C37.7217 50.9145 42.077 50.6747 46.3454 51.1499C60.087 52.6801 69.227 60.3127 74.1969 73.0736C75.4025 76.3674 76.0293 79.8451 76.0493 83.3526C76.1071 85.4479 75.1189 86.4528 73.0279 86.4534C61.4521 86.4568 49.8763 86.4573 38.3005 86.4551Z" fill="black"/>
<path d="M38.3402 45.9004C33.8636 45.9051 29.4863 44.5816 25.7622 42.0973C22.0382 39.6131 19.1349 36.0799 17.4197 31.9448C15.7046 27.8098 15.2547 23.2588 16.1271 18.868C16.9995 14.4771 19.1549 10.4438 22.3206 7.27858C25.4862 4.11331 29.5197 1.95837 33.9105 1.08652C38.3014 0.214673 42.8522 0.665123 46.9869 2.38083C51.1217 4.09654 54.6545 7.00039 57.1382 10.7248C59.6219 14.4493 60.9448 18.8269 60.9396 23.3035C60.9336 29.2952 58.5506 35.0398 54.3136 39.2763C50.0766 43.5129 44.3318 45.8952 38.3402 45.9004Z" fill="black"/>
</svg>
