<svg width="55" height="54" viewBox="0 0 55 54" fill="none" xmlns="http://www.w3.org/2000/svg">
<path d="M27.5685 53.4139C21.2681 53.4674 15.1503 51.299 10.2899 47.2896C5.42948 43.2802 2.13734 37.6862 0.991795 31.4905C-1.01635 20.9169 4.3515 9.91496 14.2296 4.35814C28.5061 -3.67295 46.8158 2.77293 52.7432 17.9167C58.1796 31.806 50.3699 47.7154 35.8671 52.0841C33.1987 52.888 30.3779 53.1867 27.6275 53.7186L27.5685 53.4139ZM25.0732 14.2056C24.701 14.2576 24.4529 14.3018 24.2027 14.3259C19.8486 14.7456 16.8051 18.0969 17.0048 22.2544C17.2099 26.5224 20.498 29.625 24.8757 29.6655C26.6898 29.6823 28.5045 29.6487 30.3183 29.6782C30.6801 29.6617 31.0415 29.7193 31.3803 29.8474C31.7191 29.9755 32.0282 30.1714 32.2887 30.4231C32.5491 30.6748 32.7555 30.977 32.8951 31.3112C33.0347 31.6455 33.1046 32.0047 33.1005 32.3669C33.092 33.8861 31.9282 35.0029 30.2863 35.0286C28.9167 35.05 27.5459 35.0079 26.1768 35.0404C24.6449 35.0767 23.2068 34.9583 21.8015 34.1434C21.4555 33.9575 21.0691 33.8596 20.6764 33.8583C20.2836 33.8569 19.8966 33.9522 19.5494 34.1357C19.2021 34.3193 18.9054 34.5854 18.6853 34.9106C18.4651 35.2359 18.3284 35.6103 18.287 36.0008C18.2128 36.4998 18.2913 37.0095 18.5122 37.463C18.733 37.9165 19.0859 38.2926 19.5245 38.5418C21.1691 39.6139 23.1101 40.1398 25.071 40.0447C25.071 40.975 25.0473 41.7827 25.0761 42.5886C25.0754 43.2424 25.3337 43.87 25.7947 44.3337C26.2556 44.7975 26.8815 45.0596 27.5354 45.0628C28.1892 45.066 28.8177 44.81 29.2832 44.3508C29.7486 43.8916 30.0131 43.2666 30.0188 42.6128C30.0491 41.8047 30.0242 40.9945 30.0242 40.1521C30.3502 40.0911 30.5974 40.0298 30.8482 40.0002C35.363 39.4665 38.3185 36.198 38.0824 31.9952C37.8402 27.6849 34.5627 24.6872 30.0383 24.6494C28.4463 24.6362 26.8541 24.6506 25.2621 24.646C23.2296 24.6401 22.0067 23.6437 21.9934 21.9911C21.9797 20.2901 23.2162 19.2781 25.3216 19.2726C26.6545 19.2692 27.9889 19.3119 29.3199 19.2611C30.0212 19.2048 30.7264 19.299 31.3883 19.5373C32.0502 19.7757 32.6536 20.1527 33.158 20.6431C33.3897 20.8722 33.665 21.0524 33.9675 21.1733C34.2701 21.2941 34.5938 21.3531 34.9195 21.3468C35.2453 21.3405 35.5664 21.2689 35.8641 21.1364C36.1617 21.0039 36.4298 20.8131 36.6524 20.5753C36.8836 20.334 37.0641 20.0489 37.1835 19.7368C37.3029 19.4247 37.3587 19.0919 37.3476 18.758C37.3366 18.424 37.2589 18.0957 37.1191 17.7922C36.9793 17.4887 36.7802 17.2162 36.5336 16.9907C35.3771 15.7748 33.8876 14.9269 32.2517 14.5532C31.5407 14.3928 30.8146 14.2994 30.0233 14.1632C30.0233 13.3008 30.0502 12.4902 30.0174 11.6819C30.0085 11.0365 29.7473 10.4203 29.2897 9.96518C28.8322 9.51003 28.2146 9.25211 27.5692 9.24664C26.9239 9.24118 26.302 9.48859 25.8368 9.93593C25.3716 10.3833 25.1 10.995 25.0801 11.64C25.0422 12.4509 25.0732 13.2651 25.0732 14.2056Z" fill="black"/>
</svg>
