<svg width="258" height="282" viewBox="0 0 258 282" fill="none" xmlns="http://www.w3.org/2000/svg">
<path d="M189.639 230.336C189.682 229.582 189.438 228.84 188.954 228.261C188.47 227.682 187.784 227.308 187.035 227.217C169.209 218.715 150.373 212.448 132.611 203.805C139.745 189.656 154.13 177.903 167.192 169.338C196.423 150.18 240.553 135.263 242.076 94.1353C242.487 83.1435 240.457 71.3866 233.203 63.1863C232.863 62.39 232.244 61.7454 231.462 61.3733C230.798 60.7497 230.105 60.1386 229.371 59.5667C223.075 54.6894 213.386 53.5446 205.924 51.6824C193.066 48.4714 180.208 45.2295 167.314 42.1526C148.579 37.6631 126.875 29.3976 107.536 34.3645C92.7295 38.1587 84.1614 51.9464 78.2627 64.9494C77.89 65.673 77.7958 66.5083 77.9979 67.2968C78.2 68.0853 78.6843 68.7723 79.3592 69.2275C79.9132 69.7401 80.6082 70.0751 81.3543 70.1891C94.5384 72.417 107.618 75.1913 120.651 78.139L120.638 78.1709C128.049 144.469 -2.25401 128.427 16.4867 198.096C23.2735 223.316 51.7548 233.815 73.6435 241.536C97.7905 250.059 122.281 257.588 146.664 265.364C147.265 265.56 147.905 265.608 148.529 265.504C167.973 270.778 190.053 252.297 189.639 230.336ZM106.718 42.6734C117.454 37.624 130.608 41.7368 141.409 44.0476C164.691 49.0191 188.206 54.3152 211.181 60.7678C200.843 64.504 193.06 74.1599 193.467 85.9875C157.892 79.6776 122.985 69.8835 87.4197 63.5033C91.8321 54.7119 97.3811 47.0717 106.718 42.6734ZM22.6499 184.246C24.2004 153.185 71.5471 144.191 93.6545 131.09C112.651 119.827 129.572 102.883 128.419 79.8282C151.363 85.0651 174.25 90.5949 197.464 94.4849C197.997 94.5994 198.551 94.5804 199.075 94.4295C199.599 94.2787 200.078 94.0006 200.469 93.6201C201.022 93.2489 201.44 92.7103 201.663 92.0835C201.886 91.4567 201.902 90.7749 201.708 90.1384C198.09 74.6717 212.936 62.7162 227.355 67.9831C232.531 73.5389 233.512 81.9669 234.309 89.979C235.792 104.842 228.682 117.302 218.363 127.339C202.553 142.727 181.073 151.67 162.559 163.271C145.291 174.079 128.735 188.469 122.48 208.388C117.747 223.49 122.476 240.004 131.522 252.481C116.95 247.846 102.384 243.183 87.8902 238.295C62.2439 229.632 20.9324 218.425 22.6393 184.242L22.6499 184.246ZM158.253 258.709C145.909 261.616 136.672 248.057 132.202 238.759C127.401 228.812 127.148 219.465 129.768 210.874C146.84 219.187 164.846 225.3 182.011 233.292C181.383 247.084 171.17 255.689 158.232 258.731L158.253 258.709Z" fill="#DADAD9"/>
<path d="M137.155 96.6596C140.199 96.5542 141.999 97.8269 144.818 98.2873C148.026 98.7617 151.276 98.8779 154.509 98.6336C161.186 98.2539 165.937 98.4473 170.209 104.23C171.292 105.572 172.861 106.434 174.575 106.629C176.621 106.71 178.663 106.394 180.589 105.7C186.277 103.913 190.114 103.381 195.925 105.128C203.342 107.418 210.49 108.545 218.281 108.079C219.221 108.023 219.423 106.493 218.511 106.22C210.73 103.924 202.474 102.824 194.568 100.924C191.423 100.169 188.494 99.6889 185.294 100.314C181.131 101.097 175.649 105.956 171.463 100.984C168.121 97.0122 164.17 95.4954 158.903 95.6251C154.294 95.7376 149.713 96.2703 145.113 95.7976C141.996 95.476 140.087 94.742 137.003 95.5562C136.931 95.5661 136.861 95.5903 136.798 95.6272C136.735 95.6641 136.679 95.7132 136.635 95.7714C136.591 95.8297 136.559 95.8961 136.54 95.9669C136.522 96.0376 136.517 96.1114 136.527 96.1838C136.537 96.2563 136.561 96.326 136.598 96.3891C136.635 96.4522 136.684 96.5075 136.743 96.5517C136.801 96.5959 136.867 96.6281 136.938 96.6466C137.009 96.6651 137.083 96.6695 137.155 96.6596Z" fill="#DADAD9"/>
<path d="M130.53 112.919C136.071 112.635 140.451 113.31 144.576 117.216C146.937 119.455 151.174 119.798 154.195 120.57C162.746 122.758 173.019 126.243 181.853 125.558C182.944 125.469 182.918 124.026 182.092 123.603C173.36 119.165 161.433 119.043 151.857 116.828C147.104 115.729 144.226 112.733 139.726 111.347C136.867 110.467 133.207 111.431 130.367 111.873C130.25 111.916 130.151 111.999 130.088 112.106C130.025 112.214 130 112.34 130.02 112.463C130.039 112.586 130.1 112.699 130.193 112.782C130.286 112.866 130.405 112.914 130.53 112.919Z" fill="#DADAD9"/>
<path d="M114.133 129.475C120.363 129.856 125.363 129.71 129.937 135.163C132.296 137.984 135.284 139.462 138.673 140.762C142.785 142.338 147.363 142.759 151.696 143.278C157.406 143.961 163.182 145.229 168.926 145.436C169.147 145.456 169.369 145.404 169.559 145.288C169.748 145.173 169.896 144.999 169.98 144.793C170.064 144.588 170.079 144.36 170.024 144.145C169.97 143.93 169.847 143.737 169.675 143.597C161.172 137.076 147.834 139.38 137.91 136.074C133.38 134.563 130.978 129.351 126.445 128.303C122.35 127.336 118.229 127.697 114.109 128.331C113.495 128.422 113.471 129.441 114.133 129.475Z" fill="#DADAD9"/>
<path d="M139.141 157.004C134.587 154.486 129.751 154.077 124.655 153.254C118.795 152.299 114.653 148.33 108.642 149.16C102.019 150.077 99.6486 147.617 94.1434 144.847C90.6575 143.086 88.0151 143.15 84.3818 144.46C83.8987 144.641 84.1319 145.362 84.6173 145.312C93.7425 144.355 97.9661 154.166 107.272 152.812C112.88 151.997 116.731 154.886 121.887 156.199C127.274 157.569 133.132 158.301 138.668 158.789C138.889 158.81 139.11 158.752 139.292 158.625C139.474 158.499 139.605 158.311 139.661 158.097C139.718 157.883 139.697 157.655 139.602 157.455C139.507 157.255 139.343 157.095 139.141 157.004Z" fill="#DADAD9"/>
<path d="M59.6104 162.502C69.1013 165.396 77.2405 169.598 87.16 170.967C92.3084 171.676 96.8076 174.191 101.628 175.888C105.738 177.333 110.219 178.067 114.475 178.927C116.055 179.249 116.393 177.005 115.138 176.358C110.521 173.993 105.298 173.589 100.428 171.878C96.7868 170.605 93.4281 168.958 89.6523 168.015C84.1064 166.623 78.6989 166.429 73.1677 164.56C68.8078 163.088 64.4825 161.896 59.8485 161.614C59.3507 161.603 59.0986 162.343 59.6104 162.502Z" fill="#DADAD9"/>
<path d="M69.2798 190.49C76.5123 192.246 83.7009 194.034 90.8392 196.173C96.5697 197.888 102.245 200.362 108.215 200.94C109.528 201.066 109.838 199.376 108.77 198.804C96.2372 192.161 81.2118 191.104 67.9239 186.59C57.6382 183.106 50.6908 174.746 38.9785 177.153C38.3646 177.275 38.293 178.319 38.9903 178.311C51.1633 178.243 58.197 187.791 69.2798 190.49Z" fill="#DADAD9"/>
<path d="M104.389 221.427C99.903 219.55 95.9071 216.849 91.3941 214.992C85.5931 212.629 79.4441 210.998 73.5259 208.953C62.1449 205.023 50.9665 200.915 38.9884 199.166C38.8749 199.157 38.762 199.189 38.6695 199.255C38.577 199.321 38.5109 199.418 38.483 199.529C38.4551 199.639 38.4672 199.756 38.5171 199.858C38.5669 199.96 38.6513 200.042 38.7554 200.088C50.9338 204.039 62.7424 208.974 74.8241 213.207C80.7027 215.274 86.649 217.083 92.4602 219.345C96.7102 220.995 99.6142 223.728 104.235 222.703C104.377 222.678 104.507 222.608 104.606 222.504C104.705 222.399 104.768 222.265 104.785 222.122C104.803 221.979 104.774 221.834 104.702 221.709C104.631 221.584 104.521 221.485 104.389 221.427Z" fill="#DADAD9"/>
<path d="M126.614 179.123C124.654 178.292 122.537 177.896 120.409 177.966C119.859 177.977 119.893 178.729 120.29 178.928C122.047 179.805 123.743 180.998 125.592 181.633C125.925 181.769 126.298 181.767 126.629 181.627C126.96 181.488 127.222 181.222 127.358 180.89C127.493 180.557 127.491 180.184 127.352 179.853C127.212 179.521 126.947 179.259 126.614 179.123Z" fill="#DADAD9"/>
<path d="M199.575 127.936C196.034 125.185 190.066 124.632 185.715 124.447C185.203 124.424 184.784 125.134 185.299 125.468C189.143 127.963 194.742 130.852 199.396 129.351C199.527 129.293 199.641 129.202 199.727 129.087C199.812 128.972 199.867 128.836 199.885 128.694C199.903 128.552 199.884 128.407 199.83 128.274C199.776 128.141 199.688 128.025 199.575 127.936Z" fill="#DADAD9"/>
<path d="M171.884 240.027C171.898 239.853 171.857 239.678 171.766 239.529C171.674 239.38 171.537 239.264 171.375 239.197C171.213 239.131 171.034 239.119 170.865 239.162C170.695 239.205 170.543 239.3 170.432 239.436C168.184 241.911 166.477 244.458 163.434 246.082C161.063 247.336 158.368 248.048 156.213 249.669C156.121 249.743 156.052 249.842 156.016 249.954C155.979 250.067 155.976 250.187 156.008 250.301C156.039 250.415 156.104 250.517 156.193 250.595C156.282 250.673 156.392 250.722 156.509 250.738C162.744 251.976 171.879 246.962 171.884 240.027Z" fill="#DADAD9"/>
<path d="M101.719 56.0975C107.823 50.9153 116.053 49.4323 123.53 47.4072C123.734 47.383 123.923 47.2915 124.069 47.1471C124.214 47.0028 124.307 46.814 124.333 46.6107C124.359 46.4073 124.316 46.2012 124.211 46.0251C124.106 45.849 123.946 45.7131 123.755 45.6388C119.429 43.3371 114.944 43.9834 110.573 45.7799C106.019 47.6444 103.673 51.5307 101.108 55.4518C100.84 55.8819 101.312 56.4585 101.719 56.0975Z" fill="#DADAD9"/>
</svg>
