<svg width="254" height="218" viewBox="0 0 254 218" fill="none" xmlns="http://www.w3.org/2000/svg">
<path d="M113.253 57.8784C100.713 94.8412 154.92 116.153 170.619 79.9078C177.758 63.409 169.841 45.7913 153.75 38.8946C137.114 31.7404 120.634 41.3056 113.711 56.7019C113.599 56.8792 113.507 57.0685 113.437 57.2661C113.352 57.4621 113.29 57.6677 113.253 57.8784ZM166.42 75.6945C156.801 108.713 106.909 91.4435 118.445 59.2357C131.422 29.0638 175.689 43.8825 166.42 75.6945Z" fill="#DADAD9"/>
<path d="M57.0445 38.2544C47.3447 67.435 90.0489 84.1789 102.488 55.551C108.153 42.5126 101.822 28.5877 89.1265 23.1089C76.0335 17.4608 63.0279 24.9812 57.5103 37.0591C57.3956 37.238 57.3027 37.4299 57.2334 37.6308C57.1463 37.8306 57.0829 38.0399 57.0445 38.2544ZM98.1112 51.7665C90.9967 76.5672 53.6172 63.7424 62.2187 39.5915C71.9266 17.1242 104.95 27.9973 98.13 51.7738L98.1112 51.7665Z" fill="#DADAD9"/>
<path d="M221.976 145.894C221.259 137.346 213.744 130.454 207.236 125.84C194.421 116.764 172.028 109.777 157.657 119.214C150.991 110.892 140.289 104.962 131.316 100.973C120.804 96.3013 108.644 93.5258 97.0545 94.867C92.548 78.1442 71.8443 69.2643 56.4078 66.5437C31.7707 62.1984 22.9386 81.3257 15.0931 101.218C14.936 101.595 14.8689 102.004 14.897 102.411C14.7509 106.42 20.5223 109.214 24.5496 110.811C24.1619 111.907 23.7795 113.001 23.4127 114.087C23.1944 114.456 23.0734 114.873 23.0609 115.301C22.8208 120.409 29.5233 123.591 33.2489 125.602C41.7495 130.221 50.7611 133.829 60.0999 136.354C59.657 137.48 59.2366 138.615 58.8158 139.685C58.6607 140.075 58.5991 140.496 58.6356 140.915C58.5629 143.755 61.3525 145.832 63.4955 147.239C65.9828 148.841 68.6163 150.205 71.3605 151.312C70.6828 153.204 70.0297 155.081 69.4013 156.943C69.2966 157.195 69.2275 157.459 69.1961 157.73C68.1937 167.552 91.451 175.13 97.8411 177.795C104.659 180.641 128.243 192.094 134.624 183.463C134.764 183.27 134.879 183.061 134.969 182.84C135.792 181.026 136.607 179.179 137.413 177.299C140.184 178.313 143.031 179.108 145.927 179.677C148.583 180.197 152.409 180.532 154.153 177.949C154.174 177.897 154.193 177.848 154.212 177.799C154.355 177.599 154.473 177.381 154.562 177.152C154.98 176.09 155.389 174.972 155.819 173.836C164.152 178.324 172.963 181.862 182.086 184.384C186.507 185.633 194.751 188.555 198.398 184.263C198.68 183.941 198.876 183.553 198.967 183.135C199.439 182.089 199.904 181.028 200.367 179.962C204.399 181.547 210.532 183.422 213.156 180.388C213.451 180.106 213.679 179.762 213.825 179.381C217.957 168.887 222.929 157.413 221.976 145.894ZM23.5266 104.253C22.7443 103.832 21.9901 103.36 21.269 102.841C20.9943 102.654 20.7338 102.447 20.4893 102.222C20.7551 101.546 21.0209 100.871 21.2866 100.195L22.1434 100.805C23.721 101.973 25.4599 102.905 27.3056 103.572C27.0251 104.286 26.7168 104.992 26.4415 105.703C25.4501 105.248 24.4683 104.78 23.5051 104.275L23.5266 104.253ZM42.39 124.182C40.375 123.277 28.68 118.439 28.4275 115.973C32.2561 104.696 37.1762 92.5389 44.877 83.3743C47.1157 80.7133 42.7944 77.5052 40.5721 80.1466C35.3718 86.3372 31.3627 93.8632 28.0957 101.586C26.6721 101.072 25.3142 100.393 24.0501 99.5611C23.5907 99.2634 22.7422 98.7866 22.0515 98.2505C24.9451 91.1137 28.127 84.0816 32.7874 77.9084C38.1235 70.8436 47.9231 70.8574 55.8253 71.8934C68.6572 73.5982 87.7822 82.0175 91.7391 95.7846C90.5361 96.0657 89.3394 96.3753 88.1603 96.7612C74.3582 101.259 67.2688 117.587 61.9923 131.333C55.2659 129.589 48.7536 127.036 42.39 124.182ZM68.6723 144.095C67.5942 143.516 66.5541 142.87 65.5584 142.159C65.0948 141.847 64.6607 141.494 64.2616 141.103C64.2015 141.04 64.1453 140.973 64.0934 140.902C64.4871 139.901 64.8854 138.863 65.2882 137.788C67.7716 140.29 71.2583 142.303 74.5007 143.019C74.077 144.097 73.6322 145.161 73.2354 146.236C71.7065 145.583 70.1788 144.882 68.6799 144.119L68.6723 144.095ZM74.5532 158.437C79.549 143.696 85.9763 127.784 96.0511 115.79C98.2897 113.129 93.9684 109.921 91.7476 112.559C84.8414 120.783 79.5846 130.81 75.3134 141.063C72.1961 140.492 68.3835 138.073 66.1514 135.505C71.1123 122.362 77.1886 106.902 90.3198 101.663C102.521 96.8175 117.857 101.224 129.338 105.956C140.686 110.641 152.866 118.678 157.796 130.378C160.396 136.551 158.135 144.283 156.855 150.503C155.529 156.842 153.809 163.093 151.705 169.219C148.211 169.284 144.819 168.244 141.512 166.965C145.349 156.58 148.314 145.691 148.879 135.008C149.05 131.564 143.701 130.969 143.528 134.442C142.733 150.085 136.597 166.116 130.212 180.31C125.318 185.72 74.5721 165.475 74.5682 158.442L74.5532 158.437ZM144.255 173.844C142.637 173.428 141.043 172.897 139.466 172.32C139.897 171.224 140.33 170.124 140.764 169.02C144.074 170.27 147.456 171.349 150.936 171.448C150.569 172.482 150.206 173.514 149.821 174.538C149.621 174.494 149.05 174.668 148.517 174.623C147.075 174.497 145.648 174.236 144.255 173.844ZM178.19 177.616C171.15 175.399 164.349 172.486 157.887 168.919C157.825 168.89 157.761 168.865 157.695 168.844C162.37 155.945 166.852 140.438 162.725 128.282C162.175 126.682 161.476 125.138 160.639 123.668C173.158 115.28 192.767 122.919 203.974 130.179C220.597 140.947 216.843 156.268 211.007 171.81C208.691 171.814 206.19 171.394 204.267 170.212C207.027 162.52 209.112 154.497 209.513 146.623C209.686 143.175 204.337 142.58 204.163 146.053C203.554 158.016 198.877 170.26 193.996 181.127C192.132 182.748 180.318 178.279 178.198 177.597L178.19 177.616ZM205.592 175.913C204.541 175.643 203.499 175.316 202.471 174.954C202.83 174.042 203.19 173.126 203.521 172.195C205.581 173.289 207.867 173.892 210.199 173.954C209.868 174.795 209.537 175.636 209.206 176.477C209.038 176.498 208.868 176.502 208.699 176.489C207.649 176.389 206.611 176.189 205.599 175.894L205.592 175.913Z" fill="#DADAD9"/>
<path d="M226.031 104.726C226.15 104.541 226.247 104.342 226.321 104.134C226.406 103.936 226.47 103.73 226.51 103.519C236.296 74.2293 195.932 56.728 181.743 84.6588C167.058 113.53 212.734 133.762 226.031 104.726ZM221.316 102.165C211.608 124.646 177.816 111.528 185.988 88.3917C194.585 64.0311 229.921 77.9509 221.305 102.161L221.316 102.165Z" fill="#DADAD9"/>
<path d="M148.831 50.3018C148.973 50.305 149.113 50.2595 149.226 50.1727C149.339 50.086 149.419 49.9631 149.453 49.8246C149.486 49.6862 149.472 49.5403 149.411 49.4112C149.351 49.2822 149.248 49.1777 149.12 49.1151C137.32 43.7502 120.024 54.1434 121.021 67.4137C121.031 67.4733 121.058 67.5288 121.099 67.5732C121.14 67.6177 121.193 67.6492 121.252 67.664C121.31 67.6788 121.372 67.6761 121.429 67.6564C121.486 67.6366 121.536 67.6006 121.573 67.5528C127.793 57.4806 136.595 50.4654 148.831 50.3018Z" fill="#DADAD9"/>
<path d="M73.0635 59.4187C77.3452 64.7222 91.5093 61.2769 91.9598 54.0808C91.9699 53.9583 91.9444 53.8354 91.8862 53.7271C91.828 53.6187 91.7398 53.5295 91.6321 53.4702C91.5244 53.4109 91.4018 53.384 91.2791 53.3928C91.1565 53.4016 91.039 53.4456 90.9408 53.5197C88.3757 55.545 85.9413 57.2491 82.716 58.0872C79.6001 58.912 76.4269 58.6479 73.2436 58.9607C73.194 58.9676 73.1471 58.9876 73.1078 59.0186C73.0684 59.0495 73.038 59.0905 73.0197 59.1371C73.0013 59.1837 72.9957 59.2343 73.0034 59.2838C73.0111 59.3333 73.0319 59.3799 73.0635 59.4187Z" fill="#DADAD9"/>
<path d="M93.5256 51.1594C94.145 51.0923 94.7132 50.7846 95.1079 50.3025C95.5027 49.8205 95.6922 49.2028 95.6359 48.5823C95.5246 47.5979 94.3292 47.4962 93.765 48.1152C93.2007 48.7342 93.1406 49.6035 92.8791 50.3676C92.8457 50.4644 92.8376 50.5681 92.8556 50.6689C92.8736 50.7697 92.917 50.8643 92.9818 50.9436C93.0465 51.0229 93.1305 51.0844 93.2257 51.1221C93.3209 51.1599 93.4241 51.1727 93.5256 51.1594Z" fill="#DADAD9"/>
<path d="M199.013 108.397C199.137 108.408 199.262 108.383 199.372 108.324C199.483 108.265 199.574 108.176 199.634 108.067C199.694 107.957 199.722 107.833 199.713 107.708C199.704 107.584 199.659 107.464 199.584 107.365C197.665 105.102 195.327 103.233 193.492 100.899C191.705 98.6309 190.972 95.7115 189.961 93.0686C189.937 92.997 189.892 92.9339 189.833 92.8865C189.774 92.8391 189.702 92.8093 189.627 92.8005C189.552 92.7917 189.476 92.8043 189.407 92.8368C189.339 92.8693 189.281 92.9205 189.24 92.9843C185.489 99.1163 192.581 108.13 199.013 108.397Z" fill="#DADAD9"/>
<path d="M190.608 90.21C191.167 89.4374 192.478 87.2613 190.988 86.6751C189.321 86.0195 188.976 88.8703 189.19 89.8691C189.221 90.0186 189.295 90.1561 189.401 90.2657C189.507 90.3753 189.643 90.4524 189.791 90.4881C189.94 90.5238 190.095 90.5166 190.24 90.4674C190.384 90.4181 190.512 90.3289 190.608 90.21Z" fill="#DADAD9"/>
<path d="M78.3218 85.9257C72.5367 80.3777 64.149 76.719 56.1141 76.4283C56.0327 76.4225 55.9518 76.4456 55.8857 76.4935C55.8196 76.5414 55.7725 76.6111 55.7527 76.6904C55.7329 76.7696 55.7418 76.8533 55.7776 76.9266C55.8134 77 55.874 77.0584 55.9487 77.0915C63.0651 80.61 70.639 83.4285 77.8926 86.6975C78.3926 86.9029 78.6621 86.2286 78.3218 85.9257Z" fill="#DADAD9"/>
<path d="M137.412 115.86C127.984 107.241 112.899 103.978 100.432 104.532C100.039 104.55 100.002 105.151 100.348 105.275C106.044 107.246 111.865 108.504 117.671 110.098C124.212 111.904 130.388 114.727 136.77 117.007C136.918 117.062 137.082 117.062 137.231 117.008C137.379 116.953 137.504 116.846 137.581 116.708C137.659 116.57 137.684 116.408 137.653 116.253C137.622 116.097 137.536 115.958 137.412 115.86Z" fill="#DADAD9"/>
<path d="M175.407 125.046C175.036 125.052 174.811 125.614 175.237 125.742C184.789 128.589 193.22 133.097 202.419 136.711C202.545 136.757 202.684 136.762 202.813 136.724C202.943 136.685 203.056 136.606 203.137 136.498C203.218 136.389 203.261 136.258 203.261 136.123C203.261 135.988 203.217 135.856 203.135 135.748C196.565 128.361 185.072 124.838 175.407 125.046Z" fill="#DADAD9"/>
<path d="M75.4957 34.7962C78.1808 34.075 80.9295 34.0075 83.6895 33.8012C83.7964 33.7829 83.8956 33.734 83.9753 33.6603C84.0549 33.5867 84.1115 33.4916 84.1381 33.3865C84.1648 33.2813 84.1604 33.1707 84.1255 33.0681C84.0906 32.9654 84.0266 32.8751 83.9414 32.808C78.7131 29.746 72.4704 31.9851 68.6195 36.1663C68.2279 36.5888 68.8122 37.1091 69.2541 36.9664C71.3233 36.2241 73.3664 35.3718 75.4957 34.7962Z" fill="#DADAD9"/>
<path d="M216.632 92.4482C217.031 94.9283 216.353 97.3144 216.348 99.7834C216.343 100.215 216.867 100.668 217.257 100.284C221.35 96.2585 219.011 89.322 215.845 85.4675C215.595 85.1655 215.047 85.3702 215.129 85.7795C215.583 88.0174 216.27 90.1948 216.632 92.4482Z" fill="#DADAD9"/>
<path d="M141.067 89.5722C144.597 91.7152 151.975 89.8096 153.025 85.5067C153.137 85.0476 152.637 84.7644 152.265 84.774C150.377 84.8464 148.744 86.0116 147.047 86.7226C145.119 87.5338 143.069 87.9539 141.17 88.7461C141.091 88.7767 141.021 88.8284 140.968 88.8956C140.915 88.9629 140.881 89.0432 140.871 89.1281C140.86 89.2129 140.873 89.299 140.907 89.3773C140.942 89.4555 140.997 89.5229 141.067 89.5722Z" fill="#DADAD9"/>
<path d="M142.64 117.82C141.982 116.859 140.489 116.19 139.458 116.959C139.364 117.034 139.297 117.138 139.267 117.255C139.238 117.372 139.248 117.495 139.295 117.606C139.708 118.418 140.678 119.017 141.508 119.343C141.707 119.411 141.923 119.414 142.125 119.351C142.326 119.289 142.503 119.164 142.629 118.994C142.755 118.825 142.824 118.62 142.826 118.409C142.827 118.198 142.762 117.992 142.64 117.82Z" fill="#DADAD9"/>
</svg>
