<svg width="164" height="185" viewBox="0 0 164 185" fill="none" xmlns="http://www.w3.org/2000/svg">
<path d="M163.938 56.0943C163.855 61.6028 161.788 65.6225 159.414 69.4686C156.684 73.8936 153.897 78.2855 150.887 82.5203C144.907 90.9237 139.737 99.815 134.592 108.731C127.628 120.815 119.473 132.089 111.326 143.379C103.995 153.566 96.1206 163.351 87.737 172.691C84.2876 176.586 80.2793 179.948 75.8432 182.666C73.252 184.315 70.1603 184.992 67.1172 184.577C60.1778 183.626 53.4286 182.095 47.581 177.877C45.3306 176.296 42.9083 174.976 40.3604 173.94C34.1819 171.368 28.9463 167.447 24.1739 162.898C17.6481 156.679 10.7003 150.905 4.3978 144.437C3.5707 143.61 2.74359 142.734 2.01574 141.84C-0.258805 139.185 -0.465569 136.183 0.684108 133.023C3.1158 126.572 6.1182 120.435 10.4605 115.009C15.6878 108.491 20.0053 101.353 24.4138 94.29C26.8041 90.4605 29.0207 86.5234 31.4855 82.7601C38.5733 72.049 46.3711 61.8252 54.8265 52.1572C62.4689 43.3485 70.4174 34.788 78.217 26.1447C79.3367 24.9088 80.3236 23.5587 81.1615 22.1167C85.2308 15.1112 90.5988 9.12291 96.099 3.25046C99.0104 0.132273 102.426 -0.612117 106.537 0.46312C110.813 1.57144 114.419 3.9535 118.117 6.06262C125.561 10.256 132.326 15.4751 139.001 20.7934C146.618 26.7092 152.902 34.1634 157.445 42.6703C158.901 45.4494 160.63 48.0796 162.276 50.7511C163.442 52.6452 164.087 54.6551 163.938 56.0943ZM143.823 37.749C141.264 40.0467 138.884 42.5352 136.702 45.193C136.151 45.8896 135.406 46.4069 134.56 46.6794C133.715 46.9518 132.808 46.967 131.954 46.7231C129.738 46.2746 127.649 45.3364 125.842 43.9771C121.342 40.4868 117.571 36.1693 113.17 32.5796C112.391 31.8367 111.702 31.0038 111.119 30.0983C110.782 29.6719 110.535 29.1816 110.393 28.6571C110.251 28.1325 110.217 27.5845 110.292 27.0463C110.921 22.5882 111.053 18.0308 112.773 13.8126C113.336 12.4644 112.84 11.8441 111.764 11.232C108.477 9.44966 104.737 8.67578 101.012 9.00711C99.8255 9.11851 98.709 9.61861 97.836 10.4297C96.2229 11.8597 94.5271 13.1937 92.7575 14.4247C91.6906 15.1608 90.7476 16.021 91.5995 17.5842C92.0214 18.3452 91.5334 19.1143 91.1364 19.7843C89.9867 21.728 88.9363 23.7461 87.6212 25.574C82.9398 31.9924 78.2584 38.4025 73.4198 44.6885C61.3358 60.4035 49.1111 75.953 37.0685 91.6598C30.0298 100.832 23.0077 110.022 17.342 120.17C15.2412 123.933 12.9253 127.614 11.5523 131.75C9.3191 138.615 10.1462 139.996 15.1088 143.619C24.7694 150.665 34.3142 157.861 43.859 165.065C47.8374 168.068 51.9895 171.029 56.7784 172.567C60.3929 173.733 64.2224 175.925 68.0602 172.865C68.1925 172.757 68.4406 172.799 68.6309 172.758C70.1341 172.31 71.5281 171.555 72.725 170.541C80.996 164.23 87.7039 156.48 93.9486 148.259C99.4653 140.988 104.602 133.462 109.473 125.761C116.711 114.322 125.015 103.62 132.409 92.2967C138.149 83.5128 143.765 74.6545 149.067 65.6142C150.766 62.8566 152.113 59.8974 153.078 56.8056C153.376 55.9727 153.518 55.0926 153.5 54.2085C152.979 47.0871 149.514 41.7109 143.823 37.749ZM100.904 3.30837C101.624 6.18669 101.624 6.24459 104.105 6.25286C107.865 6.25125 111.529 7.43499 114.577 9.63572C120.019 13.49 125.329 17.5098 129.977 22.3401C132.705 25.1517 135.678 27.7148 138.86 29.9991C143.997 33.7376 149.183 37.5092 152.921 42.8275C153.583 43.7786 154.526 44.5313 154.84 45.7306C156.403 51.6527 157.032 57.5003 153.757 63.0998C153.12 64.1999 152.599 65.3744 151.953 66.4661C149.472 70.6844 146.991 74.9357 144.394 79.0795C137.587 89.8319 130.54 100.452 123.154 110.849C115.544 121.551 108.514 132.659 101.037 143.461C94.9016 152.583 87.7449 160.975 79.7058 168.473C76.5876 171.302 72.9235 173.436 70.0865 176.637C69.66 177.062 69.1343 177.375 68.5568 177.547C67.9792 177.719 67.3679 177.744 66.7781 177.621C61.5425 176.843 56.2656 176.24 51.6007 173.386C47.672 170.979 43.6109 168.754 40.0213 165.876C31.287 158.895 22.2798 152.287 13.1403 145.843C11.8784 144.91 10.7268 143.836 9.70781 142.643C8.38718 141.171 7.66186 139.26 7.67316 137.283C7.58218 133.619 8.75664 130.352 10.3281 127.159C14.8824 118.031 20.2353 109.323 26.3244 101.138C32.8254 92.2884 39.6491 83.6782 46.3486 74.9853C57.0514 61.0817 67.9444 47.3269 78.3411 33.1834C78.6471 32.7699 79.3418 32.4473 78.8787 31.736C78.2359 31.6676 77.5869 31.7782 77.003 32.0555C76.4192 32.3328 75.9233 32.7661 75.5702 33.3075C74.7431 34.3579 73.7754 35.3835 72.8574 36.4009C66.8939 43.0177 60.7154 49.4774 54.9918 56.3176C44.8846 68.4429 35.4639 81.0811 27.5154 94.778C22.9901 102.696 17.9042 110.281 12.2967 117.474C8.46715 122.296 5.90313 127.796 3.66995 133.462C2.57817 136.224 2.90902 138.863 5.18357 141.038C5.73497 141.589 6.28637 142.141 6.83778 142.692C13.2478 149.466 20.5098 155.322 27.2507 161.716C31.2462 165.647 35.9387 168.799 41.0882 171.012C43.8072 172.144 46.3971 173.563 48.8134 175.247C53.867 178.779 59.5658 180.375 65.4961 181.417C67.3753 181.815 69.3186 181.8 71.1911 181.371C73.0636 180.943 74.8205 180.112 76.3395 178.936C78.557 177.324 80.6652 175.567 82.6503 173.676C88.0589 168.265 93.1146 162.513 97.7863 156.455C110.664 139.64 123.468 122.759 133.79 104.19C140.233 92.611 147.851 81.7759 155.163 70.7423C157.123 67.9227 158.757 64.8899 160.034 61.702C161.118 58.7823 161.631 55.6228 160.084 52.8437C156.905 46.8631 153.396 41.0643 149.571 35.4745C146.089 30.5698 141.598 26.5997 136.975 22.7784C128.491 15.6385 119.223 9.48668 109.349 4.4415C106.779 3.00983 103.761 2.60496 100.904 3.30837ZM113.311 26.1447C112.972 28.0471 113.907 29.4532 115.238 30.5119C119.589 34.0188 123.236 38.2949 127.645 41.7192C128.726 42.562 129.947 43.2087 131.251 43.6298C131.974 43.9413 132.783 43.9902 133.538 43.7682C134.293 43.5462 134.947 43.0671 135.387 42.4139C136.53 40.9511 137.774 39.5693 139.109 38.2784C141.706 35.7474 141.764 35.7557 138.869 33.5473C135.56 31.066 131.962 29.0396 129.266 25.847C125.825 21.7776 121.483 18.7174 117.471 15.2849C116.123 14.1352 115.586 14.3006 114.99 16.0541C113.907 19.3211 113.766 22.7702 113.295 26.1282L113.311 26.1447Z" fill="#DADAD9"/>
<path d="M133.194 39.0469C133.26 40.362 132.366 41.0567 131.473 40.6101C130.95 40.3441 130.495 39.9622 130.141 39.4935C127.867 36.4746 124.765 34.3737 121.87 32.0496C120.69 31.1773 119.611 30.1758 118.653 29.0637C118.132 28.4268 117.76 27.6907 118.413 26.9463C118.54 26.7911 118.7 26.6669 118.882 26.5832C119.064 26.4995 119.263 26.4585 119.463 26.4633C119.664 26.4681 119.86 26.5185 120.038 26.6109C120.216 26.7032 120.37 26.8349 120.489 26.9959C124.046 30.8006 128.76 33.2489 132.127 37.2934C132.62 37.7824 132.986 38.3843 133.194 39.0469Z" fill="#DADAD9"/>
</svg>
