<svg width="209" height="155" viewBox="0 0 209 155" fill="none" xmlns="http://www.w3.org/2000/svg">
<path fill-rule="evenodd" clip-rule="evenodd" d="M193.872 41.5313C193.798 41.2388 193.795 40.9331 193.863 40.6394C193.933 40.2695 193.889 39.8872 193.736 39.543C193.584 39.1989 193.331 38.909 193.01 38.7117C190.341 36.4803 187.018 35.1796 183.543 35.0066C181.975 34.9811 180.406 35.044 178.844 35.1953C177.664 35.3821 176.475 35.5064 175.282 35.5674C174.16 35.5926 173.068 35.9319 172.129 36.5466C170.632 37.3823 169.066 38.1156 167.499 38.8349C166.924 39.1193 166.286 39.2525 165.645 39.222C165.003 39.1915 164.381 38.9982 163.835 38.6604C164.608 37.5542 165.484 36.5129 166.14 35.3566C167.428 33.3207 169.23 31.6599 171.363 30.5417C172.177 30.0032 173.113 29.6774 174.086 29.594C174.834 29.5407 175.567 29.3552 176.25 29.0462C179.072 27.831 182.087 27.1275 185.155 26.9686C185.972 26.8981 186.775 26.7119 187.539 26.4155C189.975 25.654 192.378 24.8235 194.815 24.0762C196.819 23.4525 198.703 22.5878 200.633 21.7771C201.872 21.0819 203.015 20.2265 204.03 19.233C205.819 17.7371 207.228 15.8394 208.143 13.6949C209.294 11.2781 207.936 9.30134 205.19 8.96845C204.671 8.93816 204.161 8.81854 203.683 8.61486C202.243 7.83955 200.625 8.01643 199.114 7.60638C198.744 7.56906 198.37 7.60958 198.016 7.72535C196.83 7.89548 195.656 8.14183 194.502 8.46294C192.18 9.23211 190.61 8.13851 189.188 6.54773C189.136 6.50112 189.117 6.4172 189.064 6.35647C187.363 4.58324 185.528 3.20002 182.848 3.27418C181.273 3.23234 179.705 3.06076 178.158 2.7612C177.498 2.62564 176.813 2.68422 176.185 2.92984C175.037 3.36729 173.836 3.6475 172.613 3.76286C170.648 2.0195 168.116 1.05052 165.489 1.03666C162.194 0.72662 158.874 1.26609 155.847 2.60365C155.235 2.83709 154.61 3.0357 153.975 3.19853C153.006 2.46738 152.091 1.81112 150.951 2.08115C149.266 2.45288 147.518 2.43333 145.842 2.02403C145.172 1.9278 144.489 2.06667 143.909 2.417C141.869 3.36532 139.972 4.59589 138.274 6.0726C137.137 7.13571 135.783 7.97747 134.94 9.35677C134.818 9.5452 134.652 9.70065 134.456 9.80922C132.914 10.7253 132.037 12.2341 130.988 13.6038C130.24 14.6297 129.392 15.5793 128.458 16.4388C127.56 17.2268 126.762 18.1211 126.081 19.1021C122.094 24.7392 118.071 30.3431 114.121 35.9995C112.236 38.522 110.499 41.1509 108.916 43.8731C107.944 45.5927 106.72 47.1567 105.284 48.5128L103.678 47.669C103.418 47.5104 103.111 47.4458 102.809 47.4862C102.507 47.5265 102.228 47.6693 102.019 47.8906C101.007 49.0246 99.5837 49.2824 98.2885 49.9225C97.9528 49.6228 97.6435 49.4137 97.4007 49.13C96.815 48.5413 96.0713 48.1349 95.2595 47.9598C94.4477 47.7846 93.6025 47.8483 92.8262 48.1431C91.4782 48.602 90.1228 49.0544 88.7913 49.5549C84.923 50.9898 81.2445 52.892 77.8375 55.2191C70.9026 60.0857 63.6984 64.5568 56.2594 68.6112C54.3829 69.6171 52.5438 70.6564 50.7718 71.7555C46.6181 74.1606 42.265 76.2037 37.7609 77.8623C34.1289 79.2582 30.4513 80.6001 26.9086 82.1964C17.9228 86.1211 9.3985 91.0275 1.49124 96.8261C1.16885 97.0082 0.898413 97.2699 0.70569 97.586C0.633281 97.7491 0.597253 97.9259 0.600035 98.1043C0.602817 98.2827 0.644351 98.4584 0.721809 98.6192C0.833596 98.7657 0.981061 98.8812 1.15012 98.9547C1.31917 99.0281 1.50418 99.0571 1.6876 99.0389C2.31763 98.8117 2.91454 98.5016 3.46254 98.1166C6.33943 96.0794 9.35735 94.249 12.4935 92.6393C17.4073 90.2429 22.3352 87.8456 27.2978 85.5597C30.0243 84.3072 32.8483 83.2758 35.6244 82.148C38.885 80.8227 42.1696 79.5456 45.4129 78.1647C48.4551 76.8588 51.2614 75.1415 54.1762 73.5879C63.0302 68.8416 71.6 63.5831 79.8418 57.8392C82.363 56.0842 85.0509 54.5819 87.8667 53.3539C89.4493 52.6621 91.0417 52.0193 92.6409 51.3691C93.0026 51.2306 93.3719 51.1127 93.747 51.0159C94.1743 50.855 94.6448 50.8507 95.075 51.004C95.5051 51.1572 95.867 51.458 96.0963 51.8529C96.0537 52.2889 96.0431 52.7274 96.0645 53.165C96.1064 53.6884 96.2459 54.1993 96.4758 54.6714C97.5531 56.558 98.6171 58.4594 99.8167 60.254C100.73 61.539 101.717 62.7694 102.774 63.9391C103.738 65.0813 104.752 66.2278 105.742 67.3119C106.648 68.3087 107.608 69.2458 108.493 70.2367C109.752 71.8026 111.162 73.2408 112.702 74.5306C113.04 74.8257 113.354 75.1465 113.642 75.4901C115.028 76.9412 116.36 78.4521 117.819 79.8213C118.827 80.7057 119.905 81.5067 121.043 82.2163C121.351 82.3549 121.622 82.5671 121.829 82.8344C122.037 83.1017 122.176 83.4158 122.234 83.7493C122.42 85.0775 122.802 86.3709 123.366 87.5875C122.949 88.2322 122.497 88.8536 122.012 89.4491C121.547 89.9404 121.025 90.3742 120.457 90.7414C117.676 92.6556 114.84 94.4809 112.097 96.4426C109.177 98.5276 106.332 100.679 103.469 102.91C99.5551 105.944 95.6398 108.963 91.8389 112.125C87.0647 116.107 82.4205 120.259 77.6843 124.289C73.6296 127.72 69.7429 131.368 65.4388 134.524C64.6087 135.123 63.7787 135.723 62.9559 136.449C59.4888 139.549 55.7497 142.331 51.7839 144.761C49.7715 145.931 47.928 147.37 46.304 149.038C45.2475 150.207 43.9973 151.186 42.6083 151.932C42.2867 152.15 41.9855 152.397 41.7082 152.67C42.0517 153.231 42.6333 153.495 42.6443 154.189C42.6295 154.309 42.6549 154.431 42.7164 154.535C42.7779 154.64 42.8722 154.721 42.9846 154.766C43.097 154.811 43.2212 154.818 43.3379 154.786C43.4546 154.753 43.5573 154.683 43.6301 154.586C44.1876 154.097 44.6977 153.556 45.1532 152.97C46.336 151.418 47.7985 150.1 49.4655 149.085C52.2095 147.392 54.8914 145.604 57.551 143.796C60.2105 141.988 62.6207 140.279 65.0885 138.46C67.5562 136.641 69.915 134.9 72.221 132.977C77.3088 128.779 82.283 124.453 87.288 120.167C90.1382 117.725 92.9055 115.195 95.8029 112.835C99.4722 109.851 103.196 106.955 106.951 104.1C110.705 101.246 114.16 98.4715 118.061 96.0688C119.587 95.1252 120.995 93.9829 122.459 92.9437C123.759 91.9232 124.868 90.6806 125.735 89.2733C126.104 88.8412 126.325 88.3031 126.368 87.7367C126.411 87.1703 126.273 86.605 125.974 86.1222C125.342 84.8924 124.985 83.5401 124.928 82.1587C126.61 80.5845 128.702 79.516 130.964 79.0754C131.697 78.9116 132.418 78.7003 133.124 78.4428C135.164 77.5834 135.332 77.0498 134.365 75.1003C134.664 74.3892 135.357 74.2437 135.98 73.9959C138.496 73.0245 141.02 72.0738 143.527 71.0675C146.19 70.0513 148.973 69.3817 151.807 69.075C153.298 68.9306 154.754 68.5293 156.109 67.8889C157.527 67.171 159.239 67.3855 160.558 66.4041C160.616 66.3601 160.678 66.321 160.742 66.2874C161.142 66.081 161.562 65.9171 161.996 65.7984C162.938 65.5633 163.809 65.1031 164.534 64.4575C165.021 64.1114 165.528 63.7941 166.052 63.5073C167.802 62.6452 169.39 61.4864 170.745 60.0822C171.329 59.5046 171.978 58.9951 172.677 58.5632C174.158 57.5581 175.579 56.4677 176.932 55.2975C178.905 53.3724 181.387 52.3038 183.612 50.8178C184.158 50.461 184.907 50.4185 185.491 50.1091C187.376 49.162 189.208 48.1123 190.979 46.9648C192.903 45.8144 194.504 44.1867 193.872 41.5313ZM126.935 77.4767C125.822 78.0781 124.749 78.7693 123.523 79.4975C122.808 79.4768 122.106 79.2982 121.468 78.9744C120.83 78.6506 120.272 78.1897 119.833 77.6247C118.145 75.8365 116.415 74.0649 114.693 72.2999C113.76 71.333 112.774 70.4258 111.856 69.4722C110.312 67.8529 108.767 66.2195 107.244 64.5779C106.633 63.9255 106.028 63.2516 105.457 62.5545C104.278 61.1129 103.097 59.6571 101.951 58.1782C100.734 56.6549 99.7266 54.9757 98.9552 53.1851C99.3745 52.4908 100.015 51.958 100.775 51.6724C101.435 51.3234 102.119 51.0225 102.836 50.6843C103.227 50.8768 103.58 51.1374 103.878 51.4538C104.714 52.5097 105.365 53.6985 105.806 54.9706C106.071 55.6693 106.468 56.3105 106.976 56.859C108.48 59.0006 110.353 60.8583 112.507 62.3457C113.251 62.8489 113.969 63.396 114.713 63.8991C115.764 64.6125 116.731 65.444 117.594 66.3773C118.351 67.207 119.191 67.9567 120.101 68.6148C122.274 70.2196 124.493 71.7581 126.692 73.3189L128.795 74.8072C128.679 75.3539 128.451 75.8707 128.125 76.3254C127.8 76.7801 127.385 77.1629 126.905 77.45L126.935 77.4767ZM187.716 46.2646C187.28 46.3133 186.856 46.4381 186.462 46.6332C185.143 47.3455 183.825 48.086 182.551 48.8382C182.324 48.9459 182.09 49.0372 181.851 49.1116L181.444 46.068C183.569 44.3185 186.536 44.313 188.851 42.921C188.81 42.7212 188.693 42.5448 188.526 42.4279C188.359 42.311 188.153 42.2625 187.951 42.2922C187.143 42.1728 186.32 42.1907 185.518 42.3452C183.889 42.8484 182.165 43.2933 181.257 45.0163C180.995 45.3506 180.678 45.639 180.321 45.8697C180.145 48.139 180.145 48.139 180.936 49.8364L177.446 52.2441C176.641 52.7856 175.853 53.3686 175.031 53.8685C173.628 54.7343 172.201 55.5377 170.783 56.3901C170.262 56.6733 169.792 57.0424 169.393 57.4818C167.481 59.8637 164.907 61.4262 162.431 63.1036C161.068 63.4147 159.927 64.4072 158.407 64.3235C157.957 64.3455 157.513 64.4376 157.091 64.5965C154.541 65.2151 152.037 66.0127 149.599 66.9835C148.556 67.4105 147.464 67.7056 146.348 67.862C144.59 68.2096 142.812 68.4451 141.051 68.7504C140.766 68.8154 140.505 68.9577 140.295 69.1616C139.25 70.1427 137.911 70.7515 136.484 70.8935C135.95 70.9438 135.42 71.0354 134.899 71.1676C134.105 71.4019 133.266 71.4441 132.452 71.2908C131.638 71.1375 130.872 70.7931 130.217 70.2859C126.207 67.5105 122.236 64.6762 118.265 61.8419C117.944 61.5556 117.419 61.2879 117.341 60.924C117.231 60.5676 117.046 60.2385 116.8 59.9583C116.553 59.6782 116.25 59.4533 115.91 59.2983C114.507 58.2873 113.118 57.2613 111.676 56.3232C110.216 55.4436 109.026 54.1778 108.239 52.6654C108.76 51.6018 109.283 50.4602 109.864 49.3436C111.093 47.0358 112.249 44.6897 113.617 42.4661C117.407 36.2521 121.949 30.548 126.057 24.5498C126.942 23.3475 127.939 22.231 129.033 21.2151C130.817 19.4424 132.866 17.8671 134.132 15.5927C135.052 13.9054 136.174 12.3363 137.472 10.9199C138.308 9.96974 139.316 9.18675 140.443 8.61249C142.518 7.59532 144.608 6.6197 146.697 5.61586C146.821 5.53423 146.956 5.46947 147.097 5.42321C149.539 5.40502 151.999 4.4368 154.442 5.81378C156.833 4.24025 159.585 3.30167 162.44 3.08654C164.011 2.99264 165.587 3.01921 167.154 3.16607C168.187 3.3189 169.204 3.56706 170.192 3.90734C170.372 3.96086 170.513 4.19368 170.729 4.3868C169.644 5.08925 168.442 5.5916 167.18 5.87008C165.253 6.2154 163.444 7.03893 161.919 8.26505C161.534 8.55127 161.121 8.79776 160.686 9.00076C160.595 9.76376 160.957 10.0336 161.467 9.91254C162.34 9.70009 163.186 9.38294 164.034 9.09404C164.882 8.80514 166.005 8.38727 166.993 8.06211C167.865 7.84438 168.722 7.57098 169.56 7.24361C171.888 6.20921 174.311 5.40513 176.796 4.84283C177.077 4.74843 177.369 4.69368 177.665 4.6802C180.05 4.89193 182.436 5.13192 184.665 5.35246L188.091 8.30268C187.772 8.81047 187.337 9.23431 186.82 9.53848C186.304 9.84265 185.722 10.0183 185.123 10.0505C182.818 10.3654 180.525 10.7717 178.239 11.1706C177.205 11.3443 176.182 11.582 175.177 11.8826C174.187 12.2653 173.126 12.4294 172.067 12.3636C171.313 12.3122 170.563 12.5089 169.931 12.9239C168.132 13.888 166.571 15.2422 165.362 16.8873C167.321 17.0948 167.795 16.9547 168.956 16.2088C170.153 15.2688 171.596 14.695 173.112 14.5565C173.855 14.4584 174.588 14.2911 175.301 14.057C177.969 13.3028 180.728 12.9198 183.501 12.9188C186.025 13.0943 188.377 12.2172 190.79 11.6907C193.421 11.1306 196.032 10.4584 198.645 9.82851C198.685 9.78375 198.798 9.77735 198.863 9.79492C200.718 10.2846 202.761 10.0978 204.385 11.3726C204.683 11.5376 204.941 11.7668 205.14 12.0437C205.339 12.3206 205.474 12.6383 205.535 12.9738C205.596 13.3093 205.582 13.6541 205.493 13.9834C205.404 14.3127 205.244 14.6181 205.023 14.8776C204.476 15.7302 203.909 16.4706 203.358 17.2526C201.388 17.4717 199.501 18.1645 197.857 19.2717C194.86 21.1275 191.534 22.3864 188.059 22.9793C185.543 23.3298 183.061 23.8947 180.641 24.668C178.567 25.3098 176.448 25.7912 174.426 26.6C174.071 26.7192 173.698 26.7763 173.323 26.7688C172.423 26.8403 171.554 27.1329 170.794 27.6206C169.95 28.1005 169.035 28.4499 168.243 28.9764C167.738 29.285 167.293 29.6821 166.929 30.1488C165.172 32.4015 163.46 34.6801 161.748 36.9586C161.069 37.8541 160.442 38.7821 159.786 39.6976C159.466 40.296 158.933 40.7531 158.293 40.9791C157.898 41.1052 157.543 41.3351 157.267 41.6447C156.991 41.9544 156.802 42.3326 156.722 42.7398C156.427 43.656 156.118 44.573 155.756 45.6842C156.133 45.592 156.417 45.6042 156.601 45.4734C157.084 45.1273 157.528 44.7196 157.981 44.3327C158.659 43.75 159.52 43.423 160.414 43.4085C161.604 43.2204 162.773 42.9169 163.904 42.5022C165.208 42.1379 166.505 41.781 167.768 41.3268C168.884 40.9002 169.977 40.4174 171.043 39.8803C171.65 39.5909 172.208 39.191 172.815 38.9016C173.199 38.6664 173.632 38.5209 174.08 38.4757C176.506 38.4159 178.616 36.908 181.063 36.9746C182.708 36.9794 184.338 37.2929 185.868 37.8989C187.644 38.6972 189.318 39.7055 190.854 40.9022C192.236 41.9074 192.336 42.6808 191.297 44.0854C190.894 44.691 190.361 45.1987 189.736 45.5712C189.111 45.9437 188.411 46.1715 187.686 46.2379L187.716 46.2646Z" fill="#DADAD9"/>
</svg>
