<svg width="156" height="128" viewBox="0 0 156 128" fill="none" xmlns="http://www.w3.org/2000/svg">
<path d="M155.317 87.603C154.697 72.1356 154.168 56.6566 154.002 41.1777C153.898 31.8019 153.525 23.2816 151.171 16.432C151.126 16.0247 150.99 15.6325 150.775 15.2837C147.376 6.49932 140.337 0.734906 125.61 0C104.097 0.0574145 82.4576 2.34251 60.996 3.68027C49.5476 4.39795 38.0992 5.1099 26.6392 5.60366C19.2615 5.91944 10.0981 6.43617 5.26957 12.9585C-1.34458 21.8807 0.10222 34.2478 0.199825 44.7029C0.406517 63.2593 1.08404 81.8271 2.59978 100.326C4.11552 118.825 4.52891 128.775 24.8536 127.885C48.3936 126.886 71.9795 126.53 95.5424 125.164C108.748 124.394 144.247 127.19 152.549 113.813C157.263 106.234 155.638 96.1004 155.317 87.603ZM126.793 79.898C121.298 74.1566 115.505 67.8754 108.995 63.0641C110.717 61.4737 112.359 59.958 113.869 58.6432C124.158 49.6922 138.052 39.0706 146.314 26.7494C146.487 28.8213 146.518 30.9027 146.406 32.9789C145.918 42.3891 146.492 51.9257 146.756 61.3244C147.066 72.6982 147.543 84.0606 147.95 95.4229C148.077 98.9768 147.985 101.939 147.376 104.408C141.33 95.6066 134.136 87.5916 126.793 79.898ZM26.622 13.2972C59.5894 12.0456 92.6027 7.7854 125.593 7.69354C134.515 8.14137 140.222 11.2188 143.392 16.5469C138.419 28.3857 124.152 38.9385 115.029 47.3555C109.827 52.1611 104.447 56.7657 99.0045 61.29C88.2335 70.2524 80.9648 75.4427 67.4609 68.6046C57.8325 63.7244 48.8414 56.8691 40.0972 50.6166C30.4802 43.7269 14.9152 34.0927 9.8799 22.4835C12.1707 16.989 16.9476 13.6474 26.622 13.2972ZM11.0799 111.476C9.35748 101.492 9.46657 90.7264 8.93262 80.7822C8.19771 67.1864 7.93935 53.5562 7.78433 39.9375C7.78433 37.6409 7.78434 35.442 7.86472 33.3636C14.0712 41.0916 22.9934 47.2693 30.4113 52.9419C36.3652 57.4949 42.5775 62.1569 49.0251 66.463C35.2164 80.4495 22.5289 95.5002 11.0799 111.476ZM27.9598 120.163C23.47 120.289 18.0328 121.661 14.6741 119.623C26.6909 102.163 40.5909 85.8691 55.4785 70.8208C55.5244 70.7748 55.5532 70.7289 55.5934 70.683C60.9198 73.9646 66.5079 76.8009 72.301 79.1631C83.1696 83.4921 94.0553 76.189 103.144 68.329C109.907 72.9221 115.775 79.5306 121.373 85.3294C129.153 93.3675 136.622 101.876 142.697 111.275C140.518 112.571 138.124 113.463 135.629 113.91C101.031 121.173 63.1778 119.187 27.9598 120.151V120.163Z" fill="#DADAD9"/>
<path d="M59.135 57.5069C64.2621 60.9517 69.2285 64.4655 75.3144 65.8492C85.2643 68.1458 94.4047 59.7633 100.221 52.9309C100.841 52.196 100.026 50.91 99.1357 51.5186C91.5512 56.6859 80.7974 64.833 71.1805 60.0159C66.1969 57.5184 61.5406 54.217 56.9015 51.1454C45.9928 43.9284 35.5835 35.408 23.8078 29.6608C23.7272 29.6155 23.6331 29.6006 23.5425 29.619C23.4518 29.6374 23.3709 29.6878 23.3145 29.761C23.258 29.8342 23.2298 29.9253 23.235 30.0177C23.2402 30.11 23.2784 30.1973 23.3428 30.2637C33.3157 41.1495 46.9516 49.3368 59.135 57.5069Z" fill="#DADAD9"/>
<path d="M102.765 50.0419C104.333 49.7605 105.929 49.0141 106.652 47.5271C107.111 46.5855 106.336 45.0123 105.113 45.5176C104.325 45.8464 103.631 46.3668 103.095 47.0315C102.559 47.6962 102.197 48.4842 102.042 49.3242C102.01 49.4245 102.007 49.5316 102.033 49.6336C102.058 49.7356 102.111 49.8287 102.185 49.9027C102.26 49.9768 102.354 50.0289 102.456 50.0534C102.558 50.078 102.665 50.074 102.765 50.0419Z" fill="#DADAD9"/>
<path d="M40.6932 115.024C35.2446 115.495 29.7845 115.908 24.3129 115.879C24.2465 115.886 24.1843 115.915 24.1363 115.962C24.0882 116.008 24.0571 116.069 24.0478 116.135C24.0385 116.201 24.0517 116.268 24.0852 116.326C24.1187 116.384 24.1705 116.429 24.2325 116.454C28.9864 117.883 33.6542 118.176 38.5861 117.912C43.2711 117.682 48.582 117.872 52.9914 116.126C53.0837 116.1 53.1647 116.044 53.2224 115.967C53.2801 115.891 53.3113 115.797 53.3113 115.701C53.3113 115.606 53.2801 115.512 53.2224 115.436C53.1647 115.359 53.0837 115.303 52.9914 115.277C49.0586 113.858 44.7984 114.668 40.6932 115.024Z" fill="#DADAD9"/>
<path d="M55.2586 115.638C55.8327 117.935 61.6775 117.361 61 115.064C60.3742 113.02 54.7878 113.686 55.2586 115.638Z" fill="#DADAD9"/>
<path d="M142.048 78.307C143.403 67.3006 141.353 54.945 140.297 43.9272C140.283 43.8003 140.223 43.6828 140.128 43.5974C140.034 43.5121 139.91 43.4648 139.783 43.4648C139.655 43.4648 139.532 43.5121 139.437 43.5974C139.342 43.6828 139.282 43.8003 139.269 43.9272C138.23 54.8359 136.45 68.0413 140.331 78.5424C140.393 78.7408 140.523 78.9108 140.699 79.0223C140.874 79.1338 141.083 79.1795 141.289 79.1513C141.495 79.123 141.684 79.0227 141.823 78.8681C141.962 78.7135 142.042 78.5147 142.048 78.307Z" fill="#DADAD9"/>
<path d="M13.8983 54.1468C13.8851 54.0228 13.8264 53.9081 13.7337 53.8248C13.641 53.7414 13.5206 53.6953 13.3959 53.6953C13.2713 53.6953 13.151 53.7414 13.0583 53.8248C12.9655 53.9081 12.9068 54.0228 12.8936 54.1468C12.0668 61.381 12.1472 68.6267 12.2219 75.9011C12.285 82.3143 12.0382 89.25 13.818 95.4737C14.0075 96.1512 15.1672 96.2546 15.2935 95.4737C16.304 89.0663 15.5002 82.3488 15.2935 75.9011C15.0065 68.6382 14.7538 61.3695 13.8983 54.1468Z" fill="#DADAD9"/>
<path d="M13.4437 51.1499C14.3967 50.5757 14.3738 49.4619 14.3795 48.4284C14.3771 48.2336 14.3226 48.0431 14.2216 47.8765C14.1206 47.7099 13.9769 47.5734 13.8054 47.4811C13.6346 47.3719 13.4336 47.3196 13.2312 47.3318C12.9926 47.3388 12.762 47.4199 12.5716 47.564C12.3813 47.708 12.2406 47.9078 12.1691 48.1356C11.8992 49.2265 11.7729 50.4896 12.8293 51.1499C12.9212 51.2081 13.0277 51.239 13.1365 51.239C13.2452 51.239 13.3518 51.2081 13.4437 51.1499Z" fill="#DADAD9"/>
<path d="M142.341 82.2343C142.279 82.0347 142.156 81.86 141.988 81.7359C141.82 81.6119 141.617 81.5449 141.408 81.5449C141.199 81.5449 140.996 81.6119 140.828 81.7359C140.66 81.86 140.536 82.0347 140.475 82.2343C140.159 83.4065 140.302 84.6553 140.877 85.7251C141.537 86.9537 143.414 86.0983 143.087 84.7892C142.869 83.9165 142.599 83.0782 142.341 82.2343Z" fill="#DADAD9"/>
</svg>
