<svg width="23" height="28" viewBox="0 0 23 28" fill="none" xmlns="http://www.w3.org/2000/svg">
<path d="M17.0746 13.475C18.3674 12.042 19.1667 10.119 19.1667 8C19.1667 3.589 15.7272 0 11.5 0C7.27279 0 3.83333 3.589 3.83333 8C3.83333 10.119 4.63258 12.042 5.92537 13.475C2.09396 15.706 0 20.432 0 27C0 27.553 0.429333 28 0.958333 28H22.0417C22.5716 28 23 27.553 23 27C23 20.431 20.906 15.706 17.0746 13.475ZM11.5 2C14.6711 2 17.25 4.691 17.25 8C17.25 11.309 14.6711 14 11.5 14C8.32888 14 5.75 11.309 5.75 8C5.75 4.691 8.32888 2 11.5 2ZM1.93392 26C2.08438 21.766 3.26408 16.807 7.57179 14.857C8.72179 15.578 10.0635 16 11.5 16C12.9365 16 14.2782 15.578 15.4282 14.857C19.735 16.806 20.9156 21.766 21.0651 26H1.93392Z" fill="#444444"/>
</svg>
