<svg width="34" height="41" viewBox="0 0 34 41" fill="none" xmlns="http://www.w3.org/2000/svg">
<path d="M25.3884 19.5894C27.2672 17.5209 28.4288 14.745 28.4288 11.6862C28.4288 5.31889 23.4301 0.138123 17.2866 0.138123C11.143 0.138123 6.14435 5.31889 6.14435 11.6862C6.14435 14.745 7.30593 17.5209 9.18479 19.5894C3.61646 22.8099 0.573242 29.632 0.573242 39.1129C0.573242 39.9112 1.19721 40.5565 1.96602 40.5565H32.6071C33.3773 40.5565 33.9999 39.9112 33.9999 39.1129C33.9999 29.6305 30.9567 22.8099 25.3884 19.5894ZM17.2866 3.02515C21.8953 3.02515 25.6432 6.90964 25.6432 11.6862C25.6432 16.4628 21.8953 20.3473 17.2866 20.3473C12.6779 20.3473 8.92991 16.4628 8.92991 11.6862C8.92991 6.90964 12.6779 3.02515 17.2866 3.02515ZM3.38387 37.6694C3.60253 31.5576 5.31704 24.3992 11.5776 21.5844C13.2489 22.6252 15.1988 23.2343 17.2866 23.2343C19.3743 23.2343 21.3242 22.6252 22.9956 21.5844C29.2547 24.3978 30.9706 31.5576 31.1879 37.6694H3.38387Z" fill="white"/>
</svg>
