<svg width="49" height="48" viewBox="0 0 49 48" fill="none" xmlns="http://www.w3.org/2000/svg">
<path d="M42.7904 22.2514C41.1627 22.5542 39.6326 22.9259 38.0098 23.2286C38.3549 28.3053 34.8016 33.3868 29.86 34.883C24.9183 36.3793 19.1172 34.1733 16.5129 29.7823C14.4946 32.4384 12.4768 35.0939 10.4595 37.7489C13.0638 40.6325 18.2562 43.1268 22.9358 43.915C28.7759 44.8986 35.0621 42.7599 39.0402 38.4362C43.0182 34.1125 44.3627 27.8744 42.7904 22.2514Z" fill="#ED4444"/>
<path d="M42.6601 21.774C41.0601 22.0736 39.478 22.4517 37.8796 22.7513C37.6745 22.7897 37.2757 23.0252 37.2936 23.2815C37.4159 25.2185 37.0055 27.1521 36.1054 28.8788C35.9969 29.1031 35.8759 29.3231 35.7424 29.5388C35.6838 29.6381 35.6236 29.7375 35.5618 29.8352L35.4674 29.9826L35.4039 30.0787C35.4397 30.0258 35.4039 30.0787 35.3909 30.0963C35.1118 30.5029 34.8085 30.8928 34.4826 31.2642C34.3198 31.4468 34.1571 31.623 33.9943 31.7944C33.9048 31.8841 33.8153 31.9722 33.7241 32.0587L33.6362 32.1404L33.6118 32.1629L33.5239 32.2398C33.1545 32.5663 32.7641 32.8692 32.3552 33.1465C32.2576 33.2122 32.1615 33.2746 32.0622 33.3371L31.9157 33.43L31.8409 33.4749C31.9678 33.3964 31.8409 33.4749 31.8213 33.4845C31.6108 33.6062 31.3971 33.7205 31.18 33.8273C30.963 33.9341 30.733 34.0377 30.4899 34.1381C30.3825 34.183 30.2718 34.2246 30.1644 34.2663C30.2881 34.2182 30.192 34.2566 30.1285 34.2775L29.9348 34.3432C29.4703 34.4921 28.9961 34.6104 28.5155 34.6972C28.3723 34.7244 28.6278 34.6812 28.4829 34.6972C28.4178 34.7068 28.3527 34.718 28.286 34.726C28.1639 34.7436 28.0418 34.7581 27.9181 34.7709C27.6821 34.7965 27.4461 34.8141 27.2085 34.8237C27.0864 34.8237 26.9627 34.8318 26.839 34.8334H26.5834C26.4793 34.8334 26.699 34.8334 26.5948 34.8334C26.3474 34.8237 26.1065 34.8125 25.8559 34.7901C25.3734 34.7466 24.894 34.6749 24.4202 34.5754C24.3812 34.5658 24.2575 34.537 24.3616 34.5626L24.1989 34.5226C24.0784 34.4937 23.9596 34.4617 23.8408 34.4297C23.6031 34.364 23.3671 34.2903 23.1327 34.2102C22.6756 34.0517 22.2278 33.8683 21.7915 33.6607C21.7684 33.652 21.746 33.6413 21.7248 33.6287L21.5718 33.5502C21.4546 33.4893 21.339 33.4268 21.2234 33.3611C21.0167 33.2458 20.8149 33.124 20.6147 32.9959C20.2091 32.7365 19.8204 32.4524 19.4509 32.1452C19.3646 32.0732 19.2784 31.9995 19.1937 31.9242C19.0733 31.8184 19.0489 31.796 18.9642 31.7143C18.7938 31.553 18.6311 31.3854 18.4759 31.2113C18.1507 30.8578 17.85 30.4831 17.5758 30.0899C17.4342 29.8881 17.3023 29.6814 17.177 29.4715C17.0696 29.2921 16.7766 29.2537 16.591 29.2681C16.4674 29.2737 16.3462 29.3035 16.2344 29.3558C16.1226 29.408 16.0225 29.4817 15.94 29.5725C13.9216 32.2264 11.9038 34.8819 9.88658 37.5391C9.77915 37.6801 9.68963 37.8947 9.83124 38.0517C10.8867 39.1764 12.0996 40.1474 13.4333 40.9353C14.9356 41.847 16.5274 42.6075 18.1845 43.2053C19.8147 43.81 21.5065 44.2397 23.2304 44.4869C24.8672 44.7087 26.5271 44.7087 28.1639 44.4869C31.512 44.041 34.6831 42.7403 37.362 40.7142C40.0005 38.6983 41.9959 35.9794 43.111 32.8805C44.2132 29.7814 44.4459 26.4471 43.7849 23.2286C43.7051 22.8362 43.6091 22.4469 43.5016 22.0608C43.3242 21.42 41.9081 21.7901 42.0872 22.4325C42.9271 25.4554 42.9271 28.6449 42.0872 31.6678C41.6663 33.1501 41.0414 34.5687 40.23 35.8843C40.0086 36.2415 39.8605 36.4626 39.6115 36.8038C39.3624 37.145 39.1411 37.427 38.8888 37.7265C38.6365 38.0261 38.3744 38.3112 38.1026 38.59C37.9724 38.723 37.8389 38.8543 37.7054 38.9825C37.6289 39.0546 37.5541 39.1266 37.4776 39.1955C37.4987 39.1779 37.5573 39.1234 37.4629 39.21L37.3229 39.3333C36.7383 39.847 36.1195 40.3217 35.4706 40.7543C35.3079 40.8584 35.1565 40.9593 34.9986 41.0586L34.7577 41.2044C34.774 41.1948 34.8684 41.1387 34.7577 41.2044L34.5949 41.2989C34.2515 41.4944 33.9015 41.6802 33.5451 41.8532C33.1886 42.0262 32.8468 42.1816 32.4903 42.3338C32.3162 42.4059 32.142 42.4748 31.9662 42.5421L31.8197 42.5965C31.8458 42.5869 31.9597 42.5469 31.8197 42.5965L31.5235 42.7007C30.771 42.9542 30.0027 43.1602 29.2235 43.3174L28.9778 43.3655L28.8231 43.3927C28.7841 43.4007 28.6425 43.4231 28.8003 43.3927C28.6034 43.4247 28.4081 43.4552 28.2111 43.4808C27.827 43.5321 27.4423 43.5705 27.0571 43.5962C26.6719 43.6218 26.2753 43.6357 25.8672 43.6378H25.584C25.462 43.6378 25.7468 43.6378 25.5466 43.6378H25.4213C25.2129 43.6293 25.0046 43.6181 24.7962 43.6042C23.1997 43.4814 21.6246 43.165 20.1069 42.6622C18.5283 42.1673 17.0021 41.5235 15.5493 40.7398C14.178 40.0199 12.9039 39.1335 11.7568 38.1014C11.6787 38.0293 11.8447 38.1863 11.7161 38.0613L11.6363 37.9844L11.4589 37.8114C11.3385 37.6897 11.2213 37.5647 11.1073 37.4398L11.052 37.9524C13.0682 35.2963 15.086 32.6408 17.1054 29.9858L15.8651 30.0867C16.9218 31.8193 18.425 33.2463 20.2224 34.223C22.0737 35.2456 24.1518 35.805 26.2742 35.8522C28.4359 35.904 30.5703 35.3685 32.4431 34.3047C34.3292 33.2128 35.9046 31.6699 37.0234 29.8192C38.1192 28.0386 38.7151 26.0037 38.7504 23.9223C38.7504 23.6724 38.7504 23.4225 38.7276 23.1726L38.1417 23.7028C39.7401 23.4033 41.3222 23.0252 42.9222 22.7256C43.2038 22.6728 43.5863 22.3828 43.4984 22.0624C43.4024 21.7148 42.9385 21.7212 42.6601 21.774Z" fill="#1C1C1B"/>
<path d="M39.5936 16.1799C37.225 18.4573 35.5164 21.3152 34.6438 24.4589C38.713 23.1774 42.7725 23.0604 47.0305 23.3888C45.1066 20.4428 42.3379 18.4131 39.5936 16.1799Z" fill="#ED4444"/>
<path d="M38.9409 16.1911C37.0822 17.9854 35.6189 20.1373 34.6422 22.5125C34.3676 23.1813 34.1333 23.8655 33.9406 24.5615C33.843 24.9123 34.5917 24.8034 34.7268 24.7617C35.494 24.5236 36.2709 24.3201 37.0577 24.1514L37.1472 24.1321L37.2367 24.1145L37.4955 24.0649C37.7055 24.0264 37.9155 23.9896 38.1254 23.9559C38.5079 23.8934 38.8921 23.8406 39.2778 23.7957C39.4764 23.7717 39.675 23.7509 39.8736 23.7316L40.134 23.706L40.2838 23.6932H40.3065H40.3684C40.7547 23.6644 41.1415 23.6419 41.5289 23.6259C42.3216 23.5939 43.1143 23.5891 43.907 23.6067C44.8071 23.6259 45.6974 23.674 46.5878 23.7429C46.8897 23.7685 47.1925 23.7061 47.4586 23.5634C47.6214 23.4737 47.8134 23.3247 47.6914 23.1373C46.2102 20.8801 44.1658 19.0907 42.0742 17.3974C41.4687 16.9056 40.8583 16.4202 40.2545 15.93C40.0201 15.7394 39.5757 15.8435 39.3267 15.9492C39.2046 16.0005 38.6984 16.2584 38.9328 16.4491C41.0243 18.1488 43.2038 19.7828 44.9748 21.8189C45.4812 22.4004 45.9472 23.0148 46.3697 23.658L47.4733 23.0524C44.1202 22.7961 40.7265 22.7945 37.4174 23.4497C36.4531 23.6374 35.5 23.8769 34.5624 24.1674L35.3486 24.3692C36.0187 21.9538 37.1898 19.7012 38.7879 17.7531C39.2451 17.2014 39.7342 16.6762 40.2528 16.1799C40.4937 15.9476 40.0477 15.8307 39.8866 15.8355C39.5371 15.8324 39.1993 15.9594 38.9409 16.1911Z" fill="#1C1C1B"/>
<path d="M38.9474 22.3411C38.7239 22.7048 38.6175 23.1266 38.6422 23.5509C38.6669 23.9752 38.8215 24.3823 39.0857 24.7185C39.3651 25.0417 39.7456 25.2643 40.1676 25.3513C40.5896 25.4383 41.0289 25.3847 41.4166 25.1991C42.1767 24.8018 42.556 23.7989 42.206 23.0252C41.8561 22.2514 40.7997 21.8701 40.0412 22.2674" fill="#ED4444"/>
<path d="M37.7087 30.9486C37.6186 30.9464 37.532 30.9142 37.4629 30.8572C37.3917 30.8039 37.3412 30.7281 37.3197 30.6426C37.409 30.6448 37.4949 30.6764 37.5639 30.7323C37.6352 30.7866 37.6861 30.8627 37.7087 30.9486Z" fill="#1C1C1B"/>
<path d="M7.32465 26.4598C8.95234 26.1571 10.4824 25.7838 12.1052 25.4826C11.7536 20.406 15.3003 15.3229 20.2485 13.8282C25.1967 12.3336 30.9913 14.5379 33.5956 18.9273C35.6139 16.2723 37.6322 13.6168 39.6506 10.9607C37.0463 8.07716 31.8539 5.58288 27.1743 4.79471C21.3342 3.8127 15.048 5.94973 11.0683 10.2735C7.08863 14.5972 5.74579 20.8369 7.32465 26.4598Z" fill="#ED4444"/>
<path d="M7.43368 26.8843C9.0337 26.5848 10.6158 26.2051 12.2142 25.9071C12.5137 25.8511 12.8262 25.6124 12.8067 25.2952C12.7049 23.3743 13.1239 21.4613 14.0209 19.7523C14.4562 18.9005 14.9981 18.1056 15.634 17.3862C15.9608 17.0168 16.3103 16.6674 16.6806 16.3401L16.8124 16.2248L16.9052 16.1463L16.9329 16.1239L17.0224 16.0518C17.0756 16.0091 17.1298 15.9674 17.1852 15.9268C17.3756 15.7794 17.5726 15.6369 17.7728 15.5023C17.973 15.3677 18.196 15.2284 18.4141 15.1018C18.4629 15.0714 18.515 15.0425 18.5655 15.0153C18.458 15.0746 18.5655 15.0153 18.611 14.9913C18.7195 14.9315 18.8319 14.8738 18.948 14.8183C19.1748 14.7115 19.4053 14.6084 19.6397 14.5091C19.7472 14.4658 19.8562 14.4242 19.9653 14.3825L20.0467 14.3537L20.0011 14.3697L20.1964 14.3056C20.4324 14.2287 20.6733 14.1615 20.9158 14.1022C21.0265 14.0749 21.1388 14.0493 21.2495 14.0253L21.4123 13.9916L21.4969 13.9756C21.6027 13.9548 21.3667 13.9964 21.4741 13.9756C21.9514 13.8974 22.433 13.8471 22.9163 13.825H23.0872H23.1637H23.5332C23.7692 13.825 24.0068 13.8475 24.2428 13.8683C24.4789 13.8891 24.7311 13.9196 24.9786 13.9564L25.1413 13.9836L25.226 13.9981C25.2162 13.9981 25.1332 13.9804 25.2048 13.9981L25.5678 14.0717C26.0413 14.1741 26.5082 14.3041 26.966 14.461C27.2004 14.5411 27.4299 14.6212 27.6594 14.7221C27.7407 14.7558 27.7603 14.7638 27.8905 14.8215C28.0207 14.8791 28.1151 14.924 28.2258 14.9817C29.9634 15.7982 31.455 17.0459 32.5538 18.6021C32.6938 18.804 32.8257 19.0106 32.9526 19.2205C33.0535 19.3807 33.3612 19.4015 33.5272 19.3807C33.7737 19.3688 34.0069 19.2672 34.1815 19.0955L40.2333 11.1289C40.3342 10.9976 40.4432 10.8213 40.3033 10.6691C39.2497 9.54444 38.0384 8.57346 36.7061 7.78559C35.2035 6.87843 33.6123 6.12172 31.9565 5.5268C30.3264 4.92183 28.6346 4.49214 26.9106 4.24522C25.2744 4.02708 23.6155 4.03085 21.9803 4.25644C18.6293 4.70256 15.4554 6.00434 12.7741 8.03229C10.1218 10.0588 8.11717 12.793 6.99908 15.9092C5.90419 18.9789 5.67194 22.2826 6.32685 25.4714C6.40823 25.8639 6.50427 26.2548 6.61169 26.6408C6.69796 26.9612 7.18627 26.9516 7.43368 26.8795C7.68109 26.8074 8.11568 26.5912 8.02616 26.2676C7.18705 23.2402 7.18705 20.0468 8.02616 17.0194C8.84857 14.0319 10.526 11.34 12.8588 9.26421L13.0704 9.07999L13.1892 8.98066C13.2006 8.97105 13.282 8.90377 13.2071 8.96464C13.3699 8.83328 13.5326 8.70352 13.6954 8.57696C13.9998 8.34308 14.3139 8.1204 14.633 7.90734C14.952 7.69428 15.284 7.49083 15.6096 7.29859C15.6551 7.27296 15.7007 7.24572 15.7463 7.22169C15.7919 7.19766 15.896 7.13839 15.7788 7.20247L16.0002 7.08232C16.1836 6.98513 16.3692 6.89062 16.5569 6.79877C16.903 6.62896 17.2546 6.46876 17.6116 6.31818C17.7858 6.24609 17.96 6.17721 18.1357 6.11152L18.4011 6.0138C18.4206 6.0138 18.5345 5.96414 18.4011 6.0138L18.5785 5.95293C19.3307 5.6981 20.099 5.49154 20.8784 5.33457L21.1242 5.28811C21.3228 5.24806 21.0249 5.30413 21.1486 5.28811L21.3032 5.26087C21.4986 5.22884 21.6955 5.2 21.8925 5.17277C22.275 5.12311 22.6607 5.08466 23.0465 5.05742C23.2337 5.04461 23.4209 5.035 23.6097 5.02859L23.9222 5.01898H24.0475C23.8994 5.01898 24.1061 5.01898 24.1175 5.01898C24.5147 5.01898 24.9113 5.03339 25.3073 5.06223C26.9046 5.18916 28.48 5.5082 29.9984 6.0122C31.5776 6.50523 33.104 7.14908 34.5559 7.93457C35.9056 8.64299 37.16 9.51483 38.2898 10.5298C38.5372 10.7605 38.7781 10.9992 39.0011 11.2491L39.0695 10.7877L33.0161 18.7591L34.2483 18.6358C33.1869 16.8992 31.6759 15.4712 29.8698 14.4979C28.0459 13.4936 26.0001 12.9437 23.9108 12.8959C21.6786 12.8518 19.4771 13.4139 17.5481 14.5203C15.6963 15.6026 14.1535 17.1293 13.0639 18.9578C11.9762 20.7387 11.3892 22.7721 11.3629 24.8498C11.3629 25.1206 11.3727 25.3913 11.3906 25.662L11.9831 25.0517C10.3847 25.3497 8.80257 25.7293 7.20255 26.0289C6.95025 26.0753 6.52705 26.3333 6.61169 26.6392C6.70122 26.9773 7.1879 26.9292 7.43368 26.8843Z" fill="#1C1C1B"/>
<path d="M10.5149 32.5297C12.8826 30.2513 14.5906 27.393 15.4631 24.2491C11.3939 25.5307 7.33439 25.6492 3.07635 25.3208C5.00191 28.2684 7.77061 30.2981 10.5149 32.5297Z" fill="#ED4444"/>
<path d="M11.1627 32.5073C13.0213 30.715 14.4851 28.5654 15.4631 26.1923C15.7372 25.5233 15.9715 24.8392 16.1646 24.1433C16.2574 23.8101 15.5135 23.9351 15.3866 23.9735C14.6194 24.2117 13.8424 24.4152 13.0557 24.5839C12.932 24.6111 13.1501 24.5663 13.0248 24.5839L12.8767 24.6127L12.6179 24.6624C12.4074 24.703 12.1974 24.7398 11.988 24.7729C11.6038 24.8338 11.2197 24.8883 10.8356 24.9331C10.4156 24.9844 10.1601 25.0084 9.745 25.0405C9.35761 25.0693 8.97022 25.0917 8.58283 25.1077C7.79177 25.1398 6.99746 25.1446 6.20477 25.127C5.31443 25.1077 4.41431 25.0549 3.52234 24.9876C3.2515 24.9708 2.98068 25.0209 2.73454 25.1334C2.65966 25.167 2.27553 25.3592 2.36831 25.5018C3.86741 27.7846 5.91342 29.5933 8.02942 31.309C8.63654 31.7992 9.2453 32.2846 9.8508 32.7764C10.0754 32.959 10.5361 32.8373 10.7737 32.7395C10.886 32.6931 11.4004 32.4528 11.1757 32.2702C9.0923 30.5769 6.92421 28.9509 5.15329 26.926C4.65491 26.3579 4.19595 25.7574 3.77952 25.1286L2.62548 25.6412C5.9769 25.8975 9.37226 25.8927 12.6797 25.2391C13.6438 25.05 14.5969 24.8098 15.5347 24.5198L14.7615 24.35C14.0921 26.7668 12.9216 29.0211 11.3239 30.971C10.8671 31.523 10.378 32.0482 9.85894 32.5441C9.6213 32.7732 10.064 32.8645 10.2154 32.8565C10.5635 32.8558 10.8998 32.7318 11.1627 32.5073Z" fill="#1C1C1B"/>
<path d="M11.0878 26.3028C11.3008 25.9563 11.4022 25.5544 11.3786 25.1501C11.3551 24.7458 11.2078 24.358 10.956 24.0376C10.6908 23.7286 10.3286 23.5153 9.92656 23.4315C9.52451 23.3477 9.10554 23.398 8.73582 23.5747C8.0115 23.9527 7.65015 24.9075 7.98383 25.6444C8.31751 26.3813 9.32179 26.7514 10.0477 26.3765" fill="#ED4444"/>
</svg>
