<svg width="318" height="334" viewBox="0 0 318 334" fill="none" xmlns="http://www.w3.org/2000/svg">
<path d="M152.446 192.467C141.764 196.834 129.854 198.676 118.618 196.668C109.657 195.068 106.226 184.39 102.411 177.179C98.5368 169.836 94.8056 162.42 91.2174 154.932C76.4668 123.976 64.5638 91.4536 58.4528 57.6352C55.1539 39.3773 52.7156 20.1977 57.0187 1.89251C57.377 0.348985 55.0136 -0.312488 54.6478 1.23613C50.725 17.6808 52.2198 34.6251 54.8041 51.1577C57.7922 69.8478 62.3788 88.247 68.5134 106.153C74.5323 123.726 81.6133 140.917 89.7172 157.631C93.7629 166.074 98.0192 174.422 102.486 182.675C105.971 189.154 108.858 196.92 116.693 198.852C133.482 202.992 153.854 197.277 166.878 186.649C167.423 186.204 167.078 185.416 166.54 185.18C162.235 188.345 157.626 191.012 152.446 192.467Z" fill="#DADAD9"/>
<path d="M187.303 134.633C182.508 126.583 177.537 118.638 172.391 110.799C162.225 95.2557 151.124 80.3442 139.149 66.1476C126.954 51.6764 113.537 38.28 99.0476 26.106C86.1949 15.3918 72.4287 5.39871 56.3104 0.299991C54.7901 -0.178354 54.1464 2.195 55.654 2.6709C73.5586 8.39789 88.7604 20.3544 102.724 32.5758C128.583 55.2078 150.357 82.1358 169.314 110.708C173.903 117.63 178.344 124.646 182.635 131.755C186.862 138.731 194.255 147.167 191.019 155.674C186.871 166.587 178.887 176.041 169.369 182.995C165.39 186.204 161.177 189.098 156.509 191.058C156.505 191.194 156.533 191.328 156.591 191.451C156.649 191.574 156.734 191.682 156.84 191.766C156.947 191.85 157.071 191.909 157.204 191.936C157.337 191.964 157.474 191.961 157.606 191.926C173.418 186.226 188.798 171.694 193.878 155.166C196.238 147.427 191.067 140.956 187.303 134.633Z" fill="#DADAD9"/>
<path d="M178.554 175.898C167.877 185.211 155.196 191.873 142.068 196.921C141.884 196.99 141.874 197.309 142.112 197.303C149.246 197.066 156.266 193.694 162.287 190.068C168.307 186.442 175.094 182.348 179.436 176.561C179.831 176.041 179.004 175.507 178.554 175.898Z" fill="#DADAD9"/>
<path d="M116.113 43.8075C108.107 51.9594 99.6893 59.2906 89.7265 64.919C84.8457 67.689 79.7502 70.0625 74.4892 72.0165C69.8094 73.7319 66.1135 74.0251 61.1802 73.6325C61.1729 73.6351 61.1664 73.6396 61.1613 73.6455C61.1563 73.6514 61.1528 73.6586 61.1514 73.6662C61.1499 73.6738 61.1504 73.6817 61.1529 73.6891C61.1554 73.6965 61.1597 73.7031 61.1655 73.7083C63.1622 76.6329 67.1117 76.3168 70.2212 75.7001C75.9548 74.5693 81.6579 71.9048 86.8564 69.3064C98.4658 63.5382 109.465 55.37 117.666 45.3019C118.467 44.2834 117.113 42.808 116.113 43.8075Z" fill="#DADAD9"/>
<path d="M130.592 83.2672C118.95 76.5578 101.62 82.135 94.815 93.5622C90.125 99.5572 89.0781 108.068 91.407 116.178C94.9258 128.466 105.813 136.57 118.675 135.667C144.706 133.843 153.346 96.3799 130.592 83.2672ZM134.809 125.197C126.379 134.86 110.143 136.046 100.651 127.176C92.9735 120.003 89.9545 105.543 94.8006 95.8346C94.9045 95.7877 94.9923 95.7113 95.053 95.6147C97.1912 92.3312 100.673 89.4917 104.537 87.2837C104.79 87.1951 105.032 87.0977 105.295 87.0242C105.318 87.0176 105.339 87.0065 105.358 86.9915C105.376 86.9765 105.392 86.958 105.403 86.9371C105.415 86.9161 105.422 86.8931 105.424 86.8693C105.427 86.8456 105.424 86.8216 105.417 86.7988C108.233 85.2669 111.226 84.0855 114.328 83.281C121.309 81.5331 128.436 83.8001 133.605 88.6969C143.551 98.133 143.768 115.007 134.809 125.197Z" fill="#DADAD9"/>
<path d="M179.937 199.745C171.116 206.113 161.161 210.825 150.437 212.87C145.317 213.844 138.904 214.863 133.669 213.861C129.555 213.063 129.443 211.075 128.856 207.571C128.43 205.003 128.026 202.42 127.511 199.868C127.916 199.842 128.324 199.835 128.725 199.795C129.126 199.755 129.572 199.009 129.008 198.775C128.111 198.398 127.369 198.096 126.459 197.75C126.297 197.705 126.126 197.698 125.96 197.729C125.795 197.759 125.638 197.827 125.502 197.927C125.366 198.027 125.254 198.156 125.175 198.305C125.096 198.453 125.052 198.618 125.045 198.787C125.447 202.431 126.076 206.048 126.686 209.668C126.999 211.637 127.201 213.977 128.914 215.287C130.529 216.498 133.179 216.389 135.05 216.476C138.636 216.653 142.23 216.541 145.797 216.14C158.775 214.801 171.037 209.542 180.954 201.063C181.623 200.452 180.707 199.192 179.937 199.745Z" fill="#DADAD9"/>
<path d="M161.885 209.968C171.895 205.687 181.048 199.567 188.313 191.416C191.781 187.531 195.939 182.521 197.788 177.549C199.208 173.608 197.586 172.5 194.867 170.19C192.882 168.493 190.883 166.795 188.949 165.069C188.72 165.405 188.509 165.751 188.269 166.078C188.028 166.405 187.158 166.394 187.242 165.793C187.383 164.831 187.504 164.035 187.677 163.078C187.722 162.913 187.805 162.761 187.918 162.633C188.032 162.505 188.173 162.405 188.331 162.34C188.489 162.275 188.66 162.247 188.831 162.259C189.001 162.27 189.167 162.32 189.315 162.405C192.235 164.624 195.014 167.032 197.792 169.413C199.304 170.709 201.216 172.043 201.451 174.213C201.658 176.221 200.206 178.437 199.322 180.089C197.631 183.253 195.686 186.275 193.504 189.124C185.678 199.556 174.865 207.362 162.499 211.504C161.623 211.793 161.008 210.362 161.885 209.968Z" fill="#DADAD9"/>
<path d="M68.7732 109.207C65.3165 114.523 60.1481 120.517 58.5247 126.759C56.9765 132.682 58.745 140.165 59.549 146.13C62.6299 168.684 69.4496 190.566 79.7275 210.877C81.623 214.628 83.6105 218.344 85.7778 221.945C86.6639 223.428 87.6424 225.585 89.4609 226.114C94.4122 227.632 97.2028 218.514 98.5758 215.423C101.982 207.73 105.34 200.015 108.728 192.312C109.376 190.831 107.188 189.535 106.524 191.032L98.4085 209.523C97.1777 212.32 96.0051 215.155 94.673 217.899C94.2065 218.851 93.5894 220.817 92.7136 221.513C89.1185 224.363 88.365 221.384 87.1929 219.347C80.5372 207.834 75.0466 195.686 70.8027 183.083C66.7692 171.123 63.8637 158.81 62.1241 146.308C61.2955 140.437 59.298 132.24 61.332 126.484C63.1611 121.311 67.0485 116.446 70.0445 111.781C71.196 112.876 72.8182 114.384 72.5637 114.04C72.6884 114.208 72.969 114.046 72.8506 113.879C73.2579 114.45 71.058 109.597 70.8642 109.278C70.7614 109.094 70.613 108.941 70.4334 108.831C70.2538 108.722 70.049 108.661 69.8387 108.653C69.6285 108.646 69.42 108.693 69.2334 108.79C69.0467 108.887 68.8883 109.031 68.7732 109.207Z" fill="#DADAD9"/>
<path d="M141.025 68.282C147.363 68.0553 155.166 66.7028 161.351 68.5183C167.227 70.241 172.731 75.6029 177.438 79.3612C189.556 89.0591 200.523 100.115 210.121 112.312C214.584 117.974 218.747 123.865 222.593 129.962C224.829 133.517 226.998 137.137 228.968 140.843C229.781 142.365 231.108 144.314 230.654 146.147C229.409 151.151 220.152 148.878 216.778 148.459C208.453 147.429 200.082 146.337 191.736 145.283C190.131 145.076 190.146 142.529 191.771 142.739C198.446 143.596 205.12 144.453 211.795 145.31C214.829 145.695 217.86 146.158 220.904 146.42C221.956 146.506 223.956 147.012 225.02 146.563C229.307 144.948 227.139 142.771 225.997 140.713C219.545 129.086 211.949 118.131 203.323 108.011C195.139 98.4033 186.076 89.58 176.252 81.6558C171.631 77.9273 165.635 71.9913 159.629 70.7743C154.254 69.6799 148.107 70.5076 142.521 70.6769C142.876 72.2275 143.33 74.3811 143.187 74.0057C143.269 74.1921 142.988 74.3541 142.9 74.1665C143.188 74.8124 140.175 70.399 139.978 70.0985C139.877 69.9137 139.826 69.7062 139.828 69.4958C139.831 69.2854 139.887 69.0792 139.992 68.897C140.098 68.7147 140.248 68.5625 140.428 68.4548C140.609 68.3471 140.814 68.2876 141.025 68.282Z" fill="#DADAD9"/>
<path d="M133.89 95.8805C129.089 88.5109 119.088 85.1423 110.769 87.903C107.651 88.968 104.863 90.8227 102.675 93.2863C100.488 95.75 98.9758 98.7384 98.2871 101.96C96.1428 109.977 98.1854 118.989 104.727 124.479C112.821 131.294 123.44 129.419 131.229 123.061C138.921 116.835 139.003 103.73 133.89 95.8805ZM135.433 107.805C135.546 114.325 133.369 119.666 127.742 123.224C122.863 126.304 117.313 128.113 111.63 126.31C103.433 123.711 99.8531 116.643 99.1733 109.023C98.6776 99.8788 104.736 90.4772 114.197 89.0266C125.796 87.2363 135.246 96.4582 135.433 107.805Z" fill="#DADAD9"/>
<path d="M115.965 88.3914C114.092 93.3523 113.241 99.2327 112.614 104.494C112.569 104.728 112.921 104.737 112.993 104.568C114.983 99.6163 116.978 93.9577 117.583 88.6394C117.694 87.625 116.295 87.6029 115.965 88.3914Z" fill="#DADAD9"/>
<path d="M122.226 89.8284C121.817 93.2243 119.965 96.2486 119.73 99.6913C119.73 99.7494 119.749 99.8061 119.784 99.8524C119.819 99.8988 119.868 99.9322 119.924 99.9476C119.981 99.9629 120.04 99.9593 120.094 99.9373C120.148 99.9154 120.193 99.8762 120.222 99.826C121.083 98.0258 121.823 96.2023 122.674 94.4526C123.442 93.0275 123.921 91.4648 124.083 89.8541C124.148 88.6405 122.371 88.6763 122.226 89.8284Z" fill="#DADAD9"/>
<path d="M118.29 107.995C118.231 108.029 118.267 108.115 118.338 108.083C118.41 108.051 118.348 107.967 118.29 107.995Z" fill="#DADAD9"/>
<path d="M118.525 108.204C116.295 114.328 113.635 120.37 111.719 126.601C111.374 127.701 113.105 128.483 113.61 127.4C116.409 121.452 117.935 114.797 119.091 108.36C119.101 108.288 119.085 108.216 119.046 108.155C119.006 108.095 118.946 108.051 118.877 108.032C118.807 108.013 118.733 108.02 118.668 108.052C118.603 108.083 118.552 108.137 118.525 108.204Z" fill="#DADAD9"/>
<path d="M109.26 118.014C108.325 118.541 107.884 120.042 107.485 120.981C106.948 122.194 106.57 123.472 106.361 124.782C106.336 124.899 106.335 125.019 106.358 125.136C106.381 125.253 106.428 125.364 106.496 125.463C106.564 125.561 106.652 125.644 106.753 125.706C106.855 125.769 106.968 125.81 107.086 125.827C107.204 125.844 107.325 125.837 107.44 125.805C107.555 125.774 107.662 125.719 107.755 125.644C107.848 125.569 107.925 125.476 107.98 125.37C108.035 125.265 108.068 125.149 108.077 125.03C108.191 123.708 108.376 122.393 108.631 121.091C108.816 120.137 109.455 119.002 109.302 118.035L109.26 118.014Z" fill="#DADAD9"/>
<path d="M58.641 3.36175C56.6776 6.36568 55.0982 9.6037 53.9397 13.0002C53.8442 13.2899 54.2629 13.4301 54.4003 13.1945C55.9592 9.90337 57.7109 6.70704 59.6462 3.62218C59.3137 3.54461 58.9773 3.45318 58.641 3.36175Z" fill="#DADAD9"/>
<path d="M60.4217 3.7856C57.8114 7.98085 55.4939 12.3514 53.4859 16.866C53.5287 17.2765 53.5678 17.684 53.603 18.0886C53.6498 18.0752 53.6928 18.0511 53.7288 18.0182C53.7647 17.9854 53.7926 17.9447 53.8101 17.8993C55.9764 13.0422 58.5624 8.38341 61.5388 3.97598C61.1634 3.93157 60.7906 3.86802 60.4217 3.7856Z" fill="#DADAD9"/>
<path d="M60.9045 6.095C58.0596 10.0708 55.6435 14.3366 53.6965 18.821L53.7571 19.895C56.0661 15.2555 58.7275 10.7999 61.7178 6.5674C62.0582 6.06295 61.2602 5.61319 60.9045 6.095Z" fill="#DADAD9"/>
<path d="M62.6536 7.11621C59.3541 11.7606 56.4042 16.6437 53.8282 21.7252L53.8648 23.2273C56.6564 17.7754 59.8828 12.5573 63.5125 7.62371C63.8894 7.10011 63.0242 6.59139 62.6536 7.11621Z" fill="#DADAD9"/>
<path d="M65.449 7.44265C61.1584 14.1973 57.2872 21.2094 53.8574 28.4393L53.8546 30.1108C57.5325 22.4642 61.7069 15.0664 66.3509 7.96501C66.7138 7.41246 65.8068 6.88255 65.449 7.44265Z" fill="#DADAD9"/>
<path d="M68.0287 7.29978C62.5923 15.432 57.8578 24.0121 53.8764 32.9472L53.9056 33.6085C58.1563 24.5853 63.183 15.9485 68.9292 7.79565C69.3301 7.28327 68.4078 6.73072 68.0287 7.29978Z" fill="#DADAD9"/>
<path d="M68.7237 9.02139C63.1727 17.9635 58.3375 27.3306 54.2635 37.0351C54.3948 37.412 54.4686 37.8065 54.4824 38.2054C58.8554 28.3036 63.9453 18.7342 69.7116 9.5736C70.0969 8.97294 69.1127 8.40178 68.7237 9.02139Z" fill="#DADAD9"/>
<path d="M70.1188 10.2754C63.7962 20.0677 58.5616 30.521 54.5081 41.4495C54.5408 41.8558 54.5862 42.2646 54.639 42.6682C58.8854 31.4632 64.4163 20.7881 71.1208 10.8566C71.535 10.2419 70.5228 9.64562 70.1188 10.2754Z" fill="#DADAD9"/>
<path d="M73.894 9.84761C66.8738 21.3804 60.6423 33.3751 55.2423 45.7496L55.5562 46.9711C61.1028 34.3344 67.5975 22.1355 74.9847 10.4787C75.4187 9.79572 74.3178 9.14952 73.894 9.84761Z" fill="#DADAD9"/>
<path d="M75.724 15.2175C67.9054 25.8934 61.3912 37.4659 56.3203 49.6886L56.6439 50.8267L56.7241 51.157C62.6659 38.874 69.1262 27.1635 77.0263 15.9749C77.5859 15.1851 76.2876 14.4416 75.724 15.2175Z" fill="#DADAD9"/>
<path d="M80.1705 14.0016C71.0657 26.777 63.5141 40.5908 57.6753 55.1515C57.7494 55.5134 57.8298 55.8765 57.8912 56.2359C63.9949 41.4816 71.8833 27.5308 81.3802 14.6952C81.8709 13.9904 80.6826 13.2879 80.1705 14.0016Z" fill="#DADAD9"/>
<path d="M84.7371 16.1455C84.5602 15.9602 84.3994 15.7601 84.2564 15.5475C84.1666 15.5542 84.0795 15.581 84.0015 15.6261C83.9235 15.6711 83.8567 15.7332 83.806 15.8076C73.8882 29.4901 65.0133 44.4895 58.44 60.1645L58.578 61.3125C65.6152 45.3077 75.3989 31.1337 84.8612 16.4187C84.8745 16.3822 84.882 16.3438 84.8833 16.305L84.7371 16.1455Z" fill="#DADAD9"/>
<path d="M85.7341 17.1257C75.4748 32.8401 65.8539 49.1505 59.0757 66.6939L59.1647 67.8586C66.0373 50.0647 76.2907 33.9753 86.6989 18.034L85.7341 17.1257Z" fill="#DADAD9"/>
<path d="M88.1367 19.3099C76.9244 36.5575 66.189 54.1861 59.6589 73.7643L59.7662 74.8342C66.5685 55.171 77.7062 37.4631 89.1937 20.2164C88.8409 19.9054 88.4919 19.6083 88.1367 19.3099Z" fill="#DADAD9"/>
<path d="M90.8339 21.4974C79.0535 38.7332 68.1421 56.6948 60.0117 75.9365C60.3446 75.8765 60.6902 75.8189 61.003 75.7615C69.3371 56.8215 80.4835 39.5415 92.0792 22.4469C91.6608 22.1363 91.2499 21.8206 90.8339 21.4974Z" fill="#DADAD9"/>
<path d="M93.5482 23.5251C82.5809 39.7121 72.3684 56.7405 65.4141 75.0234C65.7635 74.9797 66.0864 74.9374 66.4536 74.9037C73.6162 56.8316 84.2317 40.701 94.7476 24.4068L93.5482 23.5251Z" fill="#DADAD9"/>
<path d="M94.6312 24.3326C84.6878 40.1083 75.4555 56.5792 69.1434 74.1539C68.926 74.7675 69.8641 75.0018 70.0829 74.4148C76.5365 56.8543 86.1668 41.0704 95.7926 25.1741C95.4072 24.8961 95.0154 24.6169 94.6312 24.3326Z" fill="#DADAD9"/>
<path d="M97.8356 26.6449C87.9528 41.8081 79.4489 57.8265 72.4258 74.5078C72.6313 74.4624 72.8368 74.417 73.0384 74.3578C73.2401 74.2985 73.4996 74.2111 73.7353 74.1454C80.9364 57.9814 89.3419 42.3814 98.8807 27.477C98.5053 27.1813 98.1755 26.9206 97.8356 26.6449Z" fill="#DADAD9"/>
<path d="M99.7163 28.1054C90.7657 42.6023 82.8723 57.7258 76.0977 73.3584C76.4642 73.2262 76.8372 73.0952 77.205 72.9567C84.124 57.7844 91.9728 43.0536 100.707 28.8482C100.376 28.5939 100.048 28.3534 99.7163 28.1054Z" fill="#DADAD9"/>
<path d="M103.06 30.5421C94.2353 43.4922 86.7953 57.5501 80.2461 71.748C80.6906 71.5523 81.1414 71.3577 81.582 71.1481C88.1539 57.3742 95.8196 44.3502 104.039 31.4793C103.717 31.1589 103.39 30.8465 103.06 30.5421Z" fill="#DADAD9"/>
<path d="M105.159 32.5701C105.016 32.4905 104.848 32.4684 104.689 32.5083C104.53 32.5481 104.392 32.647 104.304 32.7847C96.8088 44.7161 90.0743 57.1087 84.1406 69.8887C84.5786 69.6589 85.0278 69.405 85.4594 69.174C91.5036 56.9042 98.2879 45.1124 105.411 33.4321C105.469 33.3445 105.501 33.2426 105.503 33.1378C105.506 33.033 105.48 32.9295 105.428 32.8387L105.159 32.5701Z" fill="#DADAD9"/>
<path d="M91.3925 65.3869C96.1344 55.776 101.364 46.4563 106.883 37.2321C106.964 37.0947 106.987 36.9309 106.946 36.7768C106.906 36.6226 106.806 36.4908 106.669 36.4103C106.531 36.3297 106.368 36.307 106.214 36.3472C106.059 36.3874 105.928 36.4872 105.847 36.6247C99.9421 46.1862 94.6415 56.1081 89.9766 66.332L91.3925 65.3869Z" fill="#DADAD9"/>
<path d="M108.68 36.1105C103.644 44.8054 99.1081 53.8269 94.8379 62.9326L96.5978 61.6674C100.731 53.3351 105.117 45.1565 109.544 36.9664L108.68 36.1105Z" fill="#DADAD9"/>
<path d="M100.262 59.0792C103.772 52.5079 107.488 46.0552 111.249 39.6111C111.336 39.4619 111.36 39.2843 111.316 39.1171C111.273 38.95 111.164 38.8071 111.015 38.72C110.866 38.6328 110.688 38.6084 110.521 38.6523C110.354 38.6961 110.211 38.8045 110.124 38.9537C105.807 45.8997 101.928 53.1537 98.2715 60.4834C98.9338 59.9758 99.5953 59.5402 100.262 59.0792Z" fill="#DADAD9"/>
<path d="M112.417 39.7733C109.378 45.3016 106.549 50.9626 103.807 56.6533C104.327 56.3018 104.836 55.9416 105.327 55.5776C107.938 50.5631 110.627 45.5897 113.275 40.5888C113.006 40.3202 112.704 40.0518 112.417 39.7733Z" fill="#DADAD9"/>
<path d="M114.694 41.7557C112.351 45.6552 110.158 49.6624 107.996 53.6758C108.719 53.1274 109.436 52.5715 110.132 51.9917C111.958 48.7328 113.856 45.5012 115.741 42.3062C115.371 42.1662 115.019 41.9813 114.694 41.7557Z" fill="#DADAD9"/>
<path d="M131.436 198.367C130.359 200.289 129.476 202.315 128.801 204.413C128.447 205.459 127.228 207.76 128.016 208.765C128.069 208.824 128.139 208.864 128.217 208.879C128.295 208.894 128.375 208.884 128.446 208.848L128.563 208.786C128.613 208.757 128.654 208.716 128.683 208.666C128.712 208.617 128.728 208.561 128.729 208.503L128.755 208.371C128.758 208.31 128.74 208.251 128.704 208.202C128.668 208.153 128.616 208.118 128.558 208.103C128.637 207.946 128.708 207.784 128.77 207.619C128.943 207.201 129.043 206.715 129.187 206.278C129.454 205.477 129.744 204.687 130.054 203.902C130.745 202.2 131.606 200.596 132.435 198.96C132.514 198.828 132.537 198.669 132.499 198.52C132.461 198.371 132.365 198.242 132.232 198.164C132.1 198.085 131.941 198.062 131.792 198.1C131.642 198.138 131.514 198.234 131.436 198.367Z" fill="#DADAD9"/>
<path d="M133.898 198.648C131.404 203.51 129.513 208.66 128.269 213.981C128.254 214.071 128.273 214.162 128.322 214.239C128.37 214.315 128.446 214.371 128.533 214.395C128.62 214.419 128.713 214.411 128.794 214.37C128.876 214.33 128.939 214.261 128.972 214.177C130.386 208.987 132.349 203.962 134.829 199.189C135.132 198.572 134.227 198.03 133.898 198.648Z" fill="#DADAD9"/>
<path d="M136.518 198.762C133.447 203.95 131.44 209.907 130.058 215.751C130.05 215.812 130.064 215.874 130.099 215.926C130.133 215.978 130.185 216.015 130.245 216.032C130.305 216.048 130.369 216.042 130.425 216.015C130.481 215.989 130.525 215.942 130.55 215.885C132.095 209.976 134.523 204.624 137.291 199.207C137.32 199.156 137.339 199.1 137.347 199.042C137.354 198.984 137.35 198.925 137.335 198.868C137.32 198.812 137.294 198.759 137.258 198.713C137.222 198.666 137.178 198.627 137.127 198.598C137.076 198.569 137.02 198.55 136.962 198.542C136.904 198.535 136.845 198.539 136.789 198.554C136.732 198.569 136.679 198.595 136.633 198.631C136.587 198.667 136.548 198.711 136.518 198.762Z" fill="#DADAD9"/>
<path d="M140.14 197.497C136.119 202.173 133.601 208.635 131.949 214.518C131.923 214.651 131.948 214.79 132.02 214.906C132.092 215.021 132.204 215.106 132.336 215.142C132.467 215.178 132.607 215.164 132.728 215.101C132.849 215.038 132.942 214.932 132.988 214.804L133.66 213.708C133.688 213.678 133.707 213.64 133.716 213.6C133.725 213.559 133.723 213.517 133.709 213.477C133.696 213.438 133.673 213.403 133.641 213.376C133.61 213.348 133.572 213.33 133.531 213.323C135.56 207.966 138.393 203.296 141.099 198.234C141.415 197.653 140.614 196.947 140.14 197.497Z" fill="#DADAD9"/>
<path d="M143.49 197.13C141.329 197.151 140.28 201.852 139.528 203.431C137.752 207.178 135.891 210.895 134.304 214.718C134.071 215.276 135.023 215.573 135.223 215.08C136.706 212.404 138.018 209.629 139.37 206.882C139.813 205.984 142.757 198.614 143.465 198.614C143.562 198.616 143.659 198.598 143.75 198.562C143.84 198.527 143.923 198.473 143.993 198.406C144.063 198.338 144.119 198.257 144.158 198.168C144.197 198.078 144.218 197.982 144.219 197.885C144.221 197.787 144.203 197.691 144.168 197.6C144.132 197.509 144.079 197.427 144.011 197.357C143.943 197.287 143.862 197.231 143.773 197.192C143.684 197.153 143.588 197.132 143.49 197.13Z" fill="#DADAD9"/>
<path d="M146.209 197.442C143.4 202.798 140.619 208.416 138.915 214.229C138.817 214.565 139.335 214.803 139.491 214.472C142.048 208.962 144.345 203.401 147.263 198.059C147.645 197.373 146.58 196.746 146.209 197.442Z" fill="#DADAD9"/>
<path d="M149.518 196.404C146.268 202.129 143.66 208.197 141.742 214.495C141.607 214.921 142.251 215.085 142.409 214.677C144.816 208.641 147.562 202.747 150.632 197.02C150.685 196.876 150.684 196.717 150.63 196.573C150.577 196.429 150.473 196.309 150.339 196.235C150.204 196.16 150.048 196.137 149.897 196.168C149.747 196.199 149.612 196.283 149.518 196.404Z" fill="#DADAD9"/>
<path d="M153.135 194.522C149.506 201.162 146.007 208.221 143.503 215.387C143.292 216.002 143.912 216.424 144.438 216.348C144.637 216.345 144.833 216.291 145.006 216.192C145.179 216.092 145.323 215.95 145.427 215.78C145.489 215.708 145.538 215.626 145.568 215.536C145.599 215.446 145.611 215.351 145.604 215.256C145.597 215.161 145.572 215.069 145.529 214.984C145.486 214.899 145.427 214.824 145.355 214.763C147.717 207.923 151.227 201.555 153.881 194.83C154.036 194.369 153.386 194.171 153.135 194.522Z" fill="#DADAD9"/>
<path d="M158.196 190.369C154.435 197.731 150.949 205.225 147.529 212.752C147.185 213.511 148.337 214.167 148.655 213.403C151.881 205.76 155.239 198.182 158.543 190.574C158.667 190.342 158.315 190.13 158.196 190.369Z" fill="#DADAD9"/>
<path d="M162.456 189.09C159.806 193.559 157.593 198.31 155.228 202.933C153.33 206.637 151.182 210.273 149.932 214.253C149.881 214.434 149.904 214.629 149.997 214.793C150.089 214.957 150.243 215.078 150.424 215.129C150.606 215.18 150.8 215.156 150.964 215.064C151.128 214.972 151.249 214.818 151.3 214.636C153.776 205.753 159.242 197.718 162.644 189.166C162.687 189.049 162.51 189.015 162.456 189.09Z" fill="#DADAD9"/>
<path d="M165.484 187.173C160.784 195.867 156.597 204.829 152.943 214.012C153.472 214.002 153.999 213.959 154.522 213.885C158.266 205.025 162.196 196.22 165.799 187.306C165.849 187.119 165.579 186.988 165.484 187.173Z" fill="#DADAD9"/>
<path d="M168.974 183.713C164.699 193.047 160.66 202.585 157.301 212.267C156.961 213.244 158.472 213.635 158.825 212.693C162.427 203.111 165.975 193.537 169.851 184.06C170.047 183.593 169.224 183.237 168.974 183.713Z" fill="#DADAD9"/>
<path d="M172.415 181.756C168.846 190.663 165.591 199.704 162.212 208.681C161.861 209.609 163.366 210.032 163.699 209.093C166.891 200.067 170.221 191.074 173.218 181.977C173.384 181.492 172.608 181.302 172.415 181.756Z" fill="#DADAD9"/>
<path d="M174.85 179.383C173.617 188.855 169.003 197.264 166.168 206.307C165.859 207.29 167.379 207.703 167.705 206.73L168.782 203.543C168.808 203.476 168.822 203.405 168.823 203.334C171.521 195.438 174.974 187.774 175.883 179.4C175.944 178.743 174.935 178.744 174.85 179.383Z" fill="#DADAD9"/>
<path d="M179.895 173.654C176.899 183.361 172.97 192.769 170.012 202.477C169.74 203.375 171.056 203.689 171.388 202.855C175.125 193.488 178.021 183.592 180.685 173.84C180.71 173.735 180.692 173.625 180.635 173.534C180.579 173.442 180.488 173.377 180.383 173.352C180.279 173.328 180.168 173.345 180.077 173.402C179.985 173.459 179.92 173.549 179.895 173.654Z" fill="#DADAD9"/>
<path d="M182.948 171.636C179.867 182.185 176.678 192.648 173.446 203.129C173.357 203.184 173.282 203.259 173.227 203.349C173.172 203.438 173.139 203.54 173.129 203.644L173.005 204.656C172.902 205.528 174.275 205.683 174.498 204.873C177.54 193.851 180.622 182.856 183.831 171.886C183.864 171.768 183.849 171.643 183.79 171.537C183.731 171.431 183.632 171.352 183.514 171.319C183.397 171.286 183.272 171.301 183.166 171.36C183.06 171.42 182.981 171.519 182.948 171.636Z" fill="#DADAD9"/>
<path d="M186.152 166.94C183.249 178.534 180.178 190.043 176.592 201.471C176.224 202.422 177.854 202.909 178.141 201.902C181.375 190.399 184.357 178.808 186.701 167.086C186.77 166.732 186.224 166.574 186.152 166.94Z" fill="#DADAD9"/>
<path d="M188.171 165.495C186.585 177.291 182.677 188.69 179.726 200.189C179.679 200.391 179.711 200.604 179.817 200.783C179.922 200.962 180.093 201.093 180.294 201.149C180.494 201.205 180.708 201.181 180.891 201.082C181.074 200.984 181.212 200.818 181.275 200.621C184.26 189.115 187.7 177.357 188.903 165.506C188.956 165.031 188.233 165.041 188.171 165.495Z" fill="#DADAD9"/>
<path d="M189.679 165.67C187.375 176.271 185.025 186.969 183.087 197.641C182.903 198.589 184.322 199.015 184.555 198.051C187.035 187.396 188.939 176.615 190.259 165.756C190.304 165.424 189.743 165.341 189.679 165.67Z" fill="#DADAD9"/>
<path d="M192.397 166.898C191.862 175.672 189.65 184.108 188.377 192.772C188.96 192.23 189.564 191.757 190.175 191.272C191.427 183.194 193.319 175.057 193.1 166.89C192.866 166.915 192.631 166.917 192.397 166.898Z" fill="#DADAD9"/>
<path d="M194.94 168.598C194.767 172.225 194.377 175.839 193.772 179.42C193.41 181.795 192.163 185.455 193.128 187.681C193.187 187.786 193.27 187.875 193.369 187.943C193.469 188.01 193.582 188.054 193.701 188.071C193.82 188.087 193.942 188.077 194.056 188.039C194.17 188.002 194.274 187.938 194.36 187.854L194.472 187.752C194.613 187.604 194.692 187.409 194.692 187.205C194.693 187.001 194.615 186.805 194.474 186.657L194.436 186.617C194.165 185.207 194.662 183.185 194.793 181.867C194.976 179.975 195.216 178.093 195.411 176.21C195.675 173.893 195.779 171.56 195.722 169.228C195.454 169.032 195.193 168.822 194.94 168.598Z" fill="#DADAD9"/>
<path d="M196.801 170.092C196.654 172.821 196.326 175.537 195.821 178.223C195.778 178.314 195.758 178.414 195.761 178.515C195.764 178.615 195.791 178.714 195.839 178.802C195.887 178.891 195.955 178.967 196.038 179.024C196.121 179.081 196.216 179.118 196.315 179.132C196.415 179.146 196.516 179.137 196.612 179.104C196.707 179.072 196.793 179.018 196.864 178.946C196.934 178.874 196.987 178.787 197.018 178.691C197.048 178.595 197.056 178.493 197.04 178.394C197.265 175.815 197.434 173.185 197.456 170.567C197.231 170.412 197.012 170.251 196.801 170.092Z" fill="#DADAD9"/>
<path d="M63.5301 119.639C63.2719 119.314 62.6963 119.746 62.9457 120.083L63.8162 121.275C63.89 121.368 64.0627 121.323 64.0227 121.19C64.9558 124.427 67.8295 128.138 69.4169 131.448C71.2854 135.338 72.9161 139.339 74.456 143.369C77.3217 150.875 79.8926 158.481 82.9711 165.904C89.4703 181.589 96.4718 196.611 97.2814 213.842C97.2906 213.967 97.3462 214.084 97.4373 214.17C97.5284 214.256 97.6484 214.305 97.7737 214.307C97.899 214.309 98.0206 214.264 98.1145 214.181C98.2084 214.098 98.268 213.983 98.2814 213.859C99.2664 197.415 91.6986 182.034 85.4611 167.265C78.7078 151.301 74.4632 133.456 63.5301 119.639Z" fill="#DADAD9"/>
<path d="M67.5386 113.649C66.7098 116.507 66.0524 119.412 65.57 122.349C65.5216 122.357 65.4785 122.384 65.4499 122.424C65.4213 122.464 65.4096 122.513 65.4172 122.562L65.3675 123.562C65.35 123.663 65.3705 123.766 65.4252 123.853C65.4799 123.939 65.5649 124.002 65.6635 124.03C65.7621 124.057 65.8673 124.047 65.9587 124.001C66.0501 123.955 66.1211 123.876 66.1578 123.781C67.0426 120.536 67.8791 117.236 68.6716 113.961C68.7129 113.81 68.6928 113.65 68.6158 113.515C68.5388 113.379 68.4111 113.28 68.2608 113.238C68.1106 113.197 67.9501 113.217 67.8147 113.294C67.6792 113.371 67.5799 113.499 67.5386 113.649Z" fill="#DADAD9"/>
<path d="M70.6458 111.655C70.3632 111.252 69.6232 111.214 69.4978 111.793C68.4165 116.829 67.587 121.953 66.7509 127.043C66.6578 127.523 67.3951 127.744 67.4907 127.252C68.4022 122.55 69.4907 117.883 70.4769 113.202C70.6033 113.185 70.7193 113.123 70.8039 113.027C70.8885 112.932 70.9363 112.809 70.9384 112.682C70.966 112.5 70.9541 112.314 70.9036 112.136C70.8532 111.959 70.7652 111.795 70.6458 111.655Z" fill="#DADAD9"/>
<path d="M72.4274 115.286L72.2945 115.228C72.1696 115.163 72.0248 115.147 71.8888 115.184C71.7529 115.221 71.6358 115.307 71.5609 115.427C70.9672 116.223 70.9532 117.479 70.7618 118.432C70.4784 119.894 70.2051 121.36 69.9419 122.83C69.4767 125.5 69.0948 128.18 68.7685 130.877C68.7061 131.2 69.2986 131.288 69.3497 130.957C69.7415 128.463 70.1851 125.972 70.697 123.501C70.9237 122.332 71.1883 121.17 71.4592 120.01L71.8681 118.273C72.1677 117.065 72.0009 117.249 71.6967 115.977C71.7238 116.096 71.7938 116.201 71.8934 116.272C71.9929 116.343 72.115 116.374 72.2363 116.36C72.3576 116.346 72.4695 116.288 72.5506 116.197C72.6317 116.106 72.6762 115.988 72.6757 115.866L72.699 115.746C72.7015 115.651 72.6773 115.558 72.6292 115.477C72.5812 115.396 72.5112 115.33 72.4274 115.286Z" fill="#DADAD9"/>
<path d="M72.8672 118.629C71.8017 123.75 71.1555 128.949 70.9351 134.175C70.9084 134.583 71.5131 134.576 71.5891 134.184C72.1139 129.054 72.9183 123.957 73.9988 118.914C74.1133 118.222 73.0472 117.904 72.8672 118.629Z" fill="#DADAD9"/>
<path d="M74.2213 123.416C73.5762 128.073 72.9767 132.732 72.4226 137.394C72.3625 137.907 73.1439 137.901 73.2142 137.403C73.8089 133.073 74.4467 128.747 75.1273 124.424C75.1723 124.38 75.2078 124.327 75.2316 124.268C75.2553 124.21 75.2668 124.147 75.2655 124.084L75.2742 123.43C75.2853 122.73 74.3132 122.739 74.2213 123.416Z" fill="#DADAD9"/>
<path d="M76.1117 127.022C75.5472 131.354 75.0468 135.694 74.6103 140.042C74.5625 140.491 75.2518 140.487 75.3035 140.051C75.7785 136.045 76.3547 132.059 76.9713 128.068C77.0232 128.024 77.0642 127.969 77.091 127.907C77.1178 127.845 77.1297 127.778 77.1257 127.711L77.1282 127.055C77.1657 126.355 76.1963 126.383 76.1117 127.022Z" fill="#DADAD9"/>
<path d="M78.145 131.954C77.4428 136.342 76.8342 140.744 76.319 145.159C76.2724 145.603 76.9553 145.597 77.0121 145.169C77.6296 140.834 78.3414 136.52 79.1477 132.227C79.2688 131.568 78.2459 131.298 78.145 131.954Z" fill="#DADAD9"/>
<path d="M80.5204 135.87L77.7649 150.082C77.6657 150.594 78.4421 150.817 78.5489 150.3L81.4966 136.145C81.662 135.495 80.6466 135.219 80.5204 135.87Z" fill="#DADAD9"/>
<path d="M82.3688 140.13C81.2272 145.003 80.3069 149.92 79.5116 154.867C79.4234 155.322 80.1442 155.527 80.221 155.063C81.015 150.122 82.0858 145.242 83.3336 140.396C83.3689 140.268 83.3518 140.131 83.2863 140.016C83.2207 139.9 83.112 139.816 82.9841 139.78C82.8562 139.745 82.7195 139.762 82.6041 139.828C82.4887 139.893 82.4041 140.002 82.3688 140.13Z" fill="#DADAD9"/>
<path d="M84.4821 146.046C83.2493 150.207 82.3648 154.464 81.8378 158.772C81.7618 159.163 82.4158 159.172 82.4451 158.784C83.0224 154.537 83.9662 150.348 85.2661 146.264C85.4285 145.764 84.6319 145.544 84.4821 146.046Z" fill="#DADAD9"/>
<path d="M86.2335 148.61C85.1604 153.739 84.2267 158.893 83.4324 164.072C83.3343 164.577 84.1285 164.81 84.2163 164.289C85.0924 159.128 86.1011 153.993 87.2729 148.896C87.4218 148.23 86.3722 147.928 86.2335 148.61Z" fill="#DADAD9"/>
<path d="M88.0307 153.475C86.536 158.112 85.6221 162.917 85.3099 167.779C85.2769 168.186 85.8867 168.186 85.9626 167.794C86.5173 163.022 87.4778 158.306 88.8337 153.696C88.863 153.59 88.8489 153.476 88.7943 153.38C88.7398 153.284 88.6493 153.214 88.5428 153.184C88.4364 153.155 88.3226 153.169 88.2266 153.224C88.1305 153.278 88.0601 153.369 88.0307 153.475Z" fill="#DADAD9"/>
<path d="M90.2213 157.828C89.1238 163.117 88.4613 168.529 87.7644 173.882C87.686 174.286 88.4189 174.396 88.4796 173.981C89.2612 168.664 90.2982 163.384 91.075 158.092C91.1461 157.522 90.3303 157.266 90.2213 157.828Z" fill="#DADAD9"/>
<path d="M91.4656 162.305C90.44 167.798 89.3423 173.696 89.1202 179.272C89.1171 179.343 89.1395 179.413 89.1835 179.469C89.2274 179.524 89.2899 179.562 89.3596 179.576C89.4293 179.589 89.5015 179.577 89.5631 179.542C89.6247 179.507 89.6716 179.451 89.6952 179.384C91.1897 173.976 91.9236 168.059 92.6218 162.497C92.7276 161.816 91.593 161.648 91.4656 162.305Z" fill="#DADAD9"/>
<path d="M92.7649 165.003C91.8619 170.303 91.0865 175.621 90.4728 180.95C90.4446 181.096 90.7062 181.133 90.7319 181.001C91.5508 175.717 92.5294 170.467 93.6677 165.25C93.7866 164.637 92.8874 164.371 92.7649 165.003Z" fill="#DADAD9"/>
<path d="M94.3048 166.842C93.0069 172.826 92.0401 178.861 91.3425 184.961C91.3092 185.302 91.8331 185.305 91.8716 184.972C92.6668 178.959 93.8222 173 95.3316 167.126C95.493 166.462 94.4536 166.176 94.3048 166.842Z" fill="#DADAD9"/>
<path d="M96.0376 170.109C94.5131 175.709 93.4698 181.43 92.9191 187.208C92.864 187.492 93.3235 187.489 93.3648 187.209C94.2435 181.526 95.4591 175.9 97.0049 170.362C97.0251 170.238 96.9986 170.112 96.9305 170.007C96.8623 169.902 96.7575 169.826 96.6365 169.795C96.5155 169.763 96.3871 169.778 96.2763 169.836C96.1655 169.894 96.0804 169.991 96.0376 170.109Z" fill="#DADAD9"/>
<path d="M97.6999 173.749C95.8157 179.748 94.446 185.896 93.6055 192.127C93.5099 192.62 94.2864 192.843 94.3705 192.341C95.4868 186.166 96.9449 180.056 98.7381 174.042C98.7659 173.908 98.7419 173.769 98.6709 173.652C98.6 173.535 98.4873 173.449 98.3556 173.412C98.2239 173.375 98.083 173.389 97.9613 173.451C97.8396 173.514 97.7462 173.62 97.6999 173.749Z" fill="#DADAD9"/>
<path d="M99.1624 177.533C98.4079 178.246 98.269 179.74 97.9969 180.704C97.5108 182.399 97.0815 184.106 96.6889 185.827C95.9421 189.137 95.3975 192.487 94.9541 195.857C94.8806 196.236 95.5818 196.339 95.6376 195.95C96.0705 192.939 96.6236 189.951 97.3283 186.993C97.6647 185.596 98.0276 184.198 98.426 182.819C98.7848 181.578 99.0193 179.59 99.745 178.485L99.8179 178.447C99.9315 178.377 100.014 178.267 100.049 178.138C100.083 178.01 100.068 177.873 100.004 177.755L99.9572 177.661C99.9192 177.594 99.8665 177.536 99.803 177.491C99.7396 177.447 99.667 177.418 99.5906 177.406C99.5142 177.393 99.4361 177.398 99.362 177.42C99.2879 177.443 99.2196 177.481 99.1624 177.533Z" fill="#DADAD9"/>
<path d="M100.292 180.762C98.4261 187.613 96.9646 194.542 95.7055 201.543C95.6087 202.042 96.3725 202.263 96.4706 201.757C97.8183 194.806 99.4694 187.913 101.291 181.054C101.32 180.924 101.299 180.789 101.232 180.674C101.165 180.56 101.056 180.475 100.929 180.438C100.801 180.401 100.665 180.414 100.546 180.474C100.428 180.534 100.337 180.637 100.292 180.762Z" fill="#DADAD9"/>
<path d="M102.241 182.418C99.8253 190.256 98.0299 198.272 96.8715 206.392C96.8286 206.613 97.2367 206.672 97.2696 206.469C98.6523 198.407 100.67 190.467 103.303 182.723C103.527 182.038 102.451 181.738 102.241 182.418Z" fill="#DADAD9"/>
<path d="M103.949 183.045C102.202 192.056 100.445 201.118 99.3338 210.233C99.2946 210.435 99.6522 210.485 99.6877 210.301C101.594 201.347 103.172 192.329 105.104 183.38C105.246 182.614 104.098 182.28 103.949 183.045Z" fill="#DADAD9"/>
<path d="M105.216 188.883L102.488 202.95C102.412 203.341 103.033 203.521 103.111 203.123C104.119 198.462 105.134 193.802 106.155 189.144C106.287 188.533 105.335 188.27 105.216 188.883Z" fill="#DADAD9"/>
<path d="M187.766 101.132C182.517 94.3906 176.766 88.0547 170.564 82.1784C167.95 79.7239 165.195 77.4251 162.312 75.2937C159.84 73.503 155.681 69.792 152.602 69.4769C152.753 69.5063 152.775 69.2612 152.652 69.2178C152.189 69.069 151.725 68.9266 151.262 68.7778C151.196 68.7568 151.124 68.7613 151.061 68.7906C150.998 68.8199 150.949 68.8718 150.922 68.936C150.896 69.0002 150.894 69.072 150.918 69.1371C150.942 69.2023 150.99 69.2561 151.052 69.2878C165.375 77.2514 176.511 89.6195 186.544 102.397C197.3 116.042 205.638 130.903 213.169 146.507C213.572 147.339 214.72 146.624 214.392 145.813C207.882 129.745 198.431 114.674 187.766 101.132Z" fill="#DADAD9"/>
<path d="M158.18 68.841C157.862 69.4484 157.655 70.1074 157.567 70.7875C157.473 71.274 157.18 72.109 157.446 72.5606C157.481 72.6221 157.532 72.6733 157.593 72.709C157.655 72.7447 157.724 72.7638 157.795 72.7643C157.866 72.7647 157.936 72.7466 157.997 72.7117C158.059 72.6768 158.111 72.6263 158.147 72.5653C158.259 72.342 158.332 72.1012 158.364 71.8533C158.421 71.5563 158.523 71.2679 158.611 70.9833C158.839 70.4219 159.026 69.8444 159.169 69.2555C159.203 69.1291 159.19 68.9946 159.133 68.877C159.075 68.7593 158.977 68.6666 158.856 68.6159C158.735 68.5653 158.6 68.5602 158.476 68.6015C158.352 68.6429 158.247 68.728 158.18 68.841Z" fill="#DADAD9"/>
<path d="M159.54 68.2915C159.234 69.9124 159.011 71.5477 158.872 73.1911C158.788 73.6208 159.548 73.7287 159.631 73.299C160.015 71.693 160.316 70.0686 160.535 68.4321C160.534 68.3105 160.489 68.1933 160.409 68.1019C160.329 68.0106 160.218 67.951 160.098 67.934C159.977 67.9169 159.855 67.9437 159.753 68.0093C159.65 68.0749 159.575 68.175 159.54 68.2915Z" fill="#DADAD9"/>
<path d="M160.862 69.9246C160.545 71.5816 160.349 73.2595 160.275 74.9449C160.26 75.3616 160.901 75.3679 160.929 74.9537C161.032 73.334 161.313 71.7305 161.765 70.1717C161.934 69.5686 160.969 69.3357 160.862 69.9246Z" fill="#DADAD9"/>
<path d="M162.906 70.4127C162.106 72.3524 161.654 74.4179 161.572 76.5143C161.547 77.0144 162.307 77.0174 162.343 76.5262C162.488 74.5431 162.983 72.6012 163.803 70.7899C163.836 70.7299 163.856 70.6636 163.861 70.5954C163.867 70.5272 163.858 70.4586 163.835 70.3939C163.813 70.3293 163.777 70.2702 163.73 70.2203C163.683 70.1705 163.626 70.131 163.563 70.1045C163.5 70.078 163.432 70.065 163.364 70.0663C163.295 70.0677 163.228 70.0835 163.166 70.1125C163.104 70.1416 163.049 70.1833 163.004 70.235C162.959 70.2867 162.926 70.3473 162.906 70.4127Z" fill="#DADAD9"/>
<path d="M164.463 71.8752C163.803 73.8352 163.447 75.8847 163.409 77.9524C163.388 78.4663 164.168 78.4668 164.207 77.9629C164.413 75.9851 164.793 74.0292 165.34 72.1175C165.372 72.0011 165.357 71.8767 165.297 71.7717C165.238 71.6667 165.139 71.5897 165.023 71.5576C164.906 71.5255 164.782 71.5409 164.677 71.6005C164.572 71.66 164.495 71.7589 164.463 71.8752Z" fill="#DADAD9"/>
<path d="M165.976 73.4734L165.261 78.5804C165.185 78.9721 165.899 79.0778 165.964 78.6772L166.817 73.5972C166.826 73.542 166.823 73.4857 166.809 73.4315C166.795 73.3773 166.771 73.3264 166.738 73.2816C166.705 73.2368 166.663 73.199 166.615 73.1703C166.567 73.1416 166.514 73.1227 166.459 73.1146C166.403 73.1065 166.347 73.1093 166.293 73.1229C166.239 73.1365 166.188 73.1607 166.143 73.194C166.098 73.2274 166.06 73.2692 166.032 73.3171C166.003 73.365 165.984 73.4182 165.976 73.4734Z" fill="#DADAD9"/>
<path d="M167.91 75.2329C167.174 76.8343 166.845 78.5923 166.951 80.3514C166.961 80.4669 167.013 80.5745 167.098 80.6536C167.183 80.7327 167.294 80.7777 167.41 80.7798C167.526 80.7819 167.639 80.7411 167.726 80.6652C167.814 80.5893 167.87 80.4837 167.885 80.3687C167.972 78.752 168.307 77.1584 168.88 75.6439C168.908 75.5212 168.893 75.3925 168.836 75.2802C168.779 75.1679 168.684 75.0794 168.568 75.0303C168.452 74.9812 168.322 74.9746 168.202 75.0116C168.082 75.0487 167.978 75.1271 167.91 75.2329Z" fill="#DADAD9"/>
<path d="M170.197 76.7581C169.532 78.7048 169.269 80.7659 169.422 82.8172C169.454 83.4003 170.361 83.4189 170.338 82.8308C170.287 80.8611 170.544 78.8955 171.1 77.0053C171.121 76.8897 171.098 76.7706 171.035 76.6714C170.972 76.5721 170.875 76.4999 170.762 76.4689C170.648 76.4379 170.528 76.4504 170.423 76.5039C170.319 76.5574 170.238 76.6481 170.197 76.7581Z" fill="#DADAD9"/>
<path d="M172.512 79.0949C171.867 80.8526 171.551 82.7137 171.579 84.5856C171.589 84.7051 171.642 84.8167 171.73 84.8986C171.817 84.9806 171.932 85.0271 172.052 85.0291C172.172 85.0311 172.288 84.9884 172.378 84.9093C172.468 84.8303 172.526 84.7205 172.54 84.6014C172.576 82.8167 172.883 81.0479 173.452 79.3558C173.643 78.7436 172.73 78.5142 172.512 79.0949Z" fill="#DADAD9"/>
<path d="M175.528 80.2501L173.997 87.4676C173.896 87.9921 174.685 88.2172 174.8 87.6888L176.374 80.4863C176.494 79.9326 175.647 79.7028 175.528 80.2501Z" fill="#DADAD9"/>
<path d="M178.537 82.7541C177.516 85.1394 176.87 87.6686 176.624 90.2516C176.552 90.8277 177.444 90.8237 177.521 90.2614C177.91 87.834 178.547 85.4528 179.423 83.1554C179.606 82.614 178.766 82.2478 178.537 82.7541Z" fill="#DADAD9"/>
<path d="M180.939 84.5044C180.217 87.2664 179.722 90.0824 179.457 92.9247C179.372 93.5639 180.334 93.5406 180.411 92.9392C180.769 90.1825 181.402 87.4924 181.859 84.7616C181.893 84.6395 181.878 84.5089 181.815 84.3985C181.753 84.288 181.65 84.2068 181.528 84.1727C181.406 84.1386 181.275 84.1544 181.164 84.2166C181.054 84.2788 180.973 84.3823 180.939 84.5044Z" fill="#DADAD9"/>
<path d="M183.14 85.7643C181.935 88.5993 181.605 92.0236 181.127 95.0651C181.021 95.6149 181.877 95.8661 181.967 95.3C182.239 93.6611 182.536 92.027 182.876 90.4078C183.271 88.9416 183.581 87.454 183.805 85.9523C183.831 85.6164 183.282 85.4378 183.14 85.7643Z" fill="#DADAD9"/>
<path d="M185.214 88.553L183.584 95.6398C183.469 96.2338 184.345 96.4824 184.486 95.8932L186.147 88.8126C186.336 88.2132 185.358 87.945 185.214 88.553Z" fill="#DADAD9"/>
<path d="M188.097 90.7324C186.969 93.9166 186.692 97.5742 186.081 100.898C185.971 101.46 186.836 101.7 186.945 101.138C187.595 97.7885 188.647 94.2551 188.754 90.827C188.755 90.7457 188.727 90.6669 188.674 90.6052C188.621 90.5434 188.548 90.503 188.467 90.4914C188.387 90.4798 188.305 90.4979 188.237 90.5422C188.169 90.5866 188.119 90.6541 188.097 90.7324Z" fill="#DADAD9"/>
<path d="M189.962 92.4056C188.932 93.6286 189.022 95.6985 188.81 97.231C188.657 98.329 188.523 99.4243 188.389 100.52C188.19 101.42 188.117 102.344 188.172 103.264C188.192 103.341 188.237 103.41 188.299 103.459C188.362 103.508 188.44 103.534 188.519 103.535L188.646 103.526C188.716 103.524 188.783 103.501 188.84 103.459C188.896 103.417 188.938 103.359 188.96 103.292L188.979 103.191C188.992 103.137 188.989 103.081 188.971 103.028C188.952 102.976 188.919 102.93 188.875 102.896C188.831 102.862 188.779 102.841 188.723 102.836C188.668 102.831 188.613 102.842 188.563 102.868C189.166 102.532 189.129 101.234 189.232 100.637C189.404 99.7524 189.537 98.8603 189.691 97.9656C189.882 96.9798 189.882 95.2881 190.288 94.1079C190.611 94.2032 191.031 94.0291 191.005 93.624C190.992 93.3527 190.965 93.0852 190.932 92.8165C190.898 92.3837 190.322 91.9704 189.962 92.4056Z" fill="#DADAD9"/>
<path d="M191.72 95.0146C191.11 98.3562 190.694 101.73 190.475 105.12C190.455 105.424 190.914 105.428 190.938 105.131C191.243 101.801 191.773 98.4949 192.523 95.2358C192.641 94.7276 191.811 94.5078 191.72 95.0146Z" fill="#DADAD9"/>
<path d="M194.317 97.9831C193.428 101.792 192.827 105.662 192.518 109.561C192.476 110.012 193.159 110.007 193.204 109.57C193.598 106.006 194.241 102.474 195.129 98.9996C195.236 98.9602 195.325 98.882 195.377 98.7805C195.43 98.6791 195.442 98.5616 195.413 98.4514L195.318 97.9936C195.287 97.8849 195.222 97.7891 195.133 97.7204C195.043 97.6517 194.934 97.6139 194.821 97.6127C194.708 97.6116 194.598 97.647 194.507 97.7138C194.416 97.7806 194.349 97.8751 194.317 97.9831Z" fill="#DADAD9"/>
<path d="M196.824 98.8833C196.003 103.24 195.419 107.638 195.076 112.058C195.036 112.536 195.758 112.531 195.808 112.069C196.302 107.726 197.055 103.439 197.868 99.1448C197.994 98.4939 196.962 98.202 196.824 98.8833Z" fill="#DADAD9"/>
<path d="M198.693 102.267C197.826 106.655 197.229 111.091 196.904 115.552C196.859 116.055 197.62 116.052 197.676 115.564C198.17 111.188 198.972 106.885 199.733 102.554C199.83 101.884 198.826 101.585 198.693 102.267Z" fill="#DADAD9"/>
<path d="M200.73 104.846C199.965 109.805 199.335 114.778 198.463 119.717C198.373 120.178 199.075 120.379 199.172 119.913C200.13 114.971 201.135 109.993 201.724 104.993C201.795 104.423 200.813 104.278 200.73 104.846Z" fill="#DADAD9"/>
<path d="M204.037 107.572L200.571 123.489C200.472 124.001 201.237 124.215 201.355 123.707L205.083 107.86C205.213 107.191 204.18 106.905 204.037 107.572Z" fill="#DADAD9"/>
<path d="M206.346 111.253C205.137 116.302 204.275 121.427 203.765 126.594C203.723 127.012 204.34 127.007 204.419 126.603C205.021 121.712 205.937 116.866 207.16 112.093C207.189 112.051 207.21 112.003 207.22 111.953L207.304 111.517C207.418 110.897 206.495 110.619 206.346 111.253Z" fill="#DADAD9"/>
<path d="M208.779 114.019C207.976 119.696 206.765 125.308 205.157 130.811C205.136 130.926 205.159 131.045 205.222 131.145C205.284 131.244 205.382 131.316 205.495 131.347C205.608 131.378 205.729 131.365 205.833 131.312C205.938 131.258 206.018 131.168 206.059 131.058C207.729 125.527 208.999 119.883 209.858 114.169C209.876 114.095 209.878 114.018 209.864 113.943C209.85 113.868 209.821 113.797 209.778 113.734C209.735 113.671 209.679 113.618 209.614 113.578C209.549 113.538 209.477 113.512 209.401 113.501C209.326 113.491 209.249 113.496 209.176 113.517C209.102 113.538 209.034 113.574 208.976 113.623C208.917 113.671 208.87 113.732 208.836 113.8C208.802 113.869 208.783 113.943 208.779 114.019Z" fill="#DADAD9"/>
<path d="M210.554 117.117C209.259 122.985 208.131 128.904 207.17 134.872C207.082 135.327 207.789 135.537 207.873 135.068C208.924 129.152 210.142 123.268 211.525 117.416C211.687 116.753 210.697 116.482 210.554 117.117Z" fill="#DADAD9"/>
<path d="M212.988 121.196C211.093 127.277 209.805 133.531 209.146 139.866C209.097 140.322 209.799 140.32 209.859 139.873C210.742 133.637 212.103 127.478 213.929 121.45C213.951 121.33 213.926 121.206 213.86 121.103C213.795 121 213.693 120.925 213.575 120.893C213.457 120.861 213.332 120.874 213.223 120.93C213.114 120.986 213.031 121.081 212.988 121.196Z" fill="#DADAD9"/>
<path d="M214.721 124.437C213.376 130.947 212.203 137.495 211.201 144.081C211.103 144.586 211.897 144.819 211.985 144.298C213.08 137.748 214.343 131.235 215.774 124.759C215.932 124.042 214.852 123.761 214.721 124.437Z" fill="#DADAD9"/>
<path d="M216.419 124.372C214.986 131.962 213.977 139.635 212.779 147.271C212.656 147.903 213.64 148.172 213.744 147.536C214.986 139.909 216.423 132.228 217.428 124.541C217.512 123.941 216.524 123.795 216.419 124.372Z" fill="#DADAD9"/>
<path d="M217.61 126.918C216.361 133.632 215.42 140.413 214.344 147.148C214.221 147.78 215.237 148.088 215.345 147.428C216.431 140.642 217.66 133.864 218.577 127.072C218.644 126.521 217.714 126.38 217.61 126.918Z" fill="#DADAD9"/>
<path d="M219.062 127.546C217.998 133.812 217.282 140.112 216.071 146.355C215.94 147.031 216.972 147.323 217.111 146.642C218.319 140.411 219.618 134.014 220.044 127.691C220.099 127.138 219.157 126.988 219.062 127.546Z" fill="#DADAD9"/>
<path d="M220.635 131.805C219.823 136.198 219.331 140.66 218.716 145.085C218.643 145.628 219.594 145.766 219.68 145.219C220.34 140.803 221.143 136.389 221.629 131.952C221.649 131.82 221.615 131.686 221.536 131.579C221.456 131.472 221.337 131.401 221.206 131.382C221.074 131.362 220.94 131.396 220.833 131.475C220.726 131.555 220.654 131.673 220.635 131.805Z" fill="#DADAD9"/>
<path d="M222.551 134.033C221.701 138.418 221.099 142.872 220.522 147.304C220.437 147.943 221.492 147.984 221.581 147.319C222.15 142.964 222.908 138.652 223.552 134.312C223.645 133.668 222.686 133.371 222.551 134.033Z" fill="#DADAD9"/>
<path d="M224.395 137.307C223.706 140.452 223.397 143.776 222.926 146.982C222.803 147.614 223.803 147.9 223.903 147.251C224.414 144.006 225.116 140.726 225.397 137.449C225.424 136.871 224.523 136.749 224.395 137.307Z" fill="#DADAD9"/>
<path d="M225.936 140.989L225.881 145.569C225.887 145.645 225.922 145.716 225.978 145.768C226.035 145.82 226.108 145.85 226.185 145.851C226.261 145.852 226.336 145.824 226.393 145.773C226.45 145.723 226.487 145.652 226.496 145.576L226.627 141.012C226.62 140.926 226.582 140.847 226.52 140.787C226.458 140.728 226.377 140.694 226.291 140.691C226.206 140.688 226.122 140.717 226.057 140.772C225.991 140.827 225.948 140.905 225.936 140.989Z" fill="#DADAD9"/>
<path d="M264.483 324.122C258.135 317.052 252.338 309.505 247.143 301.549C246.398 300.421 244.543 301.432 245.301 302.595C249.516 309.23 254.175 315.573 259.245 321.579C236.917 310.509 218.24 293.255 205.439 271.871C205.339 271.699 205.197 271.556 205.025 271.457C204.853 271.357 204.659 271.304 204.46 271.302C204.262 271.301 204.066 271.351 203.893 271.449C203.72 271.546 203.576 271.687 203.474 271.857C198.852 278.076 198.853 288.252 198.914 295.68C198.979 302.489 199.867 309.266 201.558 315.863C194.284 306.473 187.181 296.913 181.533 286.441C174.987 274.314 171.124 261.094 167.365 247.914C167.131 247.094 165.816 246.741 165.406 247.639C161.319 256.58 158.442 266.027 156.852 275.729C151.652 262.025 148.96 247.497 148.906 232.84C148.894 232.627 148.815 232.423 148.681 232.257C148.547 232.091 148.364 231.97 148.158 231.913C147.953 231.856 147.734 231.865 147.534 231.938C147.333 232.011 147.16 232.145 147.04 232.321C143.711 237.044 140.378 241.768 137.04 246.493C137.186 238.696 137.967 230.925 139.375 223.255C139.436 223.014 139.417 222.76 139.321 222.53C139.225 222.301 139.057 222.109 138.842 221.984C138.627 221.858 138.377 221.806 138.13 221.836C137.883 221.865 137.652 221.974 137.472 222.146L133.679 225.849C135.268 221.605 138.033 217.902 141.65 215.173C142.216 214.725 141.5 213.917 140.92 214.205C134.911 217.197 131.385 222.801 130.368 229.364C130.196 230.491 131.455 231.47 132.394 230.55C133.807 229.146 135.204 227.725 136.6 226.304C135.436 234.048 134.899 241.872 134.995 249.702C135.003 249.918 135.08 250.125 135.213 250.294C135.347 250.463 135.531 250.585 135.739 250.643C135.946 250.701 136.167 250.691 136.369 250.615C136.57 250.54 136.743 250.402 136.861 250.222C140.211 245.455 143.571 240.697 146.94 235.947C147.376 251.18 150.587 266.205 156.414 280.286C156.86 281.369 158.266 280.645 158.38 279.782C159.654 269.996 162.263 260.431 166.135 251.353C169.722 263.76 173.563 276.11 179.702 287.535C186.31 299.852 194.956 310.924 203.484 321.928C204.166 322.807 205.684 321.876 205.362 320.862C202.85 313.212 201.449 305.241 201.205 297.193C201.021 290.259 200.817 280.863 204.447 274.518C218.395 297.15 238.828 315.063 263.09 325.931C263.331 326.058 263.61 326.095 263.876 326.037C264.143 325.979 264.38 325.828 264.546 325.612C264.713 325.396 264.798 325.128 264.786 324.856C264.775 324.583 264.667 324.323 264.483 324.122Z" fill="#DADAD9"/>
<path d="M252.573 238.404C246.102 230.861 239.652 223.139 232.24 216.489C227.877 212.635 222.846 209.611 217.395 207.565C222.581 207.784 227.734 208.498 232.784 209.697C233.718 209.917 234.728 208.867 234.124 207.99C228.108 198.814 219.587 191.557 209.571 187.079C211.358 186.416 213.15 185.767 214.932 185.096C215.824 184.758 216.199 183.499 215.234 182.965C212.918 181.63 210.41 180.66 207.799 180.087C205.53 179.647 200.708 180.575 199.108 179.189C198.205 178.404 196.888 179.683 197.783 180.512C199.349 181.97 200.977 181.558 203.032 181.641C206.054 181.77 209.02 182.497 211.758 183.779C209.848 184.465 207.946 185.145 206.041 185.838C205.789 185.909 205.567 186.059 205.408 186.267C205.249 186.475 205.161 186.728 205.159 186.99C205.156 187.252 205.238 187.507 205.393 187.718C205.548 187.93 205.767 188.085 206.017 188.161C215.748 191.909 224.203 198.365 230.382 206.766C223.781 205.441 217.044 204.918 210.318 205.21C210.036 205.215 209.765 205.32 209.553 205.507C209.342 205.694 209.204 205.95 209.165 206.23C209.126 206.509 209.188 206.793 209.34 207.031C209.492 207.269 209.723 207.445 209.993 207.527C218.838 210.166 225.989 213.697 232.706 220.14C238.197 225.401 243.226 231.117 248.189 236.872C239.291 234.252 230 233.228 220.745 233.846C220.467 233.845 220.199 233.945 219.989 234.126C219.779 234.308 219.642 234.559 219.602 234.833C219.563 235.108 219.623 235.387 219.773 235.621C219.923 235.854 220.152 236.026 220.418 236.104C234.346 241.276 244.06 252.824 252.824 264.332C243.655 261.648 234.204 260.036 224.663 259.528C224.492 259.527 224.323 259.565 224.168 259.639C224.014 259.713 223.878 259.821 223.772 259.955C223.665 260.09 223.591 260.246 223.554 260.414C223.518 260.581 223.52 260.754 223.56 260.921C226.031 269.55 230.272 277.368 234.761 285.091C239.563 293.357 244.467 301.566 249.474 309.719C249.58 309.906 249.756 310.044 249.964 310.101C250.172 310.159 250.394 310.131 250.581 310.025C250.769 309.919 250.906 309.743 250.964 309.535C251.021 309.327 250.994 309.105 250.888 308.917C246.508 301.048 242.055 293.217 237.529 285.424C233.098 277.844 228.811 270.26 226.187 261.882C236.163 262.55 246.018 264.45 255.527 267.538C256.39 267.824 257.416 266.691 256.817 265.893C248.114 254.371 238.859 242.551 225.826 236.011C234.548 236.005 243.209 237.477 251.439 240.367C252.622 240.754 253.264 239.206 252.573 238.404Z" fill="#DADAD9"/>
<path d="M197.579 198.136C195.09 196.126 192.58 194.157 190.002 192.268C189.079 191.584 187.906 193.101 188.768 193.864C191.115 195.932 195.303 198.239 197.088 200.802C198.519 201.302 198.686 201.859 197.574 202.489C197.306 202.86 196.957 203.166 196.554 203.383C196.15 203.6 195.703 203.723 195.246 203.742C193.212 204.66 190.923 205.206 188.811 205.918C188.608 205.973 188.422 206.081 188.273 206.23C188.124 206.379 188.016 206.565 187.96 206.768C187.904 206.972 187.902 207.186 187.954 207.39C188.006 207.595 188.11 207.782 188.256 207.934C190.445 210.148 192.957 212.016 195.706 213.477C198.438 214.872 202.099 215.706 204.033 218.212C200.709 217.87 197.381 217.519 194.053 217.235C191.706 217.029 190.032 217.006 188.192 218.511C187.972 218.739 187.849 219.043 187.849 219.36C187.849 219.677 187.971 219.981 188.191 220.209C191.382 224.041 194.649 227.809 197.992 231.512C200.635 234.418 204.048 237.276 206.028 240.794C202.376 238.569 198.668 236.438 194.901 234.401C194.693 234.289 194.457 234.238 194.221 234.255C193.985 234.273 193.759 234.358 193.57 234.5C193.381 234.642 193.237 234.836 193.154 235.057C193.072 235.279 193.055 235.52 193.105 235.751C194.378 241.899 195.837 247.972 197.341 254.047C191.419 244.869 186.441 235.117 182.481 224.938C182.409 224.704 182.272 224.495 182.086 224.336C181.899 224.177 181.671 224.074 181.429 224.04C181.186 224.006 180.939 224.042 180.716 224.144C180.493 224.246 180.304 224.409 180.17 224.614C177.679 228.499 175.742 232.711 174.413 237.13C173.051 229.682 172.284 222.138 172.119 214.569C172.114 214.334 172.041 214.105 171.909 213.91C171.777 213.715 171.591 213.563 171.375 213.472C171.158 213.381 170.919 213.354 170.687 213.396C170.456 213.437 170.241 213.545 170.07 213.706C165.298 217.918 160.937 222.575 157.046 227.613C157.069 222.594 158.061 217.882 159.41 212.918C159.436 212.82 159.436 212.718 159.41 212.62C159.385 212.522 159.334 212.433 159.264 212.361C159.193 212.288 159.105 212.235 159.008 212.207C158.911 212.179 158.809 212.176 158.71 212.199L154.517 213.13L154.51 213.168C155.61 213.21 157.265 212.856 157.603 213.885C157.874 214.718 155.881 219.046 155.677 219.997C154.938 223.571 154.67 227.227 154.88 230.871C154.886 231.117 154.971 231.355 155.123 231.549C155.275 231.744 155.485 231.884 155.723 231.949C155.96 232.014 156.213 232.001 156.442 231.911C156.672 231.822 156.866 231.661 156.997 231.452C160.858 226.337 165.159 221.57 169.851 217.204C170.157 225.973 171.255 234.696 173.131 243.268C173.387 244.452 175.334 244.554 175.565 243.294C176.539 237.931 178.406 232.77 181.089 228.025C185.843 239.723 191.92 250.839 199.202 261.154C199.963 262.233 201.824 261.663 201.456 260.28C199.572 252.82 197.721 245.354 196.085 237.83C200.103 240.061 204.063 242.396 207.965 244.835C208.173 244.948 208.408 244.999 208.643 244.982C208.878 244.964 209.104 244.88 209.292 244.738C209.481 244.596 209.625 244.403 209.707 244.182C209.788 243.961 209.805 243.721 209.754 243.49C208.609 238.81 205.143 235.685 201.971 232.264C198.174 228.171 194.504 223.971 190.912 219.701C193.01 219.026 196.226 219.859 198.06 220.038L206.115 220.832C206.299 220.834 206.481 220.794 206.647 220.715C206.813 220.636 206.959 220.519 207.073 220.375C207.187 220.231 207.267 220.062 207.305 219.882C207.344 219.702 207.341 219.515 207.296 219.337C206.32 216.525 204.431 214.939 201.803 213.616C198.082 211.741 194.627 210.212 191.467 207.606C194.133 206.812 197.004 206.103 199.336 204.863C200.329 204.341 201.239 203.875 201.33 202.627C201.494 200.567 198.866 199.173 197.579 198.136Z" fill="#DADAD9"/>
</svg>
