<svg width="43" height="44" viewBox="0 0 43 44" fill="none" xmlns="http://www.w3.org/2000/svg">
<path d="M41.5059 40.139L31.116 29.4194C33.7874 26.2692 35.2511 22.3055 35.2511 18.1792C35.2511 8.53835 27.3441 0.694641 17.6255 0.694641C7.90697 0.694641 0 8.53835 0 18.1792C0 27.82 7.90697 35.6637 17.6255 35.6637C21.274 35.6637 24.7509 34.572 27.7234 32.4997L38.1923 43.3006C38.6298 43.7514 39.2184 44 39.8491 44C40.446 44 41.0123 43.7742 41.4422 43.3637C42.3557 42.4918 42.3848 41.0459 41.5059 40.139ZM17.6255 5.25582C24.8091 5.25582 30.6531 11.0531 30.6531 18.1792C30.6531 25.3052 24.8091 31.1025 17.6255 31.1025C10.442 31.1025 4.59797 25.3052 4.59797 18.1792C4.59797 11.0531 10.442 5.25582 17.6255 5.25582Z" fill="#FAFAFA"/>
</svg>
