<svg width="29" height="30" viewBox="0 0 29 30" fill="none" xmlns="http://www.w3.org/2000/svg">
<path d="M28.5591 27.3252L21.4101 19.8992C23.2482 17.7169 24.2553 14.971 24.2553 12.1125C24.2553 5.43377 18.8148 0 12.1277 0C5.44058 0 0 5.43377 0 12.1125C0 18.7912 5.44058 24.225 12.1277 24.225C14.6381 24.225 17.0304 23.4687 19.0758 22.0331L26.2791 29.5155C26.5802 29.8278 26.9851 30 27.4191 30C27.8298 30 28.2195 29.8436 28.5153 29.5592C29.1438 28.9552 29.1639 27.9535 28.5591 27.3252ZM12.1277 3.15978C17.0705 3.15978 21.0916 7.17586 21.0916 12.1125C21.0916 17.0491 17.0705 21.0652 12.1277 21.0652C7.18485 21.0652 3.16374 17.0491 3.16374 12.1125C3.16374 7.17586 7.18485 3.15978 12.1277 3.15978Z" fill="#E82323"/>
</svg>
