<svg width="16" height="15" viewBox="0 0 16 15" fill="none" xmlns="http://www.w3.org/2000/svg">
<path d="M15.7567 13.6626L11.8125 9.94962C12.8266 8.85844 13.3823 7.48552 13.3823 6.05624C13.3823 2.71688 10.3806 0 6.69113 0C3.0017 0 0 2.71688 0 6.05624C0 9.3956 3.0017 12.1125 6.69113 12.1125C8.07619 12.1125 9.39609 11.7344 10.5246 11.0166L14.4988 14.7578C14.6649 14.9139 14.8883 15 15.1278 15C15.3544 15 15.5694 14.9218 15.7326 14.7796C16.0794 14.4776 16.0904 13.9768 15.7567 13.6626ZM6.69113 1.57989C9.4182 1.57989 11.6367 3.58793 11.6367 6.05624C11.6367 8.52456 9.4182 10.5326 6.69113 10.5326C3.96406 10.5326 1.74551 8.52456 1.74551 6.05624C1.74551 3.58793 3.96406 1.57989 6.69113 1.57989Z" fill="#1C1C1B"/>
</svg>
