<svg width="205" height="148" viewBox="0 0 205 148" fill="none" xmlns="http://www.w3.org/2000/svg">
<path opacity="0.52" d="M191.835 35.0042H201.799L204.881 28.4873H162.114L159.008 35.0042H176.881C182.121 35.8978 187.537 38.2991 189.094 42.5545H162.09L159.008 49.0714H188.686C188.239 49.9749 187.619 50.7824 186.863 51.4483C181.999 55.8557 171.999 55.9287 163.908 55.7889V60.2388L191.55 88.0206H200.766L174.941 62.0565C180.194 61.637 186.832 60.2631 191.227 56.2874C193.379 54.382 194.896 51.8639 195.574 49.0714H201.75L204.833 42.5545H195.805C195.286 39.6907 193.9 37.0551 191.835 35.0042Z" fill="#A0A0A0"/>
<path opacity="0.15" d="M117.062 112.016H123.67L125.706 107.693H97.359L95.3164 112.016H107.165C110.636 112.624 114.229 114.198 115.262 117.019H97.359L95.3164 121.341H114.989C114.689 121.939 114.276 122.474 113.773 122.916C110.551 125.84 103.918 125.888 98.5748 125.797V128.739L116.904 147.165H122.983L105.858 129.949C109.347 129.676 113.761 128.733 116.66 126.125C118.086 124.863 119.09 123.193 119.536 121.341H123.639L125.676 117.019H119.694C119.348 115.121 118.43 113.375 117.062 112.016Z" fill="#A0A0A0"/>
<path opacity="0.99" d="M85.838 3.80557H91.6558L93.4795 0H68.5063L66.6825 3.80557H77.1205C80.1601 4.32838 83.3395 5.73266 84.2514 8.21297H68.482L66.6582 12.0185H83.9899C83.7292 12.5441 83.3725 13.0162 82.9382 13.4106C80.0993 15.9821 74.2572 16.0247 69.5336 15.9457V18.5415L85.6739 34.7668H91.0539L75.9715 19.6053C79.0111 19.3622 82.92 18.5597 85.4855 16.2375C86.7432 15.1235 87.6299 13.6512 88.0265 12.0185H91.6315L93.4552 8.21297H88.1846C87.8738 6.53763 87.0545 4.99871 85.838 3.80557Z" fill="#A0A0A0"/>
<path opacity="0.29" d="M31.8306 77.9532H41.5025L44.4935 71.6309H2.98489L0 77.9532H17.3621C22.4443 78.8164 27.6967 81.1508 29.2165 85.2786H3.00315L0.0182553 91.6009H28.8153C28.388 92.4762 27.7956 93.2606 27.0706 93.911C22.3531 98.1664 12.6447 98.2576 4.79039 98.1239V102.44L31.5996 129.407H40.542L15.4776 104.209C20.5841 103.808 27.028 102.47 31.2835 98.6102C33.3717 96.7622 34.8422 94.3177 35.4963 91.607H41.4964L44.4874 85.2847H35.7273C35.2125 82.4985 33.852 79.9386 31.8306 77.9532Z" fill="#A0A0A0"/>
</svg>
