<svg width="251" height="251" viewBox="0 0 251 251" fill="none" xmlns="http://www.w3.org/2000/svg">
<path d="M159.02 33.6297C105.601 12.7946 52.8742 42.9526 32.9717 93.9587C14.8971 146.751 39.9812 197.241 91.5759 217.378C145.451 238.399 199.396 209.597 217.713 156.501C235.453 104.954 208.8 53.0444 159.02 33.6297ZM43.981 97.9996C61.5792 52.9142 104.157 29.0118 151.371 43.3895C199.081 57.9213 220.481 106.244 206.704 152.46C174.357 260.911 7.55567 204.439 43.981 97.9996Z" fill="#DADAD9"/>
<path d="M119.911 103.03C120.821 100.553 121.453 98.0387 122.326 95.5849C124.847 88.4601 113.841 84.4109 111.308 91.541C110.398 94.0187 109.778 96.5273 108.902 98.9894C106.372 106.111 117.379 110.16 119.911 103.03Z" fill="#DADAD9"/>
<path d="M154.955 115.893C155.864 113.415 157.008 111.089 157.931 108.654C160.62 101.581 149.6 97.5456 146.921 104.613C146.012 107.091 144.871 109.408 143.937 111.849C141.256 118.925 152.268 122.957 154.955 115.893Z" fill="#DADAD9"/>
<path d="M177.981 143.631C159.53 160.476 138.698 169.23 113.889 160.808C87.4333 151.819 78.7742 129.579 71.7895 104.972C71.3819 103.53 69.1954 103.027 68.6551 104.703C64.9138 116.3 67.2083 127.667 72.8328 137.697C65.0797 143.858 59.4774 153.657 65.6344 162.824C68.9478 167.789 73.6429 172.436 79.9473 172.342C86.8088 172.236 93.5334 168.163 98.0131 163.209C101.363 165.317 104.875 167.154 108.517 168.705C134.193 179.46 168.59 172.789 181.242 145.953C182.159 144.068 179.463 142.273 177.981 143.631ZM80.9445 165.182C76.8982 165.993 74.0431 162.358 71.8958 159.527C67.6471 153.919 71.6664 147.616 76.5891 143.575C77.9313 145.407 79.3955 147.163 80.9101 148.909C80.7821 149.003 80.6488 149.085 80.5177 149.187C79.6562 149.891 78.8654 150.677 78.1564 151.535C77.4434 152.408 76.9673 153.45 76.774 154.561C76.7114 154.74 76.6904 154.932 76.7127 155.121C76.7349 155.311 76.7998 155.492 76.9025 155.652C77.0051 155.813 77.1429 155.948 77.3053 156.047C77.4677 156.147 77.6506 156.208 77.8401 156.227C79.5309 156.33 81.199 155.795 82.514 154.728C83.2967 154.153 84.1011 153.595 84.9086 153.029C87.2087 155.235 89.6395 157.301 92.1878 159.215C89.1465 162.334 85.2132 164.433 80.9294 165.223L80.9445 165.182Z" fill="#DADAD9"/>
</svg>
