<svg width="12" height="10" viewBox="0 0 12 10" fill="none" xmlns="http://www.w3.org/2000/svg">
<path d="M8.6488 7.60327C8.68176 7.54083 8.69455 7.46979 8.6854 7.39986C8.6854 5.99351 8.6854 4.58701 8.6854 3.18038C8.6854 2.87632 8.88178 2.68019 9.17549 2.68362C9.23688 2.68235 9.2979 2.69336 9.35493 2.71598C9.41196 2.7386 9.46384 2.77238 9.5075 2.81531C9.55115 2.85825 9.5857 2.90946 9.60908 2.96592C9.63246 3.02237 9.64421 3.08292 9.64362 3.14398C9.64749 3.53796 9.64362 3.93237 9.64362 4.32636C9.64362 5.34871 9.64362 6.37079 9.64362 7.39258V7.56345C9.71381 7.55702 9.74181 7.50692 9.77669 7.47223C10.224 7.02943 10.6706 6.58562 11.1165 6.14082C11.2233 6.03419 11.3408 5.95753 11.501 5.95668C11.7022 5.95668 11.855 6.0359 11.9433 6.21362C11.9878 6.29585 12.0069 6.38933 11.9981 6.4823C11.9893 6.57527 11.953 6.66357 11.8938 6.73608C11.8541 6.7854 11.8109 6.83191 11.7646 6.87526C11.0308 7.60627 10.2896 8.33428 9.55921 9.07514C9.50915 9.1278 9.44889 9.16984 9.38206 9.19872C9.31523 9.22761 9.24322 9.24275 9.17035 9.24323C9.09748 9.24371 9.02527 9.22952 8.95806 9.20152C8.89086 9.17351 8.83004 9.13227 8.77928 9.08028C8.03425 8.32743 7.28059 7.58143 6.52952 6.83714C6.43392 6.7425 6.35252 6.64144 6.33831 6.50183C6.31549 6.27957 6.41023 6.095 6.59369 6.00293C6.78878 5.90529 7.01229 5.94255 7.18628 6.11341C7.61435 6.53452 8.04013 6.95777 8.46361 7.38315C8.5252 7.44482 8.57644 7.51677 8.6488 7.60327Z" fill="#333333"/>
<path opacity="0.3" d="M5.2796 0.894106C4.00461 0.894106 2.7288 0.894106 1.45215 0.894106C1.10292 0.894106 0.881734 0.592817 0.999809 0.285911C1.03042 0.201236 1.088 0.128079 1.16433 0.0769137C1.24065 0.0257486 1.3318 -0.000799909 1.42471 0.00106983C1.81677 -0.00133728 2.20883 0.00106983 2.6013 0.00106983C4.77487 0.00106983 6.94844 0.00106983 9.12201 0.00106983C9.42094 0.00106983 9.61468 0.178794 9.61468 0.448792C9.61468 0.708759 9.42468 0.894106 9.14945 0.894507C8.44059 0.894507 7.73172 0.894507 7.02327 0.894507L5.2796 0.894106Z" fill="#333333"/>
<path d="M3.51383 4.47164C2.81615 4.47164 2.11848 4.47164 1.42081 4.47164C1.3123 4.4718 1.20735 4.43469 1.12513 4.36709C1.0429 4.29949 0.988881 4.20591 0.972933 4.10343C0.940131 3.86653 1.06587 3.66697 1.28918 3.5967C1.34387 3.5821 1.40067 3.57599 1.45739 3.57863H5.54293C5.84361 3.57863 6.03832 3.75892 6.03664 4.03076C6.03664 4.29416 5.84025 4.47244 5.54755 4.47244C4.87048 4.47271 4.19258 4.47244 3.51383 4.47164Z" fill="#333333"/>
<path d="M3.07061 7.15647C3.5942 7.15647 4.11793 7.15647 4.64181 7.15647C4.9459 7.15647 5.14256 7.33465 5.14214 7.60432C5.14172 7.874 4.94505 8.05057 4.63969 8.05057C3.58292 8.05057 2.52558 8.05057 1.46768 8.05057C1.16359 8.05057 0.967351 7.8728 0.967774 7.60232C0.968197 7.33184 1.16317 7.15687 1.4698 7.15647C2.00354 7.15593 2.53714 7.15593 3.07061 7.15647Z" fill="#333333"/>
</svg>
