<svg width="518" height="422" viewBox="0 0 518 422" fill="none" xmlns="http://www.w3.org/2000/svg">
<path d="M106.99 354.331L201.265 263.624L90.6963 351.017L106.99 354.331Z" fill="#F9EC23" fill-opacity="0.87"/>
<path d="M423.967 359.063L329.629 268.418L440.257 355.737L423.967 359.063Z" fill="#F9EC23" fill-opacity="0.87"/>
<path d="M35.787 329.698L151.385 268.439L21.0352 322.028L35.787 329.698Z" fill="#F9EC23" fill-opacity="0.87"/>
<path d="M106.376 378.854L191.451 279.469L97.1494 379.101L106.376 378.854Z" fill="#F9EC23" fill-opacity="0.87"/>
<path d="M125.921 395.074L189.512 294.165L111.702 400.176L125.921 395.074Z" fill="#F9EC23" fill-opacity="0.87"/>
<path d="M333.638 399.213L283.901 289.229L318.739 421.914L333.638 399.213Z" fill="#F9EC23" fill-opacity="0.87"/>
<path d="M507.045 261.045L387.694 243.001L518 285.892L507.045 261.045Z" fill="#F9EC23" fill-opacity="0.87"/>
<path d="M74.6274 339.289L158.341 282.279L67.8916 337.832L74.6274 339.289Z" fill="#F9EC23" fill-opacity="0.87"/>
<path d="M65.3904 277.343L164.003 243.671L59.4014 274.26L65.3904 277.343Z" fill="#F9EC23" fill-opacity="0.87"/>
<path d="M36.2102 301.604L132.999 262.995L30.0703 298.826L36.2102 301.604Z" fill="#F9EC23" fill-opacity="0.87"/>
<path d="M23.0214 267.421L123.452 239.624L17.2236 263.988L23.0214 267.421Z" fill="#F9EC23" fill-opacity="0.87"/>
<path d="M52.6509 230.493L157.775 219.961L47.7471 226.171L52.6509 230.493Z" fill="#F9EC23" fill-opacity="0.87"/>
<path d="M5.50344 213.972L135.923 211.853L0 208.163L5.50344 213.972Z" fill="#F9EC23" fill-opacity="0.87"/>
<path d="M13.4348 160.078L150.87 188.445L9.34766 152.728L13.4348 160.078Z" fill="#F9EC23" fill-opacity="0.87"/>
<path d="M29.6474 184.13L169.408 196.766L24.751 177.287L29.6474 184.13Z" fill="#F9EC23" fill-opacity="0.87"/>
<path d="M50.3735 135.496L178.225 180.852L48.3281 128.268L50.3735 135.496Z" fill="#F9EC23" fill-opacity="0.87"/>
<path d="M106.751 40.6504L206.011 149.877L109.109 31.6484L106.751 40.6504Z" fill="#F9EC23" fill-opacity="0.87"/>
<path d="M359.216 44.1154L301.489 147.415L367.586 42.5078L359.216 44.1154Z" fill="#F9EC23" fill-opacity="0.87"/>
<path d="M394.096 66.6993L328.875 140.238L401.03 66.6367L394.096 66.6993Z" fill="#F9EC23" fill-opacity="0.87"/>
<path d="M488.698 67.5605L406.802 121.907L495.42 69.2785L488.698 67.5605Z" fill="#F9EC23" fill-opacity="0.87"/>
<path d="M484.714 51.5137L325.041 168.969L496.225 54.6443L484.714 51.5137Z" fill="#F9EC23" fill-opacity="0.87"/>
<path d="M458.474 144.623L360.022 178.769L464.481 147.68L458.474 144.623Z" fill="#F9EC23" fill-opacity="0.87"/>
<path d="M480.558 154.637L380.274 182.952L488.482 165.239L480.558 154.637Z" fill="#F9EC23" fill-opacity="0.87"/>
<path d="M489.063 183.485L383.935 194.018L493.967 187.804L489.063 183.485Z" fill="#F9EC23" fill-opacity="0.87"/>
<path d="M462.724 197.837L341.276 206.217L468.216 202.987L462.724 197.837Z" fill="#F9EC23" fill-opacity="0.87"/>
<path d="M512.544 213.884L406.971 217.964L517.176 218.497L512.544 213.884Z" fill="#F9EC23" fill-opacity="0.87"/>
<path d="M470.084 237.582L364.882 229.051L473.81 242.695L470.084 237.582Z" fill="#F9EC23" fill-opacity="0.87"/>
<path d="M479.958 291.009L339.043 241.525L482.868 299.484L479.958 291.009Z" fill="#F9EC23" fill-opacity="0.87"/>
<path d="M490.236 324.427L355.192 260.637L492.256 333.16L490.236 324.427Z" fill="#F9EC23" fill-opacity="0.87"/>
<path d="M451.113 346.187L359.968 282.279L451.113 352.915V346.187Z" fill="#F9EC23" fill-opacity="0.87"/>
<path d="M494.408 354.615L398.882 297.473L494.898 361.325L494.408 354.615Z" fill="#F9EC23" fill-opacity="0.87"/>
<path d="M374.638 352.665L313.07 276.603L372.736 358.532L374.638 352.665Z" fill="#F9EC23" fill-opacity="0.87"/>
<path d="M358.812 382.154L310.293 299.234L355.969 387.723L358.812 382.154Z" fill="#F9EC23" fill-opacity="0.87"/>
<path d="M411.758 357.79L342.347 291.373L410.555 363.926L411.758 357.79Z" fill="#F9EC23" fill-opacity="0.87"/>
<path d="M291.384 393.555L276.448 301.365L286.624 398.029L291.384 393.555Z" fill="#F9EC23" fill-opacity="0.87"/>
<path d="M190.642 386.613L223.464 299.047L184.167 388.478L190.642 386.613Z" fill="#F9EC23" fill-opacity="0.87"/>
<path d="M229.548 394.287L243.788 301.861L223.592 397.436L229.548 394.287Z" fill="#F9EC23" fill-opacity="0.87"/>
<path d="M244.263 384.182L250.542 290.877L238.594 387.827L244.263 384.182Z" fill="#F9EC23" fill-opacity="0.87"/>
<path d="M196.866 394.592L236.725 274.812L188.225 397.432L196.866 394.592Z" fill="#F9EC23" fill-opacity="0.87"/>
<path d="M267.085 383.655L262.078 273.55L260.931 388.677L267.085 383.655Z" fill="#F9EC23" fill-opacity="0.87"/>
<path d="M165.446 397.668L223.931 283.56L156.403 399.662L165.446 397.668Z" fill="#F9EC23" fill-opacity="0.87"/>
<path d="M84.9027 66.376L182.684 153.294L68.7529 70.3307L84.9027 66.376Z" fill="#F9EC23" fill-opacity="0.87"/>
<path d="M417.805 63.4883L324.585 155.274L434.139 66.6116L417.805 63.4883Z" fill="#F9EC23" fill-opacity="0.87"/>
<path d="M30.0636 93.2861L145.706 154.464L15.3154 100.964L30.0636 93.2861Z" fill="#F9EC23" fill-opacity="0.87"/>
<path d="M27.0982 240.18L157.135 225.825L19.2109 254.818L27.0982 240.18Z" fill="#F9EC23" fill-opacity="0.87"/>
<path d="M97.7373 46.6318L188.849 140.514L88.5146 46.9629L97.7373 46.6318Z" fill="#F9EC23" fill-opacity="0.87"/>
<path d="M324.467 21.4325L283.718 135.055L307.795 0L324.467 21.4325Z" fill="#F9EC23" fill-opacity="0.87"/>
<path d="M69.2566 83.4121L152.489 141.125L62.5098 84.81L69.2566 83.4121Z" fill="#F9EC23" fill-opacity="0.87"/>
<path d="M473.929 130.674L334.003 182.894L476.677 122.143L473.929 130.674Z" fill="#F9EC23" fill-opacity="0.87"/>
<path d="M483.942 96.9611L350.487 164.014L485.748 88.1836L483.942 96.9611Z" fill="#F9EC23" fill-opacity="0.87"/>
<path d="M367.947 69.4738L308.682 147.342L365.872 63.665L367.947 69.4738Z" fill="#F9EC23" fill-opacity="0.87"/>
<path d="M351.135 39.7159L306.931 125.012L348.011 34.3008L351.135 39.7159Z" fill="#F9EC23" fill-opacity="0.87"/>
<path d="M284.354 29.1802L272.398 121.804L279.451 24.8613L284.354 29.1802Z" fill="#F9EC23" fill-opacity="0.87"/>
<path d="M184.707 32.7085L218.048 120.076L178.218 30.8838L184.707 32.7085Z" fill="#F9EC23" fill-opacity="0.87"/>
<path d="M222.815 28.8087L239.318 120.855L216.782 25.8105L222.815 28.8087Z" fill="#F9EC23" fill-opacity="0.87"/>
<path d="M236.824 38.8221L246.831 131.803L231.016 35.4082L236.824 38.8221Z" fill="#F9EC23" fill-opacity="0.87"/>
<path d="M189.895 28.536L232.267 147.448L181.194 25.8799L189.895 28.536Z" fill="#F9EC23" fill-opacity="0.87"/>
<path d="M259.949 39.2309L258.128 149.436L253.651 34.3896L259.949 39.2309Z" fill="#F9EC23" fill-opacity="0.87"/>
<path d="M153.864 26.0901L215.605 138.469L144.771 24.3574L153.864 26.0901Z" fill="#F9EC23" fill-opacity="0.87"/>
</svg>
