<svg width="203" height="229" viewBox="0 0 203 229" fill="none" xmlns="http://www.w3.org/2000/svg">
<path d="M201.455 50.414C201.958 50.0456 202.338 49.5358 202.549 48.9497C202.76 48.3636 202.791 47.728 202.638 47.1242C202.629 46.5266 202.488 45.9384 202.225 45.4017C196.208 33.0002 190.461 20.1394 183.393 8.28902C183.122 7.797 182.737 7.37704 182.271 7.06437C181.804 6.75169 181.27 6.55541 180.712 6.49194C180.008 6.11147 179.184 6.02082 178.415 6.23932C143.587 4.61448 108.794 2.51312 73.978 0.647149C72.313 -0.397795 70.0278 -0.31742 68.891 1.93323C53.6992 31.9093 38.5131 61.9084 23.9355 92.1831C23.6749 92.7206 23.5339 93.3082 23.5222 93.9055C23.1265 94.4694 22.9089 95.139 22.8977 95.8278C22.8864 96.5166 23.0819 97.1929 23.4589 97.7695C30.3487 109.304 35.9638 121.786 41.8316 133.877C27.5526 163.061 14.554 192.877 0.803198 222.296C-0.792925 224.053 0.165936 226.826 2.13525 227.963C3.49024 228.847 5.24137 228.95 6.43559 227.727C37.3016 212.346 67.9609 196.528 98.6719 180.825C98.9475 180.831 99.2203 180.769 99.4658 180.644C99.7113 180.519 99.9219 180.334 100.079 180.108C102.054 179.091 104.04 178.081 106.021 177.07C106.143 177.023 106.261 176.963 106.371 176.892C129.423 165.117 152.607 153.404 175.929 142.019C176.632 141.73 177.208 141.197 177.551 140.518C177.894 139.839 177.98 139.059 177.795 138.321C177.91 137.536 177.782 136.735 177.427 136.025C171.537 123.801 165.795 111.497 160.077 99.1934C159.989 98.4817 159.651 97.8243 159.124 97.3389C158.879 96.9876 158.56 96.6937 158.19 96.4776C157.821 96.2615 157.408 96.1283 156.982 96.0873C154.984 95.1112 152.982 94.1543 150.977 93.2165C167.529 78.6332 184.541 64.561 201.455 50.414ZM165.52 138.643C160.352 129.175 155.317 119.662 150.207 110.177C151.775 108.833 153.354 107.501 154.904 106.158C159.658 116.389 164.465 126.597 169.326 136.783C168.057 137.385 166.789 138 165.52 138.643ZM158.63 142.025C153.807 133.125 149.042 124.226 144.248 115.281C145.442 114.27 146.619 113.237 147.813 112.221C152.791 121.476 157.734 130.754 162.741 139.998L158.63 142.025ZM151.74 145.412C147.231 137.06 142.738 128.699 138.259 120.328L141.848 117.325C146.521 126.012 151.166 134.71 155.857 143.38C154.531 144.063 153.153 144.729 151.815 145.412H151.74ZM144.891 148.857C140.68 141.003 136.47 133.156 132.259 125.317C133.465 124.324 134.677 123.342 135.871 122.349C140.265 130.509 144.65 138.668 149.024 146.824C147.675 147.456 146.309 148.151 144.925 148.834L144.891 148.857ZM138.053 152.302C134.099 144.953 130.148 137.602 126.202 130.249C127.408 129.267 128.608 128.274 129.814 127.286C133.936 134.942 138.049 142.597 142.152 150.252L138.053 152.302ZM131.209 155.747C127.553 148.857 123.896 141.984 120.237 135.129C121.448 134.153 122.654 133.166 123.86 132.184C127.687 139.334 131.53 146.484 135.389 153.634L131.209 155.747ZM124.376 159.192C120.932 152.796 117.498 146.401 114.076 140.009C115.288 139.039 116.511 138.08 117.722 137.139C121.312 143.806 124.895 150.474 128.47 157.142L124.376 159.192ZM117.556 162.636C114.367 156.696 111.179 150.763 107.99 144.838L111.636 141.938C114.985 148.147 118.323 154.357 121.649 160.569L117.556 162.636ZM110.735 166.081C107.795 160.6 104.852 155.121 101.904 149.644C103.122 148.685 104.333 147.709 105.55 146.773C108.651 152.514 111.743 158.267 114.828 164.032L110.735 166.081ZM103.92 169.526C101.21 164.485 98.4997 159.444 95.7898 154.403L99.4586 151.532C102.31 156.838 105.158 162.143 108.002 167.448L103.92 169.526ZM97.1505 173.023C94.6817 168.43 92.2071 163.821 89.7268 159.197L93.3898 156.327C96.0117 161.191 98.628 166.06 101.238 170.933L97.1505 173.023ZM90.3411 176.502C88.102 172.33 85.8609 168.156 83.6179 163.98L87.2809 161.109C89.6655 165.542 92.0463 169.974 94.4233 174.406L90.3411 176.502ZM83.5317 179.981L77.5089 168.78C78.7319 167.821 79.9491 166.856 81.172 165.909C83.327 169.897 85.4743 173.893 87.614 177.897L83.5317 179.981ZM76.7224 183.472C74.954 180.173 73.1818 176.873 71.4058 173.574L75.0688 170.703L80.8103 181.388L76.7224 183.472ZM69.913 186.957C68.382 184.09 66.8509 181.22 65.3199 178.345C66.5371 177.38 67.76 176.427 68.9772 175.474C70.6575 178.598 72.3378 181.723 74.0182 184.85L69.913 186.957ZM63.1037 190.442C61.8138 188.031 60.5181 185.621 59.2167 183.214C60.4339 182.243 61.6396 181.262 62.8625 180.297L67.1916 188.335L63.1037 190.442ZM56.2943 193.927C55.2494 191.975 54.2006 190.025 53.148 188.077C54.3576 187.101 55.5709 186.127 56.7881 185.154L60.3822 191.837L56.2943 193.927ZM49.485 197.407C48.6869 195.914 47.8831 194.427 47.0793 192.934L50.7194 190.017L53.5901 195.317L49.485 197.407ZM42.6699 200.886L41.0507 197.872C42.2565 196.878 43.4392 195.868 44.6506 194.88L46.7578 198.796L42.6699 200.886ZM38.6509 199.864L39.9427 202.27C36.36 204.095 32.7735 205.917 29.1832 207.735C32.318 205.089 35.4758 202.476 38.6451 199.864H38.6509ZM14.8812 209.952C30.9573 174.929 46.4592 139.556 64.8893 105.67C65.3474 104.868 65.4868 103.923 65.2797 103.023C65.2034 102.308 64.9031 101.635 64.4215 101.101C63.9399 100.567 63.3018 100.199 62.5984 100.049C52.5566 97.4365 42.5033 94.9217 32.5993 91.8099C46.1434 63.8203 60.1583 36.0604 74.2134 8.32921C106.704 10.0516 139.184 12.0037 171.686 13.5712C153.313 35.8595 133.54 57.0856 114.696 78.9835C114.257 79.3308 113.907 79.7775 113.674 80.2868C112.268 82.7441 114.03 85.6263 116.264 86.189C127.483 90.6386 138.472 95.6222 149.329 100.87C105.849 138.815 58.5105 172.207 14.8755 209.952H14.8812ZM53.636 110.573L50.5644 104.831L55.9269 106.227C55.1652 107.677 54.4016 109.126 53.636 110.573ZM46.5166 103.781C48.3156 107.13 50.1146 110.479 51.9136 113.828C51.0581 115.476 50.1912 117.118 49.3587 118.766C46.3731 113.22 43.3894 107.67 40.4077 102.116C42.4459 102.678 44.4841 103.241 46.5224 103.781H46.5166ZM184.886 54.3182C179.994 45.2754 175.125 36.1982 170.274 27.1439C171.336 25.8865 172.404 24.6349 173.46 23.3775C178.478 32.6844 183.444 42.02 188.485 51.3154L184.886 54.3182ZM178.903 59.342C174.224 50.7298 169.596 42.043 164.946 33.3964L168.149 29.6644C172.932 38.5522 177.686 47.4629 182.503 56.3335C181.293 57.3248 180.093 58.3277 178.903 59.342ZM172.915 64.3542C168.455 56.1095 164.015 47.8495 159.595 39.5742C160.662 38.3455 161.73 37.1053 162.798 35.8709C167.361 44.3683 171.929 52.8599 176.503 61.3457L172.915 64.3542ZM166.938 69.3895C162.674 61.5046 158.429 53.6101 154.203 45.706L157.441 42.0315C161.793 50.1461 166.153 58.2568 170.52 66.3638C169.326 67.38 168.138 68.3733 166.938 69.378V69.3895ZM161.001 74.4477C156.925 66.9111 152.867 59.363 148.829 51.8035L152.073 48.1404C156.238 55.9028 160.406 63.6596 164.578 71.4105L161.001 74.4477ZM155.047 79.5289C151.155 72.3291 147.279 65.1198 143.421 57.9009C144.508 56.6837 145.589 55.4646 146.665 54.2436C150.638 61.6539 154.622 69.0642 158.618 76.4745L155.047 79.5289ZM149.134 84.6962C145.405 77.8065 141.698 70.9167 138.012 64.027C139.092 62.8098 140.173 61.5907 141.256 60.3697C145.057 67.4623 148.866 74.5434 152.682 81.613C151.476 82.6121 150.293 83.6455 149.111 84.679L149.134 84.6962ZM125.019 78.7596C125.64 79.9538 126.271 81.148 126.891 82.3422C125.668 81.8312 124.44 81.3375 123.211 80.838C123.808 80.126 124.405 79.437 125.014 78.7423L125.019 78.7596ZM131.335 84.2541C129.942 81.6016 128.554 78.9414 127.172 76.2735L130.434 72.5703C133.075 77.4926 135.718 82.413 138.363 87.3315C136.026 86.2636 133.678 85.2531 131.329 84.2369L131.335 84.2541ZM142.565 89.2722C142.605 88.9679 142.549 88.6587 142.405 88.388C139.113 82.3097 135.842 76.2199 132.592 70.1187C133.672 68.8958 134.745 67.6728 135.831 66.4499C139.459 73.2248 143.095 79.994 146.739 86.7574C145.631 87.7277 144.506 88.6865 143.398 89.6626L142.565 89.2722ZM194.302 46.4754L190.908 49.3117C185.781 39.8383 180.717 30.3247 175.602 20.8398C176.811 19.3815 178.013 17.9155 179.207 16.4419C184.65 26.1794 189.444 36.4164 194.302 46.4754ZM33.541 100.106C34.4711 100.388 35.4069 100.68 36.337 100.933C40.134 107.976 43.9215 115.026 47.6994 122.085L46.1205 125.219C42.0785 116.814 38.0135 108.322 33.541 100.106Z" fill="#DADAD9"/>
<path d="M76.9983 149.69C60.9567 163.119 44.519 176.514 30.2055 191.815C30.0275 192.004 30.2744 192.36 30.4926 192.188C45.9945 180.28 61.0945 167.775 76.2118 155.345C94.7279 140.124 113.801 125.334 131.433 109.08C132.266 108.317 131.157 106.847 130.21 107.502C111.671 120.397 94.3031 135.198 76.9983 149.69Z" fill="#DADAD9"/>
<path d="M133.866 106.329C134.928 105.543 136.26 105.181 137.311 104.377C138.459 103.505 137.839 101.185 136.226 101.811C135.347 102.092 134.578 102.639 134.025 103.376C133.471 104.114 133.161 105.006 133.137 105.927C133.135 106.013 133.157 106.098 133.2 106.172C133.243 106.246 133.305 106.307 133.38 106.348C133.455 106.39 133.54 106.41 133.626 106.406C133.711 106.403 133.794 106.376 133.866 106.329Z" fill="#DADAD9"/>
<path d="M76.5316 15.2594C69.1711 26.5873 63.3722 38.7994 57.4068 50.9311C51.6998 62.5116 44.5345 74.471 41.1586 87.0333C41.1212 87.1965 41.1426 87.3676 41.2188 87.5166C41.2951 87.6656 41.4215 87.7829 41.5757 87.848C41.7299 87.9131 41.902 87.9218 42.062 87.8726C42.222 87.8233 42.3595 87.7193 42.4504 87.5788C50.4425 76.5552 55.5237 62.8388 61.3972 50.6153C66.9606 39.0463 72.6676 27.5576 77.3699 15.5925C77.5593 15.1331 76.8015 14.8518 76.5316 15.2594Z" fill="#DADAD9"/>
<path d="M139.413 44.3622C143.834 40.5499 147.629 35.8879 151.574 31.5933C155.593 27.1896 159.687 22.8318 163.103 17.9229C163.35 17.5784 162.844 17.2741 162.563 17.5037C157.539 21.6089 153.095 26.3169 148.686 31.0593C145.092 34.929 141.061 39.0055 138.604 43.7422C138.546 43.8502 138.529 43.9753 138.555 44.095C138.581 44.2147 138.648 44.3213 138.745 44.3958C138.843 44.4703 138.963 44.5078 139.086 44.5016C139.208 44.4955 139.324 44.4461 139.413 44.3622Z" fill="#DADAD9"/>
</svg>
