<svg width="32" height="36" viewBox="0 0 32 36" fill="none" xmlns="http://www.w3.org/2000/svg">
<path d="M31.6994 3.54313C32.3411 2.40251 31.8822 1.31893 31.0128 0.695388C30.7199 0.399461 30.3558 0.187118 29.957 0.0796874C29.5582 -0.0277432 29.1387 -0.0265317 28.7405 0.0832147C19.8081 2.22378 10.8308 4.31494 1.8536 6.14373C1.57433 6.20063 1.30675 6.30607 1.0626 6.45548L0.924543 6.53536L0.838733 6.60377C0.535345 6.82469 0.298458 7.1275 0.154758 7.47812C0.0110581 7.82875 -0.0337718 8.21327 0.0253141 8.58844C0.842444 16.9112 2.86475 25.0248 3.7565 33.3247C3.81491 33.9305 4.0788 34.4965 4.50274 34.9254C5.24898 35.9557 6.60338 36.4462 7.65931 35.4767C7.90187 35.3584 8.11649 35.1881 8.28844 34.9775C8.46039 34.7668 8.58562 34.5208 8.65555 34.2562C16.1776 24.405 23.8079 14.5919 31.0203 4.50122C31.3312 4.25383 31.5666 3.9216 31.6994 3.54313ZM7.89064 27.116C7.00635 21.6144 5.89823 16.147 5.23035 10.5997C11.3085 9.33746 17.3679 7.9649 23.4124 6.54673C18.338 13.4589 13.1106 20.2874 7.89064 27.0969V27.116Z" fill="#DADAD9" fill-opacity="0.74"/>
</svg>
