<svg width="92" height="81" viewBox="0 0 92 81" fill="none" xmlns="http://www.w3.org/2000/svg">
<path d="M91.9604 12.9463V14.0144C91.6587 15.5962 90.8916 16.9882 90.1773 18.4029C88.4123 21.8981 86.7026 25.4212 84.8556 28.8751C83.8808 30.698 82.979 31.1325 81.0191 30.5545C79.2267 30.0259 77.4339 29.4987 75.6442 28.961C74.1739 28.5192 73.8892 28.7144 73.8889 30.2466C73.8851 45.4075 73.8843 60.5684 73.8864 75.7293C73.8864 76.293 73.9058 76.8576 73.868 77.4201C73.7479 79.2031 72.7725 80.1771 70.9901 80.302C70.6052 80.3289 70.219 80.3194 69.8333 80.3194C54.1982 80.3204 38.563 80.3199 22.9278 80.3179C22.3349 80.3424 21.741 80.3085 21.1548 80.2166C20.6055 80.1403 20.0965 79.8858 19.7058 79.4923C19.315 79.0987 19.0642 78.5879 18.9918 78.038C18.8988 77.4219 18.8663 76.7981 18.8946 76.1756C18.8912 60.985 18.8904 45.7944 18.8919 30.6038C18.8918 28.5823 18.7417 28.4833 16.7979 29.063C15.1209 29.5631 13.4442 30.065 11.7647 30.5566C9.80077 31.1316 8.89349 30.7017 7.92921 28.8764C5.72564 24.7052 3.6509 20.4691 1.52298 16.2597C1.11633 15.4678 0.853565 14.6099 0.746928 13.7261C0.590741 12.403 1.03557 11.5186 2.22604 10.9672C5.48232 9.45918 8.74033 7.95482 12.0001 6.45415C14.2898 5.39949 16.5344 4.23023 18.8765 3.30992C22.6544 1.88603 26.5625 0.834883 30.545 0.171473C31.9696 -0.0866699 33.029 0.654527 33.5089 2.22718C33.9612 3.7962 34.6481 5.28783 35.5464 6.65148C36.6308 8.23553 38.0495 9.56239 39.7024 10.5385C41.3554 11.5146 43.2023 12.1162 45.1131 12.3009C47.0238 12.4855 48.9518 12.2487 50.7611 11.6072C52.5704 10.9657 54.2169 9.93508 55.5845 8.588C57.2652 6.93808 58.4903 4.88121 59.1404 2.6175C59.7749 0.430326 60.7397 -0.145557 62.9707 0.292405C66.4098 0.952434 69.7979 1.85477 73.1097 2.99265C75.2385 3.73393 77.2263 4.82453 79.2758 5.76096C82.9174 7.4248 86.5329 9.14642 90.1917 10.7719C90.6573 10.9376 91.0685 11.2281 91.3804 11.6115C91.6923 11.9949 91.8929 12.4567 91.9604 12.9463Z" fill="black"/>
</svg>
