<svg width="63" height="78" viewBox="0 0 63 78" fill="none" xmlns="http://www.w3.org/2000/svg">
<path d="M31.9774 70.8227C29.9698 72.5752 28.0317 74.2701 26.0902 75.9611C24.5181 77.3303 23.5332 77.3814 21.8548 76.1795C19.5475 74.5274 17.2239 72.897 14.9501 71.2C14.2653 70.6889 13.8026 70.5974 13.0485 71.1407C10.5976 72.9065 8.06315 74.5558 5.58002 76.2776C4.56768 76.9796 3.53646 77.3166 2.38682 76.6812C1.29181 76.076 0.985722 75.0781 0.986329 73.8822C0.99754 51.7266 1.00203 29.5709 0.999786 7.41527C1.00165 3.5103 3.62166 0.91745 7.54791 0.915147C23.8418 0.905683 40.1356 0.905893 56.4295 0.915775C60.3401 0.918353 62.9422 3.52538 62.944 7.44966C62.9538 29.6053 62.9579 51.761 62.9563 73.9166C62.9568 75.1164 62.6268 76.1056 61.5261 76.6978C60.4175 77.2943 59.4086 76.9987 58.4265 76.3196C55.8502 74.5382 53.2441 72.7994 50.6786 71.0026C50.4814 70.8203 50.2212 70.7216 49.9526 70.7272C49.6841 70.7328 49.4282 70.8424 49.2388 71.0328C46.8652 72.7812 44.4598 74.4866 42.06 76.1994C40.4234 77.3675 39.4093 77.3182 37.9104 76.011C35.9665 74.3156 34.0268 72.6154 31.9774 70.8227ZM31.9361 20.3782C36.6131 20.3782 41.2903 20.3981 45.9671 20.3695C48.1527 20.3562 49.4524 18.2692 48.4425 16.4694C47.8314 15.3804 46.846 15.0642 45.6489 15.0672C38.2467 15.0854 30.8446 15.0885 23.4423 15.0763C21.601 15.0763 19.7593 15.0558 17.9184 15.0845C17.2288 15.0545 16.5549 15.2962 16.0417 15.7578C15.5285 16.2194 15.2169 16.864 15.1739 17.553C15.0756 19.1493 16.2684 20.3661 18.0156 20.3727C22.6557 20.3902 27.2959 20.3786 31.9361 20.3782ZM31.8565 34.5366C36.3126 34.5366 40.7688 34.5365 45.2249 34.5363C45.5564 34.5363 45.8888 34.5484 46.219 34.5272C46.8987 34.5045 47.5435 34.2206 48.0192 33.7346C48.4949 33.2485 48.7649 32.5978 48.7729 31.9177C48.7809 31.2376 48.5263 30.5807 48.0622 30.0836C47.5981 29.5865 46.9601 29.2875 46.2811 29.2489C45.9518 29.2209 45.6186 29.2355 45.2872 29.2355C36.4118 29.235 27.5363 29.2351 18.6608 29.2359C18.2928 29.2236 17.9244 29.2312 17.5571 29.2586C16.9461 29.3151 16.3741 29.5832 15.9396 30.0166C15.5052 30.4499 15.2357 31.0213 15.1776 31.6322C15.1196 32.243 15.2766 32.855 15.6216 33.3625C15.9666 33.8699 16.4779 34.241 17.0673 34.4116C17.4966 34.5103 17.9374 34.5507 18.3776 34.5316C22.8705 34.5396 27.3635 34.5413 31.8565 34.5366ZM24.8928 48.6979C27.1006 48.6979 29.3085 48.704 31.5163 48.6961C33.4152 48.6892 34.6366 47.6256 34.6168 46.0157C34.5976 44.4448 33.3961 43.4022 31.5665 43.3994C27.1141 43.3925 22.6616 43.3925 18.2092 43.3994C16.3672 43.4025 15.1863 44.4329 15.17 46.0178C15.1535 47.6369 16.3621 48.6893 18.2693 48.6963C20.4771 48.7044 22.685 48.6982 24.8928 48.6979Z" fill="black"/>
</svg>
