<svg width="43" height="43" viewBox="0 0 43 43" fill="none" xmlns="http://www.w3.org/2000/svg">
<g clip-path="url(#clip0_1032_3845)">
<path d="M39.5845 18.3874C39.4132 18.3596 39.2399 18.3468 39.0665 18.349H9.5422L10.186 18.0496C10.8153 17.7517 11.3877 17.3464 11.8778 16.8518L20.1572 8.57247C21.2476 7.53156 21.4308 5.85706 20.5913 4.60496C19.6143 3.2707 17.7407 2.981 16.4064 3.95799C16.2986 4.03697 16.1961 4.12306 16.0998 4.21569L1.12809 19.1874C-0.0419533 20.3562 -0.0429826 22.252 1.12575 23.4221C1.1265 23.4228 1.12734 23.4237 1.12809 23.4244L16.0998 38.3961C17.2708 39.5639 19.1667 39.5612 20.3345 38.3903C20.4264 38.2981 20.5122 38.2 20.5913 38.0967C21.4308 36.8446 21.2476 35.1701 20.1572 34.1292L11.8928 25.8349C11.4534 25.3951 10.9483 25.0263 10.3956 24.7419L9.49728 24.3377H38.9018C40.4314 24.3945 41.7734 23.326 42.0608 21.8224C42.3255 20.1901 41.2168 18.6522 39.5845 18.3874Z" fill="white"/>
</g>
<defs>
<clipPath id="clip0_1032_3845">
<rect width="41.85" height="41.85" fill="white" transform="translate(0.25 0.399902)"/>
</clipPath>
</defs>
</svg>
