<svg width="184" height="88" viewBox="0 0 184 88" fill="none" xmlns="http://www.w3.org/2000/svg">
<path fill-rule="evenodd" clip-rule="evenodd" d="M145.188 28.4131C147.772 26.2552 150.337 24.1243 152.851 21.9785C154.19 20.6656 155.614 19.4428 157.115 18.3183C158.956 16.9904 160.626 15.441 162.088 13.7049C165.899 9.62644 170.197 5.88931 174.271 2.09646C175.309 1.40211 176.52 1.00981 177.769 0.963246C179.378 0.681658 180.323 1.34538 183.364 3.56133C182.865 5.85198 180.316 7.12717 180.208 9.89422C180.124 11.8516 177.391 12.6141 175.707 12.6009C171.363 12.5555 169.136 15.6697 166.559 18.1344C165.055 19.5585 163.694 21.1234 162.155 22.4825C157.805 26.3236 153.289 30.0279 149.004 33.9759C148.06 35.0467 146.905 35.9104 145.61 36.5126C144.12 37.2022 142.674 37.9853 141.282 38.8572C140.954 38.6066 140.142 38.2986 140.062 37.8389C139.113 34.4584 137.077 31.4844 134.269 29.3762C129.73 25.1006 125.591 20.3998 119.908 16.8931C116.983 20.3262 114.733 24.2807 113.276 28.5487C110.757 35.4376 106.369 41.4886 100.604 46.0233C98.8811 47.514 97.323 49.1844 95.9556 51.0063C93.1614 54.6258 89.9608 57.9124 86.4166 60.8016C84.4845 62.3949 82.1186 63.3716 79.6252 63.6052C77.1318 63.8388 74.6257 63.3186 72.4313 62.1119C70.8609 57.1206 67.8547 52.7026 63.7882 49.4098C62.8417 48.6041 62.1958 47.4852 61.3292 46.5945C60.0206 44.969 58.5608 43.4713 56.9692 42.1217C53.9916 40.1879 51.5249 37.5638 49.7789 34.4723C49.5565 34.0137 48.8145 33.8356 47.9203 33.3287L45.4998 37.6376C43.7039 40.9132 41.9081 44.1889 40.1042 47.4185C37.0699 52.6877 32.5299 56.7989 28.5761 61.2814C25.7217 64.6001 22.7823 67.839 19.9009 71.1387C19.4446 71.5666 19.0988 72.0985 18.8929 72.6892C17.397 78.8974 11.7491 81.6863 7.94701 85.9527C7.22892 86.5832 6.32546 86.9635 5.37258 87.0363C4.4197 87.1091 3.469 86.8703 2.6635 86.3561C2.28091 86.184 1.93851 85.9339 1.65824 85.6218C1.37797 85.3097 1.166 84.9425 1.03598 84.5436C0.905961 84.1448 0.860705 83.7232 0.903165 83.3058C0.945624 82.8885 1.07485 82.4847 1.28253 82.1202C2.05351 80.8848 2.97765 79.752 4.03293 78.7486C9.00158 74.5149 12.5215 69.0423 16.7678 64.2007C21.014 59.359 25.6919 54.2761 29.9588 49.1465C32.6133 45.9593 35.0228 42.5757 37.1665 39.0248C38.0104 36.9054 38.5616 34.6809 38.8048 32.4126C39.6657 31.646 41.2978 30.4128 42.7017 28.9588C47.0773 24.4499 53.8493 24.9706 55.8865 30.6553C57.1888 33.4234 59.139 35.8369 61.5717 37.6916C65.5973 41.6068 69.3183 45.8123 72.9974 50.0488C75.065 52.3877 76.8201 54.971 78.7591 57.5219C79.6423 57.2517 80.4825 56.8573 81.2548 56.3508C84.9379 53.0292 89.2324 50.3586 91.9208 45.9555C93.1312 44.3231 94.5918 42.8922 96.2487 41.7155C101.485 37.5556 105.44 32.002 107.659 25.6936C108.574 23.3724 109.661 21.1231 110.912 18.9648C111.862 17.5921 112.644 16.111 113.244 14.553C114.117 10.6096 117.565 8.51378 119.468 5.314C120.051 4.31177 122.137 4.58645 122.721 5.62144C123.176 6.28494 123.478 7.0412 123.606 7.83567C123.69 9.28829 124.133 10.6973 124.896 11.9365C125.659 13.1757 126.717 14.2064 127.975 14.9363C131.043 17.1069 133.793 19.6959 136.144 22.6278C138.504 25.4272 141.657 27.4444 145.188 28.4131Z" fill="#DADAD9" fill-opacity="0.3"/>
</svg>
